M48
; DRILL file {KiCad 8.0.6-8.0.6-0~ubuntu22.04.1} date 2024-12-04T17:56:31+0100
; FORMAT={-:-/ absolute / inch / decimal}
; #@! TF.CreationDate,2024-12-04T17:56:31+01:00
; #@! TF.GenerationSoftware,Kicad,Pcbnew,8.0.6-8.0.6-0~ubuntu22.04.1
; #@! TF.FileFunction,Plated,1,2,PTH
FMAT,2
INCH
; #@! TA.AperFunction,Plated,PTH,ComponentDrill
T1C0.0394
; #@! TA.AperFunction,Plated,PTH,ComponentDrill
T2C0.0512
%
G90
G05
T1
X3.336Y-2.9783
X3.336Y-3.0783
X3.336Y-3.1783
X3.336Y-3.2783
X3.336Y-3.3783
X3.336Y-3.4783
X3.436Y-2.9783
X3.436Y-3.0783
X3.436Y-3.1783
X3.436Y-3.2783
X3.436Y-3.3783
X3.436Y-3.4783
T2
X3.8189Y-2.6565
X3.8189Y-3.7795
X4.0157Y-2.6565
X4.0157Y-3.7795
X4.4094Y-2.6575
X4.4094Y-3.7815
X4.6063Y-2.6575
X4.6063Y-3.7815
X5.0Y-2.6565
X5.0Y-3.7795
X5.1969Y-2.6565
X5.1969Y-3.7795
X5.5906Y-2.6565
X5.5906Y-3.7805
X5.7874Y-2.6565
X5.7874Y-3.7805
M30
