%FSLAX25Y25*%
%MOIN*%
G70*
G01*
G75*
%ADD10C,0.01000*%
%ADD11C,0.14567*%
%ADD12C,0.11811*%
%ADD13C,0.00500*%
%ADD14C,0.00667*%
D10*
X236221Y196850D02*
X511811D01*
Y354331D01*
X236221D02*
X511811D01*
X236221Y196850D02*
Y354331D01*
D13*
X249803Y275590D02*
X262008D01*
X255906Y269488D02*
Y281693D01*
X486024Y275590D02*
X498228D01*
X492126Y269488D02*
Y281693D01*
X405709Y225433D02*
X413189D01*
X409449Y221693D02*
Y229173D01*
X405709Y245433D02*
X413189D01*
X409449Y241693D02*
Y249173D01*
X405709Y325433D02*
X413189D01*
X409449Y321693D02*
Y329173D01*
X405709Y305433D02*
X413189D01*
X409449Y301693D02*
Y309173D01*
X405709Y265433D02*
X413189D01*
X409449Y261693D02*
Y269173D01*
X405709Y285433D02*
X413189D01*
X409449Y281693D02*
Y289173D01*
X349410Y312992D02*
X359252D01*
X354331Y308071D02*
Y317913D01*
X349410Y238189D02*
X359252D01*
X354331Y233268D02*
Y243110D01*
X298228Y312992D02*
X308071D01*
X303150Y308071D02*
Y317913D01*
X298228Y238189D02*
X308071D01*
X303150Y233268D02*
Y243110D01*
M02*
