%FSLAX25Y25*%
%MOIN*%
G70*
G01*
G75*
G04 Layer_Physical_Order=2*
G04 Layer_Color=16711680*
%ADD10C,0.01000*%
%ADD11C,0.14567*%
%ADD12C,0.11811*%
G04:AMPARAMS|DCode=13|XSize=31.5mil|YSize=78.74mil|CornerRadius=7.87mil|HoleSize=0mil|Usage=FLASHONLY|Rotation=270.000|XOffset=0mil|YOffset=0mil|HoleType=Round|Shape=RoundedRectangle|*
%AMROUNDEDRECTD13*
21,1,0.03150,0.06299,0,0,270.0*
21,1,0.01575,0.07874,0,0,270.0*
1,1,0.01575,-0.03150,-0.00787*
1,1,0.01575,-0.03150,0.00787*
1,1,0.01575,0.03150,0.00787*
1,1,0.01575,0.03150,-0.00787*
%
%ADD13ROUNDEDRECTD13*%
%ADD14C,0.02400*%
D10*
X511811Y196850D02*
X236221D01*
Y354331D01*
X511811D02*
X236221D01*
X511811Y196850D02*
Y354331D01*
D11*
X492126Y275590D02*
D03*
X255906D02*
D03*
D12*
X338583Y225433D02*
D03*
Y245433D02*
D03*
Y325433D02*
D03*
Y305433D02*
D03*
Y265433D02*
D03*
Y285433D02*
D03*
X393701Y312992D02*
D03*
Y238189D02*
D03*
X444882Y312992D02*
D03*
Y238189D02*
D03*
D13*
X311024Y285433D02*
D03*
Y265433D02*
D03*
Y270433D02*
D03*
Y275433D02*
D03*
Y280433D02*
D03*
D14*
Y285433D02*
Y314961D01*
X321496Y325433D02*
X311024Y314961D01*
X338583Y325433D02*
X321496D01*
X317835Y280433D02*
X311024D01*
X320866Y283465D02*
X317835Y280433D01*
X320866Y283465D02*
Y305118D01*
X338268D02*
X320866D01*
X338583Y305433D02*
X338268Y305118D01*
X322677Y275433D02*
X311024D01*
X326772Y279528D02*
X322677Y275433D01*
X326772Y279528D02*
Y285433D01*
X338583D02*
X326772D01*
X320118Y270433D02*
X311024D01*
X325118Y265433D02*
X320118Y270433D01*
X338583Y265433D02*
X325118D01*
X318583D02*
X311024D01*
X338583Y245433D02*
X318583Y265433D01*
M02*
