%FSLAX25Y25*%
%MOIN*%
G70*
G01*
G75*
G04 Layer_Physical_Order=1*
G04 Layer_Color=255*
%ADD10C,0.01600*%
%ADD11C,0.02400*%
%ADD12C,0.05906*%
%ADD13R,0.05906X0.05906*%
%ADD14C,0.14961*%
%ADD15R,0.06299X0.06299*%
%ADD16C,0.06299*%
%ADD17C,0.07000*%
%ADD18R,0.07000X0.07000*%
%ADD19R,0.05906X0.05906*%
%ADD20R,0.06299X0.06299*%
%ADD21C,0.05118*%
%ADD22C,0.03937*%
%ADD23C,0.03937*%
G36*
X429955Y254955D02*
X430053Y254880D01*
Y214232D01*
X429376Y213952D01*
X428384Y213191D01*
X427623Y212198D01*
X427372Y211592D01*
X426172D01*
X425920Y212198D01*
X425159Y213191D01*
X424167Y213952D01*
X423011Y214430D01*
X421772Y214594D01*
X420532Y214430D01*
X419376Y213952D01*
X418384Y213191D01*
X417623Y212198D01*
X417372Y211592D01*
X416172D01*
X415920Y212198D01*
X415159Y213191D01*
X414167Y213952D01*
X413012Y214430D01*
X411772Y214594D01*
X410532Y214430D01*
X409376Y213952D01*
X408384Y213191D01*
X407623Y212198D01*
X407372Y211592D01*
X406172D01*
X405920Y212198D01*
X405159Y213191D01*
X404167Y213952D01*
X403012Y214430D01*
X402272Y214528D01*
Y209802D01*
Y205079D01*
X403012Y205176D01*
X404167Y205654D01*
X405159Y206416D01*
X405920Y207408D01*
X406172Y208014D01*
X407372D01*
X407623Y207408D01*
X408384Y206416D01*
X409376Y205654D01*
X410532Y205176D01*
X411772Y205013D01*
X413012Y205176D01*
X414167Y205654D01*
X415159Y206416D01*
X415920Y207408D01*
X416172Y208014D01*
X417372D01*
X417623Y207408D01*
X418384Y206416D01*
X419333Y205688D01*
X419480Y204947D01*
X419511Y204792D01*
X420041Y203998D01*
X422931Y201109D01*
X422472Y200000D01*
X380029D01*
X379569Y201109D01*
X383502Y205041D01*
X383814Y205508D01*
X384167Y205654D01*
X385159Y206416D01*
X385920Y207408D01*
X386172Y208014D01*
X387372D01*
X387623Y207408D01*
X388384Y206416D01*
X389376Y205654D01*
X390532Y205176D01*
X391772Y205013D01*
X393011Y205176D01*
X394167Y205654D01*
X395159Y206416D01*
X395920Y207408D01*
X396172Y208014D01*
X397372D01*
X397623Y207408D01*
X398384Y206416D01*
X399376Y205654D01*
X400532Y205176D01*
X401272Y205079D01*
Y209802D01*
Y214528D01*
X400532Y214430D01*
X399376Y213952D01*
X398384Y213191D01*
X397623Y212198D01*
X397372Y211592D01*
X396172D01*
X395920Y212198D01*
X395159Y213191D01*
X394167Y213952D01*
X393011Y214430D01*
X391772Y214594D01*
X390532Y214430D01*
X389376Y213952D01*
X388384Y213191D01*
X387623Y212198D01*
X387372Y211592D01*
X386172D01*
X385920Y212198D01*
X385159Y213191D01*
X384167Y213952D01*
X383012Y214430D01*
X381772Y214594D01*
X380532Y214430D01*
X379376Y213952D01*
X378384Y213191D01*
X377623Y212198D01*
X377372Y211592D01*
X376172D01*
X375920Y212198D01*
X375159Y213191D01*
X374947Y213353D01*
Y244880D01*
X375045Y244955D01*
X375617Y245700D01*
X375977Y246568D01*
X376099Y247500D01*
X375977Y248432D01*
X375617Y249300D01*
X375045Y250045D01*
X374300Y250617D01*
X373432Y250977D01*
X372500Y251099D01*
X371568Y250977D01*
X370700Y250617D01*
X369955Y250045D01*
X369880Y249947D01*
X339553D01*
Y255053D01*
X429880D01*
X429955Y254955D01*
D02*
G37*
G36*
X369955Y244955D02*
X370053Y244880D01*
Y214232D01*
X369376Y213952D01*
X368384Y213191D01*
X367623Y212198D01*
X367372Y211592D01*
X366172D01*
X365920Y212198D01*
X365159Y213191D01*
X364167Y213952D01*
X363012Y214430D01*
X362272Y214528D01*
Y209802D01*
X361272D01*
Y214528D01*
X360532Y214430D01*
X359376Y213952D01*
X358523Y213297D01*
X357745Y213681D01*
X357447Y213910D01*
Y232380D01*
X357545Y232455D01*
X358117Y233200D01*
X358477Y234068D01*
X358599Y235000D01*
X358477Y235932D01*
X358117Y236800D01*
X357545Y237545D01*
X356800Y238117D01*
X355932Y238477D01*
X355000Y238599D01*
X354068Y238477D01*
X353200Y238117D01*
X352455Y237545D01*
X352380Y237447D01*
X321599D01*
X321160Y237784D01*
X320718Y238445D01*
X320977Y239068D01*
X321099Y240000D01*
X320977Y240932D01*
X320617Y241800D01*
X320045Y242545D01*
X319300Y243117D01*
X318432Y243477D01*
X317500Y243599D01*
X316568Y243477D01*
X315700Y243117D01*
X314955Y242545D01*
X314880Y242447D01*
X296599D01*
X296160Y242784D01*
X295718Y243445D01*
X295977Y244068D01*
X296099Y245000D01*
X296146Y245053D01*
X369880D01*
X369955Y244955D01*
D02*
G37*
G36*
X452553Y268514D02*
X441056Y257016D01*
X439947Y257475D01*
Y267500D01*
X439761Y268436D01*
X439230Y269230D01*
X438436Y269761D01*
X437500Y269947D01*
X430000D01*
X429064Y269761D01*
X428270Y269230D01*
X424116Y265076D01*
X422947Y265349D01*
X422698Y266083D01*
X423387Y266613D01*
X424149Y267605D01*
X424627Y268760D01*
X424791Y270000D01*
X424627Y271240D01*
X424149Y272395D01*
X423387Y273387D01*
X422395Y274149D01*
X421789Y274400D01*
Y275600D01*
X422395Y275851D01*
X423387Y276613D01*
X424149Y277605D01*
X424627Y278760D01*
X424791Y280000D01*
X424627Y281240D01*
X424149Y282395D01*
X423387Y283387D01*
X422440Y284114D01*
X422711Y284911D01*
X422852Y285250D01*
X424750D01*
Y287553D01*
X452553D01*
Y268514D01*
D02*
G37*
G36*
X352455Y232455D02*
X352553Y232380D01*
Y205000D01*
X352708Y204219D01*
X352739Y204064D01*
X353270Y203270D01*
X355431Y201109D01*
X354972Y200000D01*
X319546D01*
X318880Y200998D01*
X319052Y201414D01*
X319195Y202500D01*
X319052Y203586D01*
X318633Y204597D01*
X317966Y205466D01*
X317097Y206133D01*
X316086Y206552D01*
X315000Y206695D01*
X313914Y206552D01*
X312902Y206133D01*
X312034Y205466D01*
X311925Y205324D01*
X308670D01*
X307824Y206170D01*
Y222500D01*
X307728Y223231D01*
X307446Y223912D01*
X306997Y224497D01*
X304497Y226997D01*
X303912Y227446D01*
X303933Y227553D01*
X317380D01*
X317455Y227455D01*
X318200Y226883D01*
X319068Y226523D01*
X320000Y226401D01*
X320932Y226523D01*
X321800Y226883D01*
X322545Y227455D01*
X323117Y228200D01*
X323477Y229068D01*
X323599Y230000D01*
X323477Y230932D01*
X323117Y231800D01*
X322545Y232545D01*
X322548Y232553D01*
X352380D01*
X352455Y232455D01*
D02*
G37*
G36*
X251523Y246568D02*
X251883Y245700D01*
X252455Y244955D01*
X252553Y244880D01*
Y232500D01*
X252708Y231719D01*
X252739Y231564D01*
X253270Y230770D01*
X255107Y228933D01*
X254647Y227824D01*
X250324D01*
Y246503D01*
X251522Y246582D01*
X251523Y246568D01*
D02*
G37*
G36*
X485000Y254553D02*
X485000D01*
X484553D01*
X484152Y254553D01*
X484152Y254553D01*
Y254553D01*
X480500D01*
Y249999D01*
Y245447D01*
X484152D01*
X485000Y244599D01*
Y200000D01*
X437529D01*
X437069Y201109D01*
X438702Y202741D01*
X439232Y203535D01*
X439263Y203691D01*
X439419Y204472D01*
Y204557D01*
X440416Y205224D01*
X440532Y205176D01*
X441772Y205013D01*
X443012Y205176D01*
X444167Y205654D01*
X445159Y206416D01*
X445886Y207363D01*
X446682Y207092D01*
X447022Y206952D01*
Y205054D01*
X451272D01*
Y209802D01*
Y214553D01*
X447022D01*
Y212655D01*
X446682Y212514D01*
X445886Y212244D01*
X445159Y213191D01*
X444219Y213912D01*
Y253258D01*
X456730Y265770D01*
X457261Y266564D01*
X457292Y266719D01*
X457447Y267500D01*
Y290000D01*
X457261Y290936D01*
X456730Y291730D01*
X455936Y292261D01*
X455000Y292447D01*
X424750D01*
Y294750D01*
X415250D01*
Y292447D01*
X350000D01*
X349064Y292261D01*
X348800Y292085D01*
X348270Y291730D01*
X346486Y289947D01*
X337760D01*
X337374Y291083D01*
X338247Y291753D01*
X338977Y292704D01*
X339436Y293811D01*
X339592Y295000D01*
X339436Y296188D01*
X338977Y297296D01*
X338247Y298247D01*
X337296Y298977D01*
X336274Y299400D01*
Y300600D01*
X337296Y301023D01*
X338247Y301753D01*
X338977Y302704D01*
X339436Y303812D01*
X339526Y304500D01*
X330474D01*
X330564Y303812D01*
X331023Y302704D01*
X331753Y301753D01*
X332704Y301023D01*
X333726Y300600D01*
Y299400D01*
X332704Y298977D01*
X331753Y298247D01*
X331023Y297296D01*
X330564Y296188D01*
X330408Y295000D01*
X330564Y293811D01*
X331023Y292704D01*
X331753Y291753D01*
X332626Y291083D01*
X332240Y289947D01*
X322500D01*
X321564Y289761D01*
X321204Y289521D01*
X320384Y290396D01*
X320617Y290700D01*
X320977Y291568D01*
X321099Y292500D01*
X320977Y293432D01*
X320617Y294300D01*
X320045Y295045D01*
X319300Y295617D01*
X318432Y295977D01*
X317500Y296099D01*
X316568Y295977D01*
X315700Y295617D01*
X314955Y295045D01*
X314383Y294300D01*
X314023Y293432D01*
X313901Y292500D01*
X313917Y292377D01*
X311056Y289516D01*
X309947Y289976D01*
Y294880D01*
X310045Y294955D01*
X310617Y295700D01*
X310977Y296568D01*
X311099Y297500D01*
X310977Y298432D01*
X310617Y299300D01*
X310045Y300045D01*
X309300Y300617D01*
X308432Y300977D01*
X307500Y301099D01*
X306568Y300977D01*
X305700Y300617D01*
X304955Y300045D01*
X304383Y299300D01*
X304023Y298432D01*
X303901Y297500D01*
X304023Y296568D01*
X304383Y295700D01*
X304955Y294955D01*
X305053Y294880D01*
Y260000D01*
X305208Y259219D01*
X305239Y259064D01*
X305770Y258270D01*
X308270Y255770D01*
X308800Y255415D01*
X309064Y255239D01*
X310000Y255053D01*
X330447D01*
Y249947D01*
X295000D01*
X294064Y249761D01*
X293800Y249585D01*
X293270Y249230D01*
X292623Y248583D01*
X292500Y248599D01*
X291568Y248477D01*
X290700Y248117D01*
X289955Y247545D01*
X289383Y246800D01*
X289023Y245932D01*
X288901Y245000D01*
X289023Y244068D01*
X289282Y243445D01*
X288840Y242784D01*
X288401Y242447D01*
X282620D01*
X282545Y242545D01*
X281800Y243117D01*
X280932Y243477D01*
X280000Y243599D01*
X279068Y243477D01*
X278200Y243117D01*
X277455Y242545D01*
X276883Y241800D01*
X276523Y240932D01*
X276401Y240000D01*
X276523Y239068D01*
X276883Y238200D01*
X277455Y237455D01*
X278200Y236883D01*
X279068Y236523D01*
X280000Y236401D01*
X280932Y236523D01*
X281800Y236883D01*
X282545Y237455D01*
X282620Y237553D01*
X288401D01*
X288840Y237216D01*
X289282Y236555D01*
X289023Y235932D01*
X288901Y235000D01*
X289023Y234068D01*
X289282Y233445D01*
X288840Y232784D01*
X288401Y232447D01*
X258514D01*
X257447Y233514D01*
Y244880D01*
X257545Y244955D01*
X258117Y245700D01*
X258477Y246568D01*
X258599Y247500D01*
X258477Y248432D01*
X258117Y249300D01*
X257545Y250045D01*
X256800Y250617D01*
X255932Y250977D01*
X255000Y251099D01*
X254068Y250977D01*
X253200Y250617D01*
X252455Y250045D01*
X251883Y249300D01*
X251523Y248432D01*
X251522Y248418D01*
X250324Y248497D01*
Y264676D01*
X285000D01*
X285731Y264772D01*
X285930Y264855D01*
X286412Y265054D01*
X286997Y265503D01*
X287954Y266461D01*
X288432Y266523D01*
X289300Y266883D01*
X290045Y267455D01*
X290617Y268200D01*
X290977Y269068D01*
X291099Y270000D01*
X290977Y270932D01*
X290617Y271800D01*
X290045Y272545D01*
X289300Y273117D01*
X288432Y273477D01*
X287500Y273599D01*
X286568Y273477D01*
X285700Y273117D01*
X284955Y272545D01*
X284383Y271800D01*
X284023Y270932D01*
X283961Y270455D01*
X283830Y270324D01*
X247500D01*
X246769Y270228D01*
X246088Y269946D01*
X245503Y269497D01*
X245054Y268912D01*
X244772Y268231D01*
X244676Y267500D01*
Y225000D01*
X244772Y224269D01*
X245054Y223588D01*
X245503Y223003D01*
X246088Y222554D01*
X246357Y222443D01*
X246514Y221253D01*
X246363Y221137D01*
X245545Y220072D01*
X245031Y218831D01*
X244856Y217500D01*
X245031Y216169D01*
X245545Y214928D01*
X246363Y213863D01*
X247357Y213100D01*
Y211900D01*
X246363Y211137D01*
X245545Y210072D01*
X245031Y208831D01*
X244856Y207500D01*
X245031Y206169D01*
X245545Y204928D01*
X246363Y203863D01*
X247428Y203045D01*
X248669Y202531D01*
X250000Y202356D01*
X251331Y202531D01*
X252572Y203045D01*
X253637Y203863D01*
X254400Y204856D01*
X255600D01*
X256363Y203863D01*
X257428Y203045D01*
X258669Y202531D01*
X260000Y202356D01*
X261331Y202531D01*
X262572Y203045D01*
X263637Y203863D01*
X264400Y204856D01*
X265600D01*
X266363Y203863D01*
X267428Y203045D01*
X268669Y202531D01*
X270000Y202356D01*
X271331Y202531D01*
X272572Y203045D01*
X273637Y203863D01*
X274400Y204856D01*
X275600D01*
X276363Y203863D01*
X277428Y203045D01*
X278669Y202531D01*
X280000Y202356D01*
X281331Y202531D01*
X282572Y203045D01*
X283637Y203863D01*
X284400Y204856D01*
X285600D01*
X286363Y203863D01*
X287428Y203045D01*
X288669Y202531D01*
X289500Y202422D01*
Y207501D01*
X289999D01*
Y208000D01*
X295078D01*
X294969Y208831D01*
X294455Y210072D01*
X293637Y211137D01*
X292572Y211955D01*
X292661Y212400D01*
X295100D01*
Y222176D01*
X301330D01*
X302176Y221330D01*
Y205000D01*
X302272Y204269D01*
X302355Y204070D01*
X302554Y203588D01*
X303003Y203003D01*
X304897Y201109D01*
X304438Y200000D01*
X200000D01*
Y360000D01*
X485000D01*
Y254553D01*
D02*
G37*
G36*
X357455Y279955D02*
X357553Y279880D01*
Y262500D01*
X357739Y261564D01*
X358112Y261005D01*
X357547Y259947D01*
X339950D01*
X339284Y260945D01*
X339436Y261312D01*
X339526Y262000D01*
X330474D01*
X330564Y261312D01*
X330716Y260945D01*
X330050Y259947D01*
X311014D01*
X309947Y261014D01*
Y275025D01*
X311056Y275484D01*
X313270Y273270D01*
X313800Y272915D01*
X314064Y272739D01*
X315000Y272553D01*
X322500D01*
X323281Y272708D01*
X323436Y272739D01*
X324230Y273270D01*
X331014Y280053D01*
X357380D01*
X357455Y279955D01*
D02*
G37*
G36*
X415250Y285250D02*
X417148D01*
X417289Y284911D01*
X417559Y284114D01*
X416613Y283387D01*
X415851Y282395D01*
X415373Y281240D01*
X415209Y280000D01*
X415373Y278760D01*
X415851Y277605D01*
X416613Y276613D01*
X417605Y275851D01*
X418211Y275600D01*
Y274400D01*
X417605Y274149D01*
X416613Y273387D01*
X415851Y272395D01*
X415373Y271240D01*
X415209Y270000D01*
X415373Y268760D01*
X415851Y267605D01*
X416613Y266613D01*
X417302Y266083D01*
X416917Y264947D01*
X362447D01*
Y279880D01*
X362545Y279955D01*
X363117Y280700D01*
X363477Y281568D01*
X363599Y282500D01*
X363477Y283432D01*
X363117Y284300D01*
X362545Y285045D01*
X361800Y285617D01*
X360932Y285977D01*
X360000Y286099D01*
X359068Y285977D01*
X358200Y285617D01*
X357455Y285045D01*
X357380Y284947D01*
X349975D01*
X349516Y286056D01*
X351014Y287553D01*
X403026D01*
X403692Y286555D01*
X403562Y286240D01*
X403398Y285000D01*
X403562Y283760D01*
X404040Y282605D01*
X404802Y281613D01*
X405794Y280851D01*
X406400Y280600D01*
Y279400D01*
X405794Y279149D01*
X404802Y278387D01*
X404040Y277395D01*
X403562Y276240D01*
X403398Y275000D01*
X403562Y273760D01*
X404040Y272605D01*
X404802Y271613D01*
X405794Y270851D01*
X406949Y270373D01*
X408189Y270209D01*
X409429Y270373D01*
X410584Y270851D01*
X411576Y271613D01*
X412338Y272605D01*
X412816Y273760D01*
X412980Y275000D01*
X412816Y276240D01*
X412338Y277395D01*
X411576Y278387D01*
X410584Y279149D01*
X409978Y279400D01*
Y280600D01*
X410584Y280851D01*
X411576Y281613D01*
X412338Y282605D01*
X412816Y283760D01*
X412980Y285000D01*
X412816Y286240D01*
X412338Y287395D01*
X412416Y287553D01*
X415250D01*
Y285250D01*
D02*
G37*
G36*
X327984Y283944D02*
X321486Y277447D01*
X316014D01*
X315105Y278356D01*
X315546Y279015D01*
X315945Y279282D01*
X316568Y279023D01*
X317500Y278901D01*
X318432Y279023D01*
X319300Y279383D01*
X320045Y279955D01*
X320617Y280700D01*
X320977Y281568D01*
X321099Y282500D01*
X321083Y282623D01*
X323514Y285053D01*
X327524D01*
X327984Y283944D01*
D02*
G37*
%LPC*%
G36*
X209894Y265374D02*
X208614Y265248D01*
X206902Y264729D01*
X205325Y263886D01*
X203942Y262751D01*
X202807Y261368D01*
X201964Y259791D01*
X201445Y258079D01*
X201319Y256799D01*
X209894D01*
Y265374D01*
D02*
G37*
G36*
X210894D02*
Y256799D01*
X219469D01*
X219343Y258079D01*
X218823Y259791D01*
X217980Y261368D01*
X216845Y262751D01*
X215463Y263886D01*
X213885Y264729D01*
X212174Y265248D01*
X210894Y265374D01*
D02*
G37*
G36*
X295500Y266034D02*
Y263000D01*
X298534D01*
X298477Y263432D01*
X298117Y264300D01*
X297545Y265045D01*
X296800Y265617D01*
X295932Y265977D01*
X295500Y266034D01*
D02*
G37*
G36*
X334500Y267026D02*
X333811Y266936D01*
X332704Y266477D01*
X331753Y265747D01*
X331023Y264796D01*
X330564Y263688D01*
X330474Y263000D01*
X334500D01*
Y267026D01*
D02*
G37*
G36*
X294500Y266034D02*
X294068Y265977D01*
X293200Y265617D01*
X292455Y265045D01*
X291883Y264300D01*
X291523Y263432D01*
X291466Y263000D01*
X294500D01*
Y266034D01*
D02*
G37*
G36*
Y262000D02*
X291466D01*
X291523Y261568D01*
X291883Y260700D01*
X292455Y259955D01*
X293200Y259383D01*
X294068Y259023D01*
X294500Y258966D01*
Y262000D01*
D02*
G37*
G36*
X298534D02*
X295500D01*
Y258966D01*
X295932Y259023D01*
X296800Y259383D01*
X297545Y259955D01*
X298117Y260700D01*
X298477Y261568D01*
X298534Y262000D01*
D02*
G37*
G36*
X479500Y254553D02*
X475447D01*
Y251822D01*
X474270Y251588D01*
X473977Y252296D01*
X473247Y253247D01*
X472296Y253977D01*
X471188Y254436D01*
X470500Y254526D01*
Y249999D01*
Y245474D01*
X471188Y245564D01*
X472296Y246023D01*
X473247Y246753D01*
X473977Y247704D01*
X474270Y248412D01*
X475447Y248178D01*
Y245447D01*
X479500D01*
Y249999D01*
Y254553D01*
D02*
G37*
G36*
X339526Y222000D02*
X330474D01*
X330564Y221311D01*
X331023Y220204D01*
X331753Y219253D01*
X332704Y218523D01*
X333413Y218230D01*
X333178Y217053D01*
X330447D01*
Y207947D01*
X339553D01*
Y217053D01*
X336822D01*
X336588Y218230D01*
X337296Y218523D01*
X338247Y219253D01*
X338977Y220204D01*
X339436Y221311D01*
X339526Y222000D01*
D02*
G37*
G36*
X456521Y214553D02*
X452272D01*
Y210303D01*
X456521D01*
Y214553D01*
D02*
G37*
G36*
X472441Y232149D02*
X470931Y232000D01*
X469479Y231560D01*
X468141Y230845D01*
X466968Y229882D01*
X466006Y228709D01*
X465290Y227371D01*
X464850Y225919D01*
X464701Y224410D01*
X464850Y222900D01*
X465290Y221448D01*
X466006Y220110D01*
X466968Y218937D01*
X468141Y217974D01*
X469479Y217259D01*
X470931Y216818D01*
X472441Y216670D01*
X473951Y216818D01*
X475403Y217259D01*
X476741Y217974D01*
X477914Y218937D01*
X478876Y220110D01*
X479591Y221448D01*
X480032Y222900D01*
X480181Y224410D01*
X480032Y225919D01*
X479591Y227371D01*
X478876Y228709D01*
X477914Y229882D01*
X476741Y230845D01*
X475403Y231560D01*
X473951Y232000D01*
X472441Y232149D01*
D02*
G37*
G36*
X295078Y207000D02*
X290500D01*
Y202422D01*
X291331Y202531D01*
X292572Y203045D01*
X293637Y203863D01*
X294455Y204928D01*
X294969Y206169D01*
X295078Y207000D01*
D02*
G37*
G36*
X456521Y209303D02*
X452272D01*
Y205054D01*
X456521D01*
Y209303D01*
D02*
G37*
G36*
X212598Y222307D02*
X211088Y222158D01*
X209637Y221717D01*
X208298Y221002D01*
X207126Y220040D01*
X206163Y218867D01*
X205448Y217529D01*
X205008Y216077D01*
X204859Y214567D01*
X205008Y213057D01*
X205448Y211605D01*
X206163Y210267D01*
X207126Y209094D01*
X208298Y208132D01*
X209637Y207416D01*
X211088Y206976D01*
X212598Y206827D01*
X214108Y206976D01*
X215560Y207416D01*
X216898Y208132D01*
X218071Y209094D01*
X219034Y210267D01*
X219749Y211605D01*
X220189Y213057D01*
X220338Y214567D01*
X220189Y216077D01*
X219749Y217529D01*
X219034Y218867D01*
X218071Y220040D01*
X216898Y221002D01*
X215560Y221717D01*
X214108Y222158D01*
X212598Y222307D01*
D02*
G37*
G36*
X209894Y255799D02*
X201319D01*
X201445Y254519D01*
X201964Y252807D01*
X202807Y251230D01*
X203942Y249847D01*
X205325Y248713D01*
X206902Y247869D01*
X208614Y247350D01*
X209894Y247224D01*
Y255799D01*
D02*
G37*
G36*
X219469D02*
X210894D01*
Y247224D01*
X212174Y247350D01*
X213885Y247869D01*
X215463Y248713D01*
X216845Y249847D01*
X217980Y251230D01*
X218823Y252807D01*
X219343Y254519D01*
X219469Y255799D01*
D02*
G37*
G36*
X469500Y254526D02*
X468812Y254436D01*
X467704Y253977D01*
X466753Y253247D01*
X466023Y252296D01*
X465564Y251188D01*
X465474Y250500D01*
X469500D01*
Y254526D01*
D02*
G37*
G36*
X334500Y227026D02*
X333811Y226936D01*
X332704Y226477D01*
X331753Y225747D01*
X331023Y224796D01*
X330564Y223689D01*
X330474Y223000D01*
X334500D01*
Y227026D01*
D02*
G37*
G36*
X335500D02*
Y223000D01*
X339526D01*
X339436Y223689D01*
X338977Y224796D01*
X338247Y225747D01*
X337296Y226477D01*
X336189Y226936D01*
X335500Y227026D01*
D02*
G37*
G36*
X469500Y249500D02*
X465474D01*
X465564Y248812D01*
X466023Y247704D01*
X466753Y246753D01*
X467704Y246023D01*
X468812Y245564D01*
X469500Y245474D01*
Y249500D01*
D02*
G37*
G36*
X335500Y267026D02*
Y263000D01*
X339526D01*
X339436Y263688D01*
X338977Y264796D01*
X338247Y265747D01*
X337296Y266477D01*
X336189Y266936D01*
X335500Y267026D01*
D02*
G37*
G36*
X285000Y337500D02*
X230000D01*
Y312500D01*
X285000D01*
Y337500D01*
D02*
G37*
G36*
X472441Y342385D02*
X470931Y342237D01*
X469479Y341796D01*
X468141Y341081D01*
X466968Y340118D01*
X466006Y338946D01*
X465290Y337608D01*
X464850Y336156D01*
X464701Y334646D01*
X464850Y333136D01*
X465290Y331684D01*
X466006Y330346D01*
X466968Y329173D01*
X468141Y328210D01*
X469479Y327495D01*
X470931Y327055D01*
X472441Y326906D01*
X473951Y327055D01*
X475403Y327495D01*
X476741Y328210D01*
X477914Y329173D01*
X478876Y330346D01*
X479591Y331684D01*
X480032Y333136D01*
X480181Y334646D01*
X480032Y336156D01*
X479591Y337608D01*
X478876Y338946D01*
X477914Y340118D01*
X476741Y341081D01*
X475403Y341796D01*
X473951Y342237D01*
X472441Y342385D01*
D02*
G37*
G36*
X339526Y347000D02*
X330474D01*
X330564Y346311D01*
X331023Y345204D01*
X331753Y344253D01*
X332704Y343523D01*
X333413Y343230D01*
X333178Y342053D01*
X330447D01*
Y332947D01*
X339553D01*
Y342053D01*
X336822D01*
X336588Y343230D01*
X337296Y343523D01*
X338247Y344253D01*
X338977Y345204D01*
X339436Y346311D01*
X339526Y347000D01*
D02*
G37*
G36*
X339553Y319553D02*
X330447D01*
Y310447D01*
X333178D01*
X333413Y309270D01*
X332704Y308977D01*
X331753Y308247D01*
X331023Y307296D01*
X330564Y306189D01*
X330474Y305500D01*
X339526D01*
X339436Y306189D01*
X338977Y307296D01*
X338247Y308247D01*
X337296Y308977D01*
X336588Y309270D01*
X336822Y310447D01*
X339553D01*
Y319553D01*
D02*
G37*
G36*
X462272Y314528D02*
Y310303D01*
X466496D01*
X466399Y311043D01*
X465920Y312198D01*
X465159Y313191D01*
X464167Y313952D01*
X463012Y314430D01*
X462272Y314528D01*
D02*
G37*
G36*
X451350Y314725D02*
X450610Y314627D01*
X449455Y314149D01*
X448463Y313387D01*
X447702Y312395D01*
X447223Y311240D01*
X447126Y310500D01*
X451350D01*
Y314725D01*
D02*
G37*
G36*
X212598Y352228D02*
X211088Y352079D01*
X209637Y351639D01*
X208298Y350923D01*
X207126Y349961D01*
X206163Y348788D01*
X205448Y347450D01*
X205008Y345998D01*
X204859Y344488D01*
X205008Y342978D01*
X205448Y341526D01*
X206163Y340188D01*
X207126Y339016D01*
X208298Y338053D01*
X209637Y337338D01*
X211088Y336897D01*
X212598Y336749D01*
X214108Y336897D01*
X215560Y337338D01*
X216898Y338053D01*
X218071Y339016D01*
X219034Y340188D01*
X219749Y341526D01*
X220189Y342978D01*
X220338Y344488D01*
X220189Y345998D01*
X219749Y347450D01*
X219034Y348788D01*
X218071Y349961D01*
X216898Y350923D01*
X215560Y351639D01*
X214108Y352079D01*
X212598Y352228D01*
D02*
G37*
G36*
X300500Y351033D02*
Y348000D01*
X303534D01*
X303477Y348432D01*
X303117Y349300D01*
X302545Y350045D01*
X301800Y350617D01*
X300932Y350977D01*
X300500Y351033D01*
D02*
G37*
G36*
X334500Y352026D02*
X333811Y351936D01*
X332704Y351477D01*
X331753Y350747D01*
X331023Y349796D01*
X330564Y348689D01*
X330474Y348000D01*
X334500D01*
Y352026D01*
D02*
G37*
G36*
X335500D02*
Y348000D01*
X339526D01*
X339436Y348689D01*
X338977Y349796D01*
X338247Y350747D01*
X337296Y351477D01*
X336189Y351936D01*
X335500Y352026D01*
D02*
G37*
G36*
X299500Y347000D02*
X296466D01*
X296523Y346568D01*
X296883Y345700D01*
X297455Y344955D01*
X298200Y344383D01*
X299068Y344023D01*
X299500Y343967D01*
Y347000D01*
D02*
G37*
G36*
X303534D02*
X300500D01*
Y343967D01*
X300932Y344023D01*
X301800Y344383D01*
X302545Y344955D01*
X303117Y345700D01*
X303477Y346568D01*
X303534Y347000D01*
D02*
G37*
G36*
X299500Y351033D02*
X299068Y350977D01*
X298200Y350617D01*
X297455Y350045D01*
X296883Y349300D01*
X296523Y348432D01*
X296466Y348000D01*
X299500D01*
Y351033D01*
D02*
G37*
G36*
X252500Y303599D02*
X251568Y303477D01*
X250700Y303117D01*
X250319Y302824D01*
X237500D01*
X236769Y302728D01*
X236088Y302446D01*
X235503Y301997D01*
X235054Y301412D01*
X234772Y300731D01*
X234676Y300000D01*
Y286553D01*
X233499Y286319D01*
X233086Y287317D01*
X232325Y288309D01*
X231332Y289070D01*
X230177Y289549D01*
X228937Y289712D01*
X227697Y289549D01*
X226542Y289070D01*
X225550Y288309D01*
X224450D01*
X223458Y289070D01*
X222303Y289549D01*
X221063Y289712D01*
X219823Y289549D01*
X218668Y289070D01*
X217675Y288309D01*
X216914Y287317D01*
X216436Y286161D01*
X216272Y284921D01*
X216436Y283681D01*
X216914Y282526D01*
X217675Y281534D01*
X218668Y280772D01*
X219084Y280600D01*
Y279400D01*
X218668Y279227D01*
X217675Y278466D01*
X216914Y277474D01*
X216436Y276319D01*
X216338Y275579D01*
X221064D01*
Y275080D01*
X221563D01*
Y270354D01*
X222303Y270451D01*
X223458Y270930D01*
X223458Y270930D01*
Y270930D01*
X224187Y270329D01*
Y270329D01*
X233687D01*
Y272255D01*
X234921D01*
X235652Y272351D01*
X235852Y272433D01*
X236333Y272633D01*
X236918Y273082D01*
X239497Y275660D01*
X239946Y276245D01*
X240145Y276727D01*
X240228Y276926D01*
X240324Y277658D01*
Y297176D01*
X250319D01*
X250700Y296883D01*
X251568Y296523D01*
X252500Y296401D01*
X253432Y296523D01*
X254300Y296883D01*
X255045Y297455D01*
X255617Y298200D01*
X255977Y299068D01*
X256099Y300000D01*
X255977Y300932D01*
X255617Y301800D01*
X255045Y302545D01*
X254300Y303117D01*
X253432Y303477D01*
X252500Y303599D01*
D02*
G37*
G36*
X287000Y299500D02*
X283966D01*
X284023Y299068D01*
X284383Y298200D01*
X284955Y297455D01*
X285700Y296883D01*
X286568Y296523D01*
X287000Y296466D01*
Y299500D01*
D02*
G37*
G36*
X291034D02*
X288000D01*
Y296466D01*
X288432Y296523D01*
X289300Y296883D01*
X290045Y297455D01*
X290617Y298200D01*
X290977Y299068D01*
X291034Y299500D01*
D02*
G37*
G36*
X220563Y274579D02*
X216338D01*
X216436Y273839D01*
X216914Y272683D01*
X217675Y271691D01*
X218668Y270930D01*
X219823Y270451D01*
X220563Y270354D01*
Y274579D01*
D02*
G37*
G36*
X209894Y303201D02*
X201319D01*
X201445Y301921D01*
X201964Y300209D01*
X202807Y298632D01*
X203942Y297249D01*
X205325Y296114D01*
X206902Y295271D01*
X208614Y294752D01*
X209894Y294626D01*
Y303201D01*
D02*
G37*
G36*
X219469D02*
X210894D01*
Y294626D01*
X212174Y294752D01*
X213885Y295271D01*
X215463Y296114D01*
X216845Y297249D01*
X217980Y298632D01*
X218823Y300209D01*
X219343Y301921D01*
X219469Y303201D01*
D02*
G37*
G36*
X287000Y303534D02*
X286568Y303477D01*
X285700Y303117D01*
X284955Y302545D01*
X284383Y301800D01*
X284023Y300932D01*
X283966Y300500D01*
X287000D01*
Y303534D01*
D02*
G37*
G36*
X452350Y314725D02*
Y309999D01*
Y305275D01*
X453090Y305373D01*
X454246Y305851D01*
X455238Y306613D01*
X455999Y307605D01*
X456170Y308018D01*
X457370D01*
X457623Y307408D01*
X458384Y306416D01*
X459376Y305654D01*
X460532Y305176D01*
X461272Y305079D01*
Y309802D01*
Y314528D01*
X460532Y314430D01*
X459376Y313952D01*
X458384Y313191D01*
X457623Y312198D01*
X457452Y311786D01*
X456252D01*
X455999Y312395D01*
X455238Y313387D01*
X454246Y314149D01*
X453090Y314627D01*
X452350Y314725D01*
D02*
G37*
G36*
X466496Y309303D02*
X462272D01*
Y305079D01*
X463012Y305176D01*
X464167Y305654D01*
X465159Y306416D01*
X465920Y307408D01*
X466399Y308563D01*
X466496Y309303D01*
D02*
G37*
G36*
X451350Y309500D02*
X447126D01*
X447223Y308760D01*
X447702Y307605D01*
X448463Y306613D01*
X449455Y305851D01*
X450610Y305373D01*
X451350Y305275D01*
Y309500D01*
D02*
G37*
G36*
X288000Y303534D02*
Y300500D01*
X291034D01*
X290977Y300932D01*
X290617Y301800D01*
X290045Y302545D01*
X289300Y303117D01*
X288432Y303477D01*
X288000Y303534D01*
D02*
G37*
G36*
X209894Y312776D02*
X208614Y312650D01*
X206902Y312130D01*
X205325Y311287D01*
X203942Y310153D01*
X202807Y308770D01*
X201964Y307192D01*
X201445Y305481D01*
X201319Y304201D01*
X209894D01*
Y312776D01*
D02*
G37*
G36*
X210894D02*
Y304201D01*
X219469D01*
X219343Y305481D01*
X218823Y307192D01*
X217980Y308770D01*
X216845Y310153D01*
X215463Y311287D01*
X213885Y312130D01*
X212174Y312650D01*
X210894Y312776D01*
D02*
G37*
%LPD*%
D10*
X350000Y290000D02*
X420000D01*
X257500Y230000D02*
X320000D01*
X255000Y232500D02*
X257500Y230000D01*
X360000Y262500D02*
Y282500D01*
Y262500D02*
X425000D01*
X430000Y267500D01*
X437500D01*
X322500Y275000D02*
X330000Y282500D01*
X315000Y275000D02*
X322500D01*
X312500Y277500D02*
X315000Y275000D01*
X330000Y282500D02*
X360000D01*
X312500Y277500D02*
Y287500D01*
X317500Y292500D01*
X421772Y205728D02*
X425000Y202500D01*
X421772Y205728D02*
Y209803D01*
X425000Y202500D02*
X435000D01*
X436972Y204472D01*
Y211791D01*
X437500Y212320D01*
Y267500D01*
X441772Y209803D02*
Y254272D01*
X455000Y267500D01*
Y290000D01*
X420000D02*
X455000D01*
X372500Y210532D02*
Y247500D01*
X295000D02*
X372500D01*
X381772Y209803D02*
X382500Y210532D01*
X307500Y260000D02*
X310000Y257500D01*
X307500Y260000D02*
Y297500D01*
X317500Y282500D02*
X322500Y287500D01*
X255000Y232500D02*
Y247500D01*
X280000Y240000D02*
X317500D01*
X292500Y245000D02*
X295000Y247500D01*
X381772Y206772D02*
Y209803D01*
X377500Y202500D02*
X381772Y206772D01*
X357500Y202500D02*
X377500D01*
X355000Y205000D02*
X357500Y202500D01*
X355000Y205000D02*
Y235000D01*
X292500D02*
X355000D01*
X371772Y209803D02*
X372500Y210532D01*
X310000Y257500D02*
X432500D01*
Y210532D02*
Y257500D01*
X431772Y209803D02*
X432500Y210532D01*
X441772Y209803D02*
X442500Y210532D01*
X322500Y287500D02*
X347500D01*
X350000Y290000D01*
X488189Y196850D02*
Y362205D01*
X196850Y196850D02*
Y362205D01*
Y196850D02*
X488189D01*
X196850Y362205D02*
X488189D01*
D11*
X307500Y202500D02*
X315000D01*
X305000Y205000D02*
X307500Y202500D01*
X305000Y205000D02*
Y222500D01*
X302500Y225000D02*
X305000Y222500D01*
X247500Y225000D02*
X302500D01*
X247500Y267500D02*
X285000D01*
X247500Y225000D02*
Y267500D01*
X285000D02*
X287500Y270000D01*
X295000Y300000D02*
X297500D01*
X287500D02*
X295000D01*
Y262500D02*
Y300000D01*
X446850Y305000D02*
X451850Y310000D01*
X451772Y209803D02*
X451850Y209882D01*
Y310000D02*
X461575D01*
X330000Y302500D02*
X332500Y305000D01*
X300000Y302500D02*
X330000D01*
X300000D02*
Y347500D01*
X297500Y300000D02*
X300000Y302500D01*
X237500Y300000D02*
X252500D01*
X237500Y277658D02*
Y300000D01*
X234921Y275079D02*
X237500Y277658D01*
X228937Y275079D02*
X234921D01*
X332500Y305000D02*
X335000D01*
X446850D01*
X451772Y209803D02*
Y250000D01*
X470000D02*
X480000D01*
X461772Y250728D02*
Y309803D01*
Y250728D02*
X462500Y250000D01*
X451772D02*
X462500D01*
X470000D01*
D12*
X335000Y222500D02*
D03*
Y262500D02*
D03*
Y295000D02*
D03*
Y305000D02*
D03*
Y347500D02*
D03*
X470000Y250000D02*
D03*
D13*
X335000Y212500D02*
D03*
Y252500D02*
D03*
Y315000D02*
D03*
Y337500D02*
D03*
D14*
X210394Y256299D02*
D03*
Y303701D02*
D03*
D15*
X228937Y275079D02*
D03*
D16*
Y284921D02*
D03*
X221063Y275079D02*
D03*
Y284921D02*
D03*
X420000Y280000D02*
D03*
Y270000D02*
D03*
X408189Y285000D02*
D03*
Y275000D02*
D03*
X411772Y209803D02*
D03*
X421772D02*
D03*
X431772D02*
D03*
X441772D02*
D03*
X401772D02*
D03*
X391772D02*
D03*
X381772D02*
D03*
X371772D02*
D03*
X361772D02*
D03*
X461772Y309803D02*
D03*
X451850Y310000D02*
D03*
D17*
X250000Y207500D02*
D03*
Y217500D02*
D03*
X260000Y207500D02*
D03*
Y217500D02*
D03*
X270000Y207500D02*
D03*
Y217500D02*
D03*
X280000Y207500D02*
D03*
Y217500D02*
D03*
X290000Y207500D02*
D03*
D18*
Y217500D02*
D03*
D19*
X480000Y250000D02*
D03*
D20*
X420000Y290000D02*
D03*
X451772Y209803D02*
D03*
D21*
X315000Y202500D02*
D03*
D22*
X360000Y282500D02*
D03*
X432500Y257500D02*
D03*
X355000Y235000D02*
D03*
X372500Y247500D02*
D03*
D23*
X317500Y292500D02*
D03*
X287500Y270000D02*
D03*
X295000Y262500D02*
D03*
X307500Y297500D02*
D03*
X317500Y282500D02*
D03*
X300000Y347500D02*
D03*
X287500Y300000D02*
D03*
X252500D02*
D03*
X320000Y230000D02*
D03*
X255000Y247500D02*
D03*
X280000Y240000D02*
D03*
X317500D02*
D03*
X292500Y235000D02*
D03*
Y245000D02*
D03*
M02*
