%FSLAX25Y25*%
%MOIN*%
G70*
G01*
G75*
G04 Layer_Physical_Order=2*
G04 Layer_Color=16711680*
%ADD10C,0.01600*%
%ADD11C,0.02400*%
%ADD12C,0.05906*%
%ADD13R,0.05906X0.05906*%
%ADD14C,0.14961*%
%ADD15R,0.06299X0.06299*%
%ADD16C,0.06299*%
%ADD17C,0.07000*%
%ADD18R,0.07000X0.07000*%
%ADD19R,0.05906X0.05906*%
%ADD20R,0.06299X0.06299*%
%ADD21C,0.05118*%
%ADD22C,0.03937*%
%ADD23C,0.03937*%
%ADD24R,0.05906X0.06299*%
%ADD25R,0.05118X0.07087*%
%ADD26R,0.07087X0.05118*%
%ADD27R,0.10630X0.05118*%
%ADD28R,0.21654X0.07874*%
%ADD29O,0.06496X0.02165*%
%ADD30O,0.02165X0.06496*%
%ADD31R,0.07874X0.04724*%
%ADD32R,0.07874X0.08661*%
%ADD33C,0.01200*%
G36*
X276405Y242770D02*
X277083Y242070D01*
X277018Y241992D01*
X276687Y241372D01*
X276483Y240700D01*
X276414Y240000D01*
X276483Y239300D01*
X276687Y238628D01*
X277018Y238008D01*
X277465Y237464D01*
X278008Y237018D01*
X278628Y236687D01*
X279300Y236483D01*
X280000Y236414D01*
X280699Y236483D01*
X281372Y236687D01*
X281992Y237018D01*
X282536Y237464D01*
X282981Y238008D01*
X283313Y238628D01*
X283471Y239150D01*
X283916Y239261D01*
X284914Y239163D01*
X288929Y235148D01*
X288914Y235000D01*
X288983Y234300D01*
X289187Y233628D01*
X289282Y233450D01*
X288665Y232421D01*
X282500D01*
X281873Y232338D01*
X281290Y232096D01*
X280788Y231712D01*
X278288Y229212D01*
X277904Y228710D01*
X277662Y228127D01*
X277579Y227500D01*
Y221989D01*
X277153Y221761D01*
X276376Y221124D01*
X275739Y220347D01*
X275600Y220087D01*
X274400D01*
X274261Y220347D01*
X273624Y221124D01*
X272847Y221761D01*
X271961Y222235D01*
X271000Y222526D01*
X270000Y222625D01*
X269000Y222526D01*
X268183Y222278D01*
X267219Y222993D01*
Y241296D01*
X268503Y242579D01*
X275000D01*
X275626Y242662D01*
X276207Y242902D01*
X276405Y242770D01*
D02*
G37*
G36*
X303774Y311963D02*
Y311963D01*
X303774Y311963D01*
X326972D01*
X327431Y310854D01*
X323288Y306712D01*
X322904Y306210D01*
X322662Y305627D01*
X322579Y305000D01*
Y278503D01*
X321497Y277421D01*
X316218D01*
X316139Y278618D01*
X316650Y278685D01*
X317234Y278927D01*
X317249Y278939D01*
X317500Y278914D01*
X318199Y278983D01*
X318872Y279187D01*
X319492Y279519D01*
X320036Y279964D01*
X320481Y280508D01*
X320813Y281128D01*
X321017Y281801D01*
X321086Y282500D01*
X321017Y283200D01*
X320813Y283872D01*
X320481Y284492D01*
X320036Y285035D01*
X319492Y285482D01*
X318872Y285813D01*
X318199Y286017D01*
X317500Y286086D01*
X316800Y286017D01*
X316128Y285813D01*
X315508Y285482D01*
X314965Y285035D01*
X314518Y284492D01*
X314187Y283872D01*
X314057Y283444D01*
X307367D01*
X306901Y283637D01*
X306201Y283729D01*
X301870D01*
X301227Y284341D01*
X301229Y284370D01*
X301229Y284370D01*
X301229D01*
Y287579D01*
X315000D01*
X315627Y287662D01*
X316210Y287904D01*
X316712Y288288D01*
X316712Y288288D01*
X316712Y288288D01*
X317352Y288929D01*
X317500Y288914D01*
X318199Y288983D01*
X318872Y289187D01*
X319492Y289518D01*
X320036Y289965D01*
X320481Y290508D01*
X320813Y291128D01*
X321017Y291800D01*
X321086Y292500D01*
X321017Y293199D01*
X320813Y293872D01*
X320481Y294492D01*
X320036Y295036D01*
X319492Y295481D01*
X318872Y295813D01*
X318199Y296017D01*
X317500Y296086D01*
X316800Y296017D01*
X316128Y295813D01*
X315508Y295481D01*
X314965Y295036D01*
X314518Y294492D01*
X314187Y293872D01*
X313983Y293199D01*
X313914Y292500D01*
X313842Y292421D01*
X309903D01*
X309372Y293497D01*
X309596Y293790D01*
X309838Y294373D01*
X309838Y294373D01*
Y294373D01*
X310482Y295508D01*
X310482Y295508D01*
X310482D01*
X310813Y296128D01*
X311017Y296800D01*
X311086Y297500D01*
X311017Y298200D01*
X310813Y298872D01*
X310482Y299492D01*
X310035Y300036D01*
X309492Y300482D01*
X308872Y300813D01*
X308200Y301017D01*
X307500Y301086D01*
X306801Y301017D01*
X306128Y300813D01*
X305508Y300482D01*
X304964Y300036D01*
X304519Y299492D01*
X304187Y298872D01*
X303983Y298200D01*
X303914Y297500D01*
X303842Y297421D01*
X295000D01*
X294373Y297338D01*
X293790Y297096D01*
X293288Y296712D01*
X290513Y293936D01*
X290128Y293435D01*
X289886Y292851D01*
X289804Y292224D01*
Y291334D01*
X289075Y291407D01*
X289075D01*
D01*
X289075Y291407D01*
Y291407D01*
D01*
D01*
D01*
X288374Y291314D01*
X287722Y291044D01*
X287500Y290874D01*
X287278Y291044D01*
X286626Y291314D01*
X286626D01*
X285925Y291407D01*
D01*
D01*
D01*
X285925Y291407D01*
D01*
D01*
D01*
X285925D01*
X285196Y291334D01*
Y294273D01*
X287352Y296429D01*
X287000Y296463D01*
Y299500D01*
X283963D01*
X283927Y299873D01*
X282963Y299159D01*
X282047Y299538D01*
Y307579D01*
X297500D01*
X298127Y307662D01*
X298710Y307904D01*
X299212Y308288D01*
X299212Y308288D01*
X299212Y308288D01*
X303146Y312223D01*
X303774Y311963D01*
D02*
G37*
G36*
X485000Y307500D02*
Y254553D01*
X484553D01*
Y254553D01*
X480500D01*
Y249999D01*
Y245447D01*
X484553D01*
D01*
X484553D01*
X485000Y245000D01*
Y200000D01*
X390562D01*
X390103Y201109D01*
X393769Y204775D01*
X394217Y205360D01*
X394217Y205360D01*
D01*
D01*
X395146Y206429D01*
X395146Y206429D01*
X395146D01*
X395740Y207152D01*
X396172Y207959D01*
X397372D01*
X397803Y207152D01*
X398397Y206429D01*
X399120Y205835D01*
X399945Y205394D01*
X400841Y205122D01*
X401272Y205080D01*
Y209804D01*
X402272D01*
Y205080D01*
X402703Y205122D01*
X403598Y205394D01*
X404423Y205835D01*
X405146Y206429D01*
X405740Y207152D01*
X406172Y207959D01*
X407372D01*
X407803Y207152D01*
X408397Y206429D01*
X409120Y205835D01*
X409945Y205394D01*
X410841Y205122D01*
X411772Y205031D01*
X412703Y205122D01*
X413598Y205394D01*
X414423Y205835D01*
X415146Y206429D01*
X415740Y207152D01*
X416172Y207959D01*
X417372D01*
X417803Y207152D01*
X418397Y206429D01*
X419120Y205835D01*
X419945Y205394D01*
X420841Y205122D01*
X421772Y205031D01*
X422703Y205122D01*
X423598Y205394D01*
X424423Y205835D01*
X425146Y206429D01*
X425740Y207152D01*
X426172Y207959D01*
X427372D01*
X427803Y207152D01*
X428397Y206429D01*
X429120Y205835D01*
X429945Y205394D01*
X430840Y205122D01*
X431772Y205031D01*
X432703Y205122D01*
X433598Y205394D01*
X434423Y205835D01*
X435146Y206429D01*
X435740Y207152D01*
X436172Y207959D01*
X437372D01*
X437803Y207152D01*
X438397Y206429D01*
X439120Y205835D01*
X439945Y205394D01*
X440840Y205122D01*
X441772Y205031D01*
X442703Y205122D01*
X443598Y205394D01*
X444423Y205835D01*
X445146Y206429D01*
X445740Y207152D01*
X445858Y207373D01*
X447022Y207081D01*
Y205054D01*
X451272D01*
Y209802D01*
Y214553D01*
X447022D01*
Y212525D01*
X445858Y212234D01*
X445740Y212455D01*
X445146Y213178D01*
X444423Y213772D01*
X444192Y213895D01*
Y215769D01*
X449212Y220788D01*
X449596Y221290D01*
X449606Y221313D01*
X452053D01*
Y229187D01*
Y233437D01*
X447499D01*
Y234437D01*
X452053D01*
Y238687D01*
X450324D01*
Y247176D01*
X466428D01*
X466765Y246765D01*
X467458Y246196D01*
X468249Y245774D01*
X469107Y245513D01*
X469500Y245475D01*
Y249999D01*
Y254525D01*
X469107Y254487D01*
X468249Y254226D01*
X467458Y253804D01*
X466765Y253235D01*
X466428Y252824D01*
X447500D01*
X446769Y252728D01*
X446088Y252446D01*
X445503Y251997D01*
Y251997D01*
X445054Y251412D01*
X444855Y250930D01*
X444772Y250731D01*
X444676Y250000D01*
Y238687D01*
X442947D01*
Y238533D01*
X437053D01*
Y238687D01*
X433000D01*
Y233936D01*
X432000D01*
Y238687D01*
X427947D01*
Y238533D01*
X422053D01*
Y238687D01*
X418000D01*
Y233936D01*
X417000D01*
Y238687D01*
X412947D01*
Y238533D01*
X407053D01*
Y238687D01*
X403000D01*
Y233936D01*
X402000D01*
Y238687D01*
X397947D01*
Y238533D01*
X392053D01*
Y238687D01*
X388000D01*
Y233936D01*
X387000D01*
Y238687D01*
X382947D01*
Y238533D01*
X377053D01*
Y238687D01*
X373000D01*
Y233936D01*
X372000D01*
Y238687D01*
X367947D01*
Y238498D01*
X367478Y238437D01*
X367278Y238354D01*
X366797Y238155D01*
X366212Y237706D01*
X364775Y236269D01*
X364326Y235684D01*
X364126Y235202D01*
X364044Y235003D01*
X363947Y234272D01*
Y226170D01*
X363102Y225324D01*
X350324D01*
Y234032D01*
X351511Y234208D01*
X351687Y233628D01*
X352018Y233008D01*
X352465Y232465D01*
X353008Y232018D01*
X353628Y231687D01*
X354300Y231483D01*
X355000Y231414D01*
X355699Y231483D01*
X356372Y231687D01*
X356992Y232018D01*
X357536Y232465D01*
X357981Y233008D01*
X358313Y233628D01*
X358517Y234300D01*
X358586Y235000D01*
X358517Y235700D01*
X358313Y236372D01*
X357981Y236992D01*
X357536Y237536D01*
X357421Y237630D01*
Y272579D01*
X404097D01*
X404221Y272348D01*
X404814Y271625D01*
X405538Y271032D01*
X406363Y270591D01*
X407258Y270319D01*
X408189Y270227D01*
X409120Y270319D01*
X410015Y270591D01*
X410841Y271032D01*
X411564Y271625D01*
X412157Y272348D01*
X412598Y273174D01*
X412870Y274069D01*
X412962Y275000D01*
X412870Y275931D01*
X412598Y276826D01*
X412157Y277652D01*
X411564Y278375D01*
X410841Y278968D01*
X410033Y279400D01*
Y280600D01*
X410841Y281032D01*
X411564Y281625D01*
X412157Y282348D01*
X412598Y283174D01*
X412870Y284069D01*
X412962Y285000D01*
X412870Y285931D01*
X412598Y286826D01*
X412157Y287651D01*
X411564Y288375D01*
X410841Y288968D01*
X410015Y289409D01*
X409120Y289681D01*
X408189Y289773D01*
X407258Y289681D01*
X406363Y289409D01*
X405538Y288968D01*
X404814Y288375D01*
X404221Y287651D01*
X403780Y286826D01*
X403508Y285931D01*
X403416Y285000D01*
X403344Y284921D01*
X362630D01*
X362536Y285035D01*
X361992Y285482D01*
X361372Y285813D01*
X360700Y286017D01*
X360000Y286086D01*
X359300Y286017D01*
X358628Y285813D01*
X358008Y285482D01*
X357465Y285035D01*
X357018Y284492D01*
X356687Y283872D01*
X356483Y283200D01*
X356414Y282500D01*
X356483Y281801D01*
X356687Y281128D01*
X357018Y280508D01*
X357465Y279964D01*
X358008Y279519D01*
X358628Y279187D01*
X359300Y278983D01*
X360000Y278914D01*
X360700Y278983D01*
X361372Y279187D01*
X361992Y279519D01*
X362536Y279964D01*
X362630Y280079D01*
X404944D01*
X405448Y279136D01*
X405514Y278949D01*
X404814Y278375D01*
X404221Y277652D01*
X404097Y277421D01*
X355000D01*
X354374Y277338D01*
X353790Y277096D01*
X353288Y276712D01*
X352904Y276210D01*
X352662Y275626D01*
X352579Y275000D01*
Y237630D01*
X352465Y237536D01*
X352018Y236992D01*
X351687Y236372D01*
X351511Y235792D01*
X350324Y235968D01*
Y260000D01*
X350228Y260731D01*
X349946Y261412D01*
X349497Y261997D01*
X346997Y264497D01*
X346412Y264946D01*
X345930Y265145D01*
X345731Y265228D01*
X345000Y265324D01*
X338572D01*
X338235Y265735D01*
X337542Y266304D01*
X337516Y266620D01*
X337637Y266714D01*
X339212Y268288D01*
X339212Y268288D01*
X339212Y268288D01*
X339596Y268790D01*
X339838Y269373D01*
X339921Y270000D01*
Y295000D01*
X339838Y295626D01*
X339596Y296210D01*
X339256Y296654D01*
X339227Y296751D01*
X338804Y297542D01*
X338822Y297579D01*
X345000D01*
X345626Y297662D01*
X346210Y297904D01*
X346712Y298288D01*
X347096Y298790D01*
X347338Y299374D01*
X347421Y300000D01*
Y315000D01*
X347338Y315627D01*
X347096Y316210D01*
X346712Y316712D01*
X346210Y317096D01*
X345626Y317338D01*
X345000Y317421D01*
X339553D01*
Y319553D01*
X332421D01*
Y321497D01*
X336712Y325788D01*
X336712Y325788D01*
X336712Y325788D01*
X337096Y326290D01*
X337338Y326873D01*
X337421Y327500D01*
Y332947D01*
X339553D01*
Y342053D01*
X336816D01*
X336640Y343240D01*
X336751Y343273D01*
X337542Y343696D01*
X338235Y344265D01*
X338804Y344958D01*
X339227Y345749D01*
X339487Y346607D01*
X339526Y347000D01*
X334999D01*
Y347499D01*
X334500D01*
Y352026D01*
X334107Y351987D01*
X333249Y351727D01*
X332458Y351304D01*
X331765Y350735D01*
X331428Y350324D01*
X302184D01*
X301992Y350482D01*
X301372Y350813D01*
X300699Y351017D01*
X300500Y351037D01*
Y347499D01*
Y343964D01*
X300699Y343983D01*
X301372Y344187D01*
X301992Y344518D01*
X302184Y344676D01*
X303630D01*
X303967Y344291D01*
Y340143D01*
X302632D01*
Y337824D01*
X294868D01*
Y340143D01*
X291209D01*
Y334999D01*
Y329857D01*
X294868D01*
Y332176D01*
X302632D01*
Y329857D01*
X306291D01*
Y335001D01*
X306790D01*
Y335500D01*
X310950D01*
Y340143D01*
X309615D01*
Y343122D01*
X311170Y344676D01*
X331428D01*
X331765Y344265D01*
X332458Y343696D01*
X333249Y343273D01*
X333360Y343240D01*
X333184Y342053D01*
X330447D01*
Y332947D01*
X332579D01*
Y328503D01*
X328288Y324212D01*
X327904Y323710D01*
X327662Y323127D01*
X327650Y323037D01*
X320629D01*
Y329857D01*
X322368D01*
Y340143D01*
X314050D01*
Y329857D01*
X315788D01*
Y323037D01*
X303774D01*
Y319584D01*
X303288Y319212D01*
X296497Y312421D01*
X291226D01*
Y323037D01*
X281712D01*
Y329857D01*
X283450D01*
Y340143D01*
X275132D01*
Y329857D01*
X276871D01*
Y323037D01*
X266372D01*
Y323037D01*
X266173D01*
X265324Y323886D01*
Y330000D01*
X265228Y330731D01*
X265145Y330930D01*
X264946Y331412D01*
X264497Y331997D01*
X261288Y335206D01*
X260703Y335654D01*
X260222Y335854D01*
X260022Y335937D01*
X259415Y336017D01*
Y337368D01*
X255324D01*
Y341569D01*
X258943D01*
Y353431D01*
X247868D01*
D01*
D01*
X247868Y353431D01*
X247131D01*
Y353431D01*
X242094D01*
Y347499D01*
X241596D01*
Y347000D01*
X236057D01*
Y341569D01*
X238770D01*
Y315143D01*
X237632D01*
Y313021D01*
X217697D01*
X216966Y312925D01*
X216567Y312759D01*
X216285Y312643D01*
X215700Y312194D01*
X215021Y311515D01*
X214529Y311816D01*
X213208Y312363D01*
X211819Y312697D01*
X210894Y312770D01*
Y304201D01*
X219463D01*
X219390Y305126D01*
X219056Y306515D01*
X218750Y307256D01*
X218867Y307373D01*
X237632D01*
Y304857D01*
X241291D01*
Y310001D01*
X241790D01*
Y310500D01*
X245950D01*
Y315143D01*
X244419D01*
Y317632D01*
X245585D01*
Y317632D01*
X250384D01*
Y315143D01*
X249050D01*
Y304857D01*
X249676D01*
Y302184D01*
X249518Y301992D01*
X249187Y301372D01*
X248983Y300699D01*
X248914Y300000D01*
X248983Y299301D01*
X249187Y298628D01*
X249518Y298008D01*
X249964Y297464D01*
X250508Y297019D01*
X251128Y296687D01*
X251800Y296483D01*
X252500Y296414D01*
X253200Y296483D01*
X253872Y296687D01*
X254492Y297019D01*
X255035Y297464D01*
X255482Y298008D01*
X255813Y298628D01*
X256017Y299301D01*
X256086Y300000D01*
X256017Y300699D01*
X255813Y301372D01*
X255482Y301992D01*
X255324Y302184D01*
Y304857D01*
X257368D01*
Y315143D01*
X256033D01*
Y317632D01*
X258827D01*
X259676Y316784D01*
Y310000D01*
X259772Y309269D01*
X259855Y309070D01*
X260054Y308588D01*
X260503Y308003D01*
X268140Y300366D01*
Y283643D01*
X268099Y283637D01*
X267446Y283367D01*
X266886Y282937D01*
X266456Y282377D01*
X266186Y281724D01*
X266118Y281212D01*
X264921Y281290D01*
Y290000D01*
X264838Y290627D01*
X264596Y291210D01*
X264212Y291712D01*
X263710Y292096D01*
X263126Y292338D01*
X262500Y292421D01*
X262500Y292421D01*
X259868D01*
Y295143D01*
X251550D01*
Y284857D01*
X259868D01*
D01*
X259868D01*
X260079Y284645D01*
Y282643D01*
X259868D01*
Y282643D01*
X251550D01*
Y272357D01*
X251550D01*
Y271179D01*
X251356Y271153D01*
X250675Y270871D01*
X250090Y270422D01*
X244991Y265324D01*
X244542Y264739D01*
X244343Y264257D01*
X244260Y264058D01*
X244248Y263962D01*
X241451D01*
Y262824D01*
X231170D01*
X223887Y270107D01*
Y270329D01*
X224187D01*
Y270329D01*
X233687D01*
Y277579D01*
X240132D01*
Y272357D01*
X248450D01*
Y282643D01*
X240132D01*
Y282421D01*
X234912D01*
X234453Y283529D01*
X238503Y287579D01*
X240132D01*
Y284857D01*
X248450D01*
Y295143D01*
X240132D01*
Y292421D01*
X237500D01*
X236874Y292338D01*
X236290Y292096D01*
X235788Y291712D01*
X232370Y288293D01*
X232312Y288296D01*
X231589Y288890D01*
X230763Y289331D01*
X229868Y289602D01*
X228937Y289694D01*
X228006Y289602D01*
X227111Y289331D01*
X226286Y288890D01*
X225562Y288296D01*
X224438D01*
X223714Y288890D01*
X222889Y289331D01*
X221994Y289602D01*
X221063Y289694D01*
X220132Y289602D01*
X219237Y289331D01*
X218411Y288890D01*
X217688Y288296D01*
X217095Y287573D01*
X216654Y286748D01*
X216382Y285852D01*
X216290Y284921D01*
X216382Y283990D01*
X216654Y283095D01*
X217095Y282270D01*
X217688Y281546D01*
X218411Y280953D01*
X219072Y280600D01*
Y279400D01*
X218411Y279047D01*
X217688Y278453D01*
X217236Y277903D01*
X213218D01*
Y295042D01*
X214529Y295585D01*
X215747Y296332D01*
X216834Y297260D01*
X217762Y298347D01*
X218509Y299566D01*
X219056Y300886D01*
X219390Y302276D01*
X219463Y303201D01*
X201325D01*
X201397Y302276D01*
X201731Y300886D01*
X202278Y299566D01*
X203025Y298347D01*
X203953Y297260D01*
X205040Y296332D01*
X206259Y295585D01*
X207570Y295042D01*
Y275000D01*
Y264958D01*
X206259Y264415D01*
X205040Y263668D01*
X203953Y262740D01*
X203025Y261653D01*
X202278Y260434D01*
X201731Y259114D01*
X201397Y257724D01*
X201325Y256799D01*
X219463D01*
X219390Y257724D01*
X219056Y259114D01*
X218509Y260434D01*
X217762Y261653D01*
X216834Y262740D01*
X215747Y263668D01*
X214529Y264415D01*
X213218Y264958D01*
Y272255D01*
X217236D01*
X217688Y271704D01*
X218239Y271252D01*
Y268937D01*
X218335Y268206D01*
X218418Y268007D01*
X218617Y267525D01*
X219066Y266940D01*
X228003Y258003D01*
X228588Y257554D01*
X229070Y257355D01*
X229269Y257272D01*
X230000Y257176D01*
X241451D01*
Y256038D01*
X246488D01*
Y260001D01*
X247488D01*
Y256038D01*
X263035D01*
X263494Y254929D01*
X263473Y254908D01*
X257536Y250036D01*
X256992Y250482D01*
X256372Y250813D01*
X255699Y251017D01*
X255000Y251086D01*
X254300Y251017D01*
X253628Y250813D01*
X253008Y250482D01*
X252465Y250036D01*
X252018Y249492D01*
X251687Y248872D01*
X251483Y248200D01*
X251414Y247500D01*
X251483Y246800D01*
X251687Y246128D01*
X252018Y245508D01*
X252465Y244965D01*
X253008Y244518D01*
X253628Y244187D01*
X254300Y243983D01*
X255000Y243914D01*
X255699Y243983D01*
X256372Y244187D01*
X256992Y244518D01*
X257536Y244965D01*
X257630Y245079D01*
X259488D01*
X260115Y245162D01*
X260699Y245404D01*
X261200Y245788D01*
X271682Y256271D01*
X273130D01*
X273830Y256363D01*
X273830Y256363D01*
X273771Y255630D01*
X273770Y255630D01*
X273771D01*
Y251299D01*
X273863Y250599D01*
X274056Y250133D01*
Y247479D01*
X273997Y247421D01*
X267500D01*
X266874Y247338D01*
X266290Y247096D01*
X265788Y246712D01*
X263288Y244212D01*
X262904Y243710D01*
X262662Y243127D01*
X262579Y242500D01*
X262662Y241874D01*
X262781Y241586D01*
Y222993D01*
X261817Y222278D01*
X261000Y222526D01*
X260000Y222625D01*
X259000Y222526D01*
X258039Y222235D01*
X257153Y221761D01*
X256376Y221124D01*
X255739Y220347D01*
X255600Y220087D01*
X254400D01*
X254261Y220347D01*
X253624Y221124D01*
X252847Y221761D01*
X251961Y222235D01*
X251000Y222526D01*
X250000Y222625D01*
X249000Y222526D01*
X248039Y222235D01*
X247153Y221761D01*
X246376Y221124D01*
X245739Y220347D01*
X245265Y219461D01*
X244974Y218500D01*
X244875Y217500D01*
X244974Y216500D01*
X245181Y215819D01*
X242181Y212819D01*
X241828Y212359D01*
X241607Y211824D01*
X241531Y211250D01*
X241531Y211250D01*
Y202500D01*
X241607Y201926D01*
X241828Y201391D01*
X242069Y201076D01*
X241668Y200263D01*
X241467Y200000D01*
X200000D01*
Y360000D01*
X485000D01*
Y307500D01*
D02*
G37*
G36*
X308087Y224010D02*
X303997Y219921D01*
X295100D01*
Y222600D01*
X290091D01*
X289632Y223709D01*
X291003Y225079D01*
X307500D01*
X307556Y225087D01*
X308087Y224010D01*
D02*
G37*
G36*
X334107Y290513D02*
X335000Y290425D01*
X335079Y290353D01*
Y271003D01*
X334923Y270846D01*
X328337D01*
X327878Y271955D01*
X331712Y275788D01*
X331712Y275788D01*
X331712Y275788D01*
X332096Y276290D01*
X332338Y276873D01*
X332421Y277500D01*
Y289223D01*
X333124Y290539D01*
X333385Y290732D01*
X334107Y290513D01*
D02*
G37*
G36*
X297171Y282027D02*
X297823Y281756D01*
X298524Y281664D01*
X299224Y281756D01*
X299224Y281756D01*
X299164Y281024D01*
D01*
X299164Y281024D01*
X299164D01*
X299256Y280323D01*
X299527Y279671D01*
X299697Y279449D01*
X299527Y279227D01*
X299256Y278574D01*
X299164Y277874D01*
X299256Y277174D01*
X299527Y276521D01*
X299697Y276299D01*
X299527Y276077D01*
X299256Y275425D01*
X299164Y274724D01*
X299256Y274024D01*
X299527Y273372D01*
X299697Y273150D01*
X299527Y272928D01*
X299256Y272275D01*
X299164Y271575D01*
X299256Y270875D01*
X299527Y270222D01*
X299697Y270000D01*
X299527Y269778D01*
X299256Y269126D01*
X299164Y268425D01*
X299256Y267725D01*
X299527Y267072D01*
X299697Y266850D01*
X299527Y266629D01*
X299256Y265976D01*
X299164Y265276D01*
X299250Y264623D01*
X298108Y264256D01*
X297982Y264492D01*
X297535Y265036D01*
X296992Y265481D01*
X296372Y265813D01*
X295700Y266017D01*
X295500Y266037D01*
Y262499D01*
X294500D01*
Y266037D01*
X294301Y266017D01*
X293628Y265813D01*
X293008Y265481D01*
X292816Y265324D01*
X288468D01*
X288292Y266511D01*
X288872Y266687D01*
X289492Y267019D01*
X290036Y267464D01*
X290481Y268008D01*
X290813Y268628D01*
X291017Y269301D01*
X291086Y270000D01*
X291017Y270700D01*
X290813Y271372D01*
X290481Y271992D01*
X290036Y272535D01*
X289492Y272982D01*
X288872Y273313D01*
X288749Y273350D01*
Y278425D01*
X288653Y279156D01*
X288371Y279837D01*
X288346Y279870D01*
Y281737D01*
X289075Y281664D01*
X289075D01*
D01*
X289075Y281664D01*
Y281664D01*
D01*
D01*
D01*
X289775Y281756D01*
X290428Y282027D01*
X290650Y282197D01*
X290872Y282027D01*
X291524Y281756D01*
X292224Y281664D01*
X292925Y281756D01*
X293577Y282027D01*
X293799Y282197D01*
X294021Y282027D01*
X294674Y281756D01*
X295374Y281664D01*
X296074Y281756D01*
X296727Y282027D01*
X296949Y282197D01*
X297171Y282027D01*
D02*
G37*
G36*
X301870Y256271D02*
X301870D01*
X305079D01*
Y229921D01*
X301709D01*
X300918Y230823D01*
X300944Y231024D01*
Y250133D01*
X301137Y250599D01*
X301229Y251299D01*
Y255630D01*
X301229Y255630D01*
X301229Y255630D01*
X301170Y256363D01*
X301870Y256271D01*
D02*
G37*
G36*
X331048Y265163D02*
X331161Y264975D01*
X330773Y264251D01*
X330513Y263392D01*
X330474Y263000D01*
X335001D01*
Y262000D01*
X330474D01*
X330513Y261608D01*
X330773Y260749D01*
X331196Y259958D01*
X331765Y259265D01*
X332458Y258696D01*
X333249Y258274D01*
X333360Y258240D01*
X333184Y257053D01*
X330447D01*
Y247947D01*
X335079D01*
Y245143D01*
X334050D01*
Y234857D01*
X342368D01*
Y245143D01*
X339921D01*
Y252500D01*
X339838Y253127D01*
X339596Y253710D01*
X339553Y253767D01*
Y257053D01*
X336816D01*
X336640Y258240D01*
X336751Y258274D01*
X337542Y258696D01*
X338235Y259265D01*
X338572Y259676D01*
X343830D01*
X344676Y258830D01*
Y225324D01*
X338572D01*
X338235Y225735D01*
X337542Y226304D01*
X336751Y226727D01*
X335893Y226987D01*
X335500Y227026D01*
Y222499D01*
X334500D01*
Y227026D01*
X334107Y226987D01*
X333249Y226727D01*
X332458Y226304D01*
X331765Y225735D01*
X331273Y225135D01*
X330510Y225408D01*
X330143Y225604D01*
Y227368D01*
X326056D01*
X323571Y229852D01*
X323586Y230000D01*
X323517Y230699D01*
X323313Y231372D01*
X322982Y231992D01*
X322535Y232536D01*
X321992Y232981D01*
X321372Y233313D01*
X320700Y233517D01*
X320000Y233586D01*
X319301Y233517D01*
X318628Y233313D01*
X318008Y232981D01*
X317464Y232536D01*
X317019Y231992D01*
X316687Y231372D01*
X316483Y230699D01*
X316414Y230000D01*
X316483Y229300D01*
X316687Y228628D01*
X317019Y228008D01*
X317464Y227465D01*
X318008Y227018D01*
X318628Y226687D01*
X319301Y226483D01*
X319857Y226428D01*
Y220324D01*
X315000D01*
X314269Y220228D01*
X314070Y220145D01*
X313588Y219946D01*
X313003Y219497D01*
X303830Y210324D01*
X294273D01*
X294261Y210347D01*
X293624Y211124D01*
X292847Y211761D01*
X291961Y212235D01*
X291986Y212400D01*
X295100D01*
Y215079D01*
X305000D01*
X305627Y215162D01*
X306210Y215404D01*
X306712Y215788D01*
X306712Y215788D01*
X306712Y215788D01*
X314212Y223288D01*
X314596Y223790D01*
X314838Y224374D01*
X314921Y225000D01*
X314921Y225000D01*
X314921Y225000D01*
Y225000D01*
Y236165D01*
X315950Y236782D01*
X316128Y236687D01*
X316800Y236483D01*
X317500Y236414D01*
X318199Y236483D01*
X318872Y236687D01*
X319492Y237018D01*
X320036Y237464D01*
X320130Y237579D01*
X322632D01*
Y234857D01*
X330950D01*
Y245143D01*
X322632D01*
Y242421D01*
X320130D01*
X320036Y242535D01*
X319492Y242982D01*
X318872Y243313D01*
X318199Y243517D01*
X317500Y243586D01*
X316800Y243517D01*
X316128Y243313D01*
X315950Y243218D01*
X314921Y243835D01*
Y260000D01*
X314838Y260627D01*
X314596Y261210D01*
X314212Y261712D01*
X312086Y263838D01*
X311584Y264222D01*
X311001Y264464D01*
X310374Y264547D01*
X308834D01*
X308907Y265276D01*
Y265276D01*
D01*
X308907Y265276D01*
X308907D01*
D01*
D01*
D01*
X308814Y265976D01*
X308834Y266004D01*
X330023D01*
X331048Y265163D01*
D02*
G37*
G36*
X442947Y229187D02*
Y221371D01*
X440060Y218483D01*
X439675Y217982D01*
X439433Y217398D01*
X439351Y216772D01*
Y213895D01*
X439120Y213772D01*
X438397Y213178D01*
X437803Y212455D01*
X437372Y211647D01*
X436172D01*
X435740Y212455D01*
X435146Y213178D01*
X434921Y213363D01*
Y221313D01*
X437053D01*
Y229187D01*
Y232885D01*
X442947D01*
Y229187D01*
D02*
G37*
G36*
X427947D02*
Y221313D01*
X430079D01*
Y214253D01*
X429945Y214212D01*
X429120Y213772D01*
X428397Y213178D01*
X427803Y212455D01*
X427372Y211647D01*
X426172D01*
X425740Y212455D01*
X425146Y213178D01*
X424423Y213772D01*
X423598Y214212D01*
X422703Y214484D01*
X421772Y214576D01*
X420841Y214484D01*
X420156Y214277D01*
X419192Y214991D01*
Y221313D01*
X422053D01*
Y229187D01*
Y232885D01*
X427947D01*
Y229187D01*
D02*
G37*
G36*
X358947Y219559D02*
Y213630D01*
X358397Y213178D01*
X357803Y212455D01*
X357362Y211630D01*
X357091Y210734D01*
X357048Y210303D01*
X361773D01*
Y209303D01*
X357048D01*
X357091Y208872D01*
X357362Y207977D01*
X357803Y207152D01*
X358397Y206429D01*
X357491Y205324D01*
X318063D01*
X317955Y205455D01*
X317322Y205975D01*
X316599Y206361D01*
X315815Y206599D01*
X315000Y206679D01*
X314185Y206599D01*
X313401Y206361D01*
X312678Y205975D01*
X312045Y205455D01*
X311937Y205324D01*
X308386D01*
X307927Y206433D01*
X316170Y214676D01*
X319857D01*
Y207632D01*
X330143D01*
Y207947D01*
X330447D01*
Y207947D01*
X339553D01*
Y217053D01*
X336816D01*
X336640Y218240D01*
X336751Y218273D01*
X337542Y218696D01*
X338235Y219265D01*
X338572Y219676D01*
X358830D01*
X358947Y219559D01*
D02*
G37*
G36*
X397947Y229187D02*
Y223733D01*
X389775Y215560D01*
X389326Y214975D01*
X389126Y214493D01*
X389044Y214294D01*
X388957Y213638D01*
X388397Y213178D01*
X387803Y212455D01*
X387372Y211647D01*
X386172D01*
X385740Y212455D01*
X385146Y213178D01*
X384423Y213772D01*
X384192Y213895D01*
Y215060D01*
X389212Y220080D01*
X389596Y220581D01*
X389838Y221165D01*
X389855Y221290D01*
X389858Y221313D01*
X392053D01*
Y229187D01*
Y232885D01*
X397947D01*
Y229187D01*
D02*
G37*
G36*
X382947D02*
Y221313D01*
X382947Y221313D01*
X382947D01*
X383138Y220853D01*
X380060Y217775D01*
X379675Y217273D01*
X379433Y216689D01*
X379351Y216063D01*
Y213895D01*
X379120Y213772D01*
X378397Y213178D01*
X377803Y212455D01*
X377372Y211647D01*
X376172D01*
X375740Y212455D01*
X375146Y213178D01*
X374921Y213363D01*
Y221313D01*
X377053D01*
Y229187D01*
Y232885D01*
X382947D01*
Y229187D01*
D02*
G37*
%LPC*%
G36*
X420000Y274773D02*
X419069Y274681D01*
X418174Y274409D01*
X417348Y273968D01*
X416625Y273375D01*
X416032Y272652D01*
X415591Y271826D01*
X415319Y270931D01*
X415227Y270000D01*
X415319Y269069D01*
X415395Y268818D01*
X413288Y266712D01*
X412904Y266210D01*
X412662Y265627D01*
X412579Y265000D01*
Y248503D01*
X411497Y247421D01*
X376158D01*
X376086Y247500D01*
X376017Y248200D01*
X375813Y248872D01*
X375482Y249492D01*
X375036Y250036D01*
X374492Y250482D01*
X373872Y250813D01*
X373200Y251017D01*
X372500Y251086D01*
X371800Y251017D01*
X371128Y250813D01*
X370508Y250482D01*
X369965Y250036D01*
X369518Y249492D01*
X369187Y248872D01*
X368983Y248200D01*
X368914Y247500D01*
X368983Y246800D01*
X369187Y246128D01*
X369518Y245508D01*
X369965Y244965D01*
X370508Y244518D01*
X371128Y244187D01*
X371800Y243983D01*
X372500Y243914D01*
X373288Y243288D01*
D01*
X373288Y243288D01*
Y243288D01*
X373790Y242904D01*
X374374Y242662D01*
X375000Y242579D01*
X412500D01*
X413127Y242662D01*
X413710Y242904D01*
X414212Y243288D01*
X414212Y243288D01*
X414212Y243288D01*
X416712Y245788D01*
X417096Y246290D01*
X417338Y246873D01*
X417421Y247500D01*
Y263997D01*
X418819Y265395D01*
X419069Y265319D01*
X420000Y265227D01*
X420931Y265319D01*
X421826Y265591D01*
X422651Y266032D01*
X423375Y266625D01*
X423968Y267349D01*
X424409Y268174D01*
X424681Y269069D01*
X424773Y270000D01*
X424681Y270931D01*
X424409Y271826D01*
X423968Y272652D01*
X423375Y273375D01*
X422651Y273968D01*
X421826Y274409D01*
X420931Y274681D01*
X420000Y274773D01*
D02*
G37*
G36*
X424750Y294750D02*
X415250D01*
Y285250D01*
X417278D01*
X417569Y284086D01*
X417348Y283968D01*
X416625Y283375D01*
X416032Y282651D01*
X415591Y281826D01*
X415319Y280931D01*
X415227Y280000D01*
X415319Y279069D01*
X415591Y278174D01*
X416032Y277348D01*
X416625Y276625D01*
X417348Y276032D01*
X418174Y275591D01*
X419069Y275319D01*
X420000Y275227D01*
X420931Y275319D01*
X421826Y275591D01*
X422651Y276032D01*
X423375Y276625D01*
X423968Y277348D01*
X424092Y277579D01*
X428997D01*
X430079Y276497D01*
Y260130D01*
X429964Y260035D01*
X429519Y259492D01*
X429187Y258872D01*
X428983Y258200D01*
X428914Y257500D01*
X428983Y256801D01*
X429187Y256128D01*
X429519Y255508D01*
X429964Y254964D01*
X430508Y254519D01*
X431128Y254187D01*
X431801Y253983D01*
X432500Y253914D01*
X433200Y253983D01*
X433872Y254187D01*
X434492Y254519D01*
X435036Y254964D01*
X435482Y255508D01*
X435813Y256128D01*
X436017Y256801D01*
X436086Y257500D01*
X436017Y258200D01*
X435813Y258872D01*
X435482Y259492D01*
X435036Y260035D01*
X434921Y260130D01*
Y277500D01*
X434838Y278127D01*
X434596Y278710D01*
X434212Y279212D01*
X431712Y281712D01*
X431210Y282096D01*
X430626Y282338D01*
X430000Y282421D01*
X424092D01*
X423968Y282651D01*
X423375Y283375D01*
X422651Y283968D01*
X422431Y284086D01*
X422722Y285250D01*
X424750D01*
Y294750D01*
D02*
G37*
G36*
X212598Y222293D02*
X211390Y222198D01*
X210211Y221915D01*
X209091Y221451D01*
X208057Y220817D01*
X207135Y220030D01*
X206348Y219108D01*
X205714Y218074D01*
X205250Y216954D01*
X204967Y215776D01*
X204872Y214567D01*
X204967Y213358D01*
X205250Y212179D01*
X205714Y211059D01*
X206348Y210026D01*
X207135Y209104D01*
X208057Y208316D01*
X209091Y207683D01*
X210211Y207219D01*
X211390Y206936D01*
X212598Y206841D01*
X213807Y206936D01*
X214986Y207219D01*
X216106Y207683D01*
X217140Y208316D01*
X218062Y209104D01*
X218849Y210026D01*
X219482Y211059D01*
X219947Y212179D01*
X220230Y213358D01*
X220325Y214567D01*
X220230Y215776D01*
X219947Y216954D01*
X219482Y218074D01*
X218849Y219108D01*
X218062Y220030D01*
X217140Y220817D01*
X216106Y221451D01*
X214986Y221915D01*
X213807Y222198D01*
X212598Y222293D01*
D02*
G37*
G36*
X456521Y209303D02*
X452272D01*
Y205054D01*
X456521D01*
Y209303D01*
D02*
G37*
G36*
Y214553D02*
X452272D01*
Y210303D01*
X456521D01*
Y214553D01*
D02*
G37*
G36*
X472441Y232136D02*
X471232Y232041D01*
X470053Y231757D01*
X468933Y231294D01*
X467900Y230660D01*
X466978Y229873D01*
X466190Y228951D01*
X465557Y227917D01*
X465093Y226797D01*
X464810Y225618D01*
X464715Y224410D01*
X464810Y223201D01*
X465093Y222022D01*
X465557Y220902D01*
X466190Y219868D01*
X466978Y218946D01*
X467900Y218159D01*
X468933Y217525D01*
X470053Y217061D01*
X471232Y216778D01*
X472441Y216683D01*
X473650Y216778D01*
X474828Y217061D01*
X475948Y217525D01*
X476982Y218159D01*
X477904Y218946D01*
X478692Y219868D01*
X479325Y220902D01*
X479789Y222022D01*
X480072Y223201D01*
X480167Y224410D01*
X480072Y225618D01*
X479789Y226797D01*
X479325Y227917D01*
X478692Y228951D01*
X477904Y229873D01*
X476982Y230660D01*
X475948Y231294D01*
X474828Y231757D01*
X473650Y232041D01*
X472441Y232136D01*
D02*
G37*
G36*
X209894Y255799D02*
X201325D01*
X201397Y254874D01*
X201731Y253485D01*
X202278Y252164D01*
X203025Y250945D01*
X203953Y249859D01*
X205040Y248930D01*
X206259Y248184D01*
X207579Y247637D01*
X208969Y247303D01*
X209894Y247230D01*
Y255799D01*
D02*
G37*
G36*
X479500Y254553D02*
X475447D01*
Y252824D01*
X473572D01*
X473235Y253235D01*
X472542Y253804D01*
X471751Y254226D01*
X470892Y254487D01*
X470500Y254525D01*
Y249999D01*
Y245475D01*
X470892Y245513D01*
X471751Y245774D01*
X472542Y246196D01*
X473235Y246765D01*
X473572Y247176D01*
X475447D01*
Y245447D01*
X479500D01*
Y249999D01*
Y254553D01*
D02*
G37*
G36*
X219463Y255799D02*
X210894D01*
Y247230D01*
X211819Y247303D01*
X213208Y247637D01*
X214529Y248184D01*
X215747Y248930D01*
X216834Y249859D01*
X217762Y250945D01*
X218509Y252164D01*
X219056Y253485D01*
X219390Y254874D01*
X219463Y255799D01*
D02*
G37*
G36*
X310950Y334500D02*
X307291D01*
Y329857D01*
X310950D01*
Y334500D01*
D02*
G37*
G36*
X290209Y340143D02*
X286550D01*
Y335500D01*
X290209D01*
Y340143D01*
D02*
G37*
G36*
X472441Y342372D02*
X471232Y342277D01*
X470053Y341994D01*
X468933Y341530D01*
X467900Y340896D01*
X466978Y340109D01*
X466190Y339187D01*
X465557Y338153D01*
X465093Y337033D01*
X464810Y335854D01*
X464715Y334646D01*
X464810Y333437D01*
X465093Y332258D01*
X465557Y331138D01*
X466190Y330104D01*
X466978Y329182D01*
X467900Y328395D01*
X468933Y327762D01*
X470053Y327298D01*
X471232Y327015D01*
X472441Y326920D01*
X473650Y327015D01*
X474828Y327298D01*
X475948Y327762D01*
X476982Y328395D01*
X477904Y329182D01*
X478692Y330104D01*
X479325Y331138D01*
X479789Y332258D01*
X480072Y333437D01*
X480167Y334646D01*
X480072Y335854D01*
X479789Y337033D01*
X479325Y338153D01*
X478692Y339187D01*
X477904Y340109D01*
X476982Y340896D01*
X475948Y341530D01*
X474828Y341994D01*
X473650Y342277D01*
X472441Y342372D01*
D02*
G37*
G36*
X290209Y334500D02*
X286550D01*
Y329857D01*
X290209D01*
Y334500D01*
D02*
G37*
G36*
X212598Y352214D02*
X211390Y352119D01*
X210211Y351836D01*
X209091Y351372D01*
X208057Y350739D01*
X207135Y349951D01*
X206348Y349029D01*
X205714Y347996D01*
X205250Y346876D01*
X204967Y345697D01*
X204872Y344488D01*
X204967Y343280D01*
X205250Y342101D01*
X205714Y340981D01*
X206348Y339947D01*
X207135Y339025D01*
X208057Y338238D01*
X209091Y337604D01*
X210211Y337140D01*
X211390Y336857D01*
X212598Y336762D01*
X213807Y336857D01*
X214986Y337140D01*
X216106Y337604D01*
X217140Y338238D01*
X218062Y339025D01*
X218849Y339947D01*
X219482Y340981D01*
X219947Y342101D01*
X220230Y343280D01*
X220325Y344488D01*
X220230Y345697D01*
X219947Y346876D01*
X219482Y347996D01*
X218849Y349029D01*
X218062Y349951D01*
X217140Y350739D01*
X216106Y351372D01*
X214986Y351836D01*
X213807Y352119D01*
X212598Y352214D01*
D02*
G37*
G36*
X299500Y351037D02*
X299301Y351017D01*
X298628Y350813D01*
X298008Y350482D01*
X297464Y350036D01*
X297019Y349492D01*
X296687Y348872D01*
X296483Y348200D01*
X296463Y348000D01*
X299500D01*
Y351037D01*
D02*
G37*
G36*
X335500Y352026D02*
Y348000D01*
X339526D01*
X339487Y348393D01*
X339227Y349251D01*
X338804Y350042D01*
X338235Y350735D01*
X337542Y351304D01*
X336751Y351727D01*
X335893Y351987D01*
X335500Y352026D01*
D02*
G37*
G36*
X299500Y347000D02*
X296463D01*
X296483Y346800D01*
X296687Y346128D01*
X297019Y345508D01*
X297464Y344965D01*
X298008Y344518D01*
X298628Y344187D01*
X299301Y343983D01*
X299500Y343964D01*
Y347000D01*
D02*
G37*
G36*
X241094Y353431D02*
X236057D01*
Y348000D01*
X241094D01*
Y353431D01*
D02*
G37*
G36*
X451350Y314723D02*
X450919Y314681D01*
X450024Y314409D01*
X449199Y313968D01*
X448476Y313375D01*
X447882Y312651D01*
X447441Y311826D01*
X447169Y310931D01*
X447127Y310500D01*
X451350D01*
Y314723D01*
D02*
G37*
G36*
X288000Y303537D02*
Y300500D01*
X291037D01*
X291017Y300699D01*
X290813Y301372D01*
X290481Y301992D01*
X290036Y302536D01*
X289492Y302981D01*
X288872Y303313D01*
X288199Y303517D01*
X288000Y303537D01*
D02*
G37*
G36*
X209894Y312770D02*
X208969Y312697D01*
X207579Y312363D01*
X206259Y311816D01*
X205040Y311070D01*
X203953Y310141D01*
X203025Y309055D01*
X202278Y307836D01*
X201731Y306515D01*
X201397Y305126D01*
X201325Y304201D01*
X209894D01*
Y312770D01*
D02*
G37*
G36*
X291037Y299500D02*
X288000D01*
Y296463D01*
X288199Y296483D01*
X288872Y296687D01*
X289492Y297019D01*
X290036Y297464D01*
X290481Y298008D01*
X290813Y298628D01*
X291017Y299301D01*
X291037Y299500D01*
D02*
G37*
G36*
X287000Y303537D02*
X286801Y303517D01*
X286128Y303313D01*
X285508Y302981D01*
X284964Y302536D01*
X284519Y301992D01*
X284187Y301372D01*
X283983Y300699D01*
X283963Y300500D01*
X287000D01*
Y303537D01*
D02*
G37*
G36*
X245950Y309500D02*
X242291D01*
Y304857D01*
X245950D01*
Y309500D01*
D02*
G37*
G36*
X451350Y309500D02*
X447127D01*
X447169Y309069D01*
X447441Y308174D01*
X447882Y307348D01*
X448476Y306625D01*
X449199Y306032D01*
X450024Y305591D01*
X450919Y305319D01*
X451350Y305277D01*
Y309500D01*
D02*
G37*
G36*
X462272Y314527D02*
Y310303D01*
X466495D01*
X466453Y310734D01*
X466181Y311630D01*
X465740Y312455D01*
X465146Y313178D01*
X464423Y313772D01*
X463598Y314212D01*
X462703Y314484D01*
X462272Y314527D01*
D02*
G37*
G36*
X452350Y314723D02*
Y309999D01*
Y305277D01*
X452781Y305319D01*
X453677Y305591D01*
X454502Y306032D01*
X455225Y306625D01*
X455819Y307348D01*
X455921Y307540D01*
X457362Y307977D01*
X457803Y307152D01*
X458397Y306429D01*
X459120Y305835D01*
X459945Y305394D01*
X460841Y305122D01*
X461272Y305080D01*
Y309802D01*
Y314527D01*
X460841Y314484D01*
X459945Y314212D01*
X459120Y313772D01*
X458397Y313178D01*
X457803Y312455D01*
X457701Y312264D01*
X456260Y311826D01*
X455819Y312651D01*
X455225Y313375D01*
X454502Y313968D01*
X453677Y314409D01*
X452781Y314681D01*
X452350Y314723D01*
D02*
G37*
G36*
X466495Y309303D02*
X462272D01*
Y305080D01*
X462703Y305122D01*
X463598Y305394D01*
X464423Y305835D01*
X465146Y306429D01*
X465740Y307152D01*
X466181Y307977D01*
X466453Y308872D01*
X466495Y309303D01*
D02*
G37*
%LPD*%
D10*
X447500Y226063D02*
X447500Y226063D01*
X447500Y222500D02*
Y226063D01*
X416772Y225335D02*
X417500Y226063D01*
X295000Y295000D02*
X307500D01*
X432500Y257500D02*
Y277500D01*
X430000Y280000D02*
X432500Y277500D01*
X420000Y280000D02*
X430000D01*
X405689Y282500D02*
X408189Y285000D01*
X360000Y282500D02*
X405689D01*
X355000Y275000D02*
X408189D01*
X412500Y245000D02*
X415000Y247500D01*
X375000Y245000D02*
X412500D01*
X415000Y247500D02*
Y265000D01*
X420000Y270000D01*
X298524Y286535D02*
Y288524D01*
X300000Y290000D01*
X315000D01*
X317500Y292500D01*
X355000Y235000D02*
Y275000D01*
X387500Y221791D02*
Y224291D01*
X381772Y216063D02*
X387500Y221791D01*
X372500Y247500D02*
X375000Y245000D01*
X270965Y277874D02*
X285374D01*
X270965Y268425D02*
X279075D01*
X306024Y258976D02*
X307500Y257500D01*
X304035Y258976D02*
X306024D01*
X307500Y295000D02*
Y297500D01*
X292224Y292224D02*
X295000Y295000D01*
X292224Y286535D02*
Y292224D01*
X316024Y281024D02*
X317500Y282500D01*
X304035Y281024D02*
X316024D01*
X330000Y310000D02*
Y322500D01*
X325000Y305000D02*
X330000Y310000D01*
X325000Y277500D02*
Y305000D01*
X322500Y275000D02*
X325000Y277500D01*
X304311Y275000D02*
X322500D01*
X304035Y274724D02*
X304311Y275000D01*
X337500Y315000D02*
X345000D01*
Y300000D02*
Y315000D01*
X332500Y300000D02*
X345000D01*
X330000Y297500D02*
X332500Y300000D01*
X330000Y277500D02*
Y297500D01*
X324075Y271575D02*
X330000Y277500D01*
X304035Y271575D02*
X324075D01*
X337500Y270000D02*
Y295000D01*
X335925Y268425D02*
X337500Y270000D01*
X304035Y268425D02*
X335925D01*
X282776Y295276D02*
X287500Y300000D01*
X282776Y286535D02*
Y295276D01*
X252500Y309291D02*
X253209Y310000D01*
X285925Y278425D02*
Y286535D01*
X325000Y223209D02*
Y225000D01*
X320000Y230000D02*
X325000Y225000D01*
X255000Y247500D02*
X259488D01*
X270965Y258976D01*
X279626Y240374D02*
Y253465D01*
X317500Y240000D02*
X317500Y240000D01*
X326791D01*
X285925Y241575D02*
X292500Y235000D01*
X285925Y241575D02*
Y253465D01*
X292224Y245276D02*
X292500Y245000D01*
X292224Y245276D02*
Y253465D01*
X307500Y227500D02*
Y257500D01*
X290000Y227500D02*
X307500D01*
X285000Y222500D02*
X290000Y227500D01*
X297500Y230000D02*
X298524Y231024D01*
Y253465D01*
X280000Y227500D02*
X282500Y230000D01*
X280000Y217500D02*
Y227500D01*
X312500Y225000D02*
Y260000D01*
X310374Y262126D02*
X312500Y260000D01*
X304035Y262126D02*
X310374D01*
X305000Y217500D02*
X312500Y225000D01*
X290000Y217500D02*
X305000D01*
X282500Y230000D02*
X297500D01*
X267500Y245000D02*
X275000D01*
X276476Y246476D01*
Y253465D01*
X265000Y242500D02*
X267500Y245000D01*
X265000Y212500D02*
X270000Y207500D01*
X270965Y277874D02*
Y281024D01*
X237500Y290000D02*
X244291D01*
X232421Y284921D02*
X237500Y290000D01*
X228937Y284921D02*
X232421D01*
X255709Y290000D02*
X262500D01*
X262500Y290000D01*
Y277500D02*
Y290000D01*
Y277500D02*
X265276Y274724D01*
X270965D01*
X255709Y277500D02*
X261634Y271575D01*
X270965D01*
X225000Y280000D02*
X241791D01*
X221063Y283937D02*
X225000Y280000D01*
X221063Y283937D02*
Y284921D01*
X252087Y268425D02*
X270965D01*
X259488Y259488D02*
X265276Y265276D01*
X270965D01*
X305000Y317500D02*
X316201D01*
X297500Y310000D02*
X305000Y317500D01*
X280000Y310000D02*
X297500D01*
X279626Y309626D02*
X280000Y310000D01*
X279626Y286535D02*
Y309626D01*
X276476Y315177D02*
X278799Y317500D01*
X276476Y286535D02*
Y315177D01*
X316201Y317500D02*
X318209Y319508D01*
Y335000D01*
X278799Y317500D02*
X279291Y317992D01*
Y335000D01*
X252500Y321791D02*
X253209Y321083D01*
X337500Y240709D02*
X338209Y240000D01*
X337500Y240709D02*
Y252500D01*
X325000Y211791D02*
X325709Y212500D01*
X372500Y210532D02*
Y224291D01*
X371772Y209803D02*
X372500Y210532D01*
X381772Y209803D02*
Y216063D01*
X416772Y214803D02*
Y225335D01*
X411772Y209803D02*
X416772Y214803D01*
X432500Y210532D02*
Y224291D01*
X431772Y209803D02*
X432500Y210532D01*
X441772Y216772D02*
X447500Y222500D01*
X441772Y209803D02*
Y216772D01*
X325000Y211791D02*
X334291D01*
X335000Y212500D01*
X330000Y322500D02*
X335000Y327500D01*
Y337500D01*
X488189Y196850D02*
Y362205D01*
X196850Y196850D02*
Y362205D01*
Y196850D02*
X488189D01*
X196850Y362205D02*
X488189D01*
D11*
X315000Y202500D02*
X387500D01*
X295000D02*
X315000D01*
X285925Y271575D02*
Y278425D01*
Y271575D02*
X287500Y270000D01*
X285000Y262500D02*
X295000D01*
X279075Y268425D02*
X285000Y262500D01*
X470000Y250000D02*
X480000D01*
X447500Y250000D02*
X447500Y250000D01*
X447500Y235709D02*
Y250000D01*
X432500Y235709D02*
X447500D01*
X345000Y262500D02*
X347500Y260000D01*
X337500Y262500D02*
X345000D01*
X347500Y222500D02*
Y260000D01*
X337500Y222500D02*
X347500D01*
X300000Y347500D02*
X310000D01*
X252500Y300000D02*
Y309291D01*
X290000Y207500D02*
X305000D01*
X315000Y217500D01*
X366772Y225000D02*
Y234272D01*
X364272Y222500D02*
X366772Y225000D01*
X230000Y260000D02*
X246988D01*
X221063Y268937D02*
X230000Y260000D01*
X246988Y263327D02*
X252087Y268425D01*
X246988Y260000D02*
Y263327D01*
X252500Y333209D02*
X259291D01*
X262500Y330000D01*
Y310000D02*
Y330000D01*
Y310000D02*
X270965Y301535D01*
Y281024D02*
Y301535D01*
X217697Y310197D02*
X241595D01*
X211201Y303701D02*
X217697Y310197D01*
X210394Y303701D02*
X211201D01*
X221063Y268937D02*
Y275079D01*
X210394Y275000D02*
Y303701D01*
Y256299D02*
Y275000D01*
X210472Y275079D01*
X221063D01*
X253209Y310000D02*
Y321083D01*
X252500Y333209D02*
Y346595D01*
X253405Y347500D01*
X241595Y310197D02*
X241791Y310000D01*
X241595Y310197D02*
Y347500D01*
X290709Y335000D02*
X306791D01*
X306791Y335000D01*
Y344291D01*
X310000Y347500D01*
X366772Y234272D02*
X368209Y235709D01*
X391772Y213563D02*
X402500Y224291D01*
X391772Y209803D02*
Y213563D01*
X310000Y347500D02*
X335000D01*
X368209Y235709D02*
X372500D01*
X387500D01*
X402500D01*
X417500D02*
X432500D01*
X402500D02*
X410000D01*
X401772Y209803D02*
X410000Y218032D01*
Y235709D02*
X417500D01*
X410000Y218032D02*
Y235709D01*
X391772Y206772D02*
Y209803D01*
X387500Y202500D02*
X391772Y206772D01*
X361772Y209803D02*
Y220728D01*
X360000Y222500D02*
X361772Y220728D01*
X347500Y222500D02*
X360000D01*
X364272D01*
X461575Y310000D02*
X461772Y309803D01*
X315000Y217500D02*
X330000D01*
X335000Y222500D01*
X447500Y250000D02*
X470000D01*
D12*
X335000Y222500D02*
D03*
Y262500D02*
D03*
Y295000D02*
D03*
Y305000D02*
D03*
Y347500D02*
D03*
X470000Y250000D02*
D03*
D13*
X335000Y212500D02*
D03*
Y252500D02*
D03*
Y315000D02*
D03*
Y337500D02*
D03*
D14*
X210394Y256299D02*
D03*
Y303701D02*
D03*
D15*
X228937Y275079D02*
D03*
D16*
Y284921D02*
D03*
X221063Y275079D02*
D03*
Y284921D02*
D03*
X420000Y280000D02*
D03*
Y270000D02*
D03*
X408189Y285000D02*
D03*
Y275000D02*
D03*
X411772Y209803D02*
D03*
X421772D02*
D03*
X431772D02*
D03*
X441772D02*
D03*
X401772D02*
D03*
X391772D02*
D03*
X381772D02*
D03*
X371772D02*
D03*
X361772D02*
D03*
X461772Y309803D02*
D03*
X451850Y310000D02*
D03*
D17*
X250000Y207500D02*
D03*
Y217500D02*
D03*
X260000Y207500D02*
D03*
Y217500D02*
D03*
X270000Y207500D02*
D03*
Y217500D02*
D03*
X280000Y207500D02*
D03*
Y217500D02*
D03*
X290000Y207500D02*
D03*
D18*
Y217500D02*
D03*
D19*
X480000Y250000D02*
D03*
D20*
X420000Y290000D02*
D03*
X451772Y209803D02*
D03*
D21*
X315000Y202500D02*
D03*
D22*
X360000Y282500D02*
D03*
X432500Y257500D02*
D03*
X355000Y235000D02*
D03*
X372500Y247500D02*
D03*
D23*
X317500Y292500D02*
D03*
X287500Y270000D02*
D03*
X295000Y262500D02*
D03*
X307500Y297500D02*
D03*
X317500Y282500D02*
D03*
X300000Y347500D02*
D03*
X287500Y300000D02*
D03*
X252500D02*
D03*
X320000Y230000D02*
D03*
X255000Y247500D02*
D03*
X280000Y240000D02*
D03*
X317500D02*
D03*
X292500Y235000D02*
D03*
Y245000D02*
D03*
D24*
X447500Y233937D02*
D03*
Y226063D02*
D03*
X432500Y233937D02*
D03*
Y226063D02*
D03*
X417500Y233937D02*
D03*
Y226063D02*
D03*
X402500Y233937D02*
D03*
Y226063D02*
D03*
X372500Y233937D02*
D03*
Y226063D02*
D03*
X387500Y233937D02*
D03*
Y226063D02*
D03*
D25*
X338209Y240000D02*
D03*
X326791D02*
D03*
X244291Y277500D02*
D03*
X255709D02*
D03*
X244291Y290000D02*
D03*
X255709D02*
D03*
X306791Y335000D02*
D03*
X318209D02*
D03*
X290709Y335000D02*
D03*
X279291D02*
D03*
X253209Y310000D02*
D03*
X241791D02*
D03*
D26*
X325000Y211791D02*
D03*
Y223209D02*
D03*
D27*
X252500Y333209D02*
D03*
Y321791D02*
D03*
D28*
X278799Y317500D02*
D03*
X316201D02*
D03*
D29*
X270965Y281024D02*
D03*
Y277874D02*
D03*
Y274724D02*
D03*
Y271575D02*
D03*
Y268425D02*
D03*
Y265276D02*
D03*
Y262126D02*
D03*
Y258976D02*
D03*
X304035D02*
D03*
Y262126D02*
D03*
Y265276D02*
D03*
Y268425D02*
D03*
Y271575D02*
D03*
Y274724D02*
D03*
Y277874D02*
D03*
Y281024D02*
D03*
D30*
X276476Y253465D02*
D03*
X279626D02*
D03*
X282776D02*
D03*
X285925D02*
D03*
X289075D02*
D03*
X292224D02*
D03*
X295374D02*
D03*
X298524D02*
D03*
Y286535D02*
D03*
X295374D02*
D03*
X292224D02*
D03*
X289075D02*
D03*
X285925D02*
D03*
X282776D02*
D03*
X279626D02*
D03*
X276476D02*
D03*
D31*
X246988Y260000D02*
D03*
X258012D02*
D03*
D32*
X241595Y347500D02*
D03*
X253405D02*
D03*
D33*
X243750Y211250D02*
X250000Y217500D01*
X243750Y202500D02*
Y211250D01*
Y202500D02*
X271930D01*
X274900Y205470D01*
Y209330D01*
X278170Y212600D01*
X282030D01*
X284900Y215470D01*
Y222400D01*
X285000Y222500D01*
Y202500D02*
X295000D01*
X280000Y207500D02*
X285000Y202500D01*
X265000Y212500D02*
Y242500D01*
M02*
