M48
;Layer_Color=9474304
;FILE_FORMAT=2:5
INCH,LZ
;TYPE=PLATED
T1F00S00C0.02000
T2F00S00C0.02362
T3F00S00C0.03543
T4F00S00C0.03622
T5F00S00C0.03937
T6F00S00C0.09055
%
T01
X041Y031685
X0410197Y0326772
T02
X0315Y0235
X032Y024
Y02675
X034Y02875
X0332224Y0297224
X0345Y03025
X03625Y02425
X03675Y0235
X04525Y02425
Y02525
X031Y026
X03075Y027
X029Y0235
X02525Y03075
X03175Y03375
T03
X03125Y02125
X03225
X03325
X03425
Y02225
X03325
X03225
X03125
X0365Y0285
Y0295
Y0305
X03025Y02225
Y02125
X026Y0215
Y0225
X0245
Y0215
X0365Y032
Y033
T04
X0246063Y0270079
X0253937
Y0279921
X0246063
T05
X0510197Y0226772
Y0236772
Y0246772
Y0256772
Y0266772
Y0276772
Y0286772
Y0296772
Y0306772
X041Y031685
X0410197Y0326772
X0510197Y0316772
T06
X0235394Y0251299
Y0298701
M30
