G04 #@! TF.GenerationSoftware,KiCad,Pcbnew,5.1.5+dfsg1-2build2*
G04 #@! TF.CreationDate,2020-09-30T09:27:11+02:00*
G04 #@! TF.ProjectId,Adaptateur,41646170-7461-4746-9575-722e6b696361,rev?*
G04 #@! TF.SameCoordinates,Original*
G04 #@! TF.FileFunction,Soldermask,Top*
G04 #@! TF.FilePolarity,Negative*
%FSLAX46Y46*%
G04 Gerber Fmt 4.6, Leading zero omitted, Abs format (unit mm)*
G04 Created by KiCad (PCBNEW 5.1.5+dfsg1-2build2) date 2020-09-30 09:27:11*
%MOMM*%
%LPD*%
G04 APERTURE LIST*
%ADD10C,0.100000*%
G04 APERTURE END LIST*
D10*
G36*
X96251000Y-107636000D02*
G01*
X87249000Y-107636000D01*
X87249000Y-105784000D01*
X96251000Y-105784000D01*
X96251000Y-107636000D01*
G37*
G36*
X73475562Y-105108181D02*
G01*
X73510481Y-105118774D01*
X73542663Y-105135976D01*
X73570873Y-105159127D01*
X73594024Y-105187337D01*
X73611226Y-105219519D01*
X73621819Y-105254438D01*
X73626000Y-105296895D01*
X73626000Y-106438105D01*
X73621819Y-106480562D01*
X73611226Y-106515481D01*
X73594024Y-106547663D01*
X73570873Y-106575873D01*
X73542663Y-106599024D01*
X73510481Y-106616226D01*
X73475562Y-106626819D01*
X73433105Y-106631000D01*
X71966895Y-106631000D01*
X71924438Y-106626819D01*
X71889519Y-106616226D01*
X71857337Y-106599024D01*
X71829127Y-106575873D01*
X71805976Y-106547663D01*
X71788774Y-106515481D01*
X71778181Y-106480562D01*
X71774000Y-106438105D01*
X71774000Y-105296895D01*
X71778181Y-105254438D01*
X71788774Y-105219519D01*
X71805976Y-105187337D01*
X71829127Y-105159127D01*
X71857337Y-105135976D01*
X71889519Y-105118774D01*
X71924438Y-105108181D01*
X71966895Y-105104000D01*
X73433105Y-105104000D01*
X73475562Y-105108181D01*
G37*
G36*
X82365562Y-105108181D02*
G01*
X82400481Y-105118774D01*
X82432663Y-105135976D01*
X82460873Y-105159127D01*
X82484024Y-105187337D01*
X82501226Y-105219519D01*
X82511819Y-105254438D01*
X82516000Y-105296895D01*
X82516000Y-106438105D01*
X82511819Y-106480562D01*
X82501226Y-106515481D01*
X82484024Y-106547663D01*
X82460873Y-106575873D01*
X82432663Y-106599024D01*
X82400481Y-106616226D01*
X82365562Y-106626819D01*
X82323105Y-106631000D01*
X80856895Y-106631000D01*
X80814438Y-106626819D01*
X80779519Y-106616226D01*
X80747337Y-106599024D01*
X80719127Y-106575873D01*
X80695976Y-106547663D01*
X80678774Y-106515481D01*
X80668181Y-106480562D01*
X80664000Y-106438105D01*
X80664000Y-105296895D01*
X80668181Y-105254438D01*
X80678774Y-105219519D01*
X80695976Y-105187337D01*
X80719127Y-105159127D01*
X80747337Y-105135976D01*
X80779519Y-105118774D01*
X80814438Y-105108181D01*
X80856895Y-105104000D01*
X82323105Y-105104000D01*
X82365562Y-105108181D01*
G37*
G36*
X79825562Y-105108181D02*
G01*
X79860481Y-105118774D01*
X79892663Y-105135976D01*
X79920873Y-105159127D01*
X79944024Y-105187337D01*
X79961226Y-105219519D01*
X79971819Y-105254438D01*
X79976000Y-105296895D01*
X79976000Y-106438105D01*
X79971819Y-106480562D01*
X79961226Y-106515481D01*
X79944024Y-106547663D01*
X79920873Y-106575873D01*
X79892663Y-106599024D01*
X79860481Y-106616226D01*
X79825562Y-106626819D01*
X79783105Y-106631000D01*
X78316895Y-106631000D01*
X78274438Y-106626819D01*
X78239519Y-106616226D01*
X78207337Y-106599024D01*
X78179127Y-106575873D01*
X78155976Y-106547663D01*
X78138774Y-106515481D01*
X78128181Y-106480562D01*
X78124000Y-106438105D01*
X78124000Y-105296895D01*
X78128181Y-105254438D01*
X78138774Y-105219519D01*
X78155976Y-105187337D01*
X78179127Y-105159127D01*
X78207337Y-105135976D01*
X78239519Y-105118774D01*
X78274438Y-105108181D01*
X78316895Y-105104000D01*
X79783105Y-105104000D01*
X79825562Y-105108181D01*
G37*
G36*
X76015562Y-105108181D02*
G01*
X76050481Y-105118774D01*
X76082663Y-105135976D01*
X76110873Y-105159127D01*
X76134024Y-105187337D01*
X76151226Y-105219519D01*
X76161819Y-105254438D01*
X76166000Y-105296895D01*
X76166000Y-106438105D01*
X76161819Y-106480562D01*
X76151226Y-106515481D01*
X76134024Y-106547663D01*
X76110873Y-106575873D01*
X76082663Y-106599024D01*
X76050481Y-106616226D01*
X76015562Y-106626819D01*
X75973105Y-106631000D01*
X74506895Y-106631000D01*
X74464438Y-106626819D01*
X74429519Y-106616226D01*
X74397337Y-106599024D01*
X74369127Y-106575873D01*
X74345976Y-106547663D01*
X74328774Y-106515481D01*
X74318181Y-106480562D01*
X74314000Y-106438105D01*
X74314000Y-105296895D01*
X74318181Y-105254438D01*
X74328774Y-105219519D01*
X74345976Y-105187337D01*
X74369127Y-105159127D01*
X74397337Y-105135976D01*
X74429519Y-105118774D01*
X74464438Y-105108181D01*
X74506895Y-105104000D01*
X75973105Y-105104000D01*
X76015562Y-105108181D01*
G37*
G36*
X69919562Y-105071681D02*
G01*
X69954481Y-105082274D01*
X69986663Y-105099476D01*
X70014873Y-105122627D01*
X70038024Y-105150837D01*
X70055226Y-105183019D01*
X70065819Y-105217938D01*
X70070000Y-105260395D01*
X70070000Y-106401605D01*
X70065819Y-106444062D01*
X70055226Y-106478981D01*
X70038024Y-106511163D01*
X70014873Y-106539373D01*
X69986663Y-106562524D01*
X69954481Y-106579726D01*
X69919562Y-106590319D01*
X69877105Y-106594500D01*
X68410895Y-106594500D01*
X68368438Y-106590319D01*
X68333519Y-106579726D01*
X68301337Y-106562524D01*
X68273127Y-106539373D01*
X68249976Y-106511163D01*
X68232774Y-106478981D01*
X68222181Y-106444062D01*
X68218000Y-106401605D01*
X68218000Y-105260395D01*
X68222181Y-105217938D01*
X68232774Y-105183019D01*
X68249976Y-105150837D01*
X68273127Y-105122627D01*
X68301337Y-105099476D01*
X68333519Y-105082274D01*
X68368438Y-105071681D01*
X68410895Y-105067500D01*
X69877105Y-105067500D01*
X69919562Y-105071681D01*
G37*
G36*
X73475562Y-102133181D02*
G01*
X73510481Y-102143774D01*
X73542663Y-102160976D01*
X73570873Y-102184127D01*
X73594024Y-102212337D01*
X73611226Y-102244519D01*
X73621819Y-102279438D01*
X73626000Y-102321895D01*
X73626000Y-103463105D01*
X73621819Y-103505562D01*
X73611226Y-103540481D01*
X73594024Y-103572663D01*
X73570873Y-103600873D01*
X73542663Y-103624024D01*
X73510481Y-103641226D01*
X73475562Y-103651819D01*
X73433105Y-103656000D01*
X71966895Y-103656000D01*
X71924438Y-103651819D01*
X71889519Y-103641226D01*
X71857337Y-103624024D01*
X71829127Y-103600873D01*
X71805976Y-103572663D01*
X71788774Y-103540481D01*
X71778181Y-103505562D01*
X71774000Y-103463105D01*
X71774000Y-102321895D01*
X71778181Y-102279438D01*
X71788774Y-102244519D01*
X71805976Y-102212337D01*
X71829127Y-102184127D01*
X71857337Y-102160976D01*
X71889519Y-102143774D01*
X71924438Y-102133181D01*
X71966895Y-102129000D01*
X73433105Y-102129000D01*
X73475562Y-102133181D01*
G37*
G36*
X76015562Y-102133181D02*
G01*
X76050481Y-102143774D01*
X76082663Y-102160976D01*
X76110873Y-102184127D01*
X76134024Y-102212337D01*
X76151226Y-102244519D01*
X76161819Y-102279438D01*
X76166000Y-102321895D01*
X76166000Y-103463105D01*
X76161819Y-103505562D01*
X76151226Y-103540481D01*
X76134024Y-103572663D01*
X76110873Y-103600873D01*
X76082663Y-103624024D01*
X76050481Y-103641226D01*
X76015562Y-103651819D01*
X75973105Y-103656000D01*
X74506895Y-103656000D01*
X74464438Y-103651819D01*
X74429519Y-103641226D01*
X74397337Y-103624024D01*
X74369127Y-103600873D01*
X74345976Y-103572663D01*
X74328774Y-103540481D01*
X74318181Y-103505562D01*
X74314000Y-103463105D01*
X74314000Y-102321895D01*
X74318181Y-102279438D01*
X74328774Y-102244519D01*
X74345976Y-102212337D01*
X74369127Y-102184127D01*
X74397337Y-102160976D01*
X74429519Y-102143774D01*
X74464438Y-102133181D01*
X74506895Y-102129000D01*
X75973105Y-102129000D01*
X76015562Y-102133181D01*
G37*
G36*
X79825562Y-102133181D02*
G01*
X79860481Y-102143774D01*
X79892663Y-102160976D01*
X79920873Y-102184127D01*
X79944024Y-102212337D01*
X79961226Y-102244519D01*
X79971819Y-102279438D01*
X79976000Y-102321895D01*
X79976000Y-103463105D01*
X79971819Y-103505562D01*
X79961226Y-103540481D01*
X79944024Y-103572663D01*
X79920873Y-103600873D01*
X79892663Y-103624024D01*
X79860481Y-103641226D01*
X79825562Y-103651819D01*
X79783105Y-103656000D01*
X78316895Y-103656000D01*
X78274438Y-103651819D01*
X78239519Y-103641226D01*
X78207337Y-103624024D01*
X78179127Y-103600873D01*
X78155976Y-103572663D01*
X78138774Y-103540481D01*
X78128181Y-103505562D01*
X78124000Y-103463105D01*
X78124000Y-102321895D01*
X78128181Y-102279438D01*
X78138774Y-102244519D01*
X78155976Y-102212337D01*
X78179127Y-102184127D01*
X78207337Y-102160976D01*
X78239519Y-102143774D01*
X78274438Y-102133181D01*
X78316895Y-102129000D01*
X79783105Y-102129000D01*
X79825562Y-102133181D01*
G37*
G36*
X82365562Y-102133181D02*
G01*
X82400481Y-102143774D01*
X82432663Y-102160976D01*
X82460873Y-102184127D01*
X82484024Y-102212337D01*
X82501226Y-102244519D01*
X82511819Y-102279438D01*
X82516000Y-102321895D01*
X82516000Y-103463105D01*
X82511819Y-103505562D01*
X82501226Y-103540481D01*
X82484024Y-103572663D01*
X82460873Y-103600873D01*
X82432663Y-103624024D01*
X82400481Y-103641226D01*
X82365562Y-103651819D01*
X82323105Y-103656000D01*
X80856895Y-103656000D01*
X80814438Y-103651819D01*
X80779519Y-103641226D01*
X80747337Y-103624024D01*
X80719127Y-103600873D01*
X80695976Y-103572663D01*
X80678774Y-103540481D01*
X80668181Y-103505562D01*
X80664000Y-103463105D01*
X80664000Y-102321895D01*
X80668181Y-102279438D01*
X80678774Y-102244519D01*
X80695976Y-102212337D01*
X80719127Y-102184127D01*
X80747337Y-102160976D01*
X80779519Y-102143774D01*
X80814438Y-102133181D01*
X80856895Y-102129000D01*
X82323105Y-102129000D01*
X82365562Y-102133181D01*
G37*
G36*
X69919562Y-102096681D02*
G01*
X69954481Y-102107274D01*
X69986663Y-102124476D01*
X70014873Y-102147627D01*
X70038024Y-102175837D01*
X70055226Y-102208019D01*
X70065819Y-102242938D01*
X70070000Y-102285395D01*
X70070000Y-103426605D01*
X70065819Y-103469062D01*
X70055226Y-103503981D01*
X70038024Y-103536163D01*
X70014873Y-103564373D01*
X69986663Y-103587524D01*
X69954481Y-103604726D01*
X69919562Y-103615319D01*
X69877105Y-103619500D01*
X68410895Y-103619500D01*
X68368438Y-103615319D01*
X68333519Y-103604726D01*
X68301337Y-103587524D01*
X68273127Y-103564373D01*
X68249976Y-103536163D01*
X68232774Y-103503981D01*
X68222181Y-103469062D01*
X68218000Y-103426605D01*
X68218000Y-102285395D01*
X68222181Y-102242938D01*
X68232774Y-102208019D01*
X68249976Y-102175837D01*
X68273127Y-102147627D01*
X68301337Y-102124476D01*
X68333519Y-102107274D01*
X68368438Y-102096681D01*
X68410895Y-102092500D01*
X69877105Y-102092500D01*
X69919562Y-102096681D01*
G37*
G36*
X112237142Y-101218242D02*
G01*
X112385101Y-101279529D01*
X112518255Y-101368499D01*
X112631501Y-101481745D01*
X112720471Y-101614899D01*
X112781758Y-101762858D01*
X112813000Y-101919925D01*
X112813000Y-102080075D01*
X112781758Y-102237142D01*
X112720471Y-102385101D01*
X112631501Y-102518255D01*
X112518255Y-102631501D01*
X112385101Y-102720471D01*
X112237142Y-102781758D01*
X112080075Y-102813000D01*
X111919925Y-102813000D01*
X111762858Y-102781758D01*
X111614899Y-102720471D01*
X111481745Y-102631501D01*
X111368499Y-102518255D01*
X111279529Y-102385101D01*
X111218242Y-102237142D01*
X111187000Y-102080075D01*
X111187000Y-101919925D01*
X111218242Y-101762858D01*
X111279529Y-101614899D01*
X111368499Y-101481745D01*
X111481745Y-101368499D01*
X111614899Y-101279529D01*
X111762858Y-101218242D01*
X111919925Y-101187000D01*
X112080075Y-101187000D01*
X112237142Y-101218242D01*
G37*
G36*
X124237142Y-101218242D02*
G01*
X124385101Y-101279529D01*
X124518255Y-101368499D01*
X124631501Y-101481745D01*
X124720471Y-101614899D01*
X124781758Y-101762858D01*
X124813000Y-101919925D01*
X124813000Y-102080075D01*
X124781758Y-102237142D01*
X124720471Y-102385101D01*
X124631501Y-102518255D01*
X124518255Y-102631501D01*
X124385101Y-102720471D01*
X124237142Y-102781758D01*
X124080075Y-102813000D01*
X123919925Y-102813000D01*
X123762858Y-102781758D01*
X123614899Y-102720471D01*
X123481745Y-102631501D01*
X123368499Y-102518255D01*
X123279529Y-102385101D01*
X123218242Y-102237142D01*
X123187000Y-102080075D01*
X123187000Y-101919925D01*
X123218242Y-101762858D01*
X123279529Y-101614899D01*
X123368499Y-101481745D01*
X123481745Y-101368499D01*
X123614899Y-101279529D01*
X123762858Y-101218242D01*
X123919925Y-101187000D01*
X124080075Y-101187000D01*
X124237142Y-101218242D01*
G37*
G36*
X122237142Y-101218242D02*
G01*
X122385101Y-101279529D01*
X122518255Y-101368499D01*
X122631501Y-101481745D01*
X122720471Y-101614899D01*
X122781758Y-101762858D01*
X122813000Y-101919925D01*
X122813000Y-102080075D01*
X122781758Y-102237142D01*
X122720471Y-102385101D01*
X122631501Y-102518255D01*
X122518255Y-102631501D01*
X122385101Y-102720471D01*
X122237142Y-102781758D01*
X122080075Y-102813000D01*
X121919925Y-102813000D01*
X121762858Y-102781758D01*
X121614899Y-102720471D01*
X121481745Y-102631501D01*
X121368499Y-102518255D01*
X121279529Y-102385101D01*
X121218242Y-102237142D01*
X121187000Y-102080075D01*
X121187000Y-101919925D01*
X121218242Y-101762858D01*
X121279529Y-101614899D01*
X121368499Y-101481745D01*
X121481745Y-101368499D01*
X121614899Y-101279529D01*
X121762858Y-101218242D01*
X121919925Y-101187000D01*
X122080075Y-101187000D01*
X122237142Y-101218242D01*
G37*
G36*
X120237142Y-101218242D02*
G01*
X120385101Y-101279529D01*
X120518255Y-101368499D01*
X120631501Y-101481745D01*
X120720471Y-101614899D01*
X120781758Y-101762858D01*
X120813000Y-101919925D01*
X120813000Y-102080075D01*
X120781758Y-102237142D01*
X120720471Y-102385101D01*
X120631501Y-102518255D01*
X120518255Y-102631501D01*
X120385101Y-102720471D01*
X120237142Y-102781758D01*
X120080075Y-102813000D01*
X119919925Y-102813000D01*
X119762858Y-102781758D01*
X119614899Y-102720471D01*
X119481745Y-102631501D01*
X119368499Y-102518255D01*
X119279529Y-102385101D01*
X119218242Y-102237142D01*
X119187000Y-102080075D01*
X119187000Y-101919925D01*
X119218242Y-101762858D01*
X119279529Y-101614899D01*
X119368499Y-101481745D01*
X119481745Y-101368499D01*
X119614899Y-101279529D01*
X119762858Y-101218242D01*
X119919925Y-101187000D01*
X120080075Y-101187000D01*
X120237142Y-101218242D01*
G37*
G36*
X116237142Y-101218242D02*
G01*
X116385101Y-101279529D01*
X116518255Y-101368499D01*
X116631501Y-101481745D01*
X116720471Y-101614899D01*
X116781758Y-101762858D01*
X116813000Y-101919925D01*
X116813000Y-102080075D01*
X116781758Y-102237142D01*
X116720471Y-102385101D01*
X116631501Y-102518255D01*
X116518255Y-102631501D01*
X116385101Y-102720471D01*
X116237142Y-102781758D01*
X116080075Y-102813000D01*
X115919925Y-102813000D01*
X115762858Y-102781758D01*
X115614899Y-102720471D01*
X115481745Y-102631501D01*
X115368499Y-102518255D01*
X115279529Y-102385101D01*
X115218242Y-102237142D01*
X115187000Y-102080075D01*
X115187000Y-101919925D01*
X115218242Y-101762858D01*
X115279529Y-101614899D01*
X115368499Y-101481745D01*
X115481745Y-101368499D01*
X115614899Y-101279529D01*
X115762858Y-101218242D01*
X115919925Y-101187000D01*
X116080075Y-101187000D01*
X116237142Y-101218242D01*
G37*
G36*
X114237142Y-101218242D02*
G01*
X114385101Y-101279529D01*
X114518255Y-101368499D01*
X114631501Y-101481745D01*
X114720471Y-101614899D01*
X114781758Y-101762858D01*
X114813000Y-101919925D01*
X114813000Y-102080075D01*
X114781758Y-102237142D01*
X114720471Y-102385101D01*
X114631501Y-102518255D01*
X114518255Y-102631501D01*
X114385101Y-102720471D01*
X114237142Y-102781758D01*
X114080075Y-102813000D01*
X113919925Y-102813000D01*
X113762858Y-102781758D01*
X113614899Y-102720471D01*
X113481745Y-102631501D01*
X113368499Y-102518255D01*
X113279529Y-102385101D01*
X113218242Y-102237142D01*
X113187000Y-102080075D01*
X113187000Y-101919925D01*
X113218242Y-101762858D01*
X113279529Y-101614899D01*
X113368499Y-101481745D01*
X113481745Y-101368499D01*
X113614899Y-101279529D01*
X113762858Y-101218242D01*
X113919925Y-101187000D01*
X114080075Y-101187000D01*
X114237142Y-101218242D01*
G37*
G36*
X110237142Y-101218242D02*
G01*
X110385101Y-101279529D01*
X110518255Y-101368499D01*
X110631501Y-101481745D01*
X110720471Y-101614899D01*
X110781758Y-101762858D01*
X110813000Y-101919925D01*
X110813000Y-102080075D01*
X110781758Y-102237142D01*
X110720471Y-102385101D01*
X110631501Y-102518255D01*
X110518255Y-102631501D01*
X110385101Y-102720471D01*
X110237142Y-102781758D01*
X110080075Y-102813000D01*
X109919925Y-102813000D01*
X109762858Y-102781758D01*
X109614899Y-102720471D01*
X109481745Y-102631501D01*
X109368499Y-102518255D01*
X109279529Y-102385101D01*
X109218242Y-102237142D01*
X109187000Y-102080075D01*
X109187000Y-101919925D01*
X109218242Y-101762858D01*
X109279529Y-101614899D01*
X109368499Y-101481745D01*
X109481745Y-101368499D01*
X109614899Y-101279529D01*
X109762858Y-101218242D01*
X109919925Y-101187000D01*
X110080075Y-101187000D01*
X110237142Y-101218242D01*
G37*
G36*
X108237142Y-101218242D02*
G01*
X108385101Y-101279529D01*
X108518255Y-101368499D01*
X108631501Y-101481745D01*
X108720471Y-101614899D01*
X108781758Y-101762858D01*
X108813000Y-101919925D01*
X108813000Y-102080075D01*
X108781758Y-102237142D01*
X108720471Y-102385101D01*
X108631501Y-102518255D01*
X108518255Y-102631501D01*
X108385101Y-102720471D01*
X108237142Y-102781758D01*
X108080075Y-102813000D01*
X107919925Y-102813000D01*
X107762858Y-102781758D01*
X107614899Y-102720471D01*
X107481745Y-102631501D01*
X107368499Y-102518255D01*
X107279529Y-102385101D01*
X107218242Y-102237142D01*
X107187000Y-102080075D01*
X107187000Y-101919925D01*
X107218242Y-101762858D01*
X107279529Y-101614899D01*
X107368499Y-101481745D01*
X107481745Y-101368499D01*
X107614899Y-101279529D01*
X107762858Y-101218242D01*
X107919925Y-101187000D01*
X108080075Y-101187000D01*
X108237142Y-101218242D01*
G37*
G36*
X118237142Y-101218242D02*
G01*
X118385101Y-101279529D01*
X118518255Y-101368499D01*
X118631501Y-101481745D01*
X118720471Y-101614899D01*
X118781758Y-101762858D01*
X118813000Y-101919925D01*
X118813000Y-102080075D01*
X118781758Y-102237142D01*
X118720471Y-102385101D01*
X118631501Y-102518255D01*
X118518255Y-102631501D01*
X118385101Y-102720471D01*
X118237142Y-102781758D01*
X118080075Y-102813000D01*
X117919925Y-102813000D01*
X117762858Y-102781758D01*
X117614899Y-102720471D01*
X117481745Y-102631501D01*
X117368499Y-102518255D01*
X117279529Y-102385101D01*
X117218242Y-102237142D01*
X117187000Y-102080075D01*
X117187000Y-101919925D01*
X117218242Y-101762858D01*
X117279529Y-101614899D01*
X117368499Y-101481745D01*
X117481745Y-101368499D01*
X117614899Y-101279529D01*
X117762858Y-101218242D01*
X117919925Y-101187000D01*
X118080075Y-101187000D01*
X118237142Y-101218242D01*
G37*
G36*
X106237142Y-101218242D02*
G01*
X106385101Y-101279529D01*
X106518255Y-101368499D01*
X106631501Y-101481745D01*
X106720471Y-101614899D01*
X106781758Y-101762858D01*
X106813000Y-101919925D01*
X106813000Y-102080075D01*
X106781758Y-102237142D01*
X106720471Y-102385101D01*
X106631501Y-102518255D01*
X106518255Y-102631501D01*
X106385101Y-102720471D01*
X106237142Y-102781758D01*
X106080075Y-102813000D01*
X105919925Y-102813000D01*
X105762858Y-102781758D01*
X105614899Y-102720471D01*
X105481745Y-102631501D01*
X105368499Y-102518255D01*
X105279529Y-102385101D01*
X105218242Y-102237142D01*
X105187000Y-102080075D01*
X105187000Y-101919925D01*
X105218242Y-101762858D01*
X105279529Y-101614899D01*
X105368499Y-101481745D01*
X105481745Y-101368499D01*
X105614899Y-101279529D01*
X105762858Y-101218242D01*
X105919925Y-101187000D01*
X106080075Y-101187000D01*
X106237142Y-101218242D01*
G37*
G36*
X96251000Y-100436000D02*
G01*
X87249000Y-100436000D01*
X87249000Y-98584000D01*
X96251000Y-98584000D01*
X96251000Y-100436000D01*
G37*
G36*
X63738254Y-94777818D02*
G01*
X64111511Y-94932426D01*
X64111513Y-94932427D01*
X64447436Y-95156884D01*
X64733116Y-95442564D01*
X64957574Y-95778489D01*
X65112182Y-96151746D01*
X65191000Y-96547993D01*
X65191000Y-96952007D01*
X65112182Y-97348254D01*
X64957574Y-97721511D01*
X64957573Y-97721513D01*
X64733116Y-98057436D01*
X64447436Y-98343116D01*
X64111513Y-98567573D01*
X64111512Y-98567574D01*
X64111511Y-98567574D01*
X63738254Y-98722182D01*
X63342007Y-98801000D01*
X62937993Y-98801000D01*
X62541746Y-98722182D01*
X62168489Y-98567574D01*
X62168488Y-98567574D01*
X62168487Y-98567573D01*
X61832564Y-98343116D01*
X61546884Y-98057436D01*
X61322427Y-97721513D01*
X61322426Y-97721511D01*
X61167818Y-97348254D01*
X61089000Y-96952007D01*
X61089000Y-96547993D01*
X61167818Y-96151746D01*
X61322426Y-95778489D01*
X61546884Y-95442564D01*
X61832564Y-95156884D01*
X62168487Y-94932427D01*
X62168489Y-94932426D01*
X62541746Y-94777818D01*
X62937993Y-94699000D01*
X63342007Y-94699000D01*
X63738254Y-94777818D01*
G37*
G36*
X66248228Y-91181703D02*
G01*
X66403100Y-91245853D01*
X66542481Y-91338985D01*
X66661015Y-91457519D01*
X66754147Y-91596900D01*
X66818297Y-91751772D01*
X66851000Y-91916184D01*
X66851000Y-92083816D01*
X66818297Y-92248228D01*
X66754147Y-92403100D01*
X66661015Y-92542481D01*
X66542481Y-92661015D01*
X66403100Y-92754147D01*
X66248228Y-92818297D01*
X66083816Y-92851000D01*
X65916184Y-92851000D01*
X65751772Y-92818297D01*
X65596900Y-92754147D01*
X65457519Y-92661015D01*
X65338985Y-92542481D01*
X65245853Y-92403100D01*
X65181703Y-92248228D01*
X65149000Y-92083816D01*
X65149000Y-91916184D01*
X65181703Y-91751772D01*
X65245853Y-91596900D01*
X65338985Y-91457519D01*
X65457519Y-91338985D01*
X65596900Y-91245853D01*
X65751772Y-91181703D01*
X65916184Y-91149000D01*
X66083816Y-91149000D01*
X66248228Y-91181703D01*
G37*
G36*
X68851000Y-92851000D02*
G01*
X67149000Y-92851000D01*
X67149000Y-91149000D01*
X68851000Y-91149000D01*
X68851000Y-92851000D01*
G37*
G36*
X94073786Y-87917746D02*
G01*
X94104461Y-87927051D01*
X94132729Y-87942161D01*
X94157506Y-87962494D01*
X94177839Y-87987271D01*
X94192949Y-88015539D01*
X94202254Y-88046214D01*
X94206000Y-88084251D01*
X94206000Y-90195749D01*
X94202254Y-90233786D01*
X94192949Y-90264461D01*
X94177839Y-90292729D01*
X94157506Y-90317506D01*
X94132729Y-90337839D01*
X94104461Y-90352949D01*
X94073786Y-90362254D01*
X94035749Y-90366000D01*
X92024251Y-90366000D01*
X91986214Y-90362254D01*
X91955539Y-90352949D01*
X91927271Y-90337839D01*
X91902494Y-90317506D01*
X91882161Y-90292729D01*
X91867051Y-90264461D01*
X91857746Y-90233786D01*
X91854000Y-90195749D01*
X91854000Y-88084251D01*
X91857746Y-88046214D01*
X91867051Y-88015539D01*
X91882161Y-87987271D01*
X91902494Y-87962494D01*
X91927271Y-87942161D01*
X91955539Y-87927051D01*
X91986214Y-87917746D01*
X92024251Y-87914000D01*
X94035749Y-87914000D01*
X94073786Y-87917746D01*
G37*
G36*
X88973786Y-87917746D02*
G01*
X89004461Y-87927051D01*
X89032729Y-87942161D01*
X89057506Y-87962494D01*
X89077839Y-87987271D01*
X89092949Y-88015539D01*
X89102254Y-88046214D01*
X89106000Y-88084251D01*
X89106000Y-90195749D01*
X89102254Y-90233786D01*
X89092949Y-90264461D01*
X89077839Y-90292729D01*
X89057506Y-90317506D01*
X89032729Y-90337839D01*
X89004461Y-90352949D01*
X88973786Y-90362254D01*
X88935749Y-90366000D01*
X86924251Y-90366000D01*
X86886214Y-90362254D01*
X86855539Y-90352949D01*
X86827271Y-90337839D01*
X86802494Y-90317506D01*
X86782161Y-90292729D01*
X86767051Y-90264461D01*
X86757746Y-90233786D01*
X86754000Y-90195749D01*
X86754000Y-88084251D01*
X86757746Y-88046214D01*
X86767051Y-88015539D01*
X86782161Y-87987271D01*
X86802494Y-87962494D01*
X86827271Y-87942161D01*
X86855539Y-87927051D01*
X86886214Y-87917746D01*
X86924251Y-87914000D01*
X88935749Y-87914000D01*
X88973786Y-87917746D01*
G37*
G36*
X66248228Y-88681703D02*
G01*
X66403100Y-88745853D01*
X66542481Y-88838985D01*
X66661015Y-88957519D01*
X66754147Y-89096900D01*
X66818297Y-89251772D01*
X66851000Y-89416184D01*
X66851000Y-89583816D01*
X66818297Y-89748228D01*
X66754147Y-89903100D01*
X66661015Y-90042481D01*
X66542481Y-90161015D01*
X66403100Y-90254147D01*
X66248228Y-90318297D01*
X66083816Y-90351000D01*
X65916184Y-90351000D01*
X65751772Y-90318297D01*
X65596900Y-90254147D01*
X65457519Y-90161015D01*
X65338985Y-90042481D01*
X65245853Y-89903100D01*
X65181703Y-89748228D01*
X65149000Y-89583816D01*
X65149000Y-89416184D01*
X65181703Y-89251772D01*
X65245853Y-89096900D01*
X65338985Y-88957519D01*
X65457519Y-88838985D01*
X65596900Y-88745853D01*
X65751772Y-88681703D01*
X65916184Y-88649000D01*
X66083816Y-88649000D01*
X66248228Y-88681703D01*
G37*
G36*
X68248228Y-88681703D02*
G01*
X68403100Y-88745853D01*
X68542481Y-88838985D01*
X68661015Y-88957519D01*
X68754147Y-89096900D01*
X68818297Y-89251772D01*
X68851000Y-89416184D01*
X68851000Y-89583816D01*
X68818297Y-89748228D01*
X68754147Y-89903100D01*
X68661015Y-90042481D01*
X68542481Y-90161015D01*
X68403100Y-90254147D01*
X68248228Y-90318297D01*
X68083816Y-90351000D01*
X67916184Y-90351000D01*
X67751772Y-90318297D01*
X67596900Y-90254147D01*
X67457519Y-90161015D01*
X67338985Y-90042481D01*
X67245853Y-89903100D01*
X67181703Y-89748228D01*
X67149000Y-89583816D01*
X67149000Y-89416184D01*
X67181703Y-89251772D01*
X67245853Y-89096900D01*
X67338985Y-88957519D01*
X67457519Y-88838985D01*
X67596900Y-88745853D01*
X67751772Y-88681703D01*
X67916184Y-88649000D01*
X68083816Y-88649000D01*
X68248228Y-88681703D01*
G37*
G36*
X98875562Y-88598181D02*
G01*
X98910481Y-88608774D01*
X98942663Y-88625976D01*
X98970873Y-88649127D01*
X98994024Y-88677337D01*
X99011226Y-88709519D01*
X99021819Y-88744438D01*
X99026000Y-88786895D01*
X99026000Y-89928105D01*
X99021819Y-89970562D01*
X99011226Y-90005481D01*
X98994024Y-90037663D01*
X98970873Y-90065873D01*
X98942663Y-90089024D01*
X98910481Y-90106226D01*
X98875562Y-90116819D01*
X98833105Y-90121000D01*
X97366895Y-90121000D01*
X97324438Y-90116819D01*
X97289519Y-90106226D01*
X97257337Y-90089024D01*
X97229127Y-90065873D01*
X97205976Y-90037663D01*
X97188774Y-90005481D01*
X97178181Y-89970562D01*
X97174000Y-89928105D01*
X97174000Y-88786895D01*
X97178181Y-88744438D01*
X97188774Y-88709519D01*
X97205976Y-88677337D01*
X97229127Y-88649127D01*
X97257337Y-88625976D01*
X97289519Y-88608774D01*
X97324438Y-88598181D01*
X97366895Y-88594000D01*
X98833105Y-88594000D01*
X98875562Y-88598181D01*
G37*
G36*
X76465562Y-86058181D02*
G01*
X76500481Y-86068774D01*
X76532663Y-86085976D01*
X76560873Y-86109127D01*
X76584024Y-86137337D01*
X76601226Y-86169519D01*
X76611819Y-86204438D01*
X76616000Y-86246895D01*
X76616000Y-87388105D01*
X76611819Y-87430562D01*
X76601226Y-87465481D01*
X76584024Y-87497663D01*
X76560873Y-87525873D01*
X76532663Y-87549024D01*
X76500481Y-87566226D01*
X76465562Y-87576819D01*
X76423105Y-87581000D01*
X74056895Y-87581000D01*
X74014438Y-87576819D01*
X73979519Y-87566226D01*
X73947337Y-87549024D01*
X73919127Y-87525873D01*
X73895976Y-87497663D01*
X73878774Y-87465481D01*
X73868181Y-87430562D01*
X73864000Y-87388105D01*
X73864000Y-86246895D01*
X73868181Y-86204438D01*
X73878774Y-86169519D01*
X73895976Y-86137337D01*
X73919127Y-86109127D01*
X73947337Y-86085976D01*
X73979519Y-86068774D01*
X74014438Y-86058181D01*
X74056895Y-86054000D01*
X76423105Y-86054000D01*
X76465562Y-86058181D01*
G37*
G36*
X79445562Y-85678181D02*
G01*
X79480481Y-85688774D01*
X79512663Y-85705976D01*
X79540873Y-85729127D01*
X79564024Y-85757337D01*
X79581226Y-85789519D01*
X79591819Y-85824438D01*
X79596000Y-85866895D01*
X79596000Y-87333105D01*
X79591819Y-87375562D01*
X79581226Y-87410481D01*
X79564024Y-87442663D01*
X79540873Y-87470873D01*
X79512663Y-87494024D01*
X79480481Y-87511226D01*
X79445562Y-87521819D01*
X79403105Y-87526000D01*
X78261895Y-87526000D01*
X78219438Y-87521819D01*
X78184519Y-87511226D01*
X78152337Y-87494024D01*
X78124127Y-87470873D01*
X78100976Y-87442663D01*
X78083774Y-87410481D01*
X78073181Y-87375562D01*
X78069000Y-87333105D01*
X78069000Y-85866895D01*
X78073181Y-85824438D01*
X78083774Y-85789519D01*
X78100976Y-85757337D01*
X78124127Y-85729127D01*
X78152337Y-85705976D01*
X78184519Y-85688774D01*
X78219438Y-85678181D01*
X78261895Y-85674000D01*
X79403105Y-85674000D01*
X79445562Y-85678181D01*
G37*
G36*
X82420562Y-85678181D02*
G01*
X82455481Y-85688774D01*
X82487663Y-85705976D01*
X82515873Y-85729127D01*
X82539024Y-85757337D01*
X82556226Y-85789519D01*
X82566819Y-85824438D01*
X82571000Y-85866895D01*
X82571000Y-87333105D01*
X82566819Y-87375562D01*
X82556226Y-87410481D01*
X82539024Y-87442663D01*
X82515873Y-87470873D01*
X82487663Y-87494024D01*
X82455481Y-87511226D01*
X82420562Y-87521819D01*
X82378105Y-87526000D01*
X81236895Y-87526000D01*
X81194438Y-87521819D01*
X81159519Y-87511226D01*
X81127337Y-87494024D01*
X81099127Y-87470873D01*
X81075976Y-87442663D01*
X81058774Y-87410481D01*
X81048181Y-87375562D01*
X81044000Y-87333105D01*
X81044000Y-85866895D01*
X81048181Y-85824438D01*
X81058774Y-85789519D01*
X81075976Y-85757337D01*
X81099127Y-85729127D01*
X81127337Y-85705976D01*
X81159519Y-85688774D01*
X81194438Y-85678181D01*
X81236895Y-85674000D01*
X82378105Y-85674000D01*
X82420562Y-85678181D01*
G37*
G36*
X98875562Y-85623181D02*
G01*
X98910481Y-85633774D01*
X98942663Y-85650976D01*
X98970873Y-85674127D01*
X98994024Y-85702337D01*
X99011226Y-85734519D01*
X99021819Y-85769438D01*
X99026000Y-85811895D01*
X99026000Y-86953105D01*
X99021819Y-86995562D01*
X99011226Y-87030481D01*
X98994024Y-87062663D01*
X98970873Y-87090873D01*
X98942663Y-87114024D01*
X98910481Y-87131226D01*
X98875562Y-87141819D01*
X98833105Y-87146000D01*
X97366895Y-87146000D01*
X97324438Y-87141819D01*
X97289519Y-87131226D01*
X97257337Y-87114024D01*
X97229127Y-87090873D01*
X97205976Y-87062663D01*
X97188774Y-87030481D01*
X97178181Y-86995562D01*
X97174000Y-86953105D01*
X97174000Y-85811895D01*
X97178181Y-85769438D01*
X97188774Y-85734519D01*
X97205976Y-85702337D01*
X97229127Y-85674127D01*
X97257337Y-85650976D01*
X97289519Y-85633774D01*
X97324438Y-85623181D01*
X97366895Y-85619000D01*
X98833105Y-85619000D01*
X98875562Y-85623181D01*
G37*
G36*
X63738254Y-82777818D02*
G01*
X64111511Y-82932426D01*
X64111513Y-82932427D01*
X64337132Y-83083181D01*
X64447436Y-83156884D01*
X64733116Y-83442564D01*
X64957574Y-83778489D01*
X65112182Y-84151746D01*
X65191000Y-84547993D01*
X65191000Y-84952007D01*
X65112182Y-85348254D01*
X64977201Y-85674127D01*
X64957573Y-85721513D01*
X64733116Y-86057436D01*
X64447436Y-86343116D01*
X64111513Y-86567573D01*
X64111512Y-86567574D01*
X64111511Y-86567574D01*
X63738254Y-86722182D01*
X63342007Y-86801000D01*
X62937993Y-86801000D01*
X62541746Y-86722182D01*
X62168489Y-86567574D01*
X62168488Y-86567574D01*
X62168487Y-86567573D01*
X61832564Y-86343116D01*
X61546884Y-86057436D01*
X61322427Y-85721513D01*
X61302799Y-85674127D01*
X61167818Y-85348254D01*
X61089000Y-84952007D01*
X61089000Y-84547993D01*
X61167818Y-84151746D01*
X61322426Y-83778489D01*
X61546884Y-83442564D01*
X61832564Y-83156884D01*
X61942868Y-83083181D01*
X62168487Y-82932427D01*
X62168489Y-82932426D01*
X62541746Y-82777818D01*
X62937993Y-82699000D01*
X63342007Y-82699000D01*
X63738254Y-82777818D01*
G37*
G36*
X76465562Y-83083181D02*
G01*
X76500481Y-83093774D01*
X76532663Y-83110976D01*
X76560873Y-83134127D01*
X76584024Y-83162337D01*
X76601226Y-83194519D01*
X76611819Y-83229438D01*
X76616000Y-83271895D01*
X76616000Y-84413105D01*
X76611819Y-84455562D01*
X76601226Y-84490481D01*
X76584024Y-84522663D01*
X76560873Y-84550873D01*
X76532663Y-84574024D01*
X76500481Y-84591226D01*
X76465562Y-84601819D01*
X76423105Y-84606000D01*
X74056895Y-84606000D01*
X74014438Y-84601819D01*
X73979519Y-84591226D01*
X73947337Y-84574024D01*
X73919127Y-84550873D01*
X73895976Y-84522663D01*
X73878774Y-84490481D01*
X73868181Y-84455562D01*
X73864000Y-84413105D01*
X73864000Y-83271895D01*
X73868181Y-83229438D01*
X73878774Y-83194519D01*
X73895976Y-83162337D01*
X73919127Y-83134127D01*
X73947337Y-83110976D01*
X73979519Y-83093774D01*
X74014438Y-83083181D01*
X74056895Y-83079000D01*
X76423105Y-83079000D01*
X76465562Y-83083181D01*
G37*
G36*
X92401000Y-84331000D02*
G01*
X91099000Y-84331000D01*
X91099000Y-82029000D01*
X92401000Y-82029000D01*
X92401000Y-84331000D01*
G37*
G36*
X94681000Y-84331000D02*
G01*
X93379000Y-84331000D01*
X93379000Y-82029000D01*
X94681000Y-82029000D01*
X94681000Y-84331000D01*
G37*
G36*
X90121000Y-84331000D02*
G01*
X88819000Y-84331000D01*
X88819000Y-82029000D01*
X90121000Y-82029000D01*
X90121000Y-84331000D01*
G37*
G36*
X82598048Y-81568122D02*
G01*
X82632387Y-81578539D01*
X82664036Y-81595456D01*
X82691778Y-81618222D01*
X82714544Y-81645964D01*
X82731461Y-81677613D01*
X82741878Y-81711952D01*
X82746000Y-81753807D01*
X82746000Y-83826193D01*
X82741878Y-83868048D01*
X82731461Y-83902387D01*
X82714544Y-83934036D01*
X82691778Y-83961778D01*
X82664036Y-83984544D01*
X82632387Y-84001461D01*
X82598048Y-84011878D01*
X82556193Y-84016000D01*
X81333807Y-84016000D01*
X81291952Y-84011878D01*
X81257613Y-84001461D01*
X81225964Y-83984544D01*
X81198222Y-83961778D01*
X81175456Y-83934036D01*
X81158539Y-83902387D01*
X81148122Y-83868048D01*
X81144000Y-83826193D01*
X81144000Y-81753807D01*
X81148122Y-81711952D01*
X81158539Y-81677613D01*
X81175456Y-81645964D01*
X81198222Y-81618222D01*
X81225964Y-81595456D01*
X81257613Y-81578539D01*
X81291952Y-81568122D01*
X81333807Y-81564000D01*
X82556193Y-81564000D01*
X82598048Y-81568122D01*
G37*
G36*
X79348048Y-81568122D02*
G01*
X79382387Y-81578539D01*
X79414036Y-81595456D01*
X79441778Y-81618222D01*
X79464544Y-81645964D01*
X79481461Y-81677613D01*
X79491878Y-81711952D01*
X79496000Y-81753807D01*
X79496000Y-83826193D01*
X79491878Y-83868048D01*
X79481461Y-83902387D01*
X79464544Y-83934036D01*
X79441778Y-83961778D01*
X79414036Y-83984544D01*
X79382387Y-84001461D01*
X79348048Y-84011878D01*
X79306193Y-84016000D01*
X78083807Y-84016000D01*
X78041952Y-84011878D01*
X78007613Y-84001461D01*
X77975964Y-83984544D01*
X77948222Y-83961778D01*
X77925456Y-83934036D01*
X77908539Y-83902387D01*
X77898122Y-83868048D01*
X77894000Y-83826193D01*
X77894000Y-81753807D01*
X77898122Y-81711952D01*
X77908539Y-81677613D01*
X77925456Y-81645964D01*
X77948222Y-81618222D01*
X77975964Y-81595456D01*
X78007613Y-81578539D01*
X78041952Y-81568122D01*
X78083807Y-81564000D01*
X79306193Y-81564000D01*
X79348048Y-81568122D01*
G37*
G36*
X108237142Y-79218242D02*
G01*
X108385101Y-79279529D01*
X108518255Y-79368499D01*
X108631501Y-79481745D01*
X108720471Y-79614899D01*
X108781758Y-79762858D01*
X108813000Y-79919925D01*
X108813000Y-80080075D01*
X108781758Y-80237142D01*
X108720471Y-80385101D01*
X108631501Y-80518255D01*
X108518255Y-80631501D01*
X108385101Y-80720471D01*
X108237142Y-80781758D01*
X108080075Y-80813000D01*
X107919925Y-80813000D01*
X107762858Y-80781758D01*
X107614899Y-80720471D01*
X107481745Y-80631501D01*
X107368499Y-80518255D01*
X107279529Y-80385101D01*
X107218242Y-80237142D01*
X107187000Y-80080075D01*
X107187000Y-79919925D01*
X107218242Y-79762858D01*
X107279529Y-79614899D01*
X107368499Y-79481745D01*
X107481745Y-79368499D01*
X107614899Y-79279529D01*
X107762858Y-79218242D01*
X107919925Y-79187000D01*
X108080075Y-79187000D01*
X108237142Y-79218242D01*
G37*
G36*
X118237142Y-79218242D02*
G01*
X118385101Y-79279529D01*
X118518255Y-79368499D01*
X118631501Y-79481745D01*
X118720471Y-79614899D01*
X118781758Y-79762858D01*
X118813000Y-79919925D01*
X118813000Y-80080075D01*
X118781758Y-80237142D01*
X118720471Y-80385101D01*
X118631501Y-80518255D01*
X118518255Y-80631501D01*
X118385101Y-80720471D01*
X118237142Y-80781758D01*
X118080075Y-80813000D01*
X117919925Y-80813000D01*
X117762858Y-80781758D01*
X117614899Y-80720471D01*
X117481745Y-80631501D01*
X117368499Y-80518255D01*
X117279529Y-80385101D01*
X117218242Y-80237142D01*
X117187000Y-80080075D01*
X117187000Y-79919925D01*
X117218242Y-79762858D01*
X117279529Y-79614899D01*
X117368499Y-79481745D01*
X117481745Y-79368499D01*
X117614899Y-79279529D01*
X117762858Y-79218242D01*
X117919925Y-79187000D01*
X118080075Y-79187000D01*
X118237142Y-79218242D01*
G37*
G36*
X116237142Y-79218242D02*
G01*
X116385101Y-79279529D01*
X116518255Y-79368499D01*
X116631501Y-79481745D01*
X116720471Y-79614899D01*
X116781758Y-79762858D01*
X116813000Y-79919925D01*
X116813000Y-80080075D01*
X116781758Y-80237142D01*
X116720471Y-80385101D01*
X116631501Y-80518255D01*
X116518255Y-80631501D01*
X116385101Y-80720471D01*
X116237142Y-80781758D01*
X116080075Y-80813000D01*
X115919925Y-80813000D01*
X115762858Y-80781758D01*
X115614899Y-80720471D01*
X115481745Y-80631501D01*
X115368499Y-80518255D01*
X115279529Y-80385101D01*
X115218242Y-80237142D01*
X115187000Y-80080075D01*
X115187000Y-79919925D01*
X115218242Y-79762858D01*
X115279529Y-79614899D01*
X115368499Y-79481745D01*
X115481745Y-79368499D01*
X115614899Y-79279529D01*
X115762858Y-79218242D01*
X115919925Y-79187000D01*
X116080075Y-79187000D01*
X116237142Y-79218242D01*
G37*
G36*
X120237142Y-79218242D02*
G01*
X120385101Y-79279529D01*
X120518255Y-79368499D01*
X120631501Y-79481745D01*
X120720471Y-79614899D01*
X120781758Y-79762858D01*
X120813000Y-79919925D01*
X120813000Y-80080075D01*
X120781758Y-80237142D01*
X120720471Y-80385101D01*
X120631501Y-80518255D01*
X120518255Y-80631501D01*
X120385101Y-80720471D01*
X120237142Y-80781758D01*
X120080075Y-80813000D01*
X119919925Y-80813000D01*
X119762858Y-80781758D01*
X119614899Y-80720471D01*
X119481745Y-80631501D01*
X119368499Y-80518255D01*
X119279529Y-80385101D01*
X119218242Y-80237142D01*
X119187000Y-80080075D01*
X119187000Y-79919925D01*
X119218242Y-79762858D01*
X119279529Y-79614899D01*
X119368499Y-79481745D01*
X119481745Y-79368499D01*
X119614899Y-79279529D01*
X119762858Y-79218242D01*
X119919925Y-79187000D01*
X120080075Y-79187000D01*
X120237142Y-79218242D01*
G37*
G36*
X122237142Y-79218242D02*
G01*
X122385101Y-79279529D01*
X122518255Y-79368499D01*
X122631501Y-79481745D01*
X122720471Y-79614899D01*
X122781758Y-79762858D01*
X122813000Y-79919925D01*
X122813000Y-80080075D01*
X122781758Y-80237142D01*
X122720471Y-80385101D01*
X122631501Y-80518255D01*
X122518255Y-80631501D01*
X122385101Y-80720471D01*
X122237142Y-80781758D01*
X122080075Y-80813000D01*
X121919925Y-80813000D01*
X121762858Y-80781758D01*
X121614899Y-80720471D01*
X121481745Y-80631501D01*
X121368499Y-80518255D01*
X121279529Y-80385101D01*
X121218242Y-80237142D01*
X121187000Y-80080075D01*
X121187000Y-79919925D01*
X121218242Y-79762858D01*
X121279529Y-79614899D01*
X121368499Y-79481745D01*
X121481745Y-79368499D01*
X121614899Y-79279529D01*
X121762858Y-79218242D01*
X121919925Y-79187000D01*
X122080075Y-79187000D01*
X122237142Y-79218242D01*
G37*
G36*
X124813000Y-80813000D02*
G01*
X123187000Y-80813000D01*
X123187000Y-79187000D01*
X124813000Y-79187000D01*
X124813000Y-80813000D01*
G37*
G36*
X114237142Y-79218242D02*
G01*
X114385101Y-79279529D01*
X114518255Y-79368499D01*
X114631501Y-79481745D01*
X114720471Y-79614899D01*
X114781758Y-79762858D01*
X114813000Y-79919925D01*
X114813000Y-80080075D01*
X114781758Y-80237142D01*
X114720471Y-80385101D01*
X114631501Y-80518255D01*
X114518255Y-80631501D01*
X114385101Y-80720471D01*
X114237142Y-80781758D01*
X114080075Y-80813000D01*
X113919925Y-80813000D01*
X113762858Y-80781758D01*
X113614899Y-80720471D01*
X113481745Y-80631501D01*
X113368499Y-80518255D01*
X113279529Y-80385101D01*
X113218242Y-80237142D01*
X113187000Y-80080075D01*
X113187000Y-79919925D01*
X113218242Y-79762858D01*
X113279529Y-79614899D01*
X113368499Y-79481745D01*
X113481745Y-79368499D01*
X113614899Y-79279529D01*
X113762858Y-79218242D01*
X113919925Y-79187000D01*
X114080075Y-79187000D01*
X114237142Y-79218242D01*
G37*
G36*
X112237142Y-79218242D02*
G01*
X112385101Y-79279529D01*
X112518255Y-79368499D01*
X112631501Y-79481745D01*
X112720471Y-79614899D01*
X112781758Y-79762858D01*
X112813000Y-79919925D01*
X112813000Y-80080075D01*
X112781758Y-80237142D01*
X112720471Y-80385101D01*
X112631501Y-80518255D01*
X112518255Y-80631501D01*
X112385101Y-80720471D01*
X112237142Y-80781758D01*
X112080075Y-80813000D01*
X111919925Y-80813000D01*
X111762858Y-80781758D01*
X111614899Y-80720471D01*
X111481745Y-80631501D01*
X111368499Y-80518255D01*
X111279529Y-80385101D01*
X111218242Y-80237142D01*
X111187000Y-80080075D01*
X111187000Y-79919925D01*
X111218242Y-79762858D01*
X111279529Y-79614899D01*
X111368499Y-79481745D01*
X111481745Y-79368499D01*
X111614899Y-79279529D01*
X111762858Y-79218242D01*
X111919925Y-79187000D01*
X112080075Y-79187000D01*
X112237142Y-79218242D01*
G37*
G36*
X110237142Y-79218242D02*
G01*
X110385101Y-79279529D01*
X110518255Y-79368499D01*
X110631501Y-79481745D01*
X110720471Y-79614899D01*
X110781758Y-79762858D01*
X110813000Y-79919925D01*
X110813000Y-80080075D01*
X110781758Y-80237142D01*
X110720471Y-80385101D01*
X110631501Y-80518255D01*
X110518255Y-80631501D01*
X110385101Y-80720471D01*
X110237142Y-80781758D01*
X110080075Y-80813000D01*
X109919925Y-80813000D01*
X109762858Y-80781758D01*
X109614899Y-80720471D01*
X109481745Y-80631501D01*
X109368499Y-80518255D01*
X109279529Y-80385101D01*
X109218242Y-80237142D01*
X109187000Y-80080075D01*
X109187000Y-79919925D01*
X109218242Y-79762858D01*
X109279529Y-79614899D01*
X109368499Y-79481745D01*
X109481745Y-79368499D01*
X109614899Y-79279529D01*
X109762858Y-79218242D01*
X109919925Y-79187000D01*
X110080075Y-79187000D01*
X110237142Y-79218242D01*
G37*
G36*
X106237142Y-79218242D02*
G01*
X106385101Y-79279529D01*
X106518255Y-79368499D01*
X106631501Y-79481745D01*
X106720471Y-79614899D01*
X106781758Y-79762858D01*
X106813000Y-79919925D01*
X106813000Y-80080075D01*
X106781758Y-80237142D01*
X106720471Y-80385101D01*
X106631501Y-80518255D01*
X106518255Y-80631501D01*
X106385101Y-80720471D01*
X106237142Y-80781758D01*
X106080075Y-80813000D01*
X105919925Y-80813000D01*
X105762858Y-80781758D01*
X105614899Y-80720471D01*
X105481745Y-80631501D01*
X105368499Y-80518255D01*
X105279529Y-80385101D01*
X105218242Y-80237142D01*
X105187000Y-80080075D01*
X105187000Y-79919925D01*
X105218242Y-79762858D01*
X105279529Y-79614899D01*
X105368499Y-79481745D01*
X105481745Y-79368499D01*
X105614899Y-79279529D01*
X105762858Y-79218242D01*
X105919925Y-79187000D01*
X106080075Y-79187000D01*
X106237142Y-79218242D01*
G37*
G36*
X94701000Y-80131000D02*
G01*
X88799000Y-80131000D01*
X88799000Y-73629000D01*
X94701000Y-73629000D01*
X94701000Y-80131000D01*
G37*
G36*
X78610562Y-78058181D02*
G01*
X78645481Y-78068774D01*
X78677663Y-78085976D01*
X78705873Y-78109127D01*
X78729024Y-78137337D01*
X78746226Y-78169519D01*
X78756819Y-78204438D01*
X78761000Y-78246895D01*
X78761000Y-79713105D01*
X78756819Y-79755562D01*
X78746226Y-79790481D01*
X78729024Y-79822663D01*
X78705873Y-79850873D01*
X78677663Y-79874024D01*
X78645481Y-79891226D01*
X78610562Y-79901819D01*
X78568105Y-79906000D01*
X77426895Y-79906000D01*
X77384438Y-79901819D01*
X77349519Y-79891226D01*
X77317337Y-79874024D01*
X77289127Y-79850873D01*
X77265976Y-79822663D01*
X77248774Y-79790481D01*
X77238181Y-79755562D01*
X77234000Y-79713105D01*
X77234000Y-78246895D01*
X77238181Y-78204438D01*
X77248774Y-78169519D01*
X77265976Y-78137337D01*
X77289127Y-78109127D01*
X77317337Y-78085976D01*
X77349519Y-78068774D01*
X77384438Y-78058181D01*
X77426895Y-78054000D01*
X78568105Y-78054000D01*
X78610562Y-78058181D01*
G37*
G36*
X75635562Y-78058181D02*
G01*
X75670481Y-78068774D01*
X75702663Y-78085976D01*
X75730873Y-78109127D01*
X75754024Y-78137337D01*
X75771226Y-78169519D01*
X75781819Y-78204438D01*
X75786000Y-78246895D01*
X75786000Y-79713105D01*
X75781819Y-79755562D01*
X75771226Y-79790481D01*
X75754024Y-79822663D01*
X75730873Y-79850873D01*
X75702663Y-79874024D01*
X75670481Y-79891226D01*
X75635562Y-79901819D01*
X75593105Y-79906000D01*
X74451895Y-79906000D01*
X74409438Y-79901819D01*
X74374519Y-79891226D01*
X74342337Y-79874024D01*
X74314127Y-79850873D01*
X74290976Y-79822663D01*
X74273774Y-79790481D01*
X74263181Y-79755562D01*
X74259000Y-79713105D01*
X74259000Y-78246895D01*
X74263181Y-78204438D01*
X74273774Y-78169519D01*
X74290976Y-78137337D01*
X74314127Y-78109127D01*
X74342337Y-78085976D01*
X74374519Y-78068774D01*
X74409438Y-78058181D01*
X74451895Y-78054000D01*
X75593105Y-78054000D01*
X75635562Y-78058181D01*
G37*
G36*
X121355562Y-72978181D02*
G01*
X121390481Y-72988774D01*
X121422663Y-73005976D01*
X121450873Y-73029127D01*
X121474024Y-73057337D01*
X121491226Y-73089519D01*
X121501819Y-73124438D01*
X121506000Y-73166895D01*
X121506000Y-74633105D01*
X121501819Y-74675562D01*
X121491226Y-74710481D01*
X121474024Y-74742663D01*
X121450873Y-74770873D01*
X121422663Y-74794024D01*
X121390481Y-74811226D01*
X121355562Y-74821819D01*
X121313105Y-74826000D01*
X120171895Y-74826000D01*
X120129438Y-74821819D01*
X120094519Y-74811226D01*
X120062337Y-74794024D01*
X120034127Y-74770873D01*
X120010976Y-74742663D01*
X119993774Y-74710481D01*
X119983181Y-74675562D01*
X119979000Y-74633105D01*
X119979000Y-73166895D01*
X119983181Y-73124438D01*
X119993774Y-73089519D01*
X120010976Y-73057337D01*
X120034127Y-73029127D01*
X120062337Y-73005976D01*
X120094519Y-72988774D01*
X120129438Y-72978181D01*
X120171895Y-72974000D01*
X121313105Y-72974000D01*
X121355562Y-72978181D01*
G37*
G36*
X124330562Y-72978181D02*
G01*
X124365481Y-72988774D01*
X124397663Y-73005976D01*
X124425873Y-73029127D01*
X124449024Y-73057337D01*
X124466226Y-73089519D01*
X124476819Y-73124438D01*
X124481000Y-73166895D01*
X124481000Y-74633105D01*
X124476819Y-74675562D01*
X124466226Y-74710481D01*
X124449024Y-74742663D01*
X124425873Y-74770873D01*
X124397663Y-74794024D01*
X124365481Y-74811226D01*
X124330562Y-74821819D01*
X124288105Y-74826000D01*
X123146895Y-74826000D01*
X123104438Y-74821819D01*
X123069519Y-74811226D01*
X123037337Y-74794024D01*
X123009127Y-74770873D01*
X122985976Y-74742663D01*
X122968774Y-74710481D01*
X122958181Y-74675562D01*
X122954000Y-74633105D01*
X122954000Y-73166895D01*
X122958181Y-73124438D01*
X122968774Y-73089519D01*
X122985976Y-73057337D01*
X123009127Y-73029127D01*
X123037337Y-73005976D01*
X123069519Y-72988774D01*
X123104438Y-72978181D01*
X123146895Y-72974000D01*
X124288105Y-72974000D01*
X124330562Y-72978181D01*
G37*
M02*
