G04 #@! TF.GenerationSoftware,KiCad,Pcbnew,5.1.5+dfsg1-2build2*
G04 #@! TF.CreationDate,2020-09-30T09:27:11+02:00*
G04 #@! TF.ProjectId,Adaptateur,41646170-7461-4746-9575-722e6b696361,rev?*
G04 #@! TF.SameCoordinates,Original*
G04 #@! TF.FileFunction,Copper,L2,Bot*
G04 #@! TF.FilePolarity,Positive*
%FSLAX46Y46*%
G04 Gerber Fmt 4.6, Leading zero omitted, Abs format (unit mm)*
G04 Created by KiCad (PCBNEW 5.1.5+dfsg1-2build2) date 2020-09-30 09:27:11*
%MOMM*%
%LPD*%
G04 APERTURE LIST*
%ADD10R,1.600000X1.600000*%
%ADD11C,1.600000*%
%ADD12C,4.000000*%
%ADD13C,1.524000*%
%ADD14R,1.524000X1.524000*%
%ADD15C,1.000000*%
%ADD16C,0.800000*%
%ADD17C,1.270000*%
%ADD18C,0.635000*%
%ADD19C,0.304800*%
%ADD20C,0.254000*%
G04 APERTURE END LIST*
D10*
X68000000Y-92000000D03*
D11*
X68000000Y-89500000D03*
X66000000Y-89500000D03*
X66000000Y-92000000D03*
D12*
X63140000Y-84750000D03*
X63140000Y-96750000D03*
D13*
X118000000Y-80000000D03*
X118000000Y-102000000D03*
X120000000Y-80000000D03*
X122000000Y-80000000D03*
D14*
X124000000Y-80000000D03*
D13*
X120000000Y-102000000D03*
X122000000Y-102000000D03*
X124000000Y-102000000D03*
X116000000Y-102000000D03*
X114000000Y-102000000D03*
X112000000Y-102000000D03*
X110000000Y-102000000D03*
X108000000Y-102000000D03*
X106000000Y-102000000D03*
X116000000Y-80000000D03*
X114000000Y-80000000D03*
X112000000Y-80000000D03*
X110000000Y-80000000D03*
X108000000Y-80000000D03*
X106000000Y-80000000D03*
D12*
X64000000Y-74500000D03*
X64000000Y-107500000D03*
X130000000Y-105000000D03*
X130000000Y-77000000D03*
D15*
X83912500Y-105867500D03*
X95560000Y-85965000D03*
X84765000Y-82790000D03*
X79685000Y-91045000D03*
X83495000Y-109460000D03*
X79685000Y-97395000D03*
D16*
X77145000Y-97395000D03*
X77145000Y-92950000D03*
X72700000Y-92950000D03*
X125405000Y-76440000D03*
X88575000Y-109460000D03*
D15*
X75240000Y-81520000D03*
X97220000Y-83180000D03*
D17*
X106000000Y-80000000D02*
X102160000Y-80000000D01*
X102160000Y-80000000D02*
X101275000Y-80885000D01*
X101275000Y-80885000D02*
X101275000Y-84695000D01*
X100005000Y-85965000D02*
X95560000Y-85965000D01*
X101275000Y-84695000D02*
X100005000Y-85965000D01*
X95560000Y-85965000D02*
X86670000Y-85965000D01*
X86670000Y-85965000D02*
X84765000Y-84060000D01*
X84765000Y-104307894D02*
X84765000Y-83425000D01*
X83912500Y-105160394D02*
X84765000Y-104307894D01*
X83912500Y-105867500D02*
X83912500Y-105160394D01*
X84765000Y-83425000D02*
X84765000Y-82790000D01*
X84765000Y-84060000D02*
X84765000Y-83425000D01*
D18*
X79685000Y-91045000D02*
X79685000Y-108190000D01*
X79685000Y-108190000D02*
X80955000Y-109460000D01*
X80955000Y-109460000D02*
X83495000Y-109460000D01*
D19*
X77145000Y-97395000D02*
X77145000Y-92950000D01*
X64720000Y-89500000D02*
X66000000Y-89500000D01*
X63810000Y-90410000D02*
X64720000Y-89500000D01*
X64445000Y-94220000D02*
X63810000Y-93585000D01*
X63810000Y-93585000D02*
X63810000Y-90410000D01*
X72700000Y-92950000D02*
X71430000Y-92950000D01*
X71430000Y-92950000D02*
X70160000Y-94220000D01*
X70160000Y-94220000D02*
X64445000Y-94220000D01*
X125405000Y-76440000D02*
X120325000Y-76440000D01*
X120000000Y-76765000D02*
X120000000Y-80000000D01*
X120325000Y-76440000D02*
X120000000Y-76765000D01*
X108000000Y-103077630D02*
X107625000Y-103452630D01*
X108000000Y-102000000D02*
X108000000Y-103077630D01*
X107625000Y-103452630D02*
X107625000Y-108190000D01*
X107625000Y-108190000D02*
X106990000Y-108825000D01*
X106990000Y-108825000D02*
X89210000Y-108825000D01*
X89210000Y-108825000D02*
X88575000Y-109460000D01*
D17*
X70070000Y-92000000D02*
X71430000Y-90640000D01*
X68000000Y-92000000D02*
X70070000Y-92000000D01*
X71430000Y-90640000D02*
X71430000Y-82155000D01*
X72065000Y-81520000D02*
X75240000Y-81520000D01*
X71430000Y-82155000D02*
X72065000Y-81520000D01*
X97220000Y-81910000D02*
X97220000Y-83180000D01*
X97220000Y-80005000D02*
X97220000Y-83180000D01*
X96195000Y-78980000D02*
X97220000Y-80005000D01*
X77780000Y-78980000D02*
X96195000Y-78980000D01*
X75240000Y-81520000D02*
X77780000Y-78980000D01*
D20*
G36*
X133340000Y-82028000D02*
G01*
X104450000Y-82028000D01*
X104425224Y-82030440D01*
X104401399Y-82037667D01*
X104379443Y-82049403D01*
X104360197Y-82065197D01*
X104344403Y-82084443D01*
X104332667Y-82106399D01*
X104325440Y-82130224D01*
X104323000Y-82155000D01*
X104323000Y-99935000D01*
X104325440Y-99959776D01*
X104332667Y-99983601D01*
X104344403Y-100005557D01*
X104360197Y-100024803D01*
X104379443Y-100040597D01*
X104401399Y-100052333D01*
X104425224Y-100059560D01*
X104450000Y-100062000D01*
X133340001Y-100062000D01*
X133340001Y-111340000D01*
X60660000Y-111340000D01*
X60660000Y-98597499D01*
X61472106Y-98597499D01*
X61688228Y-98964258D01*
X62148105Y-99204938D01*
X62646098Y-99351275D01*
X63163071Y-99397648D01*
X63679159Y-99342273D01*
X64174526Y-99187279D01*
X64591772Y-98964258D01*
X64807894Y-98597499D01*
X63140000Y-96929605D01*
X61472106Y-98597499D01*
X60660000Y-98597499D01*
X60660000Y-97647988D01*
X60702721Y-97784526D01*
X60925742Y-98201772D01*
X61292501Y-98417894D01*
X62960395Y-96750000D01*
X61292501Y-95082106D01*
X60925742Y-95298228D01*
X60685062Y-95758105D01*
X60660000Y-95843392D01*
X60660000Y-94902501D01*
X61472106Y-94902501D01*
X63140000Y-96570395D01*
X63154143Y-96556253D01*
X63333748Y-96735858D01*
X63319605Y-96750000D01*
X64987499Y-98417894D01*
X65354258Y-98201772D01*
X65594938Y-97741895D01*
X65741275Y-97243902D01*
X65787648Y-96726929D01*
X65732273Y-96210841D01*
X65577279Y-95715474D01*
X65354258Y-95298228D01*
X64987501Y-95082107D01*
X65062208Y-95007400D01*
X70121337Y-95007400D01*
X70160000Y-95011208D01*
X70198663Y-95007400D01*
X70198673Y-95007400D01*
X70314357Y-94996006D01*
X70462783Y-94950982D01*
X70599572Y-94877866D01*
X70719469Y-94779469D01*
X70744127Y-94749423D01*
X71756152Y-93737400D01*
X72023689Y-93737400D01*
X72040226Y-93753937D01*
X72209744Y-93867205D01*
X72398102Y-93945226D01*
X72598061Y-93985000D01*
X72801939Y-93985000D01*
X73001898Y-93945226D01*
X73190256Y-93867205D01*
X73359774Y-93753937D01*
X73503937Y-93609774D01*
X73617205Y-93440256D01*
X73695226Y-93251898D01*
X73735000Y-93051939D01*
X73735000Y-92848061D01*
X76110000Y-92848061D01*
X76110000Y-93051939D01*
X76149774Y-93251898D01*
X76227795Y-93440256D01*
X76341063Y-93609774D01*
X76357601Y-93626312D01*
X76357600Y-96718689D01*
X76341063Y-96735226D01*
X76227795Y-96904744D01*
X76149774Y-97093102D01*
X76110000Y-97293061D01*
X76110000Y-97496939D01*
X76149774Y-97696898D01*
X76227795Y-97885256D01*
X76341063Y-98054774D01*
X76485226Y-98198937D01*
X76654744Y-98312205D01*
X76843102Y-98390226D01*
X77043061Y-98430000D01*
X77246939Y-98430000D01*
X77446898Y-98390226D01*
X77635256Y-98312205D01*
X77804774Y-98198937D01*
X77948937Y-98054774D01*
X78062205Y-97885256D01*
X78140226Y-97696898D01*
X78180000Y-97496939D01*
X78180000Y-97293061D01*
X78140226Y-97093102D01*
X78062205Y-96904744D01*
X77948937Y-96735226D01*
X77932400Y-96718689D01*
X77932400Y-93626311D01*
X77948937Y-93609774D01*
X78062205Y-93440256D01*
X78140226Y-93251898D01*
X78180000Y-93051939D01*
X78180000Y-92848061D01*
X78140226Y-92648102D01*
X78062205Y-92459744D01*
X77948937Y-92290226D01*
X77804774Y-92146063D01*
X77635256Y-92032795D01*
X77446898Y-91954774D01*
X77246939Y-91915000D01*
X77043061Y-91915000D01*
X76843102Y-91954774D01*
X76654744Y-92032795D01*
X76485226Y-92146063D01*
X76341063Y-92290226D01*
X76227795Y-92459744D01*
X76149774Y-92648102D01*
X76110000Y-92848061D01*
X73735000Y-92848061D01*
X73695226Y-92648102D01*
X73617205Y-92459744D01*
X73503937Y-92290226D01*
X73359774Y-92146063D01*
X73190256Y-92032795D01*
X73001898Y-91954774D01*
X72801939Y-91915000D01*
X72598061Y-91915000D01*
X72398102Y-91954774D01*
X72209744Y-92032795D01*
X72040226Y-92146063D01*
X72023689Y-92162600D01*
X71703451Y-92162600D01*
X72283915Y-91582136D01*
X72332370Y-91542370D01*
X72491075Y-91348988D01*
X72609003Y-91128359D01*
X72668200Y-90933212D01*
X78550000Y-90933212D01*
X78550000Y-91156788D01*
X78593617Y-91376067D01*
X78679176Y-91582624D01*
X78732500Y-91662429D01*
X78732500Y-96777571D01*
X78679176Y-96857376D01*
X78593617Y-97063933D01*
X78550000Y-97283212D01*
X78550000Y-97506788D01*
X78593617Y-97726067D01*
X78679176Y-97932624D01*
X78732500Y-98012429D01*
X78732501Y-108143205D01*
X78727892Y-108190000D01*
X78746283Y-108376722D01*
X78800749Y-108556269D01*
X78887960Y-108719430D01*
X78889195Y-108721741D01*
X79008223Y-108866778D01*
X79044564Y-108896602D01*
X80248397Y-110100436D01*
X80278222Y-110136778D01*
X80423259Y-110255806D01*
X80588731Y-110344252D01*
X80768277Y-110398717D01*
X80954999Y-110417108D01*
X81001784Y-110412500D01*
X82877571Y-110412500D01*
X82957376Y-110465824D01*
X83163933Y-110551383D01*
X83383212Y-110595000D01*
X83606788Y-110595000D01*
X83826067Y-110551383D01*
X84032624Y-110465824D01*
X84218520Y-110341612D01*
X84376612Y-110183520D01*
X84500824Y-109997624D01*
X84586383Y-109791067D01*
X84630000Y-109571788D01*
X84630000Y-109358061D01*
X87540000Y-109358061D01*
X87540000Y-109561939D01*
X87579774Y-109761898D01*
X87657795Y-109950256D01*
X87771063Y-110119774D01*
X87915226Y-110263937D01*
X88084744Y-110377205D01*
X88273102Y-110455226D01*
X88473061Y-110495000D01*
X88676939Y-110495000D01*
X88876898Y-110455226D01*
X89065256Y-110377205D01*
X89234774Y-110263937D01*
X89378937Y-110119774D01*
X89492205Y-109950256D01*
X89570226Y-109761898D01*
X89599963Y-109612400D01*
X106951337Y-109612400D01*
X106990000Y-109616208D01*
X107028663Y-109612400D01*
X107028673Y-109612400D01*
X107144357Y-109601006D01*
X107292783Y-109555982D01*
X107429572Y-109482866D01*
X107549469Y-109384469D01*
X107574127Y-109354423D01*
X108154433Y-108774119D01*
X108184469Y-108749469D01*
X108209119Y-108719433D01*
X108209122Y-108719430D01*
X108282866Y-108629572D01*
X108355982Y-108492783D01*
X108401006Y-108344357D01*
X108412400Y-108228673D01*
X108412400Y-108228665D01*
X108416208Y-108190000D01*
X108412400Y-108151335D01*
X108412400Y-103778780D01*
X108529422Y-103661758D01*
X108559469Y-103637099D01*
X108657866Y-103517202D01*
X108730982Y-103380413D01*
X108776006Y-103231987D01*
X108783422Y-103156691D01*
X108890535Y-103085120D01*
X109000000Y-102975655D01*
X109109465Y-103085120D01*
X109338273Y-103238005D01*
X109592510Y-103343314D01*
X109862408Y-103397000D01*
X110137592Y-103397000D01*
X110407490Y-103343314D01*
X110661727Y-103238005D01*
X110890535Y-103085120D01*
X111000000Y-102975655D01*
X111109465Y-103085120D01*
X111338273Y-103238005D01*
X111592510Y-103343314D01*
X111862408Y-103397000D01*
X112137592Y-103397000D01*
X112407490Y-103343314D01*
X112661727Y-103238005D01*
X112890535Y-103085120D01*
X113000000Y-102975655D01*
X113109465Y-103085120D01*
X113338273Y-103238005D01*
X113592510Y-103343314D01*
X113862408Y-103397000D01*
X114137592Y-103397000D01*
X114407490Y-103343314D01*
X114661727Y-103238005D01*
X114890535Y-103085120D01*
X115000000Y-102975655D01*
X115109465Y-103085120D01*
X115338273Y-103238005D01*
X115592510Y-103343314D01*
X115862408Y-103397000D01*
X116137592Y-103397000D01*
X116407490Y-103343314D01*
X116661727Y-103238005D01*
X116890535Y-103085120D01*
X117000000Y-102975655D01*
X117109465Y-103085120D01*
X117338273Y-103238005D01*
X117592510Y-103343314D01*
X117862408Y-103397000D01*
X118137592Y-103397000D01*
X118407490Y-103343314D01*
X118661727Y-103238005D01*
X118890535Y-103085120D01*
X119000000Y-102975655D01*
X119109465Y-103085120D01*
X119338273Y-103238005D01*
X119592510Y-103343314D01*
X119862408Y-103397000D01*
X120137592Y-103397000D01*
X120407490Y-103343314D01*
X120661727Y-103238005D01*
X120890535Y-103085120D01*
X121000000Y-102975655D01*
X121109465Y-103085120D01*
X121338273Y-103238005D01*
X121592510Y-103343314D01*
X121862408Y-103397000D01*
X122137592Y-103397000D01*
X122407490Y-103343314D01*
X122661727Y-103238005D01*
X122890535Y-103085120D01*
X123000000Y-102975655D01*
X123109465Y-103085120D01*
X123338273Y-103238005D01*
X123592510Y-103343314D01*
X123862408Y-103397000D01*
X124137592Y-103397000D01*
X124407490Y-103343314D01*
X124661727Y-103238005D01*
X124890535Y-103085120D01*
X125085120Y-102890535D01*
X125238005Y-102661727D01*
X125343314Y-102407490D01*
X125397000Y-102137592D01*
X125397000Y-101862408D01*
X125343314Y-101592510D01*
X125238005Y-101338273D01*
X125085120Y-101109465D01*
X124890535Y-100914880D01*
X124661727Y-100761995D01*
X124407490Y-100656686D01*
X124137592Y-100603000D01*
X123862408Y-100603000D01*
X123592510Y-100656686D01*
X123338273Y-100761995D01*
X123109465Y-100914880D01*
X123000000Y-101024345D01*
X122890535Y-100914880D01*
X122661727Y-100761995D01*
X122407490Y-100656686D01*
X122137592Y-100603000D01*
X121862408Y-100603000D01*
X121592510Y-100656686D01*
X121338273Y-100761995D01*
X121109465Y-100914880D01*
X121000000Y-101024345D01*
X120890535Y-100914880D01*
X120661727Y-100761995D01*
X120407490Y-100656686D01*
X120137592Y-100603000D01*
X119862408Y-100603000D01*
X119592510Y-100656686D01*
X119338273Y-100761995D01*
X119109465Y-100914880D01*
X119000000Y-101024345D01*
X118890535Y-100914880D01*
X118661727Y-100761995D01*
X118407490Y-100656686D01*
X118137592Y-100603000D01*
X117862408Y-100603000D01*
X117592510Y-100656686D01*
X117338273Y-100761995D01*
X117109465Y-100914880D01*
X117000000Y-101024345D01*
X116890535Y-100914880D01*
X116661727Y-100761995D01*
X116407490Y-100656686D01*
X116137592Y-100603000D01*
X115862408Y-100603000D01*
X115592510Y-100656686D01*
X115338273Y-100761995D01*
X115109465Y-100914880D01*
X115000000Y-101024345D01*
X114890535Y-100914880D01*
X114661727Y-100761995D01*
X114407490Y-100656686D01*
X114137592Y-100603000D01*
X113862408Y-100603000D01*
X113592510Y-100656686D01*
X113338273Y-100761995D01*
X113109465Y-100914880D01*
X113000000Y-101024345D01*
X112890535Y-100914880D01*
X112661727Y-100761995D01*
X112407490Y-100656686D01*
X112137592Y-100603000D01*
X111862408Y-100603000D01*
X111592510Y-100656686D01*
X111338273Y-100761995D01*
X111109465Y-100914880D01*
X111000000Y-101024345D01*
X110890535Y-100914880D01*
X110661727Y-100761995D01*
X110407490Y-100656686D01*
X110137592Y-100603000D01*
X109862408Y-100603000D01*
X109592510Y-100656686D01*
X109338273Y-100761995D01*
X109109465Y-100914880D01*
X109000000Y-101024345D01*
X108890535Y-100914880D01*
X108661727Y-100761995D01*
X108407490Y-100656686D01*
X108137592Y-100603000D01*
X107862408Y-100603000D01*
X107592510Y-100656686D01*
X107338273Y-100761995D01*
X107109465Y-100914880D01*
X107000000Y-101024345D01*
X106890535Y-100914880D01*
X106661727Y-100761995D01*
X106407490Y-100656686D01*
X106137592Y-100603000D01*
X105862408Y-100603000D01*
X105592510Y-100656686D01*
X105338273Y-100761995D01*
X105109465Y-100914880D01*
X104914880Y-101109465D01*
X104761995Y-101338273D01*
X104656686Y-101592510D01*
X104603000Y-101862408D01*
X104603000Y-102137592D01*
X104656686Y-102407490D01*
X104761995Y-102661727D01*
X104914880Y-102890535D01*
X105109465Y-103085120D01*
X105338273Y-103238005D01*
X105592510Y-103343314D01*
X105862408Y-103397000D01*
X106137592Y-103397000D01*
X106407490Y-103343314D01*
X106661727Y-103238005D01*
X106890535Y-103085120D01*
X106987902Y-102987753D01*
X106967134Y-103013059D01*
X106894018Y-103149848D01*
X106848994Y-103298274D01*
X106837600Y-103413958D01*
X106837600Y-103413967D01*
X106833792Y-103452630D01*
X106837600Y-103491293D01*
X106837601Y-107863848D01*
X106663849Y-108037600D01*
X89248665Y-108037600D01*
X89210000Y-108033792D01*
X89171335Y-108037600D01*
X89171327Y-108037600D01*
X89055643Y-108048994D01*
X88907217Y-108094018D01*
X88770428Y-108167134D01*
X88680570Y-108240878D01*
X88680567Y-108240881D01*
X88650531Y-108265531D01*
X88625881Y-108295567D01*
X88496449Y-108425000D01*
X88473061Y-108425000D01*
X88273102Y-108464774D01*
X88084744Y-108542795D01*
X87915226Y-108656063D01*
X87771063Y-108800226D01*
X87657795Y-108969744D01*
X87579774Y-109158102D01*
X87540000Y-109358061D01*
X84630000Y-109358061D01*
X84630000Y-109348212D01*
X84586383Y-109128933D01*
X84500824Y-108922376D01*
X84376612Y-108736480D01*
X84218520Y-108578388D01*
X84032624Y-108454176D01*
X83826067Y-108368617D01*
X83606788Y-108325000D01*
X83383212Y-108325000D01*
X83163933Y-108368617D01*
X82957376Y-108454176D01*
X82877571Y-108507500D01*
X81349539Y-108507500D01*
X80637500Y-107795462D01*
X80637500Y-98012429D01*
X80690824Y-97932624D01*
X80776383Y-97726067D01*
X80820000Y-97506788D01*
X80820000Y-97283212D01*
X80776383Y-97063933D01*
X80690824Y-96857376D01*
X80637500Y-96777571D01*
X80637500Y-91662429D01*
X80690824Y-91582624D01*
X80776383Y-91376067D01*
X80820000Y-91156788D01*
X80820000Y-90933212D01*
X80776383Y-90713933D01*
X80690824Y-90507376D01*
X80566612Y-90321480D01*
X80408520Y-90163388D01*
X80222624Y-90039176D01*
X80016067Y-89953617D01*
X79796788Y-89910000D01*
X79573212Y-89910000D01*
X79353933Y-89953617D01*
X79147376Y-90039176D01*
X78961480Y-90163388D01*
X78803388Y-90321480D01*
X78679176Y-90507376D01*
X78593617Y-90713933D01*
X78550000Y-90933212D01*
X72668200Y-90933212D01*
X72681623Y-90888963D01*
X72700000Y-90702380D01*
X72700000Y-90702374D01*
X72706143Y-90640001D01*
X72700000Y-90577628D01*
X72700000Y-82790000D01*
X75177627Y-82790000D01*
X75240000Y-82796143D01*
X75302373Y-82790000D01*
X75302380Y-82790000D01*
X75488963Y-82771623D01*
X75728359Y-82699003D01*
X75948988Y-82581075D01*
X76142370Y-82422370D01*
X76182141Y-82373909D01*
X78306051Y-80250000D01*
X95668949Y-80250000D01*
X95950000Y-80531051D01*
X95950001Y-81847615D01*
X95950000Y-81847621D01*
X95950000Y-83242380D01*
X95968377Y-83428963D01*
X96040997Y-83668359D01*
X96158926Y-83888988D01*
X96317631Y-84082370D01*
X96511013Y-84241075D01*
X96731642Y-84359003D01*
X96971038Y-84431623D01*
X97220000Y-84456144D01*
X97468963Y-84431623D01*
X97708359Y-84359003D01*
X97928988Y-84241075D01*
X98122370Y-84082370D01*
X98281075Y-83888988D01*
X98399003Y-83668359D01*
X98471623Y-83428963D01*
X98490000Y-83242380D01*
X98490000Y-80965565D01*
X105214040Y-80965565D01*
X105281020Y-81205656D01*
X105530048Y-81322756D01*
X105797135Y-81389023D01*
X106072017Y-81401910D01*
X106344133Y-81360922D01*
X106603023Y-81267636D01*
X106718980Y-81205656D01*
X106785960Y-80965565D01*
X106000000Y-80179605D01*
X105214040Y-80965565D01*
X98490000Y-80965565D01*
X98490000Y-80072017D01*
X104598090Y-80072017D01*
X104639078Y-80344133D01*
X104732364Y-80603023D01*
X104794344Y-80718980D01*
X105034435Y-80785960D01*
X105820395Y-80000000D01*
X106179605Y-80000000D01*
X106705895Y-80526290D01*
X106761995Y-80661727D01*
X106914880Y-80890535D01*
X107109465Y-81085120D01*
X107338273Y-81238005D01*
X107592510Y-81343314D01*
X107862408Y-81397000D01*
X108137592Y-81397000D01*
X108407490Y-81343314D01*
X108661727Y-81238005D01*
X108890535Y-81085120D01*
X109000000Y-80975655D01*
X109109465Y-81085120D01*
X109338273Y-81238005D01*
X109592510Y-81343314D01*
X109862408Y-81397000D01*
X110137592Y-81397000D01*
X110407490Y-81343314D01*
X110661727Y-81238005D01*
X110890535Y-81085120D01*
X111000000Y-80975655D01*
X111109465Y-81085120D01*
X111338273Y-81238005D01*
X111592510Y-81343314D01*
X111862408Y-81397000D01*
X112137592Y-81397000D01*
X112407490Y-81343314D01*
X112661727Y-81238005D01*
X112890535Y-81085120D01*
X113000000Y-80975655D01*
X113109465Y-81085120D01*
X113338273Y-81238005D01*
X113592510Y-81343314D01*
X113862408Y-81397000D01*
X114137592Y-81397000D01*
X114407490Y-81343314D01*
X114661727Y-81238005D01*
X114890535Y-81085120D01*
X115000000Y-80975655D01*
X115109465Y-81085120D01*
X115338273Y-81238005D01*
X115592510Y-81343314D01*
X115862408Y-81397000D01*
X116137592Y-81397000D01*
X116407490Y-81343314D01*
X116661727Y-81238005D01*
X116890535Y-81085120D01*
X117000000Y-80975655D01*
X117109465Y-81085120D01*
X117338273Y-81238005D01*
X117592510Y-81343314D01*
X117862408Y-81397000D01*
X118137592Y-81397000D01*
X118407490Y-81343314D01*
X118661727Y-81238005D01*
X118890535Y-81085120D01*
X119000000Y-80975655D01*
X119109465Y-81085120D01*
X119338273Y-81238005D01*
X119592510Y-81343314D01*
X119862408Y-81397000D01*
X120137592Y-81397000D01*
X120407490Y-81343314D01*
X120661727Y-81238005D01*
X120890535Y-81085120D01*
X121000000Y-80975655D01*
X121109465Y-81085120D01*
X121338273Y-81238005D01*
X121592510Y-81343314D01*
X121862408Y-81397000D01*
X122137592Y-81397000D01*
X122407490Y-81343314D01*
X122661727Y-81238005D01*
X122755670Y-81175234D01*
X122786815Y-81213185D01*
X122883506Y-81292537D01*
X122993820Y-81351502D01*
X123113518Y-81387812D01*
X123238000Y-81400072D01*
X124762000Y-81400072D01*
X124886482Y-81387812D01*
X125006180Y-81351502D01*
X125116494Y-81292537D01*
X125213185Y-81213185D01*
X125292537Y-81116494D01*
X125351502Y-81006180D01*
X125387812Y-80886482D01*
X125400072Y-80762000D01*
X125400072Y-79238000D01*
X125387812Y-79113518D01*
X125351502Y-78993820D01*
X125292537Y-78883506D01*
X125213185Y-78786815D01*
X125116494Y-78707463D01*
X125006180Y-78648498D01*
X124886482Y-78612188D01*
X124762000Y-78599928D01*
X123238000Y-78599928D01*
X123113518Y-78612188D01*
X122993820Y-78648498D01*
X122883506Y-78707463D01*
X122786815Y-78786815D01*
X122755670Y-78824766D01*
X122661727Y-78761995D01*
X122407490Y-78656686D01*
X122137592Y-78603000D01*
X121862408Y-78603000D01*
X121592510Y-78656686D01*
X121338273Y-78761995D01*
X121109465Y-78914880D01*
X121000000Y-79024345D01*
X120890535Y-78914880D01*
X120787400Y-78845967D01*
X120787400Y-77227400D01*
X124728689Y-77227400D01*
X124745226Y-77243937D01*
X124914744Y-77357205D01*
X125103102Y-77435226D01*
X125303061Y-77475000D01*
X125506939Y-77475000D01*
X125706898Y-77435226D01*
X125895256Y-77357205D01*
X126064774Y-77243937D01*
X126208937Y-77099774D01*
X126322205Y-76930256D01*
X126400226Y-76741898D01*
X126440000Y-76541939D01*
X126440000Y-76338061D01*
X126400226Y-76138102D01*
X126322205Y-75949744D01*
X126208937Y-75780226D01*
X126064774Y-75636063D01*
X125895256Y-75522795D01*
X125706898Y-75444774D01*
X125506939Y-75405000D01*
X125303061Y-75405000D01*
X125103102Y-75444774D01*
X124914744Y-75522795D01*
X124745226Y-75636063D01*
X124728689Y-75652600D01*
X120363662Y-75652600D01*
X120324999Y-75648792D01*
X120286336Y-75652600D01*
X120286327Y-75652600D01*
X120170643Y-75663994D01*
X120022217Y-75709018D01*
X119885428Y-75782134D01*
X119765531Y-75880531D01*
X119740876Y-75910573D01*
X119470577Y-76180873D01*
X119440531Y-76205531D01*
X119342134Y-76325429D01*
X119269018Y-76462218D01*
X119223994Y-76610644D01*
X119212600Y-76726328D01*
X119212600Y-76726337D01*
X119208792Y-76765000D01*
X119212600Y-76803663D01*
X119212601Y-78845967D01*
X119109465Y-78914880D01*
X119000000Y-79024345D01*
X118890535Y-78914880D01*
X118661727Y-78761995D01*
X118407490Y-78656686D01*
X118137592Y-78603000D01*
X117862408Y-78603000D01*
X117592510Y-78656686D01*
X117338273Y-78761995D01*
X117109465Y-78914880D01*
X117000000Y-79024345D01*
X116890535Y-78914880D01*
X116661727Y-78761995D01*
X116407490Y-78656686D01*
X116137592Y-78603000D01*
X115862408Y-78603000D01*
X115592510Y-78656686D01*
X115338273Y-78761995D01*
X115109465Y-78914880D01*
X115000000Y-79024345D01*
X114890535Y-78914880D01*
X114661727Y-78761995D01*
X114407490Y-78656686D01*
X114137592Y-78603000D01*
X113862408Y-78603000D01*
X113592510Y-78656686D01*
X113338273Y-78761995D01*
X113109465Y-78914880D01*
X113000000Y-79024345D01*
X112890535Y-78914880D01*
X112661727Y-78761995D01*
X112407490Y-78656686D01*
X112137592Y-78603000D01*
X111862408Y-78603000D01*
X111592510Y-78656686D01*
X111338273Y-78761995D01*
X111109465Y-78914880D01*
X111000000Y-79024345D01*
X110890535Y-78914880D01*
X110661727Y-78761995D01*
X110407490Y-78656686D01*
X110137592Y-78603000D01*
X109862408Y-78603000D01*
X109592510Y-78656686D01*
X109338273Y-78761995D01*
X109109465Y-78914880D01*
X109000000Y-79024345D01*
X108890535Y-78914880D01*
X108661727Y-78761995D01*
X108407490Y-78656686D01*
X108137592Y-78603000D01*
X107862408Y-78603000D01*
X107592510Y-78656686D01*
X107338273Y-78761995D01*
X107109465Y-78914880D01*
X106914880Y-79109465D01*
X106761995Y-79338273D01*
X106705895Y-79473710D01*
X106179605Y-80000000D01*
X105820395Y-80000000D01*
X105034435Y-79214040D01*
X104794344Y-79281020D01*
X104677244Y-79530048D01*
X104610977Y-79797135D01*
X104598090Y-80072017D01*
X98490000Y-80072017D01*
X98490000Y-80067373D01*
X98496143Y-80005000D01*
X98490000Y-79942627D01*
X98490000Y-79942620D01*
X98471623Y-79756037D01*
X98399003Y-79516641D01*
X98281075Y-79296012D01*
X98203171Y-79201086D01*
X98162135Y-79151083D01*
X98162132Y-79151080D01*
X98122370Y-79102630D01*
X98073920Y-79062868D01*
X98045487Y-79034435D01*
X105214040Y-79034435D01*
X106000000Y-79820395D01*
X106785960Y-79034435D01*
X106718980Y-78794344D01*
X106469952Y-78677244D01*
X106202865Y-78610977D01*
X105927983Y-78598090D01*
X105655867Y-78639078D01*
X105396977Y-78732364D01*
X105281020Y-78794344D01*
X105214040Y-79034435D01*
X98045487Y-79034435D01*
X97137140Y-78126090D01*
X97097370Y-78077630D01*
X96903988Y-77918925D01*
X96683359Y-77800997D01*
X96443963Y-77728377D01*
X96257380Y-77710000D01*
X96257373Y-77710000D01*
X96195000Y-77703857D01*
X96132627Y-77710000D01*
X77842372Y-77710000D01*
X77779999Y-77703857D01*
X77717626Y-77710000D01*
X77717620Y-77710000D01*
X77556755Y-77725844D01*
X77531036Y-77728377D01*
X77458416Y-77750406D01*
X77291641Y-77800997D01*
X77071012Y-77918925D01*
X76877630Y-78077630D01*
X76837863Y-78126086D01*
X74713950Y-80250000D01*
X72127380Y-80250000D01*
X72065000Y-80243856D01*
X72002620Y-80250000D01*
X71816037Y-80268377D01*
X71576641Y-80340997D01*
X71356012Y-80458925D01*
X71162630Y-80617630D01*
X71122865Y-80666084D01*
X70576086Y-81212864D01*
X70527631Y-81252630D01*
X70368926Y-81446012D01*
X70329379Y-81520000D01*
X70250998Y-81666641D01*
X70178377Y-81906037D01*
X70153857Y-82155000D01*
X70160001Y-82217383D01*
X70160000Y-90113949D01*
X69543950Y-90730000D01*
X69228259Y-90730000D01*
X69154494Y-90669463D01*
X69044180Y-90610498D01*
X68948057Y-90581339D01*
X69114637Y-90414759D01*
X69271680Y-90179727D01*
X69379853Y-89918574D01*
X69435000Y-89641335D01*
X69435000Y-89358665D01*
X69379853Y-89081426D01*
X69271680Y-88820273D01*
X69114637Y-88585241D01*
X68914759Y-88385363D01*
X68679727Y-88228320D01*
X68418574Y-88120147D01*
X68141335Y-88065000D01*
X67858665Y-88065000D01*
X67581426Y-88120147D01*
X67320273Y-88228320D01*
X67085241Y-88385363D01*
X67000000Y-88470604D01*
X66914759Y-88385363D01*
X66679727Y-88228320D01*
X66418574Y-88120147D01*
X66141335Y-88065000D01*
X65858665Y-88065000D01*
X65581426Y-88120147D01*
X65320273Y-88228320D01*
X65085241Y-88385363D01*
X64885363Y-88585241D01*
X64800265Y-88712600D01*
X64758662Y-88712600D01*
X64719999Y-88708792D01*
X64681336Y-88712600D01*
X64681327Y-88712600D01*
X64565643Y-88723994D01*
X64417217Y-88769018D01*
X64280428Y-88842134D01*
X64280426Y-88842135D01*
X64280427Y-88842135D01*
X64190569Y-88915879D01*
X64190567Y-88915881D01*
X64160531Y-88940531D01*
X64135881Y-88970567D01*
X63280573Y-89825877D01*
X63250532Y-89850531D01*
X63225879Y-89880571D01*
X63152135Y-89970428D01*
X63079018Y-90107218D01*
X63033995Y-90255643D01*
X63018792Y-90410000D01*
X63022601Y-90448673D01*
X63022600Y-93546337D01*
X63018792Y-93585000D01*
X63022600Y-93623663D01*
X63022600Y-93623672D01*
X63033994Y-93739356D01*
X63079018Y-93887782D01*
X63152134Y-94024571D01*
X63223837Y-94111942D01*
X63116929Y-94102352D01*
X62600841Y-94157727D01*
X62105474Y-94312721D01*
X61688228Y-94535742D01*
X61472106Y-94902501D01*
X60660000Y-94902501D01*
X60660000Y-86597499D01*
X61472106Y-86597499D01*
X61688228Y-86964258D01*
X62148105Y-87204938D01*
X62646098Y-87351275D01*
X63163071Y-87397648D01*
X63679159Y-87342273D01*
X64174526Y-87187279D01*
X64591772Y-86964258D01*
X64807894Y-86597499D01*
X63140000Y-84929605D01*
X61472106Y-86597499D01*
X60660000Y-86597499D01*
X60660000Y-85647988D01*
X60702721Y-85784526D01*
X60925742Y-86201772D01*
X61292501Y-86417894D01*
X62960395Y-84750000D01*
X63319605Y-84750000D01*
X64987499Y-86417894D01*
X65354258Y-86201772D01*
X65594938Y-85741895D01*
X65741275Y-85243902D01*
X65787648Y-84726929D01*
X65732273Y-84210841D01*
X65577279Y-83715474D01*
X65354258Y-83298228D01*
X64987499Y-83082106D01*
X63319605Y-84750000D01*
X62960395Y-84750000D01*
X61292501Y-83082106D01*
X60925742Y-83298228D01*
X60685062Y-83758105D01*
X60660000Y-83843392D01*
X60660000Y-82902501D01*
X61472106Y-82902501D01*
X63140000Y-84570395D01*
X64807894Y-82902501D01*
X64591772Y-82535742D01*
X64131895Y-82295062D01*
X63633902Y-82148725D01*
X63116929Y-82102352D01*
X62600841Y-82157727D01*
X62105474Y-82312721D01*
X61688228Y-82535742D01*
X61472106Y-82902501D01*
X60660000Y-82902501D01*
X60660000Y-70660000D01*
X133340000Y-70660000D01*
X133340000Y-82028000D01*
G37*
X133340000Y-82028000D02*
X104450000Y-82028000D01*
X104425224Y-82030440D01*
X104401399Y-82037667D01*
X104379443Y-82049403D01*
X104360197Y-82065197D01*
X104344403Y-82084443D01*
X104332667Y-82106399D01*
X104325440Y-82130224D01*
X104323000Y-82155000D01*
X104323000Y-99935000D01*
X104325440Y-99959776D01*
X104332667Y-99983601D01*
X104344403Y-100005557D01*
X104360197Y-100024803D01*
X104379443Y-100040597D01*
X104401399Y-100052333D01*
X104425224Y-100059560D01*
X104450000Y-100062000D01*
X133340001Y-100062000D01*
X133340001Y-111340000D01*
X60660000Y-111340000D01*
X60660000Y-98597499D01*
X61472106Y-98597499D01*
X61688228Y-98964258D01*
X62148105Y-99204938D01*
X62646098Y-99351275D01*
X63163071Y-99397648D01*
X63679159Y-99342273D01*
X64174526Y-99187279D01*
X64591772Y-98964258D01*
X64807894Y-98597499D01*
X63140000Y-96929605D01*
X61472106Y-98597499D01*
X60660000Y-98597499D01*
X60660000Y-97647988D01*
X60702721Y-97784526D01*
X60925742Y-98201772D01*
X61292501Y-98417894D01*
X62960395Y-96750000D01*
X61292501Y-95082106D01*
X60925742Y-95298228D01*
X60685062Y-95758105D01*
X60660000Y-95843392D01*
X60660000Y-94902501D01*
X61472106Y-94902501D01*
X63140000Y-96570395D01*
X63154143Y-96556253D01*
X63333748Y-96735858D01*
X63319605Y-96750000D01*
X64987499Y-98417894D01*
X65354258Y-98201772D01*
X65594938Y-97741895D01*
X65741275Y-97243902D01*
X65787648Y-96726929D01*
X65732273Y-96210841D01*
X65577279Y-95715474D01*
X65354258Y-95298228D01*
X64987501Y-95082107D01*
X65062208Y-95007400D01*
X70121337Y-95007400D01*
X70160000Y-95011208D01*
X70198663Y-95007400D01*
X70198673Y-95007400D01*
X70314357Y-94996006D01*
X70462783Y-94950982D01*
X70599572Y-94877866D01*
X70719469Y-94779469D01*
X70744127Y-94749423D01*
X71756152Y-93737400D01*
X72023689Y-93737400D01*
X72040226Y-93753937D01*
X72209744Y-93867205D01*
X72398102Y-93945226D01*
X72598061Y-93985000D01*
X72801939Y-93985000D01*
X73001898Y-93945226D01*
X73190256Y-93867205D01*
X73359774Y-93753937D01*
X73503937Y-93609774D01*
X73617205Y-93440256D01*
X73695226Y-93251898D01*
X73735000Y-93051939D01*
X73735000Y-92848061D01*
X76110000Y-92848061D01*
X76110000Y-93051939D01*
X76149774Y-93251898D01*
X76227795Y-93440256D01*
X76341063Y-93609774D01*
X76357601Y-93626312D01*
X76357600Y-96718689D01*
X76341063Y-96735226D01*
X76227795Y-96904744D01*
X76149774Y-97093102D01*
X76110000Y-97293061D01*
X76110000Y-97496939D01*
X76149774Y-97696898D01*
X76227795Y-97885256D01*
X76341063Y-98054774D01*
X76485226Y-98198937D01*
X76654744Y-98312205D01*
X76843102Y-98390226D01*
X77043061Y-98430000D01*
X77246939Y-98430000D01*
X77446898Y-98390226D01*
X77635256Y-98312205D01*
X77804774Y-98198937D01*
X77948937Y-98054774D01*
X78062205Y-97885256D01*
X78140226Y-97696898D01*
X78180000Y-97496939D01*
X78180000Y-97293061D01*
X78140226Y-97093102D01*
X78062205Y-96904744D01*
X77948937Y-96735226D01*
X77932400Y-96718689D01*
X77932400Y-93626311D01*
X77948937Y-93609774D01*
X78062205Y-93440256D01*
X78140226Y-93251898D01*
X78180000Y-93051939D01*
X78180000Y-92848061D01*
X78140226Y-92648102D01*
X78062205Y-92459744D01*
X77948937Y-92290226D01*
X77804774Y-92146063D01*
X77635256Y-92032795D01*
X77446898Y-91954774D01*
X77246939Y-91915000D01*
X77043061Y-91915000D01*
X76843102Y-91954774D01*
X76654744Y-92032795D01*
X76485226Y-92146063D01*
X76341063Y-92290226D01*
X76227795Y-92459744D01*
X76149774Y-92648102D01*
X76110000Y-92848061D01*
X73735000Y-92848061D01*
X73695226Y-92648102D01*
X73617205Y-92459744D01*
X73503937Y-92290226D01*
X73359774Y-92146063D01*
X73190256Y-92032795D01*
X73001898Y-91954774D01*
X72801939Y-91915000D01*
X72598061Y-91915000D01*
X72398102Y-91954774D01*
X72209744Y-92032795D01*
X72040226Y-92146063D01*
X72023689Y-92162600D01*
X71703451Y-92162600D01*
X72283915Y-91582136D01*
X72332370Y-91542370D01*
X72491075Y-91348988D01*
X72609003Y-91128359D01*
X72668200Y-90933212D01*
X78550000Y-90933212D01*
X78550000Y-91156788D01*
X78593617Y-91376067D01*
X78679176Y-91582624D01*
X78732500Y-91662429D01*
X78732500Y-96777571D01*
X78679176Y-96857376D01*
X78593617Y-97063933D01*
X78550000Y-97283212D01*
X78550000Y-97506788D01*
X78593617Y-97726067D01*
X78679176Y-97932624D01*
X78732500Y-98012429D01*
X78732501Y-108143205D01*
X78727892Y-108190000D01*
X78746283Y-108376722D01*
X78800749Y-108556269D01*
X78887960Y-108719430D01*
X78889195Y-108721741D01*
X79008223Y-108866778D01*
X79044564Y-108896602D01*
X80248397Y-110100436D01*
X80278222Y-110136778D01*
X80423259Y-110255806D01*
X80588731Y-110344252D01*
X80768277Y-110398717D01*
X80954999Y-110417108D01*
X81001784Y-110412500D01*
X82877571Y-110412500D01*
X82957376Y-110465824D01*
X83163933Y-110551383D01*
X83383212Y-110595000D01*
X83606788Y-110595000D01*
X83826067Y-110551383D01*
X84032624Y-110465824D01*
X84218520Y-110341612D01*
X84376612Y-110183520D01*
X84500824Y-109997624D01*
X84586383Y-109791067D01*
X84630000Y-109571788D01*
X84630000Y-109358061D01*
X87540000Y-109358061D01*
X87540000Y-109561939D01*
X87579774Y-109761898D01*
X87657795Y-109950256D01*
X87771063Y-110119774D01*
X87915226Y-110263937D01*
X88084744Y-110377205D01*
X88273102Y-110455226D01*
X88473061Y-110495000D01*
X88676939Y-110495000D01*
X88876898Y-110455226D01*
X89065256Y-110377205D01*
X89234774Y-110263937D01*
X89378937Y-110119774D01*
X89492205Y-109950256D01*
X89570226Y-109761898D01*
X89599963Y-109612400D01*
X106951337Y-109612400D01*
X106990000Y-109616208D01*
X107028663Y-109612400D01*
X107028673Y-109612400D01*
X107144357Y-109601006D01*
X107292783Y-109555982D01*
X107429572Y-109482866D01*
X107549469Y-109384469D01*
X107574127Y-109354423D01*
X108154433Y-108774119D01*
X108184469Y-108749469D01*
X108209119Y-108719433D01*
X108209122Y-108719430D01*
X108282866Y-108629572D01*
X108355982Y-108492783D01*
X108401006Y-108344357D01*
X108412400Y-108228673D01*
X108412400Y-108228665D01*
X108416208Y-108190000D01*
X108412400Y-108151335D01*
X108412400Y-103778780D01*
X108529422Y-103661758D01*
X108559469Y-103637099D01*
X108657866Y-103517202D01*
X108730982Y-103380413D01*
X108776006Y-103231987D01*
X108783422Y-103156691D01*
X108890535Y-103085120D01*
X109000000Y-102975655D01*
X109109465Y-103085120D01*
X109338273Y-103238005D01*
X109592510Y-103343314D01*
X109862408Y-103397000D01*
X110137592Y-103397000D01*
X110407490Y-103343314D01*
X110661727Y-103238005D01*
X110890535Y-103085120D01*
X111000000Y-102975655D01*
X111109465Y-103085120D01*
X111338273Y-103238005D01*
X111592510Y-103343314D01*
X111862408Y-103397000D01*
X112137592Y-103397000D01*
X112407490Y-103343314D01*
X112661727Y-103238005D01*
X112890535Y-103085120D01*
X113000000Y-102975655D01*
X113109465Y-103085120D01*
X113338273Y-103238005D01*
X113592510Y-103343314D01*
X113862408Y-103397000D01*
X114137592Y-103397000D01*
X114407490Y-103343314D01*
X114661727Y-103238005D01*
X114890535Y-103085120D01*
X115000000Y-102975655D01*
X115109465Y-103085120D01*
X115338273Y-103238005D01*
X115592510Y-103343314D01*
X115862408Y-103397000D01*
X116137592Y-103397000D01*
X116407490Y-103343314D01*
X116661727Y-103238005D01*
X116890535Y-103085120D01*
X117000000Y-102975655D01*
X117109465Y-103085120D01*
X117338273Y-103238005D01*
X117592510Y-103343314D01*
X117862408Y-103397000D01*
X118137592Y-103397000D01*
X118407490Y-103343314D01*
X118661727Y-103238005D01*
X118890535Y-103085120D01*
X119000000Y-102975655D01*
X119109465Y-103085120D01*
X119338273Y-103238005D01*
X119592510Y-103343314D01*
X119862408Y-103397000D01*
X120137592Y-103397000D01*
X120407490Y-103343314D01*
X120661727Y-103238005D01*
X120890535Y-103085120D01*
X121000000Y-102975655D01*
X121109465Y-103085120D01*
X121338273Y-103238005D01*
X121592510Y-103343314D01*
X121862408Y-103397000D01*
X122137592Y-103397000D01*
X122407490Y-103343314D01*
X122661727Y-103238005D01*
X122890535Y-103085120D01*
X123000000Y-102975655D01*
X123109465Y-103085120D01*
X123338273Y-103238005D01*
X123592510Y-103343314D01*
X123862408Y-103397000D01*
X124137592Y-103397000D01*
X124407490Y-103343314D01*
X124661727Y-103238005D01*
X124890535Y-103085120D01*
X125085120Y-102890535D01*
X125238005Y-102661727D01*
X125343314Y-102407490D01*
X125397000Y-102137592D01*
X125397000Y-101862408D01*
X125343314Y-101592510D01*
X125238005Y-101338273D01*
X125085120Y-101109465D01*
X124890535Y-100914880D01*
X124661727Y-100761995D01*
X124407490Y-100656686D01*
X124137592Y-100603000D01*
X123862408Y-100603000D01*
X123592510Y-100656686D01*
X123338273Y-100761995D01*
X123109465Y-100914880D01*
X123000000Y-101024345D01*
X122890535Y-100914880D01*
X122661727Y-100761995D01*
X122407490Y-100656686D01*
X122137592Y-100603000D01*
X121862408Y-100603000D01*
X121592510Y-100656686D01*
X121338273Y-100761995D01*
X121109465Y-100914880D01*
X121000000Y-101024345D01*
X120890535Y-100914880D01*
X120661727Y-100761995D01*
X120407490Y-100656686D01*
X120137592Y-100603000D01*
X119862408Y-100603000D01*
X119592510Y-100656686D01*
X119338273Y-100761995D01*
X119109465Y-100914880D01*
X119000000Y-101024345D01*
X118890535Y-100914880D01*
X118661727Y-100761995D01*
X118407490Y-100656686D01*
X118137592Y-100603000D01*
X117862408Y-100603000D01*
X117592510Y-100656686D01*
X117338273Y-100761995D01*
X117109465Y-100914880D01*
X117000000Y-101024345D01*
X116890535Y-100914880D01*
X116661727Y-100761995D01*
X116407490Y-100656686D01*
X116137592Y-100603000D01*
X115862408Y-100603000D01*
X115592510Y-100656686D01*
X115338273Y-100761995D01*
X115109465Y-100914880D01*
X115000000Y-101024345D01*
X114890535Y-100914880D01*
X114661727Y-100761995D01*
X114407490Y-100656686D01*
X114137592Y-100603000D01*
X113862408Y-100603000D01*
X113592510Y-100656686D01*
X113338273Y-100761995D01*
X113109465Y-100914880D01*
X113000000Y-101024345D01*
X112890535Y-100914880D01*
X112661727Y-100761995D01*
X112407490Y-100656686D01*
X112137592Y-100603000D01*
X111862408Y-100603000D01*
X111592510Y-100656686D01*
X111338273Y-100761995D01*
X111109465Y-100914880D01*
X111000000Y-101024345D01*
X110890535Y-100914880D01*
X110661727Y-100761995D01*
X110407490Y-100656686D01*
X110137592Y-100603000D01*
X109862408Y-100603000D01*
X109592510Y-100656686D01*
X109338273Y-100761995D01*
X109109465Y-100914880D01*
X109000000Y-101024345D01*
X108890535Y-100914880D01*
X108661727Y-100761995D01*
X108407490Y-100656686D01*
X108137592Y-100603000D01*
X107862408Y-100603000D01*
X107592510Y-100656686D01*
X107338273Y-100761995D01*
X107109465Y-100914880D01*
X107000000Y-101024345D01*
X106890535Y-100914880D01*
X106661727Y-100761995D01*
X106407490Y-100656686D01*
X106137592Y-100603000D01*
X105862408Y-100603000D01*
X105592510Y-100656686D01*
X105338273Y-100761995D01*
X105109465Y-100914880D01*
X104914880Y-101109465D01*
X104761995Y-101338273D01*
X104656686Y-101592510D01*
X104603000Y-101862408D01*
X104603000Y-102137592D01*
X104656686Y-102407490D01*
X104761995Y-102661727D01*
X104914880Y-102890535D01*
X105109465Y-103085120D01*
X105338273Y-103238005D01*
X105592510Y-103343314D01*
X105862408Y-103397000D01*
X106137592Y-103397000D01*
X106407490Y-103343314D01*
X106661727Y-103238005D01*
X106890535Y-103085120D01*
X106987902Y-102987753D01*
X106967134Y-103013059D01*
X106894018Y-103149848D01*
X106848994Y-103298274D01*
X106837600Y-103413958D01*
X106837600Y-103413967D01*
X106833792Y-103452630D01*
X106837600Y-103491293D01*
X106837601Y-107863848D01*
X106663849Y-108037600D01*
X89248665Y-108037600D01*
X89210000Y-108033792D01*
X89171335Y-108037600D01*
X89171327Y-108037600D01*
X89055643Y-108048994D01*
X88907217Y-108094018D01*
X88770428Y-108167134D01*
X88680570Y-108240878D01*
X88680567Y-108240881D01*
X88650531Y-108265531D01*
X88625881Y-108295567D01*
X88496449Y-108425000D01*
X88473061Y-108425000D01*
X88273102Y-108464774D01*
X88084744Y-108542795D01*
X87915226Y-108656063D01*
X87771063Y-108800226D01*
X87657795Y-108969744D01*
X87579774Y-109158102D01*
X87540000Y-109358061D01*
X84630000Y-109358061D01*
X84630000Y-109348212D01*
X84586383Y-109128933D01*
X84500824Y-108922376D01*
X84376612Y-108736480D01*
X84218520Y-108578388D01*
X84032624Y-108454176D01*
X83826067Y-108368617D01*
X83606788Y-108325000D01*
X83383212Y-108325000D01*
X83163933Y-108368617D01*
X82957376Y-108454176D01*
X82877571Y-108507500D01*
X81349539Y-108507500D01*
X80637500Y-107795462D01*
X80637500Y-98012429D01*
X80690824Y-97932624D01*
X80776383Y-97726067D01*
X80820000Y-97506788D01*
X80820000Y-97283212D01*
X80776383Y-97063933D01*
X80690824Y-96857376D01*
X80637500Y-96777571D01*
X80637500Y-91662429D01*
X80690824Y-91582624D01*
X80776383Y-91376067D01*
X80820000Y-91156788D01*
X80820000Y-90933212D01*
X80776383Y-90713933D01*
X80690824Y-90507376D01*
X80566612Y-90321480D01*
X80408520Y-90163388D01*
X80222624Y-90039176D01*
X80016067Y-89953617D01*
X79796788Y-89910000D01*
X79573212Y-89910000D01*
X79353933Y-89953617D01*
X79147376Y-90039176D01*
X78961480Y-90163388D01*
X78803388Y-90321480D01*
X78679176Y-90507376D01*
X78593617Y-90713933D01*
X78550000Y-90933212D01*
X72668200Y-90933212D01*
X72681623Y-90888963D01*
X72700000Y-90702380D01*
X72700000Y-90702374D01*
X72706143Y-90640001D01*
X72700000Y-90577628D01*
X72700000Y-82790000D01*
X75177627Y-82790000D01*
X75240000Y-82796143D01*
X75302373Y-82790000D01*
X75302380Y-82790000D01*
X75488963Y-82771623D01*
X75728359Y-82699003D01*
X75948988Y-82581075D01*
X76142370Y-82422370D01*
X76182141Y-82373909D01*
X78306051Y-80250000D01*
X95668949Y-80250000D01*
X95950000Y-80531051D01*
X95950001Y-81847615D01*
X95950000Y-81847621D01*
X95950000Y-83242380D01*
X95968377Y-83428963D01*
X96040997Y-83668359D01*
X96158926Y-83888988D01*
X96317631Y-84082370D01*
X96511013Y-84241075D01*
X96731642Y-84359003D01*
X96971038Y-84431623D01*
X97220000Y-84456144D01*
X97468963Y-84431623D01*
X97708359Y-84359003D01*
X97928988Y-84241075D01*
X98122370Y-84082370D01*
X98281075Y-83888988D01*
X98399003Y-83668359D01*
X98471623Y-83428963D01*
X98490000Y-83242380D01*
X98490000Y-80965565D01*
X105214040Y-80965565D01*
X105281020Y-81205656D01*
X105530048Y-81322756D01*
X105797135Y-81389023D01*
X106072017Y-81401910D01*
X106344133Y-81360922D01*
X106603023Y-81267636D01*
X106718980Y-81205656D01*
X106785960Y-80965565D01*
X106000000Y-80179605D01*
X105214040Y-80965565D01*
X98490000Y-80965565D01*
X98490000Y-80072017D01*
X104598090Y-80072017D01*
X104639078Y-80344133D01*
X104732364Y-80603023D01*
X104794344Y-80718980D01*
X105034435Y-80785960D01*
X105820395Y-80000000D01*
X106179605Y-80000000D01*
X106705895Y-80526290D01*
X106761995Y-80661727D01*
X106914880Y-80890535D01*
X107109465Y-81085120D01*
X107338273Y-81238005D01*
X107592510Y-81343314D01*
X107862408Y-81397000D01*
X108137592Y-81397000D01*
X108407490Y-81343314D01*
X108661727Y-81238005D01*
X108890535Y-81085120D01*
X109000000Y-80975655D01*
X109109465Y-81085120D01*
X109338273Y-81238005D01*
X109592510Y-81343314D01*
X109862408Y-81397000D01*
X110137592Y-81397000D01*
X110407490Y-81343314D01*
X110661727Y-81238005D01*
X110890535Y-81085120D01*
X111000000Y-80975655D01*
X111109465Y-81085120D01*
X111338273Y-81238005D01*
X111592510Y-81343314D01*
X111862408Y-81397000D01*
X112137592Y-81397000D01*
X112407490Y-81343314D01*
X112661727Y-81238005D01*
X112890535Y-81085120D01*
X113000000Y-80975655D01*
X113109465Y-81085120D01*
X113338273Y-81238005D01*
X113592510Y-81343314D01*
X113862408Y-81397000D01*
X114137592Y-81397000D01*
X114407490Y-81343314D01*
X114661727Y-81238005D01*
X114890535Y-81085120D01*
X115000000Y-80975655D01*
X115109465Y-81085120D01*
X115338273Y-81238005D01*
X115592510Y-81343314D01*
X115862408Y-81397000D01*
X116137592Y-81397000D01*
X116407490Y-81343314D01*
X116661727Y-81238005D01*
X116890535Y-81085120D01*
X117000000Y-80975655D01*
X117109465Y-81085120D01*
X117338273Y-81238005D01*
X117592510Y-81343314D01*
X117862408Y-81397000D01*
X118137592Y-81397000D01*
X118407490Y-81343314D01*
X118661727Y-81238005D01*
X118890535Y-81085120D01*
X119000000Y-80975655D01*
X119109465Y-81085120D01*
X119338273Y-81238005D01*
X119592510Y-81343314D01*
X119862408Y-81397000D01*
X120137592Y-81397000D01*
X120407490Y-81343314D01*
X120661727Y-81238005D01*
X120890535Y-81085120D01*
X121000000Y-80975655D01*
X121109465Y-81085120D01*
X121338273Y-81238005D01*
X121592510Y-81343314D01*
X121862408Y-81397000D01*
X122137592Y-81397000D01*
X122407490Y-81343314D01*
X122661727Y-81238005D01*
X122755670Y-81175234D01*
X122786815Y-81213185D01*
X122883506Y-81292537D01*
X122993820Y-81351502D01*
X123113518Y-81387812D01*
X123238000Y-81400072D01*
X124762000Y-81400072D01*
X124886482Y-81387812D01*
X125006180Y-81351502D01*
X125116494Y-81292537D01*
X125213185Y-81213185D01*
X125292537Y-81116494D01*
X125351502Y-81006180D01*
X125387812Y-80886482D01*
X125400072Y-80762000D01*
X125400072Y-79238000D01*
X125387812Y-79113518D01*
X125351502Y-78993820D01*
X125292537Y-78883506D01*
X125213185Y-78786815D01*
X125116494Y-78707463D01*
X125006180Y-78648498D01*
X124886482Y-78612188D01*
X124762000Y-78599928D01*
X123238000Y-78599928D01*
X123113518Y-78612188D01*
X122993820Y-78648498D01*
X122883506Y-78707463D01*
X122786815Y-78786815D01*
X122755670Y-78824766D01*
X122661727Y-78761995D01*
X122407490Y-78656686D01*
X122137592Y-78603000D01*
X121862408Y-78603000D01*
X121592510Y-78656686D01*
X121338273Y-78761995D01*
X121109465Y-78914880D01*
X121000000Y-79024345D01*
X120890535Y-78914880D01*
X120787400Y-78845967D01*
X120787400Y-77227400D01*
X124728689Y-77227400D01*
X124745226Y-77243937D01*
X124914744Y-77357205D01*
X125103102Y-77435226D01*
X125303061Y-77475000D01*
X125506939Y-77475000D01*
X125706898Y-77435226D01*
X125895256Y-77357205D01*
X126064774Y-77243937D01*
X126208937Y-77099774D01*
X126322205Y-76930256D01*
X126400226Y-76741898D01*
X126440000Y-76541939D01*
X126440000Y-76338061D01*
X126400226Y-76138102D01*
X126322205Y-75949744D01*
X126208937Y-75780226D01*
X126064774Y-75636063D01*
X125895256Y-75522795D01*
X125706898Y-75444774D01*
X125506939Y-75405000D01*
X125303061Y-75405000D01*
X125103102Y-75444774D01*
X124914744Y-75522795D01*
X124745226Y-75636063D01*
X124728689Y-75652600D01*
X120363662Y-75652600D01*
X120324999Y-75648792D01*
X120286336Y-75652600D01*
X120286327Y-75652600D01*
X120170643Y-75663994D01*
X120022217Y-75709018D01*
X119885428Y-75782134D01*
X119765531Y-75880531D01*
X119740876Y-75910573D01*
X119470577Y-76180873D01*
X119440531Y-76205531D01*
X119342134Y-76325429D01*
X119269018Y-76462218D01*
X119223994Y-76610644D01*
X119212600Y-76726328D01*
X119212600Y-76726337D01*
X119208792Y-76765000D01*
X119212600Y-76803663D01*
X119212601Y-78845967D01*
X119109465Y-78914880D01*
X119000000Y-79024345D01*
X118890535Y-78914880D01*
X118661727Y-78761995D01*
X118407490Y-78656686D01*
X118137592Y-78603000D01*
X117862408Y-78603000D01*
X117592510Y-78656686D01*
X117338273Y-78761995D01*
X117109465Y-78914880D01*
X117000000Y-79024345D01*
X116890535Y-78914880D01*
X116661727Y-78761995D01*
X116407490Y-78656686D01*
X116137592Y-78603000D01*
X115862408Y-78603000D01*
X115592510Y-78656686D01*
X115338273Y-78761995D01*
X115109465Y-78914880D01*
X115000000Y-79024345D01*
X114890535Y-78914880D01*
X114661727Y-78761995D01*
X114407490Y-78656686D01*
X114137592Y-78603000D01*
X113862408Y-78603000D01*
X113592510Y-78656686D01*
X113338273Y-78761995D01*
X113109465Y-78914880D01*
X113000000Y-79024345D01*
X112890535Y-78914880D01*
X112661727Y-78761995D01*
X112407490Y-78656686D01*
X112137592Y-78603000D01*
X111862408Y-78603000D01*
X111592510Y-78656686D01*
X111338273Y-78761995D01*
X111109465Y-78914880D01*
X111000000Y-79024345D01*
X110890535Y-78914880D01*
X110661727Y-78761995D01*
X110407490Y-78656686D01*
X110137592Y-78603000D01*
X109862408Y-78603000D01*
X109592510Y-78656686D01*
X109338273Y-78761995D01*
X109109465Y-78914880D01*
X109000000Y-79024345D01*
X108890535Y-78914880D01*
X108661727Y-78761995D01*
X108407490Y-78656686D01*
X108137592Y-78603000D01*
X107862408Y-78603000D01*
X107592510Y-78656686D01*
X107338273Y-78761995D01*
X107109465Y-78914880D01*
X106914880Y-79109465D01*
X106761995Y-79338273D01*
X106705895Y-79473710D01*
X106179605Y-80000000D01*
X105820395Y-80000000D01*
X105034435Y-79214040D01*
X104794344Y-79281020D01*
X104677244Y-79530048D01*
X104610977Y-79797135D01*
X104598090Y-80072017D01*
X98490000Y-80072017D01*
X98490000Y-80067373D01*
X98496143Y-80005000D01*
X98490000Y-79942627D01*
X98490000Y-79942620D01*
X98471623Y-79756037D01*
X98399003Y-79516641D01*
X98281075Y-79296012D01*
X98203171Y-79201086D01*
X98162135Y-79151083D01*
X98162132Y-79151080D01*
X98122370Y-79102630D01*
X98073920Y-79062868D01*
X98045487Y-79034435D01*
X105214040Y-79034435D01*
X106000000Y-79820395D01*
X106785960Y-79034435D01*
X106718980Y-78794344D01*
X106469952Y-78677244D01*
X106202865Y-78610977D01*
X105927983Y-78598090D01*
X105655867Y-78639078D01*
X105396977Y-78732364D01*
X105281020Y-78794344D01*
X105214040Y-79034435D01*
X98045487Y-79034435D01*
X97137140Y-78126090D01*
X97097370Y-78077630D01*
X96903988Y-77918925D01*
X96683359Y-77800997D01*
X96443963Y-77728377D01*
X96257380Y-77710000D01*
X96257373Y-77710000D01*
X96195000Y-77703857D01*
X96132627Y-77710000D01*
X77842372Y-77710000D01*
X77779999Y-77703857D01*
X77717626Y-77710000D01*
X77717620Y-77710000D01*
X77556755Y-77725844D01*
X77531036Y-77728377D01*
X77458416Y-77750406D01*
X77291641Y-77800997D01*
X77071012Y-77918925D01*
X76877630Y-78077630D01*
X76837863Y-78126086D01*
X74713950Y-80250000D01*
X72127380Y-80250000D01*
X72065000Y-80243856D01*
X72002620Y-80250000D01*
X71816037Y-80268377D01*
X71576641Y-80340997D01*
X71356012Y-80458925D01*
X71162630Y-80617630D01*
X71122865Y-80666084D01*
X70576086Y-81212864D01*
X70527631Y-81252630D01*
X70368926Y-81446012D01*
X70329379Y-81520000D01*
X70250998Y-81666641D01*
X70178377Y-81906037D01*
X70153857Y-82155000D01*
X70160001Y-82217383D01*
X70160000Y-90113949D01*
X69543950Y-90730000D01*
X69228259Y-90730000D01*
X69154494Y-90669463D01*
X69044180Y-90610498D01*
X68948057Y-90581339D01*
X69114637Y-90414759D01*
X69271680Y-90179727D01*
X69379853Y-89918574D01*
X69435000Y-89641335D01*
X69435000Y-89358665D01*
X69379853Y-89081426D01*
X69271680Y-88820273D01*
X69114637Y-88585241D01*
X68914759Y-88385363D01*
X68679727Y-88228320D01*
X68418574Y-88120147D01*
X68141335Y-88065000D01*
X67858665Y-88065000D01*
X67581426Y-88120147D01*
X67320273Y-88228320D01*
X67085241Y-88385363D01*
X67000000Y-88470604D01*
X66914759Y-88385363D01*
X66679727Y-88228320D01*
X66418574Y-88120147D01*
X66141335Y-88065000D01*
X65858665Y-88065000D01*
X65581426Y-88120147D01*
X65320273Y-88228320D01*
X65085241Y-88385363D01*
X64885363Y-88585241D01*
X64800265Y-88712600D01*
X64758662Y-88712600D01*
X64719999Y-88708792D01*
X64681336Y-88712600D01*
X64681327Y-88712600D01*
X64565643Y-88723994D01*
X64417217Y-88769018D01*
X64280428Y-88842134D01*
X64280426Y-88842135D01*
X64280427Y-88842135D01*
X64190569Y-88915879D01*
X64190567Y-88915881D01*
X64160531Y-88940531D01*
X64135881Y-88970567D01*
X63280573Y-89825877D01*
X63250532Y-89850531D01*
X63225879Y-89880571D01*
X63152135Y-89970428D01*
X63079018Y-90107218D01*
X63033995Y-90255643D01*
X63018792Y-90410000D01*
X63022601Y-90448673D01*
X63022600Y-93546337D01*
X63018792Y-93585000D01*
X63022600Y-93623663D01*
X63022600Y-93623672D01*
X63033994Y-93739356D01*
X63079018Y-93887782D01*
X63152134Y-94024571D01*
X63223837Y-94111942D01*
X63116929Y-94102352D01*
X62600841Y-94157727D01*
X62105474Y-94312721D01*
X61688228Y-94535742D01*
X61472106Y-94902501D01*
X60660000Y-94902501D01*
X60660000Y-86597499D01*
X61472106Y-86597499D01*
X61688228Y-86964258D01*
X62148105Y-87204938D01*
X62646098Y-87351275D01*
X63163071Y-87397648D01*
X63679159Y-87342273D01*
X64174526Y-87187279D01*
X64591772Y-86964258D01*
X64807894Y-86597499D01*
X63140000Y-84929605D01*
X61472106Y-86597499D01*
X60660000Y-86597499D01*
X60660000Y-85647988D01*
X60702721Y-85784526D01*
X60925742Y-86201772D01*
X61292501Y-86417894D01*
X62960395Y-84750000D01*
X63319605Y-84750000D01*
X64987499Y-86417894D01*
X65354258Y-86201772D01*
X65594938Y-85741895D01*
X65741275Y-85243902D01*
X65787648Y-84726929D01*
X65732273Y-84210841D01*
X65577279Y-83715474D01*
X65354258Y-83298228D01*
X64987499Y-83082106D01*
X63319605Y-84750000D01*
X62960395Y-84750000D01*
X61292501Y-83082106D01*
X60925742Y-83298228D01*
X60685062Y-83758105D01*
X60660000Y-83843392D01*
X60660000Y-82902501D01*
X61472106Y-82902501D01*
X63140000Y-84570395D01*
X64807894Y-82902501D01*
X64591772Y-82535742D01*
X64131895Y-82295062D01*
X63633902Y-82148725D01*
X63116929Y-82102352D01*
X62600841Y-82157727D01*
X62105474Y-82312721D01*
X61688228Y-82535742D01*
X61472106Y-82902501D01*
X60660000Y-82902501D01*
X60660000Y-70660000D01*
X133340000Y-70660000D01*
X133340000Y-82028000D01*
G36*
X65085241Y-90614637D02*
G01*
X65285869Y-90748692D01*
X65258486Y-90763329D01*
X65186903Y-91007298D01*
X66000000Y-91820395D01*
X66014143Y-91806253D01*
X66193748Y-91985858D01*
X66179605Y-92000000D01*
X66193748Y-92014143D01*
X66014143Y-92193748D01*
X66000000Y-92179605D01*
X65186903Y-92992702D01*
X65258486Y-93236671D01*
X65513996Y-93357571D01*
X65788184Y-93426300D01*
X65915989Y-93432600D01*
X64771151Y-93432600D01*
X64597400Y-93258849D01*
X64597400Y-92324395D01*
X64601213Y-92350130D01*
X64696397Y-92616292D01*
X64763329Y-92741514D01*
X65007298Y-92813097D01*
X65820395Y-92000000D01*
X65007298Y-91186903D01*
X64763329Y-91258486D01*
X64642429Y-91513996D01*
X64597400Y-91693635D01*
X64597400Y-90736151D01*
X64902078Y-90431474D01*
X65085241Y-90614637D01*
G37*
X65085241Y-90614637D02*
X65285869Y-90748692D01*
X65258486Y-90763329D01*
X65186903Y-91007298D01*
X66000000Y-91820395D01*
X66014143Y-91806253D01*
X66193748Y-91985858D01*
X66179605Y-92000000D01*
X66193748Y-92014143D01*
X66014143Y-92193748D01*
X66000000Y-92179605D01*
X65186903Y-92992702D01*
X65258486Y-93236671D01*
X65513996Y-93357571D01*
X65788184Y-93426300D01*
X65915989Y-93432600D01*
X64771151Y-93432600D01*
X64597400Y-93258849D01*
X64597400Y-92324395D01*
X64601213Y-92350130D01*
X64696397Y-92616292D01*
X64763329Y-92741514D01*
X65007298Y-92813097D01*
X65820395Y-92000000D01*
X65007298Y-91186903D01*
X64763329Y-91258486D01*
X64642429Y-91513996D01*
X64597400Y-91693635D01*
X64597400Y-90736151D01*
X64902078Y-90431474D01*
X65085241Y-90614637D01*
M02*
