M48
; DRILL file {KiCad 5.1.5+dfsg1-2build2} date mer. 30 sept. 2020 09:27:38
; FORMAT={-:-/ absolute / inch / decimal}
; #@! TF.CreationDate,2020-09-30T09:27:38+02:00
; #@! TF.GenerationSoftware,Kicad,Pcbnew,5.1.5+dfsg1-2build2
; #@! TF.FileFunction,Plated,1,2,PTH
FMAT,2
INCH
T1C0.0157
T2C0.0236
T3C0.0300
T4C0.0374
T5C0.0906
T6C0.1260
%
G90
G05
T1
X2.8622Y-3.6594
X3.0372Y-3.6594
X3.0372Y-3.8344
X3.4872Y-4.3094
X4.9372Y-3.0094
T2
X2.9622Y-3.2094
X3.1372Y-3.5844
X3.1372Y-3.8344
X3.2872Y-4.3094
X3.3036Y-4.168
X3.3372Y-3.2594
X3.7622Y-3.3844
X3.8276Y-3.2748
T3
X4.1732Y-3.1496
X4.1732Y-4.0157
X4.252Y-3.1496
X4.252Y-4.0157
X4.3307Y-3.1496
X4.3307Y-4.0157
X4.4094Y-3.1496
X4.4094Y-4.0157
X4.4882Y-3.1496
X4.4882Y-4.0157
X4.5669Y-3.1496
X4.5669Y-4.0157
X4.6457Y-3.1496
X4.6457Y-4.0157
X4.7244Y-3.1496
X4.7244Y-4.0157
X4.8031Y-3.1496
X4.8031Y-4.0157
X4.8819Y-3.1496
X4.8819Y-4.0157
T4
X2.5984Y-3.5236
X2.5984Y-3.622
X2.6772Y-3.5236
X2.6772Y-3.622
T5
X2.4858Y-3.3366
X2.4858Y-3.8091
T6
X2.5197Y-2.9331
X2.5197Y-4.2323
X5.1181Y-3.0315
X5.1181Y-4.1339
T0
M30
