%FSLAX45Y45*%
G04 Gerber Fmt 4.5, Leading zero omitted, Abs format (unit mm)*
G04 Created by KiCad (PCBNEW 5.1.5+dfsg1-2build2) date 2020-09-30 09:27:40*
%MOMM*%
%LPD*%
G04 APERTURE LIST*
%TA.AperFunction,Profile*%
%ADD10C,0.050000*%
%TD*%
%ADD11C,0.200000*%
%ADD12C,0.300000*%
G04 APERTURE END LIST*
D10*
X6000000Y-11200000D02*
X6000000Y-7000000D01*
X13400000Y-11200000D02*
X6000000Y-11200000D01*
X13400000Y-7000000D02*
X13400000Y-11200000D01*
X6000000Y-7000000D02*
X13400000Y-7000000D01*
D11*
X7250000Y-9275000D02*
X7290000Y-9315000D01*
X7290000Y-9275000D02*
X7250000Y-9315000D01*
X7694500Y-9275000D02*
X7734500Y-9315000D01*
X7734500Y-9275000D02*
X7694500Y-9315000D01*
X7694500Y-9719500D02*
X7734500Y-9759500D01*
X7734500Y-9719500D02*
X7694500Y-9759500D01*
X8837500Y-10926000D02*
X8877500Y-10966000D01*
X8877500Y-10926000D02*
X8837500Y-10966000D01*
X12520500Y-7624000D02*
X12560500Y-7664000D01*
X12560500Y-7624000D02*
X12520500Y-7664000D01*
X7554000Y-8152000D02*
G75*
G03X7554000Y-8152000I-30000J0D01*
G01*
X7998500Y-9104500D02*
G75*
G03X7998500Y-9104500I-30000J0D01*
G01*
X7998500Y-9739500D02*
G75*
G03X7998500Y-9739500I-30000J0D01*
G01*
X8379500Y-10946000D02*
G75*
G03X8379500Y-10946000I-30000J0D01*
G01*
X8421250Y-10586750D02*
G75*
G03X8421250Y-10586750I-30000J0D01*
G01*
X8506500Y-8279000D02*
G75*
G03X8506500Y-8279000I-30000J0D01*
G01*
X9586000Y-8596500D02*
G75*
G03X9586000Y-8596500I-30000J0D01*
G01*
X9752000Y-8318000D02*
G75*
G03X9752000Y-8318000I-30000J0D01*
G01*
X10600000Y-7961900D02*
X10600000Y-8038100D01*
X10561900Y-8000000D02*
X10638100Y-8000000D01*
X10600000Y-10161900D02*
X10600000Y-10238100D01*
X10561900Y-10200000D02*
X10638100Y-10200000D01*
X10800000Y-7961900D02*
X10800000Y-8038100D01*
X10761900Y-8000000D02*
X10838100Y-8000000D01*
X10800000Y-10161900D02*
X10800000Y-10238100D01*
X10761900Y-10200000D02*
X10838100Y-10200000D01*
X11000000Y-7961900D02*
X11000000Y-8038100D01*
X10961900Y-8000000D02*
X11038100Y-8000000D01*
X11000000Y-10161900D02*
X11000000Y-10238100D01*
X10961900Y-10200000D02*
X11038100Y-10200000D01*
X11200000Y-7961900D02*
X11200000Y-8038100D01*
X11161900Y-8000000D02*
X11238100Y-8000000D01*
X11200000Y-10161900D02*
X11200000Y-10238100D01*
X11161900Y-10200000D02*
X11238100Y-10200000D01*
X11400000Y-7961900D02*
X11400000Y-8038100D01*
X11361900Y-8000000D02*
X11438100Y-8000000D01*
X11400000Y-10161900D02*
X11400000Y-10238100D01*
X11361900Y-10200000D02*
X11438100Y-10200000D01*
X11600000Y-7961900D02*
X11600000Y-8038100D01*
X11561900Y-8000000D02*
X11638100Y-8000000D01*
X11600000Y-10161900D02*
X11600000Y-10238100D01*
X11561900Y-10200000D02*
X11638100Y-10200000D01*
X11800000Y-7961900D02*
X11800000Y-8038100D01*
X11761900Y-8000000D02*
X11838100Y-8000000D01*
X11800000Y-10161900D02*
X11800000Y-10238100D01*
X11761900Y-10200000D02*
X11838100Y-10200000D01*
X12000000Y-7961900D02*
X12000000Y-8038100D01*
X11961900Y-8000000D02*
X12038100Y-8000000D01*
X12000000Y-10161900D02*
X12000000Y-10238100D01*
X11961900Y-10200000D02*
X12038100Y-10200000D01*
X12200000Y-7961900D02*
X12200000Y-8038100D01*
X12161900Y-8000000D02*
X12238100Y-8000000D01*
X12200000Y-10161900D02*
X12200000Y-10238100D01*
X12161900Y-10200000D02*
X12238100Y-10200000D01*
X12400000Y-7961900D02*
X12400000Y-8038100D01*
X12361900Y-8000000D02*
X12438100Y-8000000D01*
X12400000Y-10161900D02*
X12400000Y-10238100D01*
X12361900Y-10200000D02*
X12438100Y-10200000D01*
X6633588Y-8983588D02*
X6633588Y-8916412D01*
X6566412Y-8916412D01*
X6566412Y-8983588D01*
X6633588Y-8983588D01*
X6633588Y-9233588D02*
X6633588Y-9166412D01*
X6566412Y-9166412D01*
X6566412Y-9233588D01*
X6633588Y-9233588D01*
X6833588Y-8983588D02*
X6833588Y-8916412D01*
X6766412Y-8916412D01*
X6766412Y-8983588D01*
X6833588Y-8983588D01*
X6833588Y-9233588D02*
X6833588Y-9166412D01*
X6766412Y-9166412D01*
X6766412Y-9233588D01*
X6833588Y-9233588D01*
X6314000Y-8590000D02*
X6429000Y-8475000D01*
X6314000Y-8360000D01*
X6199000Y-8475000D01*
X6314000Y-8590000D01*
X6314000Y-9790000D02*
X6429000Y-9675000D01*
X6314000Y-9560000D01*
X6199000Y-9675000D01*
X6314000Y-9790000D01*
X6240000Y-7290000D02*
X6560000Y-7610000D01*
X6560000Y-7290000D02*
X6240000Y-7610000D01*
X6560000Y-7450000D02*
G75*
G03X6560000Y-7450000I-160000J0D01*
G01*
X6240000Y-10590000D02*
X6560000Y-10910000D01*
X6560000Y-10590000D02*
X6240000Y-10910000D01*
X6560000Y-10750000D02*
G75*
G03X6560000Y-10750000I-160000J0D01*
G01*
X12840000Y-7540000D02*
X13160000Y-7860000D01*
X13160000Y-7540000D02*
X12840000Y-7860000D01*
X13160000Y-7700000D02*
G75*
G03X13160000Y-7700000I-160000J0D01*
G01*
X12840000Y-10340000D02*
X13160000Y-10660000D01*
X13160000Y-10340000D02*
X12840000Y-10660000D01*
X13160000Y-10500000D02*
G75*
G03X13160000Y-10500000I-160000J0D01*
G01*
D12*
X6283928Y-11668214D02*
X6283928Y-11368214D01*
X6355357Y-11368214D01*
X6398214Y-11382500D01*
X6426786Y-11411071D01*
X6441071Y-11439643D01*
X6455357Y-11496786D01*
X6455357Y-11539643D01*
X6441071Y-11596786D01*
X6426786Y-11625357D01*
X6398214Y-11653929D01*
X6355357Y-11668214D01*
X6283928Y-11668214D01*
X6583928Y-11668214D02*
X6583928Y-11468214D01*
X6583928Y-11525357D02*
X6598214Y-11496786D01*
X6612500Y-11482500D01*
X6641071Y-11468214D01*
X6669643Y-11468214D01*
X6769643Y-11668214D02*
X6769643Y-11468214D01*
X6769643Y-11368214D02*
X6755357Y-11382500D01*
X6769643Y-11396786D01*
X6783928Y-11382500D01*
X6769643Y-11368214D01*
X6769643Y-11396786D01*
X6955357Y-11668214D02*
X6926786Y-11653929D01*
X6912500Y-11625357D01*
X6912500Y-11368214D01*
X7112500Y-11668214D02*
X7083928Y-11653929D01*
X7069643Y-11625357D01*
X7069643Y-11368214D01*
X7455357Y-11668214D02*
X7455357Y-11368214D01*
X7555357Y-11582500D01*
X7655357Y-11368214D01*
X7655357Y-11668214D01*
X7926786Y-11668214D02*
X7926786Y-11511071D01*
X7912500Y-11482500D01*
X7883928Y-11468214D01*
X7826786Y-11468214D01*
X7798214Y-11482500D01*
X7926786Y-11653929D02*
X7898214Y-11668214D01*
X7826786Y-11668214D01*
X7798214Y-11653929D01*
X7783928Y-11625357D01*
X7783928Y-11596786D01*
X7798214Y-11568214D01*
X7826786Y-11553929D01*
X7898214Y-11553929D01*
X7926786Y-11539643D01*
X8069643Y-11468214D02*
X8069643Y-11768214D01*
X8069643Y-11482500D02*
X8098214Y-11468214D01*
X8155357Y-11468214D01*
X8183928Y-11482500D01*
X8198214Y-11496786D01*
X8212500Y-11525357D01*
X8212500Y-11611071D01*
X8198214Y-11639643D01*
X8183928Y-11653929D01*
X8155357Y-11668214D01*
X8098214Y-11668214D01*
X8069643Y-11653929D01*
X8341071Y-11639643D02*
X8355357Y-11653929D01*
X8341071Y-11668214D01*
X8326786Y-11653929D01*
X8341071Y-11639643D01*
X8341071Y-11668214D01*
X8341071Y-11482500D02*
X8355357Y-11496786D01*
X8341071Y-11511071D01*
X8326786Y-11496786D01*
X8341071Y-11482500D01*
X8341071Y-11511071D01*
X5957500Y-12142500D02*
X5997500Y-12182500D01*
X5997500Y-12142500D02*
X5957500Y-12182500D01*
X6341071Y-11998214D02*
X6369643Y-11998214D01*
X6398214Y-12012500D01*
X6412500Y-12026786D01*
X6426786Y-12055357D01*
X6441071Y-12112500D01*
X6441071Y-12183929D01*
X6426786Y-12241071D01*
X6412500Y-12269643D01*
X6398214Y-12283929D01*
X6369643Y-12298214D01*
X6341071Y-12298214D01*
X6312500Y-12283929D01*
X6298214Y-12269643D01*
X6283928Y-12241071D01*
X6269643Y-12183929D01*
X6269643Y-12112500D01*
X6283928Y-12055357D01*
X6298214Y-12026786D01*
X6312500Y-12012500D01*
X6341071Y-11998214D01*
X6569643Y-12269643D02*
X6583928Y-12283929D01*
X6569643Y-12298214D01*
X6555357Y-12283929D01*
X6569643Y-12269643D01*
X6569643Y-12298214D01*
X6841071Y-12098214D02*
X6841071Y-12298214D01*
X6769643Y-11983929D02*
X6698214Y-12198214D01*
X6883928Y-12198214D01*
X7055357Y-11998214D02*
X7083928Y-11998214D01*
X7112500Y-12012500D01*
X7126786Y-12026786D01*
X7141071Y-12055357D01*
X7155357Y-12112500D01*
X7155357Y-12183929D01*
X7141071Y-12241071D01*
X7126786Y-12269643D01*
X7112500Y-12283929D01*
X7083928Y-12298214D01*
X7055357Y-12298214D01*
X7026786Y-12283929D01*
X7012500Y-12269643D01*
X6998214Y-12241071D01*
X6983928Y-12183929D01*
X6983928Y-12112500D01*
X6998214Y-12055357D01*
X7012500Y-12026786D01*
X7026786Y-12012500D01*
X7055357Y-11998214D01*
X7283928Y-12298214D02*
X7283928Y-12098214D01*
X7283928Y-12126786D02*
X7298214Y-12112500D01*
X7326786Y-12098214D01*
X7369643Y-12098214D01*
X7398214Y-12112500D01*
X7412500Y-12141071D01*
X7412500Y-12298214D01*
X7412500Y-12141071D02*
X7426786Y-12112500D01*
X7455357Y-12098214D01*
X7498214Y-12098214D01*
X7526786Y-12112500D01*
X7541071Y-12141071D01*
X7541071Y-12298214D01*
X7683928Y-12298214D02*
X7683928Y-12098214D01*
X7683928Y-12126786D02*
X7698214Y-12112500D01*
X7726786Y-12098214D01*
X7769643Y-12098214D01*
X7798214Y-12112500D01*
X7812500Y-12141071D01*
X7812500Y-12298214D01*
X7812500Y-12141071D02*
X7826786Y-12112500D01*
X7855357Y-12098214D01*
X7898214Y-12098214D01*
X7926786Y-12112500D01*
X7941071Y-12141071D01*
X7941071Y-12298214D01*
X8526786Y-11983929D02*
X8269643Y-12369643D01*
X8912500Y-11998214D02*
X8941071Y-11998214D01*
X8969643Y-12012500D01*
X8983928Y-12026786D01*
X8998214Y-12055357D01*
X9012500Y-12112500D01*
X9012500Y-12183929D01*
X8998214Y-12241071D01*
X8983928Y-12269643D01*
X8969643Y-12283929D01*
X8941071Y-12298214D01*
X8912500Y-12298214D01*
X8883928Y-12283929D01*
X8869643Y-12269643D01*
X8855357Y-12241071D01*
X8841071Y-12183929D01*
X8841071Y-12112500D01*
X8855357Y-12055357D01*
X8869643Y-12026786D01*
X8883928Y-12012500D01*
X8912500Y-11998214D01*
X9141071Y-12269643D02*
X9155357Y-12283929D01*
X9141071Y-12298214D01*
X9126786Y-12283929D01*
X9141071Y-12269643D01*
X9141071Y-12298214D01*
X9341071Y-11998214D02*
X9369643Y-11998214D01*
X9398214Y-12012500D01*
X9412500Y-12026786D01*
X9426786Y-12055357D01*
X9441071Y-12112500D01*
X9441071Y-12183929D01*
X9426786Y-12241071D01*
X9412500Y-12269643D01*
X9398214Y-12283929D01*
X9369643Y-12298214D01*
X9341071Y-12298214D01*
X9312500Y-12283929D01*
X9298214Y-12269643D01*
X9283928Y-12241071D01*
X9269643Y-12183929D01*
X9269643Y-12112500D01*
X9283928Y-12055357D01*
X9298214Y-12026786D01*
X9312500Y-12012500D01*
X9341071Y-11998214D01*
X9726786Y-12298214D02*
X9555357Y-12298214D01*
X9641071Y-12298214D02*
X9641071Y-11998214D01*
X9612500Y-12041071D01*
X9583928Y-12069643D01*
X9555357Y-12083929D01*
X9983928Y-11998214D02*
X9926786Y-11998214D01*
X9898214Y-12012500D01*
X9883928Y-12026786D01*
X9855357Y-12069643D01*
X9841071Y-12126786D01*
X9841071Y-12241071D01*
X9855357Y-12269643D01*
X9869643Y-12283929D01*
X9898214Y-12298214D01*
X9955357Y-12298214D01*
X9983928Y-12283929D01*
X9998214Y-12269643D01*
X10012500Y-12241071D01*
X10012500Y-12169643D01*
X9998214Y-12141071D01*
X9983928Y-12126786D01*
X9955357Y-12112500D01*
X9898214Y-12112500D01*
X9869643Y-12126786D01*
X9855357Y-12141071D01*
X9841071Y-12169643D01*
X10126786Y-11998214D02*
X10126786Y-12055357D01*
X10241071Y-11998214D02*
X10241071Y-12055357D01*
X10683928Y-12412500D02*
X10669643Y-12398214D01*
X10641071Y-12355357D01*
X10626786Y-12326786D01*
X10612500Y-12283929D01*
X10598214Y-12212500D01*
X10598214Y-12155357D01*
X10612500Y-12083929D01*
X10626786Y-12041071D01*
X10641071Y-12012500D01*
X10669643Y-11969643D01*
X10683928Y-11955357D01*
X10941071Y-11998214D02*
X10798214Y-11998214D01*
X10783928Y-12141071D01*
X10798214Y-12126786D01*
X10826786Y-12112500D01*
X10898214Y-12112500D01*
X10926786Y-12126786D01*
X10941071Y-12141071D01*
X10955357Y-12169643D01*
X10955357Y-12241071D01*
X10941071Y-12269643D01*
X10926786Y-12283929D01*
X10898214Y-12298214D01*
X10826786Y-12298214D01*
X10798214Y-12283929D01*
X10783928Y-12269643D01*
X11312500Y-12298214D02*
X11312500Y-11998214D01*
X11441071Y-12298214D02*
X11441071Y-12141071D01*
X11426786Y-12112500D01*
X11398214Y-12098214D01*
X11355357Y-12098214D01*
X11326786Y-12112500D01*
X11312500Y-12126786D01*
X11626786Y-12298214D02*
X11598214Y-12283929D01*
X11583928Y-12269643D01*
X11569643Y-12241071D01*
X11569643Y-12155357D01*
X11583928Y-12126786D01*
X11598214Y-12112500D01*
X11626786Y-12098214D01*
X11669643Y-12098214D01*
X11698214Y-12112500D01*
X11712500Y-12126786D01*
X11726786Y-12155357D01*
X11726786Y-12241071D01*
X11712500Y-12269643D01*
X11698214Y-12283929D01*
X11669643Y-12298214D01*
X11626786Y-12298214D01*
X11898214Y-12298214D02*
X11869643Y-12283929D01*
X11855357Y-12255357D01*
X11855357Y-11998214D01*
X12126786Y-12283929D02*
X12098214Y-12298214D01*
X12041071Y-12298214D01*
X12012500Y-12283929D01*
X11998214Y-12255357D01*
X11998214Y-12141071D01*
X12012500Y-12112500D01*
X12041071Y-12098214D01*
X12098214Y-12098214D01*
X12126786Y-12112500D01*
X12141071Y-12141071D01*
X12141071Y-12169643D01*
X11998214Y-12198214D01*
X12255357Y-12283929D02*
X12283928Y-12298214D01*
X12341071Y-12298214D01*
X12369643Y-12283929D01*
X12383928Y-12255357D01*
X12383928Y-12241071D01*
X12369643Y-12212500D01*
X12341071Y-12198214D01*
X12298214Y-12198214D01*
X12269643Y-12183929D01*
X12255357Y-12155357D01*
X12255357Y-12141071D01*
X12269643Y-12112500D01*
X12298214Y-12098214D01*
X12341071Y-12098214D01*
X12369643Y-12112500D01*
X12483928Y-12412500D02*
X12498214Y-12398214D01*
X12526786Y-12355357D01*
X12541071Y-12326786D01*
X12555357Y-12283929D01*
X12569643Y-12212500D01*
X12569643Y-12155357D01*
X12555357Y-12083929D01*
X12541071Y-12041071D01*
X12526786Y-12012500D01*
X12498214Y-11969643D01*
X12483928Y-11955357D01*
X5997500Y-12558500D02*
G75*
G03X5997500Y-12558500I-30000J0D01*
G01*
X6341071Y-12394214D02*
X6369643Y-12394214D01*
X6398214Y-12408500D01*
X6412500Y-12422786D01*
X6426786Y-12451357D01*
X6441071Y-12508500D01*
X6441071Y-12579929D01*
X6426786Y-12637071D01*
X6412500Y-12665643D01*
X6398214Y-12679929D01*
X6369643Y-12694214D01*
X6341071Y-12694214D01*
X6312500Y-12679929D01*
X6298214Y-12665643D01*
X6283928Y-12637071D01*
X6269643Y-12579929D01*
X6269643Y-12508500D01*
X6283928Y-12451357D01*
X6298214Y-12422786D01*
X6312500Y-12408500D01*
X6341071Y-12394214D01*
X6569643Y-12665643D02*
X6583928Y-12679929D01*
X6569643Y-12694214D01*
X6555357Y-12679929D01*
X6569643Y-12665643D01*
X6569643Y-12694214D01*
X6841071Y-12394214D02*
X6783928Y-12394214D01*
X6755357Y-12408500D01*
X6741071Y-12422786D01*
X6712500Y-12465643D01*
X6698214Y-12522786D01*
X6698214Y-12637071D01*
X6712500Y-12665643D01*
X6726786Y-12679929D01*
X6755357Y-12694214D01*
X6812500Y-12694214D01*
X6841071Y-12679929D01*
X6855357Y-12665643D01*
X6869643Y-12637071D01*
X6869643Y-12565643D01*
X6855357Y-12537071D01*
X6841071Y-12522786D01*
X6812500Y-12508500D01*
X6755357Y-12508500D01*
X6726786Y-12522786D01*
X6712500Y-12537071D01*
X6698214Y-12565643D01*
X7055357Y-12394214D02*
X7083928Y-12394214D01*
X7112500Y-12408500D01*
X7126786Y-12422786D01*
X7141071Y-12451357D01*
X7155357Y-12508500D01*
X7155357Y-12579929D01*
X7141071Y-12637071D01*
X7126786Y-12665643D01*
X7112500Y-12679929D01*
X7083928Y-12694214D01*
X7055357Y-12694214D01*
X7026786Y-12679929D01*
X7012500Y-12665643D01*
X6998214Y-12637071D01*
X6983928Y-12579929D01*
X6983928Y-12508500D01*
X6998214Y-12451357D01*
X7012500Y-12422786D01*
X7026786Y-12408500D01*
X7055357Y-12394214D01*
X7283928Y-12694214D02*
X7283928Y-12494214D01*
X7283928Y-12522786D02*
X7298214Y-12508500D01*
X7326786Y-12494214D01*
X7369643Y-12494214D01*
X7398214Y-12508500D01*
X7412500Y-12537071D01*
X7412500Y-12694214D01*
X7412500Y-12537071D02*
X7426786Y-12508500D01*
X7455357Y-12494214D01*
X7498214Y-12494214D01*
X7526786Y-12508500D01*
X7541071Y-12537071D01*
X7541071Y-12694214D01*
X7683928Y-12694214D02*
X7683928Y-12494214D01*
X7683928Y-12522786D02*
X7698214Y-12508500D01*
X7726786Y-12494214D01*
X7769643Y-12494214D01*
X7798214Y-12508500D01*
X7812500Y-12537071D01*
X7812500Y-12694214D01*
X7812500Y-12537071D02*
X7826786Y-12508500D01*
X7855357Y-12494214D01*
X7898214Y-12494214D01*
X7926786Y-12508500D01*
X7941071Y-12537071D01*
X7941071Y-12694214D01*
X8526786Y-12379929D02*
X8269643Y-12765643D01*
X8912500Y-12394214D02*
X8941071Y-12394214D01*
X8969643Y-12408500D01*
X8983928Y-12422786D01*
X8998214Y-12451357D01*
X9012500Y-12508500D01*
X9012500Y-12579929D01*
X8998214Y-12637071D01*
X8983928Y-12665643D01*
X8969643Y-12679929D01*
X8941071Y-12694214D01*
X8912500Y-12694214D01*
X8883928Y-12679929D01*
X8869643Y-12665643D01*
X8855357Y-12637071D01*
X8841071Y-12579929D01*
X8841071Y-12508500D01*
X8855357Y-12451357D01*
X8869643Y-12422786D01*
X8883928Y-12408500D01*
X8912500Y-12394214D01*
X9141071Y-12665643D02*
X9155357Y-12679929D01*
X9141071Y-12694214D01*
X9126786Y-12679929D01*
X9141071Y-12665643D01*
X9141071Y-12694214D01*
X9341071Y-12394214D02*
X9369643Y-12394214D01*
X9398214Y-12408500D01*
X9412500Y-12422786D01*
X9426786Y-12451357D01*
X9441071Y-12508500D01*
X9441071Y-12579929D01*
X9426786Y-12637071D01*
X9412500Y-12665643D01*
X9398214Y-12679929D01*
X9369643Y-12694214D01*
X9341071Y-12694214D01*
X9312500Y-12679929D01*
X9298214Y-12665643D01*
X9283928Y-12637071D01*
X9269643Y-12579929D01*
X9269643Y-12508500D01*
X9283928Y-12451357D01*
X9298214Y-12422786D01*
X9312500Y-12408500D01*
X9341071Y-12394214D01*
X9555357Y-12422786D02*
X9569643Y-12408500D01*
X9598214Y-12394214D01*
X9669643Y-12394214D01*
X9698214Y-12408500D01*
X9712500Y-12422786D01*
X9726786Y-12451357D01*
X9726786Y-12479929D01*
X9712500Y-12522786D01*
X9541071Y-12694214D01*
X9726786Y-12694214D01*
X9983928Y-12494214D02*
X9983928Y-12694214D01*
X9912500Y-12379929D02*
X9841071Y-12594214D01*
X10026786Y-12594214D01*
X10126786Y-12394214D02*
X10126786Y-12451357D01*
X10241071Y-12394214D02*
X10241071Y-12451357D01*
X10683928Y-12808500D02*
X10669643Y-12794214D01*
X10641071Y-12751357D01*
X10626786Y-12722786D01*
X10612500Y-12679929D01*
X10598214Y-12608500D01*
X10598214Y-12551357D01*
X10612500Y-12479929D01*
X10626786Y-12437071D01*
X10641071Y-12408500D01*
X10669643Y-12365643D01*
X10683928Y-12351357D01*
X10841071Y-12522786D02*
X10812500Y-12508500D01*
X10798214Y-12494214D01*
X10783928Y-12465643D01*
X10783928Y-12451357D01*
X10798214Y-12422786D01*
X10812500Y-12408500D01*
X10841071Y-12394214D01*
X10898214Y-12394214D01*
X10926786Y-12408500D01*
X10941071Y-12422786D01*
X10955357Y-12451357D01*
X10955357Y-12465643D01*
X10941071Y-12494214D01*
X10926786Y-12508500D01*
X10898214Y-12522786D01*
X10841071Y-12522786D01*
X10812500Y-12537071D01*
X10798214Y-12551357D01*
X10783928Y-12579929D01*
X10783928Y-12637071D01*
X10798214Y-12665643D01*
X10812500Y-12679929D01*
X10841071Y-12694214D01*
X10898214Y-12694214D01*
X10926786Y-12679929D01*
X10941071Y-12665643D01*
X10955357Y-12637071D01*
X10955357Y-12579929D01*
X10941071Y-12551357D01*
X10926786Y-12537071D01*
X10898214Y-12522786D01*
X11312500Y-12694214D02*
X11312500Y-12394214D01*
X11441071Y-12694214D02*
X11441071Y-12537071D01*
X11426786Y-12508500D01*
X11398214Y-12494214D01*
X11355357Y-12494214D01*
X11326786Y-12508500D01*
X11312500Y-12522786D01*
X11626786Y-12694214D02*
X11598214Y-12679929D01*
X11583928Y-12665643D01*
X11569643Y-12637071D01*
X11569643Y-12551357D01*
X11583928Y-12522786D01*
X11598214Y-12508500D01*
X11626786Y-12494214D01*
X11669643Y-12494214D01*
X11698214Y-12508500D01*
X11712500Y-12522786D01*
X11726786Y-12551357D01*
X11726786Y-12637071D01*
X11712500Y-12665643D01*
X11698214Y-12679929D01*
X11669643Y-12694214D01*
X11626786Y-12694214D01*
X11898214Y-12694214D02*
X11869643Y-12679929D01*
X11855357Y-12651357D01*
X11855357Y-12394214D01*
X12126786Y-12679929D02*
X12098214Y-12694214D01*
X12041071Y-12694214D01*
X12012500Y-12679929D01*
X11998214Y-12651357D01*
X11998214Y-12537071D01*
X12012500Y-12508500D01*
X12041071Y-12494214D01*
X12098214Y-12494214D01*
X12126786Y-12508500D01*
X12141071Y-12537071D01*
X12141071Y-12565643D01*
X11998214Y-12594214D01*
X12255357Y-12679929D02*
X12283928Y-12694214D01*
X12341071Y-12694214D01*
X12369643Y-12679929D01*
X12383928Y-12651357D01*
X12383928Y-12637071D01*
X12369643Y-12608500D01*
X12341071Y-12594214D01*
X12298214Y-12594214D01*
X12269643Y-12579929D01*
X12255357Y-12551357D01*
X12255357Y-12537071D01*
X12269643Y-12508500D01*
X12298214Y-12494214D01*
X12341071Y-12494214D01*
X12369643Y-12508500D01*
X12483928Y-12808500D02*
X12498214Y-12794214D01*
X12526786Y-12751357D01*
X12541071Y-12722786D01*
X12555357Y-12679929D01*
X12569643Y-12608500D01*
X12569643Y-12551357D01*
X12555357Y-12479929D01*
X12541071Y-12437071D01*
X12526786Y-12408500D01*
X12498214Y-12365643D01*
X12483928Y-12351357D01*
X5959400Y-12916400D02*
X5959400Y-12992600D01*
X5921300Y-12954500D02*
X5997500Y-12954500D01*
X6341071Y-12790214D02*
X6369643Y-12790214D01*
X6398214Y-12804500D01*
X6412500Y-12818786D01*
X6426786Y-12847357D01*
X6441071Y-12904500D01*
X6441071Y-12975929D01*
X6426786Y-13033071D01*
X6412500Y-13061643D01*
X6398214Y-13075929D01*
X6369643Y-13090214D01*
X6341071Y-13090214D01*
X6312500Y-13075929D01*
X6298214Y-13061643D01*
X6283928Y-13033071D01*
X6269643Y-12975929D01*
X6269643Y-12904500D01*
X6283928Y-12847357D01*
X6298214Y-12818786D01*
X6312500Y-12804500D01*
X6341071Y-12790214D01*
X6569643Y-13061643D02*
X6583928Y-13075929D01*
X6569643Y-13090214D01*
X6555357Y-13075929D01*
X6569643Y-13061643D01*
X6569643Y-13090214D01*
X6683928Y-12790214D02*
X6883928Y-12790214D01*
X6755357Y-13090214D01*
X7126786Y-12790214D02*
X7069643Y-12790214D01*
X7041071Y-12804500D01*
X7026786Y-12818786D01*
X6998214Y-12861643D01*
X6983928Y-12918786D01*
X6983928Y-13033071D01*
X6998214Y-13061643D01*
X7012500Y-13075929D01*
X7041071Y-13090214D01*
X7098214Y-13090214D01*
X7126786Y-13075929D01*
X7141071Y-13061643D01*
X7155357Y-13033071D01*
X7155357Y-12961643D01*
X7141071Y-12933071D01*
X7126786Y-12918786D01*
X7098214Y-12904500D01*
X7041071Y-12904500D01*
X7012500Y-12918786D01*
X6998214Y-12933071D01*
X6983928Y-12961643D01*
X7283928Y-13090214D02*
X7283928Y-12890214D01*
X7283928Y-12918786D02*
X7298214Y-12904500D01*
X7326786Y-12890214D01*
X7369643Y-12890214D01*
X7398214Y-12904500D01*
X7412500Y-12933071D01*
X7412500Y-13090214D01*
X7412500Y-12933071D02*
X7426786Y-12904500D01*
X7455357Y-12890214D01*
X7498214Y-12890214D01*
X7526786Y-12904500D01*
X7541071Y-12933071D01*
X7541071Y-13090214D01*
X7683928Y-13090214D02*
X7683928Y-12890214D01*
X7683928Y-12918786D02*
X7698214Y-12904500D01*
X7726786Y-12890214D01*
X7769643Y-12890214D01*
X7798214Y-12904500D01*
X7812500Y-12933071D01*
X7812500Y-13090214D01*
X7812500Y-12933071D02*
X7826786Y-12904500D01*
X7855357Y-12890214D01*
X7898214Y-12890214D01*
X7926786Y-12904500D01*
X7941071Y-12933071D01*
X7941071Y-13090214D01*
X8526786Y-12775929D02*
X8269643Y-13161643D01*
X8912500Y-12790214D02*
X8941071Y-12790214D01*
X8969643Y-12804500D01*
X8983928Y-12818786D01*
X8998214Y-12847357D01*
X9012500Y-12904500D01*
X9012500Y-12975929D01*
X8998214Y-13033071D01*
X8983928Y-13061643D01*
X8969643Y-13075929D01*
X8941071Y-13090214D01*
X8912500Y-13090214D01*
X8883928Y-13075929D01*
X8869643Y-13061643D01*
X8855357Y-13033071D01*
X8841071Y-12975929D01*
X8841071Y-12904500D01*
X8855357Y-12847357D01*
X8869643Y-12818786D01*
X8883928Y-12804500D01*
X8912500Y-12790214D01*
X9141071Y-13061643D02*
X9155357Y-13075929D01*
X9141071Y-13090214D01*
X9126786Y-13075929D01*
X9141071Y-13061643D01*
X9141071Y-13090214D01*
X9341071Y-12790214D02*
X9369643Y-12790214D01*
X9398214Y-12804500D01*
X9412500Y-12818786D01*
X9426786Y-12847357D01*
X9441071Y-12904500D01*
X9441071Y-12975929D01*
X9426786Y-13033071D01*
X9412500Y-13061643D01*
X9398214Y-13075929D01*
X9369643Y-13090214D01*
X9341071Y-13090214D01*
X9312500Y-13075929D01*
X9298214Y-13061643D01*
X9283928Y-13033071D01*
X9269643Y-12975929D01*
X9269643Y-12904500D01*
X9283928Y-12847357D01*
X9298214Y-12818786D01*
X9312500Y-12804500D01*
X9341071Y-12790214D01*
X9541071Y-12790214D02*
X9726786Y-12790214D01*
X9626786Y-12904500D01*
X9669643Y-12904500D01*
X9698214Y-12918786D01*
X9712500Y-12933071D01*
X9726786Y-12961643D01*
X9726786Y-13033071D01*
X9712500Y-13061643D01*
X9698214Y-13075929D01*
X9669643Y-13090214D01*
X9583928Y-13090214D01*
X9555357Y-13075929D01*
X9541071Y-13061643D01*
X9912500Y-12790214D02*
X9941071Y-12790214D01*
X9969643Y-12804500D01*
X9983928Y-12818786D01*
X9998214Y-12847357D01*
X10012500Y-12904500D01*
X10012500Y-12975929D01*
X9998214Y-13033071D01*
X9983928Y-13061643D01*
X9969643Y-13075929D01*
X9941071Y-13090214D01*
X9912500Y-13090214D01*
X9883928Y-13075929D01*
X9869643Y-13061643D01*
X9855357Y-13033071D01*
X9841071Y-12975929D01*
X9841071Y-12904500D01*
X9855357Y-12847357D01*
X9869643Y-12818786D01*
X9883928Y-12804500D01*
X9912500Y-12790214D01*
X10126786Y-12790214D02*
X10126786Y-12847357D01*
X10241071Y-12790214D02*
X10241071Y-12847357D01*
X10683928Y-13204500D02*
X10669643Y-13190214D01*
X10641071Y-13147357D01*
X10626786Y-13118786D01*
X10612500Y-13075929D01*
X10598214Y-13004500D01*
X10598214Y-12947357D01*
X10612500Y-12875929D01*
X10626786Y-12833071D01*
X10641071Y-12804500D01*
X10669643Y-12761643D01*
X10683928Y-12747357D01*
X10783928Y-12818786D02*
X10798214Y-12804500D01*
X10826786Y-12790214D01*
X10898214Y-12790214D01*
X10926786Y-12804500D01*
X10941071Y-12818786D01*
X10955357Y-12847357D01*
X10955357Y-12875929D01*
X10941071Y-12918786D01*
X10769643Y-13090214D01*
X10955357Y-13090214D01*
X11141071Y-12790214D02*
X11169643Y-12790214D01*
X11198214Y-12804500D01*
X11212500Y-12818786D01*
X11226786Y-12847357D01*
X11241071Y-12904500D01*
X11241071Y-12975929D01*
X11226786Y-13033071D01*
X11212500Y-13061643D01*
X11198214Y-13075929D01*
X11169643Y-13090214D01*
X11141071Y-13090214D01*
X11112500Y-13075929D01*
X11098214Y-13061643D01*
X11083928Y-13033071D01*
X11069643Y-12975929D01*
X11069643Y-12904500D01*
X11083928Y-12847357D01*
X11098214Y-12818786D01*
X11112500Y-12804500D01*
X11141071Y-12790214D01*
X11598214Y-13090214D02*
X11598214Y-12790214D01*
X11726786Y-13090214D02*
X11726786Y-12933071D01*
X11712500Y-12904500D01*
X11683928Y-12890214D01*
X11641071Y-12890214D01*
X11612500Y-12904500D01*
X11598214Y-12918786D01*
X11912500Y-13090214D02*
X11883928Y-13075929D01*
X11869643Y-13061643D01*
X11855357Y-13033071D01*
X11855357Y-12947357D01*
X11869643Y-12918786D01*
X11883928Y-12904500D01*
X11912500Y-12890214D01*
X11955357Y-12890214D01*
X11983928Y-12904500D01*
X11998214Y-12918786D01*
X12012500Y-12947357D01*
X12012500Y-13033071D01*
X11998214Y-13061643D01*
X11983928Y-13075929D01*
X11955357Y-13090214D01*
X11912500Y-13090214D01*
X12183928Y-13090214D02*
X12155357Y-13075929D01*
X12141071Y-13047357D01*
X12141071Y-12790214D01*
X12412500Y-13075929D02*
X12383928Y-13090214D01*
X12326786Y-13090214D01*
X12298214Y-13075929D01*
X12283928Y-13047357D01*
X12283928Y-12933071D01*
X12298214Y-12904500D01*
X12326786Y-12890214D01*
X12383928Y-12890214D01*
X12412500Y-12904500D01*
X12426786Y-12933071D01*
X12426786Y-12961643D01*
X12283928Y-12990214D01*
X12541071Y-13075929D02*
X12569643Y-13090214D01*
X12626786Y-13090214D01*
X12655357Y-13075929D01*
X12669643Y-13047357D01*
X12669643Y-13033071D01*
X12655357Y-13004500D01*
X12626786Y-12990214D01*
X12583928Y-12990214D01*
X12555357Y-12975929D01*
X12541071Y-12947357D01*
X12541071Y-12933071D01*
X12555357Y-12904500D01*
X12583928Y-12890214D01*
X12626786Y-12890214D01*
X12655357Y-12904500D01*
X12769643Y-13204500D02*
X12783928Y-13190214D01*
X12812500Y-13147357D01*
X12826786Y-13118786D01*
X12841071Y-13075929D01*
X12855357Y-13004500D01*
X12855357Y-12947357D01*
X12841071Y-12875929D01*
X12826786Y-12833071D01*
X12812500Y-12804500D01*
X12783928Y-12761643D01*
X12769643Y-12747357D01*
X5983588Y-13384088D02*
X5983588Y-13316912D01*
X5916412Y-13316912D01*
X5916412Y-13384088D01*
X5983588Y-13384088D01*
X6341071Y-13186214D02*
X6369643Y-13186214D01*
X6398214Y-13200500D01*
X6412500Y-13214786D01*
X6426786Y-13243357D01*
X6441071Y-13300500D01*
X6441071Y-13371929D01*
X6426786Y-13429071D01*
X6412500Y-13457643D01*
X6398214Y-13471929D01*
X6369643Y-13486214D01*
X6341071Y-13486214D01*
X6312500Y-13471929D01*
X6298214Y-13457643D01*
X6283928Y-13429071D01*
X6269643Y-13371929D01*
X6269643Y-13300500D01*
X6283928Y-13243357D01*
X6298214Y-13214786D01*
X6312500Y-13200500D01*
X6341071Y-13186214D01*
X6569643Y-13457643D02*
X6583928Y-13471929D01*
X6569643Y-13486214D01*
X6555357Y-13471929D01*
X6569643Y-13457643D01*
X6569643Y-13486214D01*
X6726786Y-13486214D02*
X6783928Y-13486214D01*
X6812500Y-13471929D01*
X6826786Y-13457643D01*
X6855357Y-13414786D01*
X6869643Y-13357643D01*
X6869643Y-13243357D01*
X6855357Y-13214786D01*
X6841071Y-13200500D01*
X6812500Y-13186214D01*
X6755357Y-13186214D01*
X6726786Y-13200500D01*
X6712500Y-13214786D01*
X6698214Y-13243357D01*
X6698214Y-13314786D01*
X6712500Y-13343357D01*
X6726786Y-13357643D01*
X6755357Y-13371929D01*
X6812500Y-13371929D01*
X6841071Y-13357643D01*
X6855357Y-13343357D01*
X6869643Y-13314786D01*
X7141071Y-13186214D02*
X6998214Y-13186214D01*
X6983928Y-13329071D01*
X6998214Y-13314786D01*
X7026786Y-13300500D01*
X7098214Y-13300500D01*
X7126786Y-13314786D01*
X7141071Y-13329071D01*
X7155357Y-13357643D01*
X7155357Y-13429071D01*
X7141071Y-13457643D01*
X7126786Y-13471929D01*
X7098214Y-13486214D01*
X7026786Y-13486214D01*
X6998214Y-13471929D01*
X6983928Y-13457643D01*
X7283928Y-13486214D02*
X7283928Y-13286214D01*
X7283928Y-13314786D02*
X7298214Y-13300500D01*
X7326786Y-13286214D01*
X7369643Y-13286214D01*
X7398214Y-13300500D01*
X7412500Y-13329071D01*
X7412500Y-13486214D01*
X7412500Y-13329071D02*
X7426786Y-13300500D01*
X7455357Y-13286214D01*
X7498214Y-13286214D01*
X7526786Y-13300500D01*
X7541071Y-13329071D01*
X7541071Y-13486214D01*
X7683928Y-13486214D02*
X7683928Y-13286214D01*
X7683928Y-13314786D02*
X7698214Y-13300500D01*
X7726786Y-13286214D01*
X7769643Y-13286214D01*
X7798214Y-13300500D01*
X7812500Y-13329071D01*
X7812500Y-13486214D01*
X7812500Y-13329071D02*
X7826786Y-13300500D01*
X7855357Y-13286214D01*
X7898214Y-13286214D01*
X7926786Y-13300500D01*
X7941071Y-13329071D01*
X7941071Y-13486214D01*
X8526786Y-13171929D02*
X8269643Y-13557643D01*
X8912500Y-13186214D02*
X8941071Y-13186214D01*
X8969643Y-13200500D01*
X8983928Y-13214786D01*
X8998214Y-13243357D01*
X9012500Y-13300500D01*
X9012500Y-13371929D01*
X8998214Y-13429071D01*
X8983928Y-13457643D01*
X8969643Y-13471929D01*
X8941071Y-13486214D01*
X8912500Y-13486214D01*
X8883928Y-13471929D01*
X8869643Y-13457643D01*
X8855357Y-13429071D01*
X8841071Y-13371929D01*
X8841071Y-13300500D01*
X8855357Y-13243357D01*
X8869643Y-13214786D01*
X8883928Y-13200500D01*
X8912500Y-13186214D01*
X9141071Y-13457643D02*
X9155357Y-13471929D01*
X9141071Y-13486214D01*
X9126786Y-13471929D01*
X9141071Y-13457643D01*
X9141071Y-13486214D01*
X9341071Y-13186214D02*
X9369643Y-13186214D01*
X9398214Y-13200500D01*
X9412500Y-13214786D01*
X9426786Y-13243357D01*
X9441071Y-13300500D01*
X9441071Y-13371929D01*
X9426786Y-13429071D01*
X9412500Y-13457643D01*
X9398214Y-13471929D01*
X9369643Y-13486214D01*
X9341071Y-13486214D01*
X9312500Y-13471929D01*
X9298214Y-13457643D01*
X9283928Y-13429071D01*
X9269643Y-13371929D01*
X9269643Y-13300500D01*
X9283928Y-13243357D01*
X9298214Y-13214786D01*
X9312500Y-13200500D01*
X9341071Y-13186214D01*
X9541071Y-13186214D02*
X9726786Y-13186214D01*
X9626786Y-13300500D01*
X9669643Y-13300500D01*
X9698214Y-13314786D01*
X9712500Y-13329071D01*
X9726786Y-13357643D01*
X9726786Y-13429071D01*
X9712500Y-13457643D01*
X9698214Y-13471929D01*
X9669643Y-13486214D01*
X9583928Y-13486214D01*
X9555357Y-13471929D01*
X9541071Y-13457643D01*
X9826786Y-13186214D02*
X10026786Y-13186214D01*
X9898214Y-13486214D01*
X10126786Y-13186214D02*
X10126786Y-13243357D01*
X10241071Y-13186214D02*
X10241071Y-13243357D01*
X10683928Y-13600500D02*
X10669643Y-13586214D01*
X10641071Y-13543357D01*
X10626786Y-13514786D01*
X10612500Y-13471929D01*
X10598214Y-13400500D01*
X10598214Y-13343357D01*
X10612500Y-13271929D01*
X10626786Y-13229071D01*
X10641071Y-13200500D01*
X10669643Y-13157643D01*
X10683928Y-13143357D01*
X10926786Y-13286214D02*
X10926786Y-13486214D01*
X10855357Y-13171929D02*
X10783928Y-13386214D01*
X10969643Y-13386214D01*
X11312500Y-13486214D02*
X11312500Y-13186214D01*
X11441071Y-13486214D02*
X11441071Y-13329071D01*
X11426786Y-13300500D01*
X11398214Y-13286214D01*
X11355357Y-13286214D01*
X11326786Y-13300500D01*
X11312500Y-13314786D01*
X11626786Y-13486214D02*
X11598214Y-13471929D01*
X11583928Y-13457643D01*
X11569643Y-13429071D01*
X11569643Y-13343357D01*
X11583928Y-13314786D01*
X11598214Y-13300500D01*
X11626786Y-13286214D01*
X11669643Y-13286214D01*
X11698214Y-13300500D01*
X11712500Y-13314786D01*
X11726786Y-13343357D01*
X11726786Y-13429071D01*
X11712500Y-13457643D01*
X11698214Y-13471929D01*
X11669643Y-13486214D01*
X11626786Y-13486214D01*
X11898214Y-13486214D02*
X11869643Y-13471929D01*
X11855357Y-13443357D01*
X11855357Y-13186214D01*
X12126786Y-13471929D02*
X12098214Y-13486214D01*
X12041071Y-13486214D01*
X12012500Y-13471929D01*
X11998214Y-13443357D01*
X11998214Y-13329071D01*
X12012500Y-13300500D01*
X12041071Y-13286214D01*
X12098214Y-13286214D01*
X12126786Y-13300500D01*
X12141071Y-13329071D01*
X12141071Y-13357643D01*
X11998214Y-13386214D01*
X12255357Y-13471929D02*
X12283928Y-13486214D01*
X12341071Y-13486214D01*
X12369643Y-13471929D01*
X12383928Y-13443357D01*
X12383928Y-13429071D01*
X12369643Y-13400500D01*
X12341071Y-13386214D01*
X12298214Y-13386214D01*
X12269643Y-13371929D01*
X12255357Y-13343357D01*
X12255357Y-13329071D01*
X12269643Y-13300500D01*
X12298214Y-13286214D01*
X12341071Y-13286214D01*
X12369643Y-13300500D01*
X12483928Y-13600500D02*
X12498214Y-13586214D01*
X12526786Y-13543357D01*
X12541071Y-13514786D01*
X12555357Y-13471929D01*
X12569643Y-13400500D01*
X12569643Y-13343357D01*
X12555357Y-13271929D01*
X12541071Y-13229071D01*
X12526786Y-13200500D01*
X12498214Y-13157643D01*
X12483928Y-13143357D01*
X5882500Y-13861500D02*
X5997500Y-13746500D01*
X5882500Y-13631500D01*
X5767500Y-13746500D01*
X5882500Y-13861500D01*
X6269643Y-13610786D02*
X6283928Y-13596500D01*
X6312500Y-13582214D01*
X6383928Y-13582214D01*
X6412500Y-13596500D01*
X6426786Y-13610786D01*
X6441071Y-13639357D01*
X6441071Y-13667929D01*
X6426786Y-13710786D01*
X6255357Y-13882214D01*
X6441071Y-13882214D01*
X6569643Y-13853643D02*
X6583928Y-13867929D01*
X6569643Y-13882214D01*
X6555357Y-13867929D01*
X6569643Y-13853643D01*
X6569643Y-13882214D01*
X6683928Y-13582214D02*
X6869643Y-13582214D01*
X6769643Y-13696500D01*
X6812500Y-13696500D01*
X6841071Y-13710786D01*
X6855357Y-13725071D01*
X6869643Y-13753643D01*
X6869643Y-13825071D01*
X6855357Y-13853643D01*
X6841071Y-13867929D01*
X6812500Y-13882214D01*
X6726786Y-13882214D01*
X6698214Y-13867929D01*
X6683928Y-13853643D01*
X7055357Y-13582214D02*
X7083928Y-13582214D01*
X7112500Y-13596500D01*
X7126786Y-13610786D01*
X7141071Y-13639357D01*
X7155357Y-13696500D01*
X7155357Y-13767929D01*
X7141071Y-13825071D01*
X7126786Y-13853643D01*
X7112500Y-13867929D01*
X7083928Y-13882214D01*
X7055357Y-13882214D01*
X7026786Y-13867929D01*
X7012500Y-13853643D01*
X6998214Y-13825071D01*
X6983928Y-13767929D01*
X6983928Y-13696500D01*
X6998214Y-13639357D01*
X7012500Y-13610786D01*
X7026786Y-13596500D01*
X7055357Y-13582214D01*
X7283928Y-13882214D02*
X7283928Y-13682214D01*
X7283928Y-13710786D02*
X7298214Y-13696500D01*
X7326786Y-13682214D01*
X7369643Y-13682214D01*
X7398214Y-13696500D01*
X7412500Y-13725071D01*
X7412500Y-13882214D01*
X7412500Y-13725071D02*
X7426786Y-13696500D01*
X7455357Y-13682214D01*
X7498214Y-13682214D01*
X7526786Y-13696500D01*
X7541071Y-13725071D01*
X7541071Y-13882214D01*
X7683928Y-13882214D02*
X7683928Y-13682214D01*
X7683928Y-13710786D02*
X7698214Y-13696500D01*
X7726786Y-13682214D01*
X7769643Y-13682214D01*
X7798214Y-13696500D01*
X7812500Y-13725071D01*
X7812500Y-13882214D01*
X7812500Y-13725071D02*
X7826786Y-13696500D01*
X7855357Y-13682214D01*
X7898214Y-13682214D01*
X7926786Y-13696500D01*
X7941071Y-13725071D01*
X7941071Y-13882214D01*
X8526786Y-13567929D02*
X8269643Y-13953643D01*
X8912500Y-13582214D02*
X8941071Y-13582214D01*
X8969643Y-13596500D01*
X8983928Y-13610786D01*
X8998214Y-13639357D01*
X9012500Y-13696500D01*
X9012500Y-13767929D01*
X8998214Y-13825071D01*
X8983928Y-13853643D01*
X8969643Y-13867929D01*
X8941071Y-13882214D01*
X8912500Y-13882214D01*
X8883928Y-13867929D01*
X8869643Y-13853643D01*
X8855357Y-13825071D01*
X8841071Y-13767929D01*
X8841071Y-13696500D01*
X8855357Y-13639357D01*
X8869643Y-13610786D01*
X8883928Y-13596500D01*
X8912500Y-13582214D01*
X9141071Y-13853643D02*
X9155357Y-13867929D01*
X9141071Y-13882214D01*
X9126786Y-13867929D01*
X9141071Y-13853643D01*
X9141071Y-13882214D01*
X9341071Y-13582214D02*
X9369643Y-13582214D01*
X9398214Y-13596500D01*
X9412500Y-13610786D01*
X9426786Y-13639357D01*
X9441071Y-13696500D01*
X9441071Y-13767929D01*
X9426786Y-13825071D01*
X9412500Y-13853643D01*
X9398214Y-13867929D01*
X9369643Y-13882214D01*
X9341071Y-13882214D01*
X9312500Y-13867929D01*
X9298214Y-13853643D01*
X9283928Y-13825071D01*
X9269643Y-13767929D01*
X9269643Y-13696500D01*
X9283928Y-13639357D01*
X9298214Y-13610786D01*
X9312500Y-13596500D01*
X9341071Y-13582214D01*
X9583928Y-13882214D02*
X9641071Y-13882214D01*
X9669643Y-13867929D01*
X9683928Y-13853643D01*
X9712500Y-13810786D01*
X9726786Y-13753643D01*
X9726786Y-13639357D01*
X9712500Y-13610786D01*
X9698214Y-13596500D01*
X9669643Y-13582214D01*
X9612500Y-13582214D01*
X9583928Y-13596500D01*
X9569643Y-13610786D01*
X9555357Y-13639357D01*
X9555357Y-13710786D01*
X9569643Y-13739357D01*
X9583928Y-13753643D01*
X9612500Y-13767929D01*
X9669643Y-13767929D01*
X9698214Y-13753643D01*
X9712500Y-13739357D01*
X9726786Y-13710786D01*
X10012500Y-13882214D02*
X9841071Y-13882214D01*
X9926786Y-13882214D02*
X9926786Y-13582214D01*
X9898214Y-13625071D01*
X9869643Y-13653643D01*
X9841071Y-13667929D01*
X10126786Y-13582214D02*
X10126786Y-13639357D01*
X10241071Y-13582214D02*
X10241071Y-13639357D01*
X10683928Y-13996500D02*
X10669643Y-13982214D01*
X10641071Y-13939357D01*
X10626786Y-13910786D01*
X10612500Y-13867929D01*
X10598214Y-13796500D01*
X10598214Y-13739357D01*
X10612500Y-13667929D01*
X10626786Y-13625071D01*
X10641071Y-13596500D01*
X10669643Y-13553643D01*
X10683928Y-13539357D01*
X10783928Y-13610786D02*
X10798214Y-13596500D01*
X10826786Y-13582214D01*
X10898214Y-13582214D01*
X10926786Y-13596500D01*
X10941071Y-13610786D01*
X10955357Y-13639357D01*
X10955357Y-13667929D01*
X10941071Y-13710786D01*
X10769643Y-13882214D01*
X10955357Y-13882214D01*
X11312500Y-13882214D02*
X11312500Y-13582214D01*
X11441071Y-13882214D02*
X11441071Y-13725071D01*
X11426786Y-13696500D01*
X11398214Y-13682214D01*
X11355357Y-13682214D01*
X11326786Y-13696500D01*
X11312500Y-13710786D01*
X11626786Y-13882214D02*
X11598214Y-13867929D01*
X11583928Y-13853643D01*
X11569643Y-13825071D01*
X11569643Y-13739357D01*
X11583928Y-13710786D01*
X11598214Y-13696500D01*
X11626786Y-13682214D01*
X11669643Y-13682214D01*
X11698214Y-13696500D01*
X11712500Y-13710786D01*
X11726786Y-13739357D01*
X11726786Y-13825071D01*
X11712500Y-13853643D01*
X11698214Y-13867929D01*
X11669643Y-13882214D01*
X11626786Y-13882214D01*
X11898214Y-13882214D02*
X11869643Y-13867929D01*
X11855357Y-13839357D01*
X11855357Y-13582214D01*
X12126786Y-13867929D02*
X12098214Y-13882214D01*
X12041071Y-13882214D01*
X12012500Y-13867929D01*
X11998214Y-13839357D01*
X11998214Y-13725071D01*
X12012500Y-13696500D01*
X12041071Y-13682214D01*
X12098214Y-13682214D01*
X12126786Y-13696500D01*
X12141071Y-13725071D01*
X12141071Y-13753643D01*
X11998214Y-13782214D01*
X12255357Y-13867929D02*
X12283928Y-13882214D01*
X12341071Y-13882214D01*
X12369643Y-13867929D01*
X12383928Y-13839357D01*
X12383928Y-13825071D01*
X12369643Y-13796500D01*
X12341071Y-13782214D01*
X12298214Y-13782214D01*
X12269643Y-13767929D01*
X12255357Y-13739357D01*
X12255357Y-13725071D01*
X12269643Y-13696500D01*
X12298214Y-13682214D01*
X12341071Y-13682214D01*
X12369643Y-13696500D01*
X12483928Y-13996500D02*
X12498214Y-13982214D01*
X12526786Y-13939357D01*
X12541071Y-13910786D01*
X12555357Y-13867929D01*
X12569643Y-13796500D01*
X12569643Y-13739357D01*
X12555357Y-13667929D01*
X12541071Y-13625071D01*
X12526786Y-13596500D01*
X12498214Y-13553643D01*
X12483928Y-13539357D01*
X5677500Y-13982500D02*
X5997500Y-14302500D01*
X5997500Y-13982500D02*
X5677500Y-14302500D01*
X5997500Y-14142500D02*
G75*
G03X5997500Y-14142500I-160000J0D01*
G01*
X6255357Y-13978214D02*
X6441071Y-13978214D01*
X6341071Y-14092500D01*
X6383928Y-14092500D01*
X6412500Y-14106786D01*
X6426786Y-14121071D01*
X6441071Y-14149643D01*
X6441071Y-14221071D01*
X6426786Y-14249643D01*
X6412500Y-14263929D01*
X6383928Y-14278214D01*
X6298214Y-14278214D01*
X6269643Y-14263929D01*
X6255357Y-14249643D01*
X6569643Y-14249643D02*
X6583928Y-14263929D01*
X6569643Y-14278214D01*
X6555357Y-14263929D01*
X6569643Y-14249643D01*
X6569643Y-14278214D01*
X6698214Y-14006786D02*
X6712500Y-13992500D01*
X6741071Y-13978214D01*
X6812500Y-13978214D01*
X6841071Y-13992500D01*
X6855357Y-14006786D01*
X6869643Y-14035357D01*
X6869643Y-14063929D01*
X6855357Y-14106786D01*
X6683928Y-14278214D01*
X6869643Y-14278214D01*
X7055357Y-13978214D02*
X7083928Y-13978214D01*
X7112500Y-13992500D01*
X7126786Y-14006786D01*
X7141071Y-14035357D01*
X7155357Y-14092500D01*
X7155357Y-14163929D01*
X7141071Y-14221071D01*
X7126786Y-14249643D01*
X7112500Y-14263929D01*
X7083928Y-14278214D01*
X7055357Y-14278214D01*
X7026786Y-14263929D01*
X7012500Y-14249643D01*
X6998214Y-14221071D01*
X6983928Y-14163929D01*
X6983928Y-14092500D01*
X6998214Y-14035357D01*
X7012500Y-14006786D01*
X7026786Y-13992500D01*
X7055357Y-13978214D01*
X7283928Y-14278214D02*
X7283928Y-14078214D01*
X7283928Y-14106786D02*
X7298214Y-14092500D01*
X7326786Y-14078214D01*
X7369643Y-14078214D01*
X7398214Y-14092500D01*
X7412500Y-14121071D01*
X7412500Y-14278214D01*
X7412500Y-14121071D02*
X7426786Y-14092500D01*
X7455357Y-14078214D01*
X7498214Y-14078214D01*
X7526786Y-14092500D01*
X7541071Y-14121071D01*
X7541071Y-14278214D01*
X7683928Y-14278214D02*
X7683928Y-14078214D01*
X7683928Y-14106786D02*
X7698214Y-14092500D01*
X7726786Y-14078214D01*
X7769643Y-14078214D01*
X7798214Y-14092500D01*
X7812500Y-14121071D01*
X7812500Y-14278214D01*
X7812500Y-14121071D02*
X7826786Y-14092500D01*
X7855357Y-14078214D01*
X7898214Y-14078214D01*
X7926786Y-14092500D01*
X7941071Y-14121071D01*
X7941071Y-14278214D01*
X8526786Y-13963929D02*
X8269643Y-14349643D01*
X8912500Y-13978214D02*
X8941071Y-13978214D01*
X8969643Y-13992500D01*
X8983928Y-14006786D01*
X8998214Y-14035357D01*
X9012500Y-14092500D01*
X9012500Y-14163929D01*
X8998214Y-14221071D01*
X8983928Y-14249643D01*
X8969643Y-14263929D01*
X8941071Y-14278214D01*
X8912500Y-14278214D01*
X8883928Y-14263929D01*
X8869643Y-14249643D01*
X8855357Y-14221071D01*
X8841071Y-14163929D01*
X8841071Y-14092500D01*
X8855357Y-14035357D01*
X8869643Y-14006786D01*
X8883928Y-13992500D01*
X8912500Y-13978214D01*
X9141071Y-14249643D02*
X9155357Y-14263929D01*
X9141071Y-14278214D01*
X9126786Y-14263929D01*
X9141071Y-14249643D01*
X9141071Y-14278214D01*
X9441071Y-14278214D02*
X9269643Y-14278214D01*
X9355357Y-14278214D02*
X9355357Y-13978214D01*
X9326786Y-14021071D01*
X9298214Y-14049643D01*
X9269643Y-14063929D01*
X9555357Y-14006786D02*
X9569643Y-13992500D01*
X9598214Y-13978214D01*
X9669643Y-13978214D01*
X9698214Y-13992500D01*
X9712500Y-14006786D01*
X9726786Y-14035357D01*
X9726786Y-14063929D01*
X9712500Y-14106786D01*
X9541071Y-14278214D01*
X9726786Y-14278214D01*
X9983928Y-13978214D02*
X9926786Y-13978214D01*
X9898214Y-13992500D01*
X9883928Y-14006786D01*
X9855357Y-14049643D01*
X9841071Y-14106786D01*
X9841071Y-14221071D01*
X9855357Y-14249643D01*
X9869643Y-14263929D01*
X9898214Y-14278214D01*
X9955357Y-14278214D01*
X9983928Y-14263929D01*
X9998214Y-14249643D01*
X10012500Y-14221071D01*
X10012500Y-14149643D01*
X9998214Y-14121071D01*
X9983928Y-14106786D01*
X9955357Y-14092500D01*
X9898214Y-14092500D01*
X9869643Y-14106786D01*
X9855357Y-14121071D01*
X9841071Y-14149643D01*
X10126786Y-13978214D02*
X10126786Y-14035357D01*
X10241071Y-13978214D02*
X10241071Y-14035357D01*
X10683928Y-14392500D02*
X10669643Y-14378214D01*
X10641071Y-14335357D01*
X10626786Y-14306786D01*
X10612500Y-14263929D01*
X10598214Y-14192500D01*
X10598214Y-14135357D01*
X10612500Y-14063929D01*
X10626786Y-14021071D01*
X10641071Y-13992500D01*
X10669643Y-13949643D01*
X10683928Y-13935357D01*
X10926786Y-14078214D02*
X10926786Y-14278214D01*
X10855357Y-13963929D02*
X10783928Y-14178214D01*
X10969643Y-14178214D01*
X11312500Y-14278214D02*
X11312500Y-13978214D01*
X11441071Y-14278214D02*
X11441071Y-14121071D01*
X11426786Y-14092500D01*
X11398214Y-14078214D01*
X11355357Y-14078214D01*
X11326786Y-14092500D01*
X11312500Y-14106786D01*
X11626786Y-14278214D02*
X11598214Y-14263929D01*
X11583928Y-14249643D01*
X11569643Y-14221071D01*
X11569643Y-14135357D01*
X11583928Y-14106786D01*
X11598214Y-14092500D01*
X11626786Y-14078214D01*
X11669643Y-14078214D01*
X11698214Y-14092500D01*
X11712500Y-14106786D01*
X11726786Y-14135357D01*
X11726786Y-14221071D01*
X11712500Y-14249643D01*
X11698214Y-14263929D01*
X11669643Y-14278214D01*
X11626786Y-14278214D01*
X11898214Y-14278214D02*
X11869643Y-14263929D01*
X11855357Y-14235357D01*
X11855357Y-13978214D01*
X12126786Y-14263929D02*
X12098214Y-14278214D01*
X12041071Y-14278214D01*
X12012500Y-14263929D01*
X11998214Y-14235357D01*
X11998214Y-14121071D01*
X12012500Y-14092500D01*
X12041071Y-14078214D01*
X12098214Y-14078214D01*
X12126786Y-14092500D01*
X12141071Y-14121071D01*
X12141071Y-14149643D01*
X11998214Y-14178214D01*
X12255357Y-14263929D02*
X12283928Y-14278214D01*
X12341071Y-14278214D01*
X12369643Y-14263929D01*
X12383928Y-14235357D01*
X12383928Y-14221071D01*
X12369643Y-14192500D01*
X12341071Y-14178214D01*
X12298214Y-14178214D01*
X12269643Y-14163929D01*
X12255357Y-14135357D01*
X12255357Y-14121071D01*
X12269643Y-14092500D01*
X12298214Y-14078214D01*
X12341071Y-14078214D01*
X12369643Y-14092500D01*
X12483928Y-14392500D02*
X12498214Y-14378214D01*
X12526786Y-14335357D01*
X12541071Y-14306786D01*
X12555357Y-14263929D01*
X12569643Y-14192500D01*
X12569643Y-14135357D01*
X12555357Y-14063929D01*
X12541071Y-14021071D01*
X12526786Y-13992500D01*
X12498214Y-13949643D01*
X12483928Y-13935357D01*
M02*
