G04 #@! TF.GenerationSoftware,KiCad,Pcbnew,5.1.5+dfsg1-2build2*
G04 #@! TF.CreationDate,2020-09-30T09:27:11+02:00*
G04 #@! TF.ProjectId,Adaptateur,41646170-7461-4746-9575-722e6b696361,rev?*
G04 #@! TF.SameCoordinates,Original*
G04 #@! TF.FileFunction,Paste,Top*
G04 #@! TF.FilePolarity,Positive*
%FSLAX46Y46*%
G04 Gerber Fmt 4.6, Leading zero omitted, Abs format (unit mm)*
G04 Created by KiCad (PCBNEW 5.1.5+dfsg1-2build2) date 2020-09-30 09:27:11*
%MOMM*%
%LPD*%
G04 APERTURE LIST*
%ADD10C,0.100000*%
%ADD11R,0.450000X1.750000*%
%ADD12R,1.200000X2.200000*%
%ADD13R,2.750000X3.050000*%
G04 APERTURE END LIST*
D10*
G36*
X121229504Y-73026204D02*
G01*
X121253773Y-73029804D01*
X121277571Y-73035765D01*
X121300671Y-73044030D01*
X121322849Y-73054520D01*
X121343893Y-73067133D01*
X121363598Y-73081747D01*
X121381777Y-73098223D01*
X121398253Y-73116402D01*
X121412867Y-73136107D01*
X121425480Y-73157151D01*
X121435970Y-73179329D01*
X121444235Y-73202429D01*
X121450196Y-73226227D01*
X121453796Y-73250496D01*
X121455000Y-73275000D01*
X121455000Y-74525000D01*
X121453796Y-74549504D01*
X121450196Y-74573773D01*
X121444235Y-74597571D01*
X121435970Y-74620671D01*
X121425480Y-74642849D01*
X121412867Y-74663893D01*
X121398253Y-74683598D01*
X121381777Y-74701777D01*
X121363598Y-74718253D01*
X121343893Y-74732867D01*
X121322849Y-74745480D01*
X121300671Y-74755970D01*
X121277571Y-74764235D01*
X121253773Y-74770196D01*
X121229504Y-74773796D01*
X121205000Y-74775000D01*
X120280000Y-74775000D01*
X120255496Y-74773796D01*
X120231227Y-74770196D01*
X120207429Y-74764235D01*
X120184329Y-74755970D01*
X120162151Y-74745480D01*
X120141107Y-74732867D01*
X120121402Y-74718253D01*
X120103223Y-74701777D01*
X120086747Y-74683598D01*
X120072133Y-74663893D01*
X120059520Y-74642849D01*
X120049030Y-74620671D01*
X120040765Y-74597571D01*
X120034804Y-74573773D01*
X120031204Y-74549504D01*
X120030000Y-74525000D01*
X120030000Y-73275000D01*
X120031204Y-73250496D01*
X120034804Y-73226227D01*
X120040765Y-73202429D01*
X120049030Y-73179329D01*
X120059520Y-73157151D01*
X120072133Y-73136107D01*
X120086747Y-73116402D01*
X120103223Y-73098223D01*
X120121402Y-73081747D01*
X120141107Y-73067133D01*
X120162151Y-73054520D01*
X120184329Y-73044030D01*
X120207429Y-73035765D01*
X120231227Y-73029804D01*
X120255496Y-73026204D01*
X120280000Y-73025000D01*
X121205000Y-73025000D01*
X121229504Y-73026204D01*
G37*
G36*
X124204504Y-73026204D02*
G01*
X124228773Y-73029804D01*
X124252571Y-73035765D01*
X124275671Y-73044030D01*
X124297849Y-73054520D01*
X124318893Y-73067133D01*
X124338598Y-73081747D01*
X124356777Y-73098223D01*
X124373253Y-73116402D01*
X124387867Y-73136107D01*
X124400480Y-73157151D01*
X124410970Y-73179329D01*
X124419235Y-73202429D01*
X124425196Y-73226227D01*
X124428796Y-73250496D01*
X124430000Y-73275000D01*
X124430000Y-74525000D01*
X124428796Y-74549504D01*
X124425196Y-74573773D01*
X124419235Y-74597571D01*
X124410970Y-74620671D01*
X124400480Y-74642849D01*
X124387867Y-74663893D01*
X124373253Y-74683598D01*
X124356777Y-74701777D01*
X124338598Y-74718253D01*
X124318893Y-74732867D01*
X124297849Y-74745480D01*
X124275671Y-74755970D01*
X124252571Y-74764235D01*
X124228773Y-74770196D01*
X124204504Y-74773796D01*
X124180000Y-74775000D01*
X123255000Y-74775000D01*
X123230496Y-74773796D01*
X123206227Y-74770196D01*
X123182429Y-74764235D01*
X123159329Y-74755970D01*
X123137151Y-74745480D01*
X123116107Y-74732867D01*
X123096402Y-74718253D01*
X123078223Y-74701777D01*
X123061747Y-74683598D01*
X123047133Y-74663893D01*
X123034520Y-74642849D01*
X123024030Y-74620671D01*
X123015765Y-74597571D01*
X123009804Y-74573773D01*
X123006204Y-74549504D01*
X123005000Y-74525000D01*
X123005000Y-73275000D01*
X123006204Y-73250496D01*
X123009804Y-73226227D01*
X123015765Y-73202429D01*
X123024030Y-73179329D01*
X123034520Y-73157151D01*
X123047133Y-73136107D01*
X123061747Y-73116402D01*
X123078223Y-73098223D01*
X123096402Y-73081747D01*
X123116107Y-73067133D01*
X123137151Y-73054520D01*
X123159329Y-73044030D01*
X123182429Y-73035765D01*
X123206227Y-73029804D01*
X123230496Y-73026204D01*
X123255000Y-73025000D01*
X124180000Y-73025000D01*
X124204504Y-73026204D01*
G37*
G36*
X98749504Y-85671204D02*
G01*
X98773773Y-85674804D01*
X98797571Y-85680765D01*
X98820671Y-85689030D01*
X98842849Y-85699520D01*
X98863893Y-85712133D01*
X98883598Y-85726747D01*
X98901777Y-85743223D01*
X98918253Y-85761402D01*
X98932867Y-85781107D01*
X98945480Y-85802151D01*
X98955970Y-85824329D01*
X98964235Y-85847429D01*
X98970196Y-85871227D01*
X98973796Y-85895496D01*
X98975000Y-85920000D01*
X98975000Y-86845000D01*
X98973796Y-86869504D01*
X98970196Y-86893773D01*
X98964235Y-86917571D01*
X98955970Y-86940671D01*
X98945480Y-86962849D01*
X98932867Y-86983893D01*
X98918253Y-87003598D01*
X98901777Y-87021777D01*
X98883598Y-87038253D01*
X98863893Y-87052867D01*
X98842849Y-87065480D01*
X98820671Y-87075970D01*
X98797571Y-87084235D01*
X98773773Y-87090196D01*
X98749504Y-87093796D01*
X98725000Y-87095000D01*
X97475000Y-87095000D01*
X97450496Y-87093796D01*
X97426227Y-87090196D01*
X97402429Y-87084235D01*
X97379329Y-87075970D01*
X97357151Y-87065480D01*
X97336107Y-87052867D01*
X97316402Y-87038253D01*
X97298223Y-87021777D01*
X97281747Y-87003598D01*
X97267133Y-86983893D01*
X97254520Y-86962849D01*
X97244030Y-86940671D01*
X97235765Y-86917571D01*
X97229804Y-86893773D01*
X97226204Y-86869504D01*
X97225000Y-86845000D01*
X97225000Y-85920000D01*
X97226204Y-85895496D01*
X97229804Y-85871227D01*
X97235765Y-85847429D01*
X97244030Y-85824329D01*
X97254520Y-85802151D01*
X97267133Y-85781107D01*
X97281747Y-85761402D01*
X97298223Y-85743223D01*
X97316402Y-85726747D01*
X97336107Y-85712133D01*
X97357151Y-85699520D01*
X97379329Y-85689030D01*
X97402429Y-85680765D01*
X97426227Y-85674804D01*
X97450496Y-85671204D01*
X97475000Y-85670000D01*
X98725000Y-85670000D01*
X98749504Y-85671204D01*
G37*
G36*
X98749504Y-88646204D02*
G01*
X98773773Y-88649804D01*
X98797571Y-88655765D01*
X98820671Y-88664030D01*
X98842849Y-88674520D01*
X98863893Y-88687133D01*
X98883598Y-88701747D01*
X98901777Y-88718223D01*
X98918253Y-88736402D01*
X98932867Y-88756107D01*
X98945480Y-88777151D01*
X98955970Y-88799329D01*
X98964235Y-88822429D01*
X98970196Y-88846227D01*
X98973796Y-88870496D01*
X98975000Y-88895000D01*
X98975000Y-89820000D01*
X98973796Y-89844504D01*
X98970196Y-89868773D01*
X98964235Y-89892571D01*
X98955970Y-89915671D01*
X98945480Y-89937849D01*
X98932867Y-89958893D01*
X98918253Y-89978598D01*
X98901777Y-89996777D01*
X98883598Y-90013253D01*
X98863893Y-90027867D01*
X98842849Y-90040480D01*
X98820671Y-90050970D01*
X98797571Y-90059235D01*
X98773773Y-90065196D01*
X98749504Y-90068796D01*
X98725000Y-90070000D01*
X97475000Y-90070000D01*
X97450496Y-90068796D01*
X97426227Y-90065196D01*
X97402429Y-90059235D01*
X97379329Y-90050970D01*
X97357151Y-90040480D01*
X97336107Y-90027867D01*
X97316402Y-90013253D01*
X97298223Y-89996777D01*
X97281747Y-89978598D01*
X97267133Y-89958893D01*
X97254520Y-89937849D01*
X97244030Y-89915671D01*
X97235765Y-89892571D01*
X97229804Y-89868773D01*
X97226204Y-89844504D01*
X97225000Y-89820000D01*
X97225000Y-88895000D01*
X97226204Y-88870496D01*
X97229804Y-88846227D01*
X97235765Y-88822429D01*
X97244030Y-88799329D01*
X97254520Y-88777151D01*
X97267133Y-88756107D01*
X97281747Y-88736402D01*
X97298223Y-88718223D01*
X97316402Y-88701747D01*
X97336107Y-88687133D01*
X97357151Y-88674520D01*
X97379329Y-88664030D01*
X97402429Y-88655765D01*
X97426227Y-88649804D01*
X97450496Y-88646204D01*
X97475000Y-88645000D01*
X98725000Y-88645000D01*
X98749504Y-88646204D01*
G37*
G36*
X82469504Y-81616204D02*
G01*
X82493773Y-81619804D01*
X82517571Y-81625765D01*
X82540671Y-81634030D01*
X82562849Y-81644520D01*
X82583893Y-81657133D01*
X82603598Y-81671747D01*
X82621777Y-81688223D01*
X82638253Y-81706402D01*
X82652867Y-81726107D01*
X82665480Y-81747151D01*
X82675970Y-81769329D01*
X82684235Y-81792429D01*
X82690196Y-81816227D01*
X82693796Y-81840496D01*
X82695000Y-81865000D01*
X82695000Y-83715000D01*
X82693796Y-83739504D01*
X82690196Y-83763773D01*
X82684235Y-83787571D01*
X82675970Y-83810671D01*
X82665480Y-83832849D01*
X82652867Y-83853893D01*
X82638253Y-83873598D01*
X82621777Y-83891777D01*
X82603598Y-83908253D01*
X82583893Y-83922867D01*
X82562849Y-83935480D01*
X82540671Y-83945970D01*
X82517571Y-83954235D01*
X82493773Y-83960196D01*
X82469504Y-83963796D01*
X82445000Y-83965000D01*
X81445000Y-83965000D01*
X81420496Y-83963796D01*
X81396227Y-83960196D01*
X81372429Y-83954235D01*
X81349329Y-83945970D01*
X81327151Y-83935480D01*
X81306107Y-83922867D01*
X81286402Y-83908253D01*
X81268223Y-83891777D01*
X81251747Y-83873598D01*
X81237133Y-83853893D01*
X81224520Y-83832849D01*
X81214030Y-83810671D01*
X81205765Y-83787571D01*
X81199804Y-83763773D01*
X81196204Y-83739504D01*
X81195000Y-83715000D01*
X81195000Y-81865000D01*
X81196204Y-81840496D01*
X81199804Y-81816227D01*
X81205765Y-81792429D01*
X81214030Y-81769329D01*
X81224520Y-81747151D01*
X81237133Y-81726107D01*
X81251747Y-81706402D01*
X81268223Y-81688223D01*
X81286402Y-81671747D01*
X81306107Y-81657133D01*
X81327151Y-81644520D01*
X81349329Y-81634030D01*
X81372429Y-81625765D01*
X81396227Y-81619804D01*
X81420496Y-81616204D01*
X81445000Y-81615000D01*
X82445000Y-81615000D01*
X82469504Y-81616204D01*
G37*
G36*
X79219504Y-81616204D02*
G01*
X79243773Y-81619804D01*
X79267571Y-81625765D01*
X79290671Y-81634030D01*
X79312849Y-81644520D01*
X79333893Y-81657133D01*
X79353598Y-81671747D01*
X79371777Y-81688223D01*
X79388253Y-81706402D01*
X79402867Y-81726107D01*
X79415480Y-81747151D01*
X79425970Y-81769329D01*
X79434235Y-81792429D01*
X79440196Y-81816227D01*
X79443796Y-81840496D01*
X79445000Y-81865000D01*
X79445000Y-83715000D01*
X79443796Y-83739504D01*
X79440196Y-83763773D01*
X79434235Y-83787571D01*
X79425970Y-83810671D01*
X79415480Y-83832849D01*
X79402867Y-83853893D01*
X79388253Y-83873598D01*
X79371777Y-83891777D01*
X79353598Y-83908253D01*
X79333893Y-83922867D01*
X79312849Y-83935480D01*
X79290671Y-83945970D01*
X79267571Y-83954235D01*
X79243773Y-83960196D01*
X79219504Y-83963796D01*
X79195000Y-83965000D01*
X78195000Y-83965000D01*
X78170496Y-83963796D01*
X78146227Y-83960196D01*
X78122429Y-83954235D01*
X78099329Y-83945970D01*
X78077151Y-83935480D01*
X78056107Y-83922867D01*
X78036402Y-83908253D01*
X78018223Y-83891777D01*
X78001747Y-83873598D01*
X77987133Y-83853893D01*
X77974520Y-83832849D01*
X77964030Y-83810671D01*
X77955765Y-83787571D01*
X77949804Y-83763773D01*
X77946204Y-83739504D01*
X77945000Y-83715000D01*
X77945000Y-81865000D01*
X77946204Y-81840496D01*
X77949804Y-81816227D01*
X77955765Y-81792429D01*
X77964030Y-81769329D01*
X77974520Y-81747151D01*
X77987133Y-81726107D01*
X78001747Y-81706402D01*
X78018223Y-81688223D01*
X78036402Y-81671747D01*
X78056107Y-81657133D01*
X78077151Y-81644520D01*
X78099329Y-81634030D01*
X78122429Y-81625765D01*
X78146227Y-81619804D01*
X78170496Y-81616204D01*
X78195000Y-81615000D01*
X79195000Y-81615000D01*
X79219504Y-81616204D01*
G37*
G36*
X78484504Y-78106204D02*
G01*
X78508773Y-78109804D01*
X78532571Y-78115765D01*
X78555671Y-78124030D01*
X78577849Y-78134520D01*
X78598893Y-78147133D01*
X78618598Y-78161747D01*
X78636777Y-78178223D01*
X78653253Y-78196402D01*
X78667867Y-78216107D01*
X78680480Y-78237151D01*
X78690970Y-78259329D01*
X78699235Y-78282429D01*
X78705196Y-78306227D01*
X78708796Y-78330496D01*
X78710000Y-78355000D01*
X78710000Y-79605000D01*
X78708796Y-79629504D01*
X78705196Y-79653773D01*
X78699235Y-79677571D01*
X78690970Y-79700671D01*
X78680480Y-79722849D01*
X78667867Y-79743893D01*
X78653253Y-79763598D01*
X78636777Y-79781777D01*
X78618598Y-79798253D01*
X78598893Y-79812867D01*
X78577849Y-79825480D01*
X78555671Y-79835970D01*
X78532571Y-79844235D01*
X78508773Y-79850196D01*
X78484504Y-79853796D01*
X78460000Y-79855000D01*
X77535000Y-79855000D01*
X77510496Y-79853796D01*
X77486227Y-79850196D01*
X77462429Y-79844235D01*
X77439329Y-79835970D01*
X77417151Y-79825480D01*
X77396107Y-79812867D01*
X77376402Y-79798253D01*
X77358223Y-79781777D01*
X77341747Y-79763598D01*
X77327133Y-79743893D01*
X77314520Y-79722849D01*
X77304030Y-79700671D01*
X77295765Y-79677571D01*
X77289804Y-79653773D01*
X77286204Y-79629504D01*
X77285000Y-79605000D01*
X77285000Y-78355000D01*
X77286204Y-78330496D01*
X77289804Y-78306227D01*
X77295765Y-78282429D01*
X77304030Y-78259329D01*
X77314520Y-78237151D01*
X77327133Y-78216107D01*
X77341747Y-78196402D01*
X77358223Y-78178223D01*
X77376402Y-78161747D01*
X77396107Y-78147133D01*
X77417151Y-78134520D01*
X77439329Y-78124030D01*
X77462429Y-78115765D01*
X77486227Y-78109804D01*
X77510496Y-78106204D01*
X77535000Y-78105000D01*
X78460000Y-78105000D01*
X78484504Y-78106204D01*
G37*
G36*
X75509504Y-78106204D02*
G01*
X75533773Y-78109804D01*
X75557571Y-78115765D01*
X75580671Y-78124030D01*
X75602849Y-78134520D01*
X75623893Y-78147133D01*
X75643598Y-78161747D01*
X75661777Y-78178223D01*
X75678253Y-78196402D01*
X75692867Y-78216107D01*
X75705480Y-78237151D01*
X75715970Y-78259329D01*
X75724235Y-78282429D01*
X75730196Y-78306227D01*
X75733796Y-78330496D01*
X75735000Y-78355000D01*
X75735000Y-79605000D01*
X75733796Y-79629504D01*
X75730196Y-79653773D01*
X75724235Y-79677571D01*
X75715970Y-79700671D01*
X75705480Y-79722849D01*
X75692867Y-79743893D01*
X75678253Y-79763598D01*
X75661777Y-79781777D01*
X75643598Y-79798253D01*
X75623893Y-79812867D01*
X75602849Y-79825480D01*
X75580671Y-79835970D01*
X75557571Y-79844235D01*
X75533773Y-79850196D01*
X75509504Y-79853796D01*
X75485000Y-79855000D01*
X74560000Y-79855000D01*
X74535496Y-79853796D01*
X74511227Y-79850196D01*
X74487429Y-79844235D01*
X74464329Y-79835970D01*
X74442151Y-79825480D01*
X74421107Y-79812867D01*
X74401402Y-79798253D01*
X74383223Y-79781777D01*
X74366747Y-79763598D01*
X74352133Y-79743893D01*
X74339520Y-79722849D01*
X74329030Y-79700671D01*
X74320765Y-79677571D01*
X74314804Y-79653773D01*
X74311204Y-79629504D01*
X74310000Y-79605000D01*
X74310000Y-78355000D01*
X74311204Y-78330496D01*
X74314804Y-78306227D01*
X74320765Y-78282429D01*
X74329030Y-78259329D01*
X74339520Y-78237151D01*
X74352133Y-78216107D01*
X74366747Y-78196402D01*
X74383223Y-78178223D01*
X74401402Y-78161747D01*
X74421107Y-78147133D01*
X74442151Y-78134520D01*
X74464329Y-78124030D01*
X74487429Y-78115765D01*
X74511227Y-78109804D01*
X74535496Y-78106204D01*
X74560000Y-78105000D01*
X75485000Y-78105000D01*
X75509504Y-78106204D01*
G37*
G36*
X82294504Y-85726204D02*
G01*
X82318773Y-85729804D01*
X82342571Y-85735765D01*
X82365671Y-85744030D01*
X82387849Y-85754520D01*
X82408893Y-85767133D01*
X82428598Y-85781747D01*
X82446777Y-85798223D01*
X82463253Y-85816402D01*
X82477867Y-85836107D01*
X82490480Y-85857151D01*
X82500970Y-85879329D01*
X82509235Y-85902429D01*
X82515196Y-85926227D01*
X82518796Y-85950496D01*
X82520000Y-85975000D01*
X82520000Y-87225000D01*
X82518796Y-87249504D01*
X82515196Y-87273773D01*
X82509235Y-87297571D01*
X82500970Y-87320671D01*
X82490480Y-87342849D01*
X82477867Y-87363893D01*
X82463253Y-87383598D01*
X82446777Y-87401777D01*
X82428598Y-87418253D01*
X82408893Y-87432867D01*
X82387849Y-87445480D01*
X82365671Y-87455970D01*
X82342571Y-87464235D01*
X82318773Y-87470196D01*
X82294504Y-87473796D01*
X82270000Y-87475000D01*
X81345000Y-87475000D01*
X81320496Y-87473796D01*
X81296227Y-87470196D01*
X81272429Y-87464235D01*
X81249329Y-87455970D01*
X81227151Y-87445480D01*
X81206107Y-87432867D01*
X81186402Y-87418253D01*
X81168223Y-87401777D01*
X81151747Y-87383598D01*
X81137133Y-87363893D01*
X81124520Y-87342849D01*
X81114030Y-87320671D01*
X81105765Y-87297571D01*
X81099804Y-87273773D01*
X81096204Y-87249504D01*
X81095000Y-87225000D01*
X81095000Y-85975000D01*
X81096204Y-85950496D01*
X81099804Y-85926227D01*
X81105765Y-85902429D01*
X81114030Y-85879329D01*
X81124520Y-85857151D01*
X81137133Y-85836107D01*
X81151747Y-85816402D01*
X81168223Y-85798223D01*
X81186402Y-85781747D01*
X81206107Y-85767133D01*
X81227151Y-85754520D01*
X81249329Y-85744030D01*
X81272429Y-85735765D01*
X81296227Y-85729804D01*
X81320496Y-85726204D01*
X81345000Y-85725000D01*
X82270000Y-85725000D01*
X82294504Y-85726204D01*
G37*
G36*
X79319504Y-85726204D02*
G01*
X79343773Y-85729804D01*
X79367571Y-85735765D01*
X79390671Y-85744030D01*
X79412849Y-85754520D01*
X79433893Y-85767133D01*
X79453598Y-85781747D01*
X79471777Y-85798223D01*
X79488253Y-85816402D01*
X79502867Y-85836107D01*
X79515480Y-85857151D01*
X79525970Y-85879329D01*
X79534235Y-85902429D01*
X79540196Y-85926227D01*
X79543796Y-85950496D01*
X79545000Y-85975000D01*
X79545000Y-87225000D01*
X79543796Y-87249504D01*
X79540196Y-87273773D01*
X79534235Y-87297571D01*
X79525970Y-87320671D01*
X79515480Y-87342849D01*
X79502867Y-87363893D01*
X79488253Y-87383598D01*
X79471777Y-87401777D01*
X79453598Y-87418253D01*
X79433893Y-87432867D01*
X79412849Y-87445480D01*
X79390671Y-87455970D01*
X79367571Y-87464235D01*
X79343773Y-87470196D01*
X79319504Y-87473796D01*
X79295000Y-87475000D01*
X78370000Y-87475000D01*
X78345496Y-87473796D01*
X78321227Y-87470196D01*
X78297429Y-87464235D01*
X78274329Y-87455970D01*
X78252151Y-87445480D01*
X78231107Y-87432867D01*
X78211402Y-87418253D01*
X78193223Y-87401777D01*
X78176747Y-87383598D01*
X78162133Y-87363893D01*
X78149520Y-87342849D01*
X78139030Y-87320671D01*
X78130765Y-87297571D01*
X78124804Y-87273773D01*
X78121204Y-87249504D01*
X78120000Y-87225000D01*
X78120000Y-85975000D01*
X78121204Y-85950496D01*
X78124804Y-85926227D01*
X78130765Y-85902429D01*
X78139030Y-85879329D01*
X78149520Y-85857151D01*
X78162133Y-85836107D01*
X78176747Y-85816402D01*
X78193223Y-85798223D01*
X78211402Y-85781747D01*
X78231107Y-85767133D01*
X78252151Y-85754520D01*
X78274329Y-85744030D01*
X78297429Y-85735765D01*
X78321227Y-85729804D01*
X78345496Y-85726204D01*
X78370000Y-85725000D01*
X79295000Y-85725000D01*
X79319504Y-85726204D01*
G37*
D11*
X87525000Y-106710000D03*
X88175000Y-106710000D03*
X88825000Y-106710000D03*
X89475000Y-106710000D03*
X90125000Y-106710000D03*
X90775000Y-106710000D03*
X91425000Y-106710000D03*
X92075000Y-106710000D03*
X92725000Y-106710000D03*
X93375000Y-106710000D03*
X94025000Y-106710000D03*
X94675000Y-106710000D03*
X95325000Y-106710000D03*
X95975000Y-106710000D03*
X95975000Y-99510000D03*
X95325000Y-99510000D03*
X94675000Y-99510000D03*
X94025000Y-99510000D03*
X93375000Y-99510000D03*
X92725000Y-99510000D03*
X92075000Y-99510000D03*
X91425000Y-99510000D03*
X90775000Y-99510000D03*
X90125000Y-99510000D03*
X89475000Y-99510000D03*
X88825000Y-99510000D03*
X88175000Y-99510000D03*
X87525000Y-99510000D03*
D10*
G36*
X93929505Y-87966204D02*
G01*
X93953773Y-87969804D01*
X93977572Y-87975765D01*
X94000671Y-87984030D01*
X94022850Y-87994520D01*
X94043893Y-88007132D01*
X94063599Y-88021747D01*
X94081777Y-88038223D01*
X94098253Y-88056401D01*
X94112868Y-88076107D01*
X94125480Y-88097150D01*
X94135970Y-88119329D01*
X94144235Y-88142428D01*
X94150196Y-88166227D01*
X94153796Y-88190495D01*
X94155000Y-88214999D01*
X94155000Y-90065001D01*
X94153796Y-90089505D01*
X94150196Y-90113773D01*
X94144235Y-90137572D01*
X94135970Y-90160671D01*
X94125480Y-90182850D01*
X94112868Y-90203893D01*
X94098253Y-90223599D01*
X94081777Y-90241777D01*
X94063599Y-90258253D01*
X94043893Y-90272868D01*
X94022850Y-90285480D01*
X94000671Y-90295970D01*
X93977572Y-90304235D01*
X93953773Y-90310196D01*
X93929505Y-90313796D01*
X93905001Y-90315000D01*
X92154999Y-90315000D01*
X92130495Y-90313796D01*
X92106227Y-90310196D01*
X92082428Y-90304235D01*
X92059329Y-90295970D01*
X92037150Y-90285480D01*
X92016107Y-90272868D01*
X91996401Y-90258253D01*
X91978223Y-90241777D01*
X91961747Y-90223599D01*
X91947132Y-90203893D01*
X91934520Y-90182850D01*
X91924030Y-90160671D01*
X91915765Y-90137572D01*
X91909804Y-90113773D01*
X91906204Y-90089505D01*
X91905000Y-90065001D01*
X91905000Y-88214999D01*
X91906204Y-88190495D01*
X91909804Y-88166227D01*
X91915765Y-88142428D01*
X91924030Y-88119329D01*
X91934520Y-88097150D01*
X91947132Y-88076107D01*
X91961747Y-88056401D01*
X91978223Y-88038223D01*
X91996401Y-88021747D01*
X92016107Y-88007132D01*
X92037150Y-87994520D01*
X92059329Y-87984030D01*
X92082428Y-87975765D01*
X92106227Y-87969804D01*
X92130495Y-87966204D01*
X92154999Y-87965000D01*
X93905001Y-87965000D01*
X93929505Y-87966204D01*
G37*
G36*
X88829505Y-87966204D02*
G01*
X88853773Y-87969804D01*
X88877572Y-87975765D01*
X88900671Y-87984030D01*
X88922850Y-87994520D01*
X88943893Y-88007132D01*
X88963599Y-88021747D01*
X88981777Y-88038223D01*
X88998253Y-88056401D01*
X89012868Y-88076107D01*
X89025480Y-88097150D01*
X89035970Y-88119329D01*
X89044235Y-88142428D01*
X89050196Y-88166227D01*
X89053796Y-88190495D01*
X89055000Y-88214999D01*
X89055000Y-90065001D01*
X89053796Y-90089505D01*
X89050196Y-90113773D01*
X89044235Y-90137572D01*
X89035970Y-90160671D01*
X89025480Y-90182850D01*
X89012868Y-90203893D01*
X88998253Y-90223599D01*
X88981777Y-90241777D01*
X88963599Y-90258253D01*
X88943893Y-90272868D01*
X88922850Y-90285480D01*
X88900671Y-90295970D01*
X88877572Y-90304235D01*
X88853773Y-90310196D01*
X88829505Y-90313796D01*
X88805001Y-90315000D01*
X87054999Y-90315000D01*
X87030495Y-90313796D01*
X87006227Y-90310196D01*
X86982428Y-90304235D01*
X86959329Y-90295970D01*
X86937150Y-90285480D01*
X86916107Y-90272868D01*
X86896401Y-90258253D01*
X86878223Y-90241777D01*
X86861747Y-90223599D01*
X86847132Y-90203893D01*
X86834520Y-90182850D01*
X86824030Y-90160671D01*
X86815765Y-90137572D01*
X86809804Y-90113773D01*
X86806204Y-90089505D01*
X86805000Y-90065001D01*
X86805000Y-88214999D01*
X86806204Y-88190495D01*
X86809804Y-88166227D01*
X86815765Y-88142428D01*
X86824030Y-88119329D01*
X86834520Y-88097150D01*
X86847132Y-88076107D01*
X86861747Y-88056401D01*
X86878223Y-88038223D01*
X86896401Y-88021747D01*
X86916107Y-88007132D01*
X86937150Y-87994520D01*
X86959329Y-87984030D01*
X86982428Y-87975765D01*
X87006227Y-87969804D01*
X87030495Y-87966204D01*
X87054999Y-87965000D01*
X88805001Y-87965000D01*
X88829505Y-87966204D01*
G37*
G36*
X73349504Y-102181204D02*
G01*
X73373773Y-102184804D01*
X73397571Y-102190765D01*
X73420671Y-102199030D01*
X73442849Y-102209520D01*
X73463893Y-102222133D01*
X73483598Y-102236747D01*
X73501777Y-102253223D01*
X73518253Y-102271402D01*
X73532867Y-102291107D01*
X73545480Y-102312151D01*
X73555970Y-102334329D01*
X73564235Y-102357429D01*
X73570196Y-102381227D01*
X73573796Y-102405496D01*
X73575000Y-102430000D01*
X73575000Y-103355000D01*
X73573796Y-103379504D01*
X73570196Y-103403773D01*
X73564235Y-103427571D01*
X73555970Y-103450671D01*
X73545480Y-103472849D01*
X73532867Y-103493893D01*
X73518253Y-103513598D01*
X73501777Y-103531777D01*
X73483598Y-103548253D01*
X73463893Y-103562867D01*
X73442849Y-103575480D01*
X73420671Y-103585970D01*
X73397571Y-103594235D01*
X73373773Y-103600196D01*
X73349504Y-103603796D01*
X73325000Y-103605000D01*
X72075000Y-103605000D01*
X72050496Y-103603796D01*
X72026227Y-103600196D01*
X72002429Y-103594235D01*
X71979329Y-103585970D01*
X71957151Y-103575480D01*
X71936107Y-103562867D01*
X71916402Y-103548253D01*
X71898223Y-103531777D01*
X71881747Y-103513598D01*
X71867133Y-103493893D01*
X71854520Y-103472849D01*
X71844030Y-103450671D01*
X71835765Y-103427571D01*
X71829804Y-103403773D01*
X71826204Y-103379504D01*
X71825000Y-103355000D01*
X71825000Y-102430000D01*
X71826204Y-102405496D01*
X71829804Y-102381227D01*
X71835765Y-102357429D01*
X71844030Y-102334329D01*
X71854520Y-102312151D01*
X71867133Y-102291107D01*
X71881747Y-102271402D01*
X71898223Y-102253223D01*
X71916402Y-102236747D01*
X71936107Y-102222133D01*
X71957151Y-102209520D01*
X71979329Y-102199030D01*
X72002429Y-102190765D01*
X72026227Y-102184804D01*
X72050496Y-102181204D01*
X72075000Y-102180000D01*
X73325000Y-102180000D01*
X73349504Y-102181204D01*
G37*
G36*
X73349504Y-105156204D02*
G01*
X73373773Y-105159804D01*
X73397571Y-105165765D01*
X73420671Y-105174030D01*
X73442849Y-105184520D01*
X73463893Y-105197133D01*
X73483598Y-105211747D01*
X73501777Y-105228223D01*
X73518253Y-105246402D01*
X73532867Y-105266107D01*
X73545480Y-105287151D01*
X73555970Y-105309329D01*
X73564235Y-105332429D01*
X73570196Y-105356227D01*
X73573796Y-105380496D01*
X73575000Y-105405000D01*
X73575000Y-106330000D01*
X73573796Y-106354504D01*
X73570196Y-106378773D01*
X73564235Y-106402571D01*
X73555970Y-106425671D01*
X73545480Y-106447849D01*
X73532867Y-106468893D01*
X73518253Y-106488598D01*
X73501777Y-106506777D01*
X73483598Y-106523253D01*
X73463893Y-106537867D01*
X73442849Y-106550480D01*
X73420671Y-106560970D01*
X73397571Y-106569235D01*
X73373773Y-106575196D01*
X73349504Y-106578796D01*
X73325000Y-106580000D01*
X72075000Y-106580000D01*
X72050496Y-106578796D01*
X72026227Y-106575196D01*
X72002429Y-106569235D01*
X71979329Y-106560970D01*
X71957151Y-106550480D01*
X71936107Y-106537867D01*
X71916402Y-106523253D01*
X71898223Y-106506777D01*
X71881747Y-106488598D01*
X71867133Y-106468893D01*
X71854520Y-106447849D01*
X71844030Y-106425671D01*
X71835765Y-106402571D01*
X71829804Y-106378773D01*
X71826204Y-106354504D01*
X71825000Y-106330000D01*
X71825000Y-105405000D01*
X71826204Y-105380496D01*
X71829804Y-105356227D01*
X71835765Y-105332429D01*
X71844030Y-105309329D01*
X71854520Y-105287151D01*
X71867133Y-105266107D01*
X71881747Y-105246402D01*
X71898223Y-105228223D01*
X71916402Y-105211747D01*
X71936107Y-105197133D01*
X71957151Y-105184520D01*
X71979329Y-105174030D01*
X72002429Y-105165765D01*
X72026227Y-105159804D01*
X72050496Y-105156204D01*
X72075000Y-105155000D01*
X73325000Y-105155000D01*
X73349504Y-105156204D01*
G37*
G36*
X79699504Y-105156204D02*
G01*
X79723773Y-105159804D01*
X79747571Y-105165765D01*
X79770671Y-105174030D01*
X79792849Y-105184520D01*
X79813893Y-105197133D01*
X79833598Y-105211747D01*
X79851777Y-105228223D01*
X79868253Y-105246402D01*
X79882867Y-105266107D01*
X79895480Y-105287151D01*
X79905970Y-105309329D01*
X79914235Y-105332429D01*
X79920196Y-105356227D01*
X79923796Y-105380496D01*
X79925000Y-105405000D01*
X79925000Y-106330000D01*
X79923796Y-106354504D01*
X79920196Y-106378773D01*
X79914235Y-106402571D01*
X79905970Y-106425671D01*
X79895480Y-106447849D01*
X79882867Y-106468893D01*
X79868253Y-106488598D01*
X79851777Y-106506777D01*
X79833598Y-106523253D01*
X79813893Y-106537867D01*
X79792849Y-106550480D01*
X79770671Y-106560970D01*
X79747571Y-106569235D01*
X79723773Y-106575196D01*
X79699504Y-106578796D01*
X79675000Y-106580000D01*
X78425000Y-106580000D01*
X78400496Y-106578796D01*
X78376227Y-106575196D01*
X78352429Y-106569235D01*
X78329329Y-106560970D01*
X78307151Y-106550480D01*
X78286107Y-106537867D01*
X78266402Y-106523253D01*
X78248223Y-106506777D01*
X78231747Y-106488598D01*
X78217133Y-106468893D01*
X78204520Y-106447849D01*
X78194030Y-106425671D01*
X78185765Y-106402571D01*
X78179804Y-106378773D01*
X78176204Y-106354504D01*
X78175000Y-106330000D01*
X78175000Y-105405000D01*
X78176204Y-105380496D01*
X78179804Y-105356227D01*
X78185765Y-105332429D01*
X78194030Y-105309329D01*
X78204520Y-105287151D01*
X78217133Y-105266107D01*
X78231747Y-105246402D01*
X78248223Y-105228223D01*
X78266402Y-105211747D01*
X78286107Y-105197133D01*
X78307151Y-105184520D01*
X78329329Y-105174030D01*
X78352429Y-105165765D01*
X78376227Y-105159804D01*
X78400496Y-105156204D01*
X78425000Y-105155000D01*
X79675000Y-105155000D01*
X79699504Y-105156204D01*
G37*
G36*
X79699504Y-102181204D02*
G01*
X79723773Y-102184804D01*
X79747571Y-102190765D01*
X79770671Y-102199030D01*
X79792849Y-102209520D01*
X79813893Y-102222133D01*
X79833598Y-102236747D01*
X79851777Y-102253223D01*
X79868253Y-102271402D01*
X79882867Y-102291107D01*
X79895480Y-102312151D01*
X79905970Y-102334329D01*
X79914235Y-102357429D01*
X79920196Y-102381227D01*
X79923796Y-102405496D01*
X79925000Y-102430000D01*
X79925000Y-103355000D01*
X79923796Y-103379504D01*
X79920196Y-103403773D01*
X79914235Y-103427571D01*
X79905970Y-103450671D01*
X79895480Y-103472849D01*
X79882867Y-103493893D01*
X79868253Y-103513598D01*
X79851777Y-103531777D01*
X79833598Y-103548253D01*
X79813893Y-103562867D01*
X79792849Y-103575480D01*
X79770671Y-103585970D01*
X79747571Y-103594235D01*
X79723773Y-103600196D01*
X79699504Y-103603796D01*
X79675000Y-103605000D01*
X78425000Y-103605000D01*
X78400496Y-103603796D01*
X78376227Y-103600196D01*
X78352429Y-103594235D01*
X78329329Y-103585970D01*
X78307151Y-103575480D01*
X78286107Y-103562867D01*
X78266402Y-103548253D01*
X78248223Y-103531777D01*
X78231747Y-103513598D01*
X78217133Y-103493893D01*
X78204520Y-103472849D01*
X78194030Y-103450671D01*
X78185765Y-103427571D01*
X78179804Y-103403773D01*
X78176204Y-103379504D01*
X78175000Y-103355000D01*
X78175000Y-102430000D01*
X78176204Y-102405496D01*
X78179804Y-102381227D01*
X78185765Y-102357429D01*
X78194030Y-102334329D01*
X78204520Y-102312151D01*
X78217133Y-102291107D01*
X78231747Y-102271402D01*
X78248223Y-102253223D01*
X78266402Y-102236747D01*
X78286107Y-102222133D01*
X78307151Y-102209520D01*
X78329329Y-102199030D01*
X78352429Y-102190765D01*
X78376227Y-102184804D01*
X78400496Y-102181204D01*
X78425000Y-102180000D01*
X79675000Y-102180000D01*
X79699504Y-102181204D01*
G37*
G36*
X76339504Y-83131204D02*
G01*
X76363773Y-83134804D01*
X76387571Y-83140765D01*
X76410671Y-83149030D01*
X76432849Y-83159520D01*
X76453893Y-83172133D01*
X76473598Y-83186747D01*
X76491777Y-83203223D01*
X76508253Y-83221402D01*
X76522867Y-83241107D01*
X76535480Y-83262151D01*
X76545970Y-83284329D01*
X76554235Y-83307429D01*
X76560196Y-83331227D01*
X76563796Y-83355496D01*
X76565000Y-83380000D01*
X76565000Y-84305000D01*
X76563796Y-84329504D01*
X76560196Y-84353773D01*
X76554235Y-84377571D01*
X76545970Y-84400671D01*
X76535480Y-84422849D01*
X76522867Y-84443893D01*
X76508253Y-84463598D01*
X76491777Y-84481777D01*
X76473598Y-84498253D01*
X76453893Y-84512867D01*
X76432849Y-84525480D01*
X76410671Y-84535970D01*
X76387571Y-84544235D01*
X76363773Y-84550196D01*
X76339504Y-84553796D01*
X76315000Y-84555000D01*
X74165000Y-84555000D01*
X74140496Y-84553796D01*
X74116227Y-84550196D01*
X74092429Y-84544235D01*
X74069329Y-84535970D01*
X74047151Y-84525480D01*
X74026107Y-84512867D01*
X74006402Y-84498253D01*
X73988223Y-84481777D01*
X73971747Y-84463598D01*
X73957133Y-84443893D01*
X73944520Y-84422849D01*
X73934030Y-84400671D01*
X73925765Y-84377571D01*
X73919804Y-84353773D01*
X73916204Y-84329504D01*
X73915000Y-84305000D01*
X73915000Y-83380000D01*
X73916204Y-83355496D01*
X73919804Y-83331227D01*
X73925765Y-83307429D01*
X73934030Y-83284329D01*
X73944520Y-83262151D01*
X73957133Y-83241107D01*
X73971747Y-83221402D01*
X73988223Y-83203223D01*
X74006402Y-83186747D01*
X74026107Y-83172133D01*
X74047151Y-83159520D01*
X74069329Y-83149030D01*
X74092429Y-83140765D01*
X74116227Y-83134804D01*
X74140496Y-83131204D01*
X74165000Y-83130000D01*
X76315000Y-83130000D01*
X76339504Y-83131204D01*
G37*
G36*
X76339504Y-86106204D02*
G01*
X76363773Y-86109804D01*
X76387571Y-86115765D01*
X76410671Y-86124030D01*
X76432849Y-86134520D01*
X76453893Y-86147133D01*
X76473598Y-86161747D01*
X76491777Y-86178223D01*
X76508253Y-86196402D01*
X76522867Y-86216107D01*
X76535480Y-86237151D01*
X76545970Y-86259329D01*
X76554235Y-86282429D01*
X76560196Y-86306227D01*
X76563796Y-86330496D01*
X76565000Y-86355000D01*
X76565000Y-87280000D01*
X76563796Y-87304504D01*
X76560196Y-87328773D01*
X76554235Y-87352571D01*
X76545970Y-87375671D01*
X76535480Y-87397849D01*
X76522867Y-87418893D01*
X76508253Y-87438598D01*
X76491777Y-87456777D01*
X76473598Y-87473253D01*
X76453893Y-87487867D01*
X76432849Y-87500480D01*
X76410671Y-87510970D01*
X76387571Y-87519235D01*
X76363773Y-87525196D01*
X76339504Y-87528796D01*
X76315000Y-87530000D01*
X74165000Y-87530000D01*
X74140496Y-87528796D01*
X74116227Y-87525196D01*
X74092429Y-87519235D01*
X74069329Y-87510970D01*
X74047151Y-87500480D01*
X74026107Y-87487867D01*
X74006402Y-87473253D01*
X73988223Y-87456777D01*
X73971747Y-87438598D01*
X73957133Y-87418893D01*
X73944520Y-87397849D01*
X73934030Y-87375671D01*
X73925765Y-87352571D01*
X73919804Y-87328773D01*
X73916204Y-87304504D01*
X73915000Y-87280000D01*
X73915000Y-86355000D01*
X73916204Y-86330496D01*
X73919804Y-86306227D01*
X73925765Y-86282429D01*
X73934030Y-86259329D01*
X73944520Y-86237151D01*
X73957133Y-86216107D01*
X73971747Y-86196402D01*
X73988223Y-86178223D01*
X74006402Y-86161747D01*
X74026107Y-86147133D01*
X74047151Y-86134520D01*
X74069329Y-86124030D01*
X74092429Y-86115765D01*
X74116227Y-86109804D01*
X74140496Y-86106204D01*
X74165000Y-86105000D01*
X76315000Y-86105000D01*
X76339504Y-86106204D01*
G37*
G36*
X75889504Y-102181204D02*
G01*
X75913773Y-102184804D01*
X75937571Y-102190765D01*
X75960671Y-102199030D01*
X75982849Y-102209520D01*
X76003893Y-102222133D01*
X76023598Y-102236747D01*
X76041777Y-102253223D01*
X76058253Y-102271402D01*
X76072867Y-102291107D01*
X76085480Y-102312151D01*
X76095970Y-102334329D01*
X76104235Y-102357429D01*
X76110196Y-102381227D01*
X76113796Y-102405496D01*
X76115000Y-102430000D01*
X76115000Y-103355000D01*
X76113796Y-103379504D01*
X76110196Y-103403773D01*
X76104235Y-103427571D01*
X76095970Y-103450671D01*
X76085480Y-103472849D01*
X76072867Y-103493893D01*
X76058253Y-103513598D01*
X76041777Y-103531777D01*
X76023598Y-103548253D01*
X76003893Y-103562867D01*
X75982849Y-103575480D01*
X75960671Y-103585970D01*
X75937571Y-103594235D01*
X75913773Y-103600196D01*
X75889504Y-103603796D01*
X75865000Y-103605000D01*
X74615000Y-103605000D01*
X74590496Y-103603796D01*
X74566227Y-103600196D01*
X74542429Y-103594235D01*
X74519329Y-103585970D01*
X74497151Y-103575480D01*
X74476107Y-103562867D01*
X74456402Y-103548253D01*
X74438223Y-103531777D01*
X74421747Y-103513598D01*
X74407133Y-103493893D01*
X74394520Y-103472849D01*
X74384030Y-103450671D01*
X74375765Y-103427571D01*
X74369804Y-103403773D01*
X74366204Y-103379504D01*
X74365000Y-103355000D01*
X74365000Y-102430000D01*
X74366204Y-102405496D01*
X74369804Y-102381227D01*
X74375765Y-102357429D01*
X74384030Y-102334329D01*
X74394520Y-102312151D01*
X74407133Y-102291107D01*
X74421747Y-102271402D01*
X74438223Y-102253223D01*
X74456402Y-102236747D01*
X74476107Y-102222133D01*
X74497151Y-102209520D01*
X74519329Y-102199030D01*
X74542429Y-102190765D01*
X74566227Y-102184804D01*
X74590496Y-102181204D01*
X74615000Y-102180000D01*
X75865000Y-102180000D01*
X75889504Y-102181204D01*
G37*
G36*
X75889504Y-105156204D02*
G01*
X75913773Y-105159804D01*
X75937571Y-105165765D01*
X75960671Y-105174030D01*
X75982849Y-105184520D01*
X76003893Y-105197133D01*
X76023598Y-105211747D01*
X76041777Y-105228223D01*
X76058253Y-105246402D01*
X76072867Y-105266107D01*
X76085480Y-105287151D01*
X76095970Y-105309329D01*
X76104235Y-105332429D01*
X76110196Y-105356227D01*
X76113796Y-105380496D01*
X76115000Y-105405000D01*
X76115000Y-106330000D01*
X76113796Y-106354504D01*
X76110196Y-106378773D01*
X76104235Y-106402571D01*
X76095970Y-106425671D01*
X76085480Y-106447849D01*
X76072867Y-106468893D01*
X76058253Y-106488598D01*
X76041777Y-106506777D01*
X76023598Y-106523253D01*
X76003893Y-106537867D01*
X75982849Y-106550480D01*
X75960671Y-106560970D01*
X75937571Y-106569235D01*
X75913773Y-106575196D01*
X75889504Y-106578796D01*
X75865000Y-106580000D01*
X74615000Y-106580000D01*
X74590496Y-106578796D01*
X74566227Y-106575196D01*
X74542429Y-106569235D01*
X74519329Y-106560970D01*
X74497151Y-106550480D01*
X74476107Y-106537867D01*
X74456402Y-106523253D01*
X74438223Y-106506777D01*
X74421747Y-106488598D01*
X74407133Y-106468893D01*
X74394520Y-106447849D01*
X74384030Y-106425671D01*
X74375765Y-106402571D01*
X74369804Y-106378773D01*
X74366204Y-106354504D01*
X74365000Y-106330000D01*
X74365000Y-105405000D01*
X74366204Y-105380496D01*
X74369804Y-105356227D01*
X74375765Y-105332429D01*
X74384030Y-105309329D01*
X74394520Y-105287151D01*
X74407133Y-105266107D01*
X74421747Y-105246402D01*
X74438223Y-105228223D01*
X74456402Y-105211747D01*
X74476107Y-105197133D01*
X74497151Y-105184520D01*
X74519329Y-105174030D01*
X74542429Y-105165765D01*
X74566227Y-105159804D01*
X74590496Y-105156204D01*
X74615000Y-105155000D01*
X75865000Y-105155000D01*
X75889504Y-105156204D01*
G37*
G36*
X82239504Y-105156204D02*
G01*
X82263773Y-105159804D01*
X82287571Y-105165765D01*
X82310671Y-105174030D01*
X82332849Y-105184520D01*
X82353893Y-105197133D01*
X82373598Y-105211747D01*
X82391777Y-105228223D01*
X82408253Y-105246402D01*
X82422867Y-105266107D01*
X82435480Y-105287151D01*
X82445970Y-105309329D01*
X82454235Y-105332429D01*
X82460196Y-105356227D01*
X82463796Y-105380496D01*
X82465000Y-105405000D01*
X82465000Y-106330000D01*
X82463796Y-106354504D01*
X82460196Y-106378773D01*
X82454235Y-106402571D01*
X82445970Y-106425671D01*
X82435480Y-106447849D01*
X82422867Y-106468893D01*
X82408253Y-106488598D01*
X82391777Y-106506777D01*
X82373598Y-106523253D01*
X82353893Y-106537867D01*
X82332849Y-106550480D01*
X82310671Y-106560970D01*
X82287571Y-106569235D01*
X82263773Y-106575196D01*
X82239504Y-106578796D01*
X82215000Y-106580000D01*
X80965000Y-106580000D01*
X80940496Y-106578796D01*
X80916227Y-106575196D01*
X80892429Y-106569235D01*
X80869329Y-106560970D01*
X80847151Y-106550480D01*
X80826107Y-106537867D01*
X80806402Y-106523253D01*
X80788223Y-106506777D01*
X80771747Y-106488598D01*
X80757133Y-106468893D01*
X80744520Y-106447849D01*
X80734030Y-106425671D01*
X80725765Y-106402571D01*
X80719804Y-106378773D01*
X80716204Y-106354504D01*
X80715000Y-106330000D01*
X80715000Y-105405000D01*
X80716204Y-105380496D01*
X80719804Y-105356227D01*
X80725765Y-105332429D01*
X80734030Y-105309329D01*
X80744520Y-105287151D01*
X80757133Y-105266107D01*
X80771747Y-105246402D01*
X80788223Y-105228223D01*
X80806402Y-105211747D01*
X80826107Y-105197133D01*
X80847151Y-105184520D01*
X80869329Y-105174030D01*
X80892429Y-105165765D01*
X80916227Y-105159804D01*
X80940496Y-105156204D01*
X80965000Y-105155000D01*
X82215000Y-105155000D01*
X82239504Y-105156204D01*
G37*
G36*
X82239504Y-102181204D02*
G01*
X82263773Y-102184804D01*
X82287571Y-102190765D01*
X82310671Y-102199030D01*
X82332849Y-102209520D01*
X82353893Y-102222133D01*
X82373598Y-102236747D01*
X82391777Y-102253223D01*
X82408253Y-102271402D01*
X82422867Y-102291107D01*
X82435480Y-102312151D01*
X82445970Y-102334329D01*
X82454235Y-102357429D01*
X82460196Y-102381227D01*
X82463796Y-102405496D01*
X82465000Y-102430000D01*
X82465000Y-103355000D01*
X82463796Y-103379504D01*
X82460196Y-103403773D01*
X82454235Y-103427571D01*
X82445970Y-103450671D01*
X82435480Y-103472849D01*
X82422867Y-103493893D01*
X82408253Y-103513598D01*
X82391777Y-103531777D01*
X82373598Y-103548253D01*
X82353893Y-103562867D01*
X82332849Y-103575480D01*
X82310671Y-103585970D01*
X82287571Y-103594235D01*
X82263773Y-103600196D01*
X82239504Y-103603796D01*
X82215000Y-103605000D01*
X80965000Y-103605000D01*
X80940496Y-103603796D01*
X80916227Y-103600196D01*
X80892429Y-103594235D01*
X80869329Y-103585970D01*
X80847151Y-103575480D01*
X80826107Y-103562867D01*
X80806402Y-103548253D01*
X80788223Y-103531777D01*
X80771747Y-103513598D01*
X80757133Y-103493893D01*
X80744520Y-103472849D01*
X80734030Y-103450671D01*
X80725765Y-103427571D01*
X80719804Y-103403773D01*
X80716204Y-103379504D01*
X80715000Y-103355000D01*
X80715000Y-102430000D01*
X80716204Y-102405496D01*
X80719804Y-102381227D01*
X80725765Y-102357429D01*
X80734030Y-102334329D01*
X80744520Y-102312151D01*
X80757133Y-102291107D01*
X80771747Y-102271402D01*
X80788223Y-102253223D01*
X80806402Y-102236747D01*
X80826107Y-102222133D01*
X80847151Y-102209520D01*
X80869329Y-102199030D01*
X80892429Y-102190765D01*
X80916227Y-102184804D01*
X80940496Y-102181204D01*
X80965000Y-102180000D01*
X82215000Y-102180000D01*
X82239504Y-102181204D01*
G37*
D12*
X89470000Y-83180000D03*
X91750000Y-83180000D03*
X94030000Y-83180000D03*
D13*
X93275000Y-75205000D03*
X90225000Y-78555000D03*
X90225000Y-75205000D03*
X93275000Y-78555000D03*
D10*
G36*
X69793504Y-102144704D02*
G01*
X69817773Y-102148304D01*
X69841571Y-102154265D01*
X69864671Y-102162530D01*
X69886849Y-102173020D01*
X69907893Y-102185633D01*
X69927598Y-102200247D01*
X69945777Y-102216723D01*
X69962253Y-102234902D01*
X69976867Y-102254607D01*
X69989480Y-102275651D01*
X69999970Y-102297829D01*
X70008235Y-102320929D01*
X70014196Y-102344727D01*
X70017796Y-102368996D01*
X70019000Y-102393500D01*
X70019000Y-103318500D01*
X70017796Y-103343004D01*
X70014196Y-103367273D01*
X70008235Y-103391071D01*
X69999970Y-103414171D01*
X69989480Y-103436349D01*
X69976867Y-103457393D01*
X69962253Y-103477098D01*
X69945777Y-103495277D01*
X69927598Y-103511753D01*
X69907893Y-103526367D01*
X69886849Y-103538980D01*
X69864671Y-103549470D01*
X69841571Y-103557735D01*
X69817773Y-103563696D01*
X69793504Y-103567296D01*
X69769000Y-103568500D01*
X68519000Y-103568500D01*
X68494496Y-103567296D01*
X68470227Y-103563696D01*
X68446429Y-103557735D01*
X68423329Y-103549470D01*
X68401151Y-103538980D01*
X68380107Y-103526367D01*
X68360402Y-103511753D01*
X68342223Y-103495277D01*
X68325747Y-103477098D01*
X68311133Y-103457393D01*
X68298520Y-103436349D01*
X68288030Y-103414171D01*
X68279765Y-103391071D01*
X68273804Y-103367273D01*
X68270204Y-103343004D01*
X68269000Y-103318500D01*
X68269000Y-102393500D01*
X68270204Y-102368996D01*
X68273804Y-102344727D01*
X68279765Y-102320929D01*
X68288030Y-102297829D01*
X68298520Y-102275651D01*
X68311133Y-102254607D01*
X68325747Y-102234902D01*
X68342223Y-102216723D01*
X68360402Y-102200247D01*
X68380107Y-102185633D01*
X68401151Y-102173020D01*
X68423329Y-102162530D01*
X68446429Y-102154265D01*
X68470227Y-102148304D01*
X68494496Y-102144704D01*
X68519000Y-102143500D01*
X69769000Y-102143500D01*
X69793504Y-102144704D01*
G37*
G36*
X69793504Y-105119704D02*
G01*
X69817773Y-105123304D01*
X69841571Y-105129265D01*
X69864671Y-105137530D01*
X69886849Y-105148020D01*
X69907893Y-105160633D01*
X69927598Y-105175247D01*
X69945777Y-105191723D01*
X69962253Y-105209902D01*
X69976867Y-105229607D01*
X69989480Y-105250651D01*
X69999970Y-105272829D01*
X70008235Y-105295929D01*
X70014196Y-105319727D01*
X70017796Y-105343996D01*
X70019000Y-105368500D01*
X70019000Y-106293500D01*
X70017796Y-106318004D01*
X70014196Y-106342273D01*
X70008235Y-106366071D01*
X69999970Y-106389171D01*
X69989480Y-106411349D01*
X69976867Y-106432393D01*
X69962253Y-106452098D01*
X69945777Y-106470277D01*
X69927598Y-106486753D01*
X69907893Y-106501367D01*
X69886849Y-106513980D01*
X69864671Y-106524470D01*
X69841571Y-106532735D01*
X69817773Y-106538696D01*
X69793504Y-106542296D01*
X69769000Y-106543500D01*
X68519000Y-106543500D01*
X68494496Y-106542296D01*
X68470227Y-106538696D01*
X68446429Y-106532735D01*
X68423329Y-106524470D01*
X68401151Y-106513980D01*
X68380107Y-106501367D01*
X68360402Y-106486753D01*
X68342223Y-106470277D01*
X68325747Y-106452098D01*
X68311133Y-106432393D01*
X68298520Y-106411349D01*
X68288030Y-106389171D01*
X68279765Y-106366071D01*
X68273804Y-106342273D01*
X68270204Y-106318004D01*
X68269000Y-106293500D01*
X68269000Y-105368500D01*
X68270204Y-105343996D01*
X68273804Y-105319727D01*
X68279765Y-105295929D01*
X68288030Y-105272829D01*
X68298520Y-105250651D01*
X68311133Y-105229607D01*
X68325747Y-105209902D01*
X68342223Y-105191723D01*
X68360402Y-105175247D01*
X68380107Y-105160633D01*
X68401151Y-105148020D01*
X68423329Y-105137530D01*
X68446429Y-105129265D01*
X68470227Y-105123304D01*
X68494496Y-105119704D01*
X68519000Y-105118500D01*
X69769000Y-105118500D01*
X69793504Y-105119704D01*
G37*
M02*
