G04 #@! TF.GenerationSoftware,KiCad,Pcbnew,5.1.5+dfsg1-2build2*
G04 #@! TF.CreationDate,2020-09-30T09:27:11+02:00*
G04 #@! TF.ProjectId,Adaptateur,41646170-7461-4746-9575-722e6b696361,rev?*
G04 #@! TF.SameCoordinates,Original*
G04 #@! TF.FileFunction,Copper,L1,Top*
G04 #@! TF.FilePolarity,Positive*
%FSLAX46Y46*%
G04 Gerber Fmt 4.6, Leading zero omitted, Abs format (unit mm)*
G04 Created by KiCad (PCBNEW 5.1.5+dfsg1-2build2) date 2020-09-30 09:27:11*
%MOMM*%
%LPD*%
G04 APERTURE LIST*
%ADD10C,0.100000*%
%ADD11R,1.600000X1.600000*%
%ADD12C,1.600000*%
%ADD13C,4.000000*%
%ADD14R,0.450000X1.750000*%
%ADD15C,1.524000*%
%ADD16R,1.524000X1.524000*%
%ADD17R,1.200000X2.200000*%
%ADD18R,5.800000X6.400000*%
%ADD19C,1.000000*%
%ADD20C,0.800000*%
%ADD21C,1.270000*%
%ADD22C,0.635000*%
%ADD23C,0.304800*%
%ADD24C,0.406400*%
%ADD25C,0.254000*%
G04 APERTURE END LIST*
G04 #@! TA.AperFunction,SMDPad,CuDef*
D10*
G36*
X121229504Y-73026204D02*
G01*
X121253773Y-73029804D01*
X121277571Y-73035765D01*
X121300671Y-73044030D01*
X121322849Y-73054520D01*
X121343893Y-73067133D01*
X121363598Y-73081747D01*
X121381777Y-73098223D01*
X121398253Y-73116402D01*
X121412867Y-73136107D01*
X121425480Y-73157151D01*
X121435970Y-73179329D01*
X121444235Y-73202429D01*
X121450196Y-73226227D01*
X121453796Y-73250496D01*
X121455000Y-73275000D01*
X121455000Y-74525000D01*
X121453796Y-74549504D01*
X121450196Y-74573773D01*
X121444235Y-74597571D01*
X121435970Y-74620671D01*
X121425480Y-74642849D01*
X121412867Y-74663893D01*
X121398253Y-74683598D01*
X121381777Y-74701777D01*
X121363598Y-74718253D01*
X121343893Y-74732867D01*
X121322849Y-74745480D01*
X121300671Y-74755970D01*
X121277571Y-74764235D01*
X121253773Y-74770196D01*
X121229504Y-74773796D01*
X121205000Y-74775000D01*
X120280000Y-74775000D01*
X120255496Y-74773796D01*
X120231227Y-74770196D01*
X120207429Y-74764235D01*
X120184329Y-74755970D01*
X120162151Y-74745480D01*
X120141107Y-74732867D01*
X120121402Y-74718253D01*
X120103223Y-74701777D01*
X120086747Y-74683598D01*
X120072133Y-74663893D01*
X120059520Y-74642849D01*
X120049030Y-74620671D01*
X120040765Y-74597571D01*
X120034804Y-74573773D01*
X120031204Y-74549504D01*
X120030000Y-74525000D01*
X120030000Y-73275000D01*
X120031204Y-73250496D01*
X120034804Y-73226227D01*
X120040765Y-73202429D01*
X120049030Y-73179329D01*
X120059520Y-73157151D01*
X120072133Y-73136107D01*
X120086747Y-73116402D01*
X120103223Y-73098223D01*
X120121402Y-73081747D01*
X120141107Y-73067133D01*
X120162151Y-73054520D01*
X120184329Y-73044030D01*
X120207429Y-73035765D01*
X120231227Y-73029804D01*
X120255496Y-73026204D01*
X120280000Y-73025000D01*
X121205000Y-73025000D01*
X121229504Y-73026204D01*
G37*
G04 #@! TD.AperFunction*
G04 #@! TA.AperFunction,SMDPad,CuDef*
G36*
X124204504Y-73026204D02*
G01*
X124228773Y-73029804D01*
X124252571Y-73035765D01*
X124275671Y-73044030D01*
X124297849Y-73054520D01*
X124318893Y-73067133D01*
X124338598Y-73081747D01*
X124356777Y-73098223D01*
X124373253Y-73116402D01*
X124387867Y-73136107D01*
X124400480Y-73157151D01*
X124410970Y-73179329D01*
X124419235Y-73202429D01*
X124425196Y-73226227D01*
X124428796Y-73250496D01*
X124430000Y-73275000D01*
X124430000Y-74525000D01*
X124428796Y-74549504D01*
X124425196Y-74573773D01*
X124419235Y-74597571D01*
X124410970Y-74620671D01*
X124400480Y-74642849D01*
X124387867Y-74663893D01*
X124373253Y-74683598D01*
X124356777Y-74701777D01*
X124338598Y-74718253D01*
X124318893Y-74732867D01*
X124297849Y-74745480D01*
X124275671Y-74755970D01*
X124252571Y-74764235D01*
X124228773Y-74770196D01*
X124204504Y-74773796D01*
X124180000Y-74775000D01*
X123255000Y-74775000D01*
X123230496Y-74773796D01*
X123206227Y-74770196D01*
X123182429Y-74764235D01*
X123159329Y-74755970D01*
X123137151Y-74745480D01*
X123116107Y-74732867D01*
X123096402Y-74718253D01*
X123078223Y-74701777D01*
X123061747Y-74683598D01*
X123047133Y-74663893D01*
X123034520Y-74642849D01*
X123024030Y-74620671D01*
X123015765Y-74597571D01*
X123009804Y-74573773D01*
X123006204Y-74549504D01*
X123005000Y-74525000D01*
X123005000Y-73275000D01*
X123006204Y-73250496D01*
X123009804Y-73226227D01*
X123015765Y-73202429D01*
X123024030Y-73179329D01*
X123034520Y-73157151D01*
X123047133Y-73136107D01*
X123061747Y-73116402D01*
X123078223Y-73098223D01*
X123096402Y-73081747D01*
X123116107Y-73067133D01*
X123137151Y-73054520D01*
X123159329Y-73044030D01*
X123182429Y-73035765D01*
X123206227Y-73029804D01*
X123230496Y-73026204D01*
X123255000Y-73025000D01*
X124180000Y-73025000D01*
X124204504Y-73026204D01*
G37*
G04 #@! TD.AperFunction*
G04 #@! TA.AperFunction,SMDPad,CuDef*
G36*
X98749504Y-85671204D02*
G01*
X98773773Y-85674804D01*
X98797571Y-85680765D01*
X98820671Y-85689030D01*
X98842849Y-85699520D01*
X98863893Y-85712133D01*
X98883598Y-85726747D01*
X98901777Y-85743223D01*
X98918253Y-85761402D01*
X98932867Y-85781107D01*
X98945480Y-85802151D01*
X98955970Y-85824329D01*
X98964235Y-85847429D01*
X98970196Y-85871227D01*
X98973796Y-85895496D01*
X98975000Y-85920000D01*
X98975000Y-86845000D01*
X98973796Y-86869504D01*
X98970196Y-86893773D01*
X98964235Y-86917571D01*
X98955970Y-86940671D01*
X98945480Y-86962849D01*
X98932867Y-86983893D01*
X98918253Y-87003598D01*
X98901777Y-87021777D01*
X98883598Y-87038253D01*
X98863893Y-87052867D01*
X98842849Y-87065480D01*
X98820671Y-87075970D01*
X98797571Y-87084235D01*
X98773773Y-87090196D01*
X98749504Y-87093796D01*
X98725000Y-87095000D01*
X97475000Y-87095000D01*
X97450496Y-87093796D01*
X97426227Y-87090196D01*
X97402429Y-87084235D01*
X97379329Y-87075970D01*
X97357151Y-87065480D01*
X97336107Y-87052867D01*
X97316402Y-87038253D01*
X97298223Y-87021777D01*
X97281747Y-87003598D01*
X97267133Y-86983893D01*
X97254520Y-86962849D01*
X97244030Y-86940671D01*
X97235765Y-86917571D01*
X97229804Y-86893773D01*
X97226204Y-86869504D01*
X97225000Y-86845000D01*
X97225000Y-85920000D01*
X97226204Y-85895496D01*
X97229804Y-85871227D01*
X97235765Y-85847429D01*
X97244030Y-85824329D01*
X97254520Y-85802151D01*
X97267133Y-85781107D01*
X97281747Y-85761402D01*
X97298223Y-85743223D01*
X97316402Y-85726747D01*
X97336107Y-85712133D01*
X97357151Y-85699520D01*
X97379329Y-85689030D01*
X97402429Y-85680765D01*
X97426227Y-85674804D01*
X97450496Y-85671204D01*
X97475000Y-85670000D01*
X98725000Y-85670000D01*
X98749504Y-85671204D01*
G37*
G04 #@! TD.AperFunction*
G04 #@! TA.AperFunction,SMDPad,CuDef*
G36*
X98749504Y-88646204D02*
G01*
X98773773Y-88649804D01*
X98797571Y-88655765D01*
X98820671Y-88664030D01*
X98842849Y-88674520D01*
X98863893Y-88687133D01*
X98883598Y-88701747D01*
X98901777Y-88718223D01*
X98918253Y-88736402D01*
X98932867Y-88756107D01*
X98945480Y-88777151D01*
X98955970Y-88799329D01*
X98964235Y-88822429D01*
X98970196Y-88846227D01*
X98973796Y-88870496D01*
X98975000Y-88895000D01*
X98975000Y-89820000D01*
X98973796Y-89844504D01*
X98970196Y-89868773D01*
X98964235Y-89892571D01*
X98955970Y-89915671D01*
X98945480Y-89937849D01*
X98932867Y-89958893D01*
X98918253Y-89978598D01*
X98901777Y-89996777D01*
X98883598Y-90013253D01*
X98863893Y-90027867D01*
X98842849Y-90040480D01*
X98820671Y-90050970D01*
X98797571Y-90059235D01*
X98773773Y-90065196D01*
X98749504Y-90068796D01*
X98725000Y-90070000D01*
X97475000Y-90070000D01*
X97450496Y-90068796D01*
X97426227Y-90065196D01*
X97402429Y-90059235D01*
X97379329Y-90050970D01*
X97357151Y-90040480D01*
X97336107Y-90027867D01*
X97316402Y-90013253D01*
X97298223Y-89996777D01*
X97281747Y-89978598D01*
X97267133Y-89958893D01*
X97254520Y-89937849D01*
X97244030Y-89915671D01*
X97235765Y-89892571D01*
X97229804Y-89868773D01*
X97226204Y-89844504D01*
X97225000Y-89820000D01*
X97225000Y-88895000D01*
X97226204Y-88870496D01*
X97229804Y-88846227D01*
X97235765Y-88822429D01*
X97244030Y-88799329D01*
X97254520Y-88777151D01*
X97267133Y-88756107D01*
X97281747Y-88736402D01*
X97298223Y-88718223D01*
X97316402Y-88701747D01*
X97336107Y-88687133D01*
X97357151Y-88674520D01*
X97379329Y-88664030D01*
X97402429Y-88655765D01*
X97426227Y-88649804D01*
X97450496Y-88646204D01*
X97475000Y-88645000D01*
X98725000Y-88645000D01*
X98749504Y-88646204D01*
G37*
G04 #@! TD.AperFunction*
G04 #@! TA.AperFunction,SMDPad,CuDef*
G36*
X82469504Y-81616204D02*
G01*
X82493773Y-81619804D01*
X82517571Y-81625765D01*
X82540671Y-81634030D01*
X82562849Y-81644520D01*
X82583893Y-81657133D01*
X82603598Y-81671747D01*
X82621777Y-81688223D01*
X82638253Y-81706402D01*
X82652867Y-81726107D01*
X82665480Y-81747151D01*
X82675970Y-81769329D01*
X82684235Y-81792429D01*
X82690196Y-81816227D01*
X82693796Y-81840496D01*
X82695000Y-81865000D01*
X82695000Y-83715000D01*
X82693796Y-83739504D01*
X82690196Y-83763773D01*
X82684235Y-83787571D01*
X82675970Y-83810671D01*
X82665480Y-83832849D01*
X82652867Y-83853893D01*
X82638253Y-83873598D01*
X82621777Y-83891777D01*
X82603598Y-83908253D01*
X82583893Y-83922867D01*
X82562849Y-83935480D01*
X82540671Y-83945970D01*
X82517571Y-83954235D01*
X82493773Y-83960196D01*
X82469504Y-83963796D01*
X82445000Y-83965000D01*
X81445000Y-83965000D01*
X81420496Y-83963796D01*
X81396227Y-83960196D01*
X81372429Y-83954235D01*
X81349329Y-83945970D01*
X81327151Y-83935480D01*
X81306107Y-83922867D01*
X81286402Y-83908253D01*
X81268223Y-83891777D01*
X81251747Y-83873598D01*
X81237133Y-83853893D01*
X81224520Y-83832849D01*
X81214030Y-83810671D01*
X81205765Y-83787571D01*
X81199804Y-83763773D01*
X81196204Y-83739504D01*
X81195000Y-83715000D01*
X81195000Y-81865000D01*
X81196204Y-81840496D01*
X81199804Y-81816227D01*
X81205765Y-81792429D01*
X81214030Y-81769329D01*
X81224520Y-81747151D01*
X81237133Y-81726107D01*
X81251747Y-81706402D01*
X81268223Y-81688223D01*
X81286402Y-81671747D01*
X81306107Y-81657133D01*
X81327151Y-81644520D01*
X81349329Y-81634030D01*
X81372429Y-81625765D01*
X81396227Y-81619804D01*
X81420496Y-81616204D01*
X81445000Y-81615000D01*
X82445000Y-81615000D01*
X82469504Y-81616204D01*
G37*
G04 #@! TD.AperFunction*
G04 #@! TA.AperFunction,SMDPad,CuDef*
G36*
X79219504Y-81616204D02*
G01*
X79243773Y-81619804D01*
X79267571Y-81625765D01*
X79290671Y-81634030D01*
X79312849Y-81644520D01*
X79333893Y-81657133D01*
X79353598Y-81671747D01*
X79371777Y-81688223D01*
X79388253Y-81706402D01*
X79402867Y-81726107D01*
X79415480Y-81747151D01*
X79425970Y-81769329D01*
X79434235Y-81792429D01*
X79440196Y-81816227D01*
X79443796Y-81840496D01*
X79445000Y-81865000D01*
X79445000Y-83715000D01*
X79443796Y-83739504D01*
X79440196Y-83763773D01*
X79434235Y-83787571D01*
X79425970Y-83810671D01*
X79415480Y-83832849D01*
X79402867Y-83853893D01*
X79388253Y-83873598D01*
X79371777Y-83891777D01*
X79353598Y-83908253D01*
X79333893Y-83922867D01*
X79312849Y-83935480D01*
X79290671Y-83945970D01*
X79267571Y-83954235D01*
X79243773Y-83960196D01*
X79219504Y-83963796D01*
X79195000Y-83965000D01*
X78195000Y-83965000D01*
X78170496Y-83963796D01*
X78146227Y-83960196D01*
X78122429Y-83954235D01*
X78099329Y-83945970D01*
X78077151Y-83935480D01*
X78056107Y-83922867D01*
X78036402Y-83908253D01*
X78018223Y-83891777D01*
X78001747Y-83873598D01*
X77987133Y-83853893D01*
X77974520Y-83832849D01*
X77964030Y-83810671D01*
X77955765Y-83787571D01*
X77949804Y-83763773D01*
X77946204Y-83739504D01*
X77945000Y-83715000D01*
X77945000Y-81865000D01*
X77946204Y-81840496D01*
X77949804Y-81816227D01*
X77955765Y-81792429D01*
X77964030Y-81769329D01*
X77974520Y-81747151D01*
X77987133Y-81726107D01*
X78001747Y-81706402D01*
X78018223Y-81688223D01*
X78036402Y-81671747D01*
X78056107Y-81657133D01*
X78077151Y-81644520D01*
X78099329Y-81634030D01*
X78122429Y-81625765D01*
X78146227Y-81619804D01*
X78170496Y-81616204D01*
X78195000Y-81615000D01*
X79195000Y-81615000D01*
X79219504Y-81616204D01*
G37*
G04 #@! TD.AperFunction*
G04 #@! TA.AperFunction,SMDPad,CuDef*
G36*
X78484504Y-78106204D02*
G01*
X78508773Y-78109804D01*
X78532571Y-78115765D01*
X78555671Y-78124030D01*
X78577849Y-78134520D01*
X78598893Y-78147133D01*
X78618598Y-78161747D01*
X78636777Y-78178223D01*
X78653253Y-78196402D01*
X78667867Y-78216107D01*
X78680480Y-78237151D01*
X78690970Y-78259329D01*
X78699235Y-78282429D01*
X78705196Y-78306227D01*
X78708796Y-78330496D01*
X78710000Y-78355000D01*
X78710000Y-79605000D01*
X78708796Y-79629504D01*
X78705196Y-79653773D01*
X78699235Y-79677571D01*
X78690970Y-79700671D01*
X78680480Y-79722849D01*
X78667867Y-79743893D01*
X78653253Y-79763598D01*
X78636777Y-79781777D01*
X78618598Y-79798253D01*
X78598893Y-79812867D01*
X78577849Y-79825480D01*
X78555671Y-79835970D01*
X78532571Y-79844235D01*
X78508773Y-79850196D01*
X78484504Y-79853796D01*
X78460000Y-79855000D01*
X77535000Y-79855000D01*
X77510496Y-79853796D01*
X77486227Y-79850196D01*
X77462429Y-79844235D01*
X77439329Y-79835970D01*
X77417151Y-79825480D01*
X77396107Y-79812867D01*
X77376402Y-79798253D01*
X77358223Y-79781777D01*
X77341747Y-79763598D01*
X77327133Y-79743893D01*
X77314520Y-79722849D01*
X77304030Y-79700671D01*
X77295765Y-79677571D01*
X77289804Y-79653773D01*
X77286204Y-79629504D01*
X77285000Y-79605000D01*
X77285000Y-78355000D01*
X77286204Y-78330496D01*
X77289804Y-78306227D01*
X77295765Y-78282429D01*
X77304030Y-78259329D01*
X77314520Y-78237151D01*
X77327133Y-78216107D01*
X77341747Y-78196402D01*
X77358223Y-78178223D01*
X77376402Y-78161747D01*
X77396107Y-78147133D01*
X77417151Y-78134520D01*
X77439329Y-78124030D01*
X77462429Y-78115765D01*
X77486227Y-78109804D01*
X77510496Y-78106204D01*
X77535000Y-78105000D01*
X78460000Y-78105000D01*
X78484504Y-78106204D01*
G37*
G04 #@! TD.AperFunction*
G04 #@! TA.AperFunction,SMDPad,CuDef*
G36*
X75509504Y-78106204D02*
G01*
X75533773Y-78109804D01*
X75557571Y-78115765D01*
X75580671Y-78124030D01*
X75602849Y-78134520D01*
X75623893Y-78147133D01*
X75643598Y-78161747D01*
X75661777Y-78178223D01*
X75678253Y-78196402D01*
X75692867Y-78216107D01*
X75705480Y-78237151D01*
X75715970Y-78259329D01*
X75724235Y-78282429D01*
X75730196Y-78306227D01*
X75733796Y-78330496D01*
X75735000Y-78355000D01*
X75735000Y-79605000D01*
X75733796Y-79629504D01*
X75730196Y-79653773D01*
X75724235Y-79677571D01*
X75715970Y-79700671D01*
X75705480Y-79722849D01*
X75692867Y-79743893D01*
X75678253Y-79763598D01*
X75661777Y-79781777D01*
X75643598Y-79798253D01*
X75623893Y-79812867D01*
X75602849Y-79825480D01*
X75580671Y-79835970D01*
X75557571Y-79844235D01*
X75533773Y-79850196D01*
X75509504Y-79853796D01*
X75485000Y-79855000D01*
X74560000Y-79855000D01*
X74535496Y-79853796D01*
X74511227Y-79850196D01*
X74487429Y-79844235D01*
X74464329Y-79835970D01*
X74442151Y-79825480D01*
X74421107Y-79812867D01*
X74401402Y-79798253D01*
X74383223Y-79781777D01*
X74366747Y-79763598D01*
X74352133Y-79743893D01*
X74339520Y-79722849D01*
X74329030Y-79700671D01*
X74320765Y-79677571D01*
X74314804Y-79653773D01*
X74311204Y-79629504D01*
X74310000Y-79605000D01*
X74310000Y-78355000D01*
X74311204Y-78330496D01*
X74314804Y-78306227D01*
X74320765Y-78282429D01*
X74329030Y-78259329D01*
X74339520Y-78237151D01*
X74352133Y-78216107D01*
X74366747Y-78196402D01*
X74383223Y-78178223D01*
X74401402Y-78161747D01*
X74421107Y-78147133D01*
X74442151Y-78134520D01*
X74464329Y-78124030D01*
X74487429Y-78115765D01*
X74511227Y-78109804D01*
X74535496Y-78106204D01*
X74560000Y-78105000D01*
X75485000Y-78105000D01*
X75509504Y-78106204D01*
G37*
G04 #@! TD.AperFunction*
G04 #@! TA.AperFunction,SMDPad,CuDef*
G36*
X82294504Y-85726204D02*
G01*
X82318773Y-85729804D01*
X82342571Y-85735765D01*
X82365671Y-85744030D01*
X82387849Y-85754520D01*
X82408893Y-85767133D01*
X82428598Y-85781747D01*
X82446777Y-85798223D01*
X82463253Y-85816402D01*
X82477867Y-85836107D01*
X82490480Y-85857151D01*
X82500970Y-85879329D01*
X82509235Y-85902429D01*
X82515196Y-85926227D01*
X82518796Y-85950496D01*
X82520000Y-85975000D01*
X82520000Y-87225000D01*
X82518796Y-87249504D01*
X82515196Y-87273773D01*
X82509235Y-87297571D01*
X82500970Y-87320671D01*
X82490480Y-87342849D01*
X82477867Y-87363893D01*
X82463253Y-87383598D01*
X82446777Y-87401777D01*
X82428598Y-87418253D01*
X82408893Y-87432867D01*
X82387849Y-87445480D01*
X82365671Y-87455970D01*
X82342571Y-87464235D01*
X82318773Y-87470196D01*
X82294504Y-87473796D01*
X82270000Y-87475000D01*
X81345000Y-87475000D01*
X81320496Y-87473796D01*
X81296227Y-87470196D01*
X81272429Y-87464235D01*
X81249329Y-87455970D01*
X81227151Y-87445480D01*
X81206107Y-87432867D01*
X81186402Y-87418253D01*
X81168223Y-87401777D01*
X81151747Y-87383598D01*
X81137133Y-87363893D01*
X81124520Y-87342849D01*
X81114030Y-87320671D01*
X81105765Y-87297571D01*
X81099804Y-87273773D01*
X81096204Y-87249504D01*
X81095000Y-87225000D01*
X81095000Y-85975000D01*
X81096204Y-85950496D01*
X81099804Y-85926227D01*
X81105765Y-85902429D01*
X81114030Y-85879329D01*
X81124520Y-85857151D01*
X81137133Y-85836107D01*
X81151747Y-85816402D01*
X81168223Y-85798223D01*
X81186402Y-85781747D01*
X81206107Y-85767133D01*
X81227151Y-85754520D01*
X81249329Y-85744030D01*
X81272429Y-85735765D01*
X81296227Y-85729804D01*
X81320496Y-85726204D01*
X81345000Y-85725000D01*
X82270000Y-85725000D01*
X82294504Y-85726204D01*
G37*
G04 #@! TD.AperFunction*
G04 #@! TA.AperFunction,SMDPad,CuDef*
G36*
X79319504Y-85726204D02*
G01*
X79343773Y-85729804D01*
X79367571Y-85735765D01*
X79390671Y-85744030D01*
X79412849Y-85754520D01*
X79433893Y-85767133D01*
X79453598Y-85781747D01*
X79471777Y-85798223D01*
X79488253Y-85816402D01*
X79502867Y-85836107D01*
X79515480Y-85857151D01*
X79525970Y-85879329D01*
X79534235Y-85902429D01*
X79540196Y-85926227D01*
X79543796Y-85950496D01*
X79545000Y-85975000D01*
X79545000Y-87225000D01*
X79543796Y-87249504D01*
X79540196Y-87273773D01*
X79534235Y-87297571D01*
X79525970Y-87320671D01*
X79515480Y-87342849D01*
X79502867Y-87363893D01*
X79488253Y-87383598D01*
X79471777Y-87401777D01*
X79453598Y-87418253D01*
X79433893Y-87432867D01*
X79412849Y-87445480D01*
X79390671Y-87455970D01*
X79367571Y-87464235D01*
X79343773Y-87470196D01*
X79319504Y-87473796D01*
X79295000Y-87475000D01*
X78370000Y-87475000D01*
X78345496Y-87473796D01*
X78321227Y-87470196D01*
X78297429Y-87464235D01*
X78274329Y-87455970D01*
X78252151Y-87445480D01*
X78231107Y-87432867D01*
X78211402Y-87418253D01*
X78193223Y-87401777D01*
X78176747Y-87383598D01*
X78162133Y-87363893D01*
X78149520Y-87342849D01*
X78139030Y-87320671D01*
X78130765Y-87297571D01*
X78124804Y-87273773D01*
X78121204Y-87249504D01*
X78120000Y-87225000D01*
X78120000Y-85975000D01*
X78121204Y-85950496D01*
X78124804Y-85926227D01*
X78130765Y-85902429D01*
X78139030Y-85879329D01*
X78149520Y-85857151D01*
X78162133Y-85836107D01*
X78176747Y-85816402D01*
X78193223Y-85798223D01*
X78211402Y-85781747D01*
X78231107Y-85767133D01*
X78252151Y-85754520D01*
X78274329Y-85744030D01*
X78297429Y-85735765D01*
X78321227Y-85729804D01*
X78345496Y-85726204D01*
X78370000Y-85725000D01*
X79295000Y-85725000D01*
X79319504Y-85726204D01*
G37*
G04 #@! TD.AperFunction*
D11*
X68000000Y-92000000D03*
D12*
X68000000Y-89500000D03*
X66000000Y-89500000D03*
X66000000Y-92000000D03*
D13*
X63140000Y-84750000D03*
X63140000Y-96750000D03*
D14*
X87525000Y-106710000D03*
X88175000Y-106710000D03*
X88825000Y-106710000D03*
X89475000Y-106710000D03*
X90125000Y-106710000D03*
X90775000Y-106710000D03*
X91425000Y-106710000D03*
X92075000Y-106710000D03*
X92725000Y-106710000D03*
X93375000Y-106710000D03*
X94025000Y-106710000D03*
X94675000Y-106710000D03*
X95325000Y-106710000D03*
X95975000Y-106710000D03*
X95975000Y-99510000D03*
X95325000Y-99510000D03*
X94675000Y-99510000D03*
X94025000Y-99510000D03*
X93375000Y-99510000D03*
X92725000Y-99510000D03*
X92075000Y-99510000D03*
X91425000Y-99510000D03*
X90775000Y-99510000D03*
X90125000Y-99510000D03*
X89475000Y-99510000D03*
X88825000Y-99510000D03*
X88175000Y-99510000D03*
X87525000Y-99510000D03*
D15*
X118000000Y-80000000D03*
X118000000Y-102000000D03*
X120000000Y-80000000D03*
X122000000Y-80000000D03*
D16*
X124000000Y-80000000D03*
D15*
X120000000Y-102000000D03*
X122000000Y-102000000D03*
X124000000Y-102000000D03*
X116000000Y-102000000D03*
X114000000Y-102000000D03*
X112000000Y-102000000D03*
X110000000Y-102000000D03*
X108000000Y-102000000D03*
X106000000Y-102000000D03*
X116000000Y-80000000D03*
X114000000Y-80000000D03*
X112000000Y-80000000D03*
X110000000Y-80000000D03*
X108000000Y-80000000D03*
X106000000Y-80000000D03*
G04 #@! TA.AperFunction,SMDPad,CuDef*
D10*
G36*
X93929505Y-87966204D02*
G01*
X93953773Y-87969804D01*
X93977572Y-87975765D01*
X94000671Y-87984030D01*
X94022850Y-87994520D01*
X94043893Y-88007132D01*
X94063599Y-88021747D01*
X94081777Y-88038223D01*
X94098253Y-88056401D01*
X94112868Y-88076107D01*
X94125480Y-88097150D01*
X94135970Y-88119329D01*
X94144235Y-88142428D01*
X94150196Y-88166227D01*
X94153796Y-88190495D01*
X94155000Y-88214999D01*
X94155000Y-90065001D01*
X94153796Y-90089505D01*
X94150196Y-90113773D01*
X94144235Y-90137572D01*
X94135970Y-90160671D01*
X94125480Y-90182850D01*
X94112868Y-90203893D01*
X94098253Y-90223599D01*
X94081777Y-90241777D01*
X94063599Y-90258253D01*
X94043893Y-90272868D01*
X94022850Y-90285480D01*
X94000671Y-90295970D01*
X93977572Y-90304235D01*
X93953773Y-90310196D01*
X93929505Y-90313796D01*
X93905001Y-90315000D01*
X92154999Y-90315000D01*
X92130495Y-90313796D01*
X92106227Y-90310196D01*
X92082428Y-90304235D01*
X92059329Y-90295970D01*
X92037150Y-90285480D01*
X92016107Y-90272868D01*
X91996401Y-90258253D01*
X91978223Y-90241777D01*
X91961747Y-90223599D01*
X91947132Y-90203893D01*
X91934520Y-90182850D01*
X91924030Y-90160671D01*
X91915765Y-90137572D01*
X91909804Y-90113773D01*
X91906204Y-90089505D01*
X91905000Y-90065001D01*
X91905000Y-88214999D01*
X91906204Y-88190495D01*
X91909804Y-88166227D01*
X91915765Y-88142428D01*
X91924030Y-88119329D01*
X91934520Y-88097150D01*
X91947132Y-88076107D01*
X91961747Y-88056401D01*
X91978223Y-88038223D01*
X91996401Y-88021747D01*
X92016107Y-88007132D01*
X92037150Y-87994520D01*
X92059329Y-87984030D01*
X92082428Y-87975765D01*
X92106227Y-87969804D01*
X92130495Y-87966204D01*
X92154999Y-87965000D01*
X93905001Y-87965000D01*
X93929505Y-87966204D01*
G37*
G04 #@! TD.AperFunction*
G04 #@! TA.AperFunction,SMDPad,CuDef*
G36*
X88829505Y-87966204D02*
G01*
X88853773Y-87969804D01*
X88877572Y-87975765D01*
X88900671Y-87984030D01*
X88922850Y-87994520D01*
X88943893Y-88007132D01*
X88963599Y-88021747D01*
X88981777Y-88038223D01*
X88998253Y-88056401D01*
X89012868Y-88076107D01*
X89025480Y-88097150D01*
X89035970Y-88119329D01*
X89044235Y-88142428D01*
X89050196Y-88166227D01*
X89053796Y-88190495D01*
X89055000Y-88214999D01*
X89055000Y-90065001D01*
X89053796Y-90089505D01*
X89050196Y-90113773D01*
X89044235Y-90137572D01*
X89035970Y-90160671D01*
X89025480Y-90182850D01*
X89012868Y-90203893D01*
X88998253Y-90223599D01*
X88981777Y-90241777D01*
X88963599Y-90258253D01*
X88943893Y-90272868D01*
X88922850Y-90285480D01*
X88900671Y-90295970D01*
X88877572Y-90304235D01*
X88853773Y-90310196D01*
X88829505Y-90313796D01*
X88805001Y-90315000D01*
X87054999Y-90315000D01*
X87030495Y-90313796D01*
X87006227Y-90310196D01*
X86982428Y-90304235D01*
X86959329Y-90295970D01*
X86937150Y-90285480D01*
X86916107Y-90272868D01*
X86896401Y-90258253D01*
X86878223Y-90241777D01*
X86861747Y-90223599D01*
X86847132Y-90203893D01*
X86834520Y-90182850D01*
X86824030Y-90160671D01*
X86815765Y-90137572D01*
X86809804Y-90113773D01*
X86806204Y-90089505D01*
X86805000Y-90065001D01*
X86805000Y-88214999D01*
X86806204Y-88190495D01*
X86809804Y-88166227D01*
X86815765Y-88142428D01*
X86824030Y-88119329D01*
X86834520Y-88097150D01*
X86847132Y-88076107D01*
X86861747Y-88056401D01*
X86878223Y-88038223D01*
X86896401Y-88021747D01*
X86916107Y-88007132D01*
X86937150Y-87994520D01*
X86959329Y-87984030D01*
X86982428Y-87975765D01*
X87006227Y-87969804D01*
X87030495Y-87966204D01*
X87054999Y-87965000D01*
X88805001Y-87965000D01*
X88829505Y-87966204D01*
G37*
G04 #@! TD.AperFunction*
G04 #@! TA.AperFunction,SMDPad,CuDef*
G36*
X73349504Y-102181204D02*
G01*
X73373773Y-102184804D01*
X73397571Y-102190765D01*
X73420671Y-102199030D01*
X73442849Y-102209520D01*
X73463893Y-102222133D01*
X73483598Y-102236747D01*
X73501777Y-102253223D01*
X73518253Y-102271402D01*
X73532867Y-102291107D01*
X73545480Y-102312151D01*
X73555970Y-102334329D01*
X73564235Y-102357429D01*
X73570196Y-102381227D01*
X73573796Y-102405496D01*
X73575000Y-102430000D01*
X73575000Y-103355000D01*
X73573796Y-103379504D01*
X73570196Y-103403773D01*
X73564235Y-103427571D01*
X73555970Y-103450671D01*
X73545480Y-103472849D01*
X73532867Y-103493893D01*
X73518253Y-103513598D01*
X73501777Y-103531777D01*
X73483598Y-103548253D01*
X73463893Y-103562867D01*
X73442849Y-103575480D01*
X73420671Y-103585970D01*
X73397571Y-103594235D01*
X73373773Y-103600196D01*
X73349504Y-103603796D01*
X73325000Y-103605000D01*
X72075000Y-103605000D01*
X72050496Y-103603796D01*
X72026227Y-103600196D01*
X72002429Y-103594235D01*
X71979329Y-103585970D01*
X71957151Y-103575480D01*
X71936107Y-103562867D01*
X71916402Y-103548253D01*
X71898223Y-103531777D01*
X71881747Y-103513598D01*
X71867133Y-103493893D01*
X71854520Y-103472849D01*
X71844030Y-103450671D01*
X71835765Y-103427571D01*
X71829804Y-103403773D01*
X71826204Y-103379504D01*
X71825000Y-103355000D01*
X71825000Y-102430000D01*
X71826204Y-102405496D01*
X71829804Y-102381227D01*
X71835765Y-102357429D01*
X71844030Y-102334329D01*
X71854520Y-102312151D01*
X71867133Y-102291107D01*
X71881747Y-102271402D01*
X71898223Y-102253223D01*
X71916402Y-102236747D01*
X71936107Y-102222133D01*
X71957151Y-102209520D01*
X71979329Y-102199030D01*
X72002429Y-102190765D01*
X72026227Y-102184804D01*
X72050496Y-102181204D01*
X72075000Y-102180000D01*
X73325000Y-102180000D01*
X73349504Y-102181204D01*
G37*
G04 #@! TD.AperFunction*
G04 #@! TA.AperFunction,SMDPad,CuDef*
G36*
X73349504Y-105156204D02*
G01*
X73373773Y-105159804D01*
X73397571Y-105165765D01*
X73420671Y-105174030D01*
X73442849Y-105184520D01*
X73463893Y-105197133D01*
X73483598Y-105211747D01*
X73501777Y-105228223D01*
X73518253Y-105246402D01*
X73532867Y-105266107D01*
X73545480Y-105287151D01*
X73555970Y-105309329D01*
X73564235Y-105332429D01*
X73570196Y-105356227D01*
X73573796Y-105380496D01*
X73575000Y-105405000D01*
X73575000Y-106330000D01*
X73573796Y-106354504D01*
X73570196Y-106378773D01*
X73564235Y-106402571D01*
X73555970Y-106425671D01*
X73545480Y-106447849D01*
X73532867Y-106468893D01*
X73518253Y-106488598D01*
X73501777Y-106506777D01*
X73483598Y-106523253D01*
X73463893Y-106537867D01*
X73442849Y-106550480D01*
X73420671Y-106560970D01*
X73397571Y-106569235D01*
X73373773Y-106575196D01*
X73349504Y-106578796D01*
X73325000Y-106580000D01*
X72075000Y-106580000D01*
X72050496Y-106578796D01*
X72026227Y-106575196D01*
X72002429Y-106569235D01*
X71979329Y-106560970D01*
X71957151Y-106550480D01*
X71936107Y-106537867D01*
X71916402Y-106523253D01*
X71898223Y-106506777D01*
X71881747Y-106488598D01*
X71867133Y-106468893D01*
X71854520Y-106447849D01*
X71844030Y-106425671D01*
X71835765Y-106402571D01*
X71829804Y-106378773D01*
X71826204Y-106354504D01*
X71825000Y-106330000D01*
X71825000Y-105405000D01*
X71826204Y-105380496D01*
X71829804Y-105356227D01*
X71835765Y-105332429D01*
X71844030Y-105309329D01*
X71854520Y-105287151D01*
X71867133Y-105266107D01*
X71881747Y-105246402D01*
X71898223Y-105228223D01*
X71916402Y-105211747D01*
X71936107Y-105197133D01*
X71957151Y-105184520D01*
X71979329Y-105174030D01*
X72002429Y-105165765D01*
X72026227Y-105159804D01*
X72050496Y-105156204D01*
X72075000Y-105155000D01*
X73325000Y-105155000D01*
X73349504Y-105156204D01*
G37*
G04 #@! TD.AperFunction*
G04 #@! TA.AperFunction,SMDPad,CuDef*
G36*
X79699504Y-105156204D02*
G01*
X79723773Y-105159804D01*
X79747571Y-105165765D01*
X79770671Y-105174030D01*
X79792849Y-105184520D01*
X79813893Y-105197133D01*
X79833598Y-105211747D01*
X79851777Y-105228223D01*
X79868253Y-105246402D01*
X79882867Y-105266107D01*
X79895480Y-105287151D01*
X79905970Y-105309329D01*
X79914235Y-105332429D01*
X79920196Y-105356227D01*
X79923796Y-105380496D01*
X79925000Y-105405000D01*
X79925000Y-106330000D01*
X79923796Y-106354504D01*
X79920196Y-106378773D01*
X79914235Y-106402571D01*
X79905970Y-106425671D01*
X79895480Y-106447849D01*
X79882867Y-106468893D01*
X79868253Y-106488598D01*
X79851777Y-106506777D01*
X79833598Y-106523253D01*
X79813893Y-106537867D01*
X79792849Y-106550480D01*
X79770671Y-106560970D01*
X79747571Y-106569235D01*
X79723773Y-106575196D01*
X79699504Y-106578796D01*
X79675000Y-106580000D01*
X78425000Y-106580000D01*
X78400496Y-106578796D01*
X78376227Y-106575196D01*
X78352429Y-106569235D01*
X78329329Y-106560970D01*
X78307151Y-106550480D01*
X78286107Y-106537867D01*
X78266402Y-106523253D01*
X78248223Y-106506777D01*
X78231747Y-106488598D01*
X78217133Y-106468893D01*
X78204520Y-106447849D01*
X78194030Y-106425671D01*
X78185765Y-106402571D01*
X78179804Y-106378773D01*
X78176204Y-106354504D01*
X78175000Y-106330000D01*
X78175000Y-105405000D01*
X78176204Y-105380496D01*
X78179804Y-105356227D01*
X78185765Y-105332429D01*
X78194030Y-105309329D01*
X78204520Y-105287151D01*
X78217133Y-105266107D01*
X78231747Y-105246402D01*
X78248223Y-105228223D01*
X78266402Y-105211747D01*
X78286107Y-105197133D01*
X78307151Y-105184520D01*
X78329329Y-105174030D01*
X78352429Y-105165765D01*
X78376227Y-105159804D01*
X78400496Y-105156204D01*
X78425000Y-105155000D01*
X79675000Y-105155000D01*
X79699504Y-105156204D01*
G37*
G04 #@! TD.AperFunction*
G04 #@! TA.AperFunction,SMDPad,CuDef*
G36*
X79699504Y-102181204D02*
G01*
X79723773Y-102184804D01*
X79747571Y-102190765D01*
X79770671Y-102199030D01*
X79792849Y-102209520D01*
X79813893Y-102222133D01*
X79833598Y-102236747D01*
X79851777Y-102253223D01*
X79868253Y-102271402D01*
X79882867Y-102291107D01*
X79895480Y-102312151D01*
X79905970Y-102334329D01*
X79914235Y-102357429D01*
X79920196Y-102381227D01*
X79923796Y-102405496D01*
X79925000Y-102430000D01*
X79925000Y-103355000D01*
X79923796Y-103379504D01*
X79920196Y-103403773D01*
X79914235Y-103427571D01*
X79905970Y-103450671D01*
X79895480Y-103472849D01*
X79882867Y-103493893D01*
X79868253Y-103513598D01*
X79851777Y-103531777D01*
X79833598Y-103548253D01*
X79813893Y-103562867D01*
X79792849Y-103575480D01*
X79770671Y-103585970D01*
X79747571Y-103594235D01*
X79723773Y-103600196D01*
X79699504Y-103603796D01*
X79675000Y-103605000D01*
X78425000Y-103605000D01*
X78400496Y-103603796D01*
X78376227Y-103600196D01*
X78352429Y-103594235D01*
X78329329Y-103585970D01*
X78307151Y-103575480D01*
X78286107Y-103562867D01*
X78266402Y-103548253D01*
X78248223Y-103531777D01*
X78231747Y-103513598D01*
X78217133Y-103493893D01*
X78204520Y-103472849D01*
X78194030Y-103450671D01*
X78185765Y-103427571D01*
X78179804Y-103403773D01*
X78176204Y-103379504D01*
X78175000Y-103355000D01*
X78175000Y-102430000D01*
X78176204Y-102405496D01*
X78179804Y-102381227D01*
X78185765Y-102357429D01*
X78194030Y-102334329D01*
X78204520Y-102312151D01*
X78217133Y-102291107D01*
X78231747Y-102271402D01*
X78248223Y-102253223D01*
X78266402Y-102236747D01*
X78286107Y-102222133D01*
X78307151Y-102209520D01*
X78329329Y-102199030D01*
X78352429Y-102190765D01*
X78376227Y-102184804D01*
X78400496Y-102181204D01*
X78425000Y-102180000D01*
X79675000Y-102180000D01*
X79699504Y-102181204D01*
G37*
G04 #@! TD.AperFunction*
G04 #@! TA.AperFunction,SMDPad,CuDef*
G36*
X76339504Y-83131204D02*
G01*
X76363773Y-83134804D01*
X76387571Y-83140765D01*
X76410671Y-83149030D01*
X76432849Y-83159520D01*
X76453893Y-83172133D01*
X76473598Y-83186747D01*
X76491777Y-83203223D01*
X76508253Y-83221402D01*
X76522867Y-83241107D01*
X76535480Y-83262151D01*
X76545970Y-83284329D01*
X76554235Y-83307429D01*
X76560196Y-83331227D01*
X76563796Y-83355496D01*
X76565000Y-83380000D01*
X76565000Y-84305000D01*
X76563796Y-84329504D01*
X76560196Y-84353773D01*
X76554235Y-84377571D01*
X76545970Y-84400671D01*
X76535480Y-84422849D01*
X76522867Y-84443893D01*
X76508253Y-84463598D01*
X76491777Y-84481777D01*
X76473598Y-84498253D01*
X76453893Y-84512867D01*
X76432849Y-84525480D01*
X76410671Y-84535970D01*
X76387571Y-84544235D01*
X76363773Y-84550196D01*
X76339504Y-84553796D01*
X76315000Y-84555000D01*
X74165000Y-84555000D01*
X74140496Y-84553796D01*
X74116227Y-84550196D01*
X74092429Y-84544235D01*
X74069329Y-84535970D01*
X74047151Y-84525480D01*
X74026107Y-84512867D01*
X74006402Y-84498253D01*
X73988223Y-84481777D01*
X73971747Y-84463598D01*
X73957133Y-84443893D01*
X73944520Y-84422849D01*
X73934030Y-84400671D01*
X73925765Y-84377571D01*
X73919804Y-84353773D01*
X73916204Y-84329504D01*
X73915000Y-84305000D01*
X73915000Y-83380000D01*
X73916204Y-83355496D01*
X73919804Y-83331227D01*
X73925765Y-83307429D01*
X73934030Y-83284329D01*
X73944520Y-83262151D01*
X73957133Y-83241107D01*
X73971747Y-83221402D01*
X73988223Y-83203223D01*
X74006402Y-83186747D01*
X74026107Y-83172133D01*
X74047151Y-83159520D01*
X74069329Y-83149030D01*
X74092429Y-83140765D01*
X74116227Y-83134804D01*
X74140496Y-83131204D01*
X74165000Y-83130000D01*
X76315000Y-83130000D01*
X76339504Y-83131204D01*
G37*
G04 #@! TD.AperFunction*
G04 #@! TA.AperFunction,SMDPad,CuDef*
G36*
X76339504Y-86106204D02*
G01*
X76363773Y-86109804D01*
X76387571Y-86115765D01*
X76410671Y-86124030D01*
X76432849Y-86134520D01*
X76453893Y-86147133D01*
X76473598Y-86161747D01*
X76491777Y-86178223D01*
X76508253Y-86196402D01*
X76522867Y-86216107D01*
X76535480Y-86237151D01*
X76545970Y-86259329D01*
X76554235Y-86282429D01*
X76560196Y-86306227D01*
X76563796Y-86330496D01*
X76565000Y-86355000D01*
X76565000Y-87280000D01*
X76563796Y-87304504D01*
X76560196Y-87328773D01*
X76554235Y-87352571D01*
X76545970Y-87375671D01*
X76535480Y-87397849D01*
X76522867Y-87418893D01*
X76508253Y-87438598D01*
X76491777Y-87456777D01*
X76473598Y-87473253D01*
X76453893Y-87487867D01*
X76432849Y-87500480D01*
X76410671Y-87510970D01*
X76387571Y-87519235D01*
X76363773Y-87525196D01*
X76339504Y-87528796D01*
X76315000Y-87530000D01*
X74165000Y-87530000D01*
X74140496Y-87528796D01*
X74116227Y-87525196D01*
X74092429Y-87519235D01*
X74069329Y-87510970D01*
X74047151Y-87500480D01*
X74026107Y-87487867D01*
X74006402Y-87473253D01*
X73988223Y-87456777D01*
X73971747Y-87438598D01*
X73957133Y-87418893D01*
X73944520Y-87397849D01*
X73934030Y-87375671D01*
X73925765Y-87352571D01*
X73919804Y-87328773D01*
X73916204Y-87304504D01*
X73915000Y-87280000D01*
X73915000Y-86355000D01*
X73916204Y-86330496D01*
X73919804Y-86306227D01*
X73925765Y-86282429D01*
X73934030Y-86259329D01*
X73944520Y-86237151D01*
X73957133Y-86216107D01*
X73971747Y-86196402D01*
X73988223Y-86178223D01*
X74006402Y-86161747D01*
X74026107Y-86147133D01*
X74047151Y-86134520D01*
X74069329Y-86124030D01*
X74092429Y-86115765D01*
X74116227Y-86109804D01*
X74140496Y-86106204D01*
X74165000Y-86105000D01*
X76315000Y-86105000D01*
X76339504Y-86106204D01*
G37*
G04 #@! TD.AperFunction*
G04 #@! TA.AperFunction,SMDPad,CuDef*
G36*
X75889504Y-102181204D02*
G01*
X75913773Y-102184804D01*
X75937571Y-102190765D01*
X75960671Y-102199030D01*
X75982849Y-102209520D01*
X76003893Y-102222133D01*
X76023598Y-102236747D01*
X76041777Y-102253223D01*
X76058253Y-102271402D01*
X76072867Y-102291107D01*
X76085480Y-102312151D01*
X76095970Y-102334329D01*
X76104235Y-102357429D01*
X76110196Y-102381227D01*
X76113796Y-102405496D01*
X76115000Y-102430000D01*
X76115000Y-103355000D01*
X76113796Y-103379504D01*
X76110196Y-103403773D01*
X76104235Y-103427571D01*
X76095970Y-103450671D01*
X76085480Y-103472849D01*
X76072867Y-103493893D01*
X76058253Y-103513598D01*
X76041777Y-103531777D01*
X76023598Y-103548253D01*
X76003893Y-103562867D01*
X75982849Y-103575480D01*
X75960671Y-103585970D01*
X75937571Y-103594235D01*
X75913773Y-103600196D01*
X75889504Y-103603796D01*
X75865000Y-103605000D01*
X74615000Y-103605000D01*
X74590496Y-103603796D01*
X74566227Y-103600196D01*
X74542429Y-103594235D01*
X74519329Y-103585970D01*
X74497151Y-103575480D01*
X74476107Y-103562867D01*
X74456402Y-103548253D01*
X74438223Y-103531777D01*
X74421747Y-103513598D01*
X74407133Y-103493893D01*
X74394520Y-103472849D01*
X74384030Y-103450671D01*
X74375765Y-103427571D01*
X74369804Y-103403773D01*
X74366204Y-103379504D01*
X74365000Y-103355000D01*
X74365000Y-102430000D01*
X74366204Y-102405496D01*
X74369804Y-102381227D01*
X74375765Y-102357429D01*
X74384030Y-102334329D01*
X74394520Y-102312151D01*
X74407133Y-102291107D01*
X74421747Y-102271402D01*
X74438223Y-102253223D01*
X74456402Y-102236747D01*
X74476107Y-102222133D01*
X74497151Y-102209520D01*
X74519329Y-102199030D01*
X74542429Y-102190765D01*
X74566227Y-102184804D01*
X74590496Y-102181204D01*
X74615000Y-102180000D01*
X75865000Y-102180000D01*
X75889504Y-102181204D01*
G37*
G04 #@! TD.AperFunction*
G04 #@! TA.AperFunction,SMDPad,CuDef*
G36*
X75889504Y-105156204D02*
G01*
X75913773Y-105159804D01*
X75937571Y-105165765D01*
X75960671Y-105174030D01*
X75982849Y-105184520D01*
X76003893Y-105197133D01*
X76023598Y-105211747D01*
X76041777Y-105228223D01*
X76058253Y-105246402D01*
X76072867Y-105266107D01*
X76085480Y-105287151D01*
X76095970Y-105309329D01*
X76104235Y-105332429D01*
X76110196Y-105356227D01*
X76113796Y-105380496D01*
X76115000Y-105405000D01*
X76115000Y-106330000D01*
X76113796Y-106354504D01*
X76110196Y-106378773D01*
X76104235Y-106402571D01*
X76095970Y-106425671D01*
X76085480Y-106447849D01*
X76072867Y-106468893D01*
X76058253Y-106488598D01*
X76041777Y-106506777D01*
X76023598Y-106523253D01*
X76003893Y-106537867D01*
X75982849Y-106550480D01*
X75960671Y-106560970D01*
X75937571Y-106569235D01*
X75913773Y-106575196D01*
X75889504Y-106578796D01*
X75865000Y-106580000D01*
X74615000Y-106580000D01*
X74590496Y-106578796D01*
X74566227Y-106575196D01*
X74542429Y-106569235D01*
X74519329Y-106560970D01*
X74497151Y-106550480D01*
X74476107Y-106537867D01*
X74456402Y-106523253D01*
X74438223Y-106506777D01*
X74421747Y-106488598D01*
X74407133Y-106468893D01*
X74394520Y-106447849D01*
X74384030Y-106425671D01*
X74375765Y-106402571D01*
X74369804Y-106378773D01*
X74366204Y-106354504D01*
X74365000Y-106330000D01*
X74365000Y-105405000D01*
X74366204Y-105380496D01*
X74369804Y-105356227D01*
X74375765Y-105332429D01*
X74384030Y-105309329D01*
X74394520Y-105287151D01*
X74407133Y-105266107D01*
X74421747Y-105246402D01*
X74438223Y-105228223D01*
X74456402Y-105211747D01*
X74476107Y-105197133D01*
X74497151Y-105184520D01*
X74519329Y-105174030D01*
X74542429Y-105165765D01*
X74566227Y-105159804D01*
X74590496Y-105156204D01*
X74615000Y-105155000D01*
X75865000Y-105155000D01*
X75889504Y-105156204D01*
G37*
G04 #@! TD.AperFunction*
G04 #@! TA.AperFunction,SMDPad,CuDef*
G36*
X82239504Y-105156204D02*
G01*
X82263773Y-105159804D01*
X82287571Y-105165765D01*
X82310671Y-105174030D01*
X82332849Y-105184520D01*
X82353893Y-105197133D01*
X82373598Y-105211747D01*
X82391777Y-105228223D01*
X82408253Y-105246402D01*
X82422867Y-105266107D01*
X82435480Y-105287151D01*
X82445970Y-105309329D01*
X82454235Y-105332429D01*
X82460196Y-105356227D01*
X82463796Y-105380496D01*
X82465000Y-105405000D01*
X82465000Y-106330000D01*
X82463796Y-106354504D01*
X82460196Y-106378773D01*
X82454235Y-106402571D01*
X82445970Y-106425671D01*
X82435480Y-106447849D01*
X82422867Y-106468893D01*
X82408253Y-106488598D01*
X82391777Y-106506777D01*
X82373598Y-106523253D01*
X82353893Y-106537867D01*
X82332849Y-106550480D01*
X82310671Y-106560970D01*
X82287571Y-106569235D01*
X82263773Y-106575196D01*
X82239504Y-106578796D01*
X82215000Y-106580000D01*
X80965000Y-106580000D01*
X80940496Y-106578796D01*
X80916227Y-106575196D01*
X80892429Y-106569235D01*
X80869329Y-106560970D01*
X80847151Y-106550480D01*
X80826107Y-106537867D01*
X80806402Y-106523253D01*
X80788223Y-106506777D01*
X80771747Y-106488598D01*
X80757133Y-106468893D01*
X80744520Y-106447849D01*
X80734030Y-106425671D01*
X80725765Y-106402571D01*
X80719804Y-106378773D01*
X80716204Y-106354504D01*
X80715000Y-106330000D01*
X80715000Y-105405000D01*
X80716204Y-105380496D01*
X80719804Y-105356227D01*
X80725765Y-105332429D01*
X80734030Y-105309329D01*
X80744520Y-105287151D01*
X80757133Y-105266107D01*
X80771747Y-105246402D01*
X80788223Y-105228223D01*
X80806402Y-105211747D01*
X80826107Y-105197133D01*
X80847151Y-105184520D01*
X80869329Y-105174030D01*
X80892429Y-105165765D01*
X80916227Y-105159804D01*
X80940496Y-105156204D01*
X80965000Y-105155000D01*
X82215000Y-105155000D01*
X82239504Y-105156204D01*
G37*
G04 #@! TD.AperFunction*
G04 #@! TA.AperFunction,SMDPad,CuDef*
G36*
X82239504Y-102181204D02*
G01*
X82263773Y-102184804D01*
X82287571Y-102190765D01*
X82310671Y-102199030D01*
X82332849Y-102209520D01*
X82353893Y-102222133D01*
X82373598Y-102236747D01*
X82391777Y-102253223D01*
X82408253Y-102271402D01*
X82422867Y-102291107D01*
X82435480Y-102312151D01*
X82445970Y-102334329D01*
X82454235Y-102357429D01*
X82460196Y-102381227D01*
X82463796Y-102405496D01*
X82465000Y-102430000D01*
X82465000Y-103355000D01*
X82463796Y-103379504D01*
X82460196Y-103403773D01*
X82454235Y-103427571D01*
X82445970Y-103450671D01*
X82435480Y-103472849D01*
X82422867Y-103493893D01*
X82408253Y-103513598D01*
X82391777Y-103531777D01*
X82373598Y-103548253D01*
X82353893Y-103562867D01*
X82332849Y-103575480D01*
X82310671Y-103585970D01*
X82287571Y-103594235D01*
X82263773Y-103600196D01*
X82239504Y-103603796D01*
X82215000Y-103605000D01*
X80965000Y-103605000D01*
X80940496Y-103603796D01*
X80916227Y-103600196D01*
X80892429Y-103594235D01*
X80869329Y-103585970D01*
X80847151Y-103575480D01*
X80826107Y-103562867D01*
X80806402Y-103548253D01*
X80788223Y-103531777D01*
X80771747Y-103513598D01*
X80757133Y-103493893D01*
X80744520Y-103472849D01*
X80734030Y-103450671D01*
X80725765Y-103427571D01*
X80719804Y-103403773D01*
X80716204Y-103379504D01*
X80715000Y-103355000D01*
X80715000Y-102430000D01*
X80716204Y-102405496D01*
X80719804Y-102381227D01*
X80725765Y-102357429D01*
X80734030Y-102334329D01*
X80744520Y-102312151D01*
X80757133Y-102291107D01*
X80771747Y-102271402D01*
X80788223Y-102253223D01*
X80806402Y-102236747D01*
X80826107Y-102222133D01*
X80847151Y-102209520D01*
X80869329Y-102199030D01*
X80892429Y-102190765D01*
X80916227Y-102184804D01*
X80940496Y-102181204D01*
X80965000Y-102180000D01*
X82215000Y-102180000D01*
X82239504Y-102181204D01*
G37*
G04 #@! TD.AperFunction*
D17*
X89470000Y-83180000D03*
X91750000Y-83180000D03*
X94030000Y-83180000D03*
D18*
X91750000Y-76880000D03*
G04 #@! TA.AperFunction,SMDPad,CuDef*
D10*
G36*
X69793504Y-102144704D02*
G01*
X69817773Y-102148304D01*
X69841571Y-102154265D01*
X69864671Y-102162530D01*
X69886849Y-102173020D01*
X69907893Y-102185633D01*
X69927598Y-102200247D01*
X69945777Y-102216723D01*
X69962253Y-102234902D01*
X69976867Y-102254607D01*
X69989480Y-102275651D01*
X69999970Y-102297829D01*
X70008235Y-102320929D01*
X70014196Y-102344727D01*
X70017796Y-102368996D01*
X70019000Y-102393500D01*
X70019000Y-103318500D01*
X70017796Y-103343004D01*
X70014196Y-103367273D01*
X70008235Y-103391071D01*
X69999970Y-103414171D01*
X69989480Y-103436349D01*
X69976867Y-103457393D01*
X69962253Y-103477098D01*
X69945777Y-103495277D01*
X69927598Y-103511753D01*
X69907893Y-103526367D01*
X69886849Y-103538980D01*
X69864671Y-103549470D01*
X69841571Y-103557735D01*
X69817773Y-103563696D01*
X69793504Y-103567296D01*
X69769000Y-103568500D01*
X68519000Y-103568500D01*
X68494496Y-103567296D01*
X68470227Y-103563696D01*
X68446429Y-103557735D01*
X68423329Y-103549470D01*
X68401151Y-103538980D01*
X68380107Y-103526367D01*
X68360402Y-103511753D01*
X68342223Y-103495277D01*
X68325747Y-103477098D01*
X68311133Y-103457393D01*
X68298520Y-103436349D01*
X68288030Y-103414171D01*
X68279765Y-103391071D01*
X68273804Y-103367273D01*
X68270204Y-103343004D01*
X68269000Y-103318500D01*
X68269000Y-102393500D01*
X68270204Y-102368996D01*
X68273804Y-102344727D01*
X68279765Y-102320929D01*
X68288030Y-102297829D01*
X68298520Y-102275651D01*
X68311133Y-102254607D01*
X68325747Y-102234902D01*
X68342223Y-102216723D01*
X68360402Y-102200247D01*
X68380107Y-102185633D01*
X68401151Y-102173020D01*
X68423329Y-102162530D01*
X68446429Y-102154265D01*
X68470227Y-102148304D01*
X68494496Y-102144704D01*
X68519000Y-102143500D01*
X69769000Y-102143500D01*
X69793504Y-102144704D01*
G37*
G04 #@! TD.AperFunction*
G04 #@! TA.AperFunction,SMDPad,CuDef*
G36*
X69793504Y-105119704D02*
G01*
X69817773Y-105123304D01*
X69841571Y-105129265D01*
X69864671Y-105137530D01*
X69886849Y-105148020D01*
X69907893Y-105160633D01*
X69927598Y-105175247D01*
X69945777Y-105191723D01*
X69962253Y-105209902D01*
X69976867Y-105229607D01*
X69989480Y-105250651D01*
X69999970Y-105272829D01*
X70008235Y-105295929D01*
X70014196Y-105319727D01*
X70017796Y-105343996D01*
X70019000Y-105368500D01*
X70019000Y-106293500D01*
X70017796Y-106318004D01*
X70014196Y-106342273D01*
X70008235Y-106366071D01*
X69999970Y-106389171D01*
X69989480Y-106411349D01*
X69976867Y-106432393D01*
X69962253Y-106452098D01*
X69945777Y-106470277D01*
X69927598Y-106486753D01*
X69907893Y-106501367D01*
X69886849Y-106513980D01*
X69864671Y-106524470D01*
X69841571Y-106532735D01*
X69817773Y-106538696D01*
X69793504Y-106542296D01*
X69769000Y-106543500D01*
X68519000Y-106543500D01*
X68494496Y-106542296D01*
X68470227Y-106538696D01*
X68446429Y-106532735D01*
X68423329Y-106524470D01*
X68401151Y-106513980D01*
X68380107Y-106501367D01*
X68360402Y-106486753D01*
X68342223Y-106470277D01*
X68325747Y-106452098D01*
X68311133Y-106432393D01*
X68298520Y-106411349D01*
X68288030Y-106389171D01*
X68279765Y-106366071D01*
X68273804Y-106342273D01*
X68270204Y-106318004D01*
X68269000Y-106293500D01*
X68269000Y-105368500D01*
X68270204Y-105343996D01*
X68273804Y-105319727D01*
X68279765Y-105295929D01*
X68288030Y-105272829D01*
X68298520Y-105250651D01*
X68311133Y-105229607D01*
X68325747Y-105209902D01*
X68342223Y-105191723D01*
X68360402Y-105175247D01*
X68380107Y-105160633D01*
X68401151Y-105148020D01*
X68423329Y-105137530D01*
X68446429Y-105129265D01*
X68470227Y-105123304D01*
X68494496Y-105119704D01*
X68519000Y-105118500D01*
X69769000Y-105118500D01*
X69793504Y-105119704D01*
G37*
G04 #@! TD.AperFunction*
D13*
X64000000Y-74500000D03*
X64000000Y-107500000D03*
X130000000Y-105000000D03*
X130000000Y-77000000D03*
D19*
X83912500Y-105867500D03*
X95560000Y-85965000D03*
X84765000Y-82790000D03*
X79685000Y-91045000D03*
X83495000Y-109460000D03*
X79685000Y-97395000D03*
D20*
X77145000Y-97395000D03*
X77145000Y-92950000D03*
X72700000Y-92950000D03*
X125405000Y-76440000D03*
X88575000Y-109460000D03*
D19*
X75240000Y-81520000D03*
X97220000Y-83180000D03*
D21*
X64000000Y-83890000D02*
X63140000Y-84750000D01*
X64000000Y-74500000D02*
X64000000Y-83890000D01*
X63140000Y-106640000D02*
X64000000Y-107500000D01*
X63140000Y-96750000D02*
X63140000Y-106640000D01*
X131999999Y-103000001D02*
X130000000Y-105000000D01*
X131999999Y-78999999D02*
X131999999Y-103000001D01*
X130000000Y-77000000D02*
X131999999Y-78999999D01*
X63140000Y-84750000D02*
X63140000Y-92350000D01*
X63140000Y-92350000D02*
X63140000Y-96750000D01*
D22*
X66828427Y-107500000D02*
X67518427Y-108190000D01*
X64000000Y-107500000D02*
X66828427Y-107500000D01*
X75240000Y-106580000D02*
X75240000Y-105867500D01*
X73630000Y-108190000D02*
X75240000Y-106580000D01*
X67518427Y-108190000D02*
X73630000Y-108190000D01*
X73630000Y-108190000D02*
X80320000Y-108190000D01*
X81590000Y-106920000D02*
X81590000Y-105867500D01*
X80320000Y-108190000D02*
X81590000Y-106920000D01*
X81945000Y-79335000D02*
X81945000Y-82790000D01*
X81590000Y-78980000D02*
X81945000Y-79335000D01*
X77997500Y-78980000D02*
X81590000Y-78980000D01*
X81945000Y-86462500D02*
X81807500Y-86600000D01*
X81945000Y-82790000D02*
X81945000Y-86462500D01*
X89470000Y-83180000D02*
X89470000Y-85070000D01*
X87930000Y-86610000D02*
X87930000Y-89140000D01*
X89470000Y-85070000D02*
X87930000Y-86610000D01*
X87920000Y-86600000D02*
X87930000Y-86610000D01*
D23*
X88825000Y-99510000D02*
X88825000Y-102225000D01*
X88825000Y-102225000D02*
X89075000Y-102475000D01*
X94025000Y-99510000D02*
X94025000Y-102105000D01*
X92075000Y-99510000D02*
X92075000Y-102150000D01*
X91425000Y-106710000D02*
X91425000Y-102800000D01*
X88825000Y-99510000D02*
X89475000Y-99510000D01*
D22*
X84765000Y-103110000D02*
X85400000Y-102475000D01*
X85400000Y-102475000D02*
X89075000Y-102475000D01*
X84765000Y-105015000D02*
X84765000Y-103110000D01*
X81590000Y-105867500D02*
X83912500Y-105867500D01*
X84765000Y-105015000D02*
X84130000Y-105650000D01*
X84130000Y-105650000D02*
X83912500Y-105867500D01*
X98100000Y-89357500D02*
X96412500Y-89357500D01*
X96412500Y-89357500D02*
X95560000Y-88505000D01*
X95560000Y-88505000D02*
X95560000Y-85965000D01*
X93655000Y-102475000D02*
X94025000Y-102105000D01*
X92075000Y-102150000D02*
X91750000Y-102475000D01*
X91750000Y-102475000D02*
X93655000Y-102475000D01*
X89075000Y-102475000D02*
X91750000Y-102475000D01*
X91425000Y-102800000D02*
X91750000Y-102475000D01*
D21*
X63490000Y-92000000D02*
X63140000Y-92350000D01*
X66000000Y-92000000D02*
X63490000Y-92000000D01*
X86035000Y-71360000D02*
X86035000Y-82790000D01*
X123500000Y-71360000D02*
X86035000Y-71360000D01*
X123717500Y-71577500D02*
X123500000Y-71360000D01*
X123717500Y-73900000D02*
X123717500Y-71577500D01*
X84765000Y-82790000D02*
X84765000Y-82790000D01*
X81945000Y-82790000D02*
X84765000Y-82790000D01*
X89080000Y-82790000D02*
X89470000Y-83180000D01*
X86035000Y-82790000D02*
X89080000Y-82790000D01*
X84765000Y-82790000D02*
X86035000Y-82790000D01*
X126900000Y-73900000D02*
X130000000Y-77000000D01*
X123717500Y-73900000D02*
X126900000Y-73900000D01*
X84894999Y-72500001D02*
X86035000Y-71360000D01*
X65999999Y-72500001D02*
X84894999Y-72500001D01*
X64000000Y-74500000D02*
X65999999Y-72500001D01*
D22*
X66828427Y-107271573D02*
X66828427Y-107500000D01*
X68269000Y-105831000D02*
X66828427Y-107271573D01*
X69144000Y-105831000D02*
X68269000Y-105831000D01*
X78695000Y-86462500D02*
X78832500Y-86600000D01*
X78695000Y-82790000D02*
X78695000Y-86462500D01*
X78615000Y-86817500D02*
X78832500Y-86600000D01*
X75240000Y-86817500D02*
X78615000Y-86817500D01*
X78832500Y-86600000D02*
X78832500Y-90192500D01*
X78832500Y-90192500D02*
X79685000Y-91045000D01*
X83495000Y-109460000D02*
X85400000Y-109460000D01*
X85400000Y-109460000D02*
X86035000Y-108825000D01*
X86035000Y-108825000D02*
X86035000Y-104380000D01*
X86035000Y-104380000D02*
X89210000Y-104380000D01*
D23*
X89475000Y-104645000D02*
X89210000Y-104380000D01*
X89475000Y-106710000D02*
X89475000Y-104645000D01*
X92725000Y-99510000D02*
X92725000Y-97735000D01*
X92725000Y-97735000D02*
X92385000Y-97395000D01*
D22*
X92385000Y-97395000D02*
X79685000Y-97395000D01*
X91750000Y-76880000D02*
X92580000Y-76880000D01*
X120742500Y-73900000D02*
X120742500Y-74775000D01*
D23*
X79050000Y-105867500D02*
X77997500Y-105867500D01*
X77145000Y-105015000D02*
X77145000Y-97395000D01*
X77997500Y-105867500D02*
X77145000Y-105015000D01*
X93030000Y-92940000D02*
X93030000Y-89140000D01*
X93020000Y-92950000D02*
X93030000Y-92940000D01*
X77145000Y-92950000D02*
X93020000Y-92950000D01*
D21*
X124000000Y-77575000D02*
X124000000Y-80000000D01*
X123305000Y-76880000D02*
X124000000Y-77575000D01*
X120742500Y-76857500D02*
X120742500Y-73900000D01*
X120765000Y-76880000D02*
X120742500Y-76857500D01*
X91750000Y-76880000D02*
X120765000Y-76880000D01*
X120765000Y-76880000D02*
X123305000Y-76880000D01*
X91750000Y-76880000D02*
X91750000Y-83180000D01*
X91750000Y-87860000D02*
X93030000Y-89140000D01*
X91750000Y-83180000D02*
X91750000Y-87860000D01*
D23*
X71430000Y-89775000D02*
X71155000Y-89500000D01*
X71155000Y-89500000D02*
X68000000Y-89500000D01*
X71430000Y-94220000D02*
X71430000Y-89775000D01*
X72065000Y-94855000D02*
X71430000Y-94220000D01*
X95325000Y-95890000D02*
X94290000Y-94855000D01*
X95325000Y-99510000D02*
X95325000Y-95890000D01*
X72065000Y-94855000D02*
X94290000Y-94855000D01*
X73750000Y-94000000D02*
X72700000Y-92950000D01*
X95975000Y-99510000D02*
X95975000Y-94635000D01*
X95340000Y-94000000D02*
X95560000Y-94220000D01*
X73750000Y-94000000D02*
X95340000Y-94000000D01*
X95975000Y-94635000D02*
X95560000Y-94220000D01*
X87525000Y-106710000D02*
X87525000Y-110315000D01*
X87679620Y-110469620D02*
X126935380Y-110469620D01*
X87525000Y-110315000D02*
X87679620Y-110469620D01*
X126935380Y-110469620D02*
X127310000Y-110095000D01*
X127310000Y-110095000D02*
X127310000Y-78980000D01*
X125405000Y-77075000D02*
X125405000Y-76440000D01*
X127310000Y-78980000D02*
X125405000Y-77075000D01*
X88825000Y-109210000D02*
X88825000Y-106710000D01*
X88575000Y-109460000D02*
X88825000Y-109210000D01*
X122000000Y-83195000D02*
X122000000Y-80000000D01*
X122865000Y-84060000D02*
X122000000Y-83195000D01*
X126675000Y-109460000D02*
X126675000Y-84695000D01*
X126170190Y-109964810D02*
X126675000Y-109460000D01*
X126040000Y-84060000D02*
X122865000Y-84060000D01*
X126675000Y-84695000D02*
X126040000Y-84060000D01*
X90349810Y-109964810D02*
X126170190Y-109964810D01*
X90125000Y-109740000D02*
X90349810Y-109964810D01*
X90125000Y-106710000D02*
X90125000Y-109740000D01*
X94025000Y-106710000D02*
X94025000Y-109090000D01*
X94025000Y-109090000D02*
X94395000Y-109460000D01*
X94395000Y-109460000D02*
X115245000Y-109460000D01*
X116000000Y-108705000D02*
X116000000Y-102000000D01*
X115245000Y-109460000D02*
X116000000Y-108705000D01*
X92725000Y-106710000D02*
X92725000Y-105310000D01*
X92725000Y-105310000D02*
X93655000Y-104380000D01*
X93655000Y-104380000D02*
X102545000Y-104380000D01*
X102545000Y-104380000D02*
X103180000Y-103745000D01*
X103180000Y-103745000D02*
X103180000Y-83425000D01*
X103180000Y-83425000D02*
X104450000Y-82155000D01*
X104450000Y-82155000D02*
X106990000Y-82155000D01*
X108000000Y-81145000D02*
X108000000Y-80000000D01*
X106990000Y-82155000D02*
X108000000Y-81145000D01*
D22*
X75022500Y-83625000D02*
X75240000Y-83842500D01*
X94030000Y-83180000D02*
X97220000Y-83180000D01*
X98100000Y-84060000D02*
X98100000Y-86382500D01*
X97220000Y-83180000D02*
X98100000Y-84060000D01*
X75240000Y-81520000D02*
X75240000Y-83842500D01*
X75240000Y-79197500D02*
X75022500Y-78980000D01*
X75240000Y-81520000D02*
X75240000Y-79197500D01*
X72700000Y-102892500D02*
X75240000Y-102892500D01*
X79050000Y-102892500D02*
X81590000Y-102892500D01*
D23*
X72700000Y-105867500D02*
X71012500Y-105867500D01*
X71012500Y-105867500D02*
X70795000Y-105650000D01*
X70795000Y-97395000D02*
X72065000Y-96125000D01*
X72065000Y-96125000D02*
X93655000Y-96125000D01*
X94675000Y-97145000D02*
X94675000Y-99510000D01*
X93655000Y-96125000D02*
X94675000Y-97145000D01*
X70795000Y-101967000D02*
X70795000Y-97395000D01*
X70795000Y-105650000D02*
X70795000Y-102729000D01*
D24*
X70668000Y-102856000D02*
X69144000Y-102856000D01*
D23*
X70795000Y-102729000D02*
X70795000Y-101967000D01*
D25*
G36*
X133340000Y-82028000D02*
G01*
X128097400Y-82028000D01*
X128097400Y-79018663D01*
X128101208Y-78980000D01*
X128097400Y-78941337D01*
X128097400Y-78941327D01*
X128086006Y-78825643D01*
X128040982Y-78677217D01*
X128020596Y-78639078D01*
X127967866Y-78540427D01*
X127894121Y-78450570D01*
X127869469Y-78420531D01*
X127839428Y-78395877D01*
X126337319Y-76893769D01*
X126400226Y-76741898D01*
X126440000Y-76541939D01*
X126440000Y-76338061D01*
X126400226Y-76138102D01*
X126322205Y-75949744D01*
X126208937Y-75780226D01*
X126064774Y-75636063D01*
X125895256Y-75522795D01*
X125706898Y-75444774D01*
X125506939Y-75405000D01*
X125303061Y-75405000D01*
X125103102Y-75444774D01*
X124914744Y-75522795D01*
X124745226Y-75636063D01*
X124601063Y-75780226D01*
X124487795Y-75949744D01*
X124409774Y-76138102D01*
X124401375Y-76180325D01*
X124247141Y-76026091D01*
X124207370Y-75977630D01*
X124013988Y-75818925D01*
X123793359Y-75700997D01*
X123553963Y-75628377D01*
X123367380Y-75610000D01*
X123367373Y-75610000D01*
X123305000Y-75603857D01*
X123242627Y-75610000D01*
X122012500Y-75610000D01*
X122012500Y-74889119D01*
X122025472Y-74864850D01*
X122052727Y-74775000D01*
X122366928Y-74775000D01*
X122379188Y-74899482D01*
X122415498Y-75019180D01*
X122474463Y-75129494D01*
X122553815Y-75226185D01*
X122650506Y-75305537D01*
X122760820Y-75364502D01*
X122880518Y-75400812D01*
X123005000Y-75413072D01*
X123431750Y-75410000D01*
X123590500Y-75251250D01*
X123590500Y-74027000D01*
X123844500Y-74027000D01*
X123844500Y-75251250D01*
X124003250Y-75410000D01*
X124430000Y-75413072D01*
X124554482Y-75400812D01*
X124674180Y-75364502D01*
X124784494Y-75305537D01*
X124881185Y-75226185D01*
X124960537Y-75129494D01*
X125019502Y-75019180D01*
X125055812Y-74899482D01*
X125068072Y-74775000D01*
X125065000Y-74185750D01*
X124906250Y-74027000D01*
X123844500Y-74027000D01*
X123590500Y-74027000D01*
X122528750Y-74027000D01*
X122370000Y-74185750D01*
X122366928Y-74775000D01*
X122052727Y-74775000D01*
X122076008Y-74698254D01*
X122093072Y-74525000D01*
X122093072Y-73275000D01*
X122076008Y-73101746D01*
X122052728Y-73025000D01*
X122366928Y-73025000D01*
X122370000Y-73614250D01*
X122528750Y-73773000D01*
X123590500Y-73773000D01*
X123590500Y-72548750D01*
X123844500Y-72548750D01*
X123844500Y-73773000D01*
X124906250Y-73773000D01*
X125065000Y-73614250D01*
X125068072Y-73025000D01*
X125055812Y-72900518D01*
X125019502Y-72780820D01*
X124960537Y-72670506D01*
X124881185Y-72573815D01*
X124784494Y-72494463D01*
X124674180Y-72435498D01*
X124554482Y-72399188D01*
X124430000Y-72386928D01*
X124003250Y-72390000D01*
X123844500Y-72548750D01*
X123590500Y-72548750D01*
X123431750Y-72390000D01*
X123005000Y-72386928D01*
X122880518Y-72399188D01*
X122760820Y-72435498D01*
X122650506Y-72494463D01*
X122553815Y-72573815D01*
X122474463Y-72670506D01*
X122415498Y-72780820D01*
X122379188Y-72900518D01*
X122366928Y-73025000D01*
X122052728Y-73025000D01*
X122025472Y-72935150D01*
X121943405Y-72781614D01*
X121832962Y-72647038D01*
X121698386Y-72536595D01*
X121544850Y-72454528D01*
X121378254Y-72403992D01*
X121205000Y-72386928D01*
X120280000Y-72386928D01*
X120106746Y-72403992D01*
X119940150Y-72454528D01*
X119786614Y-72536595D01*
X119652038Y-72647038D01*
X119541595Y-72781614D01*
X119459528Y-72935150D01*
X119408992Y-73101746D01*
X119391928Y-73275000D01*
X119391928Y-74525000D01*
X119408992Y-74698254D01*
X119459528Y-74864850D01*
X119472501Y-74889120D01*
X119472500Y-75610000D01*
X95288072Y-75610000D01*
X95288072Y-73680000D01*
X95275812Y-73555518D01*
X95239502Y-73435820D01*
X95180537Y-73325506D01*
X95101185Y-73228815D01*
X95004494Y-73149463D01*
X94894180Y-73090498D01*
X94774482Y-73054188D01*
X94650000Y-73041928D01*
X88850000Y-73041928D01*
X88725518Y-73054188D01*
X88605820Y-73090498D01*
X88495506Y-73149463D01*
X88398815Y-73228815D01*
X88319463Y-73325506D01*
X88260498Y-73435820D01*
X88224188Y-73555518D01*
X88211928Y-73680000D01*
X88211928Y-80080000D01*
X88224188Y-80204482D01*
X88260498Y-80324180D01*
X88319463Y-80434494D01*
X88398815Y-80531185D01*
X88495506Y-80610537D01*
X88605820Y-80669502D01*
X88725518Y-80705812D01*
X88850000Y-80718072D01*
X90480001Y-80718072D01*
X90480001Y-81595016D01*
X90424494Y-81549463D01*
X90314180Y-81490498D01*
X90194482Y-81454188D01*
X90070000Y-81441928D01*
X89755750Y-81445000D01*
X89597000Y-81603750D01*
X89597000Y-83053000D01*
X89617000Y-83053000D01*
X89617000Y-83307000D01*
X89597000Y-83307000D01*
X89597000Y-84756250D01*
X89755750Y-84915000D01*
X90070000Y-84918072D01*
X90194482Y-84905812D01*
X90314180Y-84869502D01*
X90424494Y-84810537D01*
X90480000Y-84764984D01*
X90480001Y-87797617D01*
X90473857Y-87860000D01*
X90498377Y-88108963D01*
X90552107Y-88286083D01*
X90570998Y-88348359D01*
X90688926Y-88568988D01*
X90847631Y-88762370D01*
X90896086Y-88802136D01*
X91266928Y-89172978D01*
X91266928Y-90065001D01*
X91283992Y-90238255D01*
X91334528Y-90404851D01*
X91416595Y-90558387D01*
X91527038Y-90692962D01*
X91661613Y-90803405D01*
X91815149Y-90885472D01*
X91981745Y-90936008D01*
X92154999Y-90953072D01*
X92242601Y-90953072D01*
X92242600Y-92162600D01*
X79884264Y-92162600D01*
X80016067Y-92136383D01*
X80222624Y-92050824D01*
X80408520Y-91926612D01*
X80566612Y-91768520D01*
X80690824Y-91582624D01*
X80776383Y-91376067D01*
X80820000Y-91156788D01*
X80820000Y-90933212D01*
X80776383Y-90713933D01*
X80690824Y-90507376D01*
X80566612Y-90321480D01*
X80560132Y-90315000D01*
X86166928Y-90315000D01*
X86179188Y-90439482D01*
X86215498Y-90559180D01*
X86274463Y-90669494D01*
X86353815Y-90766185D01*
X86450506Y-90845537D01*
X86560820Y-90904502D01*
X86680518Y-90940812D01*
X86805000Y-90953072D01*
X87644250Y-90950000D01*
X87803000Y-90791250D01*
X87803000Y-89267000D01*
X88057000Y-89267000D01*
X88057000Y-90791250D01*
X88215750Y-90950000D01*
X89055000Y-90953072D01*
X89179482Y-90940812D01*
X89299180Y-90904502D01*
X89409494Y-90845537D01*
X89506185Y-90766185D01*
X89585537Y-90669494D01*
X89644502Y-90559180D01*
X89680812Y-90439482D01*
X89693072Y-90315000D01*
X89690000Y-89425750D01*
X89531250Y-89267000D01*
X88057000Y-89267000D01*
X87803000Y-89267000D01*
X86328750Y-89267000D01*
X86170000Y-89425750D01*
X86166928Y-90315000D01*
X80560132Y-90315000D01*
X80408520Y-90163388D01*
X80222624Y-90039176D01*
X80016067Y-89953617D01*
X79921931Y-89934892D01*
X79785000Y-89797962D01*
X79785000Y-87965215D01*
X79788386Y-87963405D01*
X79922962Y-87852962D01*
X80033405Y-87718386D01*
X80115472Y-87564850D01*
X80142727Y-87475000D01*
X80456928Y-87475000D01*
X80469188Y-87599482D01*
X80505498Y-87719180D01*
X80564463Y-87829494D01*
X80643815Y-87926185D01*
X80740506Y-88005537D01*
X80850820Y-88064502D01*
X80970518Y-88100812D01*
X81095000Y-88113072D01*
X81521750Y-88110000D01*
X81680500Y-87951250D01*
X81680500Y-86727000D01*
X81934500Y-86727000D01*
X81934500Y-87951250D01*
X82093250Y-88110000D01*
X82520000Y-88113072D01*
X82644482Y-88100812D01*
X82764180Y-88064502D01*
X82874494Y-88005537D01*
X82923888Y-87965000D01*
X86166928Y-87965000D01*
X86170000Y-88854250D01*
X86328750Y-89013000D01*
X87803000Y-89013000D01*
X87803000Y-87488750D01*
X88057000Y-87488750D01*
X88057000Y-89013000D01*
X89531250Y-89013000D01*
X89690000Y-88854250D01*
X89693072Y-87965000D01*
X89680812Y-87840518D01*
X89644502Y-87720820D01*
X89585537Y-87610506D01*
X89506185Y-87513815D01*
X89409494Y-87434463D01*
X89299180Y-87375498D01*
X89179482Y-87339188D01*
X89055000Y-87326928D01*
X88215750Y-87330000D01*
X88057000Y-87488750D01*
X87803000Y-87488750D01*
X87644250Y-87330000D01*
X86805000Y-87326928D01*
X86680518Y-87339188D01*
X86560820Y-87375498D01*
X86450506Y-87434463D01*
X86353815Y-87513815D01*
X86274463Y-87610506D01*
X86215498Y-87720820D01*
X86179188Y-87840518D01*
X86166928Y-87965000D01*
X82923888Y-87965000D01*
X82971185Y-87926185D01*
X83050537Y-87829494D01*
X83109502Y-87719180D01*
X83145812Y-87599482D01*
X83158072Y-87475000D01*
X83155000Y-86885750D01*
X82996250Y-86727000D01*
X81934500Y-86727000D01*
X81680500Y-86727000D01*
X80618750Y-86727000D01*
X80460000Y-86885750D01*
X80456928Y-87475000D01*
X80142727Y-87475000D01*
X80166008Y-87398254D01*
X80183072Y-87225000D01*
X80183072Y-85975000D01*
X80166008Y-85801746D01*
X80142728Y-85725000D01*
X80456928Y-85725000D01*
X80460000Y-86314250D01*
X80618750Y-86473000D01*
X81680500Y-86473000D01*
X81680500Y-85248750D01*
X81934500Y-85248750D01*
X81934500Y-86473000D01*
X82996250Y-86473000D01*
X83155000Y-86314250D01*
X83158072Y-85725000D01*
X83145812Y-85600518D01*
X83109502Y-85480820D01*
X83050537Y-85370506D01*
X82971185Y-85273815D01*
X82874494Y-85194463D01*
X82764180Y-85135498D01*
X82644482Y-85099188D01*
X82520000Y-85086928D01*
X82093250Y-85090000D01*
X81934500Y-85248750D01*
X81680500Y-85248750D01*
X81521750Y-85090000D01*
X81095000Y-85086928D01*
X80970518Y-85099188D01*
X80850820Y-85135498D01*
X80740506Y-85194463D01*
X80643815Y-85273815D01*
X80564463Y-85370506D01*
X80505498Y-85480820D01*
X80469188Y-85600518D01*
X80456928Y-85725000D01*
X80142728Y-85725000D01*
X80115472Y-85635150D01*
X80033405Y-85481614D01*
X79922962Y-85347038D01*
X79788386Y-85236595D01*
X79647500Y-85161290D01*
X79647500Y-84475259D01*
X79688386Y-84453405D01*
X79822962Y-84342962D01*
X79933405Y-84208386D01*
X80015472Y-84054850D01*
X80042727Y-83965000D01*
X80556928Y-83965000D01*
X80569188Y-84089482D01*
X80605498Y-84209180D01*
X80664463Y-84319494D01*
X80743815Y-84416185D01*
X80840506Y-84495537D01*
X80950820Y-84554502D01*
X81070518Y-84590812D01*
X81195000Y-84603072D01*
X81659250Y-84600000D01*
X81818000Y-84441250D01*
X81818000Y-82917000D01*
X82072000Y-82917000D01*
X82072000Y-84441250D01*
X82230750Y-84600000D01*
X82695000Y-84603072D01*
X82819482Y-84590812D01*
X82939180Y-84554502D01*
X83049494Y-84495537D01*
X83146185Y-84416185D01*
X83225537Y-84319494D01*
X83246647Y-84280000D01*
X88231928Y-84280000D01*
X88244188Y-84404482D01*
X88280498Y-84524180D01*
X88339463Y-84634494D01*
X88418815Y-84731185D01*
X88515506Y-84810537D01*
X88625820Y-84869502D01*
X88745518Y-84905812D01*
X88870000Y-84918072D01*
X89184250Y-84915000D01*
X89343000Y-84756250D01*
X89343000Y-83307000D01*
X88393750Y-83307000D01*
X88235000Y-83465750D01*
X88231928Y-84280000D01*
X83246647Y-84280000D01*
X83284502Y-84209180D01*
X83320812Y-84089482D01*
X83333072Y-83965000D01*
X83330000Y-83075750D01*
X83171250Y-82917000D01*
X82072000Y-82917000D01*
X81818000Y-82917000D01*
X80718750Y-82917000D01*
X80560000Y-83075750D01*
X80556928Y-83965000D01*
X80042727Y-83965000D01*
X80066008Y-83888254D01*
X80083072Y-83715000D01*
X80083072Y-81865000D01*
X80066008Y-81691746D01*
X80042728Y-81615000D01*
X80556928Y-81615000D01*
X80560000Y-82504250D01*
X80718750Y-82663000D01*
X81818000Y-82663000D01*
X81818000Y-81138750D01*
X82072000Y-81138750D01*
X82072000Y-82663000D01*
X83171250Y-82663000D01*
X83330000Y-82504250D01*
X83331465Y-82080000D01*
X88231928Y-82080000D01*
X88235000Y-82894250D01*
X88393750Y-83053000D01*
X89343000Y-83053000D01*
X89343000Y-81603750D01*
X89184250Y-81445000D01*
X88870000Y-81441928D01*
X88745518Y-81454188D01*
X88625820Y-81490498D01*
X88515506Y-81549463D01*
X88418815Y-81628815D01*
X88339463Y-81725506D01*
X88280498Y-81835820D01*
X88244188Y-81955518D01*
X88231928Y-82080000D01*
X83331465Y-82080000D01*
X83333072Y-81615000D01*
X83320812Y-81490518D01*
X83284502Y-81370820D01*
X83225537Y-81260506D01*
X83146185Y-81163815D01*
X83049494Y-81084463D01*
X82939180Y-81025498D01*
X82819482Y-80989188D01*
X82695000Y-80976928D01*
X82230750Y-80980000D01*
X82072000Y-81138750D01*
X81818000Y-81138750D01*
X81659250Y-80980000D01*
X81195000Y-80976928D01*
X81070518Y-80989188D01*
X80950820Y-81025498D01*
X80840506Y-81084463D01*
X80743815Y-81163815D01*
X80664463Y-81260506D01*
X80605498Y-81370820D01*
X80569188Y-81490518D01*
X80556928Y-81615000D01*
X80042728Y-81615000D01*
X80015472Y-81525150D01*
X79933405Y-81371614D01*
X79822962Y-81237038D01*
X79688386Y-81126595D01*
X79534850Y-81044528D01*
X79368254Y-80993992D01*
X79195000Y-80976928D01*
X78195000Y-80976928D01*
X78021746Y-80993992D01*
X77855150Y-81044528D01*
X77701614Y-81126595D01*
X77567038Y-81237038D01*
X77456595Y-81371614D01*
X77374528Y-81525150D01*
X77323992Y-81691746D01*
X77306928Y-81865000D01*
X77306928Y-83715000D01*
X77323992Y-83888254D01*
X77374528Y-84054850D01*
X77456595Y-84208386D01*
X77567038Y-84342962D01*
X77701614Y-84453405D01*
X77742500Y-84475259D01*
X77742501Y-85346658D01*
X77742038Y-85347038D01*
X77631595Y-85481614D01*
X77549528Y-85635150D01*
X77498992Y-85801746D01*
X77492762Y-85865000D01*
X77055215Y-85865000D01*
X77053405Y-85861614D01*
X76942962Y-85727038D01*
X76808386Y-85616595D01*
X76654850Y-85534528D01*
X76488254Y-85483992D01*
X76315000Y-85466928D01*
X74165000Y-85466928D01*
X73991746Y-85483992D01*
X73825150Y-85534528D01*
X73671614Y-85616595D01*
X73537038Y-85727038D01*
X73426595Y-85861614D01*
X73344528Y-86015150D01*
X73293992Y-86181746D01*
X73276928Y-86355000D01*
X73276928Y-87280000D01*
X73293992Y-87453254D01*
X73344528Y-87619850D01*
X73426595Y-87773386D01*
X73537038Y-87907962D01*
X73671614Y-88018405D01*
X73825150Y-88100472D01*
X73991746Y-88151008D01*
X74165000Y-88168072D01*
X76315000Y-88168072D01*
X76488254Y-88151008D01*
X76654850Y-88100472D01*
X76808386Y-88018405D01*
X76942962Y-87907962D01*
X77053405Y-87773386D01*
X77055215Y-87770000D01*
X77673953Y-87770000D01*
X77742038Y-87852962D01*
X77876614Y-87963405D01*
X77880000Y-87965215D01*
X77880001Y-90145706D01*
X77875392Y-90192500D01*
X77893783Y-90379222D01*
X77948249Y-90558769D01*
X78036694Y-90724240D01*
X78096080Y-90796602D01*
X78155723Y-90869278D01*
X78192064Y-90899102D01*
X78574892Y-91281931D01*
X78593617Y-91376067D01*
X78679176Y-91582624D01*
X78803388Y-91768520D01*
X78961480Y-91926612D01*
X79147376Y-92050824D01*
X79353933Y-92136383D01*
X79485736Y-92162600D01*
X77821311Y-92162600D01*
X77804774Y-92146063D01*
X77635256Y-92032795D01*
X77446898Y-91954774D01*
X77246939Y-91915000D01*
X77043061Y-91915000D01*
X76843102Y-91954774D01*
X76654744Y-92032795D01*
X76485226Y-92146063D01*
X76341063Y-92290226D01*
X76227795Y-92459744D01*
X76149774Y-92648102D01*
X76110000Y-92848061D01*
X76110000Y-93051939D01*
X76141957Y-93212600D01*
X74076152Y-93212600D01*
X73735000Y-92871449D01*
X73735000Y-92848061D01*
X73695226Y-92648102D01*
X73617205Y-92459744D01*
X73503937Y-92290226D01*
X73359774Y-92146063D01*
X73190256Y-92032795D01*
X73001898Y-91954774D01*
X72801939Y-91915000D01*
X72598061Y-91915000D01*
X72398102Y-91954774D01*
X72217400Y-92029624D01*
X72217400Y-89813665D01*
X72221208Y-89775000D01*
X72217400Y-89736335D01*
X72217400Y-89736327D01*
X72206006Y-89620643D01*
X72160982Y-89472217D01*
X72087866Y-89335428D01*
X71989469Y-89215531D01*
X71959427Y-89190876D01*
X71739127Y-88970577D01*
X71714469Y-88940531D01*
X71594572Y-88842134D01*
X71457783Y-88769018D01*
X71309357Y-88723994D01*
X71193673Y-88712600D01*
X71193663Y-88712600D01*
X71155000Y-88708792D01*
X71116337Y-88712600D01*
X69199735Y-88712600D01*
X69114637Y-88585241D01*
X68914759Y-88385363D01*
X68679727Y-88228320D01*
X68418574Y-88120147D01*
X68141335Y-88065000D01*
X67858665Y-88065000D01*
X67581426Y-88120147D01*
X67320273Y-88228320D01*
X67085241Y-88385363D01*
X67000000Y-88470604D01*
X66914759Y-88385363D01*
X66679727Y-88228320D01*
X66418574Y-88120147D01*
X66141335Y-88065000D01*
X65858665Y-88065000D01*
X65581426Y-88120147D01*
X65320273Y-88228320D01*
X65085241Y-88385363D01*
X64885363Y-88585241D01*
X64728320Y-88820273D01*
X64620147Y-89081426D01*
X64565000Y-89358665D01*
X64565000Y-89641335D01*
X64620147Y-89918574D01*
X64728320Y-90179727D01*
X64885363Y-90414759D01*
X65085241Y-90614637D01*
X65285869Y-90748692D01*
X65258486Y-90763329D01*
X65186903Y-91007298D01*
X66000000Y-91820395D01*
X66014143Y-91806253D01*
X66193748Y-91985858D01*
X66179605Y-92000000D01*
X66193748Y-92014143D01*
X66014143Y-92193748D01*
X66000000Y-92179605D01*
X65186903Y-92992702D01*
X65258486Y-93236671D01*
X65513996Y-93357571D01*
X65788184Y-93426300D01*
X66070512Y-93440217D01*
X66350130Y-93398787D01*
X66616292Y-93303603D01*
X66738309Y-93238384D01*
X66748815Y-93251185D01*
X66845506Y-93330537D01*
X66955820Y-93389502D01*
X67075518Y-93425812D01*
X67200000Y-93438072D01*
X68800000Y-93438072D01*
X68924482Y-93425812D01*
X69044180Y-93389502D01*
X69154494Y-93330537D01*
X69251185Y-93251185D01*
X69330537Y-93154494D01*
X69389502Y-93044180D01*
X69425812Y-92924482D01*
X69438072Y-92800000D01*
X69438072Y-91200000D01*
X69425812Y-91075518D01*
X69389502Y-90955820D01*
X69330537Y-90845506D01*
X69251185Y-90748815D01*
X69154494Y-90669463D01*
X69044180Y-90610498D01*
X68948057Y-90581339D01*
X69114637Y-90414759D01*
X69199735Y-90287400D01*
X70642601Y-90287400D01*
X70642600Y-94181337D01*
X70638792Y-94220000D01*
X70642600Y-94258663D01*
X70642600Y-94258672D01*
X70653994Y-94374356D01*
X70699018Y-94522782D01*
X70772134Y-94659571D01*
X70870531Y-94779469D01*
X70900577Y-94804127D01*
X71480881Y-95384433D01*
X71505531Y-95414469D01*
X71535567Y-95439119D01*
X71535570Y-95439122D01*
X71597566Y-95490000D01*
X71535569Y-95540879D01*
X71535567Y-95540881D01*
X71505531Y-95565531D01*
X71480881Y-95595567D01*
X70265573Y-96810877D01*
X70235532Y-96835531D01*
X70210879Y-96865571D01*
X70137135Y-96955428D01*
X70064018Y-97092218D01*
X70018995Y-97240643D01*
X70003792Y-97395000D01*
X70007601Y-97433673D01*
X70007600Y-101542314D01*
X69942254Y-101522492D01*
X69769000Y-101505428D01*
X68519000Y-101505428D01*
X68345746Y-101522492D01*
X68179150Y-101573028D01*
X68025614Y-101655095D01*
X67891038Y-101765538D01*
X67780595Y-101900114D01*
X67698528Y-102053650D01*
X67647992Y-102220246D01*
X67630928Y-102393500D01*
X67630928Y-103318500D01*
X67647992Y-103491754D01*
X67698528Y-103658350D01*
X67780595Y-103811886D01*
X67891038Y-103946462D01*
X68025614Y-104056905D01*
X68179150Y-104138972D01*
X68345746Y-104189508D01*
X68519000Y-104206572D01*
X69769000Y-104206572D01*
X69942254Y-104189508D01*
X70007601Y-104169685D01*
X70007600Y-104480487D01*
X69429750Y-104483500D01*
X69271000Y-104642250D01*
X69271000Y-105704000D01*
X69291000Y-105704000D01*
X69291000Y-105958000D01*
X69271000Y-105958000D01*
X69271000Y-107019750D01*
X69429750Y-107178500D01*
X70019000Y-107181572D01*
X70143482Y-107169312D01*
X70263180Y-107133002D01*
X70373494Y-107074037D01*
X70470185Y-106994685D01*
X70549537Y-106897994D01*
X70608502Y-106787680D01*
X70644812Y-106667982D01*
X70654561Y-106569000D01*
X70709717Y-106598482D01*
X70858143Y-106643506D01*
X70973827Y-106654900D01*
X70973836Y-106654900D01*
X71012499Y-106658708D01*
X71051162Y-106654900D01*
X71249993Y-106654900D01*
X71254528Y-106669850D01*
X71336595Y-106823386D01*
X71447038Y-106957962D01*
X71581614Y-107068405D01*
X71735150Y-107150472D01*
X71901746Y-107201008D01*
X72075000Y-107218072D01*
X73325000Y-107218072D01*
X73498254Y-107201008D01*
X73664850Y-107150472D01*
X73818386Y-107068405D01*
X73893662Y-107006628D01*
X73913815Y-107031185D01*
X74010506Y-107110537D01*
X74120820Y-107169502D01*
X74240518Y-107205812D01*
X74365000Y-107218072D01*
X74954250Y-107215000D01*
X75113000Y-107056250D01*
X75113000Y-105994500D01*
X75367000Y-105994500D01*
X75367000Y-107056250D01*
X75525750Y-107215000D01*
X76115000Y-107218072D01*
X76239482Y-107205812D01*
X76359180Y-107169502D01*
X76469494Y-107110537D01*
X76566185Y-107031185D01*
X76645537Y-106934494D01*
X76704502Y-106824180D01*
X76740812Y-106704482D01*
X76753072Y-106580000D01*
X76750000Y-106153250D01*
X76591250Y-105994500D01*
X75367000Y-105994500D01*
X75113000Y-105994500D01*
X75093000Y-105994500D01*
X75093000Y-105740500D01*
X75113000Y-105740500D01*
X75113000Y-104678750D01*
X74954250Y-104520000D01*
X74365000Y-104516928D01*
X74240518Y-104529188D01*
X74120820Y-104565498D01*
X74010506Y-104624463D01*
X73913815Y-104703815D01*
X73893662Y-104728372D01*
X73818386Y-104666595D01*
X73664850Y-104584528D01*
X73498254Y-104533992D01*
X73325000Y-104516928D01*
X72075000Y-104516928D01*
X71901746Y-104533992D01*
X71735150Y-104584528D01*
X71582400Y-104666175D01*
X71582400Y-104093825D01*
X71735150Y-104175472D01*
X71901746Y-104226008D01*
X72075000Y-104243072D01*
X73325000Y-104243072D01*
X73498254Y-104226008D01*
X73664850Y-104175472D01*
X73818386Y-104093405D01*
X73952962Y-103982962D01*
X73970000Y-103962201D01*
X73987038Y-103982962D01*
X74121614Y-104093405D01*
X74275150Y-104175472D01*
X74441746Y-104226008D01*
X74615000Y-104243072D01*
X75865000Y-104243072D01*
X76038254Y-104226008D01*
X76204850Y-104175472D01*
X76357600Y-104093825D01*
X76357600Y-104565019D01*
X76239482Y-104529188D01*
X76115000Y-104516928D01*
X75525750Y-104520000D01*
X75367000Y-104678750D01*
X75367000Y-105740500D01*
X76591250Y-105740500D01*
X76674100Y-105657650D01*
X77413377Y-106396927D01*
X77438031Y-106426969D01*
X77557928Y-106525366D01*
X77561236Y-106527134D01*
X77604528Y-106669850D01*
X77686595Y-106823386D01*
X77797038Y-106957962D01*
X77931614Y-107068405D01*
X78085150Y-107150472D01*
X78251746Y-107201008D01*
X78425000Y-107218072D01*
X79675000Y-107218072D01*
X79848254Y-107201008D01*
X80014850Y-107150472D01*
X80168386Y-107068405D01*
X80243662Y-107006628D01*
X80263815Y-107031185D01*
X80360506Y-107110537D01*
X80470820Y-107169502D01*
X80590518Y-107205812D01*
X80715000Y-107218072D01*
X81304250Y-107215000D01*
X81463000Y-107056250D01*
X81463000Y-105994500D01*
X81717000Y-105994500D01*
X81717000Y-107056250D01*
X81875750Y-107215000D01*
X82465000Y-107218072D01*
X82589482Y-107205812D01*
X82709180Y-107169502D01*
X82819494Y-107110537D01*
X82916185Y-107031185D01*
X82995537Y-106934494D01*
X83054502Y-106824180D01*
X83090812Y-106704482D01*
X83103072Y-106580000D01*
X83100000Y-106153250D01*
X82941250Y-105994500D01*
X81717000Y-105994500D01*
X81463000Y-105994500D01*
X81443000Y-105994500D01*
X81443000Y-105740500D01*
X81463000Y-105740500D01*
X81463000Y-104678750D01*
X81717000Y-104678750D01*
X81717000Y-105740500D01*
X82941250Y-105740500D01*
X83100000Y-105581750D01*
X83103072Y-105155000D01*
X83090812Y-105030518D01*
X83054502Y-104910820D01*
X82995537Y-104800506D01*
X82916185Y-104703815D01*
X82819494Y-104624463D01*
X82709180Y-104565498D01*
X82589482Y-104529188D01*
X82465000Y-104516928D01*
X81875750Y-104520000D01*
X81717000Y-104678750D01*
X81463000Y-104678750D01*
X81304250Y-104520000D01*
X80715000Y-104516928D01*
X80590518Y-104529188D01*
X80470820Y-104565498D01*
X80360506Y-104624463D01*
X80263815Y-104703815D01*
X80243662Y-104728372D01*
X80168386Y-104666595D01*
X80014850Y-104584528D01*
X79848254Y-104533992D01*
X79675000Y-104516928D01*
X78425000Y-104516928D01*
X78251746Y-104533992D01*
X78085150Y-104584528D01*
X77932400Y-104666175D01*
X77932400Y-104093825D01*
X78085150Y-104175472D01*
X78251746Y-104226008D01*
X78425000Y-104243072D01*
X79675000Y-104243072D01*
X79848254Y-104226008D01*
X80014850Y-104175472D01*
X80168386Y-104093405D01*
X80302962Y-103982962D01*
X80320000Y-103962201D01*
X80337038Y-103982962D01*
X80471614Y-104093405D01*
X80625150Y-104175472D01*
X80791746Y-104226008D01*
X80965000Y-104243072D01*
X82215000Y-104243072D01*
X82388254Y-104226008D01*
X82554850Y-104175472D01*
X82708386Y-104093405D01*
X82842962Y-103982962D01*
X82953405Y-103848386D01*
X83035472Y-103694850D01*
X83086008Y-103528254D01*
X83103072Y-103355000D01*
X83103072Y-102430000D01*
X83086008Y-102256746D01*
X83035472Y-102090150D01*
X82953405Y-101936614D01*
X82842962Y-101802038D01*
X82708386Y-101691595D01*
X82554850Y-101609528D01*
X82388254Y-101558992D01*
X82215000Y-101541928D01*
X80965000Y-101541928D01*
X80791746Y-101558992D01*
X80625150Y-101609528D01*
X80471614Y-101691595D01*
X80337038Y-101802038D01*
X80320000Y-101822799D01*
X80302962Y-101802038D01*
X80168386Y-101691595D01*
X80014850Y-101609528D01*
X79848254Y-101558992D01*
X79675000Y-101541928D01*
X78425000Y-101541928D01*
X78251746Y-101558992D01*
X78085150Y-101609528D01*
X77932400Y-101691175D01*
X77932400Y-98071311D01*
X77948937Y-98054774D01*
X78062205Y-97885256D01*
X78140226Y-97696898D01*
X78180000Y-97496939D01*
X78180000Y-97293061D01*
X78140226Y-97093102D01*
X78065376Y-96912400D01*
X78656384Y-96912400D01*
X78593617Y-97063933D01*
X78550000Y-97283212D01*
X78550000Y-97506788D01*
X78593617Y-97726067D01*
X78679176Y-97932624D01*
X78803388Y-98118520D01*
X78961480Y-98276612D01*
X79147376Y-98400824D01*
X79353933Y-98486383D01*
X79573212Y-98530000D01*
X79796788Y-98530000D01*
X80016067Y-98486383D01*
X80222624Y-98400824D01*
X80302429Y-98347500D01*
X86733653Y-98347500D01*
X86710498Y-98390820D01*
X86674188Y-98510518D01*
X86661928Y-98635000D01*
X86661928Y-100385000D01*
X86674188Y-100509482D01*
X86710498Y-100629180D01*
X86769463Y-100739494D01*
X86848815Y-100836185D01*
X86945506Y-100915537D01*
X87055820Y-100974502D01*
X87175518Y-101010812D01*
X87300000Y-101023072D01*
X87750000Y-101023072D01*
X87850000Y-101013223D01*
X87950000Y-101023072D01*
X88400000Y-101023072D01*
X88502838Y-101012944D01*
X88568250Y-101020000D01*
X88600497Y-100987753D01*
X88644180Y-100974502D01*
X88754494Y-100915537D01*
X88825256Y-100857464D01*
X88888476Y-100910772D01*
X88997995Y-100971199D01*
X89049243Y-100987493D01*
X89081750Y-101020000D01*
X89150000Y-101012637D01*
X89218250Y-101020000D01*
X89250757Y-100987493D01*
X89302005Y-100971199D01*
X89411524Y-100910772D01*
X89474744Y-100857464D01*
X89545506Y-100915537D01*
X89655820Y-100974502D01*
X89699503Y-100987753D01*
X89731750Y-101020000D01*
X89797162Y-101012944D01*
X89900000Y-101023072D01*
X90350000Y-101023072D01*
X90450000Y-101013223D01*
X90550000Y-101023072D01*
X91000000Y-101023072D01*
X91100000Y-101013223D01*
X91200000Y-101023072D01*
X91650000Y-101023072D01*
X91752838Y-101012944D01*
X91818250Y-101020000D01*
X91850497Y-100987753D01*
X91894180Y-100974502D01*
X92004494Y-100915537D01*
X92075000Y-100857674D01*
X92145506Y-100915537D01*
X92255820Y-100974502D01*
X92299503Y-100987753D01*
X92331750Y-101020000D01*
X92397162Y-101012944D01*
X92500000Y-101023072D01*
X92950000Y-101023072D01*
X93050000Y-101013223D01*
X93150000Y-101023072D01*
X93600000Y-101023072D01*
X93702838Y-101012944D01*
X93768250Y-101020000D01*
X93800497Y-100987753D01*
X93844180Y-100974502D01*
X93954494Y-100915537D01*
X94025000Y-100857674D01*
X94095506Y-100915537D01*
X94205820Y-100974502D01*
X94249503Y-100987753D01*
X94281750Y-101020000D01*
X94347162Y-101012944D01*
X94450000Y-101023072D01*
X94900000Y-101023072D01*
X95000000Y-101013223D01*
X95100000Y-101023072D01*
X95550000Y-101023072D01*
X95650000Y-101013223D01*
X95750000Y-101023072D01*
X96200000Y-101023072D01*
X96324482Y-101010812D01*
X96444180Y-100974502D01*
X96554494Y-100915537D01*
X96651185Y-100836185D01*
X96730537Y-100739494D01*
X96789502Y-100629180D01*
X96825812Y-100509482D01*
X96838072Y-100385000D01*
X96838072Y-98635000D01*
X96825812Y-98510518D01*
X96789502Y-98390820D01*
X96762400Y-98340117D01*
X96762400Y-94673665D01*
X96766208Y-94635000D01*
X96762400Y-94596335D01*
X96762400Y-94596327D01*
X96751006Y-94480643D01*
X96705982Y-94332217D01*
X96632866Y-94195428D01*
X96534469Y-94075531D01*
X96504427Y-94050876D01*
X96089429Y-93635879D01*
X95924128Y-93470578D01*
X95899469Y-93440531D01*
X95779572Y-93342134D01*
X95642783Y-93269018D01*
X95494357Y-93223994D01*
X95378673Y-93212600D01*
X95378663Y-93212600D01*
X95340000Y-93208792D01*
X95301337Y-93212600D01*
X93770138Y-93212600D01*
X93806006Y-93094357D01*
X93817400Y-92978673D01*
X93817400Y-92978664D01*
X93821208Y-92940001D01*
X93817400Y-92901338D01*
X93817400Y-90953072D01*
X93905001Y-90953072D01*
X94078255Y-90936008D01*
X94244851Y-90885472D01*
X94398387Y-90803405D01*
X94532962Y-90692962D01*
X94643405Y-90558387D01*
X94725472Y-90404851D01*
X94776008Y-90238255D01*
X94792579Y-90070000D01*
X96586928Y-90070000D01*
X96599188Y-90194482D01*
X96635498Y-90314180D01*
X96694463Y-90424494D01*
X96773815Y-90521185D01*
X96870506Y-90600537D01*
X96980820Y-90659502D01*
X97100518Y-90695812D01*
X97225000Y-90708072D01*
X97814250Y-90705000D01*
X97973000Y-90546250D01*
X97973000Y-89484500D01*
X98227000Y-89484500D01*
X98227000Y-90546250D01*
X98385750Y-90705000D01*
X98975000Y-90708072D01*
X99099482Y-90695812D01*
X99219180Y-90659502D01*
X99329494Y-90600537D01*
X99426185Y-90521185D01*
X99505537Y-90424494D01*
X99564502Y-90314180D01*
X99600812Y-90194482D01*
X99613072Y-90070000D01*
X99610000Y-89643250D01*
X99451250Y-89484500D01*
X98227000Y-89484500D01*
X97973000Y-89484500D01*
X96748750Y-89484500D01*
X96590000Y-89643250D01*
X96586928Y-90070000D01*
X94792579Y-90070000D01*
X94793072Y-90065001D01*
X94793072Y-88645000D01*
X96586928Y-88645000D01*
X96590000Y-89071750D01*
X96748750Y-89230500D01*
X97973000Y-89230500D01*
X97973000Y-88168750D01*
X98227000Y-88168750D01*
X98227000Y-89230500D01*
X99451250Y-89230500D01*
X99610000Y-89071750D01*
X99613072Y-88645000D01*
X99600812Y-88520518D01*
X99564502Y-88400820D01*
X99505537Y-88290506D01*
X99426185Y-88193815D01*
X99329494Y-88114463D01*
X99219180Y-88055498D01*
X99099482Y-88019188D01*
X98975000Y-88006928D01*
X98385750Y-88010000D01*
X98227000Y-88168750D01*
X97973000Y-88168750D01*
X97814250Y-88010000D01*
X97225000Y-88006928D01*
X97100518Y-88019188D01*
X96980820Y-88055498D01*
X96870506Y-88114463D01*
X96773815Y-88193815D01*
X96694463Y-88290506D01*
X96635498Y-88400820D01*
X96599188Y-88520518D01*
X96586928Y-88645000D01*
X94793072Y-88645000D01*
X94793072Y-88214999D01*
X94776008Y-88041745D01*
X94725472Y-87875149D01*
X94643405Y-87721613D01*
X94532962Y-87587038D01*
X94398387Y-87476595D01*
X94244851Y-87394528D01*
X94078255Y-87343992D01*
X93905001Y-87326928D01*
X93020000Y-87326928D01*
X93020000Y-84764985D01*
X93075506Y-84810537D01*
X93185820Y-84869502D01*
X93305518Y-84905812D01*
X93430000Y-84918072D01*
X94630000Y-84918072D01*
X94754482Y-84905812D01*
X94874180Y-84869502D01*
X94984494Y-84810537D01*
X95081185Y-84731185D01*
X95160537Y-84634494D01*
X95219502Y-84524180D01*
X95255812Y-84404482D01*
X95268072Y-84280000D01*
X95268072Y-84132500D01*
X96602571Y-84132500D01*
X96682376Y-84185824D01*
X96888933Y-84271383D01*
X96983069Y-84290108D01*
X97147500Y-84454539D01*
X97147500Y-85095782D01*
X97135150Y-85099528D01*
X96981614Y-85181595D01*
X96847038Y-85292038D01*
X96736595Y-85426614D01*
X96654528Y-85580150D01*
X96603992Y-85746746D01*
X96586928Y-85920000D01*
X96586928Y-86845000D01*
X96603992Y-87018254D01*
X96654528Y-87184850D01*
X96736595Y-87338386D01*
X96847038Y-87472962D01*
X96981614Y-87583405D01*
X97135150Y-87665472D01*
X97301746Y-87716008D01*
X97475000Y-87733072D01*
X98725000Y-87733072D01*
X98898254Y-87716008D01*
X99064850Y-87665472D01*
X99218386Y-87583405D01*
X99352962Y-87472962D01*
X99463405Y-87338386D01*
X99545472Y-87184850D01*
X99596008Y-87018254D01*
X99613072Y-86845000D01*
X99613072Y-85920000D01*
X99596008Y-85746746D01*
X99545472Y-85580150D01*
X99463405Y-85426614D01*
X99352962Y-85292038D01*
X99218386Y-85181595D01*
X99064850Y-85099528D01*
X99052500Y-85095782D01*
X99052500Y-84106785D01*
X99057108Y-84060000D01*
X99038717Y-83873277D01*
X99032525Y-83852866D01*
X98984252Y-83693731D01*
X98895806Y-83528259D01*
X98776778Y-83383222D01*
X98740436Y-83353397D01*
X98330108Y-82943069D01*
X98311383Y-82848933D01*
X98225824Y-82642376D01*
X98101612Y-82456480D01*
X97943520Y-82298388D01*
X97757624Y-82174176D01*
X97551067Y-82088617D01*
X97331788Y-82045000D01*
X97108212Y-82045000D01*
X96888933Y-82088617D01*
X96682376Y-82174176D01*
X96602571Y-82227500D01*
X95268072Y-82227500D01*
X95268072Y-82080000D01*
X95255812Y-81955518D01*
X95219502Y-81835820D01*
X95160537Y-81725506D01*
X95081185Y-81628815D01*
X94984494Y-81549463D01*
X94874180Y-81490498D01*
X94754482Y-81454188D01*
X94630000Y-81441928D01*
X93430000Y-81441928D01*
X93305518Y-81454188D01*
X93185820Y-81490498D01*
X93075506Y-81549463D01*
X93020000Y-81595015D01*
X93020000Y-80718072D01*
X94650000Y-80718072D01*
X94774482Y-80705812D01*
X94894180Y-80669502D01*
X95004494Y-80610537D01*
X95101185Y-80531185D01*
X95180537Y-80434494D01*
X95239502Y-80324180D01*
X95275812Y-80204482D01*
X95288072Y-80080000D01*
X95288072Y-80072017D01*
X104598090Y-80072017D01*
X104639078Y-80344133D01*
X104732364Y-80603023D01*
X104794344Y-80718980D01*
X105034435Y-80785960D01*
X105820395Y-80000000D01*
X105034435Y-79214040D01*
X104794344Y-79281020D01*
X104677244Y-79530048D01*
X104610977Y-79797135D01*
X104598090Y-80072017D01*
X95288072Y-80072017D01*
X95288072Y-79034435D01*
X105214040Y-79034435D01*
X106000000Y-79820395D01*
X106785960Y-79034435D01*
X106718980Y-78794344D01*
X106469952Y-78677244D01*
X106202865Y-78610977D01*
X105927983Y-78598090D01*
X105655867Y-78639078D01*
X105396977Y-78732364D01*
X105281020Y-78794344D01*
X105214040Y-79034435D01*
X95288072Y-79034435D01*
X95288072Y-78150000D01*
X120702620Y-78150000D01*
X120765000Y-78156144D01*
X120827380Y-78150000D01*
X122730000Y-78150000D01*
X122730001Y-78807614D01*
X122661727Y-78761995D01*
X122407490Y-78656686D01*
X122137592Y-78603000D01*
X121862408Y-78603000D01*
X121592510Y-78656686D01*
X121338273Y-78761995D01*
X121109465Y-78914880D01*
X121000000Y-79024345D01*
X120890535Y-78914880D01*
X120661727Y-78761995D01*
X120407490Y-78656686D01*
X120137592Y-78603000D01*
X119862408Y-78603000D01*
X119592510Y-78656686D01*
X119338273Y-78761995D01*
X119109465Y-78914880D01*
X119000000Y-79024345D01*
X118890535Y-78914880D01*
X118661727Y-78761995D01*
X118407490Y-78656686D01*
X118137592Y-78603000D01*
X117862408Y-78603000D01*
X117592510Y-78656686D01*
X117338273Y-78761995D01*
X117109465Y-78914880D01*
X117000000Y-79024345D01*
X116890535Y-78914880D01*
X116661727Y-78761995D01*
X116407490Y-78656686D01*
X116137592Y-78603000D01*
X115862408Y-78603000D01*
X115592510Y-78656686D01*
X115338273Y-78761995D01*
X115109465Y-78914880D01*
X115000000Y-79024345D01*
X114890535Y-78914880D01*
X114661727Y-78761995D01*
X114407490Y-78656686D01*
X114137592Y-78603000D01*
X113862408Y-78603000D01*
X113592510Y-78656686D01*
X113338273Y-78761995D01*
X113109465Y-78914880D01*
X113000000Y-79024345D01*
X112890535Y-78914880D01*
X112661727Y-78761995D01*
X112407490Y-78656686D01*
X112137592Y-78603000D01*
X111862408Y-78603000D01*
X111592510Y-78656686D01*
X111338273Y-78761995D01*
X111109465Y-78914880D01*
X111000000Y-79024345D01*
X110890535Y-78914880D01*
X110661727Y-78761995D01*
X110407490Y-78656686D01*
X110137592Y-78603000D01*
X109862408Y-78603000D01*
X109592510Y-78656686D01*
X109338273Y-78761995D01*
X109109465Y-78914880D01*
X109000000Y-79024345D01*
X108890535Y-78914880D01*
X108661727Y-78761995D01*
X108407490Y-78656686D01*
X108137592Y-78603000D01*
X107862408Y-78603000D01*
X107592510Y-78656686D01*
X107338273Y-78761995D01*
X107109465Y-78914880D01*
X106914880Y-79109465D01*
X106761995Y-79338273D01*
X106705895Y-79473710D01*
X106179605Y-80000000D01*
X106705895Y-80526290D01*
X106761995Y-80661727D01*
X106914880Y-80890535D01*
X107027897Y-81003552D01*
X106663850Y-81367600D01*
X106299798Y-81367600D01*
X106344133Y-81360922D01*
X106603023Y-81267636D01*
X106718980Y-81205656D01*
X106785960Y-80965565D01*
X106000000Y-80179605D01*
X105214040Y-80965565D01*
X105281020Y-81205656D01*
X105530048Y-81322756D01*
X105710790Y-81367600D01*
X104488662Y-81367600D01*
X104449999Y-81363792D01*
X104411336Y-81367600D01*
X104411327Y-81367600D01*
X104295643Y-81378994D01*
X104147217Y-81424018D01*
X104010428Y-81497134D01*
X104010426Y-81497135D01*
X104010427Y-81497135D01*
X103920569Y-81570879D01*
X103920567Y-81570881D01*
X103890531Y-81595531D01*
X103865881Y-81625567D01*
X102650573Y-82840877D01*
X102620532Y-82865531D01*
X102577144Y-82918399D01*
X102522135Y-82985428D01*
X102449018Y-83122218D01*
X102403995Y-83270643D01*
X102388792Y-83425000D01*
X102392601Y-83463673D01*
X102392600Y-103418849D01*
X102218849Y-103592600D01*
X93693665Y-103592600D01*
X93655000Y-103588792D01*
X93616335Y-103592600D01*
X93616327Y-103592600D01*
X93500643Y-103603994D01*
X93352217Y-103649018D01*
X93215428Y-103722134D01*
X93125570Y-103795878D01*
X93125567Y-103795881D01*
X93095531Y-103820531D01*
X93070881Y-103850567D01*
X92195573Y-104725877D01*
X92165532Y-104750531D01*
X92076684Y-104858792D01*
X92067135Y-104870428D01*
X91994018Y-105007218D01*
X91948995Y-105155643D01*
X91944929Y-105196928D01*
X91850000Y-105196928D01*
X91747162Y-105207056D01*
X91681750Y-105200000D01*
X91649503Y-105232247D01*
X91605820Y-105245498D01*
X91495506Y-105304463D01*
X91425000Y-105362326D01*
X91354494Y-105304463D01*
X91244180Y-105245498D01*
X91200497Y-105232247D01*
X91168250Y-105200000D01*
X91102838Y-105207056D01*
X91000000Y-105196928D01*
X90550000Y-105196928D01*
X90450000Y-105206777D01*
X90350000Y-105196928D01*
X90262400Y-105196928D01*
X90262400Y-104683665D01*
X90266208Y-104645000D01*
X90262400Y-104606335D01*
X90262400Y-104606327D01*
X90251006Y-104490643D01*
X90205982Y-104342217D01*
X90153765Y-104244526D01*
X90148717Y-104193277D01*
X90094252Y-104013731D01*
X90005806Y-103848259D01*
X89886778Y-103703222D01*
X89741741Y-103584194D01*
X89576269Y-103495748D01*
X89396723Y-103441283D01*
X89256785Y-103427500D01*
X86081785Y-103427500D01*
X86035000Y-103422892D01*
X85988215Y-103427500D01*
X85848277Y-103441283D01*
X85668731Y-103495748D01*
X85503259Y-103584194D01*
X85358222Y-103703222D01*
X85239194Y-103848259D01*
X85150748Y-104013731D01*
X85096283Y-104193277D01*
X85077892Y-104380000D01*
X85082501Y-104426795D01*
X85082500Y-108430462D01*
X85005462Y-108507500D01*
X84112429Y-108507500D01*
X84032624Y-108454176D01*
X83826067Y-108368617D01*
X83606788Y-108325000D01*
X83383212Y-108325000D01*
X83163933Y-108368617D01*
X82957376Y-108454176D01*
X82771480Y-108578388D01*
X82613388Y-108736480D01*
X82489176Y-108922376D01*
X82403617Y-109128933D01*
X82360000Y-109348212D01*
X82360000Y-109571788D01*
X82403617Y-109791067D01*
X82489176Y-109997624D01*
X82613388Y-110183520D01*
X82771480Y-110341612D01*
X82957376Y-110465824D01*
X83163933Y-110551383D01*
X83383212Y-110595000D01*
X83606788Y-110595000D01*
X83826067Y-110551383D01*
X84032624Y-110465824D01*
X84112429Y-110412500D01*
X85353215Y-110412500D01*
X85400000Y-110417108D01*
X85446785Y-110412500D01*
X85586723Y-110398717D01*
X85766269Y-110344252D01*
X85931741Y-110255806D01*
X86076778Y-110136778D01*
X86106608Y-110100430D01*
X86675426Y-109531611D01*
X86711778Y-109501778D01*
X86737601Y-109470313D01*
X86737601Y-110276327D01*
X86733792Y-110315000D01*
X86748995Y-110469357D01*
X86794018Y-110617782D01*
X86835716Y-110695792D01*
X86867135Y-110754572D01*
X86965532Y-110874469D01*
X86995572Y-110899122D01*
X87095496Y-110999046D01*
X87120151Y-111029089D01*
X87240048Y-111127486D01*
X87376837Y-111200602D01*
X87525263Y-111245626D01*
X87640947Y-111257020D01*
X87640955Y-111257020D01*
X87679620Y-111260828D01*
X87718285Y-111257020D01*
X126896717Y-111257020D01*
X126935380Y-111260828D01*
X126974043Y-111257020D01*
X126974053Y-111257020D01*
X127089737Y-111245626D01*
X127238163Y-111200602D01*
X127374952Y-111127486D01*
X127494849Y-111029089D01*
X127519507Y-110999043D01*
X127839428Y-110679123D01*
X127869469Y-110654469D01*
X127967866Y-110534572D01*
X128040982Y-110397783D01*
X128086006Y-110249357D01*
X128097400Y-110133673D01*
X128097400Y-110133665D01*
X128101208Y-110095000D01*
X128097400Y-110056335D01*
X128097400Y-100062000D01*
X133340001Y-100062000D01*
X133340001Y-111340000D01*
X60660000Y-111340000D01*
X60660000Y-106543500D01*
X67630928Y-106543500D01*
X67643188Y-106667982D01*
X67679498Y-106787680D01*
X67738463Y-106897994D01*
X67817815Y-106994685D01*
X67914506Y-107074037D01*
X68024820Y-107133002D01*
X68144518Y-107169312D01*
X68269000Y-107181572D01*
X68858250Y-107178500D01*
X69017000Y-107019750D01*
X69017000Y-105958000D01*
X67792750Y-105958000D01*
X67634000Y-106116750D01*
X67630928Y-106543500D01*
X60660000Y-106543500D01*
X60660000Y-105118500D01*
X67630928Y-105118500D01*
X67634000Y-105545250D01*
X67792750Y-105704000D01*
X69017000Y-105704000D01*
X69017000Y-104642250D01*
X68858250Y-104483500D01*
X68269000Y-104480428D01*
X68144518Y-104492688D01*
X68024820Y-104528998D01*
X67914506Y-104587963D01*
X67817815Y-104667315D01*
X67738463Y-104764006D01*
X67679498Y-104874320D01*
X67643188Y-104994018D01*
X67630928Y-105118500D01*
X60660000Y-105118500D01*
X60660000Y-98597499D01*
X61472106Y-98597499D01*
X61688228Y-98964258D01*
X62148105Y-99204938D01*
X62646098Y-99351275D01*
X63163071Y-99397648D01*
X63679159Y-99342273D01*
X64174526Y-99187279D01*
X64591772Y-98964258D01*
X64807894Y-98597499D01*
X63140000Y-96929605D01*
X61472106Y-98597499D01*
X60660000Y-98597499D01*
X60660000Y-97647988D01*
X60702721Y-97784526D01*
X60925742Y-98201772D01*
X61292501Y-98417894D01*
X62960395Y-96750000D01*
X63319605Y-96750000D01*
X64987499Y-98417894D01*
X65354258Y-98201772D01*
X65594938Y-97741895D01*
X65741275Y-97243902D01*
X65787648Y-96726929D01*
X65732273Y-96210841D01*
X65577279Y-95715474D01*
X65354258Y-95298228D01*
X64987499Y-95082106D01*
X63319605Y-96750000D01*
X62960395Y-96750000D01*
X61292501Y-95082106D01*
X60925742Y-95298228D01*
X60685062Y-95758105D01*
X60660000Y-95843392D01*
X60660000Y-94902501D01*
X61472106Y-94902501D01*
X63140000Y-96570395D01*
X64807894Y-94902501D01*
X64591772Y-94535742D01*
X64131895Y-94295062D01*
X63633902Y-94148725D01*
X63116929Y-94102352D01*
X62600841Y-94157727D01*
X62105474Y-94312721D01*
X61688228Y-94535742D01*
X61472106Y-94902501D01*
X60660000Y-94902501D01*
X60660000Y-92070512D01*
X64559783Y-92070512D01*
X64601213Y-92350130D01*
X64696397Y-92616292D01*
X64763329Y-92741514D01*
X65007298Y-92813097D01*
X65820395Y-92000000D01*
X65007298Y-91186903D01*
X64763329Y-91258486D01*
X64642429Y-91513996D01*
X64573700Y-91788184D01*
X64559783Y-92070512D01*
X60660000Y-92070512D01*
X60660000Y-86597499D01*
X61472106Y-86597499D01*
X61688228Y-86964258D01*
X62148105Y-87204938D01*
X62646098Y-87351275D01*
X63163071Y-87397648D01*
X63679159Y-87342273D01*
X64174526Y-87187279D01*
X64591772Y-86964258D01*
X64807894Y-86597499D01*
X63140000Y-84929605D01*
X61472106Y-86597499D01*
X60660000Y-86597499D01*
X60660000Y-85647988D01*
X60702721Y-85784526D01*
X60925742Y-86201772D01*
X61292501Y-86417894D01*
X62960395Y-84750000D01*
X63319605Y-84750000D01*
X64987499Y-86417894D01*
X65354258Y-86201772D01*
X65594938Y-85741895D01*
X65741275Y-85243902D01*
X65787648Y-84726929D01*
X65732273Y-84210841D01*
X65577279Y-83715474D01*
X65397966Y-83380000D01*
X73276928Y-83380000D01*
X73276928Y-84305000D01*
X73293992Y-84478254D01*
X73344528Y-84644850D01*
X73426595Y-84798386D01*
X73537038Y-84932962D01*
X73671614Y-85043405D01*
X73825150Y-85125472D01*
X73991746Y-85176008D01*
X74165000Y-85193072D01*
X76315000Y-85193072D01*
X76488254Y-85176008D01*
X76654850Y-85125472D01*
X76808386Y-85043405D01*
X76942962Y-84932962D01*
X77053405Y-84798386D01*
X77135472Y-84644850D01*
X77186008Y-84478254D01*
X77203072Y-84305000D01*
X77203072Y-83380000D01*
X77186008Y-83206746D01*
X77135472Y-83040150D01*
X77053405Y-82886614D01*
X76942962Y-82752038D01*
X76808386Y-82641595D01*
X76654850Y-82559528D01*
X76488254Y-82508992D01*
X76315000Y-82491928D01*
X76192500Y-82491928D01*
X76192500Y-82137429D01*
X76245824Y-82057624D01*
X76331383Y-81851067D01*
X76375000Y-81631788D01*
X76375000Y-81408212D01*
X76331383Y-81188933D01*
X76245824Y-80982376D01*
X76192500Y-80902571D01*
X76192500Y-80136044D01*
X76223405Y-80098386D01*
X76305472Y-79944850D01*
X76332727Y-79855000D01*
X76646928Y-79855000D01*
X76659188Y-79979482D01*
X76695498Y-80099180D01*
X76754463Y-80209494D01*
X76833815Y-80306185D01*
X76930506Y-80385537D01*
X77040820Y-80444502D01*
X77160518Y-80480812D01*
X77285000Y-80493072D01*
X77711750Y-80490000D01*
X77870500Y-80331250D01*
X77870500Y-79107000D01*
X78124500Y-79107000D01*
X78124500Y-80331250D01*
X78283250Y-80490000D01*
X78710000Y-80493072D01*
X78834482Y-80480812D01*
X78954180Y-80444502D01*
X79064494Y-80385537D01*
X79161185Y-80306185D01*
X79240537Y-80209494D01*
X79299502Y-80099180D01*
X79335812Y-79979482D01*
X79348072Y-79855000D01*
X79345000Y-79265750D01*
X79186250Y-79107000D01*
X78124500Y-79107000D01*
X77870500Y-79107000D01*
X76808750Y-79107000D01*
X76650000Y-79265750D01*
X76646928Y-79855000D01*
X76332727Y-79855000D01*
X76356008Y-79778254D01*
X76373072Y-79605000D01*
X76373072Y-78355000D01*
X76356008Y-78181746D01*
X76332728Y-78105000D01*
X76646928Y-78105000D01*
X76650000Y-78694250D01*
X76808750Y-78853000D01*
X77870500Y-78853000D01*
X77870500Y-77628750D01*
X78124500Y-77628750D01*
X78124500Y-78853000D01*
X79186250Y-78853000D01*
X79345000Y-78694250D01*
X79348072Y-78105000D01*
X79335812Y-77980518D01*
X79299502Y-77860820D01*
X79240537Y-77750506D01*
X79161185Y-77653815D01*
X79064494Y-77574463D01*
X78954180Y-77515498D01*
X78834482Y-77479188D01*
X78710000Y-77466928D01*
X78283250Y-77470000D01*
X78124500Y-77628750D01*
X77870500Y-77628750D01*
X77711750Y-77470000D01*
X77285000Y-77466928D01*
X77160518Y-77479188D01*
X77040820Y-77515498D01*
X76930506Y-77574463D01*
X76833815Y-77653815D01*
X76754463Y-77750506D01*
X76695498Y-77860820D01*
X76659188Y-77980518D01*
X76646928Y-78105000D01*
X76332728Y-78105000D01*
X76305472Y-78015150D01*
X76223405Y-77861614D01*
X76112962Y-77727038D01*
X75978386Y-77616595D01*
X75824850Y-77534528D01*
X75658254Y-77483992D01*
X75485000Y-77466928D01*
X74560000Y-77466928D01*
X74386746Y-77483992D01*
X74220150Y-77534528D01*
X74066614Y-77616595D01*
X73932038Y-77727038D01*
X73821595Y-77861614D01*
X73739528Y-78015150D01*
X73688992Y-78181746D01*
X73671928Y-78355000D01*
X73671928Y-79605000D01*
X73688992Y-79778254D01*
X73739528Y-79944850D01*
X73821595Y-80098386D01*
X73932038Y-80232962D01*
X74066614Y-80343405D01*
X74220150Y-80425472D01*
X74287500Y-80445902D01*
X74287500Y-80902571D01*
X74234176Y-80982376D01*
X74148617Y-81188933D01*
X74105000Y-81408212D01*
X74105000Y-81631788D01*
X74148617Y-81851067D01*
X74234176Y-82057624D01*
X74287500Y-82137429D01*
X74287500Y-82491928D01*
X74165000Y-82491928D01*
X73991746Y-82508992D01*
X73825150Y-82559528D01*
X73671614Y-82641595D01*
X73537038Y-82752038D01*
X73426595Y-82886614D01*
X73344528Y-83040150D01*
X73293992Y-83206746D01*
X73276928Y-83380000D01*
X65397966Y-83380000D01*
X65354258Y-83298228D01*
X64987499Y-83082106D01*
X63319605Y-84750000D01*
X62960395Y-84750000D01*
X61292501Y-83082106D01*
X60925742Y-83298228D01*
X60685062Y-83758105D01*
X60660000Y-83843392D01*
X60660000Y-82902501D01*
X61472106Y-82902501D01*
X63140000Y-84570395D01*
X64807894Y-82902501D01*
X64591772Y-82535742D01*
X64131895Y-82295062D01*
X63633902Y-82148725D01*
X63116929Y-82102352D01*
X62600841Y-82157727D01*
X62105474Y-82312721D01*
X61688228Y-82535742D01*
X61472106Y-82902501D01*
X60660000Y-82902501D01*
X60660000Y-70660000D01*
X133340000Y-70660000D01*
X133340000Y-82028000D01*
G37*
X133340000Y-82028000D02*
X128097400Y-82028000D01*
X128097400Y-79018663D01*
X128101208Y-78980000D01*
X128097400Y-78941337D01*
X128097400Y-78941327D01*
X128086006Y-78825643D01*
X128040982Y-78677217D01*
X128020596Y-78639078D01*
X127967866Y-78540427D01*
X127894121Y-78450570D01*
X127869469Y-78420531D01*
X127839428Y-78395877D01*
X126337319Y-76893769D01*
X126400226Y-76741898D01*
X126440000Y-76541939D01*
X126440000Y-76338061D01*
X126400226Y-76138102D01*
X126322205Y-75949744D01*
X126208937Y-75780226D01*
X126064774Y-75636063D01*
X125895256Y-75522795D01*
X125706898Y-75444774D01*
X125506939Y-75405000D01*
X125303061Y-75405000D01*
X125103102Y-75444774D01*
X124914744Y-75522795D01*
X124745226Y-75636063D01*
X124601063Y-75780226D01*
X124487795Y-75949744D01*
X124409774Y-76138102D01*
X124401375Y-76180325D01*
X124247141Y-76026091D01*
X124207370Y-75977630D01*
X124013988Y-75818925D01*
X123793359Y-75700997D01*
X123553963Y-75628377D01*
X123367380Y-75610000D01*
X123367373Y-75610000D01*
X123305000Y-75603857D01*
X123242627Y-75610000D01*
X122012500Y-75610000D01*
X122012500Y-74889119D01*
X122025472Y-74864850D01*
X122052727Y-74775000D01*
X122366928Y-74775000D01*
X122379188Y-74899482D01*
X122415498Y-75019180D01*
X122474463Y-75129494D01*
X122553815Y-75226185D01*
X122650506Y-75305537D01*
X122760820Y-75364502D01*
X122880518Y-75400812D01*
X123005000Y-75413072D01*
X123431750Y-75410000D01*
X123590500Y-75251250D01*
X123590500Y-74027000D01*
X123844500Y-74027000D01*
X123844500Y-75251250D01*
X124003250Y-75410000D01*
X124430000Y-75413072D01*
X124554482Y-75400812D01*
X124674180Y-75364502D01*
X124784494Y-75305537D01*
X124881185Y-75226185D01*
X124960537Y-75129494D01*
X125019502Y-75019180D01*
X125055812Y-74899482D01*
X125068072Y-74775000D01*
X125065000Y-74185750D01*
X124906250Y-74027000D01*
X123844500Y-74027000D01*
X123590500Y-74027000D01*
X122528750Y-74027000D01*
X122370000Y-74185750D01*
X122366928Y-74775000D01*
X122052727Y-74775000D01*
X122076008Y-74698254D01*
X122093072Y-74525000D01*
X122093072Y-73275000D01*
X122076008Y-73101746D01*
X122052728Y-73025000D01*
X122366928Y-73025000D01*
X122370000Y-73614250D01*
X122528750Y-73773000D01*
X123590500Y-73773000D01*
X123590500Y-72548750D01*
X123844500Y-72548750D01*
X123844500Y-73773000D01*
X124906250Y-73773000D01*
X125065000Y-73614250D01*
X125068072Y-73025000D01*
X125055812Y-72900518D01*
X125019502Y-72780820D01*
X124960537Y-72670506D01*
X124881185Y-72573815D01*
X124784494Y-72494463D01*
X124674180Y-72435498D01*
X124554482Y-72399188D01*
X124430000Y-72386928D01*
X124003250Y-72390000D01*
X123844500Y-72548750D01*
X123590500Y-72548750D01*
X123431750Y-72390000D01*
X123005000Y-72386928D01*
X122880518Y-72399188D01*
X122760820Y-72435498D01*
X122650506Y-72494463D01*
X122553815Y-72573815D01*
X122474463Y-72670506D01*
X122415498Y-72780820D01*
X122379188Y-72900518D01*
X122366928Y-73025000D01*
X122052728Y-73025000D01*
X122025472Y-72935150D01*
X121943405Y-72781614D01*
X121832962Y-72647038D01*
X121698386Y-72536595D01*
X121544850Y-72454528D01*
X121378254Y-72403992D01*
X121205000Y-72386928D01*
X120280000Y-72386928D01*
X120106746Y-72403992D01*
X119940150Y-72454528D01*
X119786614Y-72536595D01*
X119652038Y-72647038D01*
X119541595Y-72781614D01*
X119459528Y-72935150D01*
X119408992Y-73101746D01*
X119391928Y-73275000D01*
X119391928Y-74525000D01*
X119408992Y-74698254D01*
X119459528Y-74864850D01*
X119472501Y-74889120D01*
X119472500Y-75610000D01*
X95288072Y-75610000D01*
X95288072Y-73680000D01*
X95275812Y-73555518D01*
X95239502Y-73435820D01*
X95180537Y-73325506D01*
X95101185Y-73228815D01*
X95004494Y-73149463D01*
X94894180Y-73090498D01*
X94774482Y-73054188D01*
X94650000Y-73041928D01*
X88850000Y-73041928D01*
X88725518Y-73054188D01*
X88605820Y-73090498D01*
X88495506Y-73149463D01*
X88398815Y-73228815D01*
X88319463Y-73325506D01*
X88260498Y-73435820D01*
X88224188Y-73555518D01*
X88211928Y-73680000D01*
X88211928Y-80080000D01*
X88224188Y-80204482D01*
X88260498Y-80324180D01*
X88319463Y-80434494D01*
X88398815Y-80531185D01*
X88495506Y-80610537D01*
X88605820Y-80669502D01*
X88725518Y-80705812D01*
X88850000Y-80718072D01*
X90480001Y-80718072D01*
X90480001Y-81595016D01*
X90424494Y-81549463D01*
X90314180Y-81490498D01*
X90194482Y-81454188D01*
X90070000Y-81441928D01*
X89755750Y-81445000D01*
X89597000Y-81603750D01*
X89597000Y-83053000D01*
X89617000Y-83053000D01*
X89617000Y-83307000D01*
X89597000Y-83307000D01*
X89597000Y-84756250D01*
X89755750Y-84915000D01*
X90070000Y-84918072D01*
X90194482Y-84905812D01*
X90314180Y-84869502D01*
X90424494Y-84810537D01*
X90480000Y-84764984D01*
X90480001Y-87797617D01*
X90473857Y-87860000D01*
X90498377Y-88108963D01*
X90552107Y-88286083D01*
X90570998Y-88348359D01*
X90688926Y-88568988D01*
X90847631Y-88762370D01*
X90896086Y-88802136D01*
X91266928Y-89172978D01*
X91266928Y-90065001D01*
X91283992Y-90238255D01*
X91334528Y-90404851D01*
X91416595Y-90558387D01*
X91527038Y-90692962D01*
X91661613Y-90803405D01*
X91815149Y-90885472D01*
X91981745Y-90936008D01*
X92154999Y-90953072D01*
X92242601Y-90953072D01*
X92242600Y-92162600D01*
X79884264Y-92162600D01*
X80016067Y-92136383D01*
X80222624Y-92050824D01*
X80408520Y-91926612D01*
X80566612Y-91768520D01*
X80690824Y-91582624D01*
X80776383Y-91376067D01*
X80820000Y-91156788D01*
X80820000Y-90933212D01*
X80776383Y-90713933D01*
X80690824Y-90507376D01*
X80566612Y-90321480D01*
X80560132Y-90315000D01*
X86166928Y-90315000D01*
X86179188Y-90439482D01*
X86215498Y-90559180D01*
X86274463Y-90669494D01*
X86353815Y-90766185D01*
X86450506Y-90845537D01*
X86560820Y-90904502D01*
X86680518Y-90940812D01*
X86805000Y-90953072D01*
X87644250Y-90950000D01*
X87803000Y-90791250D01*
X87803000Y-89267000D01*
X88057000Y-89267000D01*
X88057000Y-90791250D01*
X88215750Y-90950000D01*
X89055000Y-90953072D01*
X89179482Y-90940812D01*
X89299180Y-90904502D01*
X89409494Y-90845537D01*
X89506185Y-90766185D01*
X89585537Y-90669494D01*
X89644502Y-90559180D01*
X89680812Y-90439482D01*
X89693072Y-90315000D01*
X89690000Y-89425750D01*
X89531250Y-89267000D01*
X88057000Y-89267000D01*
X87803000Y-89267000D01*
X86328750Y-89267000D01*
X86170000Y-89425750D01*
X86166928Y-90315000D01*
X80560132Y-90315000D01*
X80408520Y-90163388D01*
X80222624Y-90039176D01*
X80016067Y-89953617D01*
X79921931Y-89934892D01*
X79785000Y-89797962D01*
X79785000Y-87965215D01*
X79788386Y-87963405D01*
X79922962Y-87852962D01*
X80033405Y-87718386D01*
X80115472Y-87564850D01*
X80142727Y-87475000D01*
X80456928Y-87475000D01*
X80469188Y-87599482D01*
X80505498Y-87719180D01*
X80564463Y-87829494D01*
X80643815Y-87926185D01*
X80740506Y-88005537D01*
X80850820Y-88064502D01*
X80970518Y-88100812D01*
X81095000Y-88113072D01*
X81521750Y-88110000D01*
X81680500Y-87951250D01*
X81680500Y-86727000D01*
X81934500Y-86727000D01*
X81934500Y-87951250D01*
X82093250Y-88110000D01*
X82520000Y-88113072D01*
X82644482Y-88100812D01*
X82764180Y-88064502D01*
X82874494Y-88005537D01*
X82923888Y-87965000D01*
X86166928Y-87965000D01*
X86170000Y-88854250D01*
X86328750Y-89013000D01*
X87803000Y-89013000D01*
X87803000Y-87488750D01*
X88057000Y-87488750D01*
X88057000Y-89013000D01*
X89531250Y-89013000D01*
X89690000Y-88854250D01*
X89693072Y-87965000D01*
X89680812Y-87840518D01*
X89644502Y-87720820D01*
X89585537Y-87610506D01*
X89506185Y-87513815D01*
X89409494Y-87434463D01*
X89299180Y-87375498D01*
X89179482Y-87339188D01*
X89055000Y-87326928D01*
X88215750Y-87330000D01*
X88057000Y-87488750D01*
X87803000Y-87488750D01*
X87644250Y-87330000D01*
X86805000Y-87326928D01*
X86680518Y-87339188D01*
X86560820Y-87375498D01*
X86450506Y-87434463D01*
X86353815Y-87513815D01*
X86274463Y-87610506D01*
X86215498Y-87720820D01*
X86179188Y-87840518D01*
X86166928Y-87965000D01*
X82923888Y-87965000D01*
X82971185Y-87926185D01*
X83050537Y-87829494D01*
X83109502Y-87719180D01*
X83145812Y-87599482D01*
X83158072Y-87475000D01*
X83155000Y-86885750D01*
X82996250Y-86727000D01*
X81934500Y-86727000D01*
X81680500Y-86727000D01*
X80618750Y-86727000D01*
X80460000Y-86885750D01*
X80456928Y-87475000D01*
X80142727Y-87475000D01*
X80166008Y-87398254D01*
X80183072Y-87225000D01*
X80183072Y-85975000D01*
X80166008Y-85801746D01*
X80142728Y-85725000D01*
X80456928Y-85725000D01*
X80460000Y-86314250D01*
X80618750Y-86473000D01*
X81680500Y-86473000D01*
X81680500Y-85248750D01*
X81934500Y-85248750D01*
X81934500Y-86473000D01*
X82996250Y-86473000D01*
X83155000Y-86314250D01*
X83158072Y-85725000D01*
X83145812Y-85600518D01*
X83109502Y-85480820D01*
X83050537Y-85370506D01*
X82971185Y-85273815D01*
X82874494Y-85194463D01*
X82764180Y-85135498D01*
X82644482Y-85099188D01*
X82520000Y-85086928D01*
X82093250Y-85090000D01*
X81934500Y-85248750D01*
X81680500Y-85248750D01*
X81521750Y-85090000D01*
X81095000Y-85086928D01*
X80970518Y-85099188D01*
X80850820Y-85135498D01*
X80740506Y-85194463D01*
X80643815Y-85273815D01*
X80564463Y-85370506D01*
X80505498Y-85480820D01*
X80469188Y-85600518D01*
X80456928Y-85725000D01*
X80142728Y-85725000D01*
X80115472Y-85635150D01*
X80033405Y-85481614D01*
X79922962Y-85347038D01*
X79788386Y-85236595D01*
X79647500Y-85161290D01*
X79647500Y-84475259D01*
X79688386Y-84453405D01*
X79822962Y-84342962D01*
X79933405Y-84208386D01*
X80015472Y-84054850D01*
X80042727Y-83965000D01*
X80556928Y-83965000D01*
X80569188Y-84089482D01*
X80605498Y-84209180D01*
X80664463Y-84319494D01*
X80743815Y-84416185D01*
X80840506Y-84495537D01*
X80950820Y-84554502D01*
X81070518Y-84590812D01*
X81195000Y-84603072D01*
X81659250Y-84600000D01*
X81818000Y-84441250D01*
X81818000Y-82917000D01*
X82072000Y-82917000D01*
X82072000Y-84441250D01*
X82230750Y-84600000D01*
X82695000Y-84603072D01*
X82819482Y-84590812D01*
X82939180Y-84554502D01*
X83049494Y-84495537D01*
X83146185Y-84416185D01*
X83225537Y-84319494D01*
X83246647Y-84280000D01*
X88231928Y-84280000D01*
X88244188Y-84404482D01*
X88280498Y-84524180D01*
X88339463Y-84634494D01*
X88418815Y-84731185D01*
X88515506Y-84810537D01*
X88625820Y-84869502D01*
X88745518Y-84905812D01*
X88870000Y-84918072D01*
X89184250Y-84915000D01*
X89343000Y-84756250D01*
X89343000Y-83307000D01*
X88393750Y-83307000D01*
X88235000Y-83465750D01*
X88231928Y-84280000D01*
X83246647Y-84280000D01*
X83284502Y-84209180D01*
X83320812Y-84089482D01*
X83333072Y-83965000D01*
X83330000Y-83075750D01*
X83171250Y-82917000D01*
X82072000Y-82917000D01*
X81818000Y-82917000D01*
X80718750Y-82917000D01*
X80560000Y-83075750D01*
X80556928Y-83965000D01*
X80042727Y-83965000D01*
X80066008Y-83888254D01*
X80083072Y-83715000D01*
X80083072Y-81865000D01*
X80066008Y-81691746D01*
X80042728Y-81615000D01*
X80556928Y-81615000D01*
X80560000Y-82504250D01*
X80718750Y-82663000D01*
X81818000Y-82663000D01*
X81818000Y-81138750D01*
X82072000Y-81138750D01*
X82072000Y-82663000D01*
X83171250Y-82663000D01*
X83330000Y-82504250D01*
X83331465Y-82080000D01*
X88231928Y-82080000D01*
X88235000Y-82894250D01*
X88393750Y-83053000D01*
X89343000Y-83053000D01*
X89343000Y-81603750D01*
X89184250Y-81445000D01*
X88870000Y-81441928D01*
X88745518Y-81454188D01*
X88625820Y-81490498D01*
X88515506Y-81549463D01*
X88418815Y-81628815D01*
X88339463Y-81725506D01*
X88280498Y-81835820D01*
X88244188Y-81955518D01*
X88231928Y-82080000D01*
X83331465Y-82080000D01*
X83333072Y-81615000D01*
X83320812Y-81490518D01*
X83284502Y-81370820D01*
X83225537Y-81260506D01*
X83146185Y-81163815D01*
X83049494Y-81084463D01*
X82939180Y-81025498D01*
X82819482Y-80989188D01*
X82695000Y-80976928D01*
X82230750Y-80980000D01*
X82072000Y-81138750D01*
X81818000Y-81138750D01*
X81659250Y-80980000D01*
X81195000Y-80976928D01*
X81070518Y-80989188D01*
X80950820Y-81025498D01*
X80840506Y-81084463D01*
X80743815Y-81163815D01*
X80664463Y-81260506D01*
X80605498Y-81370820D01*
X80569188Y-81490518D01*
X80556928Y-81615000D01*
X80042728Y-81615000D01*
X80015472Y-81525150D01*
X79933405Y-81371614D01*
X79822962Y-81237038D01*
X79688386Y-81126595D01*
X79534850Y-81044528D01*
X79368254Y-80993992D01*
X79195000Y-80976928D01*
X78195000Y-80976928D01*
X78021746Y-80993992D01*
X77855150Y-81044528D01*
X77701614Y-81126595D01*
X77567038Y-81237038D01*
X77456595Y-81371614D01*
X77374528Y-81525150D01*
X77323992Y-81691746D01*
X77306928Y-81865000D01*
X77306928Y-83715000D01*
X77323992Y-83888254D01*
X77374528Y-84054850D01*
X77456595Y-84208386D01*
X77567038Y-84342962D01*
X77701614Y-84453405D01*
X77742500Y-84475259D01*
X77742501Y-85346658D01*
X77742038Y-85347038D01*
X77631595Y-85481614D01*
X77549528Y-85635150D01*
X77498992Y-85801746D01*
X77492762Y-85865000D01*
X77055215Y-85865000D01*
X77053405Y-85861614D01*
X76942962Y-85727038D01*
X76808386Y-85616595D01*
X76654850Y-85534528D01*
X76488254Y-85483992D01*
X76315000Y-85466928D01*
X74165000Y-85466928D01*
X73991746Y-85483992D01*
X73825150Y-85534528D01*
X73671614Y-85616595D01*
X73537038Y-85727038D01*
X73426595Y-85861614D01*
X73344528Y-86015150D01*
X73293992Y-86181746D01*
X73276928Y-86355000D01*
X73276928Y-87280000D01*
X73293992Y-87453254D01*
X73344528Y-87619850D01*
X73426595Y-87773386D01*
X73537038Y-87907962D01*
X73671614Y-88018405D01*
X73825150Y-88100472D01*
X73991746Y-88151008D01*
X74165000Y-88168072D01*
X76315000Y-88168072D01*
X76488254Y-88151008D01*
X76654850Y-88100472D01*
X76808386Y-88018405D01*
X76942962Y-87907962D01*
X77053405Y-87773386D01*
X77055215Y-87770000D01*
X77673953Y-87770000D01*
X77742038Y-87852962D01*
X77876614Y-87963405D01*
X77880000Y-87965215D01*
X77880001Y-90145706D01*
X77875392Y-90192500D01*
X77893783Y-90379222D01*
X77948249Y-90558769D01*
X78036694Y-90724240D01*
X78096080Y-90796602D01*
X78155723Y-90869278D01*
X78192064Y-90899102D01*
X78574892Y-91281931D01*
X78593617Y-91376067D01*
X78679176Y-91582624D01*
X78803388Y-91768520D01*
X78961480Y-91926612D01*
X79147376Y-92050824D01*
X79353933Y-92136383D01*
X79485736Y-92162600D01*
X77821311Y-92162600D01*
X77804774Y-92146063D01*
X77635256Y-92032795D01*
X77446898Y-91954774D01*
X77246939Y-91915000D01*
X77043061Y-91915000D01*
X76843102Y-91954774D01*
X76654744Y-92032795D01*
X76485226Y-92146063D01*
X76341063Y-92290226D01*
X76227795Y-92459744D01*
X76149774Y-92648102D01*
X76110000Y-92848061D01*
X76110000Y-93051939D01*
X76141957Y-93212600D01*
X74076152Y-93212600D01*
X73735000Y-92871449D01*
X73735000Y-92848061D01*
X73695226Y-92648102D01*
X73617205Y-92459744D01*
X73503937Y-92290226D01*
X73359774Y-92146063D01*
X73190256Y-92032795D01*
X73001898Y-91954774D01*
X72801939Y-91915000D01*
X72598061Y-91915000D01*
X72398102Y-91954774D01*
X72217400Y-92029624D01*
X72217400Y-89813665D01*
X72221208Y-89775000D01*
X72217400Y-89736335D01*
X72217400Y-89736327D01*
X72206006Y-89620643D01*
X72160982Y-89472217D01*
X72087866Y-89335428D01*
X71989469Y-89215531D01*
X71959427Y-89190876D01*
X71739127Y-88970577D01*
X71714469Y-88940531D01*
X71594572Y-88842134D01*
X71457783Y-88769018D01*
X71309357Y-88723994D01*
X71193673Y-88712600D01*
X71193663Y-88712600D01*
X71155000Y-88708792D01*
X71116337Y-88712600D01*
X69199735Y-88712600D01*
X69114637Y-88585241D01*
X68914759Y-88385363D01*
X68679727Y-88228320D01*
X68418574Y-88120147D01*
X68141335Y-88065000D01*
X67858665Y-88065000D01*
X67581426Y-88120147D01*
X67320273Y-88228320D01*
X67085241Y-88385363D01*
X67000000Y-88470604D01*
X66914759Y-88385363D01*
X66679727Y-88228320D01*
X66418574Y-88120147D01*
X66141335Y-88065000D01*
X65858665Y-88065000D01*
X65581426Y-88120147D01*
X65320273Y-88228320D01*
X65085241Y-88385363D01*
X64885363Y-88585241D01*
X64728320Y-88820273D01*
X64620147Y-89081426D01*
X64565000Y-89358665D01*
X64565000Y-89641335D01*
X64620147Y-89918574D01*
X64728320Y-90179727D01*
X64885363Y-90414759D01*
X65085241Y-90614637D01*
X65285869Y-90748692D01*
X65258486Y-90763329D01*
X65186903Y-91007298D01*
X66000000Y-91820395D01*
X66014143Y-91806253D01*
X66193748Y-91985858D01*
X66179605Y-92000000D01*
X66193748Y-92014143D01*
X66014143Y-92193748D01*
X66000000Y-92179605D01*
X65186903Y-92992702D01*
X65258486Y-93236671D01*
X65513996Y-93357571D01*
X65788184Y-93426300D01*
X66070512Y-93440217D01*
X66350130Y-93398787D01*
X66616292Y-93303603D01*
X66738309Y-93238384D01*
X66748815Y-93251185D01*
X66845506Y-93330537D01*
X66955820Y-93389502D01*
X67075518Y-93425812D01*
X67200000Y-93438072D01*
X68800000Y-93438072D01*
X68924482Y-93425812D01*
X69044180Y-93389502D01*
X69154494Y-93330537D01*
X69251185Y-93251185D01*
X69330537Y-93154494D01*
X69389502Y-93044180D01*
X69425812Y-92924482D01*
X69438072Y-92800000D01*
X69438072Y-91200000D01*
X69425812Y-91075518D01*
X69389502Y-90955820D01*
X69330537Y-90845506D01*
X69251185Y-90748815D01*
X69154494Y-90669463D01*
X69044180Y-90610498D01*
X68948057Y-90581339D01*
X69114637Y-90414759D01*
X69199735Y-90287400D01*
X70642601Y-90287400D01*
X70642600Y-94181337D01*
X70638792Y-94220000D01*
X70642600Y-94258663D01*
X70642600Y-94258672D01*
X70653994Y-94374356D01*
X70699018Y-94522782D01*
X70772134Y-94659571D01*
X70870531Y-94779469D01*
X70900577Y-94804127D01*
X71480881Y-95384433D01*
X71505531Y-95414469D01*
X71535567Y-95439119D01*
X71535570Y-95439122D01*
X71597566Y-95490000D01*
X71535569Y-95540879D01*
X71535567Y-95540881D01*
X71505531Y-95565531D01*
X71480881Y-95595567D01*
X70265573Y-96810877D01*
X70235532Y-96835531D01*
X70210879Y-96865571D01*
X70137135Y-96955428D01*
X70064018Y-97092218D01*
X70018995Y-97240643D01*
X70003792Y-97395000D01*
X70007601Y-97433673D01*
X70007600Y-101542314D01*
X69942254Y-101522492D01*
X69769000Y-101505428D01*
X68519000Y-101505428D01*
X68345746Y-101522492D01*
X68179150Y-101573028D01*
X68025614Y-101655095D01*
X67891038Y-101765538D01*
X67780595Y-101900114D01*
X67698528Y-102053650D01*
X67647992Y-102220246D01*
X67630928Y-102393500D01*
X67630928Y-103318500D01*
X67647992Y-103491754D01*
X67698528Y-103658350D01*
X67780595Y-103811886D01*
X67891038Y-103946462D01*
X68025614Y-104056905D01*
X68179150Y-104138972D01*
X68345746Y-104189508D01*
X68519000Y-104206572D01*
X69769000Y-104206572D01*
X69942254Y-104189508D01*
X70007601Y-104169685D01*
X70007600Y-104480487D01*
X69429750Y-104483500D01*
X69271000Y-104642250D01*
X69271000Y-105704000D01*
X69291000Y-105704000D01*
X69291000Y-105958000D01*
X69271000Y-105958000D01*
X69271000Y-107019750D01*
X69429750Y-107178500D01*
X70019000Y-107181572D01*
X70143482Y-107169312D01*
X70263180Y-107133002D01*
X70373494Y-107074037D01*
X70470185Y-106994685D01*
X70549537Y-106897994D01*
X70608502Y-106787680D01*
X70644812Y-106667982D01*
X70654561Y-106569000D01*
X70709717Y-106598482D01*
X70858143Y-106643506D01*
X70973827Y-106654900D01*
X70973836Y-106654900D01*
X71012499Y-106658708D01*
X71051162Y-106654900D01*
X71249993Y-106654900D01*
X71254528Y-106669850D01*
X71336595Y-106823386D01*
X71447038Y-106957962D01*
X71581614Y-107068405D01*
X71735150Y-107150472D01*
X71901746Y-107201008D01*
X72075000Y-107218072D01*
X73325000Y-107218072D01*
X73498254Y-107201008D01*
X73664850Y-107150472D01*
X73818386Y-107068405D01*
X73893662Y-107006628D01*
X73913815Y-107031185D01*
X74010506Y-107110537D01*
X74120820Y-107169502D01*
X74240518Y-107205812D01*
X74365000Y-107218072D01*
X74954250Y-107215000D01*
X75113000Y-107056250D01*
X75113000Y-105994500D01*
X75367000Y-105994500D01*
X75367000Y-107056250D01*
X75525750Y-107215000D01*
X76115000Y-107218072D01*
X76239482Y-107205812D01*
X76359180Y-107169502D01*
X76469494Y-107110537D01*
X76566185Y-107031185D01*
X76645537Y-106934494D01*
X76704502Y-106824180D01*
X76740812Y-106704482D01*
X76753072Y-106580000D01*
X76750000Y-106153250D01*
X76591250Y-105994500D01*
X75367000Y-105994500D01*
X75113000Y-105994500D01*
X75093000Y-105994500D01*
X75093000Y-105740500D01*
X75113000Y-105740500D01*
X75113000Y-104678750D01*
X74954250Y-104520000D01*
X74365000Y-104516928D01*
X74240518Y-104529188D01*
X74120820Y-104565498D01*
X74010506Y-104624463D01*
X73913815Y-104703815D01*
X73893662Y-104728372D01*
X73818386Y-104666595D01*
X73664850Y-104584528D01*
X73498254Y-104533992D01*
X73325000Y-104516928D01*
X72075000Y-104516928D01*
X71901746Y-104533992D01*
X71735150Y-104584528D01*
X71582400Y-104666175D01*
X71582400Y-104093825D01*
X71735150Y-104175472D01*
X71901746Y-104226008D01*
X72075000Y-104243072D01*
X73325000Y-104243072D01*
X73498254Y-104226008D01*
X73664850Y-104175472D01*
X73818386Y-104093405D01*
X73952962Y-103982962D01*
X73970000Y-103962201D01*
X73987038Y-103982962D01*
X74121614Y-104093405D01*
X74275150Y-104175472D01*
X74441746Y-104226008D01*
X74615000Y-104243072D01*
X75865000Y-104243072D01*
X76038254Y-104226008D01*
X76204850Y-104175472D01*
X76357600Y-104093825D01*
X76357600Y-104565019D01*
X76239482Y-104529188D01*
X76115000Y-104516928D01*
X75525750Y-104520000D01*
X75367000Y-104678750D01*
X75367000Y-105740500D01*
X76591250Y-105740500D01*
X76674100Y-105657650D01*
X77413377Y-106396927D01*
X77438031Y-106426969D01*
X77557928Y-106525366D01*
X77561236Y-106527134D01*
X77604528Y-106669850D01*
X77686595Y-106823386D01*
X77797038Y-106957962D01*
X77931614Y-107068405D01*
X78085150Y-107150472D01*
X78251746Y-107201008D01*
X78425000Y-107218072D01*
X79675000Y-107218072D01*
X79848254Y-107201008D01*
X80014850Y-107150472D01*
X80168386Y-107068405D01*
X80243662Y-107006628D01*
X80263815Y-107031185D01*
X80360506Y-107110537D01*
X80470820Y-107169502D01*
X80590518Y-107205812D01*
X80715000Y-107218072D01*
X81304250Y-107215000D01*
X81463000Y-107056250D01*
X81463000Y-105994500D01*
X81717000Y-105994500D01*
X81717000Y-107056250D01*
X81875750Y-107215000D01*
X82465000Y-107218072D01*
X82589482Y-107205812D01*
X82709180Y-107169502D01*
X82819494Y-107110537D01*
X82916185Y-107031185D01*
X82995537Y-106934494D01*
X83054502Y-106824180D01*
X83090812Y-106704482D01*
X83103072Y-106580000D01*
X83100000Y-106153250D01*
X82941250Y-105994500D01*
X81717000Y-105994500D01*
X81463000Y-105994500D01*
X81443000Y-105994500D01*
X81443000Y-105740500D01*
X81463000Y-105740500D01*
X81463000Y-104678750D01*
X81717000Y-104678750D01*
X81717000Y-105740500D01*
X82941250Y-105740500D01*
X83100000Y-105581750D01*
X83103072Y-105155000D01*
X83090812Y-105030518D01*
X83054502Y-104910820D01*
X82995537Y-104800506D01*
X82916185Y-104703815D01*
X82819494Y-104624463D01*
X82709180Y-104565498D01*
X82589482Y-104529188D01*
X82465000Y-104516928D01*
X81875750Y-104520000D01*
X81717000Y-104678750D01*
X81463000Y-104678750D01*
X81304250Y-104520000D01*
X80715000Y-104516928D01*
X80590518Y-104529188D01*
X80470820Y-104565498D01*
X80360506Y-104624463D01*
X80263815Y-104703815D01*
X80243662Y-104728372D01*
X80168386Y-104666595D01*
X80014850Y-104584528D01*
X79848254Y-104533992D01*
X79675000Y-104516928D01*
X78425000Y-104516928D01*
X78251746Y-104533992D01*
X78085150Y-104584528D01*
X77932400Y-104666175D01*
X77932400Y-104093825D01*
X78085150Y-104175472D01*
X78251746Y-104226008D01*
X78425000Y-104243072D01*
X79675000Y-104243072D01*
X79848254Y-104226008D01*
X80014850Y-104175472D01*
X80168386Y-104093405D01*
X80302962Y-103982962D01*
X80320000Y-103962201D01*
X80337038Y-103982962D01*
X80471614Y-104093405D01*
X80625150Y-104175472D01*
X80791746Y-104226008D01*
X80965000Y-104243072D01*
X82215000Y-104243072D01*
X82388254Y-104226008D01*
X82554850Y-104175472D01*
X82708386Y-104093405D01*
X82842962Y-103982962D01*
X82953405Y-103848386D01*
X83035472Y-103694850D01*
X83086008Y-103528254D01*
X83103072Y-103355000D01*
X83103072Y-102430000D01*
X83086008Y-102256746D01*
X83035472Y-102090150D01*
X82953405Y-101936614D01*
X82842962Y-101802038D01*
X82708386Y-101691595D01*
X82554850Y-101609528D01*
X82388254Y-101558992D01*
X82215000Y-101541928D01*
X80965000Y-101541928D01*
X80791746Y-101558992D01*
X80625150Y-101609528D01*
X80471614Y-101691595D01*
X80337038Y-101802038D01*
X80320000Y-101822799D01*
X80302962Y-101802038D01*
X80168386Y-101691595D01*
X80014850Y-101609528D01*
X79848254Y-101558992D01*
X79675000Y-101541928D01*
X78425000Y-101541928D01*
X78251746Y-101558992D01*
X78085150Y-101609528D01*
X77932400Y-101691175D01*
X77932400Y-98071311D01*
X77948937Y-98054774D01*
X78062205Y-97885256D01*
X78140226Y-97696898D01*
X78180000Y-97496939D01*
X78180000Y-97293061D01*
X78140226Y-97093102D01*
X78065376Y-96912400D01*
X78656384Y-96912400D01*
X78593617Y-97063933D01*
X78550000Y-97283212D01*
X78550000Y-97506788D01*
X78593617Y-97726067D01*
X78679176Y-97932624D01*
X78803388Y-98118520D01*
X78961480Y-98276612D01*
X79147376Y-98400824D01*
X79353933Y-98486383D01*
X79573212Y-98530000D01*
X79796788Y-98530000D01*
X80016067Y-98486383D01*
X80222624Y-98400824D01*
X80302429Y-98347500D01*
X86733653Y-98347500D01*
X86710498Y-98390820D01*
X86674188Y-98510518D01*
X86661928Y-98635000D01*
X86661928Y-100385000D01*
X86674188Y-100509482D01*
X86710498Y-100629180D01*
X86769463Y-100739494D01*
X86848815Y-100836185D01*
X86945506Y-100915537D01*
X87055820Y-100974502D01*
X87175518Y-101010812D01*
X87300000Y-101023072D01*
X87750000Y-101023072D01*
X87850000Y-101013223D01*
X87950000Y-101023072D01*
X88400000Y-101023072D01*
X88502838Y-101012944D01*
X88568250Y-101020000D01*
X88600497Y-100987753D01*
X88644180Y-100974502D01*
X88754494Y-100915537D01*
X88825256Y-100857464D01*
X88888476Y-100910772D01*
X88997995Y-100971199D01*
X89049243Y-100987493D01*
X89081750Y-101020000D01*
X89150000Y-101012637D01*
X89218250Y-101020000D01*
X89250757Y-100987493D01*
X89302005Y-100971199D01*
X89411524Y-100910772D01*
X89474744Y-100857464D01*
X89545506Y-100915537D01*
X89655820Y-100974502D01*
X89699503Y-100987753D01*
X89731750Y-101020000D01*
X89797162Y-101012944D01*
X89900000Y-101023072D01*
X90350000Y-101023072D01*
X90450000Y-101013223D01*
X90550000Y-101023072D01*
X91000000Y-101023072D01*
X91100000Y-101013223D01*
X91200000Y-101023072D01*
X91650000Y-101023072D01*
X91752838Y-101012944D01*
X91818250Y-101020000D01*
X91850497Y-100987753D01*
X91894180Y-100974502D01*
X92004494Y-100915537D01*
X92075000Y-100857674D01*
X92145506Y-100915537D01*
X92255820Y-100974502D01*
X92299503Y-100987753D01*
X92331750Y-101020000D01*
X92397162Y-101012944D01*
X92500000Y-101023072D01*
X92950000Y-101023072D01*
X93050000Y-101013223D01*
X93150000Y-101023072D01*
X93600000Y-101023072D01*
X93702838Y-101012944D01*
X93768250Y-101020000D01*
X93800497Y-100987753D01*
X93844180Y-100974502D01*
X93954494Y-100915537D01*
X94025000Y-100857674D01*
X94095506Y-100915537D01*
X94205820Y-100974502D01*
X94249503Y-100987753D01*
X94281750Y-101020000D01*
X94347162Y-101012944D01*
X94450000Y-101023072D01*
X94900000Y-101023072D01*
X95000000Y-101013223D01*
X95100000Y-101023072D01*
X95550000Y-101023072D01*
X95650000Y-101013223D01*
X95750000Y-101023072D01*
X96200000Y-101023072D01*
X96324482Y-101010812D01*
X96444180Y-100974502D01*
X96554494Y-100915537D01*
X96651185Y-100836185D01*
X96730537Y-100739494D01*
X96789502Y-100629180D01*
X96825812Y-100509482D01*
X96838072Y-100385000D01*
X96838072Y-98635000D01*
X96825812Y-98510518D01*
X96789502Y-98390820D01*
X96762400Y-98340117D01*
X96762400Y-94673665D01*
X96766208Y-94635000D01*
X96762400Y-94596335D01*
X96762400Y-94596327D01*
X96751006Y-94480643D01*
X96705982Y-94332217D01*
X96632866Y-94195428D01*
X96534469Y-94075531D01*
X96504427Y-94050876D01*
X96089429Y-93635879D01*
X95924128Y-93470578D01*
X95899469Y-93440531D01*
X95779572Y-93342134D01*
X95642783Y-93269018D01*
X95494357Y-93223994D01*
X95378673Y-93212600D01*
X95378663Y-93212600D01*
X95340000Y-93208792D01*
X95301337Y-93212600D01*
X93770138Y-93212600D01*
X93806006Y-93094357D01*
X93817400Y-92978673D01*
X93817400Y-92978664D01*
X93821208Y-92940001D01*
X93817400Y-92901338D01*
X93817400Y-90953072D01*
X93905001Y-90953072D01*
X94078255Y-90936008D01*
X94244851Y-90885472D01*
X94398387Y-90803405D01*
X94532962Y-90692962D01*
X94643405Y-90558387D01*
X94725472Y-90404851D01*
X94776008Y-90238255D01*
X94792579Y-90070000D01*
X96586928Y-90070000D01*
X96599188Y-90194482D01*
X96635498Y-90314180D01*
X96694463Y-90424494D01*
X96773815Y-90521185D01*
X96870506Y-90600537D01*
X96980820Y-90659502D01*
X97100518Y-90695812D01*
X97225000Y-90708072D01*
X97814250Y-90705000D01*
X97973000Y-90546250D01*
X97973000Y-89484500D01*
X98227000Y-89484500D01*
X98227000Y-90546250D01*
X98385750Y-90705000D01*
X98975000Y-90708072D01*
X99099482Y-90695812D01*
X99219180Y-90659502D01*
X99329494Y-90600537D01*
X99426185Y-90521185D01*
X99505537Y-90424494D01*
X99564502Y-90314180D01*
X99600812Y-90194482D01*
X99613072Y-90070000D01*
X99610000Y-89643250D01*
X99451250Y-89484500D01*
X98227000Y-89484500D01*
X97973000Y-89484500D01*
X96748750Y-89484500D01*
X96590000Y-89643250D01*
X96586928Y-90070000D01*
X94792579Y-90070000D01*
X94793072Y-90065001D01*
X94793072Y-88645000D01*
X96586928Y-88645000D01*
X96590000Y-89071750D01*
X96748750Y-89230500D01*
X97973000Y-89230500D01*
X97973000Y-88168750D01*
X98227000Y-88168750D01*
X98227000Y-89230500D01*
X99451250Y-89230500D01*
X99610000Y-89071750D01*
X99613072Y-88645000D01*
X99600812Y-88520518D01*
X99564502Y-88400820D01*
X99505537Y-88290506D01*
X99426185Y-88193815D01*
X99329494Y-88114463D01*
X99219180Y-88055498D01*
X99099482Y-88019188D01*
X98975000Y-88006928D01*
X98385750Y-88010000D01*
X98227000Y-88168750D01*
X97973000Y-88168750D01*
X97814250Y-88010000D01*
X97225000Y-88006928D01*
X97100518Y-88019188D01*
X96980820Y-88055498D01*
X96870506Y-88114463D01*
X96773815Y-88193815D01*
X96694463Y-88290506D01*
X96635498Y-88400820D01*
X96599188Y-88520518D01*
X96586928Y-88645000D01*
X94793072Y-88645000D01*
X94793072Y-88214999D01*
X94776008Y-88041745D01*
X94725472Y-87875149D01*
X94643405Y-87721613D01*
X94532962Y-87587038D01*
X94398387Y-87476595D01*
X94244851Y-87394528D01*
X94078255Y-87343992D01*
X93905001Y-87326928D01*
X93020000Y-87326928D01*
X93020000Y-84764985D01*
X93075506Y-84810537D01*
X93185820Y-84869502D01*
X93305518Y-84905812D01*
X93430000Y-84918072D01*
X94630000Y-84918072D01*
X94754482Y-84905812D01*
X94874180Y-84869502D01*
X94984494Y-84810537D01*
X95081185Y-84731185D01*
X95160537Y-84634494D01*
X95219502Y-84524180D01*
X95255812Y-84404482D01*
X95268072Y-84280000D01*
X95268072Y-84132500D01*
X96602571Y-84132500D01*
X96682376Y-84185824D01*
X96888933Y-84271383D01*
X96983069Y-84290108D01*
X97147500Y-84454539D01*
X97147500Y-85095782D01*
X97135150Y-85099528D01*
X96981614Y-85181595D01*
X96847038Y-85292038D01*
X96736595Y-85426614D01*
X96654528Y-85580150D01*
X96603992Y-85746746D01*
X96586928Y-85920000D01*
X96586928Y-86845000D01*
X96603992Y-87018254D01*
X96654528Y-87184850D01*
X96736595Y-87338386D01*
X96847038Y-87472962D01*
X96981614Y-87583405D01*
X97135150Y-87665472D01*
X97301746Y-87716008D01*
X97475000Y-87733072D01*
X98725000Y-87733072D01*
X98898254Y-87716008D01*
X99064850Y-87665472D01*
X99218386Y-87583405D01*
X99352962Y-87472962D01*
X99463405Y-87338386D01*
X99545472Y-87184850D01*
X99596008Y-87018254D01*
X99613072Y-86845000D01*
X99613072Y-85920000D01*
X99596008Y-85746746D01*
X99545472Y-85580150D01*
X99463405Y-85426614D01*
X99352962Y-85292038D01*
X99218386Y-85181595D01*
X99064850Y-85099528D01*
X99052500Y-85095782D01*
X99052500Y-84106785D01*
X99057108Y-84060000D01*
X99038717Y-83873277D01*
X99032525Y-83852866D01*
X98984252Y-83693731D01*
X98895806Y-83528259D01*
X98776778Y-83383222D01*
X98740436Y-83353397D01*
X98330108Y-82943069D01*
X98311383Y-82848933D01*
X98225824Y-82642376D01*
X98101612Y-82456480D01*
X97943520Y-82298388D01*
X97757624Y-82174176D01*
X97551067Y-82088617D01*
X97331788Y-82045000D01*
X97108212Y-82045000D01*
X96888933Y-82088617D01*
X96682376Y-82174176D01*
X96602571Y-82227500D01*
X95268072Y-82227500D01*
X95268072Y-82080000D01*
X95255812Y-81955518D01*
X95219502Y-81835820D01*
X95160537Y-81725506D01*
X95081185Y-81628815D01*
X94984494Y-81549463D01*
X94874180Y-81490498D01*
X94754482Y-81454188D01*
X94630000Y-81441928D01*
X93430000Y-81441928D01*
X93305518Y-81454188D01*
X93185820Y-81490498D01*
X93075506Y-81549463D01*
X93020000Y-81595015D01*
X93020000Y-80718072D01*
X94650000Y-80718072D01*
X94774482Y-80705812D01*
X94894180Y-80669502D01*
X95004494Y-80610537D01*
X95101185Y-80531185D01*
X95180537Y-80434494D01*
X95239502Y-80324180D01*
X95275812Y-80204482D01*
X95288072Y-80080000D01*
X95288072Y-80072017D01*
X104598090Y-80072017D01*
X104639078Y-80344133D01*
X104732364Y-80603023D01*
X104794344Y-80718980D01*
X105034435Y-80785960D01*
X105820395Y-80000000D01*
X105034435Y-79214040D01*
X104794344Y-79281020D01*
X104677244Y-79530048D01*
X104610977Y-79797135D01*
X104598090Y-80072017D01*
X95288072Y-80072017D01*
X95288072Y-79034435D01*
X105214040Y-79034435D01*
X106000000Y-79820395D01*
X106785960Y-79034435D01*
X106718980Y-78794344D01*
X106469952Y-78677244D01*
X106202865Y-78610977D01*
X105927983Y-78598090D01*
X105655867Y-78639078D01*
X105396977Y-78732364D01*
X105281020Y-78794344D01*
X105214040Y-79034435D01*
X95288072Y-79034435D01*
X95288072Y-78150000D01*
X120702620Y-78150000D01*
X120765000Y-78156144D01*
X120827380Y-78150000D01*
X122730000Y-78150000D01*
X122730001Y-78807614D01*
X122661727Y-78761995D01*
X122407490Y-78656686D01*
X122137592Y-78603000D01*
X121862408Y-78603000D01*
X121592510Y-78656686D01*
X121338273Y-78761995D01*
X121109465Y-78914880D01*
X121000000Y-79024345D01*
X120890535Y-78914880D01*
X120661727Y-78761995D01*
X120407490Y-78656686D01*
X120137592Y-78603000D01*
X119862408Y-78603000D01*
X119592510Y-78656686D01*
X119338273Y-78761995D01*
X119109465Y-78914880D01*
X119000000Y-79024345D01*
X118890535Y-78914880D01*
X118661727Y-78761995D01*
X118407490Y-78656686D01*
X118137592Y-78603000D01*
X117862408Y-78603000D01*
X117592510Y-78656686D01*
X117338273Y-78761995D01*
X117109465Y-78914880D01*
X117000000Y-79024345D01*
X116890535Y-78914880D01*
X116661727Y-78761995D01*
X116407490Y-78656686D01*
X116137592Y-78603000D01*
X115862408Y-78603000D01*
X115592510Y-78656686D01*
X115338273Y-78761995D01*
X115109465Y-78914880D01*
X115000000Y-79024345D01*
X114890535Y-78914880D01*
X114661727Y-78761995D01*
X114407490Y-78656686D01*
X114137592Y-78603000D01*
X113862408Y-78603000D01*
X113592510Y-78656686D01*
X113338273Y-78761995D01*
X113109465Y-78914880D01*
X113000000Y-79024345D01*
X112890535Y-78914880D01*
X112661727Y-78761995D01*
X112407490Y-78656686D01*
X112137592Y-78603000D01*
X111862408Y-78603000D01*
X111592510Y-78656686D01*
X111338273Y-78761995D01*
X111109465Y-78914880D01*
X111000000Y-79024345D01*
X110890535Y-78914880D01*
X110661727Y-78761995D01*
X110407490Y-78656686D01*
X110137592Y-78603000D01*
X109862408Y-78603000D01*
X109592510Y-78656686D01*
X109338273Y-78761995D01*
X109109465Y-78914880D01*
X109000000Y-79024345D01*
X108890535Y-78914880D01*
X108661727Y-78761995D01*
X108407490Y-78656686D01*
X108137592Y-78603000D01*
X107862408Y-78603000D01*
X107592510Y-78656686D01*
X107338273Y-78761995D01*
X107109465Y-78914880D01*
X106914880Y-79109465D01*
X106761995Y-79338273D01*
X106705895Y-79473710D01*
X106179605Y-80000000D01*
X106705895Y-80526290D01*
X106761995Y-80661727D01*
X106914880Y-80890535D01*
X107027897Y-81003552D01*
X106663850Y-81367600D01*
X106299798Y-81367600D01*
X106344133Y-81360922D01*
X106603023Y-81267636D01*
X106718980Y-81205656D01*
X106785960Y-80965565D01*
X106000000Y-80179605D01*
X105214040Y-80965565D01*
X105281020Y-81205656D01*
X105530048Y-81322756D01*
X105710790Y-81367600D01*
X104488662Y-81367600D01*
X104449999Y-81363792D01*
X104411336Y-81367600D01*
X104411327Y-81367600D01*
X104295643Y-81378994D01*
X104147217Y-81424018D01*
X104010428Y-81497134D01*
X104010426Y-81497135D01*
X104010427Y-81497135D01*
X103920569Y-81570879D01*
X103920567Y-81570881D01*
X103890531Y-81595531D01*
X103865881Y-81625567D01*
X102650573Y-82840877D01*
X102620532Y-82865531D01*
X102577144Y-82918399D01*
X102522135Y-82985428D01*
X102449018Y-83122218D01*
X102403995Y-83270643D01*
X102388792Y-83425000D01*
X102392601Y-83463673D01*
X102392600Y-103418849D01*
X102218849Y-103592600D01*
X93693665Y-103592600D01*
X93655000Y-103588792D01*
X93616335Y-103592600D01*
X93616327Y-103592600D01*
X93500643Y-103603994D01*
X93352217Y-103649018D01*
X93215428Y-103722134D01*
X93125570Y-103795878D01*
X93125567Y-103795881D01*
X93095531Y-103820531D01*
X93070881Y-103850567D01*
X92195573Y-104725877D01*
X92165532Y-104750531D01*
X92076684Y-104858792D01*
X92067135Y-104870428D01*
X91994018Y-105007218D01*
X91948995Y-105155643D01*
X91944929Y-105196928D01*
X91850000Y-105196928D01*
X91747162Y-105207056D01*
X91681750Y-105200000D01*
X91649503Y-105232247D01*
X91605820Y-105245498D01*
X91495506Y-105304463D01*
X91425000Y-105362326D01*
X91354494Y-105304463D01*
X91244180Y-105245498D01*
X91200497Y-105232247D01*
X91168250Y-105200000D01*
X91102838Y-105207056D01*
X91000000Y-105196928D01*
X90550000Y-105196928D01*
X90450000Y-105206777D01*
X90350000Y-105196928D01*
X90262400Y-105196928D01*
X90262400Y-104683665D01*
X90266208Y-104645000D01*
X90262400Y-104606335D01*
X90262400Y-104606327D01*
X90251006Y-104490643D01*
X90205982Y-104342217D01*
X90153765Y-104244526D01*
X90148717Y-104193277D01*
X90094252Y-104013731D01*
X90005806Y-103848259D01*
X89886778Y-103703222D01*
X89741741Y-103584194D01*
X89576269Y-103495748D01*
X89396723Y-103441283D01*
X89256785Y-103427500D01*
X86081785Y-103427500D01*
X86035000Y-103422892D01*
X85988215Y-103427500D01*
X85848277Y-103441283D01*
X85668731Y-103495748D01*
X85503259Y-103584194D01*
X85358222Y-103703222D01*
X85239194Y-103848259D01*
X85150748Y-104013731D01*
X85096283Y-104193277D01*
X85077892Y-104380000D01*
X85082501Y-104426795D01*
X85082500Y-108430462D01*
X85005462Y-108507500D01*
X84112429Y-108507500D01*
X84032624Y-108454176D01*
X83826067Y-108368617D01*
X83606788Y-108325000D01*
X83383212Y-108325000D01*
X83163933Y-108368617D01*
X82957376Y-108454176D01*
X82771480Y-108578388D01*
X82613388Y-108736480D01*
X82489176Y-108922376D01*
X82403617Y-109128933D01*
X82360000Y-109348212D01*
X82360000Y-109571788D01*
X82403617Y-109791067D01*
X82489176Y-109997624D01*
X82613388Y-110183520D01*
X82771480Y-110341612D01*
X82957376Y-110465824D01*
X83163933Y-110551383D01*
X83383212Y-110595000D01*
X83606788Y-110595000D01*
X83826067Y-110551383D01*
X84032624Y-110465824D01*
X84112429Y-110412500D01*
X85353215Y-110412500D01*
X85400000Y-110417108D01*
X85446785Y-110412500D01*
X85586723Y-110398717D01*
X85766269Y-110344252D01*
X85931741Y-110255806D01*
X86076778Y-110136778D01*
X86106608Y-110100430D01*
X86675426Y-109531611D01*
X86711778Y-109501778D01*
X86737601Y-109470313D01*
X86737601Y-110276327D01*
X86733792Y-110315000D01*
X86748995Y-110469357D01*
X86794018Y-110617782D01*
X86835716Y-110695792D01*
X86867135Y-110754572D01*
X86965532Y-110874469D01*
X86995572Y-110899122D01*
X87095496Y-110999046D01*
X87120151Y-111029089D01*
X87240048Y-111127486D01*
X87376837Y-111200602D01*
X87525263Y-111245626D01*
X87640947Y-111257020D01*
X87640955Y-111257020D01*
X87679620Y-111260828D01*
X87718285Y-111257020D01*
X126896717Y-111257020D01*
X126935380Y-111260828D01*
X126974043Y-111257020D01*
X126974053Y-111257020D01*
X127089737Y-111245626D01*
X127238163Y-111200602D01*
X127374952Y-111127486D01*
X127494849Y-111029089D01*
X127519507Y-110999043D01*
X127839428Y-110679123D01*
X127869469Y-110654469D01*
X127967866Y-110534572D01*
X128040982Y-110397783D01*
X128086006Y-110249357D01*
X128097400Y-110133673D01*
X128097400Y-110133665D01*
X128101208Y-110095000D01*
X128097400Y-110056335D01*
X128097400Y-100062000D01*
X133340001Y-100062000D01*
X133340001Y-111340000D01*
X60660000Y-111340000D01*
X60660000Y-106543500D01*
X67630928Y-106543500D01*
X67643188Y-106667982D01*
X67679498Y-106787680D01*
X67738463Y-106897994D01*
X67817815Y-106994685D01*
X67914506Y-107074037D01*
X68024820Y-107133002D01*
X68144518Y-107169312D01*
X68269000Y-107181572D01*
X68858250Y-107178500D01*
X69017000Y-107019750D01*
X69017000Y-105958000D01*
X67792750Y-105958000D01*
X67634000Y-106116750D01*
X67630928Y-106543500D01*
X60660000Y-106543500D01*
X60660000Y-105118500D01*
X67630928Y-105118500D01*
X67634000Y-105545250D01*
X67792750Y-105704000D01*
X69017000Y-105704000D01*
X69017000Y-104642250D01*
X68858250Y-104483500D01*
X68269000Y-104480428D01*
X68144518Y-104492688D01*
X68024820Y-104528998D01*
X67914506Y-104587963D01*
X67817815Y-104667315D01*
X67738463Y-104764006D01*
X67679498Y-104874320D01*
X67643188Y-104994018D01*
X67630928Y-105118500D01*
X60660000Y-105118500D01*
X60660000Y-98597499D01*
X61472106Y-98597499D01*
X61688228Y-98964258D01*
X62148105Y-99204938D01*
X62646098Y-99351275D01*
X63163071Y-99397648D01*
X63679159Y-99342273D01*
X64174526Y-99187279D01*
X64591772Y-98964258D01*
X64807894Y-98597499D01*
X63140000Y-96929605D01*
X61472106Y-98597499D01*
X60660000Y-98597499D01*
X60660000Y-97647988D01*
X60702721Y-97784526D01*
X60925742Y-98201772D01*
X61292501Y-98417894D01*
X62960395Y-96750000D01*
X63319605Y-96750000D01*
X64987499Y-98417894D01*
X65354258Y-98201772D01*
X65594938Y-97741895D01*
X65741275Y-97243902D01*
X65787648Y-96726929D01*
X65732273Y-96210841D01*
X65577279Y-95715474D01*
X65354258Y-95298228D01*
X64987499Y-95082106D01*
X63319605Y-96750000D01*
X62960395Y-96750000D01*
X61292501Y-95082106D01*
X60925742Y-95298228D01*
X60685062Y-95758105D01*
X60660000Y-95843392D01*
X60660000Y-94902501D01*
X61472106Y-94902501D01*
X63140000Y-96570395D01*
X64807894Y-94902501D01*
X64591772Y-94535742D01*
X64131895Y-94295062D01*
X63633902Y-94148725D01*
X63116929Y-94102352D01*
X62600841Y-94157727D01*
X62105474Y-94312721D01*
X61688228Y-94535742D01*
X61472106Y-94902501D01*
X60660000Y-94902501D01*
X60660000Y-92070512D01*
X64559783Y-92070512D01*
X64601213Y-92350130D01*
X64696397Y-92616292D01*
X64763329Y-92741514D01*
X65007298Y-92813097D01*
X65820395Y-92000000D01*
X65007298Y-91186903D01*
X64763329Y-91258486D01*
X64642429Y-91513996D01*
X64573700Y-91788184D01*
X64559783Y-92070512D01*
X60660000Y-92070512D01*
X60660000Y-86597499D01*
X61472106Y-86597499D01*
X61688228Y-86964258D01*
X62148105Y-87204938D01*
X62646098Y-87351275D01*
X63163071Y-87397648D01*
X63679159Y-87342273D01*
X64174526Y-87187279D01*
X64591772Y-86964258D01*
X64807894Y-86597499D01*
X63140000Y-84929605D01*
X61472106Y-86597499D01*
X60660000Y-86597499D01*
X60660000Y-85647988D01*
X60702721Y-85784526D01*
X60925742Y-86201772D01*
X61292501Y-86417894D01*
X62960395Y-84750000D01*
X63319605Y-84750000D01*
X64987499Y-86417894D01*
X65354258Y-86201772D01*
X65594938Y-85741895D01*
X65741275Y-85243902D01*
X65787648Y-84726929D01*
X65732273Y-84210841D01*
X65577279Y-83715474D01*
X65397966Y-83380000D01*
X73276928Y-83380000D01*
X73276928Y-84305000D01*
X73293992Y-84478254D01*
X73344528Y-84644850D01*
X73426595Y-84798386D01*
X73537038Y-84932962D01*
X73671614Y-85043405D01*
X73825150Y-85125472D01*
X73991746Y-85176008D01*
X74165000Y-85193072D01*
X76315000Y-85193072D01*
X76488254Y-85176008D01*
X76654850Y-85125472D01*
X76808386Y-85043405D01*
X76942962Y-84932962D01*
X77053405Y-84798386D01*
X77135472Y-84644850D01*
X77186008Y-84478254D01*
X77203072Y-84305000D01*
X77203072Y-83380000D01*
X77186008Y-83206746D01*
X77135472Y-83040150D01*
X77053405Y-82886614D01*
X76942962Y-82752038D01*
X76808386Y-82641595D01*
X76654850Y-82559528D01*
X76488254Y-82508992D01*
X76315000Y-82491928D01*
X76192500Y-82491928D01*
X76192500Y-82137429D01*
X76245824Y-82057624D01*
X76331383Y-81851067D01*
X76375000Y-81631788D01*
X76375000Y-81408212D01*
X76331383Y-81188933D01*
X76245824Y-80982376D01*
X76192500Y-80902571D01*
X76192500Y-80136044D01*
X76223405Y-80098386D01*
X76305472Y-79944850D01*
X76332727Y-79855000D01*
X76646928Y-79855000D01*
X76659188Y-79979482D01*
X76695498Y-80099180D01*
X76754463Y-80209494D01*
X76833815Y-80306185D01*
X76930506Y-80385537D01*
X77040820Y-80444502D01*
X77160518Y-80480812D01*
X77285000Y-80493072D01*
X77711750Y-80490000D01*
X77870500Y-80331250D01*
X77870500Y-79107000D01*
X78124500Y-79107000D01*
X78124500Y-80331250D01*
X78283250Y-80490000D01*
X78710000Y-80493072D01*
X78834482Y-80480812D01*
X78954180Y-80444502D01*
X79064494Y-80385537D01*
X79161185Y-80306185D01*
X79240537Y-80209494D01*
X79299502Y-80099180D01*
X79335812Y-79979482D01*
X79348072Y-79855000D01*
X79345000Y-79265750D01*
X79186250Y-79107000D01*
X78124500Y-79107000D01*
X77870500Y-79107000D01*
X76808750Y-79107000D01*
X76650000Y-79265750D01*
X76646928Y-79855000D01*
X76332727Y-79855000D01*
X76356008Y-79778254D01*
X76373072Y-79605000D01*
X76373072Y-78355000D01*
X76356008Y-78181746D01*
X76332728Y-78105000D01*
X76646928Y-78105000D01*
X76650000Y-78694250D01*
X76808750Y-78853000D01*
X77870500Y-78853000D01*
X77870500Y-77628750D01*
X78124500Y-77628750D01*
X78124500Y-78853000D01*
X79186250Y-78853000D01*
X79345000Y-78694250D01*
X79348072Y-78105000D01*
X79335812Y-77980518D01*
X79299502Y-77860820D01*
X79240537Y-77750506D01*
X79161185Y-77653815D01*
X79064494Y-77574463D01*
X78954180Y-77515498D01*
X78834482Y-77479188D01*
X78710000Y-77466928D01*
X78283250Y-77470000D01*
X78124500Y-77628750D01*
X77870500Y-77628750D01*
X77711750Y-77470000D01*
X77285000Y-77466928D01*
X77160518Y-77479188D01*
X77040820Y-77515498D01*
X76930506Y-77574463D01*
X76833815Y-77653815D01*
X76754463Y-77750506D01*
X76695498Y-77860820D01*
X76659188Y-77980518D01*
X76646928Y-78105000D01*
X76332728Y-78105000D01*
X76305472Y-78015150D01*
X76223405Y-77861614D01*
X76112962Y-77727038D01*
X75978386Y-77616595D01*
X75824850Y-77534528D01*
X75658254Y-77483992D01*
X75485000Y-77466928D01*
X74560000Y-77466928D01*
X74386746Y-77483992D01*
X74220150Y-77534528D01*
X74066614Y-77616595D01*
X73932038Y-77727038D01*
X73821595Y-77861614D01*
X73739528Y-78015150D01*
X73688992Y-78181746D01*
X73671928Y-78355000D01*
X73671928Y-79605000D01*
X73688992Y-79778254D01*
X73739528Y-79944850D01*
X73821595Y-80098386D01*
X73932038Y-80232962D01*
X74066614Y-80343405D01*
X74220150Y-80425472D01*
X74287500Y-80445902D01*
X74287500Y-80902571D01*
X74234176Y-80982376D01*
X74148617Y-81188933D01*
X74105000Y-81408212D01*
X74105000Y-81631788D01*
X74148617Y-81851067D01*
X74234176Y-82057624D01*
X74287500Y-82137429D01*
X74287500Y-82491928D01*
X74165000Y-82491928D01*
X73991746Y-82508992D01*
X73825150Y-82559528D01*
X73671614Y-82641595D01*
X73537038Y-82752038D01*
X73426595Y-82886614D01*
X73344528Y-83040150D01*
X73293992Y-83206746D01*
X73276928Y-83380000D01*
X65397966Y-83380000D01*
X65354258Y-83298228D01*
X64987499Y-83082106D01*
X63319605Y-84750000D01*
X62960395Y-84750000D01*
X61292501Y-83082106D01*
X60925742Y-83298228D01*
X60685062Y-83758105D01*
X60660000Y-83843392D01*
X60660000Y-82902501D01*
X61472106Y-82902501D01*
X63140000Y-84570395D01*
X64807894Y-82902501D01*
X64591772Y-82535742D01*
X64131895Y-82295062D01*
X63633902Y-82148725D01*
X63116929Y-82102352D01*
X62600841Y-82157727D01*
X62105474Y-82312721D01*
X61688228Y-82535742D01*
X61472106Y-82902501D01*
X60660000Y-82902501D01*
X60660000Y-70660000D01*
X133340000Y-70660000D01*
X133340000Y-82028000D01*
M02*
