G04 #@! TF.GenerationSoftware,KiCad,Pcbnew,5.1.5+dfsg1-2build2*
G04 #@! TF.CreationDate,2020-09-30T09:27:11+02:00*
G04 #@! TF.ProjectId,Adaptateur,41646170-7461-4746-9575-722e6b696361,rev?*
G04 #@! TF.SameCoordinates,Original*
G04 #@! TF.FileFunction,Soldermask,Bot*
G04 #@! TF.FilePolarity,Negative*
%FSLAX46Y46*%
G04 Gerber Fmt 4.6, Leading zero omitted, Abs format (unit mm)*
G04 Created by KiCad (PCBNEW 5.1.5+dfsg1-2build2) date 2020-09-30 09:27:11*
%MOMM*%
%LPD*%
G04 APERTURE LIST*
%ADD10C,0.100000*%
G04 APERTURE END LIST*
D10*
G36*
X124237142Y-101218242D02*
G01*
X124385101Y-101279529D01*
X124518255Y-101368499D01*
X124631501Y-101481745D01*
X124720471Y-101614899D01*
X124781758Y-101762858D01*
X124813000Y-101919925D01*
X124813000Y-102080075D01*
X124781758Y-102237142D01*
X124720471Y-102385101D01*
X124631501Y-102518255D01*
X124518255Y-102631501D01*
X124385101Y-102720471D01*
X124237142Y-102781758D01*
X124080075Y-102813000D01*
X123919925Y-102813000D01*
X123762858Y-102781758D01*
X123614899Y-102720471D01*
X123481745Y-102631501D01*
X123368499Y-102518255D01*
X123279529Y-102385101D01*
X123218242Y-102237142D01*
X123187000Y-102080075D01*
X123187000Y-101919925D01*
X123218242Y-101762858D01*
X123279529Y-101614899D01*
X123368499Y-101481745D01*
X123481745Y-101368499D01*
X123614899Y-101279529D01*
X123762858Y-101218242D01*
X123919925Y-101187000D01*
X124080075Y-101187000D01*
X124237142Y-101218242D01*
G37*
G36*
X118237142Y-101218242D02*
G01*
X118385101Y-101279529D01*
X118518255Y-101368499D01*
X118631501Y-101481745D01*
X118720471Y-101614899D01*
X118781758Y-101762858D01*
X118813000Y-101919925D01*
X118813000Y-102080075D01*
X118781758Y-102237142D01*
X118720471Y-102385101D01*
X118631501Y-102518255D01*
X118518255Y-102631501D01*
X118385101Y-102720471D01*
X118237142Y-102781758D01*
X118080075Y-102813000D01*
X117919925Y-102813000D01*
X117762858Y-102781758D01*
X117614899Y-102720471D01*
X117481745Y-102631501D01*
X117368499Y-102518255D01*
X117279529Y-102385101D01*
X117218242Y-102237142D01*
X117187000Y-102080075D01*
X117187000Y-101919925D01*
X117218242Y-101762858D01*
X117279529Y-101614899D01*
X117368499Y-101481745D01*
X117481745Y-101368499D01*
X117614899Y-101279529D01*
X117762858Y-101218242D01*
X117919925Y-101187000D01*
X118080075Y-101187000D01*
X118237142Y-101218242D01*
G37*
G36*
X120237142Y-101218242D02*
G01*
X120385101Y-101279529D01*
X120518255Y-101368499D01*
X120631501Y-101481745D01*
X120720471Y-101614899D01*
X120781758Y-101762858D01*
X120813000Y-101919925D01*
X120813000Y-102080075D01*
X120781758Y-102237142D01*
X120720471Y-102385101D01*
X120631501Y-102518255D01*
X120518255Y-102631501D01*
X120385101Y-102720471D01*
X120237142Y-102781758D01*
X120080075Y-102813000D01*
X119919925Y-102813000D01*
X119762858Y-102781758D01*
X119614899Y-102720471D01*
X119481745Y-102631501D01*
X119368499Y-102518255D01*
X119279529Y-102385101D01*
X119218242Y-102237142D01*
X119187000Y-102080075D01*
X119187000Y-101919925D01*
X119218242Y-101762858D01*
X119279529Y-101614899D01*
X119368499Y-101481745D01*
X119481745Y-101368499D01*
X119614899Y-101279529D01*
X119762858Y-101218242D01*
X119919925Y-101187000D01*
X120080075Y-101187000D01*
X120237142Y-101218242D01*
G37*
G36*
X122237142Y-101218242D02*
G01*
X122385101Y-101279529D01*
X122518255Y-101368499D01*
X122631501Y-101481745D01*
X122720471Y-101614899D01*
X122781758Y-101762858D01*
X122813000Y-101919925D01*
X122813000Y-102080075D01*
X122781758Y-102237142D01*
X122720471Y-102385101D01*
X122631501Y-102518255D01*
X122518255Y-102631501D01*
X122385101Y-102720471D01*
X122237142Y-102781758D01*
X122080075Y-102813000D01*
X121919925Y-102813000D01*
X121762858Y-102781758D01*
X121614899Y-102720471D01*
X121481745Y-102631501D01*
X121368499Y-102518255D01*
X121279529Y-102385101D01*
X121218242Y-102237142D01*
X121187000Y-102080075D01*
X121187000Y-101919925D01*
X121218242Y-101762858D01*
X121279529Y-101614899D01*
X121368499Y-101481745D01*
X121481745Y-101368499D01*
X121614899Y-101279529D01*
X121762858Y-101218242D01*
X121919925Y-101187000D01*
X122080075Y-101187000D01*
X122237142Y-101218242D01*
G37*
G36*
X116237142Y-101218242D02*
G01*
X116385101Y-101279529D01*
X116518255Y-101368499D01*
X116631501Y-101481745D01*
X116720471Y-101614899D01*
X116781758Y-101762858D01*
X116813000Y-101919925D01*
X116813000Y-102080075D01*
X116781758Y-102237142D01*
X116720471Y-102385101D01*
X116631501Y-102518255D01*
X116518255Y-102631501D01*
X116385101Y-102720471D01*
X116237142Y-102781758D01*
X116080075Y-102813000D01*
X115919925Y-102813000D01*
X115762858Y-102781758D01*
X115614899Y-102720471D01*
X115481745Y-102631501D01*
X115368499Y-102518255D01*
X115279529Y-102385101D01*
X115218242Y-102237142D01*
X115187000Y-102080075D01*
X115187000Y-101919925D01*
X115218242Y-101762858D01*
X115279529Y-101614899D01*
X115368499Y-101481745D01*
X115481745Y-101368499D01*
X115614899Y-101279529D01*
X115762858Y-101218242D01*
X115919925Y-101187000D01*
X116080075Y-101187000D01*
X116237142Y-101218242D01*
G37*
G36*
X114237142Y-101218242D02*
G01*
X114385101Y-101279529D01*
X114518255Y-101368499D01*
X114631501Y-101481745D01*
X114720471Y-101614899D01*
X114781758Y-101762858D01*
X114813000Y-101919925D01*
X114813000Y-102080075D01*
X114781758Y-102237142D01*
X114720471Y-102385101D01*
X114631501Y-102518255D01*
X114518255Y-102631501D01*
X114385101Y-102720471D01*
X114237142Y-102781758D01*
X114080075Y-102813000D01*
X113919925Y-102813000D01*
X113762858Y-102781758D01*
X113614899Y-102720471D01*
X113481745Y-102631501D01*
X113368499Y-102518255D01*
X113279529Y-102385101D01*
X113218242Y-102237142D01*
X113187000Y-102080075D01*
X113187000Y-101919925D01*
X113218242Y-101762858D01*
X113279529Y-101614899D01*
X113368499Y-101481745D01*
X113481745Y-101368499D01*
X113614899Y-101279529D01*
X113762858Y-101218242D01*
X113919925Y-101187000D01*
X114080075Y-101187000D01*
X114237142Y-101218242D01*
G37*
G36*
X112237142Y-101218242D02*
G01*
X112385101Y-101279529D01*
X112518255Y-101368499D01*
X112631501Y-101481745D01*
X112720471Y-101614899D01*
X112781758Y-101762858D01*
X112813000Y-101919925D01*
X112813000Y-102080075D01*
X112781758Y-102237142D01*
X112720471Y-102385101D01*
X112631501Y-102518255D01*
X112518255Y-102631501D01*
X112385101Y-102720471D01*
X112237142Y-102781758D01*
X112080075Y-102813000D01*
X111919925Y-102813000D01*
X111762858Y-102781758D01*
X111614899Y-102720471D01*
X111481745Y-102631501D01*
X111368499Y-102518255D01*
X111279529Y-102385101D01*
X111218242Y-102237142D01*
X111187000Y-102080075D01*
X111187000Y-101919925D01*
X111218242Y-101762858D01*
X111279529Y-101614899D01*
X111368499Y-101481745D01*
X111481745Y-101368499D01*
X111614899Y-101279529D01*
X111762858Y-101218242D01*
X111919925Y-101187000D01*
X112080075Y-101187000D01*
X112237142Y-101218242D01*
G37*
G36*
X110237142Y-101218242D02*
G01*
X110385101Y-101279529D01*
X110518255Y-101368499D01*
X110631501Y-101481745D01*
X110720471Y-101614899D01*
X110781758Y-101762858D01*
X110813000Y-101919925D01*
X110813000Y-102080075D01*
X110781758Y-102237142D01*
X110720471Y-102385101D01*
X110631501Y-102518255D01*
X110518255Y-102631501D01*
X110385101Y-102720471D01*
X110237142Y-102781758D01*
X110080075Y-102813000D01*
X109919925Y-102813000D01*
X109762858Y-102781758D01*
X109614899Y-102720471D01*
X109481745Y-102631501D01*
X109368499Y-102518255D01*
X109279529Y-102385101D01*
X109218242Y-102237142D01*
X109187000Y-102080075D01*
X109187000Y-101919925D01*
X109218242Y-101762858D01*
X109279529Y-101614899D01*
X109368499Y-101481745D01*
X109481745Y-101368499D01*
X109614899Y-101279529D01*
X109762858Y-101218242D01*
X109919925Y-101187000D01*
X110080075Y-101187000D01*
X110237142Y-101218242D01*
G37*
G36*
X106237142Y-101218242D02*
G01*
X106385101Y-101279529D01*
X106518255Y-101368499D01*
X106631501Y-101481745D01*
X106720471Y-101614899D01*
X106781758Y-101762858D01*
X106813000Y-101919925D01*
X106813000Y-102080075D01*
X106781758Y-102237142D01*
X106720471Y-102385101D01*
X106631501Y-102518255D01*
X106518255Y-102631501D01*
X106385101Y-102720471D01*
X106237142Y-102781758D01*
X106080075Y-102813000D01*
X105919925Y-102813000D01*
X105762858Y-102781758D01*
X105614899Y-102720471D01*
X105481745Y-102631501D01*
X105368499Y-102518255D01*
X105279529Y-102385101D01*
X105218242Y-102237142D01*
X105187000Y-102080075D01*
X105187000Y-101919925D01*
X105218242Y-101762858D01*
X105279529Y-101614899D01*
X105368499Y-101481745D01*
X105481745Y-101368499D01*
X105614899Y-101279529D01*
X105762858Y-101218242D01*
X105919925Y-101187000D01*
X106080075Y-101187000D01*
X106237142Y-101218242D01*
G37*
G36*
X108237142Y-101218242D02*
G01*
X108385101Y-101279529D01*
X108518255Y-101368499D01*
X108631501Y-101481745D01*
X108720471Y-101614899D01*
X108781758Y-101762858D01*
X108813000Y-101919925D01*
X108813000Y-102080075D01*
X108781758Y-102237142D01*
X108720471Y-102385101D01*
X108631501Y-102518255D01*
X108518255Y-102631501D01*
X108385101Y-102720471D01*
X108237142Y-102781758D01*
X108080075Y-102813000D01*
X107919925Y-102813000D01*
X107762858Y-102781758D01*
X107614899Y-102720471D01*
X107481745Y-102631501D01*
X107368499Y-102518255D01*
X107279529Y-102385101D01*
X107218242Y-102237142D01*
X107187000Y-102080075D01*
X107187000Y-101919925D01*
X107218242Y-101762858D01*
X107279529Y-101614899D01*
X107368499Y-101481745D01*
X107481745Y-101368499D01*
X107614899Y-101279529D01*
X107762858Y-101218242D01*
X107919925Y-101187000D01*
X108080075Y-101187000D01*
X108237142Y-101218242D01*
G37*
G36*
X63738254Y-94777818D02*
G01*
X64111511Y-94932426D01*
X64111513Y-94932427D01*
X64447436Y-95156884D01*
X64733116Y-95442564D01*
X64957574Y-95778489D01*
X65112182Y-96151746D01*
X65191000Y-96547993D01*
X65191000Y-96952007D01*
X65112182Y-97348254D01*
X64957574Y-97721511D01*
X64957573Y-97721513D01*
X64733116Y-98057436D01*
X64447436Y-98343116D01*
X64111513Y-98567573D01*
X64111512Y-98567574D01*
X64111511Y-98567574D01*
X63738254Y-98722182D01*
X63342007Y-98801000D01*
X62937993Y-98801000D01*
X62541746Y-98722182D01*
X62168489Y-98567574D01*
X62168488Y-98567574D01*
X62168487Y-98567573D01*
X61832564Y-98343116D01*
X61546884Y-98057436D01*
X61322427Y-97721513D01*
X61322426Y-97721511D01*
X61167818Y-97348254D01*
X61089000Y-96952007D01*
X61089000Y-96547993D01*
X61167818Y-96151746D01*
X61322426Y-95778489D01*
X61546884Y-95442564D01*
X61832564Y-95156884D01*
X62168487Y-94932427D01*
X62168489Y-94932426D01*
X62541746Y-94777818D01*
X62937993Y-94699000D01*
X63342007Y-94699000D01*
X63738254Y-94777818D01*
G37*
G36*
X68851000Y-92851000D02*
G01*
X67149000Y-92851000D01*
X67149000Y-91149000D01*
X68851000Y-91149000D01*
X68851000Y-92851000D01*
G37*
G36*
X66248228Y-91181703D02*
G01*
X66403100Y-91245853D01*
X66542481Y-91338985D01*
X66661015Y-91457519D01*
X66754147Y-91596900D01*
X66818297Y-91751772D01*
X66851000Y-91916184D01*
X66851000Y-92083816D01*
X66818297Y-92248228D01*
X66754147Y-92403100D01*
X66661015Y-92542481D01*
X66542481Y-92661015D01*
X66403100Y-92754147D01*
X66248228Y-92818297D01*
X66083816Y-92851000D01*
X65916184Y-92851000D01*
X65751772Y-92818297D01*
X65596900Y-92754147D01*
X65457519Y-92661015D01*
X65338985Y-92542481D01*
X65245853Y-92403100D01*
X65181703Y-92248228D01*
X65149000Y-92083816D01*
X65149000Y-91916184D01*
X65181703Y-91751772D01*
X65245853Y-91596900D01*
X65338985Y-91457519D01*
X65457519Y-91338985D01*
X65596900Y-91245853D01*
X65751772Y-91181703D01*
X65916184Y-91149000D01*
X66083816Y-91149000D01*
X66248228Y-91181703D01*
G37*
G36*
X68248228Y-88681703D02*
G01*
X68403100Y-88745853D01*
X68542481Y-88838985D01*
X68661015Y-88957519D01*
X68754147Y-89096900D01*
X68818297Y-89251772D01*
X68851000Y-89416184D01*
X68851000Y-89583816D01*
X68818297Y-89748228D01*
X68754147Y-89903100D01*
X68661015Y-90042481D01*
X68542481Y-90161015D01*
X68403100Y-90254147D01*
X68248228Y-90318297D01*
X68083816Y-90351000D01*
X67916184Y-90351000D01*
X67751772Y-90318297D01*
X67596900Y-90254147D01*
X67457519Y-90161015D01*
X67338985Y-90042481D01*
X67245853Y-89903100D01*
X67181703Y-89748228D01*
X67149000Y-89583816D01*
X67149000Y-89416184D01*
X67181703Y-89251772D01*
X67245853Y-89096900D01*
X67338985Y-88957519D01*
X67457519Y-88838985D01*
X67596900Y-88745853D01*
X67751772Y-88681703D01*
X67916184Y-88649000D01*
X68083816Y-88649000D01*
X68248228Y-88681703D01*
G37*
G36*
X66248228Y-88681703D02*
G01*
X66403100Y-88745853D01*
X66542481Y-88838985D01*
X66661015Y-88957519D01*
X66754147Y-89096900D01*
X66818297Y-89251772D01*
X66851000Y-89416184D01*
X66851000Y-89583816D01*
X66818297Y-89748228D01*
X66754147Y-89903100D01*
X66661015Y-90042481D01*
X66542481Y-90161015D01*
X66403100Y-90254147D01*
X66248228Y-90318297D01*
X66083816Y-90351000D01*
X65916184Y-90351000D01*
X65751772Y-90318297D01*
X65596900Y-90254147D01*
X65457519Y-90161015D01*
X65338985Y-90042481D01*
X65245853Y-89903100D01*
X65181703Y-89748228D01*
X65149000Y-89583816D01*
X65149000Y-89416184D01*
X65181703Y-89251772D01*
X65245853Y-89096900D01*
X65338985Y-88957519D01*
X65457519Y-88838985D01*
X65596900Y-88745853D01*
X65751772Y-88681703D01*
X65916184Y-88649000D01*
X66083816Y-88649000D01*
X66248228Y-88681703D01*
G37*
G36*
X63738254Y-82777818D02*
G01*
X64111511Y-82932426D01*
X64111513Y-82932427D01*
X64447436Y-83156884D01*
X64733116Y-83442564D01*
X64957574Y-83778489D01*
X65112182Y-84151746D01*
X65191000Y-84547993D01*
X65191000Y-84952007D01*
X65112182Y-85348254D01*
X64957574Y-85721511D01*
X64957573Y-85721513D01*
X64733116Y-86057436D01*
X64447436Y-86343116D01*
X64111513Y-86567573D01*
X64111512Y-86567574D01*
X64111511Y-86567574D01*
X63738254Y-86722182D01*
X63342007Y-86801000D01*
X62937993Y-86801000D01*
X62541746Y-86722182D01*
X62168489Y-86567574D01*
X62168488Y-86567574D01*
X62168487Y-86567573D01*
X61832564Y-86343116D01*
X61546884Y-86057436D01*
X61322427Y-85721513D01*
X61322426Y-85721511D01*
X61167818Y-85348254D01*
X61089000Y-84952007D01*
X61089000Y-84547993D01*
X61167818Y-84151746D01*
X61322426Y-83778489D01*
X61546884Y-83442564D01*
X61832564Y-83156884D01*
X62168487Y-82932427D01*
X62168489Y-82932426D01*
X62541746Y-82777818D01*
X62937993Y-82699000D01*
X63342007Y-82699000D01*
X63738254Y-82777818D01*
G37*
G36*
X120237142Y-79218242D02*
G01*
X120385101Y-79279529D01*
X120518255Y-79368499D01*
X120631501Y-79481745D01*
X120720471Y-79614899D01*
X120781758Y-79762858D01*
X120813000Y-79919925D01*
X120813000Y-80080075D01*
X120781758Y-80237142D01*
X120720471Y-80385101D01*
X120631501Y-80518255D01*
X120518255Y-80631501D01*
X120385101Y-80720471D01*
X120237142Y-80781758D01*
X120080075Y-80813000D01*
X119919925Y-80813000D01*
X119762858Y-80781758D01*
X119614899Y-80720471D01*
X119481745Y-80631501D01*
X119368499Y-80518255D01*
X119279529Y-80385101D01*
X119218242Y-80237142D01*
X119187000Y-80080075D01*
X119187000Y-79919925D01*
X119218242Y-79762858D01*
X119279529Y-79614899D01*
X119368499Y-79481745D01*
X119481745Y-79368499D01*
X119614899Y-79279529D01*
X119762858Y-79218242D01*
X119919925Y-79187000D01*
X120080075Y-79187000D01*
X120237142Y-79218242D01*
G37*
G36*
X106237142Y-79218242D02*
G01*
X106385101Y-79279529D01*
X106518255Y-79368499D01*
X106631501Y-79481745D01*
X106720471Y-79614899D01*
X106781758Y-79762858D01*
X106813000Y-79919925D01*
X106813000Y-80080075D01*
X106781758Y-80237142D01*
X106720471Y-80385101D01*
X106631501Y-80518255D01*
X106518255Y-80631501D01*
X106385101Y-80720471D01*
X106237142Y-80781758D01*
X106080075Y-80813000D01*
X105919925Y-80813000D01*
X105762858Y-80781758D01*
X105614899Y-80720471D01*
X105481745Y-80631501D01*
X105368499Y-80518255D01*
X105279529Y-80385101D01*
X105218242Y-80237142D01*
X105187000Y-80080075D01*
X105187000Y-79919925D01*
X105218242Y-79762858D01*
X105279529Y-79614899D01*
X105368499Y-79481745D01*
X105481745Y-79368499D01*
X105614899Y-79279529D01*
X105762858Y-79218242D01*
X105919925Y-79187000D01*
X106080075Y-79187000D01*
X106237142Y-79218242D01*
G37*
G36*
X108237142Y-79218242D02*
G01*
X108385101Y-79279529D01*
X108518255Y-79368499D01*
X108631501Y-79481745D01*
X108720471Y-79614899D01*
X108781758Y-79762858D01*
X108813000Y-79919925D01*
X108813000Y-80080075D01*
X108781758Y-80237142D01*
X108720471Y-80385101D01*
X108631501Y-80518255D01*
X108518255Y-80631501D01*
X108385101Y-80720471D01*
X108237142Y-80781758D01*
X108080075Y-80813000D01*
X107919925Y-80813000D01*
X107762858Y-80781758D01*
X107614899Y-80720471D01*
X107481745Y-80631501D01*
X107368499Y-80518255D01*
X107279529Y-80385101D01*
X107218242Y-80237142D01*
X107187000Y-80080075D01*
X107187000Y-79919925D01*
X107218242Y-79762858D01*
X107279529Y-79614899D01*
X107368499Y-79481745D01*
X107481745Y-79368499D01*
X107614899Y-79279529D01*
X107762858Y-79218242D01*
X107919925Y-79187000D01*
X108080075Y-79187000D01*
X108237142Y-79218242D01*
G37*
G36*
X110237142Y-79218242D02*
G01*
X110385101Y-79279529D01*
X110518255Y-79368499D01*
X110631501Y-79481745D01*
X110720471Y-79614899D01*
X110781758Y-79762858D01*
X110813000Y-79919925D01*
X110813000Y-80080075D01*
X110781758Y-80237142D01*
X110720471Y-80385101D01*
X110631501Y-80518255D01*
X110518255Y-80631501D01*
X110385101Y-80720471D01*
X110237142Y-80781758D01*
X110080075Y-80813000D01*
X109919925Y-80813000D01*
X109762858Y-80781758D01*
X109614899Y-80720471D01*
X109481745Y-80631501D01*
X109368499Y-80518255D01*
X109279529Y-80385101D01*
X109218242Y-80237142D01*
X109187000Y-80080075D01*
X109187000Y-79919925D01*
X109218242Y-79762858D01*
X109279529Y-79614899D01*
X109368499Y-79481745D01*
X109481745Y-79368499D01*
X109614899Y-79279529D01*
X109762858Y-79218242D01*
X109919925Y-79187000D01*
X110080075Y-79187000D01*
X110237142Y-79218242D01*
G37*
G36*
X112237142Y-79218242D02*
G01*
X112385101Y-79279529D01*
X112518255Y-79368499D01*
X112631501Y-79481745D01*
X112720471Y-79614899D01*
X112781758Y-79762858D01*
X112813000Y-79919925D01*
X112813000Y-80080075D01*
X112781758Y-80237142D01*
X112720471Y-80385101D01*
X112631501Y-80518255D01*
X112518255Y-80631501D01*
X112385101Y-80720471D01*
X112237142Y-80781758D01*
X112080075Y-80813000D01*
X111919925Y-80813000D01*
X111762858Y-80781758D01*
X111614899Y-80720471D01*
X111481745Y-80631501D01*
X111368499Y-80518255D01*
X111279529Y-80385101D01*
X111218242Y-80237142D01*
X111187000Y-80080075D01*
X111187000Y-79919925D01*
X111218242Y-79762858D01*
X111279529Y-79614899D01*
X111368499Y-79481745D01*
X111481745Y-79368499D01*
X111614899Y-79279529D01*
X111762858Y-79218242D01*
X111919925Y-79187000D01*
X112080075Y-79187000D01*
X112237142Y-79218242D01*
G37*
G36*
X114237142Y-79218242D02*
G01*
X114385101Y-79279529D01*
X114518255Y-79368499D01*
X114631501Y-79481745D01*
X114720471Y-79614899D01*
X114781758Y-79762858D01*
X114813000Y-79919925D01*
X114813000Y-80080075D01*
X114781758Y-80237142D01*
X114720471Y-80385101D01*
X114631501Y-80518255D01*
X114518255Y-80631501D01*
X114385101Y-80720471D01*
X114237142Y-80781758D01*
X114080075Y-80813000D01*
X113919925Y-80813000D01*
X113762858Y-80781758D01*
X113614899Y-80720471D01*
X113481745Y-80631501D01*
X113368499Y-80518255D01*
X113279529Y-80385101D01*
X113218242Y-80237142D01*
X113187000Y-80080075D01*
X113187000Y-79919925D01*
X113218242Y-79762858D01*
X113279529Y-79614899D01*
X113368499Y-79481745D01*
X113481745Y-79368499D01*
X113614899Y-79279529D01*
X113762858Y-79218242D01*
X113919925Y-79187000D01*
X114080075Y-79187000D01*
X114237142Y-79218242D01*
G37*
G36*
X116237142Y-79218242D02*
G01*
X116385101Y-79279529D01*
X116518255Y-79368499D01*
X116631501Y-79481745D01*
X116720471Y-79614899D01*
X116781758Y-79762858D01*
X116813000Y-79919925D01*
X116813000Y-80080075D01*
X116781758Y-80237142D01*
X116720471Y-80385101D01*
X116631501Y-80518255D01*
X116518255Y-80631501D01*
X116385101Y-80720471D01*
X116237142Y-80781758D01*
X116080075Y-80813000D01*
X115919925Y-80813000D01*
X115762858Y-80781758D01*
X115614899Y-80720471D01*
X115481745Y-80631501D01*
X115368499Y-80518255D01*
X115279529Y-80385101D01*
X115218242Y-80237142D01*
X115187000Y-80080075D01*
X115187000Y-79919925D01*
X115218242Y-79762858D01*
X115279529Y-79614899D01*
X115368499Y-79481745D01*
X115481745Y-79368499D01*
X115614899Y-79279529D01*
X115762858Y-79218242D01*
X115919925Y-79187000D01*
X116080075Y-79187000D01*
X116237142Y-79218242D01*
G37*
G36*
X124813000Y-80813000D02*
G01*
X123187000Y-80813000D01*
X123187000Y-79187000D01*
X124813000Y-79187000D01*
X124813000Y-80813000D01*
G37*
G36*
X122237142Y-79218242D02*
G01*
X122385101Y-79279529D01*
X122518255Y-79368499D01*
X122631501Y-79481745D01*
X122720471Y-79614899D01*
X122781758Y-79762858D01*
X122813000Y-79919925D01*
X122813000Y-80080075D01*
X122781758Y-80237142D01*
X122720471Y-80385101D01*
X122631501Y-80518255D01*
X122518255Y-80631501D01*
X122385101Y-80720471D01*
X122237142Y-80781758D01*
X122080075Y-80813000D01*
X121919925Y-80813000D01*
X121762858Y-80781758D01*
X121614899Y-80720471D01*
X121481745Y-80631501D01*
X121368499Y-80518255D01*
X121279529Y-80385101D01*
X121218242Y-80237142D01*
X121187000Y-80080075D01*
X121187000Y-79919925D01*
X121218242Y-79762858D01*
X121279529Y-79614899D01*
X121368499Y-79481745D01*
X121481745Y-79368499D01*
X121614899Y-79279529D01*
X121762858Y-79218242D01*
X121919925Y-79187000D01*
X122080075Y-79187000D01*
X122237142Y-79218242D01*
G37*
G36*
X118237142Y-79218242D02*
G01*
X118385101Y-79279529D01*
X118518255Y-79368499D01*
X118631501Y-79481745D01*
X118720471Y-79614899D01*
X118781758Y-79762858D01*
X118813000Y-79919925D01*
X118813000Y-80080075D01*
X118781758Y-80237142D01*
X118720471Y-80385101D01*
X118631501Y-80518255D01*
X118518255Y-80631501D01*
X118385101Y-80720471D01*
X118237142Y-80781758D01*
X118080075Y-80813000D01*
X117919925Y-80813000D01*
X117762858Y-80781758D01*
X117614899Y-80720471D01*
X117481745Y-80631501D01*
X117368499Y-80518255D01*
X117279529Y-80385101D01*
X117218242Y-80237142D01*
X117187000Y-80080075D01*
X117187000Y-79919925D01*
X117218242Y-79762858D01*
X117279529Y-79614899D01*
X117368499Y-79481745D01*
X117481745Y-79368499D01*
X117614899Y-79279529D01*
X117762858Y-79218242D01*
X117919925Y-79187000D01*
X118080075Y-79187000D01*
X118237142Y-79218242D01*
G37*
M02*
