G04 #@! TF.GenerationSoftware,KiCad,Pcbnew,5.1.5+dfsg1-2build2*
G04 #@! TF.CreationDate,2020-09-30T09:27:11+02:00*
G04 #@! TF.ProjectId,Adaptateur,41646170-7461-4746-9575-722e6b696361,rev?*
G04 #@! TF.SameCoordinates,Original*
G04 #@! TF.FileFunction,Legend,Top*
G04 #@! TF.FilePolarity,Positive*
%FSLAX46Y46*%
G04 Gerber Fmt 4.6, Leading zero omitted, Abs format (unit mm)*
G04 Created by KiCad (PCBNEW 5.1.5+dfsg1-2build2) date 2020-09-30 09:27:11*
%MOMM*%
%LPD*%
G04 APERTURE LIST*
%ADD10C,0.150000*%
%ADD11C,0.120000*%
%ADD12C,0.200000*%
G04 APERTURE END LIST*
D10*
X99022976Y-75352619D02*
X99070595Y-75305000D01*
X99165833Y-75257380D01*
X99403928Y-75257380D01*
X99499166Y-75305000D01*
X99546785Y-75352619D01*
X99594404Y-75447857D01*
X99594404Y-75543095D01*
X99546785Y-75685952D01*
X98975357Y-76257380D01*
X99594404Y-76257380D01*
X100022976Y-76162142D02*
X100070595Y-76209761D01*
X100022976Y-76257380D01*
X99975357Y-76209761D01*
X100022976Y-76162142D01*
X100022976Y-76257380D01*
X100689642Y-75257380D02*
X100784880Y-75257380D01*
X100880119Y-75305000D01*
X100927738Y-75352619D01*
X100975357Y-75447857D01*
X101022976Y-75638333D01*
X101022976Y-75876428D01*
X100975357Y-76066904D01*
X100927738Y-76162142D01*
X100880119Y-76209761D01*
X100784880Y-76257380D01*
X100689642Y-76257380D01*
X100594404Y-76209761D01*
X100546785Y-76162142D01*
X100499166Y-76066904D01*
X100451547Y-75876428D01*
X100451547Y-75638333D01*
X100499166Y-75447857D01*
X100546785Y-75352619D01*
X100594404Y-75305000D01*
X100689642Y-75257380D01*
X102213452Y-75876428D02*
X102975357Y-75876428D01*
X104737261Y-76257380D02*
X104165833Y-76257380D01*
X104451547Y-76257380D02*
X104451547Y-75257380D01*
X104356309Y-75400238D01*
X104261071Y-75495476D01*
X104165833Y-75543095D01*
X105356309Y-75257380D02*
X105451547Y-75257380D01*
X105546785Y-75305000D01*
X105594404Y-75352619D01*
X105642023Y-75447857D01*
X105689642Y-75638333D01*
X105689642Y-75876428D01*
X105642023Y-76066904D01*
X105594404Y-76162142D01*
X105546785Y-76209761D01*
X105451547Y-76257380D01*
X105356309Y-76257380D01*
X105261071Y-76209761D01*
X105213452Y-76162142D01*
X105165833Y-76066904D01*
X105118214Y-75876428D01*
X105118214Y-75638333D01*
X105165833Y-75447857D01*
X105213452Y-75352619D01*
X105261071Y-75305000D01*
X105356309Y-75257380D01*
X106832500Y-75209761D02*
X105975357Y-76495476D01*
X107118214Y-75352619D02*
X107165833Y-75305000D01*
X107261071Y-75257380D01*
X107499166Y-75257380D01*
X107594404Y-75305000D01*
X107642023Y-75352619D01*
X107689642Y-75447857D01*
X107689642Y-75543095D01*
X107642023Y-75685952D01*
X107070595Y-76257380D01*
X107689642Y-76257380D01*
X108308690Y-75257380D02*
X108403928Y-75257380D01*
X108499166Y-75305000D01*
X108546785Y-75352619D01*
X108594404Y-75447857D01*
X108642023Y-75638333D01*
X108642023Y-75876428D01*
X108594404Y-76066904D01*
X108546785Y-76162142D01*
X108499166Y-76209761D01*
X108403928Y-76257380D01*
X108308690Y-76257380D01*
X108213452Y-76209761D01*
X108165833Y-76162142D01*
X108118214Y-76066904D01*
X108070595Y-75876428D01*
X108070595Y-75638333D01*
X108118214Y-75447857D01*
X108165833Y-75352619D01*
X108213452Y-75305000D01*
X108308690Y-75257380D01*
X99070595Y-74352380D02*
X99070595Y-73352380D01*
X99546785Y-74352380D02*
X99546785Y-73352380D01*
X100118214Y-74352380D01*
X100118214Y-73352380D01*
X100546785Y-74304761D02*
X100689642Y-74352380D01*
X100927738Y-74352380D01*
X101022976Y-74304761D01*
X101070595Y-74257142D01*
X101118214Y-74161904D01*
X101118214Y-74066666D01*
X101070595Y-73971428D01*
X101022976Y-73923809D01*
X100927738Y-73876190D01*
X100737261Y-73828571D01*
X100642023Y-73780952D01*
X100594404Y-73733333D01*
X100546785Y-73638095D01*
X100546785Y-73542857D01*
X100594404Y-73447619D01*
X100642023Y-73400000D01*
X100737261Y-73352380D01*
X100975357Y-73352380D01*
X101118214Y-73400000D01*
X101499166Y-74066666D02*
X101975357Y-74066666D01*
X101403928Y-74352380D02*
X101737261Y-73352380D01*
X102070595Y-74352380D01*
X103165833Y-73971428D02*
X103927738Y-73971428D01*
X105689642Y-73400000D02*
X105594404Y-73352380D01*
X105451547Y-73352380D01*
X105308690Y-73400000D01*
X105213452Y-73495238D01*
X105165833Y-73590476D01*
X105118214Y-73780952D01*
X105118214Y-73923809D01*
X105165833Y-74114285D01*
X105213452Y-74209523D01*
X105308690Y-74304761D01*
X105451547Y-74352380D01*
X105546785Y-74352380D01*
X105689642Y-74304761D01*
X105737261Y-74257142D01*
X105737261Y-73923809D01*
X105546785Y-73923809D01*
X106165833Y-73828571D02*
X106499166Y-73828571D01*
X106642023Y-74352380D02*
X106165833Y-74352380D01*
X106165833Y-73352380D01*
X106642023Y-73352380D01*
X107070595Y-74352380D02*
X107070595Y-73352380D01*
X99022976Y-72161666D02*
X99499166Y-72161666D01*
X98927738Y-72447380D02*
X99261071Y-71447380D01*
X99594404Y-72447380D01*
X100356309Y-72447380D02*
X100356309Y-71447380D01*
X100356309Y-72399761D02*
X100261071Y-72447380D01*
X100070595Y-72447380D01*
X99975357Y-72399761D01*
X99927738Y-72352142D01*
X99880119Y-72256904D01*
X99880119Y-71971190D01*
X99927738Y-71875952D01*
X99975357Y-71828333D01*
X100070595Y-71780714D01*
X100261071Y-71780714D01*
X100356309Y-71828333D01*
X101261071Y-72447380D02*
X101261071Y-71923571D01*
X101213452Y-71828333D01*
X101118214Y-71780714D01*
X100927738Y-71780714D01*
X100832500Y-71828333D01*
X101261071Y-72399761D02*
X101165833Y-72447380D01*
X100927738Y-72447380D01*
X100832500Y-72399761D01*
X100784880Y-72304523D01*
X100784880Y-72209285D01*
X100832500Y-72114047D01*
X100927738Y-72066428D01*
X101165833Y-72066428D01*
X101261071Y-72018809D01*
X101737261Y-71780714D02*
X101737261Y-72780714D01*
X101737261Y-71828333D02*
X101832500Y-71780714D01*
X102022976Y-71780714D01*
X102118214Y-71828333D01*
X102165833Y-71875952D01*
X102213452Y-71971190D01*
X102213452Y-72256904D01*
X102165833Y-72352142D01*
X102118214Y-72399761D01*
X102022976Y-72447380D01*
X101832500Y-72447380D01*
X101737261Y-72399761D01*
X102499166Y-71780714D02*
X102880119Y-71780714D01*
X102642023Y-71447380D02*
X102642023Y-72304523D01*
X102689642Y-72399761D01*
X102784880Y-72447380D01*
X102880119Y-72447380D01*
X103642023Y-72447380D02*
X103642023Y-71923571D01*
X103594404Y-71828333D01*
X103499166Y-71780714D01*
X103308690Y-71780714D01*
X103213452Y-71828333D01*
X103642023Y-72399761D02*
X103546785Y-72447380D01*
X103308690Y-72447380D01*
X103213452Y-72399761D01*
X103165833Y-72304523D01*
X103165833Y-72209285D01*
X103213452Y-72114047D01*
X103308690Y-72066428D01*
X103546785Y-72066428D01*
X103642023Y-72018809D01*
X103975357Y-71780714D02*
X104356309Y-71780714D01*
X104118214Y-71447380D02*
X104118214Y-72304523D01*
X104165833Y-72399761D01*
X104261071Y-72447380D01*
X104356309Y-72447380D01*
X105070595Y-72399761D02*
X104975357Y-72447380D01*
X104784880Y-72447380D01*
X104689642Y-72399761D01*
X104642023Y-72304523D01*
X104642023Y-71923571D01*
X104689642Y-71828333D01*
X104784880Y-71780714D01*
X104975357Y-71780714D01*
X105070595Y-71828333D01*
X105118214Y-71923571D01*
X105118214Y-72018809D01*
X104642023Y-72114047D01*
X105975357Y-71780714D02*
X105975357Y-72447380D01*
X105546785Y-71780714D02*
X105546785Y-72304523D01*
X105594404Y-72399761D01*
X105689642Y-72447380D01*
X105832500Y-72447380D01*
X105927738Y-72399761D01*
X105975357Y-72352142D01*
X106451547Y-72447380D02*
X106451547Y-71780714D01*
X106451547Y-71971190D02*
X106499166Y-71875952D01*
X106546785Y-71828333D01*
X106642023Y-71780714D01*
X106737261Y-71780714D01*
X107832500Y-71447380D02*
X107832500Y-72256904D01*
X107880119Y-72352142D01*
X107927738Y-72399761D01*
X108022976Y-72447380D01*
X108213452Y-72447380D01*
X108308690Y-72399761D01*
X108356309Y-72352142D01*
X108403928Y-72256904D01*
X108403928Y-71447380D01*
X108832500Y-72399761D02*
X108975357Y-72447380D01*
X109213452Y-72447380D01*
X109308690Y-72399761D01*
X109356309Y-72352142D01*
X109403928Y-72256904D01*
X109403928Y-72161666D01*
X109356309Y-72066428D01*
X109308690Y-72018809D01*
X109213452Y-71971190D01*
X109022976Y-71923571D01*
X108927738Y-71875952D01*
X108880119Y-71828333D01*
X108832500Y-71733095D01*
X108832500Y-71637857D01*
X108880119Y-71542619D01*
X108927738Y-71495000D01*
X109022976Y-71447380D01*
X109261071Y-71447380D01*
X109403928Y-71495000D01*
X110165833Y-71923571D02*
X110308690Y-71971190D01*
X110356309Y-72018809D01*
X110403928Y-72114047D01*
X110403928Y-72256904D01*
X110356309Y-72352142D01*
X110308690Y-72399761D01*
X110213452Y-72447380D01*
X109832500Y-72447380D01*
X109832500Y-71447380D01*
X110165833Y-71447380D01*
X110261071Y-71495000D01*
X110308690Y-71542619D01*
X110356309Y-71637857D01*
X110356309Y-71733095D01*
X110308690Y-71828333D01*
X110261071Y-71875952D01*
X110165833Y-71923571D01*
X109832500Y-71923571D01*
X112308690Y-71399761D02*
X111451547Y-72685476D01*
X113308690Y-71447380D02*
X113975357Y-72447380D01*
X113975357Y-71447380D02*
X113308690Y-72447380D01*
X114689642Y-71923571D02*
X114832500Y-71971190D01*
X114880119Y-72018809D01*
X114927738Y-72114047D01*
X114927738Y-72256904D01*
X114880119Y-72352142D01*
X114832500Y-72399761D01*
X114737261Y-72447380D01*
X114356309Y-72447380D01*
X114356309Y-71447380D01*
X114689642Y-71447380D01*
X114784880Y-71495000D01*
X114832500Y-71542619D01*
X114880119Y-71637857D01*
X114880119Y-71733095D01*
X114832500Y-71828333D01*
X114784880Y-71875952D01*
X114689642Y-71923571D01*
X114356309Y-71923571D01*
X115356309Y-71923571D02*
X115689642Y-71923571D01*
X115832500Y-72447380D02*
X115356309Y-72447380D01*
X115356309Y-71447380D01*
X115832500Y-71447380D01*
X116261071Y-71923571D02*
X116594404Y-71923571D01*
X116737261Y-72447380D02*
X116261071Y-72447380D01*
X116261071Y-71447380D01*
X116737261Y-71447380D01*
D11*
X122832064Y-72990000D02*
X121627936Y-72990000D01*
X122832064Y-74810000D02*
X121627936Y-74810000D01*
X99010000Y-88472064D02*
X99010000Y-87267936D01*
X97190000Y-88472064D02*
X97190000Y-87267936D01*
X77685000Y-84300000D02*
X82070000Y-84300000D01*
X77685000Y-81280000D02*
X77685000Y-84300000D01*
X82070000Y-81280000D02*
X77685000Y-81280000D01*
X75907936Y-79890000D02*
X77112064Y-79890000D01*
X75907936Y-78070000D02*
X77112064Y-78070000D01*
X79717936Y-87510000D02*
X80922064Y-87510000D01*
X79717936Y-85690000D02*
X80922064Y-85690000D01*
X69350000Y-84640000D02*
X69350000Y-96860000D01*
X69350000Y-84640000D02*
X65600000Y-84640000D01*
X69350000Y-96860000D02*
X65600000Y-96860000D01*
X52730000Y-84640000D02*
X52730000Y-96860000D01*
X52730000Y-96860000D02*
X60700000Y-96860000D01*
X52730000Y-84640000D02*
X60700000Y-84640000D01*
X69550000Y-92000000D02*
X70050000Y-92500000D01*
X70050000Y-92500000D02*
X70050000Y-91500000D01*
X70050000Y-91500000D02*
X69550000Y-92000000D01*
D10*
X86425000Y-105985000D02*
X87000000Y-105985000D01*
X86425000Y-100235000D02*
X87075000Y-100235000D01*
X97075000Y-100235000D02*
X96425000Y-100235000D01*
X97075000Y-105985000D02*
X96425000Y-105985000D01*
X86425000Y-105985000D02*
X86425000Y-100235000D01*
X97075000Y-105985000D02*
X97075000Y-100235000D01*
X87000000Y-105985000D02*
X87000000Y-107585000D01*
D12*
X104500000Y-78500000D02*
X104500000Y-103500000D01*
X104500000Y-103500000D02*
X125500000Y-103500000D01*
X104500000Y-78500000D02*
X125500000Y-78500000D01*
X132000000Y-86500000D02*
X132000000Y-95500000D01*
X132000000Y-95500000D02*
X125500000Y-103500000D01*
X125500000Y-78500000D02*
X132000000Y-86500000D01*
D11*
X87480000Y-90850000D02*
X94415000Y-90850000D01*
X94415000Y-90850000D02*
X94415000Y-87430000D01*
X94415000Y-87430000D02*
X87480000Y-87430000D01*
X73835000Y-105980000D02*
X73835000Y-101920000D01*
X73835000Y-101920000D02*
X71565000Y-101920000D01*
X71565000Y-101920000D02*
X71565000Y-105980000D01*
X77915000Y-101920000D02*
X77915000Y-105980000D01*
X80185000Y-101920000D02*
X77915000Y-101920000D01*
X80185000Y-105980000D02*
X80185000Y-101920000D01*
X76600000Y-84727936D02*
X76600000Y-85932064D01*
X73880000Y-84727936D02*
X73880000Y-85932064D01*
X76150000Y-104982064D02*
X76150000Y-103777936D01*
X74330000Y-104982064D02*
X74330000Y-103777936D01*
X80680000Y-104982064D02*
X80680000Y-103777936D01*
X82500000Y-104982064D02*
X82500000Y-103777936D01*
X88300000Y-79950000D02*
X88300000Y-81450000D01*
X88300000Y-81450000D02*
X88570000Y-81450000D01*
X88570000Y-81450000D02*
X88570000Y-84280000D01*
X95200000Y-79950000D02*
X95200000Y-81450000D01*
X95200000Y-81450000D02*
X94930000Y-81450000D01*
X94930000Y-81450000D02*
X94930000Y-82550000D01*
X70054000Y-103741436D02*
X70054000Y-104945564D01*
X68234000Y-103741436D02*
X68234000Y-104945564D01*
D10*
X126143142Y-74066666D02*
X126190761Y-74114285D01*
X126238380Y-74257142D01*
X126238380Y-74352380D01*
X126190761Y-74495238D01*
X126095523Y-74590476D01*
X126000285Y-74638095D01*
X125809809Y-74685714D01*
X125666952Y-74685714D01*
X125476476Y-74638095D01*
X125381238Y-74590476D01*
X125286000Y-74495238D01*
X125238380Y-74352380D01*
X125238380Y-74257142D01*
X125286000Y-74114285D01*
X125333619Y-74066666D01*
X125238380Y-73209523D02*
X125238380Y-73400000D01*
X125286000Y-73495238D01*
X125333619Y-73542857D01*
X125476476Y-73638095D01*
X125666952Y-73685714D01*
X126047904Y-73685714D01*
X126143142Y-73638095D01*
X126190761Y-73590476D01*
X126238380Y-73495238D01*
X126238380Y-73304761D01*
X126190761Y-73209523D01*
X126143142Y-73161904D01*
X126047904Y-73114285D01*
X125809809Y-73114285D01*
X125714571Y-73161904D01*
X125666952Y-73209523D01*
X125619333Y-73304761D01*
X125619333Y-73495238D01*
X125666952Y-73590476D01*
X125714571Y-73638095D01*
X125809809Y-73685714D01*
X98457142Y-83972666D02*
X98504761Y-84020285D01*
X98552380Y-84163142D01*
X98552380Y-84258380D01*
X98504761Y-84401238D01*
X98409523Y-84496476D01*
X98314285Y-84544095D01*
X98123809Y-84591714D01*
X97980952Y-84591714D01*
X97790476Y-84544095D01*
X97695238Y-84496476D01*
X97600000Y-84401238D01*
X97552380Y-84258380D01*
X97552380Y-84163142D01*
X97600000Y-84020285D01*
X97647619Y-83972666D01*
X97885714Y-83115523D02*
X98552380Y-83115523D01*
X97504761Y-83353619D02*
X98219047Y-83591714D01*
X98219047Y-82972666D01*
X84487142Y-82956666D02*
X84534761Y-83004285D01*
X84582380Y-83147142D01*
X84582380Y-83242380D01*
X84534761Y-83385238D01*
X84439523Y-83480476D01*
X84344285Y-83528095D01*
X84153809Y-83575714D01*
X84010952Y-83575714D01*
X83820476Y-83528095D01*
X83725238Y-83480476D01*
X83630000Y-83385238D01*
X83582380Y-83242380D01*
X83582380Y-83147142D01*
X83630000Y-83004285D01*
X83677619Y-82956666D01*
X83582380Y-82623333D02*
X83582380Y-82004285D01*
X83963333Y-82337619D01*
X83963333Y-82194761D01*
X84010952Y-82099523D01*
X84058571Y-82051904D01*
X84153809Y-82004285D01*
X84391904Y-82004285D01*
X84487142Y-82051904D01*
X84534761Y-82099523D01*
X84582380Y-82194761D01*
X84582380Y-82480476D01*
X84534761Y-82575714D01*
X84487142Y-82623333D01*
X80459642Y-79146666D02*
X80507261Y-79194285D01*
X80554880Y-79337142D01*
X80554880Y-79432380D01*
X80507261Y-79575238D01*
X80412023Y-79670476D01*
X80316785Y-79718095D01*
X80126309Y-79765714D01*
X79983452Y-79765714D01*
X79792976Y-79718095D01*
X79697738Y-79670476D01*
X79602500Y-79575238D01*
X79554880Y-79432380D01*
X79554880Y-79337142D01*
X79602500Y-79194285D01*
X79650119Y-79146666D01*
X79650119Y-78765714D02*
X79602500Y-78718095D01*
X79554880Y-78622857D01*
X79554880Y-78384761D01*
X79602500Y-78289523D01*
X79650119Y-78241904D01*
X79745357Y-78194285D01*
X79840595Y-78194285D01*
X79983452Y-78241904D01*
X80554880Y-78813333D01*
X80554880Y-78194285D01*
X84487142Y-86766666D02*
X84534761Y-86814285D01*
X84582380Y-86957142D01*
X84582380Y-87052380D01*
X84534761Y-87195238D01*
X84439523Y-87290476D01*
X84344285Y-87338095D01*
X84153809Y-87385714D01*
X84010952Y-87385714D01*
X83820476Y-87338095D01*
X83725238Y-87290476D01*
X83630000Y-87195238D01*
X83582380Y-87052380D01*
X83582380Y-86957142D01*
X83630000Y-86814285D01*
X83677619Y-86766666D01*
X84582380Y-85814285D02*
X84582380Y-86385714D01*
X84582380Y-86100000D02*
X83582380Y-86100000D01*
X83725238Y-86195238D01*
X83820476Y-86290476D01*
X83868095Y-86385714D01*
X69866380Y-94807333D02*
X70580666Y-94807333D01*
X70723523Y-94854952D01*
X70818761Y-94950190D01*
X70866380Y-95093047D01*
X70866380Y-95188285D01*
X70866380Y-93807333D02*
X70866380Y-94378761D01*
X70866380Y-94093047D02*
X69866380Y-94093047D01*
X70009238Y-94188285D01*
X70104476Y-94283523D01*
X70152095Y-94378761D01*
X84598380Y-107427904D02*
X85407904Y-107427904D01*
X85503142Y-107380285D01*
X85550761Y-107332666D01*
X85598380Y-107237428D01*
X85598380Y-107046952D01*
X85550761Y-106951714D01*
X85503142Y-106904095D01*
X85407904Y-106856476D01*
X84598380Y-106856476D01*
X85598380Y-105856476D02*
X85598380Y-106427904D01*
X85598380Y-106142190D02*
X84598380Y-106142190D01*
X84741238Y-106237428D01*
X84836476Y-106332666D01*
X84884095Y-106427904D01*
X102632380Y-102855904D02*
X103441904Y-102855904D01*
X103537142Y-102808285D01*
X103584761Y-102760666D01*
X103632380Y-102665428D01*
X103632380Y-102474952D01*
X103584761Y-102379714D01*
X103537142Y-102332095D01*
X103441904Y-102284476D01*
X102632380Y-102284476D01*
X102727619Y-101855904D02*
X102680000Y-101808285D01*
X102632380Y-101713047D01*
X102632380Y-101474952D01*
X102680000Y-101379714D01*
X102727619Y-101332095D01*
X102822857Y-101284476D01*
X102918095Y-101284476D01*
X103060952Y-101332095D01*
X103632380Y-101903523D01*
X103632380Y-101284476D01*
X85757142Y-89306666D02*
X85804761Y-89354285D01*
X85852380Y-89497142D01*
X85852380Y-89592380D01*
X85804761Y-89735238D01*
X85709523Y-89830476D01*
X85614285Y-89878095D01*
X85423809Y-89925714D01*
X85280952Y-89925714D01*
X85090476Y-89878095D01*
X84995238Y-89830476D01*
X84900000Y-89735238D01*
X84852380Y-89592380D01*
X84852380Y-89497142D01*
X84900000Y-89354285D01*
X84947619Y-89306666D01*
X84852380Y-88401904D02*
X84852380Y-88878095D01*
X85328571Y-88925714D01*
X85280952Y-88878095D01*
X85233333Y-88782857D01*
X85233333Y-88544761D01*
X85280952Y-88449523D01*
X85328571Y-88401904D01*
X85423809Y-88354285D01*
X85661904Y-88354285D01*
X85757142Y-88401904D01*
X85804761Y-88449523D01*
X85852380Y-88544761D01*
X85852380Y-88782857D01*
X85804761Y-88878095D01*
X85757142Y-88925714D01*
X73152380Y-101308095D02*
X72152380Y-101308095D01*
X72152380Y-101070000D01*
X72200000Y-100927142D01*
X72295238Y-100831904D01*
X72390476Y-100784285D01*
X72580952Y-100736666D01*
X72723809Y-100736666D01*
X72914285Y-100784285D01*
X73009523Y-100831904D01*
X73104761Y-100927142D01*
X73152380Y-101070000D01*
X73152380Y-101308095D01*
X73152380Y-99784285D02*
X73152380Y-100355714D01*
X73152380Y-100070000D02*
X72152380Y-100070000D01*
X72295238Y-100165238D01*
X72390476Y-100260476D01*
X72438095Y-100355714D01*
X79502380Y-101308095D02*
X78502380Y-101308095D01*
X78502380Y-101070000D01*
X78550000Y-100927142D01*
X78645238Y-100831904D01*
X78740476Y-100784285D01*
X78930952Y-100736666D01*
X79073809Y-100736666D01*
X79264285Y-100784285D01*
X79359523Y-100831904D01*
X79454761Y-100927142D01*
X79502380Y-101070000D01*
X79502380Y-101308095D01*
X78597619Y-100355714D02*
X78550000Y-100308095D01*
X78502380Y-100212857D01*
X78502380Y-99974761D01*
X78550000Y-99879523D01*
X78597619Y-99831904D01*
X78692857Y-99784285D01*
X78788095Y-99784285D01*
X78930952Y-99831904D01*
X79502380Y-100403333D01*
X79502380Y-99784285D01*
X75168571Y-90227333D02*
X75168571Y-90560666D01*
X75692380Y-90560666D02*
X74692380Y-90560666D01*
X74692380Y-90084476D01*
X75168571Y-89370190D02*
X75216190Y-89227333D01*
X75263809Y-89179714D01*
X75359047Y-89132095D01*
X75501904Y-89132095D01*
X75597142Y-89179714D01*
X75644761Y-89227333D01*
X75692380Y-89322571D01*
X75692380Y-89703523D01*
X74692380Y-89703523D01*
X74692380Y-89370190D01*
X74740000Y-89274952D01*
X74787619Y-89227333D01*
X74882857Y-89179714D01*
X74978095Y-89179714D01*
X75073333Y-89227333D01*
X75120952Y-89274952D01*
X75168571Y-89370190D01*
X75168571Y-89703523D01*
X75692380Y-88179714D02*
X75692380Y-88751142D01*
X75692380Y-88465428D02*
X74692380Y-88465428D01*
X74835238Y-88560666D01*
X74930476Y-88655904D01*
X74978095Y-88751142D01*
X75692380Y-100736666D02*
X75216190Y-101070000D01*
X75692380Y-101308095D02*
X74692380Y-101308095D01*
X74692380Y-100927142D01*
X74740000Y-100831904D01*
X74787619Y-100784285D01*
X74882857Y-100736666D01*
X75025714Y-100736666D01*
X75120952Y-100784285D01*
X75168571Y-100831904D01*
X75216190Y-100927142D01*
X75216190Y-101308095D01*
X75692380Y-99784285D02*
X75692380Y-100355714D01*
X75692380Y-100070000D02*
X74692380Y-100070000D01*
X74835238Y-100165238D01*
X74930476Y-100260476D01*
X74978095Y-100355714D01*
X82042380Y-100736666D02*
X81566190Y-101070000D01*
X82042380Y-101308095D02*
X81042380Y-101308095D01*
X81042380Y-100927142D01*
X81090000Y-100831904D01*
X81137619Y-100784285D01*
X81232857Y-100736666D01*
X81375714Y-100736666D01*
X81470952Y-100784285D01*
X81518571Y-100831904D01*
X81566190Y-100927142D01*
X81566190Y-101308095D01*
X81137619Y-100355714D02*
X81090000Y-100308095D01*
X81042380Y-100212857D01*
X81042380Y-99974761D01*
X81090000Y-99879523D01*
X81137619Y-99831904D01*
X81232857Y-99784285D01*
X81328095Y-99784285D01*
X81470952Y-99831904D01*
X82042380Y-100403333D01*
X82042380Y-99784285D01*
X86630380Y-83805904D02*
X87439904Y-83805904D01*
X87535142Y-83758285D01*
X87582761Y-83710666D01*
X87630380Y-83615428D01*
X87630380Y-83424952D01*
X87582761Y-83329714D01*
X87535142Y-83282095D01*
X87439904Y-83234476D01*
X86630380Y-83234476D01*
X86630380Y-82853523D02*
X86630380Y-82234476D01*
X87011333Y-82567809D01*
X87011333Y-82424952D01*
X87058952Y-82329714D01*
X87106571Y-82282095D01*
X87201809Y-82234476D01*
X87439904Y-82234476D01*
X87535142Y-82282095D01*
X87582761Y-82329714D01*
X87630380Y-82424952D01*
X87630380Y-82710666D01*
X87582761Y-82805904D01*
X87535142Y-82853523D01*
X69755142Y-100736666D02*
X69802761Y-100784285D01*
X69850380Y-100927142D01*
X69850380Y-101022380D01*
X69802761Y-101165238D01*
X69707523Y-101260476D01*
X69612285Y-101308095D01*
X69421809Y-101355714D01*
X69278952Y-101355714D01*
X69088476Y-101308095D01*
X68993238Y-101260476D01*
X68898000Y-101165238D01*
X68850380Y-101022380D01*
X68850380Y-100927142D01*
X68898000Y-100784285D01*
X68945619Y-100736666D01*
X68850380Y-100403333D02*
X68850380Y-99736666D01*
X69850380Y-100165238D01*
M02*
