<?xml version="1.0"?>
<!DOCTYPE svg PUBLIC "-//W3C//DTD SVG 1.1//EN" "http://www.w3.org/Graphics/SVG/1.1/DTD/svg11.dtd">
<svg width="510.0mm" height="360.0mm" viewBox="0 0 510.0 360.0" xmlns="http://www.w3.org/2000/svg" version="1.1">
<g id="Body" transform="translate(255.000000,180.000000) scale(1,-1)">
<path id="Body_f0000"  d="M -250.0 175.0 L -250.0 175.0 L 250.0 175.0 L 250.0 175.0 L -250.0 175.0 Z " stroke="#191919" stroke-width="0.35 px" style="stroke-width:0.35;stroke-miterlimit:4;stroke-dasharray:none;stroke-linecap:square;fill:#cccccc;fill-opacity:1.0;fill-rule: evenodd"/>
<path id="Body_f0001"  d="M 250.0 175.0 L 250.0 175.0 L 250.0 -175.0 L 250.0 -175.0 L 250.0 175.0 Z " stroke="#191919" stroke-width="0.35 px" style="stroke-width:0.35;stroke-miterlimit:4;stroke-dasharray:none;stroke-linecap:square;fill:#cccccc;fill-opacity:1.0;fill-rule: evenodd"/>
<path id="Body_f0002"  d="M 250.0 -175.0 L 250.0 -175.0 L -250.0 -175.0 L -250.0 -175.0 L 250.0 -175.0 Z " stroke="#191919" stroke-width="0.35 px" style="stroke-width:0.35;stroke-miterlimit:4;stroke-dasharray:none;stroke-linecap:square;fill:#cccccc;fill-opacity:1.0;fill-rule: evenodd"/>
<path id="Body_f0003"  d="M -250.0 -175.0 L -250.0 -175.0 L -250.0 175.0 L -250.0 175.0 L -250.0 -175.0 Z " stroke="#191919" stroke-width="0.35 px" style="stroke-width:0.35;stroke-miterlimit:4;stroke-dasharray:none;stroke-linecap:square;fill:#cccccc;fill-opacity:1.0;fill-rule: evenodd"/>
<path id="Body_f0004"  d="M -250.0 175.0 L 250.0 175.0 L 250.0 -175.0 L -250.0 -175.0 L -250.0 175.0 Z " stroke="#191919" stroke-width="0.35 px" style="stroke-width:0.35;stroke-miterlimit:4;stroke-dasharray:none;stroke-linecap:square;fill:#cccccc;fill-opacity:1.0;fill-rule: evenodd"/>
<path id="Body_f0005"  d="M 250.0 175.0 L 250.0 -175.0 L -250.0 -175.0 L -250.0 175.0 L 250.0 175.0 Z " stroke="#191919" stroke-width="0.35 px" style="stroke-width:0.35;stroke-miterlimit:4;stroke-dasharray:none;stroke-linecap:square;fill:#cccccc;fill-opacity:1.0;fill-rule: evenodd"/>
<title>b'Corps'</title>
</g>
</svg>