M48
; DRILL file {KiCad 7.0.10-7.0.10~ubuntu23.04.1} date jeu. 23 mai 2024 10:10:42
; FORMAT={-:-/ absolute / metric / decimal}
; #@! TF.CreationDate,2024-05-23T10:10:42+02:00
; #@! TF.GenerationSoftware,Kicad,Pcbnew,7.0.10-7.0.10~ubuntu23.04.1
; #@! TF.FileFunction,Plated,1,2,PTH
FMAT,2
METRIC
; #@! TA.AperFunction,Plated,PTH,ViaDrill
T1C0.400
; #@! TA.AperFunction,Plated,PTH,ViaDrill
T2C0.500
; #@! TA.AperFunction,Plated,PTH,ComponentDrill
T3C0.750
; #@! TA.AperFunction,Plated,PTH,ComponentDrill
T4C0.800
; #@! TA.AperFunction,Plated,PTH,ComponentDrill
T5C1.300
%
G90
G05
T1
X93.2Y-76.56
X97.645Y-77.83
T2
X60.18Y-59.415
X67.5Y-62.0
X70.34Y-61.955
X77.0Y-140.0
X79.23Y-127.995
X80.5Y-111.485
X83.0Y-54.5
X83.04Y-51.795
X83.675Y-64.495
X84.31Y-96.88
X84.31Y-128.63
X84.945Y-53.0
X84.945Y-141.33
X85.58Y-127.36
X86.215Y-141.33
X86.5Y-128.63
X86.85Y-56.875
X87.485Y-96.88
X87.485Y-141.33
X88.755Y-80.37
X88.755Y-118.5
X88.755Y-121.645
X88.755Y-141.33
X89.39Y-53.0
X90.025Y-141.33
X90.42Y-112.755
X90.66Y-127.36
X91.295Y-96.88
X91.295Y-141.33
X92.565Y-111.485
X92.565Y-128.0
X92.565Y-141.33
X95.105Y-77.83
X95.105Y-96.88
X95.105Y-128.63
X97.01Y-61.955
X97.645Y-128.63
X98.28Y-56.875
X98.28Y-67.67
X98.28Y-103.865
X98.28Y-106.405
X98.28Y-132.44
X98.5Y-140.695
X100.5Y-113.0
X101.455Y-106.405
X102.725Y-96.88
X102.725Y-108.945
X102.725Y-132.44
X104.63Y-102.595
X105.9Y-59.415
X107.805Y-59.415
X108.44Y-100.055
X109.5Y-143.5
X109.71Y-59.415
X109.71Y-100.055
X109.71Y-114.025
X109.71Y-121.01
X110.345Y-111.765
X110.98Y-98.15
X110.98Y-101.325
X112.25Y-61.955
X112.25Y-115.295
X117.15Y-105.0
X118.6Y-119.105
X124.587Y-103.886
X126.111Y-105.41
X129.5Y-96.5
T3
X87.0Y-89.895
X87.0Y-91.895
X89.0Y-89.895
X89.0Y-91.895
X91.0Y-89.895
X91.0Y-91.895
X93.0Y-89.895
X93.0Y-91.895
X95.0Y-89.895
X95.0Y-91.895
X97.0Y-89.895
X97.0Y-91.895
T4
X121.775Y-62.59
X123.775Y-62.59
T5
X133.963Y-49.688
X133.963Y-57.188
X133.963Y-118.188
X133.963Y-125.688
X133.963Y-132.188
X133.963Y-139.688
X134.0Y-63.688
X134.0Y-71.188
X134.155Y-100.405
X134.155Y-109.405
X148.963Y-49.688
X148.963Y-57.188
X148.963Y-118.188
X148.963Y-125.688
X148.963Y-132.188
X148.963Y-139.688
X149.0Y-63.688
X149.0Y-71.188
X153.963Y-49.688
X153.963Y-57.188
X153.963Y-118.188
X153.963Y-125.688
X153.963Y-132.188
X153.963Y-139.688
X154.0Y-63.688
X154.0Y-71.188
X158.963Y-49.688
X158.963Y-57.188
X158.963Y-118.188
X158.963Y-125.688
X158.963Y-132.188
X158.963Y-139.688
X159.0Y-63.688
X159.0Y-71.188
X172.0Y-62.0
X172.0Y-127.0
X177.0Y-62.0
X177.0Y-127.0
X195.655Y-79.405
X195.655Y-109.405
X196.0Y-62.0
X196.0Y-127.0
X201.0Y-62.0
X201.0Y-127.0
X219.0Y-134.0
X219.025Y-54.025
X224.0Y-134.0
X224.025Y-54.025
X229.0Y-134.0
X229.025Y-54.025
M30
