M48
; DRILL file {KiCad 8.0.6-8.0.6-0~ubuntu22.04.1} date 2024-12-04T16:47:10+0100
; FORMAT={-:-/ absolute / inch / decimal}
; #@! TF.CreationDate,2024-12-04T16:47:10+01:00
; #@! TF.GenerationSoftware,Kicad,Pcbnew,8.0.6-8.0.6-0~ubuntu22.04.1
; #@! TF.FileFunction,Plated,1,2,PTH
FMAT,2
INCH
; #@! TA.AperFunction,Plated,PTH,ViaDrill
T1C0.0157
; #@! TA.AperFunction,Plated,PTH,ViaDrill
T2C0.0197
; #@! TA.AperFunction,Plated,PTH,ComponentDrill
T3C0.0315
; #@! TA.AperFunction,Plated,PTH,ComponentDrill
T4C0.0394
; #@! TA.AperFunction,Plated,PTH,ComponentDrill
T5C0.0512
; #@! TA.AperFunction,Plated,PTH,ComponentDrill
T6C0.0551
%
G90
G05
T1
X2.6375Y-5.625
X2.6625Y-2.475
X3.025Y-5.4
X3.075Y-5.2
X3.225Y-3.275
X3.2986Y-3.2361
X3.3237Y-4.8876
X3.325Y-5.0375
X3.325Y-5.2125
X3.325Y-5.4125
X3.325Y-5.6
X3.3312Y-4.3875
X3.3625Y-4.925
X3.363Y-4.8851
X3.4312Y-4.8563
X3.525Y-4.3875
X3.55Y-3.075
X3.5875Y-3.2875
X3.6Y-4.4875
X3.6361Y-3.3361
X3.65Y-3.775
X3.6625Y-4.4875
X3.75Y-3.05
X3.7519Y-3.275
X3.825Y-3.275
X3.825Y-4.3875
X3.825Y-4.5125
X4.0Y-3.275
X4.0125Y-3.025
X4.25Y-2.9375
X4.25Y-2.9875
X4.25Y-3.0375
X4.25Y-3.0875
X4.725Y-2.875
X4.725Y-2.9375
X4.725Y-2.9875
X4.725Y-3.0375
X5.0Y-5.1125
X5.0125Y-4.4291
T2
X2.45Y-2.0875
X3.225Y-3.75
X3.275Y-2.85
X3.275Y-3.3875
X3.3625Y-3.1625
X3.5Y-2.85
X3.525Y-3.725
X3.6Y-4.975
X3.6Y-5.1625
X3.6Y-5.3625
X3.6Y-5.525
X3.7Y-3.3875
X3.7125Y-3.775
X4.375Y-2.8625
X4.4Y-2.5839
X4.475Y-2.8625
X4.475Y-3.2125
X4.7222Y-3.1472
X4.825Y-3.1
X4.85Y-2.7875
X5.1125Y-3.1375
T3
X4.7338Y-2.3713
X4.7338Y-2.45
T4
X2.4515Y-5.021
X2.4515Y-5.121
X2.4515Y-5.221
X2.4515Y-5.321
X2.4515Y-5.421
X2.4515Y-5.521
X2.5515Y-5.021
X2.5515Y-5.121
X2.5515Y-5.221
X2.5515Y-5.321
X2.5515Y-5.421
X2.5515Y-5.521
X3.3125Y-1.95
X3.3125Y-2.05
X3.3125Y-2.15
X3.3125Y-2.25
X3.3125Y-2.35
X3.3125Y-2.45
X3.3125Y-2.55
X4.5625Y-4.05
X4.5625Y-4.15
X4.5625Y-4.25
X4.5625Y-4.6
X4.5625Y-4.7
X4.6625Y-4.05
X4.6625Y-4.15
X4.6625Y-4.25
T5
X5.2741Y-1.9562
X5.2741Y-2.2515
X5.2741Y-4.6531
X5.2741Y-4.9483
X5.2741Y-5.2042
X5.2741Y-5.4995
X5.2756Y-2.5074
X5.2756Y-2.8027
X5.2817Y-3.953
X5.2817Y-4.3073
X5.8647Y-1.9562
X5.8647Y-2.2515
X5.8647Y-4.6531
X5.8647Y-4.9483
X5.8647Y-5.2042
X5.8647Y-5.4995
X5.8661Y-2.5074
X5.8661Y-2.8027
X6.0615Y-1.9562
X6.0615Y-2.2515
X6.0615Y-4.6531
X6.0615Y-4.9483
X6.0615Y-5.2042
X6.0615Y-5.4995
X6.063Y-2.5074
X6.063Y-2.8027
X6.2584Y-1.9562
X6.2584Y-2.2515
X6.2584Y-4.6531
X6.2584Y-4.9483
X6.2584Y-5.2042
X6.2584Y-5.4995
X6.2598Y-2.5074
X6.2598Y-2.8027
X7.703Y-3.1262
X7.703Y-4.3073
T6
X6.7685Y-2.4409
X6.7717Y-5.0
X6.9685Y-2.4409
X6.9717Y-5.0
X7.7134Y-2.4409
X7.7165Y-5.0
X7.9134Y-2.4409
X7.9165Y-5.0
X8.2284Y-4.1
X8.2284Y-4.3
X8.6157Y-5.2756
X8.623Y-2.127
X8.8157Y-5.2756
X8.823Y-2.127
X9.0157Y-5.2756
X9.023Y-2.127
M30
