  0
SECTION
  2
HEADER
  9
$ANGBASE
  50
0.0
  9
$ANGDIR
  70
1
  9
$MEASUREMENT
  70
0
  0
ENDSEC
  0
SECTION
  2
TABLES
  0
TABLE
  2
LTYPE
  70
4
  0
LTYPE
  5
40F
  2
CONTINUOUS
  70
0
  3
Solid line
  72
65
  73
0
  40
0.0
  0
LTYPE
  5
410
  2
DASHDOT
 70
0
  3
Dash Dot ____ _ ____ _
 72
65
 73
4
 40
2.0
 49
1.25
 49
-0.25
 49
0.25
 49
-0.25
  0
LTYPE
  5
411
  2
DASHED
 70
0
  3
Dashed __ __ __ __ __
 72
65
 73
2
 40
0.75
 49
0.5
 49
-0.25
  0
LTYPE
  5
43B
  2
DOTTED
 70
0
  3
Dotted .  .  .  .
 72
65
 73
2
 40
0.2
 49
0.0
 49
-0.2
  0
ENDTAB
  0
TABLE
  2
STYLE
  70
4
  0
STYLE
  2
KICAD
  70
0
  40
0
  41
1
  42
1
  50
0
  71
0
  3
isocp.shx
  0
STYLE
  2
KICADB
  70
0
  40
0
  41
1
  42
1
  50
0
  71
0
  3
isocp.shx
  0
STYLE
  2
KICADI
  70
0
  40
0
  41
1
  42
1
  50
15
  71
0
  3
isocp.shx
  0
STYLE
  2
KICADBI
  70
0
  40
0
  41
1
  42
1
  50
15
  71
0
  3
isocp.shx
  0
ENDTAB
  0
TABLE
  2
LAYER
  70
1
  0
LAYER
  2
BLACK
  70
0
  62
7
  6
CONTINUOUS
  0
ENDTAB
  0
ENDSEC
  0
SECTION
  2
ENTITIES
0
LINE
8
BLACK
6
CONTINUOUS
10
5.61024
20
-3.30709
11
4.3189
21
-3.30709
0
LINE
8
BLACK
6
CONTINUOUS
10
3.34646
20
-3.30709
11
3.34646
21
-5.53543
0
ARC
8
BLACK
10
4.18701
20
-3.4324
40
0.13197
50
-178
51
-2.00001
0
LINE
8
BLACK
6
CONTINUOUS
10
4.3189
20
-3.30709
11
4.3189
21
-3.43701
0
LINE
8
BLACK
6
CONTINUOUS
10
4.3189
20
-5.53543
11
5.61024
21
-5.53543
0
ARC
8
BLACK
10
4.18701
20
-5.40618
40
0.13197
50
2.00001
51
178
0
LINE
8
BLACK
6
CONTINUOUS
10
4.05512
20
-5.53543
11
4.05512
21
-5.40157
0
LINE
8
BLACK
6
CONTINUOUS
10
5.61024
20
-5.53543
11
5.61024
21
-3.30709
0
LINE
8
BLACK
6
CONTINUOUS
10
4.05512
20
-3.43701
11
4.05512
21
-3.30709
0
LINE
8
BLACK
6
CONTINUOUS
10
4.3189
20
-5.40157
11
4.3189
21
-5.53543
0
LINE
8
BLACK
6
CONTINUOUS
10
4.05512
20
-3.30709
11
3.34646
21
-3.30709
0
LINE
8
BLACK
6
CONTINUOUS
10
3.34646
20
-5.53543
11
4.05512
21
-5.53543
0
LINE
8
BLACK
6
CONTINUOUS
10
3.49213
20
-4.86713
11
3.50787
21
-4.88287
0
LINE
8
BLACK
6
CONTINUOUS
10
3.50787
20
-4.86713
11
3.49213
21
-4.88287
0
LINE
8
BLACK
6
CONTINUOUS
10
3.51713
20
-4.14213
11
3.53287
21
-4.15787
0
LINE
8
BLACK
6
CONTINUOUS
10
3.53287
20
-4.14213
11
3.51713
21
-4.15787
0
LINE
8
BLACK
6
CONTINUOUS
10
3.51713
20
-4.34213
11
3.53287
21
-4.35787
0
LINE
8
BLACK
6
CONTINUOUS
10
3.53287
20
-4.34213
11
3.51713
21
-4.35787
0
LINE
8
BLACK
6
CONTINUOUS
10
3.51713
20
-4.49213
11
3.53287
21
-4.50787
0
LINE
8
BLACK
6
CONTINUOUS
10
3.53287
20
-4.49213
11
3.51713
21
-4.50787
0
LINE
8
BLACK
6
CONTINUOUS
10
3.54213
20
-4.41713
11
3.55787
21
-4.43287
0
LINE
8
BLACK
6
CONTINUOUS
10
3.55787
20
-4.41713
11
3.54213
21
-4.43287
0
LINE
8
BLACK
6
CONTINUOUS
10
3.56713
20
-3.94213
11
3.58287
21
-3.95787
0
LINE
8
BLACK
6
CONTINUOUS
10
3.58287
20
-3.94213
11
3.56713
21
-3.95787
0
LINE
8
BLACK
6
CONTINUOUS
10
3.64213
20
-4.86713
11
3.65787
21
-4.88287
0
LINE
8
BLACK
6
CONTINUOUS
10
3.65787
20
-4.86713
11
3.64213
21
-4.88287
0
LINE
8
BLACK
6
CONTINUOUS
10
3.69213
20
-3.74057
11
3.70787
21
-3.75632
0
LINE
8
BLACK
6
CONTINUOUS
10
3.70787
20
-3.74057
11
3.69213
21
-3.75632
0
LINE
8
BLACK
6
CONTINUOUS
10
3.69213
20
-4.19213
11
3.70787
21
-4.20787
0
LINE
8
BLACK
6
CONTINUOUS
10
3.70787
20
-4.19213
11
3.69213
21
-4.20787
0
LINE
8
BLACK
6
CONTINUOUS
10
3.69213
20
-4.36713
11
3.70787
21
-4.38287
0
LINE
8
BLACK
6
CONTINUOUS
10
3.70787
20
-4.36713
11
3.69213
21
-4.38287
0
LINE
8
BLACK
6
CONTINUOUS
10
3.76713
20
-4.49213
11
3.78287
21
-4.50787
0
LINE
8
BLACK
6
CONTINUOUS
10
3.78287
20
-4.49213
11
3.76713
21
-4.50787
0
LINE
8
BLACK
6
CONTINUOUS
10
3.84213
20
-4.74213
11
3.85787
21
-4.75787
0
LINE
8
BLACK
6
CONTINUOUS
10
3.85787
20
-4.74213
11
3.84213
21
-4.75787
0
LINE
8
BLACK
6
CONTINUOUS
10
3.94213
20
-4.06713
11
3.95787
21
-4.08287
0
LINE
8
BLACK
6
CONTINUOUS
10
3.95787
20
-4.06713
11
3.94213
21
-4.08287
0
LINE
8
BLACK
6
CONTINUOUS
10
4.04213
20
-3.81713
11
4.05787
21
-3.83287
0
LINE
8
BLACK
6
CONTINUOUS
10
4.05787
20
-3.81713
11
4.04213
21
-3.83287
0
LINE
8
BLACK
6
CONTINUOUS
10
4.09213
20
-3.64213
11
4.10787
21
-3.65787
0
LINE
8
BLACK
6
CONTINUOUS
10
4.10787
20
-3.64213
11
4.09213
21
-3.65787
0
LINE
8
BLACK
6
CONTINUOUS
10
4.09213
20
-4.71713
11
4.10787
21
-4.73287
0
LINE
8
BLACK
6
CONTINUOUS
10
4.10787
20
-4.71713
11
4.09213
21
-4.73287
0
LINE
8
BLACK
6
CONTINUOUS
10
4.11713
20
-4.16713
11
4.13287
21
-4.18287
0
LINE
8
BLACK
6
CONTINUOUS
10
4.13287
20
-4.16713
11
4.11713
21
-4.18287
0
LINE
8
BLACK
6
CONTINUOUS
10
4.11713
20
-4.34213
11
4.13287
21
-4.35787
0
LINE
8
BLACK
6
CONTINUOUS
10
4.13287
20
-4.34213
11
4.11713
21
-4.35787
0
LINE
8
BLACK
6
CONTINUOUS
10
4.11713
20
-4.54213
11
4.13287
21
-4.55787
0
LINE
8
BLACK
6
CONTINUOUS
10
4.13287
20
-4.54213
11
4.11713
21
-4.55787
0
LINE
8
BLACK
6
CONTINUOUS
10
4.12761
20
-4.68164
11
4.14336
21
-4.69739
0
LINE
8
BLACK
6
CONTINUOUS
10
4.14336
20
-4.68164
11
4.12761
21
-4.69739
0
LINE
8
BLACK
6
CONTINUOUS
10
4.14213
20
-3.64565
11
4.15787
21
-3.6614
0
LINE
8
BLACK
6
CONTINUOUS
10
4.15787
20
-3.64565
11
4.14213
21
-3.6614
0
LINE
8
BLACK
6
CONTINUOUS
10
4.26713
20
-4.61713
11
4.28287
21
-4.63287
0
LINE
8
BLACK
6
CONTINUOUS
10
4.28287
20
-4.61713
11
4.26713
21
-4.63287
0
LINE
8
BLACK
6
CONTINUOUS
10
4.31713
20
-3.69213
11
4.33287
21
-3.70787
0
LINE
8
BLACK
6
CONTINUOUS
10
4.33287
20
-3.69213
11
4.31713
21
-3.70787
0
LINE
8
BLACK
6
CONTINUOUS
10
4.37172
20
-4.22172
11
4.38747
21
-4.23747
0
LINE
8
BLACK
6
CONTINUOUS
10
4.38747
20
-4.22172
11
4.37172
21
-4.23747
0
LINE
8
BLACK
6
CONTINUOUS
10
4.61213
20
-4.91213
11
4.62787
21
-4.92787
0
LINE
8
BLACK
6
CONTINUOUS
10
4.62787
20
-4.91213
11
4.61213
21
-4.92787
0
LINE
8
BLACK
6
CONTINUOUS
10
4.61213
20
-4.97213
11
4.62787
21
-4.98787
0
LINE
8
BLACK
6
CONTINUOUS
10
4.62787
20
-4.97213
11
4.61213
21
-4.98787
0
LINE
8
BLACK
6
CONTINUOUS
10
4.61213
20
-5.03213
11
4.62787
21
-5.04787
0
LINE
8
BLACK
6
CONTINUOUS
10
4.62787
20
-5.03213
11
4.61213
21
-5.04787
0
LINE
8
BLACK
6
CONTINUOUS
10
4.61213
20
-5.09213
11
4.62787
21
-5.10787
0
LINE
8
BLACK
6
CONTINUOUS
10
4.62787
20
-5.09213
11
4.61213
21
-5.10787
0
LINE
8
BLACK
6
CONTINUOUS
10
4.61213
20
-5.15213
11
4.62787
21
-5.16787
0
LINE
8
BLACK
6
CONTINUOUS
10
4.62787
20
-5.15213
11
4.61213
21
-5.16787
0
LINE
8
BLACK
6
CONTINUOUS
10
4.61713
20
-3.56713
11
4.63287
21
-3.58287
0
LINE
8
BLACK
6
CONTINUOUS
10
4.63287
20
-3.56713
11
4.61713
21
-3.58287
0
LINE
8
BLACK
6
CONTINUOUS
10
4.61713
20
-3.61713
11
4.63287
21
-3.63287
0
LINE
8
BLACK
6
CONTINUOUS
10
4.63287
20
-3.61713
11
4.61713
21
-3.63287
0
LINE
8
BLACK
6
CONTINUOUS
10
4.61713
20
-3.8486
11
4.63287
21
-3.86435
0
LINE
8
BLACK
6
CONTINUOUS
10
4.63287
20
-3.8486
11
4.61713
21
-3.86435
0
LINE
8
BLACK
6
CONTINUOUS
10
4.66213
20
-5.19213
11
4.67787
21
-5.20787
0
LINE
8
BLACK
6
CONTINUOUS
10
4.67787
20
-5.19213
11
4.66213
21
-5.20787
0
LINE
8
BLACK
6
CONTINUOUS
10
4.67213
20
-4.91213
11
4.68787
21
-4.92787
0
LINE
8
BLACK
6
CONTINUOUS
10
4.68787
20
-4.91213
11
4.67213
21
-4.92787
0
LINE
8
BLACK
6
CONTINUOUS
10
4.69213
20
-5.23213
11
4.70787
21
-5.24787
0
LINE
8
BLACK
6
CONTINUOUS
10
4.70787
20
-5.23213
11
4.69213
21
-5.24787
0
LINE
8
BLACK
6
CONTINUOUS
10
4.74213
20
-3.41713
11
4.75787
21
-3.43287
0
LINE
8
BLACK
6
CONTINUOUS
10
4.75787
20
-3.41713
11
4.74213
21
-3.43287
0
LINE
8
BLACK
6
CONTINUOUS
10
4.74213
20
-3.59213
11
4.75787
21
-3.60787
0
LINE
8
BLACK
6
CONTINUOUS
10
4.75787
20
-3.59213
11
4.74213
21
-3.60787
0
LINE
8
BLACK
6
CONTINUOUS
10
4.74213
20
-4.51713
11
4.75787
21
-4.53287
0
LINE
8
BLACK
6
CONTINUOUS
10
4.75787
20
-4.51713
11
4.74213
21
-4.53287
0
LINE
8
BLACK
6
CONTINUOUS
10
4.74213
20
-4.91213
11
4.75787
21
-4.92787
0
LINE
8
BLACK
6
CONTINUOUS
10
4.75787
20
-4.91213
11
4.74213
21
-4.92787
0
LINE
8
BLACK
6
CONTINUOUS
10
4.79213
20
-5.23213
11
4.80787
21
-5.24787
0
LINE
8
BLACK
6
CONTINUOUS
10
4.80787
20
-5.23213
11
4.79213
21
-5.24787
0
LINE
8
BLACK
6
CONTINUOUS
10
4.80213
20
-4.91213
11
4.81787
21
-4.92787
0
LINE
8
BLACK
6
CONTINUOUS
10
4.81787
20
-4.91213
11
4.80213
21
-4.92787
0
LINE
8
BLACK
6
CONTINUOUS
10
4.81213
20
-5.01213
11
4.82787
21
-5.02787
0
LINE
8
BLACK
6
CONTINUOUS
10
4.82787
20
-5.01213
11
4.81213
21
-5.02787
0
LINE
8
BLACK
6
CONTINUOUS
10
4.81472
20
-4.21953
11
4.83047
21
-4.23528
0
LINE
8
BLACK
6
CONTINUOUS
10
4.83047
20
-4.21953
11
4.81472
21
-4.23528
0
LINE
8
BLACK
6
CONTINUOUS
10
4.81713
20
-4.61713
11
4.83287
21
-4.63287
0
LINE
8
BLACK
6
CONTINUOUS
10
4.83287
20
-4.61713
11
4.81713
21
-4.63287
0
LINE
8
BLACK
6
CONTINUOUS
10
4.82213
20
-4.75213
11
4.83787
21
-4.76787
0
LINE
8
BLACK
6
CONTINUOUS
10
4.83787
20
-4.75213
11
4.82213
21
-4.76787
0
LINE
8
BLACK
6
CONTINUOUS
10
4.82213
20
-4.79213
11
4.83787
21
-4.80787
0
LINE
8
BLACK
6
CONTINUOUS
10
4.83787
20
-4.79213
11
4.82213
21
-4.80787
0
LINE
8
BLACK
6
CONTINUOUS
10
4.83213
20
-5.07213
11
4.84787
21
-5.08787
0
LINE
8
BLACK
6
CONTINUOUS
10
4.84787
20
-5.07213
11
4.83213
21
-5.08787
0
LINE
8
BLACK
6
CONTINUOUS
10
4.84213
20
-5.13213
11
4.85787
21
-5.14787
0
LINE
8
BLACK
6
CONTINUOUS
10
4.85787
20
-5.13213
11
4.84213
21
-5.14787
0
LINE
8
BLACK
6
CONTINUOUS
10
4.85213
20
-4.91213
11
4.86787
21
-4.92787
0
LINE
8
BLACK
6
CONTINUOUS
10
4.86787
20
-4.91213
11
4.85213
21
-4.92787
0
LINE
8
BLACK
6
CONTINUOUS
10
4.88213
20
-5.00213
11
4.89787
21
-5.01787
0
LINE
8
BLACK
6
CONTINUOUS
10
4.89787
20
-5.00213
11
4.88213
21
-5.01787
0
LINE
8
BLACK
6
CONTINUOUS
10
4.89213
20
-5.14213
11
4.90787
21
-5.15787
0
LINE
8
BLACK
6
CONTINUOUS
10
4.90787
20
-5.14213
11
4.89213
21
-5.15787
0
LINE
8
BLACK
6
CONTINUOUS
10
4.89213
20
-5.23213
11
4.90787
21
-5.24787
0
LINE
8
BLACK
6
CONTINUOUS
10
4.90787
20
-5.23213
11
4.89213
21
-5.24787
0
LINE
8
BLACK
6
CONTINUOUS
10
4.92213
20
-4.75213
11
4.93787
21
-4.76787
0
LINE
8
BLACK
6
CONTINUOUS
10
4.93787
20
-4.75213
11
4.92213
21
-4.76787
0
LINE
8
BLACK
6
CONTINUOUS
10
4.95213
20
-4.80213
11
4.96787
21
-4.81787
0
LINE
8
BLACK
6
CONTINUOUS
10
4.96787
20
-4.80213
11
4.95213
21
-4.81787
0
LINE
8
BLACK
6
CONTINUOUS
10
4.96213
20
-4.87213
11
4.97787
21
-4.88787
0
LINE
8
BLACK
6
CONTINUOUS
10
4.97787
20
-4.87213
11
4.96213
21
-4.88787
0
LINE
8
BLACK
6
CONTINUOUS
10
4.96213
20
-5.14213
11
4.97787
21
-5.15787
0
LINE
8
BLACK
6
CONTINUOUS
10
4.97787
20
-5.14213
11
4.96213
21
-5.15787
0
LINE
8
BLACK
6
CONTINUOUS
10
4.96213
20
-5.23213
11
4.97787
21
-5.24787
0
LINE
8
BLACK
6
CONTINUOUS
10
4.97787
20
-5.23213
11
4.96213
21
-5.24787
0
LINE
8
BLACK
6
CONTINUOUS
10
5.04213
20
-5.14213
11
5.05787
21
-5.15787
0
LINE
8
BLACK
6
CONTINUOUS
10
5.05787
20
-5.14213
11
5.04213
21
-5.15787
0
LINE
8
BLACK
6
CONTINUOUS
10
5.04213
20
-5.23213
11
5.05787
21
-5.24787
0
LINE
8
BLACK
6
CONTINUOUS
10
5.05787
20
-5.23213
11
5.04213
21
-5.24787
0
LINE
8
BLACK
6
CONTINUOUS
10
5.12213
20
-5.14213
11
5.13787
21
-5.15787
0
LINE
8
BLACK
6
CONTINUOUS
10
5.13787
20
-5.14213
11
5.12213
21
-5.15787
0
LINE
8
BLACK
6
CONTINUOUS
10
5.12213
20
-5.23213
11
5.13787
21
-5.24787
0
LINE
8
BLACK
6
CONTINUOUS
10
5.13787
20
-5.23213
11
5.12213
21
-5.24787
0
LINE
8
BLACK
6
CONTINUOUS
10
5.19213
20
-5.14213
11
5.20787
21
-5.15787
0
LINE
8
BLACK
6
CONTINUOUS
10
5.20787
20
-5.14213
11
5.19213
21
-5.15787
0
LINE
8
BLACK
6
CONTINUOUS
10
5.19213
20
-5.23213
11
5.20787
21
-5.24787
0
LINE
8
BLACK
6
CONTINUOUS
10
5.20787
20
-5.23213
11
5.19213
21
-5.24787
0
LINE
8
BLACK
6
CONTINUOUS
10
5.26213
20
-5.14213
11
5.27787
21
-5.15787
0
LINE
8
BLACK
6
CONTINUOUS
10
5.27787
20
-5.14213
11
5.26213
21
-5.15787
0
LINE
8
BLACK
6
CONTINUOUS
10
5.26213
20
-5.23213
11
5.27787
21
-5.24787
0
LINE
8
BLACK
6
CONTINUOUS
10
5.27787
20
-5.23213
11
5.26213
21
-5.24787
0
LINE
8
BLACK
6
CONTINUOUS
10
5.29213
20
-3.65947
11
5.30787
21
-3.67522
0
LINE
8
BLACK
6
CONTINUOUS
10
5.30787
20
-3.65947
11
5.29213
21
-3.67522
0
LINE
8
BLACK
6
CONTINUOUS
10
5.34213
20
-4.09213
11
5.35787
21
-4.10787
0
LINE
8
BLACK
6
CONTINUOUS
10
5.35787
20
-4.09213
11
5.34213
21
-4.10787
0
LINE
8
BLACK
6
CONTINUOUS
10
5.36713
20
-3.81713
11
5.38287
21
-3.83287
0
LINE
8
BLACK
6
CONTINUOUS
10
5.38287
20
-3.81713
11
5.36713
21
-3.83287
0
CIRCLE
8
BLACK
10
3.43455
20
-4.25138
40
0.011811
0
LINE
8
BLACK
6
CONTINUOUS
10
3.4503
20
-4.23957
11
3.4188
21
-4.23957
0
LINE
8
BLACK
6
CONTINUOUS
10
3.4503
20
-4.26319
11
3.4188
21
-4.26319
0
ARC
8
BLACK
10
3.4188
20
-4.25138
40
0.011811
50
450
51
630
0
ARC
8
BLACK
10
3.4503
20
-4.25138
40
0.011811
50
270
51
450
0
CIRCLE
8
BLACK
10
3.43455
20
-4.59193
40
0.011811
0
LINE
8
BLACK
6
CONTINUOUS
10
3.4503
20
-4.58012
11
3.4188
21
-4.58012
0
LINE
8
BLACK
6
CONTINUOUS
10
3.4503
20
-4.60374
11
3.4188
21
-4.60374
0
ARC
8
BLACK
10
3.4188
20
-4.59193
40
0.011811
50
450
51
630
0
ARC
8
BLACK
10
3.4503
20
-4.59193
40
0.011811
50
270
51
450
0
CIRCLE
8
BLACK
10
3.59911
20
-4.25138
40
0.011811
0
LINE
8
BLACK
6
CONTINUOUS
10
3.62077
20
-4.23957
11
3.57746
21
-4.23957
0
LINE
8
BLACK
6
CONTINUOUS
10
3.62077
20
-4.26319
11
3.57746
21
-4.26319
0
ARC
8
BLACK
10
3.57746
20
-4.25138
40
0.011811
50
450
51
630
0
ARC
8
BLACK
10
3.62077
20
-4.25138
40
0.011811
50
270
51
450
0
CIRCLE
8
BLACK
10
3.59911
20
-4.59154
40
0.011811
0
LINE
8
BLACK
6
CONTINUOUS
10
3.62077
20
-4.57972
11
3.57746
21
-4.57972
0
LINE
8
BLACK
6
CONTINUOUS
10
3.62077
20
-4.60335
11
3.57746
21
-4.60335
0
ARC
8
BLACK
10
3.57746
20
-4.59154
40
0.011811
50
450
51
630
0
ARC
8
BLACK
10
3.62077
20
-4.59154
40
0.011811
50
270
51
450
0
LINE
8
BLACK
6
CONTINUOUS
10
4.12579
20
-3.97835
11
4.12579
21
-4.00591
0
LINE
8
BLACK
6
CONTINUOUS
10
4.11201
20
-3.99213
11
4.13957
21
-3.99213
0
LINE
8
BLACK
6
CONTINUOUS
10
4.12579
20
-4.84449
11
4.12579
21
-4.87205
0
LINE
8
BLACK
6
CONTINUOUS
10
4.11201
20
-4.85827
11
4.13957
21
-4.85827
0
LINE
8
BLACK
6
CONTINUOUS
10
4.20453
20
-3.97835
11
4.20453
21
-4.00591
0
LINE
8
BLACK
6
CONTINUOUS
10
4.19075
20
-3.99213
11
4.21831
21
-3.99213
0
LINE
8
BLACK
6
CONTINUOUS
10
4.20453
20
-4.84449
11
4.20453
21
-4.87205
0
LINE
8
BLACK
6
CONTINUOUS
10
4.19075
20
-4.85827
11
4.21831
21
-4.85827
0
LINE
8
BLACK
6
CONTINUOUS
10
4.28327
20
-3.97835
11
4.28327
21
-4.00591
0
LINE
8
BLACK
6
CONTINUOUS
10
4.26949
20
-3.99213
11
4.29705
21
-3.99213
0
LINE
8
BLACK
6
CONTINUOUS
10
4.28327
20
-4.84449
11
4.28327
21
-4.87205
0
LINE
8
BLACK
6
CONTINUOUS
10
4.26949
20
-4.85827
11
4.29705
21
-4.85827
0
LINE
8
BLACK
6
CONTINUOUS
10
4.36201
20
-3.97835
11
4.36201
21
-4.00591
0
LINE
8
BLACK
6
CONTINUOUS
10
4.34823
20
-3.99213
11
4.37579
21
-3.99213
0
LINE
8
BLACK
6
CONTINUOUS
10
4.36201
20
-4.84449
11
4.36201
21
-4.87205
0
LINE
8
BLACK
6
CONTINUOUS
10
4.34823
20
-4.85827
11
4.37579
21
-4.85827
0
LINE
8
BLACK
6
CONTINUOUS
10
4.44075
20
-3.97835
11
4.44075
21
-4.00591
0
LINE
8
BLACK
6
CONTINUOUS
10
4.42697
20
-3.99213
11
4.45453
21
-3.99213
0
LINE
8
BLACK
6
CONTINUOUS
10
4.44075
20
-4.84449
11
4.44075
21
-4.87205
0
LINE
8
BLACK
6
CONTINUOUS
10
4.42697
20
-4.85827
11
4.45453
21
-4.85827
0
LINE
8
BLACK
6
CONTINUOUS
10
4.51949
20
-3.97835
11
4.51949
21
-4.00591
0
LINE
8
BLACK
6
CONTINUOUS
10
4.50571
20
-3.99213
11
4.53327
21
-3.99213
0
LINE
8
BLACK
6
CONTINUOUS
10
4.51949
20
-4.84449
11
4.51949
21
-4.87205
0
LINE
8
BLACK
6
CONTINUOUS
10
4.50571
20
-4.85827
11
4.53327
21
-4.85827
0
LINE
8
BLACK
6
CONTINUOUS
10
4.59823
20
-3.97835
11
4.59823
21
-4.00591
0
LINE
8
BLACK
6
CONTINUOUS
10
4.58445
20
-3.99213
11
4.61201
21
-3.99213
0
LINE
8
BLACK
6
CONTINUOUS
10
4.59823
20
-4.84449
11
4.59823
21
-4.87205
0
LINE
8
BLACK
6
CONTINUOUS
10
4.58445
20
-4.85827
11
4.61201
21
-4.85827
0
LINE
8
BLACK
6
CONTINUOUS
10
4.67697
20
-3.97835
11
4.67697
21
-4.00591
0
LINE
8
BLACK
6
CONTINUOUS
10
4.66319
20
-3.99213
11
4.69075
21
-3.99213
0
LINE
8
BLACK
6
CONTINUOUS
10
4.67697
20
-4.84449
11
4.67697
21
-4.87205
0
LINE
8
BLACK
6
CONTINUOUS
10
4.66319
20
-4.85827
11
4.69075
21
-4.85827
0
LINE
8
BLACK
6
CONTINUOUS
10
4.75571
20
-3.97835
11
4.75571
21
-4.00591
0
LINE
8
BLACK
6
CONTINUOUS
10
4.74193
20
-3.99213
11
4.76949
21
-3.99213
0
LINE
8
BLACK
6
CONTINUOUS
10
4.75571
20
-4.84449
11
4.75571
21
-4.87205
0
LINE
8
BLACK
6
CONTINUOUS
10
4.74193
20
-4.85827
11
4.76949
21
-4.85827
0
LINE
8
BLACK
6
CONTINUOUS
10
4.83445
20
-3.97835
11
4.83445
21
-4.00591
0
LINE
8
BLACK
6
CONTINUOUS
10
4.82067
20
-3.99213
11
4.84823
21
-3.99213
0
LINE
8
BLACK
6
CONTINUOUS
10
4.83445
20
-4.84449
11
4.83445
21
-4.87205
0
LINE
8
BLACK
6
CONTINUOUS
10
4.82067
20
-4.85827
11
4.84823
21
-4.85827
0
LINE
8
BLACK
6
CONTINUOUS
10
3.45052
20
-5.19954
11
3.45052
21
-5.17448
0
LINE
8
BLACK
6
CONTINUOUS
10
3.45052
20
-5.17448
11
3.42546
21
-5.17448
0
LINE
8
BLACK
6
CONTINUOUS
10
3.42546
20
-5.17448
11
3.42546
21
-5.19954
0
LINE
8
BLACK
6
CONTINUOUS
10
3.42546
20
-5.19954
11
3.45052
21
-5.19954
0
LINE
8
BLACK
6
CONTINUOUS
10
3.45052
20
-5.29954
11
3.45052
21
-5.27448
0
LINE
8
BLACK
6
CONTINUOUS
10
3.45052
20
-5.27448
11
3.42546
21
-5.27448
0
LINE
8
BLACK
6
CONTINUOUS
10
3.42546
20
-5.27448
11
3.42546
21
-5.29954
0
LINE
8
BLACK
6
CONTINUOUS
10
3.42546
20
-5.29954
11
3.45052
21
-5.29954
0
LINE
8
BLACK
6
CONTINUOUS
10
5.46627
20
-4.17532
11
5.46627
21
-4.15027
0
LINE
8
BLACK
6
CONTINUOUS
10
5.46627
20
-4.15027
11
5.44121
21
-4.15027
0
LINE
8
BLACK
6
CONTINUOUS
10
5.44121
20
-4.15027
11
5.44121
21
-4.17532
0
LINE
8
BLACK
6
CONTINUOUS
10
5.44121
20
-4.17532
11
5.46627
21
-4.17532
0
LINE
8
BLACK
6
CONTINUOUS
10
5.46627
20
-4.27532
11
5.46627
21
-4.25027
0
LINE
8
BLACK
6
CONTINUOUS
10
5.46627
20
-4.25027
11
5.44121
21
-4.25027
0
LINE
8
BLACK
6
CONTINUOUS
10
5.44121
20
-4.25027
11
5.44121
21
-4.27532
0
LINE
8
BLACK
6
CONTINUOUS
10
5.44121
20
-4.27532
11
5.46627
21
-4.27532
0
LINE
8
BLACK
6
CONTINUOUS
10
5.46627
20
-4.60839
11
5.46627
21
-4.58334
0
LINE
8
BLACK
6
CONTINUOUS
10
5.46627
20
-4.58334
11
5.44121
21
-4.58334
0
LINE
8
BLACK
6
CONTINUOUS
10
5.44121
20
-4.58334
11
5.44121
21
-4.60839
0
LINE
8
BLACK
6
CONTINUOUS
10
5.44121
20
-4.60839
11
5.46627
21
-4.60839
0
LINE
8
BLACK
6
CONTINUOUS
10
5.46627
20
-4.70839
11
5.46627
21
-4.68334
0
LINE
8
BLACK
6
CONTINUOUS
10
5.46627
20
-4.68334
11
5.44121
21
-4.68334
0
LINE
8
BLACK
6
CONTINUOUS
10
5.44121
20
-4.68334
11
5.44121
21
-4.70839
0
LINE
8
BLACK
6
CONTINUOUS
10
5.44121
20
-4.70839
11
5.46627
21
-4.70839
0
LINE
8
BLACK
6
CONTINUOUS
10
5.52434
20
-3.55583
11
5.52434
21
-3.53078
0
LINE
8
BLACK
6
CONTINUOUS
10
5.52434
20
-3.53078
11
5.49928
21
-3.53078
0
LINE
8
BLACK
6
CONTINUOUS
10
5.49928
20
-3.53078
11
5.49928
21
-3.55583
0
LINE
8
BLACK
6
CONTINUOUS
10
5.49928
20
-3.55583
11
5.52434
21
-3.55583
0
LINE
8
BLACK
6
CONTINUOUS
10
5.52434
20
-3.63457
11
5.52434
21
-3.60952
0
LINE
8
BLACK
6
CONTINUOUS
10
5.52434
20
-3.60952
11
5.49928
21
-3.60952
0
LINE
8
BLACK
6
CONTINUOUS
10
5.49928
20
-3.60952
11
5.49928
21
-3.63457
0
LINE
8
BLACK
6
CONTINUOUS
10
5.49928
20
-3.63457
11
5.52434
21
-3.63457
0
LINE
8
BLACK
6
CONTINUOUS
10
5.52434
20
-3.71331
11
5.52434
21
-3.68826
0
LINE
8
BLACK
6
CONTINUOUS
10
5.52434
20
-3.68826
11
5.49928
21
-3.68826
0
LINE
8
BLACK
6
CONTINUOUS
10
5.49928
20
-3.68826
11
5.49928
21
-3.71331
0
LINE
8
BLACK
6
CONTINUOUS
10
5.49928
20
-3.71331
11
5.52434
21
-3.71331
0
LINE
8
BLACK
6
CONTINUOUS
10
3.48278
20
-3.55394
11
3.50226
21
-3.53445
0
LINE
8
BLACK
6
CONTINUOUS
10
3.50226
20
-3.53445
11
3.48278
21
-3.51496
0
LINE
8
BLACK
6
CONTINUOUS
10
3.48278
20
-3.51496
11
3.46329
21
-3.53445
0
LINE
8
BLACK
6
CONTINUOUS
10
3.46329
20
-3.53445
11
3.48278
21
-3.55394
0
LINE
8
BLACK
6
CONTINUOUS
10
3.48278
20
-3.7311
11
3.50226
21
-3.71161
0
LINE
8
BLACK
6
CONTINUOUS
10
3.50226
20
-3.71161
11
3.48278
21
-3.69213
0
LINE
8
BLACK
6
CONTINUOUS
10
3.48278
20
-3.69213
11
3.46329
21
-3.71161
0
LINE
8
BLACK
6
CONTINUOUS
10
3.46329
20
-3.71161
11
3.48278
21
-3.7311
0
LINE
8
BLACK
6
CONTINUOUS
10
3.55522
20
-3.45925
11
3.6064
21
-3.51043
0
LINE
8
BLACK
6
CONTINUOUS
10
3.6064
20
-3.45925
11
3.55522
21
-3.51043
0
CIRCLE
8
BLACK
10
3.58081
20
-3.48484
40
0.0255906
0
LINE
8
BLACK
6
CONTINUOUS
10
3.55522
20
-3.73524
11
3.6064
21
-3.78642
0
LINE
8
BLACK
6
CONTINUOUS
10
3.6064
20
-3.73524
11
3.55522
21
-3.78642
0
CIRCLE
8
BLACK
10
3.58081
20
-3.76083
40
0.0255906
0
LINE
8
BLACK
6
CONTINUOUS
10
5.30354
20
-5.06732
11
5.3626
21
-5.12638
0
LINE
8
BLACK
6
CONTINUOUS
10
5.3626
20
-5.06732
11
5.30354
21
-5.12638
0
LINE
8
BLACK
6
CONTINUOUS
10
5.33307
20
-5.06732
11
5.33307
21
-5.12638
0
LINE
8
BLACK
6
CONTINUOUS
10
5.30354
20
-5.09685
11
5.3626
21
-5.09685
0
LINE
8
BLACK
6
CONTINUOUS
10
5.30354
20
-5.26732
11
5.3626
21
-5.32638
0
LINE
8
BLACK
6
CONTINUOUS
10
5.3626
20
-5.26732
11
5.30354
21
-5.32638
0
LINE
8
BLACK
6
CONTINUOUS
10
5.33307
20
-5.26732
11
5.33307
21
-5.32638
0
LINE
8
BLACK
6
CONTINUOUS
10
5.30354
20
-5.29685
11
5.3626
21
-5.29685
0
LINE
8
BLACK
6
CONTINUOUS
10
5.40354
20
-5.16732
11
5.4626
21
-5.22638
0
LINE
8
BLACK
6
CONTINUOUS
10
5.4626
20
-5.16732
11
5.40354
21
-5.22638
0
LINE
8
BLACK
6
CONTINUOUS
10
5.43307
20
-5.16732
11
5.43307
21
-5.22638
0
LINE
8
BLACK
6
CONTINUOUS
10
5.40354
20
-5.19685
11
5.4626
21
-5.19685
0
LINE
8
BLACK
6
CONTINUOUS
10
5.48228
20
-3.4311
11
5.54134
21
-3.49016
0
LINE
8
BLACK
6
CONTINUOUS
10
5.54134
20
-3.4311
11
5.48228
21
-3.49016
0
LINE
8
BLACK
6
CONTINUOUS
10
5.51181
20
-3.4311
11
5.51181
21
-3.49016
0
LINE
8
BLACK
6
CONTINUOUS
10
5.48228
20
-3.46063
11
5.54134
21
-3.46063
0
LINE
8
BLACK
6
CONTINUOUS
10
5.48228
20
-3.75394
11
5.54134
21
-3.81299
0
LINE
8
BLACK
6
CONTINUOUS
10
5.54134
20
-3.75394
11
5.48228
21
-3.81299
0
LINE
8
BLACK
6
CONTINUOUS
10
5.51181
20
-3.75394
11
5.51181
21
-3.81299
0
LINE
8
BLACK
6
CONTINUOUS
10
5.48228
20
-3.78346
11
5.54134
21
-3.78346
0
LINE
8
BLACK
6
CONTINUOUS
10
5.50354
20
-5.06732
11
5.5626
21
-5.12638
0
LINE
8
BLACK
6
CONTINUOUS
10
5.5626
20
-5.06732
11
5.50354
21
-5.12638
0
LINE
8
BLACK
6
CONTINUOUS
10
5.53307
20
-5.06732
11
5.53307
21
-5.12638
0
LINE
8
BLACK
6
CONTINUOUS
10
5.50354
20
-5.09685
11
5.5626
21
-5.09685
0
LINE
8
BLACK
6
CONTINUOUS
10
5.50354
20
-5.26732
11
5.5626
21
-5.32638
0
LINE
8
BLACK
6
CONTINUOUS
10
5.5626
20
-5.26732
11
5.50354
21
-5.32638
0
LINE
8
BLACK
6
CONTINUOUS
10
5.53307
20
-5.26732
11
5.53307
21
-5.32638
0
LINE
8
BLACK
6
CONTINUOUS
10
5.50354
20
-5.29685
11
5.5626
21
-5.29685
0
LINE
8
BLACK
6
CONTINUOUS
10
3.86417
20
-3.80709
11
3.99016
21
-3.93307
0
LINE
8
BLACK
6
CONTINUOUS
10
3.99016
20
-3.80709
11
3.86417
21
-3.93307
0
LINE
8
BLACK
6
CONTINUOUS
10
3.97171
20
-3.91462
11
3.97171
21
-3.82554
0
LINE
8
BLACK
6
CONTINUOUS
10
3.97171
20
-3.82554
11
3.88262
21
-3.82554
0
LINE
8
BLACK
6
CONTINUOUS
10
3.88262
20
-3.82554
11
3.88262
21
-3.91462
0
LINE
8
BLACK
6
CONTINUOUS
10
3.88262
20
-3.91462
11
3.97171
21
-3.91462
0
LINE
8
BLACK
6
CONTINUOUS
10
3.86417
20
-4.90945
11
3.99016
21
-5.03543
0
LINE
8
BLACK
6
CONTINUOUS
10
3.99016
20
-4.90945
11
3.86417
21
-5.03543
0
LINE
8
BLACK
6
CONTINUOUS
10
3.97171
20
-5.01698
11
3.97171
21
-4.9279
0
LINE
8
BLACK
6
CONTINUOUS
10
3.97171
20
-4.9279
11
3.88262
21
-4.9279
0
LINE
8
BLACK
6
CONTINUOUS
10
3.88262
20
-4.9279
11
3.88262
21
-5.01698
0
LINE
8
BLACK
6
CONTINUOUS
10
3.88262
20
-5.01698
11
3.97171
21
-5.01698
0
LINE
8
BLACK
6
CONTINUOUS
10
4.96654
20
-3.80709
11
5.09252
21
-3.93307
0
LINE
8
BLACK
6
CONTINUOUS
10
5.09252
20
-3.80709
11
4.96654
21
-3.93307
0
LINE
8
BLACK
6
CONTINUOUS
10
5.07407
20
-3.91462
11
5.07407
21
-3.82554
0
LINE
8
BLACK
6
CONTINUOUS
10
5.07407
20
-3.82554
11
4.98498
21
-3.82554
0
LINE
8
BLACK
6
CONTINUOUS
10
4.98498
20
-3.82554
11
4.98498
21
-3.91462
0
LINE
8
BLACK
6
CONTINUOUS
10
4.98498
20
-3.91462
11
5.07407
21
-3.91462
0
LINE
8
BLACK
6
CONTINUOUS
10
4.96654
20
-4.90945
11
5.09252
21
-5.03543
0
LINE
8
BLACK
6
CONTINUOUS
10
5.09252
20
-4.90945
11
4.96654
21
-5.03543
0
LINE
8
BLACK
6
CONTINUOUS
10
5.07407
20
-5.01698
11
5.07407
21
-4.9279
0
LINE
8
BLACK
6
CONTINUOUS
10
5.07407
20
-4.9279
11
4.98498
21
-4.9279
0
LINE
8
BLACK
6
CONTINUOUS
10
4.98498
20
-4.9279
11
4.98498
21
-5.01698
0
LINE
8
BLACK
6
CONTINUOUS
10
4.98498
20
-5.01698
11
5.07407
21
-5.01698
0
LINE
8
BLACK
6
CONTINUOUS
10
3.44198
20
-5.66357
11
3.44198
21
-5.58483
0
LINE
8
BLACK
6
CONTINUOUS
10
3.44198
20
-5.58483
11
3.46072
21
-5.58483
0
LINE
8
BLACK
6
CONTINUOUS
10
3.46072
20
-5.58483
11
3.47197
21
-5.58858
0
LINE
8
BLACK
6
CONTINUOUS
10
3.47197
20
-5.58858
11
3.47947
21
-5.59608
0
LINE
8
BLACK
6
CONTINUOUS
10
3.47947
20
-5.59608
11
3.48322
21
-5.60358
0
LINE
8
BLACK
6
CONTINUOUS
10
3.48322
20
-5.60358
11
3.48697
21
-5.61858
0
LINE
8
BLACK
6
CONTINUOUS
10
3.48697
20
-5.61858
11
3.48697
21
-5.62983
0
LINE
8
BLACK
6
CONTINUOUS
10
3.48697
20
-5.62983
11
3.48322
21
-5.64483
0
LINE
8
BLACK
6
CONTINUOUS
10
3.48322
20
-5.64483
11
3.47947
21
-5.65232
0
LINE
8
BLACK
6
CONTINUOUS
10
3.47947
20
-5.65232
11
3.47197
21
-5.65982
0
LINE
8
BLACK
6
CONTINUOUS
10
3.47197
20
-5.65982
11
3.46072
21
-5.66357
0
LINE
8
BLACK
6
CONTINUOUS
10
3.46072
20
-5.66357
11
3.44198
21
-5.66357
0
LINE
8
BLACK
6
CONTINUOUS
10
3.52072
20
-5.66357
11
3.52072
21
-5.61108
0
LINE
8
BLACK
6
CONTINUOUS
10
3.52072
20
-5.62608
11
3.52447
21
-5.61858
0
LINE
8
BLACK
6
CONTINUOUS
10
3.52447
20
-5.61858
11
3.52822
21
-5.61483
0
LINE
8
BLACK
6
CONTINUOUS
10
3.52822
20
-5.61483
11
3.53571
21
-5.61108
0
LINE
8
BLACK
6
CONTINUOUS
10
3.53571
20
-5.61108
11
3.54321
21
-5.61108
0
LINE
8
BLACK
6
CONTINUOUS
10
3.56946
20
-5.66357
11
3.56946
21
-5.61108
0
LINE
8
BLACK
6
CONTINUOUS
10
3.56946
20
-5.58483
11
3.56571
21
-5.58858
0
LINE
8
BLACK
6
CONTINUOUS
10
3.56571
20
-5.58858
11
3.56946
21
-5.59233
0
LINE
8
BLACK
6
CONTINUOUS
10
3.56946
20
-5.59233
11
3.57321
21
-5.58858
0
LINE
8
BLACK
6
CONTINUOUS
10
3.57321
20
-5.58858
11
3.56946
21
-5.58483
0
LINE
8
BLACK
6
CONTINUOUS
10
3.56946
20
-5.58483
11
3.56946
21
-5.59233
0
LINE
8
BLACK
6
CONTINUOUS
10
3.6182
20
-5.66357
11
3.6107
21
-5.65982
0
LINE
8
BLACK
6
CONTINUOUS
10
3.6107
20
-5.65982
11
3.60696
21
-5.65232
0
LINE
8
BLACK
6
CONTINUOUS
10
3.60696
20
-5.65232
11
3.60696
21
-5.58483
0
LINE
8
BLACK
6
CONTINUOUS
10
3.65945
20
-5.66357
11
3.65195
21
-5.65982
0
LINE
8
BLACK
6
CONTINUOUS
10
3.65195
20
-5.65982
11
3.6482
21
-5.65232
0
LINE
8
BLACK
6
CONTINUOUS
10
3.6482
20
-5.65232
11
3.6482
21
-5.58483
0
LINE
8
BLACK
6
CONTINUOUS
10
3.74944
20
-5.66357
11
3.74944
21
-5.58483
0
LINE
8
BLACK
6
CONTINUOUS
10
3.74944
20
-5.58483
11
3.77568
21
-5.64108
0
LINE
8
BLACK
6
CONTINUOUS
10
3.77568
20
-5.64108
11
3.80193
21
-5.58483
0
LINE
8
BLACK
6
CONTINUOUS
10
3.80193
20
-5.58483
11
3.80193
21
-5.66357
0
LINE
8
BLACK
6
CONTINUOUS
10
3.87317
20
-5.66357
11
3.87317
21
-5.62233
0
LINE
8
BLACK
6
CONTINUOUS
10
3.87317
20
-5.62233
11
3.86942
21
-5.61483
0
LINE
8
BLACK
6
CONTINUOUS
10
3.86942
20
-5.61483
11
3.86192
21
-5.61108
0
LINE
8
BLACK
6
CONTINUOUS
10
3.86192
20
-5.61108
11
3.84693
21
-5.61108
0
LINE
8
BLACK
6
CONTINUOUS
10
3.84693
20
-5.61108
11
3.83943
21
-5.61483
0
LINE
8
BLACK
6
CONTINUOUS
10
3.87317
20
-5.65982
11
3.86567
21
-5.66357
0
LINE
8
BLACK
6
CONTINUOUS
10
3.86567
20
-5.66357
11
3.84693
21
-5.66357
0
LINE
8
BLACK
6
CONTINUOUS
10
3.84693
20
-5.66357
11
3.83943
21
-5.65982
0
LINE
8
BLACK
6
CONTINUOUS
10
3.83943
20
-5.65982
11
3.83568
21
-5.65232
0
LINE
8
BLACK
6
CONTINUOUS
10
3.83568
20
-5.65232
11
3.83568
21
-5.64483
0
LINE
8
BLACK
6
CONTINUOUS
10
3.83568
20
-5.64483
11
3.83943
21
-5.63733
0
LINE
8
BLACK
6
CONTINUOUS
10
3.83943
20
-5.63733
11
3.84693
21
-5.63358
0
LINE
8
BLACK
6
CONTINUOUS
10
3.84693
20
-5.63358
11
3.86567
21
-5.63358
0
LINE
8
BLACK
6
CONTINUOUS
10
3.86567
20
-5.63358
11
3.87317
21
-5.62983
0
LINE
8
BLACK
6
CONTINUOUS
10
3.91067
20
-5.61108
11
3.91067
21
-5.68982
0
LINE
8
BLACK
6
CONTINUOUS
10
3.91067
20
-5.61483
11
3.91817
21
-5.61108
0
LINE
8
BLACK
6
CONTINUOUS
10
3.91817
20
-5.61108
11
3.93316
21
-5.61108
0
LINE
8
BLACK
6
CONTINUOUS
10
3.93316
20
-5.61108
11
3.94066
21
-5.61483
0
LINE
8
BLACK
6
CONTINUOUS
10
3.94066
20
-5.61483
11
3.94441
21
-5.61858
0
LINE
8
BLACK
6
CONTINUOUS
10
3.94441
20
-5.61858
11
3.94816
21
-5.62608
0
LINE
8
BLACK
6
CONTINUOUS
10
3.94816
20
-5.62608
11
3.94816
21
-5.64858
0
LINE
8
BLACK
6
CONTINUOUS
10
3.94816
20
-5.64858
11
3.94441
21
-5.65607
0
LINE
8
BLACK
6
CONTINUOUS
10
3.94441
20
-5.65607
11
3.94066
21
-5.65982
0
LINE
8
BLACK
6
CONTINUOUS
10
3.94066
20
-5.65982
11
3.93316
21
-5.66357
0
LINE
8
BLACK
6
CONTINUOUS
10
3.93316
20
-5.66357
11
3.91817
21
-5.66357
0
LINE
8
BLACK
6
CONTINUOUS
10
3.91817
20
-5.66357
11
3.91067
21
-5.65982
0
LINE
8
BLACK
6
CONTINUOUS
10
3.98191
20
-5.65607
11
3.98566
21
-5.65982
0
LINE
8
BLACK
6
CONTINUOUS
10
3.98566
20
-5.65982
11
3.98191
21
-5.66357
0
LINE
8
BLACK
6
CONTINUOUS
10
3.98191
20
-5.66357
11
3.97816
21
-5.65982
0
LINE
8
BLACK
6
CONTINUOUS
10
3.97816
20
-5.65982
11
3.98191
21
-5.65607
0
LINE
8
BLACK
6
CONTINUOUS
10
3.98191
20
-5.65607
11
3.98191
21
-5.66357
0
LINE
8
BLACK
6
CONTINUOUS
10
3.98191
20
-5.61483
11
3.98566
21
-5.61858
0
LINE
8
BLACK
6
CONTINUOUS
10
3.98566
20
-5.61858
11
3.98191
21
-5.62233
0
LINE
8
BLACK
6
CONTINUOUS
10
3.98191
20
-5.62233
11
3.97816
21
-5.61858
0
LINE
8
BLACK
6
CONTINUOUS
10
3.97816
20
-5.61858
11
3.98191
21
-5.61483
0
LINE
8
BLACK
6
CONTINUOUS
10
3.98191
20
-5.61483
11
3.98191
21
-5.62233
0
LINE
8
BLACK
6
CONTINUOUS
10
3.3248
20
-5.78543
11
3.34055
21
-5.80118
0
LINE
8
BLACK
6
CONTINUOUS
10
3.34055
20
-5.78543
11
3.3248
21
-5.80118
0
LINE
8
BLACK
6
CONTINUOUS
10
3.45697
20
-5.75019
11
3.46447
21
-5.75019
0
LINE
8
BLACK
6
CONTINUOUS
10
3.46447
20
-5.75019
11
3.47197
21
-5.75394
0
LINE
8
BLACK
6
CONTINUOUS
10
3.47197
20
-5.75394
11
3.47572
21
-5.75769
0
LINE
8
BLACK
6
CONTINUOUS
10
3.47572
20
-5.75769
11
3.47947
21
-5.76519
0
LINE
8
BLACK
6
CONTINUOUS
10
3.47947
20
-5.76519
11
3.48322
21
-5.78018
0
LINE
8
BLACK
6
CONTINUOUS
10
3.48322
20
-5.78018
11
3.48322
21
-5.79893
0
LINE
8
BLACK
6
CONTINUOUS
10
3.48322
20
-5.79893
11
3.47947
21
-5.81393
0
LINE
8
BLACK
6
CONTINUOUS
10
3.47947
20
-5.81393
11
3.47572
21
-5.82143
0
LINE
8
BLACK
6
CONTINUOUS
10
3.47572
20
-5.82143
11
3.47197
21
-5.82518
0
LINE
8
BLACK
6
CONTINUOUS
10
3.47197
20
-5.82518
11
3.46447
21
-5.82893
0
LINE
8
BLACK
6
CONTINUOUS
10
3.46447
20
-5.82893
11
3.45697
21
-5.82893
0
LINE
8
BLACK
6
CONTINUOUS
10
3.45697
20
-5.82893
11
3.44948
21
-5.82518
0
LINE
8
BLACK
6
CONTINUOUS
10
3.44948
20
-5.82518
11
3.44573
21
-5.82143
0
LINE
8
BLACK
6
CONTINUOUS
10
3.44573
20
-5.82143
11
3.44198
21
-5.81393
0
LINE
8
BLACK
6
CONTINUOUS
10
3.44198
20
-5.81393
11
3.43823
21
-5.79893
0
LINE
8
BLACK
6
CONTINUOUS
10
3.43823
20
-5.79893
11
3.43823
21
-5.78018
0
LINE
8
BLACK
6
CONTINUOUS
10
3.43823
20
-5.78018
11
3.44198
21
-5.76519
0
LINE
8
BLACK
6
CONTINUOUS
10
3.44198
20
-5.76519
11
3.44573
21
-5.75769
0
LINE
8
BLACK
6
CONTINUOUS
10
3.44573
20
-5.75769
11
3.44948
21
-5.75394
0
LINE
8
BLACK
6
CONTINUOUS
10
3.44948
20
-5.75394
11
3.45697
21
-5.75019
0
LINE
8
BLACK
6
CONTINUOUS
10
3.51697
20
-5.82143
11
3.52072
21
-5.82518
0
LINE
8
BLACK
6
CONTINUOUS
10
3.52072
20
-5.82518
11
3.51697
21
-5.82893
0
LINE
8
BLACK
6
CONTINUOUS
10
3.51697
20
-5.82893
11
3.51322
21
-5.82518
0
LINE
8
BLACK
6
CONTINUOUS
10
3.51322
20
-5.82518
11
3.51697
21
-5.82143
0
LINE
8
BLACK
6
CONTINUOUS
10
3.51697
20
-5.82143
11
3.51697
21
-5.82893
0
LINE
8
BLACK
6
CONTINUOUS
10
3.58821
20
-5.77643
11
3.58821
21
-5.82893
0
LINE
8
BLACK
6
CONTINUOUS
10
3.56946
20
-5.74644
11
3.55071
21
-5.80268
0
LINE
8
BLACK
6
CONTINUOUS
10
3.55071
20
-5.80268
11
3.59946
21
-5.80268
0
LINE
8
BLACK
6
CONTINUOUS
10
3.64445
20
-5.75019
11
3.65195
21
-5.75019
0
LINE
8
BLACK
6
CONTINUOUS
10
3.65195
20
-5.75019
11
3.65945
21
-5.75394
0
LINE
8
BLACK
6
CONTINUOUS
10
3.65945
20
-5.75394
11
3.6632
21
-5.75769
0
LINE
8
BLACK
6
CONTINUOUS
10
3.6632
20
-5.75769
11
3.66695
21
-5.76519
0
LINE
8
BLACK
6
CONTINUOUS
10
3.66695
20
-5.76519
11
3.6707
21
-5.78018
0
LINE
8
BLACK
6
CONTINUOUS
10
3.6707
20
-5.78018
11
3.6707
21
-5.79893
0
LINE
8
BLACK
6
CONTINUOUS
10
3.6707
20
-5.79893
11
3.66695
21
-5.81393
0
LINE
8
BLACK
6
CONTINUOUS
10
3.66695
20
-5.81393
11
3.6632
21
-5.82143
0
LINE
8
BLACK
6
CONTINUOUS
10
3.6632
20
-5.82143
11
3.65945
21
-5.82518
0
LINE
8
BLACK
6
CONTINUOUS
10
3.65945
20
-5.82518
11
3.65195
21
-5.82893
0
LINE
8
BLACK
6
CONTINUOUS
10
3.65195
20
-5.82893
11
3.64445
21
-5.82893
0
LINE
8
BLACK
6
CONTINUOUS
10
3.64445
20
-5.82893
11
3.63695
21
-5.82518
0
LINE
8
BLACK
6
CONTINUOUS
10
3.63695
20
-5.82518
11
3.6332
21
-5.82143
0
LINE
8
BLACK
6
CONTINUOUS
10
3.6332
20
-5.82143
11
3.62945
21
-5.81393
0
LINE
8
BLACK
6
CONTINUOUS
10
3.62945
20
-5.81393
11
3.6257
21
-5.79893
0
LINE
8
BLACK
6
CONTINUOUS
10
3.6257
20
-5.79893
11
3.6257
21
-5.78018
0
LINE
8
BLACK
6
CONTINUOUS
10
3.6257
20
-5.78018
11
3.62945
21
-5.76519
0
LINE
8
BLACK
6
CONTINUOUS
10
3.62945
20
-5.76519
11
3.6332
21
-5.75769
0
LINE
8
BLACK
6
CONTINUOUS
10
3.6332
20
-5.75769
11
3.63695
21
-5.75394
0
LINE
8
BLACK
6
CONTINUOUS
10
3.63695
20
-5.75394
11
3.64445
21
-5.75019
0
LINE
8
BLACK
6
CONTINUOUS
10
3.71944
20
-5.75019
11
3.72694
21
-5.75019
0
LINE
8
BLACK
6
CONTINUOUS
10
3.72694
20
-5.75019
11
3.73444
21
-5.75394
0
LINE
8
BLACK
6
CONTINUOUS
10
3.73444
20
-5.75394
11
3.73819
21
-5.75769
0
LINE
8
BLACK
6
CONTINUOUS
10
3.73819
20
-5.75769
11
3.74194
21
-5.76519
0
LINE
8
BLACK
6
CONTINUOUS
10
3.74194
20
-5.76519
11
3.74569
21
-5.78018
0
LINE
8
BLACK
6
CONTINUOUS
10
3.74569
20
-5.78018
11
3.74569
21
-5.79893
0
LINE
8
BLACK
6
CONTINUOUS
10
3.74569
20
-5.79893
11
3.74194
21
-5.81393
0
LINE
8
BLACK
6
CONTINUOUS
10
3.74194
20
-5.81393
11
3.73819
21
-5.82143
0
LINE
8
BLACK
6
CONTINUOUS
10
3.73819
20
-5.82143
11
3.73444
21
-5.82518
0
LINE
8
BLACK
6
CONTINUOUS
10
3.73444
20
-5.82518
11
3.72694
21
-5.82893
0
LINE
8
BLACK
6
CONTINUOUS
10
3.72694
20
-5.82893
11
3.71944
21
-5.82893
0
LINE
8
BLACK
6
CONTINUOUS
10
3.71944
20
-5.82893
11
3.71194
21
-5.82518
0
LINE
8
BLACK
6
CONTINUOUS
10
3.71194
20
-5.82518
11
3.70819
21
-5.82143
0
LINE
8
BLACK
6
CONTINUOUS
10
3.70819
20
-5.82143
11
3.70444
21
-5.81393
0
LINE
8
BLACK
6
CONTINUOUS
10
3.70444
20
-5.81393
11
3.70069
21
-5.79893
0
LINE
8
BLACK
6
CONTINUOUS
10
3.70069
20
-5.79893
11
3.70069
21
-5.78018
0
LINE
8
BLACK
6
CONTINUOUS
10
3.70069
20
-5.78018
11
3.70444
21
-5.76519
0
LINE
8
BLACK
6
CONTINUOUS
10
3.70444
20
-5.76519
11
3.70819
21
-5.75769
0
LINE
8
BLACK
6
CONTINUOUS
10
3.70819
20
-5.75769
11
3.71194
21
-5.75394
0
LINE
8
BLACK
6
CONTINUOUS
10
3.71194
20
-5.75394
11
3.71944
21
-5.75019
0
LINE
8
BLACK
6
CONTINUOUS
10
3.77943
20
-5.82893
11
3.77943
21
-5.77643
0
LINE
8
BLACK
6
CONTINUOUS
10
3.77943
20
-5.78393
11
3.78318
21
-5.78018
0
LINE
8
BLACK
6
CONTINUOUS
10
3.78318
20
-5.78018
11
3.79068
21
-5.77643
0
LINE
8
BLACK
6
CONTINUOUS
10
3.79068
20
-5.77643
11
3.80193
21
-5.77643
0
LINE
8
BLACK
6
CONTINUOUS
10
3.80193
20
-5.77643
11
3.80943
21
-5.78018
0
LINE
8
BLACK
6
CONTINUOUS
10
3.80943
20
-5.78018
11
3.81318
21
-5.78768
0
LINE
8
BLACK
6
CONTINUOUS
10
3.81318
20
-5.78768
11
3.81318
21
-5.82893
0
LINE
8
BLACK
6
CONTINUOUS
10
3.81318
20
-5.78768
11
3.81693
21
-5.78018
0
LINE
8
BLACK
6
CONTINUOUS
10
3.81693
20
-5.78018
11
3.82443
21
-5.77643
0
LINE
8
BLACK
6
CONTINUOUS
10
3.82443
20
-5.77643
11
3.83568
21
-5.77643
0
LINE
8
BLACK
6
CONTINUOUS
10
3.83568
20
-5.77643
11
3.84318
21
-5.78018
0
LINE
8
BLACK
6
CONTINUOUS
10
3.84318
20
-5.78018
11
3.84693
21
-5.78768
0
LINE
8
BLACK
6
CONTINUOUS
10
3.84693
20
-5.78768
11
3.84693
21
-5.82893
0
LINE
8
BLACK
6
CONTINUOUS
10
3.88442
20
-5.82893
11
3.88442
21
-5.77643
0
LINE
8
BLACK
6
CONTINUOUS
10
3.88442
20
-5.78393
11
3.88817
21
-5.78018
0
LINE
8
BLACK
6
CONTINUOUS
10
3.88817
20
-5.78018
11
3.89567
21
-5.77643
0
LINE
8
BLACK
6
CONTINUOUS
10
3.89567
20
-5.77643
11
3.90692
21
-5.77643
0
LINE
8
BLACK
6
CONTINUOUS
10
3.90692
20
-5.77643
11
3.91442
21
-5.78018
0
LINE
8
BLACK
6
CONTINUOUS
10
3.91442
20
-5.78018
11
3.91817
21
-5.78768
0
LINE
8
BLACK
6
CONTINUOUS
10
3.91817
20
-5.78768
11
3.91817
21
-5.82893
0
LINE
8
BLACK
6
CONTINUOUS
10
3.91817
20
-5.78768
11
3.92192
21
-5.78018
0
LINE
8
BLACK
6
CONTINUOUS
10
3.92192
20
-5.78018
11
3.92942
21
-5.77643
0
LINE
8
BLACK
6
CONTINUOUS
10
3.92942
20
-5.77643
11
3.94066
21
-5.77643
0
LINE
8
BLACK
6
CONTINUOUS
10
3.94066
20
-5.77643
11
3.94816
21
-5.78018
0
LINE
8
BLACK
6
CONTINUOUS
10
3.94816
20
-5.78018
11
3.95191
21
-5.78768
0
LINE
8
BLACK
6
CONTINUOUS
10
3.95191
20
-5.78768
11
3.95191
21
-5.82893
0
LINE
8
BLACK
6
CONTINUOUS
10
4.10564
20
-5.74644
11
4.03815
21
-5.84768
0
LINE
8
BLACK
6
CONTINUOUS
10
4.20688
20
-5.75019
11
4.21438
21
-5.75019
0
LINE
8
BLACK
6
CONTINUOUS
10
4.21438
20
-5.75019
11
4.22188
21
-5.75394
0
LINE
8
BLACK
6
CONTINUOUS
10
4.22188
20
-5.75394
11
4.22563
21
-5.75769
0
LINE
8
BLACK
6
CONTINUOUS
10
4.22563
20
-5.75769
11
4.22938
21
-5.76519
0
LINE
8
BLACK
6
CONTINUOUS
10
4.22938
20
-5.76519
11
4.23313
21
-5.78018
0
LINE
8
BLACK
6
CONTINUOUS
10
4.23313
20
-5.78018
11
4.23313
21
-5.79893
0
LINE
8
BLACK
6
CONTINUOUS
10
4.23313
20
-5.79893
11
4.22938
21
-5.81393
0
LINE
8
BLACK
6
CONTINUOUS
10
4.22938
20
-5.81393
11
4.22563
21
-5.82143
0
LINE
8
BLACK
6
CONTINUOUS
10
4.22563
20
-5.82143
11
4.22188
21
-5.82518
0
LINE
8
BLACK
6
CONTINUOUS
10
4.22188
20
-5.82518
11
4.21438
21
-5.82893
0
LINE
8
BLACK
6
CONTINUOUS
10
4.21438
20
-5.82893
11
4.20688
21
-5.82893
0
LINE
8
BLACK
6
CONTINUOUS
10
4.20688
20
-5.82893
11
4.19938
21
-5.82518
0
LINE
8
BLACK
6
CONTINUOUS
10
4.19938
20
-5.82518
11
4.19563
21
-5.82143
0
LINE
8
BLACK
6
CONTINUOUS
10
4.19563
20
-5.82143
11
4.19188
21
-5.81393
0
LINE
8
BLACK
6
CONTINUOUS
10
4.19188
20
-5.81393
11
4.18813
21
-5.79893
0
LINE
8
BLACK
6
CONTINUOUS
10
4.18813
20
-5.79893
11
4.18813
21
-5.78018
0
LINE
8
BLACK
6
CONTINUOUS
10
4.18813
20
-5.78018
11
4.19188
21
-5.76519
0
LINE
8
BLACK
6
CONTINUOUS
10
4.19188
20
-5.76519
11
4.19563
21
-5.75769
0
LINE
8
BLACK
6
CONTINUOUS
10
4.19563
20
-5.75769
11
4.19938
21
-5.75394
0
LINE
8
BLACK
6
CONTINUOUS
10
4.19938
20
-5.75394
11
4.20688
21
-5.75019
0
LINE
8
BLACK
6
CONTINUOUS
10
4.26687
20
-5.82143
11
4.27062
21
-5.82518
0
LINE
8
BLACK
6
CONTINUOUS
10
4.27062
20
-5.82518
11
4.26687
21
-5.82893
0
LINE
8
BLACK
6
CONTINUOUS
10
4.26687
20
-5.82893
11
4.26312
21
-5.82518
0
LINE
8
BLACK
6
CONTINUOUS
10
4.26312
20
-5.82518
11
4.26687
21
-5.82143
0
LINE
8
BLACK
6
CONTINUOUS
10
4.26687
20
-5.82143
11
4.26687
21
-5.82893
0
LINE
8
BLACK
6
CONTINUOUS
10
4.31937
20
-5.75019
11
4.32687
21
-5.75019
0
LINE
8
BLACK
6
CONTINUOUS
10
4.32687
20
-5.75019
11
4.33436
21
-5.75394
0
LINE
8
BLACK
6
CONTINUOUS
10
4.33436
20
-5.75394
11
4.33811
21
-5.75769
0
LINE
8
BLACK
6
CONTINUOUS
10
4.33811
20
-5.75769
11
4.34186
21
-5.76519
0
LINE
8
BLACK
6
CONTINUOUS
10
4.34186
20
-5.76519
11
4.34561
21
-5.78018
0
LINE
8
BLACK
6
CONTINUOUS
10
4.34561
20
-5.78018
11
4.34561
21
-5.79893
0
LINE
8
BLACK
6
CONTINUOUS
10
4.34561
20
-5.79893
11
4.34186
21
-5.81393
0
LINE
8
BLACK
6
CONTINUOUS
10
4.34186
20
-5.81393
11
4.33811
21
-5.82143
0
LINE
8
BLACK
6
CONTINUOUS
10
4.33811
20
-5.82143
11
4.33436
21
-5.82518
0
LINE
8
BLACK
6
CONTINUOUS
10
4.33436
20
-5.82518
11
4.32687
21
-5.82893
0
LINE
8
BLACK
6
CONTINUOUS
10
4.32687
20
-5.82893
11
4.31937
21
-5.82893
0
LINE
8
BLACK
6
CONTINUOUS
10
4.31937
20
-5.82893
11
4.31187
21
-5.82518
0
LINE
8
BLACK
6
CONTINUOUS
10
4.31187
20
-5.82518
11
4.30812
21
-5.82143
0
LINE
8
BLACK
6
CONTINUOUS
10
4.30812
20
-5.82143
11
4.30437
21
-5.81393
0
LINE
8
BLACK
6
CONTINUOUS
10
4.30437
20
-5.81393
11
4.30062
21
-5.79893
0
LINE
8
BLACK
6
CONTINUOUS
10
4.30062
20
-5.79893
11
4.30062
21
-5.78018
0
LINE
8
BLACK
6
CONTINUOUS
10
4.30062
20
-5.78018
11
4.30437
21
-5.76519
0
LINE
8
BLACK
6
CONTINUOUS
10
4.30437
20
-5.76519
11
4.30812
21
-5.75769
0
LINE
8
BLACK
6
CONTINUOUS
10
4.30812
20
-5.75769
11
4.31187
21
-5.75394
0
LINE
8
BLACK
6
CONTINUOUS
10
4.31187
20
-5.75394
11
4.31937
21
-5.75019
0
LINE
8
BLACK
6
CONTINUOUS
10
4.4206
20
-5.82893
11
4.37561
21
-5.82893
0
LINE
8
BLACK
6
CONTINUOUS
10
4.39811
20
-5.82893
11
4.39811
21
-5.75019
0
LINE
8
BLACK
6
CONTINUOUS
10
4.39811
20
-5.75019
11
4.39061
21
-5.76144
0
LINE
8
BLACK
6
CONTINUOUS
10
4.39061
20
-5.76144
11
4.38311
21
-5.76894
0
LINE
8
BLACK
6
CONTINUOUS
10
4.38311
20
-5.76894
11
4.37561
21
-5.77268
0
LINE
8
BLACK
6
CONTINUOUS
10
4.49184
20
-5.75019
11
4.45435
21
-5.75019
0
LINE
8
BLACK
6
CONTINUOUS
10
4.45435
20
-5.75019
11
4.4506
21
-5.78768
0
LINE
8
BLACK
6
CONTINUOUS
10
4.4506
20
-5.78768
11
4.45435
21
-5.78393
0
LINE
8
BLACK
6
CONTINUOUS
10
4.45435
20
-5.78393
11
4.46185
21
-5.78018
0
LINE
8
BLACK
6
CONTINUOUS
10
4.46185
20
-5.78018
11
4.4806
21
-5.78018
0
LINE
8
BLACK
6
CONTINUOUS
10
4.4806
20
-5.78018
11
4.4881
21
-5.78393
0
LINE
8
BLACK
6
CONTINUOUS
10
4.4881
20
-5.78393
11
4.49184
21
-5.78768
0
LINE
8
BLACK
6
CONTINUOUS
10
4.49184
20
-5.78768
11
4.49559
21
-5.79518
0
LINE
8
BLACK
6
CONTINUOUS
10
4.49559
20
-5.79518
11
4.49559
21
-5.81393
0
LINE
8
BLACK
6
CONTINUOUS
10
4.49559
20
-5.81393
11
4.49184
21
-5.82143
0
LINE
8
BLACK
6
CONTINUOUS
10
4.49184
20
-5.82143
11
4.4881
21
-5.82518
0
LINE
8
BLACK
6
CONTINUOUS
10
4.4881
20
-5.82518
11
4.4806
21
-5.82893
0
LINE
8
BLACK
6
CONTINUOUS
10
4.4806
20
-5.82893
11
4.46185
21
-5.82893
0
LINE
8
BLACK
6
CONTINUOUS
10
4.46185
20
-5.82893
11
4.45435
21
-5.82518
0
LINE
8
BLACK
6
CONTINUOUS
10
4.45435
20
-5.82518
11
4.4506
21
-5.82143
0
LINE
8
BLACK
6
CONTINUOUS
10
4.52184
20
-5.75019
11
4.57433
21
-5.75019
0
LINE
8
BLACK
6
CONTINUOUS
10
4.57433
20
-5.75019
11
4.54059
21
-5.82893
0
LINE
8
BLACK
6
CONTINUOUS
10
4.60058
20
-5.75019
11
4.60058
21
-5.76519
0
LINE
8
BLACK
6
CONTINUOUS
10
4.63058
20
-5.75019
11
4.63058
21
-5.76519
0
LINE
8
BLACK
6
CONTINUOUS
10
4.74681
20
-5.85892
11
4.74306
21
-5.85517
0
LINE
8
BLACK
6
CONTINUOUS
10
4.74306
20
-5.85517
11
4.73556
21
-5.84393
0
LINE
8
BLACK
6
CONTINUOUS
10
4.73556
20
-5.84393
11
4.73181
21
-5.83643
0
LINE
8
BLACK
6
CONTINUOUS
10
4.73181
20
-5.83643
11
4.72807
21
-5.82518
0
LINE
8
BLACK
6
CONTINUOUS
10
4.72807
20
-5.82518
11
4.72432
21
-5.80643
0
LINE
8
BLACK
6
CONTINUOUS
10
4.72432
20
-5.80643
11
4.72432
21
-5.79143
0
LINE
8
BLACK
6
CONTINUOUS
10
4.72432
20
-5.79143
11
4.72807
21
-5.77268
0
LINE
8
BLACK
6
CONTINUOUS
10
4.72807
20
-5.77268
11
4.73181
21
-5.76144
0
LINE
8
BLACK
6
CONTINUOUS
10
4.73181
20
-5.76144
11
4.73556
21
-5.75394
0
LINE
8
BLACK
6
CONTINUOUS
10
4.73556
20
-5.75394
11
4.74306
21
-5.74269
0
LINE
8
BLACK
6
CONTINUOUS
10
4.74306
20
-5.74269
11
4.74681
21
-5.73894
0
LINE
8
BLACK
6
CONTINUOUS
10
4.81055
20
-5.75019
11
4.79556
21
-5.75019
0
LINE
8
BLACK
6
CONTINUOUS
10
4.79556
20
-5.75019
11
4.78806
21
-5.75394
0
LINE
8
BLACK
6
CONTINUOUS
10
4.78806
20
-5.75394
11
4.78431
21
-5.75769
0
LINE
8
BLACK
6
CONTINUOUS
10
4.78431
20
-5.75769
11
4.77681
21
-5.76894
0
LINE
8
BLACK
6
CONTINUOUS
10
4.77681
20
-5.76894
11
4.77306
21
-5.78393
0
LINE
8
BLACK
6
CONTINUOUS
10
4.77306
20
-5.78393
11
4.77306
21
-5.81393
0
LINE
8
BLACK
6
CONTINUOUS
10
4.77306
20
-5.81393
11
4.77681
21
-5.82143
0
LINE
8
BLACK
6
CONTINUOUS
10
4.77681
20
-5.82143
11
4.78056
21
-5.82518
0
LINE
8
BLACK
6
CONTINUOUS
10
4.78056
20
-5.82518
11
4.78806
21
-5.82893
0
LINE
8
BLACK
6
CONTINUOUS
10
4.78806
20
-5.82893
11
4.80306
21
-5.82893
0
LINE
8
BLACK
6
CONTINUOUS
10
4.80306
20
-5.82893
11
4.81055
21
-5.82518
0
LINE
8
BLACK
6
CONTINUOUS
10
4.81055
20
-5.82518
11
4.8143
21
-5.82143
0
LINE
8
BLACK
6
CONTINUOUS
10
4.8143
20
-5.82143
11
4.81805
21
-5.81393
0
LINE
8
BLACK
6
CONTINUOUS
10
4.81805
20
-5.81393
11
4.81805
21
-5.79518
0
LINE
8
BLACK
6
CONTINUOUS
10
4.81805
20
-5.79518
11
4.8143
21
-5.78768
0
LINE
8
BLACK
6
CONTINUOUS
10
4.8143
20
-5.78768
11
4.81055
21
-5.78393
0
LINE
8
BLACK
6
CONTINUOUS
10
4.81055
20
-5.78393
11
4.80306
21
-5.78018
0
LINE
8
BLACK
6
CONTINUOUS
10
4.80306
20
-5.78018
11
4.78806
21
-5.78018
0
LINE
8
BLACK
6
CONTINUOUS
10
4.78806
20
-5.78018
11
4.78056
21
-5.78393
0
LINE
8
BLACK
6
CONTINUOUS
10
4.78056
20
-5.78393
11
4.77681
21
-5.78768
0
LINE
8
BLACK
6
CONTINUOUS
10
4.77681
20
-5.78768
11
4.77306
21
-5.79518
0
LINE
8
BLACK
6
CONTINUOUS
10
4.86305
20
-5.78393
11
4.85555
21
-5.78018
0
LINE
8
BLACK
6
CONTINUOUS
10
4.85555
20
-5.78018
11
4.8518
21
-5.77643
0
LINE
8
BLACK
6
CONTINUOUS
10
4.8518
20
-5.77643
11
4.84805
21
-5.76894
0
LINE
8
BLACK
6
CONTINUOUS
10
4.84805
20
-5.76894
11
4.84805
21
-5.76519
0
LINE
8
BLACK
6
CONTINUOUS
10
4.84805
20
-5.76519
11
4.8518
21
-5.75769
0
LINE
8
BLACK
6
CONTINUOUS
10
4.8518
20
-5.75769
11
4.85555
21
-5.75394
0
LINE
8
BLACK
6
CONTINUOUS
10
4.85555
20
-5.75394
11
4.86305
21
-5.75019
0
LINE
8
BLACK
6
CONTINUOUS
10
4.86305
20
-5.75019
11
4.87805
21
-5.75019
0
LINE
8
BLACK
6
CONTINUOUS
10
4.87805
20
-5.75019
11
4.88555
21
-5.75394
0
LINE
8
BLACK
6
CONTINUOUS
10
4.88555
20
-5.75394
11
4.8893
21
-5.75769
0
LINE
8
BLACK
6
CONTINUOUS
10
4.8893
20
-5.75769
11
4.89304
21
-5.76519
0
LINE
8
BLACK
6
CONTINUOUS
10
4.89304
20
-5.76519
11
4.89304
21
-5.76894
0
LINE
8
BLACK
6
CONTINUOUS
10
4.89304
20
-5.76894
11
4.8893
21
-5.77643
0
LINE
8
BLACK
6
CONTINUOUS
10
4.8893
20
-5.77643
11
4.88555
21
-5.78018
0
LINE
8
BLACK
6
CONTINUOUS
10
4.88555
20
-5.78018
11
4.87805
21
-5.78393
0
LINE
8
BLACK
6
CONTINUOUS
10
4.87805
20
-5.78393
11
4.86305
21
-5.78393
0
LINE
8
BLACK
6
CONTINUOUS
10
4.86305
20
-5.78393
11
4.85555
21
-5.78768
0
LINE
8
BLACK
6
CONTINUOUS
10
4.85555
20
-5.78768
11
4.8518
21
-5.79143
0
LINE
8
BLACK
6
CONTINUOUS
10
4.8518
20
-5.79143
11
4.84805
21
-5.79893
0
LINE
8
BLACK
6
CONTINUOUS
10
4.84805
20
-5.79893
11
4.84805
21
-5.81393
0
LINE
8
BLACK
6
CONTINUOUS
10
4.84805
20
-5.81393
11
4.8518
21
-5.82143
0
LINE
8
BLACK
6
CONTINUOUS
10
4.8518
20
-5.82143
11
4.85555
21
-5.82518
0
LINE
8
BLACK
6
CONTINUOUS
10
4.85555
20
-5.82518
11
4.86305
21
-5.82893
0
LINE
8
BLACK
6
CONTINUOUS
10
4.86305
20
-5.82893
11
4.87805
21
-5.82893
0
LINE
8
BLACK
6
CONTINUOUS
10
4.87805
20
-5.82893
11
4.88555
21
-5.82518
0
LINE
8
BLACK
6
CONTINUOUS
10
4.88555
20
-5.82518
11
4.8893
21
-5.82143
0
LINE
8
BLACK
6
CONTINUOUS
10
4.8893
20
-5.82143
11
4.89304
21
-5.81393
0
LINE
8
BLACK
6
CONTINUOUS
10
4.89304
20
-5.81393
11
4.89304
21
-5.79893
0
LINE
8
BLACK
6
CONTINUOUS
10
4.89304
20
-5.79893
11
4.8893
21
-5.79143
0
LINE
8
BLACK
6
CONTINUOUS
10
4.8893
20
-5.79143
11
4.88555
21
-5.78768
0
LINE
8
BLACK
6
CONTINUOUS
10
4.88555
20
-5.78768
11
4.87805
21
-5.78393
0
LINE
8
BLACK
6
CONTINUOUS
10
4.98678
20
-5.82893
11
4.98678
21
-5.75019
0
LINE
8
BLACK
6
CONTINUOUS
10
5.02053
20
-5.82893
11
5.02053
21
-5.78768
0
LINE
8
BLACK
6
CONTINUOUS
10
5.02053
20
-5.78768
11
5.01678
21
-5.78018
0
LINE
8
BLACK
6
CONTINUOUS
10
5.01678
20
-5.78018
11
5.00928
21
-5.77643
0
LINE
8
BLACK
6
CONTINUOUS
10
5.00928
20
-5.77643
11
4.99803
21
-5.77643
0
LINE
8
BLACK
6
CONTINUOUS
10
4.99803
20
-5.77643
11
4.99053
21
-5.78018
0
LINE
8
BLACK
6
CONTINUOUS
10
4.99053
20
-5.78018
11
4.98678
21
-5.78393
0
LINE
8
BLACK
6
CONTINUOUS
10
5.06927
20
-5.82893
11
5.06177
21
-5.82518
0
LINE
8
BLACK
6
CONTINUOUS
10
5.06177
20
-5.82518
11
5.05802
21
-5.82143
0
LINE
8
BLACK
6
CONTINUOUS
10
5.05802
20
-5.82143
11
5.05427
21
-5.81393
0
LINE
8
BLACK
6
CONTINUOUS
10
5.05427
20
-5.81393
11
5.05427
21
-5.79143
0
LINE
8
BLACK
6
CONTINUOUS
10
5.05427
20
-5.79143
11
5.05802
21
-5.78393
0
LINE
8
BLACK
6
CONTINUOUS
10
5.05802
20
-5.78393
11
5.06177
21
-5.78018
0
LINE
8
BLACK
6
CONTINUOUS
10
5.06177
20
-5.78018
11
5.06927
21
-5.77643
0
LINE
8
BLACK
6
CONTINUOUS
10
5.06927
20
-5.77643
11
5.08052
21
-5.77643
0
LINE
8
BLACK
6
CONTINUOUS
10
5.08052
20
-5.77643
11
5.08802
21
-5.78018
0
LINE
8
BLACK
6
CONTINUOUS
10
5.08802
20
-5.78018
11
5.09177
21
-5.78393
0
LINE
8
BLACK
6
CONTINUOUS
10
5.09177
20
-5.78393
11
5.09552
21
-5.79143
0
LINE
8
BLACK
6
CONTINUOUS
10
5.09552
20
-5.79143
11
5.09552
21
-5.81393
0
LINE
8
BLACK
6
CONTINUOUS
10
5.09552
20
-5.81393
11
5.09177
21
-5.82143
0
LINE
8
BLACK
6
CONTINUOUS
10
5.09177
20
-5.82143
11
5.08802
21
-5.82518
0
LINE
8
BLACK
6
CONTINUOUS
10
5.08802
20
-5.82518
11
5.08052
21
-5.82893
0
LINE
8
BLACK
6
CONTINUOUS
10
5.08052
20
-5.82893
11
5.06927
21
-5.82893
0
LINE
8
BLACK
6
CONTINUOUS
10
5.14051
20
-5.82893
11
5.13301
21
-5.82518
0
LINE
8
BLACK
6
CONTINUOUS
10
5.13301
20
-5.82518
11
5.12927
21
-5.81768
0
LINE
8
BLACK
6
CONTINUOUS
10
5.12927
20
-5.81768
11
5.12927
21
-5.75019
0
LINE
8
BLACK
6
CONTINUOUS
10
5.20051
20
-5.82518
11
5.19301
21
-5.82893
0
LINE
8
BLACK
6
CONTINUOUS
10
5.19301
20
-5.82893
11
5.17801
21
-5.82893
0
LINE
8
BLACK
6
CONTINUOUS
10
5.17801
20
-5.82893
11
5.17051
21
-5.82518
0
LINE
8
BLACK
6
CONTINUOUS
10
5.17051
20
-5.82518
11
5.16676
21
-5.81768
0
LINE
8
BLACK
6
CONTINUOUS
10
5.16676
20
-5.81768
11
5.16676
21
-5.78768
0
LINE
8
BLACK
6
CONTINUOUS
10
5.16676
20
-5.78768
11
5.17051
21
-5.78018
0
LINE
8
BLACK
6
CONTINUOUS
10
5.17051
20
-5.78018
11
5.17801
21
-5.77643
0
LINE
8
BLACK
6
CONTINUOUS
10
5.17801
20
-5.77643
11
5.19301
21
-5.77643
0
LINE
8
BLACK
6
CONTINUOUS
10
5.19301
20
-5.77643
11
5.20051
21
-5.78018
0
LINE
8
BLACK
6
CONTINUOUS
10
5.20051
20
-5.78018
11
5.20426
21
-5.78768
0
LINE
8
BLACK
6
CONTINUOUS
10
5.20426
20
-5.78768
11
5.20426
21
-5.79518
0
LINE
8
BLACK
6
CONTINUOUS
10
5.20426
20
-5.79518
11
5.16676
21
-5.80268
0
LINE
8
BLACK
6
CONTINUOUS
10
5.23425
20
-5.82518
11
5.24175
21
-5.82893
0
LINE
8
BLACK
6
CONTINUOUS
10
5.24175
20
-5.82893
11
5.25675
21
-5.82893
0
LINE
8
BLACK
6
CONTINUOUS
10
5.25675
20
-5.82893
11
5.26425
21
-5.82518
0
LINE
8
BLACK
6
CONTINUOUS
10
5.26425
20
-5.82518
11
5.268
21
-5.81768
0
LINE
8
BLACK
6
CONTINUOUS
10
5.268
20
-5.81768
11
5.268
21
-5.81393
0
LINE
8
BLACK
6
CONTINUOUS
10
5.268
20
-5.81393
11
5.26425
21
-5.80643
0
LINE
8
BLACK
6
CONTINUOUS
10
5.26425
20
-5.80643
11
5.25675
21
-5.80268
0
LINE
8
BLACK
6
CONTINUOUS
10
5.25675
20
-5.80268
11
5.2455
21
-5.80268
0
LINE
8
BLACK
6
CONTINUOUS
10
5.2455
20
-5.80268
11
5.238
21
-5.79893
0
LINE
8
BLACK
6
CONTINUOUS
10
5.238
20
-5.79893
11
5.23425
21
-5.79143
0
LINE
8
BLACK
6
CONTINUOUS
10
5.23425
20
-5.79143
11
5.23425
21
-5.78768
0
LINE
8
BLACK
6
CONTINUOUS
10
5.23425
20
-5.78768
11
5.238
21
-5.78018
0
LINE
8
BLACK
6
CONTINUOUS
10
5.238
20
-5.78018
11
5.2455
21
-5.77643
0
LINE
8
BLACK
6
CONTINUOUS
10
5.2455
20
-5.77643
11
5.25675
21
-5.77643
0
LINE
8
BLACK
6
CONTINUOUS
10
5.25675
20
-5.77643
11
5.26425
21
-5.78018
0
LINE
8
BLACK
6
CONTINUOUS
10
5.29424
20
-5.85892
11
5.29799
21
-5.85517
0
LINE
8
BLACK
6
CONTINUOUS
10
5.29799
20
-5.85517
11
5.30549
21
-5.84393
0
LINE
8
BLACK
6
CONTINUOUS
10
5.30549
20
-5.84393
11
5.30924
21
-5.83643
0
LINE
8
BLACK
6
CONTINUOUS
10
5.30924
20
-5.83643
11
5.31299
21
-5.82518
0
LINE
8
BLACK
6
CONTINUOUS
10
5.31299
20
-5.82518
11
5.31674
21
-5.80643
0
LINE
8
BLACK
6
CONTINUOUS
10
5.31674
20
-5.80643
11
5.31674
21
-5.79143
0
LINE
8
BLACK
6
CONTINUOUS
10
5.31674
20
-5.79143
11
5.31299
21
-5.77268
0
LINE
8
BLACK
6
CONTINUOUS
10
5.31299
20
-5.77268
11
5.30924
21
-5.76144
0
LINE
8
BLACK
6
CONTINUOUS
10
5.30924
20
-5.76144
11
5.30549
21
-5.75394
0
LINE
8
BLACK
6
CONTINUOUS
10
5.30549
20
-5.75394
11
5.29799
21
-5.74269
0
LINE
8
BLACK
6
CONTINUOUS
10
5.29799
20
-5.74269
11
5.29424
21
-5.73894
0
CIRCLE
8
BLACK
10
3.32874
20
-5.89724
40
0.011811
0
LINE
8
BLACK
6
CONTINUOUS
10
3.45697
20
-5.85412
11
3.46447
21
-5.85412
0
LINE
8
BLACK
6
CONTINUOUS
10
3.46447
20
-5.85412
11
3.47197
21
-5.85787
0
LINE
8
BLACK
6
CONTINUOUS
10
3.47197
20
-5.85787
11
3.47572
21
-5.86162
0
LINE
8
BLACK
6
CONTINUOUS
10
3.47572
20
-5.86162
11
3.47947
21
-5.86912
0
LINE
8
BLACK
6
CONTINUOUS
10
3.47947
20
-5.86912
11
3.48322
21
-5.88412
0
LINE
8
BLACK
6
CONTINUOUS
10
3.48322
20
-5.88412
11
3.48322
21
-5.90287
0
LINE
8
BLACK
6
CONTINUOUS
10
3.48322
20
-5.90287
11
3.47947
21
-5.91787
0
LINE
8
BLACK
6
CONTINUOUS
10
3.47947
20
-5.91787
11
3.47572
21
-5.92537
0
LINE
8
BLACK
6
CONTINUOUS
10
3.47572
20
-5.92537
11
3.47197
21
-5.92912
0
LINE
8
BLACK
6
CONTINUOUS
10
3.47197
20
-5.92912
11
3.46447
21
-5.93286
0
LINE
8
BLACK
6
CONTINUOUS
10
3.46447
20
-5.93286
11
3.45697
21
-5.93286
0
LINE
8
BLACK
6
CONTINUOUS
10
3.45697
20
-5.93286
11
3.44948
21
-5.92912
0
LINE
8
BLACK
6
CONTINUOUS
10
3.44948
20
-5.92912
11
3.44573
21
-5.92537
0
LINE
8
BLACK
6
CONTINUOUS
10
3.44573
20
-5.92537
11
3.44198
21
-5.91787
0
LINE
8
BLACK
6
CONTINUOUS
10
3.44198
20
-5.91787
11
3.43823
21
-5.90287
0
LINE
8
BLACK
6
CONTINUOUS
10
3.43823
20
-5.90287
11
3.43823
21
-5.88412
0
LINE
8
BLACK
6
CONTINUOUS
10
3.43823
20
-5.88412
11
3.44198
21
-5.86912
0
LINE
8
BLACK
6
CONTINUOUS
10
3.44198
20
-5.86912
11
3.44573
21
-5.86162
0
LINE
8
BLACK
6
CONTINUOUS
10
3.44573
20
-5.86162
11
3.44948
21
-5.85787
0
LINE
8
BLACK
6
CONTINUOUS
10
3.44948
20
-5.85787
11
3.45697
21
-5.85412
0
LINE
8
BLACK
6
CONTINUOUS
10
3.51697
20
-5.92537
11
3.52072
21
-5.92912
0
LINE
8
BLACK
6
CONTINUOUS
10
3.52072
20
-5.92912
11
3.51697
21
-5.93286
0
LINE
8
BLACK
6
CONTINUOUS
10
3.51697
20
-5.93286
11
3.51322
21
-5.92912
0
LINE
8
BLACK
6
CONTINUOUS
10
3.51322
20
-5.92912
11
3.51697
21
-5.92537
0
LINE
8
BLACK
6
CONTINUOUS
10
3.51697
20
-5.92537
11
3.51697
21
-5.93286
0
LINE
8
BLACK
6
CONTINUOUS
10
3.58821
20
-5.85412
11
3.57321
21
-5.85412
0
LINE
8
BLACK
6
CONTINUOUS
10
3.57321
20
-5.85412
11
3.56571
21
-5.85787
0
LINE
8
BLACK
6
CONTINUOUS
10
3.56571
20
-5.85787
11
3.56196
21
-5.86162
0
LINE
8
BLACK
6
CONTINUOUS
10
3.56196
20
-5.86162
11
3.55446
21
-5.87287
0
LINE
8
BLACK
6
CONTINUOUS
10
3.55446
20
-5.87287
11
3.55071
21
-5.88787
0
LINE
8
BLACK
6
CONTINUOUS
10
3.55071
20
-5.88787
11
3.55071
21
-5.91787
0
LINE
8
BLACK
6
CONTINUOUS
10
3.55071
20
-5.91787
11
3.55446
21
-5.92537
0
LINE
8
BLACK
6
CONTINUOUS
10
3.55446
20
-5.92537
11
3.55821
21
-5.92912
0
LINE
8
BLACK
6
CONTINUOUS
10
3.55821
20
-5.92912
11
3.56571
21
-5.93286
0
LINE
8
BLACK
6
CONTINUOUS
10
3.56571
20
-5.93286
11
3.58071
21
-5.93286
0
LINE
8
BLACK
6
CONTINUOUS
10
3.58071
20
-5.93286
11
3.58821
21
-5.92912
0
LINE
8
BLACK
6
CONTINUOUS
10
3.58821
20
-5.92912
11
3.59196
21
-5.92537
0
LINE
8
BLACK
6
CONTINUOUS
10
3.59196
20
-5.92537
11
3.59571
21
-5.91787
0
LINE
8
BLACK
6
CONTINUOUS
10
3.59571
20
-5.91787
11
3.59571
21
-5.89912
0
LINE
8
BLACK
6
CONTINUOUS
10
3.59571
20
-5.89912
11
3.59196
21
-5.89162
0
LINE
8
BLACK
6
CONTINUOUS
10
3.59196
20
-5.89162
11
3.58821
21
-5.88787
0
LINE
8
BLACK
6
CONTINUOUS
10
3.58821
20
-5.88787
11
3.58071
21
-5.88412
0
LINE
8
BLACK
6
CONTINUOUS
10
3.58071
20
-5.88412
11
3.56571
21
-5.88412
0
LINE
8
BLACK
6
CONTINUOUS
10
3.56571
20
-5.88412
11
3.55821
21
-5.88787
0
LINE
8
BLACK
6
CONTINUOUS
10
3.55821
20
-5.88787
11
3.55446
21
-5.89162
0
LINE
8
BLACK
6
CONTINUOUS
10
3.55446
20
-5.89162
11
3.55071
21
-5.89912
0
LINE
8
BLACK
6
CONTINUOUS
10
3.64445
20
-5.85412
11
3.65195
21
-5.85412
0
LINE
8
BLACK
6
CONTINUOUS
10
3.65195
20
-5.85412
11
3.65945
21
-5.85787
0
LINE
8
BLACK
6
CONTINUOUS
10
3.65945
20
-5.85787
11
3.6632
21
-5.86162
0
LINE
8
BLACK
6
CONTINUOUS
10
3.6632
20
-5.86162
11
3.66695
21
-5.86912
0
LINE
8
BLACK
6
CONTINUOUS
10
3.66695
20
-5.86912
11
3.6707
21
-5.88412
0
LINE
8
BLACK
6
CONTINUOUS
10
3.6707
20
-5.88412
11
3.6707
21
-5.90287
0
LINE
8
BLACK
6
CONTINUOUS
10
3.6707
20
-5.90287
11
3.66695
21
-5.91787
0
LINE
8
BLACK
6
CONTINUOUS
10
3.66695
20
-5.91787
11
3.6632
21
-5.92537
0
LINE
8
BLACK
6
CONTINUOUS
10
3.6632
20
-5.92537
11
3.65945
21
-5.92912
0
LINE
8
BLACK
6
CONTINUOUS
10
3.65945
20
-5.92912
11
3.65195
21
-5.93286
0
LINE
8
BLACK
6
CONTINUOUS
10
3.65195
20
-5.93286
11
3.64445
21
-5.93286
0
LINE
8
BLACK
6
CONTINUOUS
10
3.64445
20
-5.93286
11
3.63695
21
-5.92912
0
LINE
8
BLACK
6
CONTINUOUS
10
3.63695
20
-5.92912
11
3.6332
21
-5.92537
0
LINE
8
BLACK
6
CONTINUOUS
10
3.6332
20
-5.92537
11
3.62945
21
-5.91787
0
LINE
8
BLACK
6
CONTINUOUS
10
3.62945
20
-5.91787
11
3.6257
21
-5.90287
0
LINE
8
BLACK
6
CONTINUOUS
10
3.6257
20
-5.90287
11
3.6257
21
-5.88412
0
LINE
8
BLACK
6
CONTINUOUS
10
3.6257
20
-5.88412
11
3.62945
21
-5.86912
0
LINE
8
BLACK
6
CONTINUOUS
10
3.62945
20
-5.86912
11
3.6332
21
-5.86162
0
LINE
8
BLACK
6
CONTINUOUS
10
3.6332
20
-5.86162
11
3.63695
21
-5.85787
0
LINE
8
BLACK
6
CONTINUOUS
10
3.63695
20
-5.85787
11
3.64445
21
-5.85412
0
LINE
8
BLACK
6
CONTINUOUS
10
3.71944
20
-5.85412
11
3.72694
21
-5.85412
0
LINE
8
BLACK
6
CONTINUOUS
10
3.72694
20
-5.85412
11
3.73444
21
-5.85787
0
LINE
8
BLACK
6
CONTINUOUS
10
3.73444
20
-5.85787
11
3.73819
21
-5.86162
0
LINE
8
BLACK
6
CONTINUOUS
10
3.73819
20
-5.86162
11
3.74194
21
-5.86912
0
LINE
8
BLACK
6
CONTINUOUS
10
3.74194
20
-5.86912
11
3.74569
21
-5.88412
0
LINE
8
BLACK
6
CONTINUOUS
10
3.74569
20
-5.88412
11
3.74569
21
-5.90287
0
LINE
8
BLACK
6
CONTINUOUS
10
3.74569
20
-5.90287
11
3.74194
21
-5.91787
0
LINE
8
BLACK
6
CONTINUOUS
10
3.74194
20
-5.91787
11
3.73819
21
-5.92537
0
LINE
8
BLACK
6
CONTINUOUS
10
3.73819
20
-5.92537
11
3.73444
21
-5.92912
0
LINE
8
BLACK
6
CONTINUOUS
10
3.73444
20
-5.92912
11
3.72694
21
-5.93286
0
LINE
8
BLACK
6
CONTINUOUS
10
3.72694
20
-5.93286
11
3.71944
21
-5.93286
0
LINE
8
BLACK
6
CONTINUOUS
10
3.71944
20
-5.93286
11
3.71194
21
-5.92912
0
LINE
8
BLACK
6
CONTINUOUS
10
3.71194
20
-5.92912
11
3.70819
21
-5.92537
0
LINE
8
BLACK
6
CONTINUOUS
10
3.70819
20
-5.92537
11
3.70444
21
-5.91787
0
LINE
8
BLACK
6
CONTINUOUS
10
3.70444
20
-5.91787
11
3.70069
21
-5.90287
0
LINE
8
BLACK
6
CONTINUOUS
10
3.70069
20
-5.90287
11
3.70069
21
-5.88412
0
LINE
8
BLACK
6
CONTINUOUS
10
3.70069
20
-5.88412
11
3.70444
21
-5.86912
0
LINE
8
BLACK
6
CONTINUOUS
10
3.70444
20
-5.86912
11
3.70819
21
-5.86162
0
LINE
8
BLACK
6
CONTINUOUS
10
3.70819
20
-5.86162
11
3.71194
21
-5.85787
0
LINE
8
BLACK
6
CONTINUOUS
10
3.71194
20
-5.85787
11
3.71944
21
-5.85412
0
LINE
8
BLACK
6
CONTINUOUS
10
3.77943
20
-5.93286
11
3.77943
21
-5.88037
0
LINE
8
BLACK
6
CONTINUOUS
10
3.77943
20
-5.88787
11
3.78318
21
-5.88412
0
LINE
8
BLACK
6
CONTINUOUS
10
3.78318
20
-5.88412
11
3.79068
21
-5.88037
0
LINE
8
BLACK
6
CONTINUOUS
10
3.79068
20
-5.88037
11
3.80193
21
-5.88037
0
LINE
8
BLACK
6
CONTINUOUS
10
3.80193
20
-5.88037
11
3.80943
21
-5.88412
0
LINE
8
BLACK
6
CONTINUOUS
10
3.80943
20
-5.88412
11
3.81318
21
-5.89162
0
LINE
8
BLACK
6
CONTINUOUS
10
3.81318
20
-5.89162
11
3.81318
21
-5.93286
0
LINE
8
BLACK
6
CONTINUOUS
10
3.81318
20
-5.89162
11
3.81693
21
-5.88412
0
LINE
8
BLACK
6
CONTINUOUS
10
3.81693
20
-5.88412
11
3.82443
21
-5.88037
0
LINE
8
BLACK
6
CONTINUOUS
10
3.82443
20
-5.88037
11
3.83568
21
-5.88037
0
LINE
8
BLACK
6
CONTINUOUS
10
3.83568
20
-5.88037
11
3.84318
21
-5.88412
0
LINE
8
BLACK
6
CONTINUOUS
10
3.84318
20
-5.88412
11
3.84693
21
-5.89162
0
LINE
8
BLACK
6
CONTINUOUS
10
3.84693
20
-5.89162
11
3.84693
21
-5.93286
0
LINE
8
BLACK
6
CONTINUOUS
10
3.88442
20
-5.93286
11
3.88442
21
-5.88037
0
LINE
8
BLACK
6
CONTINUOUS
10
3.88442
20
-5.88787
11
3.88817
21
-5.88412
0
LINE
8
BLACK
6
CONTINUOUS
10
3.88817
20
-5.88412
11
3.89567
21
-5.88037
0
LINE
8
BLACK
6
CONTINUOUS
10
3.89567
20
-5.88037
11
3.90692
21
-5.88037
0
LINE
8
BLACK
6
CONTINUOUS
10
3.90692
20
-5.88037
11
3.91442
21
-5.88412
0
LINE
8
BLACK
6
CONTINUOUS
10
3.91442
20
-5.88412
11
3.91817
21
-5.89162
0
LINE
8
BLACK
6
CONTINUOUS
10
3.91817
20
-5.89162
11
3.91817
21
-5.93286
0
LINE
8
BLACK
6
CONTINUOUS
10
3.91817
20
-5.89162
11
3.92192
21
-5.88412
0
LINE
8
BLACK
6
CONTINUOUS
10
3.92192
20
-5.88412
11
3.92942
21
-5.88037
0
LINE
8
BLACK
6
CONTINUOUS
10
3.92942
20
-5.88037
11
3.94066
21
-5.88037
0
LINE
8
BLACK
6
CONTINUOUS
10
3.94066
20
-5.88037
11
3.94816
21
-5.88412
0
LINE
8
BLACK
6
CONTINUOUS
10
3.94816
20
-5.88412
11
3.95191
21
-5.89162
0
LINE
8
BLACK
6
CONTINUOUS
10
3.95191
20
-5.89162
11
3.95191
21
-5.93286
0
LINE
8
BLACK
6
CONTINUOUS
10
4.10564
20
-5.85037
11
4.03815
21
-5.95161
0
LINE
8
BLACK
6
CONTINUOUS
10
4.20688
20
-5.85412
11
4.21438
21
-5.85412
0
LINE
8
BLACK
6
CONTINUOUS
10
4.21438
20
-5.85412
11
4.22188
21
-5.85787
0
LINE
8
BLACK
6
CONTINUOUS
10
4.22188
20
-5.85787
11
4.22563
21
-5.86162
0
LINE
8
BLACK
6
CONTINUOUS
10
4.22563
20
-5.86162
11
4.22938
21
-5.86912
0
LINE
8
BLACK
6
CONTINUOUS
10
4.22938
20
-5.86912
11
4.23313
21
-5.88412
0
LINE
8
BLACK
6
CONTINUOUS
10
4.23313
20
-5.88412
11
4.23313
21
-5.90287
0
LINE
8
BLACK
6
CONTINUOUS
10
4.23313
20
-5.90287
11
4.22938
21
-5.91787
0
LINE
8
BLACK
6
CONTINUOUS
10
4.22938
20
-5.91787
11
4.22563
21
-5.92537
0
LINE
8
BLACK
6
CONTINUOUS
10
4.22563
20
-5.92537
11
4.22188
21
-5.92912
0
LINE
8
BLACK
6
CONTINUOUS
10
4.22188
20
-5.92912
11
4.21438
21
-5.93286
0
LINE
8
BLACK
6
CONTINUOUS
10
4.21438
20
-5.93286
11
4.20688
21
-5.93286
0
LINE
8
BLACK
6
CONTINUOUS
10
4.20688
20
-5.93286
11
4.19938
21
-5.92912
0
LINE
8
BLACK
6
CONTINUOUS
10
4.19938
20
-5.92912
11
4.19563
21
-5.92537
0
LINE
8
BLACK
6
CONTINUOUS
10
4.19563
20
-5.92537
11
4.19188
21
-5.91787
0
LINE
8
BLACK
6
CONTINUOUS
10
4.19188
20
-5.91787
11
4.18813
21
-5.90287
0
LINE
8
BLACK
6
CONTINUOUS
10
4.18813
20
-5.90287
11
4.18813
21
-5.88412
0
LINE
8
BLACK
6
CONTINUOUS
10
4.18813
20
-5.88412
11
4.19188
21
-5.86912
0
LINE
8
BLACK
6
CONTINUOUS
10
4.19188
20
-5.86912
11
4.19563
21
-5.86162
0
LINE
8
BLACK
6
CONTINUOUS
10
4.19563
20
-5.86162
11
4.19938
21
-5.85787
0
LINE
8
BLACK
6
CONTINUOUS
10
4.19938
20
-5.85787
11
4.20688
21
-5.85412
0
LINE
8
BLACK
6
CONTINUOUS
10
4.26687
20
-5.92537
11
4.27062
21
-5.92912
0
LINE
8
BLACK
6
CONTINUOUS
10
4.27062
20
-5.92912
11
4.26687
21
-5.93286
0
LINE
8
BLACK
6
CONTINUOUS
10
4.26687
20
-5.93286
11
4.26312
21
-5.92912
0
LINE
8
BLACK
6
CONTINUOUS
10
4.26312
20
-5.92912
11
4.26687
21
-5.92537
0
LINE
8
BLACK
6
CONTINUOUS
10
4.26687
20
-5.92537
11
4.26687
21
-5.93286
0
LINE
8
BLACK
6
CONTINUOUS
10
4.31937
20
-5.85412
11
4.32687
21
-5.85412
0
LINE
8
BLACK
6
CONTINUOUS
10
4.32687
20
-5.85412
11
4.33436
21
-5.85787
0
LINE
8
BLACK
6
CONTINUOUS
10
4.33436
20
-5.85787
11
4.33811
21
-5.86162
0
LINE
8
BLACK
6
CONTINUOUS
10
4.33811
20
-5.86162
11
4.34186
21
-5.86912
0
LINE
8
BLACK
6
CONTINUOUS
10
4.34186
20
-5.86912
11
4.34561
21
-5.88412
0
LINE
8
BLACK
6
CONTINUOUS
10
4.34561
20
-5.88412
11
4.34561
21
-5.90287
0
LINE
8
BLACK
6
CONTINUOUS
10
4.34561
20
-5.90287
11
4.34186
21
-5.91787
0
LINE
8
BLACK
6
CONTINUOUS
10
4.34186
20
-5.91787
11
4.33811
21
-5.92537
0
LINE
8
BLACK
6
CONTINUOUS
10
4.33811
20
-5.92537
11
4.33436
21
-5.92912
0
LINE
8
BLACK
6
CONTINUOUS
10
4.33436
20
-5.92912
11
4.32687
21
-5.93286
0
LINE
8
BLACK
6
CONTINUOUS
10
4.32687
20
-5.93286
11
4.31937
21
-5.93286
0
LINE
8
BLACK
6
CONTINUOUS
10
4.31937
20
-5.93286
11
4.31187
21
-5.92912
0
LINE
8
BLACK
6
CONTINUOUS
10
4.31187
20
-5.92912
11
4.30812
21
-5.92537
0
LINE
8
BLACK
6
CONTINUOUS
10
4.30812
20
-5.92537
11
4.30437
21
-5.91787
0
LINE
8
BLACK
6
CONTINUOUS
10
4.30437
20
-5.91787
11
4.30062
21
-5.90287
0
LINE
8
BLACK
6
CONTINUOUS
10
4.30062
20
-5.90287
11
4.30062
21
-5.88412
0
LINE
8
BLACK
6
CONTINUOUS
10
4.30062
20
-5.88412
11
4.30437
21
-5.86912
0
LINE
8
BLACK
6
CONTINUOUS
10
4.30437
20
-5.86912
11
4.30812
21
-5.86162
0
LINE
8
BLACK
6
CONTINUOUS
10
4.30812
20
-5.86162
11
4.31187
21
-5.85787
0
LINE
8
BLACK
6
CONTINUOUS
10
4.31187
20
-5.85787
11
4.31937
21
-5.85412
0
LINE
8
BLACK
6
CONTINUOUS
10
4.37561
20
-5.86162
11
4.37936
21
-5.85787
0
LINE
8
BLACK
6
CONTINUOUS
10
4.37936
20
-5.85787
11
4.38686
21
-5.85412
0
LINE
8
BLACK
6
CONTINUOUS
10
4.38686
20
-5.85412
11
4.40561
21
-5.85412
0
LINE
8
BLACK
6
CONTINUOUS
10
4.40561
20
-5.85412
11
4.4131
21
-5.85787
0
LINE
8
BLACK
6
CONTINUOUS
10
4.4131
20
-5.85787
11
4.41685
21
-5.86162
0
LINE
8
BLACK
6
CONTINUOUS
10
4.41685
20
-5.86162
11
4.4206
21
-5.86912
0
LINE
8
BLACK
6
CONTINUOUS
10
4.4206
20
-5.86912
11
4.4206
21
-5.87662
0
LINE
8
BLACK
6
CONTINUOUS
10
4.4206
20
-5.87662
11
4.41685
21
-5.88787
0
LINE
8
BLACK
6
CONTINUOUS
10
4.41685
20
-5.88787
11
4.37186
21
-5.93286
0
LINE
8
BLACK
6
CONTINUOUS
10
4.37186
20
-5.93286
11
4.4206
21
-5.93286
0
LINE
8
BLACK
6
CONTINUOUS
10
4.44685
20
-5.85412
11
4.49559
21
-5.85412
0
LINE
8
BLACK
6
CONTINUOUS
10
4.49559
20
-5.85412
11
4.46935
21
-5.88412
0
LINE
8
BLACK
6
CONTINUOUS
10
4.46935
20
-5.88412
11
4.4806
21
-5.88412
0
LINE
8
BLACK
6
CONTINUOUS
10
4.4806
20
-5.88412
11
4.4881
21
-5.88787
0
LINE
8
BLACK
6
CONTINUOUS
10
4.4881
20
-5.88787
11
4.49184
21
-5.89162
0
LINE
8
BLACK
6
CONTINUOUS
10
4.49184
20
-5.89162
11
4.49559
21
-5.89912
0
LINE
8
BLACK
6
CONTINUOUS
10
4.49559
20
-5.89912
11
4.49559
21
-5.91787
0
LINE
8
BLACK
6
CONTINUOUS
10
4.49559
20
-5.91787
11
4.49184
21
-5.92537
0
LINE
8
BLACK
6
CONTINUOUS
10
4.49184
20
-5.92537
11
4.4881
21
-5.92912
0
LINE
8
BLACK
6
CONTINUOUS
10
4.4881
20
-5.92912
11
4.4806
21
-5.93286
0
LINE
8
BLACK
6
CONTINUOUS
10
4.4806
20
-5.93286
11
4.4581
21
-5.93286
0
LINE
8
BLACK
6
CONTINUOUS
10
4.4581
20
-5.93286
11
4.4506
21
-5.92912
0
LINE
8
BLACK
6
CONTINUOUS
10
4.4506
20
-5.92912
11
4.44685
21
-5.92537
0
LINE
8
BLACK
6
CONTINUOUS
10
4.56309
20
-5.85412
11
4.54809
21
-5.85412
0
LINE
8
BLACK
6
CONTINUOUS
10
4.54809
20
-5.85412
11
4.54059
21
-5.85787
0
LINE
8
BLACK
6
CONTINUOUS
10
4.54059
20
-5.85787
11
4.53684
21
-5.86162
0
LINE
8
BLACK
6
CONTINUOUS
10
4.53684
20
-5.86162
11
4.52934
21
-5.87287
0
LINE
8
BLACK
6
CONTINUOUS
10
4.52934
20
-5.87287
11
4.52559
21
-5.88787
0
LINE
8
BLACK
6
CONTINUOUS
10
4.52559
20
-5.88787
11
4.52559
21
-5.91787
0
LINE
8
BLACK
6
CONTINUOUS
10
4.52559
20
-5.91787
11
4.52934
21
-5.92537
0
LINE
8
BLACK
6
CONTINUOUS
10
4.52934
20
-5.92537
11
4.53309
21
-5.92912
0
LINE
8
BLACK
6
CONTINUOUS
10
4.53309
20
-5.92912
11
4.54059
21
-5.93286
0
LINE
8
BLACK
6
CONTINUOUS
10
4.54059
20
-5.93286
11
4.55559
21
-5.93286
0
LINE
8
BLACK
6
CONTINUOUS
10
4.55559
20
-5.93286
11
4.56309
21
-5.92912
0
LINE
8
BLACK
6
CONTINUOUS
10
4.56309
20
-5.92912
11
4.56684
21
-5.92537
0
LINE
8
BLACK
6
CONTINUOUS
10
4.56684
20
-5.92537
11
4.57058
21
-5.91787
0
LINE
8
BLACK
6
CONTINUOUS
10
4.57058
20
-5.91787
11
4.57058
21
-5.89912
0
LINE
8
BLACK
6
CONTINUOUS
10
4.57058
20
-5.89912
11
4.56684
21
-5.89162
0
LINE
8
BLACK
6
CONTINUOUS
10
4.56684
20
-5.89162
11
4.56309
21
-5.88787
0
LINE
8
BLACK
6
CONTINUOUS
10
4.56309
20
-5.88787
11
4.55559
21
-5.88412
0
LINE
8
BLACK
6
CONTINUOUS
10
4.55559
20
-5.88412
11
4.54059
21
-5.88412
0
LINE
8
BLACK
6
CONTINUOUS
10
4.54059
20
-5.88412
11
4.53309
21
-5.88787
0
LINE
8
BLACK
6
CONTINUOUS
10
4.53309
20
-5.88787
11
4.52934
21
-5.89162
0
LINE
8
BLACK
6
CONTINUOUS
10
4.52934
20
-5.89162
11
4.52559
21
-5.89912
0
LINE
8
BLACK
6
CONTINUOUS
10
4.60058
20
-5.85412
11
4.60058
21
-5.86912
0
LINE
8
BLACK
6
CONTINUOUS
10
4.63058
20
-5.85412
11
4.63058
21
-5.86912
0
LINE
8
BLACK
6
CONTINUOUS
10
4.74681
20
-5.96286
11
4.74306
21
-5.95911
0
LINE
8
BLACK
6
CONTINUOUS
10
4.74306
20
-5.95911
11
4.73556
21
-5.94786
0
LINE
8
BLACK
6
CONTINUOUS
10
4.73556
20
-5.94786
11
4.73181
21
-5.94036
0
LINE
8
BLACK
6
CONTINUOUS
10
4.73181
20
-5.94036
11
4.72807
21
-5.92912
0
LINE
8
BLACK
6
CONTINUOUS
10
4.72807
20
-5.92912
11
4.72432
21
-5.91037
0
LINE
8
BLACK
6
CONTINUOUS
10
4.72432
20
-5.91037
11
4.72432
21
-5.89537
0
LINE
8
BLACK
6
CONTINUOUS
10
4.72432
20
-5.89537
11
4.72807
21
-5.87662
0
LINE
8
BLACK
6
CONTINUOUS
10
4.72807
20
-5.87662
11
4.73181
21
-5.86537
0
LINE
8
BLACK
6
CONTINUOUS
10
4.73181
20
-5.86537
11
4.73556
21
-5.85787
0
LINE
8
BLACK
6
CONTINUOUS
10
4.73556
20
-5.85787
11
4.74306
21
-5.84663
0
LINE
8
BLACK
6
CONTINUOUS
10
4.74306
20
-5.84663
11
4.74681
21
-5.84288
0
LINE
8
BLACK
6
CONTINUOUS
10
4.79181
20
-5.85412
11
4.79931
21
-5.85412
0
LINE
8
BLACK
6
CONTINUOUS
10
4.79931
20
-5.85412
11
4.80681
21
-5.85787
0
LINE
8
BLACK
6
CONTINUOUS
10
4.80681
20
-5.85787
11
4.81055
21
-5.86162
0
LINE
8
BLACK
6
CONTINUOUS
10
4.81055
20
-5.86162
11
4.8143
21
-5.86912
0
LINE
8
BLACK
6
CONTINUOUS
10
4.8143
20
-5.86912
11
4.81805
21
-5.88412
0
LINE
8
BLACK
6
CONTINUOUS
10
4.81805
20
-5.88412
11
4.81805
21
-5.90287
0
LINE
8
BLACK
6
CONTINUOUS
10
4.81805
20
-5.90287
11
4.8143
21
-5.91787
0
LINE
8
BLACK
6
CONTINUOUS
10
4.8143
20
-5.91787
11
4.81055
21
-5.92537
0
LINE
8
BLACK
6
CONTINUOUS
10
4.81055
20
-5.92537
11
4.80681
21
-5.92912
0
LINE
8
BLACK
6
CONTINUOUS
10
4.80681
20
-5.92912
11
4.79931
21
-5.93286
0
LINE
8
BLACK
6
CONTINUOUS
10
4.79931
20
-5.93286
11
4.79181
21
-5.93286
0
LINE
8
BLACK
6
CONTINUOUS
10
4.79181
20
-5.93286
11
4.78431
21
-5.92912
0
LINE
8
BLACK
6
CONTINUOUS
10
4.78431
20
-5.92912
11
4.78056
21
-5.92537
0
LINE
8
BLACK
6
CONTINUOUS
10
4.78056
20
-5.92537
11
4.77681
21
-5.91787
0
LINE
8
BLACK
6
CONTINUOUS
10
4.77681
20
-5.91787
11
4.77306
21
-5.90287
0
LINE
8
BLACK
6
CONTINUOUS
10
4.77306
20
-5.90287
11
4.77306
21
-5.88412
0
LINE
8
BLACK
6
CONTINUOUS
10
4.77306
20
-5.88412
11
4.77681
21
-5.86912
0
LINE
8
BLACK
6
CONTINUOUS
10
4.77681
20
-5.86912
11
4.78056
21
-5.86162
0
LINE
8
BLACK
6
CONTINUOUS
10
4.78056
20
-5.86162
11
4.78431
21
-5.85787
0
LINE
8
BLACK
6
CONTINUOUS
10
4.78431
20
-5.85787
11
4.79181
21
-5.85412
0
LINE
8
BLACK
6
CONTINUOUS
10
4.91179
20
-5.93286
11
4.91179
21
-5.85412
0
LINE
8
BLACK
6
CONTINUOUS
10
4.94554
20
-5.93286
11
4.94554
21
-5.89162
0
LINE
8
BLACK
6
CONTINUOUS
10
4.94554
20
-5.89162
11
4.94179
21
-5.88412
0
LINE
8
BLACK
6
CONTINUOUS
10
4.94179
20
-5.88412
11
4.93429
21
-5.88037
0
LINE
8
BLACK
6
CONTINUOUS
10
4.93429
20
-5.88037
11
4.92304
21
-5.88037
0
LINE
8
BLACK
6
CONTINUOUS
10
4.92304
20
-5.88037
11
4.91554
21
-5.88412
0
LINE
8
BLACK
6
CONTINUOUS
10
4.91554
20
-5.88412
11
4.91179
21
-5.88787
0
LINE
8
BLACK
6
CONTINUOUS
10
4.99428
20
-5.93286
11
4.98678
21
-5.92912
0
LINE
8
BLACK
6
CONTINUOUS
10
4.98678
20
-5.92912
11
4.98303
21
-5.92537
0
LINE
8
BLACK
6
CONTINUOUS
10
4.98303
20
-5.92537
11
4.97928
21
-5.91787
0
LINE
8
BLACK
6
CONTINUOUS
10
4.97928
20
-5.91787
11
4.97928
21
-5.89537
0
LINE
8
BLACK
6
CONTINUOUS
10
4.97928
20
-5.89537
11
4.98303
21
-5.88787
0
LINE
8
BLACK
6
CONTINUOUS
10
4.98303
20
-5.88787
11
4.98678
21
-5.88412
0
LINE
8
BLACK
6
CONTINUOUS
10
4.98678
20
-5.88412
11
4.99428
21
-5.88037
0
LINE
8
BLACK
6
CONTINUOUS
10
4.99428
20
-5.88037
11
5.00553
21
-5.88037
0
LINE
8
BLACK
6
CONTINUOUS
10
5.00553
20
-5.88037
11
5.01303
21
-5.88412
0
LINE
8
BLACK
6
CONTINUOUS
10
5.01303
20
-5.88412
11
5.01678
21
-5.88787
0
LINE
8
BLACK
6
CONTINUOUS
10
5.01678
20
-5.88787
11
5.02053
21
-5.89537
0
LINE
8
BLACK
6
CONTINUOUS
10
5.02053
20
-5.89537
11
5.02053
21
-5.91787
0
LINE
8
BLACK
6
CONTINUOUS
10
5.02053
20
-5.91787
11
5.01678
21
-5.92537
0
LINE
8
BLACK
6
CONTINUOUS
10
5.01678
20
-5.92537
11
5.01303
21
-5.92912
0
LINE
8
BLACK
6
CONTINUOUS
10
5.01303
20
-5.92912
11
5.00553
21
-5.93286
0
LINE
8
BLACK
6
CONTINUOUS
10
5.00553
20
-5.93286
11
4.99428
21
-5.93286
0
LINE
8
BLACK
6
CONTINUOUS
10
5.06552
20
-5.93286
11
5.05802
21
-5.92912
0
LINE
8
BLACK
6
CONTINUOUS
10
5.05802
20
-5.92912
11
5.05427
21
-5.92162
0
LINE
8
BLACK
6
CONTINUOUS
10
5.05427
20
-5.92162
11
5.05427
21
-5.85412
0
LINE
8
BLACK
6
CONTINUOUS
10
5.12552
20
-5.92912
11
5.11802
21
-5.93286
0
LINE
8
BLACK
6
CONTINUOUS
10
5.11802
20
-5.93286
11
5.10302
21
-5.93286
0
LINE
8
BLACK
6
CONTINUOUS
10
5.10302
20
-5.93286
11
5.09552
21
-5.92912
0
LINE
8
BLACK
6
CONTINUOUS
10
5.09552
20
-5.92912
11
5.09177
21
-5.92162
0
LINE
8
BLACK
6
CONTINUOUS
10
5.09177
20
-5.92162
11
5.09177
21
-5.89162
0
LINE
8
BLACK
6
CONTINUOUS
10
5.09177
20
-5.89162
11
5.09552
21
-5.88412
0
LINE
8
BLACK
6
CONTINUOUS
10
5.09552
20
-5.88412
11
5.10302
21
-5.88037
0
LINE
8
BLACK
6
CONTINUOUS
10
5.10302
20
-5.88037
11
5.11802
21
-5.88037
0
LINE
8
BLACK
6
CONTINUOUS
10
5.11802
20
-5.88037
11
5.12552
21
-5.88412
0
LINE
8
BLACK
6
CONTINUOUS
10
5.12552
20
-5.88412
11
5.12927
21
-5.89162
0
LINE
8
BLACK
6
CONTINUOUS
10
5.12927
20
-5.89162
11
5.12927
21
-5.89912
0
LINE
8
BLACK
6
CONTINUOUS
10
5.12927
20
-5.89912
11
5.09177
21
-5.90662
0
LINE
8
BLACK
6
CONTINUOUS
10
5.15926
20
-5.92912
11
5.16676
21
-5.93286
0
LINE
8
BLACK
6
CONTINUOUS
10
5.16676
20
-5.93286
11
5.18176
21
-5.93286
0
LINE
8
BLACK
6
CONTINUOUS
10
5.18176
20
-5.93286
11
5.18926
21
-5.92912
0
LINE
8
BLACK
6
CONTINUOUS
10
5.18926
20
-5.92912
11
5.19301
21
-5.92162
0
LINE
8
BLACK
6
CONTINUOUS
10
5.19301
20
-5.92162
11
5.19301
21
-5.91787
0
LINE
8
BLACK
6
CONTINUOUS
10
5.19301
20
-5.91787
11
5.18926
21
-5.91037
0
LINE
8
BLACK
6
CONTINUOUS
10
5.18926
20
-5.91037
11
5.18176
21
-5.90662
0
LINE
8
BLACK
6
CONTINUOUS
10
5.18176
20
-5.90662
11
5.17051
21
-5.90662
0
LINE
8
BLACK
6
CONTINUOUS
10
5.17051
20
-5.90662
11
5.16301
21
-5.90287
0
LINE
8
BLACK
6
CONTINUOUS
10
5.16301
20
-5.90287
11
5.15926
21
-5.89537
0
LINE
8
BLACK
6
CONTINUOUS
10
5.15926
20
-5.89537
11
5.15926
21
-5.89162
0
LINE
8
BLACK
6
CONTINUOUS
10
5.15926
20
-5.89162
11
5.16301
21
-5.88412
0
LINE
8
BLACK
6
CONTINUOUS
10
5.16301
20
-5.88412
11
5.17051
21
-5.88037
0
LINE
8
BLACK
6
CONTINUOUS
10
5.17051
20
-5.88037
11
5.18176
21
-5.88037
0
LINE
8
BLACK
6
CONTINUOUS
10
5.18176
20
-5.88037
11
5.18926
21
-5.88412
0
LINE
8
BLACK
6
CONTINUOUS
10
5.28675
20
-5.90287
11
5.34674
21
-5.90287
0
LINE
8
BLACK
6
CONTINUOUS
10
5.31674
20
-5.93286
11
5.31674
21
-5.87287
0
LINE
8
BLACK
6
CONTINUOUS
10
5.47797
20
-5.88037
11
5.47797
21
-5.93286
0
LINE
8
BLACK
6
CONTINUOUS
10
5.45922
20
-5.85037
11
5.44048
21
-5.90662
0
LINE
8
BLACK
6
CONTINUOUS
10
5.44048
20
-5.90662
11
5.48922
21
-5.90662
0
LINE
8
BLACK
6
CONTINUOUS
10
5.57546
20
-5.92912
11
5.58296
21
-5.93286
0
LINE
8
BLACK
6
CONTINUOUS
10
5.58296
20
-5.93286
11
5.59796
21
-5.93286
0
LINE
8
BLACK
6
CONTINUOUS
10
5.59796
20
-5.93286
11
5.60546
21
-5.92912
0
LINE
8
BLACK
6
CONTINUOUS
10
5.60546
20
-5.92912
11
5.60921
21
-5.92162
0
LINE
8
BLACK
6
CONTINUOUS
10
5.60921
20
-5.92162
11
5.60921
21
-5.91787
0
LINE
8
BLACK
6
CONTINUOUS
10
5.60921
20
-5.91787
11
5.60546
21
-5.91037
0
LINE
8
BLACK
6
CONTINUOUS
10
5.60546
20
-5.91037
11
5.59796
21
-5.90662
0
LINE
8
BLACK
6
CONTINUOUS
10
5.59796
20
-5.90662
11
5.58671
21
-5.90662
0
LINE
8
BLACK
6
CONTINUOUS
10
5.58671
20
-5.90662
11
5.57921
21
-5.90287
0
LINE
8
BLACK
6
CONTINUOUS
10
5.57921
20
-5.90287
11
5.57546
21
-5.89537
0
LINE
8
BLACK
6
CONTINUOUS
10
5.57546
20
-5.89537
11
5.57546
21
-5.89162
0
LINE
8
BLACK
6
CONTINUOUS
10
5.57546
20
-5.89162
11
5.57921
21
-5.88412
0
LINE
8
BLACK
6
CONTINUOUS
10
5.57921
20
-5.88412
11
5.58671
21
-5.88037
0
LINE
8
BLACK
6
CONTINUOUS
10
5.58671
20
-5.88037
11
5.59796
21
-5.88037
0
LINE
8
BLACK
6
CONTINUOUS
10
5.59796
20
-5.88037
11
5.60546
21
-5.88412
0
LINE
8
BLACK
6
CONTINUOUS
10
5.6542
20
-5.93286
11
5.6467
21
-5.92912
0
LINE
8
BLACK
6
CONTINUOUS
10
5.6467
20
-5.92912
11
5.64295
21
-5.92162
0
LINE
8
BLACK
6
CONTINUOUS
10
5.64295
20
-5.92162
11
5.64295
21
-5.85412
0
LINE
8
BLACK
6
CONTINUOUS
10
5.69544
20
-5.93286
11
5.68795
21
-5.92912
0
LINE
8
BLACK
6
CONTINUOUS
10
5.68795
20
-5.92912
11
5.6842
21
-5.92537
0
LINE
8
BLACK
6
CONTINUOUS
10
5.6842
20
-5.92537
11
5.68045
21
-5.91787
0
LINE
8
BLACK
6
CONTINUOUS
10
5.68045
20
-5.91787
11
5.68045
21
-5.89537
0
LINE
8
BLACK
6
CONTINUOUS
10
5.68045
20
-5.89537
11
5.6842
21
-5.88787
0
LINE
8
BLACK
6
CONTINUOUS
10
5.6842
20
-5.88787
11
5.68795
21
-5.88412
0
LINE
8
BLACK
6
CONTINUOUS
10
5.68795
20
-5.88412
11
5.69544
21
-5.88037
0
LINE
8
BLACK
6
CONTINUOUS
10
5.69544
20
-5.88037
11
5.70669
21
-5.88037
0
LINE
8
BLACK
6
CONTINUOUS
10
5.70669
20
-5.88037
11
5.71419
21
-5.88412
0
LINE
8
BLACK
6
CONTINUOUS
10
5.71419
20
-5.88412
11
5.71794
21
-5.88787
0
LINE
8
BLACK
6
CONTINUOUS
10
5.71794
20
-5.88787
11
5.72169
21
-5.89537
0
LINE
8
BLACK
6
CONTINUOUS
10
5.72169
20
-5.89537
11
5.72169
21
-5.91787
0
LINE
8
BLACK
6
CONTINUOUS
10
5.72169
20
-5.91787
11
5.71794
21
-5.92537
0
LINE
8
BLACK
6
CONTINUOUS
10
5.71794
20
-5.92537
11
5.71419
21
-5.92912
0
LINE
8
BLACK
6
CONTINUOUS
10
5.71419
20
-5.92912
11
5.70669
21
-5.93286
0
LINE
8
BLACK
6
CONTINUOUS
10
5.70669
20
-5.93286
11
5.69544
21
-5.93286
0
LINE
8
BLACK
6
CONTINUOUS
10
5.74419
20
-5.88037
11
5.77418
21
-5.88037
0
LINE
8
BLACK
6
CONTINUOUS
10
5.75544
20
-5.85412
11
5.75544
21
-5.92162
0
LINE
8
BLACK
6
CONTINUOUS
10
5.75544
20
-5.92162
11
5.75919
21
-5.92912
0
LINE
8
BLACK
6
CONTINUOUS
10
5.75919
20
-5.92912
11
5.76669
21
-5.93286
0
LINE
8
BLACK
6
CONTINUOUS
10
5.76669
20
-5.93286
11
5.77418
21
-5.93286
0
LINE
8
BLACK
6
CONTINUOUS
10
5.79668
20
-5.92912
11
5.80418
21
-5.93286
0
LINE
8
BLACK
6
CONTINUOUS
10
5.80418
20
-5.93286
11
5.81918
21
-5.93286
0
LINE
8
BLACK
6
CONTINUOUS
10
5.81918
20
-5.93286
11
5.82668
21
-5.92912
0
LINE
8
BLACK
6
CONTINUOUS
10
5.82668
20
-5.92912
11
5.83043
21
-5.92162
0
LINE
8
BLACK
6
CONTINUOUS
10
5.83043
20
-5.92162
11
5.83043
21
-5.91787
0
LINE
8
BLACK
6
CONTINUOUS
10
5.83043
20
-5.91787
11
5.82668
21
-5.91037
0
LINE
8
BLACK
6
CONTINUOUS
10
5.82668
20
-5.91037
11
5.81918
21
-5.90662
0
LINE
8
BLACK
6
CONTINUOUS
10
5.81918
20
-5.90662
11
5.80793
21
-5.90662
0
LINE
8
BLACK
6
CONTINUOUS
10
5.80793
20
-5.90662
11
5.80043
21
-5.90287
0
LINE
8
BLACK
6
CONTINUOUS
10
5.80043
20
-5.90287
11
5.79668
21
-5.89537
0
LINE
8
BLACK
6
CONTINUOUS
10
5.79668
20
-5.89537
11
5.79668
21
-5.89162
0
LINE
8
BLACK
6
CONTINUOUS
10
5.79668
20
-5.89162
11
5.80043
21
-5.88412
0
LINE
8
BLACK
6
CONTINUOUS
10
5.80043
20
-5.88412
11
5.80793
21
-5.88037
0
LINE
8
BLACK
6
CONTINUOUS
10
5.80793
20
-5.88037
11
5.81918
21
-5.88037
0
LINE
8
BLACK
6
CONTINUOUS
10
5.81918
20
-5.88037
11
5.82668
21
-5.88412
0
LINE
8
BLACK
6
CONTINUOUS
10
5.85667
20
-5.96286
11
5.86042
21
-5.95911
0
LINE
8
BLACK
6
CONTINUOUS
10
5.86042
20
-5.95911
11
5.86792
21
-5.94786
0
LINE
8
BLACK
6
CONTINUOUS
10
5.86792
20
-5.94786
11
5.87167
21
-5.94036
0
LINE
8
BLACK
6
CONTINUOUS
10
5.87167
20
-5.94036
11
5.87542
21
-5.92912
0
LINE
8
BLACK
6
CONTINUOUS
10
5.87542
20
-5.92912
11
5.87917
21
-5.91037
0
LINE
8
BLACK
6
CONTINUOUS
10
5.87917
20
-5.91037
11
5.87917
21
-5.89537
0
LINE
8
BLACK
6
CONTINUOUS
10
5.87917
20
-5.89537
11
5.87542
21
-5.87662
0
LINE
8
BLACK
6
CONTINUOUS
10
5.87542
20
-5.87662
11
5.87167
21
-5.86537
0
LINE
8
BLACK
6
CONTINUOUS
10
5.87167
20
-5.86537
11
5.86792
21
-5.85787
0
LINE
8
BLACK
6
CONTINUOUS
10
5.86792
20
-5.85787
11
5.86042
21
-5.84663
0
LINE
8
BLACK
6
CONTINUOUS
10
5.86042
20
-5.84663
11
5.85667
21
-5.84288
0
LINE
8
BLACK
6
CONTINUOUS
10
3.32677
20
-5.9874
11
3.32677
21
-6.01496
0
LINE
8
BLACK
6
CONTINUOUS
10
3.31299
20
-6.00118
11
3.34055
21
-6.00118
0
LINE
8
BLACK
6
CONTINUOUS
10
3.45697
20
-5.95806
11
3.46447
21
-5.95806
0
LINE
8
BLACK
6
CONTINUOUS
10
3.46447
20
-5.95806
11
3.47197
21
-5.96181
0
LINE
8
BLACK
6
CONTINUOUS
10
3.47197
20
-5.96181
11
3.47572
21
-5.96556
0
LINE
8
BLACK
6
CONTINUOUS
10
3.47572
20
-5.96556
11
3.47947
21
-5.97306
0
LINE
8
BLACK
6
CONTINUOUS
10
3.47947
20
-5.97306
11
3.48322
21
-5.98806
0
LINE
8
BLACK
6
CONTINUOUS
10
3.48322
20
-5.98806
11
3.48322
21
-6.00681
0
LINE
8
BLACK
6
CONTINUOUS
10
3.48322
20
-6.00681
11
3.47947
21
-6.0218
0
LINE
8
BLACK
6
CONTINUOUS
10
3.47947
20
-6.0218
11
3.47572
21
-6.0293
0
LINE
8
BLACK
6
CONTINUOUS
10
3.47572
20
-6.0293
11
3.47197
21
-6.03305
0
LINE
8
BLACK
6
CONTINUOUS
10
3.47197
20
-6.03305
11
3.46447
21
-6.0368
0
LINE
8
BLACK
6
CONTINUOUS
10
3.46447
20
-6.0368
11
3.45697
21
-6.0368
0
LINE
8
BLACK
6
CONTINUOUS
10
3.45697
20
-6.0368
11
3.44948
21
-6.03305
0
LINE
8
BLACK
6
CONTINUOUS
10
3.44948
20
-6.03305
11
3.44573
21
-6.0293
0
LINE
8
BLACK
6
CONTINUOUS
10
3.44573
20
-6.0293
11
3.44198
21
-6.0218
0
LINE
8
BLACK
6
CONTINUOUS
10
3.44198
20
-6.0218
11
3.43823
21
-6.00681
0
LINE
8
BLACK
6
CONTINUOUS
10
3.43823
20
-6.00681
11
3.43823
21
-5.98806
0
LINE
8
BLACK
6
CONTINUOUS
10
3.43823
20
-5.98806
11
3.44198
21
-5.97306
0
LINE
8
BLACK
6
CONTINUOUS
10
3.44198
20
-5.97306
11
3.44573
21
-5.96556
0
LINE
8
BLACK
6
CONTINUOUS
10
3.44573
20
-5.96556
11
3.44948
21
-5.96181
0
LINE
8
BLACK
6
CONTINUOUS
10
3.44948
20
-5.96181
11
3.45697
21
-5.95806
0
LINE
8
BLACK
6
CONTINUOUS
10
3.51697
20
-6.0293
11
3.52072
21
-6.03305
0
LINE
8
BLACK
6
CONTINUOUS
10
3.52072
20
-6.03305
11
3.51697
21
-6.0368
0
LINE
8
BLACK
6
CONTINUOUS
10
3.51697
20
-6.0368
11
3.51322
21
-6.03305
0
LINE
8
BLACK
6
CONTINUOUS
10
3.51322
20
-6.03305
11
3.51697
21
-6.0293
0
LINE
8
BLACK
6
CONTINUOUS
10
3.51697
20
-6.0293
11
3.51697
21
-6.0368
0
LINE
8
BLACK
6
CONTINUOUS
10
3.54696
20
-5.95806
11
3.59946
21
-5.95806
0
LINE
8
BLACK
6
CONTINUOUS
10
3.59946
20
-5.95806
11
3.56571
21
-6.0368
0
LINE
8
BLACK
6
CONTINUOUS
10
3.64445
20
-5.95806
11
3.65195
21
-5.95806
0
LINE
8
BLACK
6
CONTINUOUS
10
3.65195
20
-5.95806
11
3.65945
21
-5.96181
0
LINE
8
BLACK
6
CONTINUOUS
10
3.65945
20
-5.96181
11
3.6632
21
-5.96556
0
LINE
8
BLACK
6
CONTINUOUS
10
3.6632
20
-5.96556
11
3.66695
21
-5.97306
0
LINE
8
BLACK
6
CONTINUOUS
10
3.66695
20
-5.97306
11
3.6707
21
-5.98806
0
LINE
8
BLACK
6
CONTINUOUS
10
3.6707
20
-5.98806
11
3.6707
21
-6.00681
0
LINE
8
BLACK
6
CONTINUOUS
10
3.6707
20
-6.00681
11
3.66695
21
-6.0218
0
LINE
8
BLACK
6
CONTINUOUS
10
3.66695
20
-6.0218
11
3.6632
21
-6.0293
0
LINE
8
BLACK
6
CONTINUOUS
10
3.6632
20
-6.0293
11
3.65945
21
-6.03305
0
LINE
8
BLACK
6
CONTINUOUS
10
3.65945
20
-6.03305
11
3.65195
21
-6.0368
0
LINE
8
BLACK
6
CONTINUOUS
10
3.65195
20
-6.0368
11
3.64445
21
-6.0368
0
LINE
8
BLACK
6
CONTINUOUS
10
3.64445
20
-6.0368
11
3.63695
21
-6.03305
0
LINE
8
BLACK
6
CONTINUOUS
10
3.63695
20
-6.03305
11
3.6332
21
-6.0293
0
LINE
8
BLACK
6
CONTINUOUS
10
3.6332
20
-6.0293
11
3.62945
21
-6.0218
0
LINE
8
BLACK
6
CONTINUOUS
10
3.62945
20
-6.0218
11
3.6257
21
-6.00681
0
LINE
8
BLACK
6
CONTINUOUS
10
3.6257
20
-6.00681
11
3.6257
21
-5.98806
0
LINE
8
BLACK
6
CONTINUOUS
10
3.6257
20
-5.98806
11
3.62945
21
-5.97306
0
LINE
8
BLACK
6
CONTINUOUS
10
3.62945
20
-5.97306
11
3.6332
21
-5.96556
0
LINE
8
BLACK
6
CONTINUOUS
10
3.6332
20
-5.96556
11
3.63695
21
-5.96181
0
LINE
8
BLACK
6
CONTINUOUS
10
3.63695
20
-5.96181
11
3.64445
21
-5.95806
0
LINE
8
BLACK
6
CONTINUOUS
10
3.71944
20
-5.95806
11
3.72694
21
-5.95806
0
LINE
8
BLACK
6
CONTINUOUS
10
3.72694
20
-5.95806
11
3.73444
21
-5.96181
0
LINE
8
BLACK
6
CONTINUOUS
10
3.73444
20
-5.96181
11
3.73819
21
-5.96556
0
LINE
8
BLACK
6
CONTINUOUS
10
3.73819
20
-5.96556
11
3.74194
21
-5.97306
0
LINE
8
BLACK
6
CONTINUOUS
10
3.74194
20
-5.97306
11
3.74569
21
-5.98806
0
LINE
8
BLACK
6
CONTINUOUS
10
3.74569
20
-5.98806
11
3.74569
21
-6.00681
0
LINE
8
BLACK
6
CONTINUOUS
10
3.74569
20
-6.00681
11
3.74194
21
-6.0218
0
LINE
8
BLACK
6
CONTINUOUS
10
3.74194
20
-6.0218
11
3.73819
21
-6.0293
0
LINE
8
BLACK
6
CONTINUOUS
10
3.73819
20
-6.0293
11
3.73444
21
-6.03305
0
LINE
8
BLACK
6
CONTINUOUS
10
3.73444
20
-6.03305
11
3.72694
21
-6.0368
0
LINE
8
BLACK
6
CONTINUOUS
10
3.72694
20
-6.0368
11
3.71944
21
-6.0368
0
LINE
8
BLACK
6
CONTINUOUS
10
3.71944
20
-6.0368
11
3.71194
21
-6.03305
0
LINE
8
BLACK
6
CONTINUOUS
10
3.71194
20
-6.03305
11
3.70819
21
-6.0293
0
LINE
8
BLACK
6
CONTINUOUS
10
3.70819
20
-6.0293
11
3.70444
21
-6.0218
0
LINE
8
BLACK
6
CONTINUOUS
10
3.70444
20
-6.0218
11
3.70069
21
-6.00681
0
LINE
8
BLACK
6
CONTINUOUS
10
3.70069
20
-6.00681
11
3.70069
21
-5.98806
0
LINE
8
BLACK
6
CONTINUOUS
10
3.70069
20
-5.98806
11
3.70444
21
-5.97306
0
LINE
8
BLACK
6
CONTINUOUS
10
3.70444
20
-5.97306
11
3.70819
21
-5.96556
0
LINE
8
BLACK
6
CONTINUOUS
10
3.70819
20
-5.96556
11
3.71194
21
-5.96181
0
LINE
8
BLACK
6
CONTINUOUS
10
3.71194
20
-5.96181
11
3.71944
21
-5.95806
0
LINE
8
BLACK
6
CONTINUOUS
10
3.77943
20
-6.0368
11
3.77943
21
-5.98431
0
LINE
8
BLACK
6
CONTINUOUS
10
3.77943
20
-5.99181
11
3.78318
21
-5.98806
0
LINE
8
BLACK
6
CONTINUOUS
10
3.78318
20
-5.98806
11
3.79068
21
-5.98431
0
LINE
8
BLACK
6
CONTINUOUS
10
3.79068
20
-5.98431
11
3.80193
21
-5.98431
0
LINE
8
BLACK
6
CONTINUOUS
10
3.80193
20
-5.98431
11
3.80943
21
-5.98806
0
LINE
8
BLACK
6
CONTINUOUS
10
3.80943
20
-5.98806
11
3.81318
21
-5.99556
0
LINE
8
BLACK
6
CONTINUOUS
10
3.81318
20
-5.99556
11
3.81318
21
-6.0368
0
LINE
8
BLACK
6
CONTINUOUS
10
3.81318
20
-5.99556
11
3.81693
21
-5.98806
0
LINE
8
BLACK
6
CONTINUOUS
10
3.81693
20
-5.98806
11
3.82443
21
-5.98431
0
LINE
8
BLACK
6
CONTINUOUS
10
3.82443
20
-5.98431
11
3.83568
21
-5.98431
0
LINE
8
BLACK
6
CONTINUOUS
10
3.83568
20
-5.98431
11
3.84318
21
-5.98806
0
LINE
8
BLACK
6
CONTINUOUS
10
3.84318
20
-5.98806
11
3.84693
21
-5.99556
0
LINE
8
BLACK
6
CONTINUOUS
10
3.84693
20
-5.99556
11
3.84693
21
-6.0368
0
LINE
8
BLACK
6
CONTINUOUS
10
3.88442
20
-6.0368
11
3.88442
21
-5.98431
0
LINE
8
BLACK
6
CONTINUOUS
10
3.88442
20
-5.99181
11
3.88817
21
-5.98806
0
LINE
8
BLACK
6
CONTINUOUS
10
3.88817
20
-5.98806
11
3.89567
21
-5.98431
0
LINE
8
BLACK
6
CONTINUOUS
10
3.89567
20
-5.98431
11
3.90692
21
-5.98431
0
LINE
8
BLACK
6
CONTINUOUS
10
3.90692
20
-5.98431
11
3.91442
21
-5.98806
0
LINE
8
BLACK
6
CONTINUOUS
10
3.91442
20
-5.98806
11
3.91817
21
-5.99556
0
LINE
8
BLACK
6
CONTINUOUS
10
3.91817
20
-5.99556
11
3.91817
21
-6.0368
0
LINE
8
BLACK
6
CONTINUOUS
10
3.91817
20
-5.99556
11
3.92192
21
-5.98806
0
LINE
8
BLACK
6
CONTINUOUS
10
3.92192
20
-5.98806
11
3.92942
21
-5.98431
0
LINE
8
BLACK
6
CONTINUOUS
10
3.92942
20
-5.98431
11
3.94066
21
-5.98431
0
LINE
8
BLACK
6
CONTINUOUS
10
3.94066
20
-5.98431
11
3.94816
21
-5.98806
0
LINE
8
BLACK
6
CONTINUOUS
10
3.94816
20
-5.98806
11
3.95191
21
-5.99556
0
LINE
8
BLACK
6
CONTINUOUS
10
3.95191
20
-5.99556
11
3.95191
21
-6.0368
0
LINE
8
BLACK
6
CONTINUOUS
10
4.10564
20
-5.95431
11
4.03815
21
-6.05555
0
LINE
8
BLACK
6
CONTINUOUS
10
4.20688
20
-5.95806
11
4.21438
21
-5.95806
0
LINE
8
BLACK
6
CONTINUOUS
10
4.21438
20
-5.95806
11
4.22188
21
-5.96181
0
LINE
8
BLACK
6
CONTINUOUS
10
4.22188
20
-5.96181
11
4.22563
21
-5.96556
0
LINE
8
BLACK
6
CONTINUOUS
10
4.22563
20
-5.96556
11
4.22938
21
-5.97306
0
LINE
8
BLACK
6
CONTINUOUS
10
4.22938
20
-5.97306
11
4.23313
21
-5.98806
0
LINE
8
BLACK
6
CONTINUOUS
10
4.23313
20
-5.98806
11
4.23313
21
-6.00681
0
LINE
8
BLACK
6
CONTINUOUS
10
4.23313
20
-6.00681
11
4.22938
21
-6.0218
0
LINE
8
BLACK
6
CONTINUOUS
10
4.22938
20
-6.0218
11
4.22563
21
-6.0293
0
LINE
8
BLACK
6
CONTINUOUS
10
4.22563
20
-6.0293
11
4.22188
21
-6.03305
0
LINE
8
BLACK
6
CONTINUOUS
10
4.22188
20
-6.03305
11
4.21438
21
-6.0368
0
LINE
8
BLACK
6
CONTINUOUS
10
4.21438
20
-6.0368
11
4.20688
21
-6.0368
0
LINE
8
BLACK
6
CONTINUOUS
10
4.20688
20
-6.0368
11
4.19938
21
-6.03305
0
LINE
8
BLACK
6
CONTINUOUS
10
4.19938
20
-6.03305
11
4.19563
21
-6.0293
0
LINE
8
BLACK
6
CONTINUOUS
10
4.19563
20
-6.0293
11
4.19188
21
-6.0218
0
LINE
8
BLACK
6
CONTINUOUS
10
4.19188
20
-6.0218
11
4.18813
21
-6.00681
0
LINE
8
BLACK
6
CONTINUOUS
10
4.18813
20
-6.00681
11
4.18813
21
-5.98806
0
LINE
8
BLACK
6
CONTINUOUS
10
4.18813
20
-5.98806
11
4.19188
21
-5.97306
0
LINE
8
BLACK
6
CONTINUOUS
10
4.19188
20
-5.97306
11
4.19563
21
-5.96556
0
LINE
8
BLACK
6
CONTINUOUS
10
4.19563
20
-5.96556
11
4.19938
21
-5.96181
0
LINE
8
BLACK
6
CONTINUOUS
10
4.19938
20
-5.96181
11
4.20688
21
-5.95806
0
LINE
8
BLACK
6
CONTINUOUS
10
4.26687
20
-6.0293
11
4.27062
21
-6.03305
0
LINE
8
BLACK
6
CONTINUOUS
10
4.27062
20
-6.03305
11
4.26687
21
-6.0368
0
LINE
8
BLACK
6
CONTINUOUS
10
4.26687
20
-6.0368
11
4.26312
21
-6.03305
0
LINE
8
BLACK
6
CONTINUOUS
10
4.26312
20
-6.03305
11
4.26687
21
-6.0293
0
LINE
8
BLACK
6
CONTINUOUS
10
4.26687
20
-6.0293
11
4.26687
21
-6.0368
0
LINE
8
BLACK
6
CONTINUOUS
10
4.31937
20
-5.95806
11
4.32687
21
-5.95806
0
LINE
8
BLACK
6
CONTINUOUS
10
4.32687
20
-5.95806
11
4.33436
21
-5.96181
0
LINE
8
BLACK
6
CONTINUOUS
10
4.33436
20
-5.96181
11
4.33811
21
-5.96556
0
LINE
8
BLACK
6
CONTINUOUS
10
4.33811
20
-5.96556
11
4.34186
21
-5.97306
0
LINE
8
BLACK
6
CONTINUOUS
10
4.34186
20
-5.97306
11
4.34561
21
-5.98806
0
LINE
8
BLACK
6
CONTINUOUS
10
4.34561
20
-5.98806
11
4.34561
21
-6.00681
0
LINE
8
BLACK
6
CONTINUOUS
10
4.34561
20
-6.00681
11
4.34186
21
-6.0218
0
LINE
8
BLACK
6
CONTINUOUS
10
4.34186
20
-6.0218
11
4.33811
21
-6.0293
0
LINE
8
BLACK
6
CONTINUOUS
10
4.33811
20
-6.0293
11
4.33436
21
-6.03305
0
LINE
8
BLACK
6
CONTINUOUS
10
4.33436
20
-6.03305
11
4.32687
21
-6.0368
0
LINE
8
BLACK
6
CONTINUOUS
10
4.32687
20
-6.0368
11
4.31937
21
-6.0368
0
LINE
8
BLACK
6
CONTINUOUS
10
4.31937
20
-6.0368
11
4.31187
21
-6.03305
0
LINE
8
BLACK
6
CONTINUOUS
10
4.31187
20
-6.03305
11
4.30812
21
-6.0293
0
LINE
8
BLACK
6
CONTINUOUS
10
4.30812
20
-6.0293
11
4.30437
21
-6.0218
0
LINE
8
BLACK
6
CONTINUOUS
10
4.30437
20
-6.0218
11
4.30062
21
-6.00681
0
LINE
8
BLACK
6
CONTINUOUS
10
4.30062
20
-6.00681
11
4.30062
21
-5.98806
0
LINE
8
BLACK
6
CONTINUOUS
10
4.30062
20
-5.98806
11
4.30437
21
-5.97306
0
LINE
8
BLACK
6
CONTINUOUS
10
4.30437
20
-5.97306
11
4.30812
21
-5.96556
0
LINE
8
BLACK
6
CONTINUOUS
10
4.30812
20
-5.96556
11
4.31187
21
-5.96181
0
LINE
8
BLACK
6
CONTINUOUS
10
4.31187
20
-5.96181
11
4.31937
21
-5.95806
0
LINE
8
BLACK
6
CONTINUOUS
10
4.37561
20
-5.96556
11
4.37936
21
-5.96181
0
LINE
8
BLACK
6
CONTINUOUS
10
4.37936
20
-5.96181
11
4.38686
21
-5.95806
0
LINE
8
BLACK
6
CONTINUOUS
10
4.38686
20
-5.95806
11
4.40561
21
-5.95806
0
LINE
8
BLACK
6
CONTINUOUS
10
4.40561
20
-5.95806
11
4.4131
21
-5.96181
0
LINE
8
BLACK
6
CONTINUOUS
10
4.4131
20
-5.96181
11
4.41685
21
-5.96556
0
LINE
8
BLACK
6
CONTINUOUS
10
4.41685
20
-5.96556
11
4.4206
21
-5.97306
0
LINE
8
BLACK
6
CONTINUOUS
10
4.4206
20
-5.97306
11
4.4206
21
-5.98056
0
LINE
8
BLACK
6
CONTINUOUS
10
4.4206
20
-5.98056
11
4.41685
21
-5.99181
0
LINE
8
BLACK
6
CONTINUOUS
10
4.41685
20
-5.99181
11
4.37186
21
-6.0368
0
LINE
8
BLACK
6
CONTINUOUS
10
4.37186
20
-6.0368
11
4.4206
21
-6.0368
0
LINE
8
BLACK
6
CONTINUOUS
10
4.44685
20
-5.95806
11
4.49934
21
-5.95806
0
LINE
8
BLACK
6
CONTINUOUS
10
4.49934
20
-5.95806
11
4.4656
21
-6.0368
0
LINE
8
BLACK
6
CONTINUOUS
10
4.56309
20
-5.95806
11
4.54809
21
-5.95806
0
LINE
8
BLACK
6
CONTINUOUS
10
4.54809
20
-5.95806
11
4.54059
21
-5.96181
0
LINE
8
BLACK
6
CONTINUOUS
10
4.54059
20
-5.96181
11
4.53684
21
-5.96556
0
LINE
8
BLACK
6
CONTINUOUS
10
4.53684
20
-5.96556
11
4.52934
21
-5.97681
0
LINE
8
BLACK
6
CONTINUOUS
10
4.52934
20
-5.97681
11
4.52559
21
-5.99181
0
LINE
8
BLACK
6
CONTINUOUS
10
4.52559
20
-5.99181
11
4.52559
21
-6.0218
0
LINE
8
BLACK
6
CONTINUOUS
10
4.52559
20
-6.0218
11
4.52934
21
-6.0293
0
LINE
8
BLACK
6
CONTINUOUS
10
4.52934
20
-6.0293
11
4.53309
21
-6.03305
0
LINE
8
BLACK
6
CONTINUOUS
10
4.53309
20
-6.03305
11
4.54059
21
-6.0368
0
LINE
8
BLACK
6
CONTINUOUS
10
4.54059
20
-6.0368
11
4.55559
21
-6.0368
0
LINE
8
BLACK
6
CONTINUOUS
10
4.55559
20
-6.0368
11
4.56309
21
-6.03305
0
LINE
8
BLACK
6
CONTINUOUS
10
4.56309
20
-6.03305
11
4.56684
21
-6.0293
0
LINE
8
BLACK
6
CONTINUOUS
10
4.56684
20
-6.0293
11
4.57058
21
-6.0218
0
LINE
8
BLACK
6
CONTINUOUS
10
4.57058
20
-6.0218
11
4.57058
21
-6.00306
0
LINE
8
BLACK
6
CONTINUOUS
10
4.57058
20
-6.00306
11
4.56684
21
-5.99556
0
LINE
8
BLACK
6
CONTINUOUS
10
4.56684
20
-5.99556
11
4.56309
21
-5.99181
0
LINE
8
BLACK
6
CONTINUOUS
10
4.56309
20
-5.99181
11
4.55559
21
-5.98806
0
LINE
8
BLACK
6
CONTINUOUS
10
4.55559
20
-5.98806
11
4.54059
21
-5.98806
0
LINE
8
BLACK
6
CONTINUOUS
10
4.54059
20
-5.98806
11
4.53309
21
-5.99181
0
LINE
8
BLACK
6
CONTINUOUS
10
4.53309
20
-5.99181
11
4.52934
21
-5.99556
0
LINE
8
BLACK
6
CONTINUOUS
10
4.52934
20
-5.99556
11
4.52559
21
-6.00306
0
LINE
8
BLACK
6
CONTINUOUS
10
4.60058
20
-5.95806
11
4.60058
21
-5.97306
0
LINE
8
BLACK
6
CONTINUOUS
10
4.63058
20
-5.95806
11
4.63058
21
-5.97306
0
LINE
8
BLACK
6
CONTINUOUS
10
4.74681
20
-6.0668
11
4.74306
21
-6.06305
0
LINE
8
BLACK
6
CONTINUOUS
10
4.74306
20
-6.06305
11
4.73556
21
-6.0518
0
LINE
8
BLACK
6
CONTINUOUS
10
4.73556
20
-6.0518
11
4.73181
21
-6.0443
0
LINE
8
BLACK
6
CONTINUOUS
10
4.73181
20
-6.0443
11
4.72807
21
-6.03305
0
LINE
8
BLACK
6
CONTINUOUS
10
4.72807
20
-6.03305
11
4.72432
21
-6.0143
0
LINE
8
BLACK
6
CONTINUOUS
10
4.72432
20
-6.0143
11
4.72432
21
-5.99931
0
LINE
8
BLACK
6
CONTINUOUS
10
4.72432
20
-5.99931
11
4.72807
21
-5.98056
0
LINE
8
BLACK
6
CONTINUOUS
10
4.72807
20
-5.98056
11
4.73181
21
-5.96931
0
LINE
8
BLACK
6
CONTINUOUS
10
4.73181
20
-5.96931
11
4.73556
21
-5.96181
0
LINE
8
BLACK
6
CONTINUOUS
10
4.73556
20
-5.96181
11
4.74306
21
-5.95056
0
LINE
8
BLACK
6
CONTINUOUS
10
4.74306
20
-5.95056
11
4.74681
21
-5.94681
0
LINE
8
BLACK
6
CONTINUOUS
10
4.77306
20
-5.96556
11
4.77681
21
-5.96181
0
LINE
8
BLACK
6
CONTINUOUS
10
4.77681
20
-5.96181
11
4.78431
21
-5.95806
0
LINE
8
BLACK
6
CONTINUOUS
10
4.78431
20
-5.95806
11
4.80306
21
-5.95806
0
LINE
8
BLACK
6
CONTINUOUS
10
4.80306
20
-5.95806
11
4.81055
21
-5.96181
0
LINE
8
BLACK
6
CONTINUOUS
10
4.81055
20
-5.96181
11
4.8143
21
-5.96556
0
LINE
8
BLACK
6
CONTINUOUS
10
4.8143
20
-5.96556
11
4.81805
21
-5.97306
0
LINE
8
BLACK
6
CONTINUOUS
10
4.81805
20
-5.97306
11
4.81805
21
-5.98056
0
LINE
8
BLACK
6
CONTINUOUS
10
4.81805
20
-5.98056
11
4.8143
21
-5.99181
0
LINE
8
BLACK
6
CONTINUOUS
10
4.8143
20
-5.99181
11
4.76931
21
-6.0368
0
LINE
8
BLACK
6
CONTINUOUS
10
4.76931
20
-6.0368
11
4.81805
21
-6.0368
0
LINE
8
BLACK
6
CONTINUOUS
10
4.8668
20
-5.95806
11
4.8743
21
-5.95806
0
LINE
8
BLACK
6
CONTINUOUS
10
4.8743
20
-5.95806
11
4.8818
21
-5.96181
0
LINE
8
BLACK
6
CONTINUOUS
10
4.8818
20
-5.96181
11
4.88555
21
-5.96556
0
LINE
8
BLACK
6
CONTINUOUS
10
4.88555
20
-5.96556
11
4.8893
21
-5.97306
0
LINE
8
BLACK
6
CONTINUOUS
10
4.8893
20
-5.97306
11
4.89304
21
-5.98806
0
LINE
8
BLACK
6
CONTINUOUS
10
4.89304
20
-5.98806
11
4.89304
21
-6.00681
0
LINE
8
BLACK
6
CONTINUOUS
10
4.89304
20
-6.00681
11
4.8893
21
-6.0218
0
LINE
8
BLACK
6
CONTINUOUS
10
4.8893
20
-6.0218
11
4.88555
21
-6.0293
0
LINE
8
BLACK
6
CONTINUOUS
10
4.88555
20
-6.0293
11
4.8818
21
-6.03305
0
LINE
8
BLACK
6
CONTINUOUS
10
4.8818
20
-6.03305
11
4.8743
21
-6.0368
0
LINE
8
BLACK
6
CONTINUOUS
10
4.8743
20
-6.0368
11
4.8668
21
-6.0368
0
LINE
8
BLACK
6
CONTINUOUS
10
4.8668
20
-6.0368
11
4.8593
21
-6.03305
0
LINE
8
BLACK
6
CONTINUOUS
10
4.8593
20
-6.03305
11
4.85555
21
-6.0293
0
LINE
8
BLACK
6
CONTINUOUS
10
4.85555
20
-6.0293
11
4.8518
21
-6.0218
0
LINE
8
BLACK
6
CONTINUOUS
10
4.8518
20
-6.0218
11
4.84805
21
-6.00681
0
LINE
8
BLACK
6
CONTINUOUS
10
4.84805
20
-6.00681
11
4.84805
21
-5.98806
0
LINE
8
BLACK
6
CONTINUOUS
10
4.84805
20
-5.98806
11
4.8518
21
-5.97306
0
LINE
8
BLACK
6
CONTINUOUS
10
4.8518
20
-5.97306
11
4.85555
21
-5.96556
0
LINE
8
BLACK
6
CONTINUOUS
10
4.85555
20
-5.96556
11
4.8593
21
-5.96181
0
LINE
8
BLACK
6
CONTINUOUS
10
4.8593
20
-5.96181
11
4.8668
21
-5.95806
0
LINE
8
BLACK
6
CONTINUOUS
10
4.98678
20
-6.0368
11
4.98678
21
-5.95806
0
LINE
8
BLACK
6
CONTINUOUS
10
5.02053
20
-6.0368
11
5.02053
21
-5.99556
0
LINE
8
BLACK
6
CONTINUOUS
10
5.02053
20
-5.99556
11
5.01678
21
-5.98806
0
LINE
8
BLACK
6
CONTINUOUS
10
5.01678
20
-5.98806
11
5.00928
21
-5.98431
0
LINE
8
BLACK
6
CONTINUOUS
10
5.00928
20
-5.98431
11
4.99803
21
-5.98431
0
LINE
8
BLACK
6
CONTINUOUS
10
4.99803
20
-5.98431
11
4.99053
21
-5.98806
0
LINE
8
BLACK
6
CONTINUOUS
10
4.99053
20
-5.98806
11
4.98678
21
-5.99181
0
LINE
8
BLACK
6
CONTINUOUS
10
5.06927
20
-6.0368
11
5.06177
21
-6.03305
0
LINE
8
BLACK
6
CONTINUOUS
10
5.06177
20
-6.03305
11
5.05802
21
-6.0293
0
LINE
8
BLACK
6
CONTINUOUS
10
5.05802
20
-6.0293
11
5.05427
21
-6.0218
0
LINE
8
BLACK
6
CONTINUOUS
10
5.05427
20
-6.0218
11
5.05427
21
-5.99931
0
LINE
8
BLACK
6
CONTINUOUS
10
5.05427
20
-5.99931
11
5.05802
21
-5.99181
0
LINE
8
BLACK
6
CONTINUOUS
10
5.05802
20
-5.99181
11
5.06177
21
-5.98806
0
LINE
8
BLACK
6
CONTINUOUS
10
5.06177
20
-5.98806
11
5.06927
21
-5.98431
0
LINE
8
BLACK
6
CONTINUOUS
10
5.06927
20
-5.98431
11
5.08052
21
-5.98431
0
LINE
8
BLACK
6
CONTINUOUS
10
5.08052
20
-5.98431
11
5.08802
21
-5.98806
0
LINE
8
BLACK
6
CONTINUOUS
10
5.08802
20
-5.98806
11
5.09177
21
-5.99181
0
LINE
8
BLACK
6
CONTINUOUS
10
5.09177
20
-5.99181
11
5.09552
21
-5.99931
0
LINE
8
BLACK
6
CONTINUOUS
10
5.09552
20
-5.99931
11
5.09552
21
-6.0218
0
LINE
8
BLACK
6
CONTINUOUS
10
5.09552
20
-6.0218
11
5.09177
21
-6.0293
0
LINE
8
BLACK
6
CONTINUOUS
10
5.09177
20
-6.0293
11
5.08802
21
-6.03305
0
LINE
8
BLACK
6
CONTINUOUS
10
5.08802
20
-6.03305
11
5.08052
21
-6.0368
0
LINE
8
BLACK
6
CONTINUOUS
10
5.08052
20
-6.0368
11
5.06927
21
-6.0368
0
LINE
8
BLACK
6
CONTINUOUS
10
5.14051
20
-6.0368
11
5.13301
21
-6.03305
0
LINE
8
BLACK
6
CONTINUOUS
10
5.13301
20
-6.03305
11
5.12927
21
-6.02555
0
LINE
8
BLACK
6
CONTINUOUS
10
5.12927
20
-6.02555
11
5.12927
21
-5.95806
0
LINE
8
BLACK
6
CONTINUOUS
10
5.20051
20
-6.03305
11
5.19301
21
-6.0368
0
LINE
8
BLACK
6
CONTINUOUS
10
5.19301
20
-6.0368
11
5.17801
21
-6.0368
0
LINE
8
BLACK
6
CONTINUOUS
10
5.17801
20
-6.0368
11
5.17051
21
-6.03305
0
LINE
8
BLACK
6
CONTINUOUS
10
5.17051
20
-6.03305
11
5.16676
21
-6.02555
0
LINE
8
BLACK
6
CONTINUOUS
10
5.16676
20
-6.02555
11
5.16676
21
-5.99556
0
LINE
8
BLACK
6
CONTINUOUS
10
5.16676
20
-5.99556
11
5.17051
21
-5.98806
0
LINE
8
BLACK
6
CONTINUOUS
10
5.17051
20
-5.98806
11
5.17801
21
-5.98431
0
LINE
8
BLACK
6
CONTINUOUS
10
5.17801
20
-5.98431
11
5.19301
21
-5.98431
0
LINE
8
BLACK
6
CONTINUOUS
10
5.19301
20
-5.98431
11
5.20051
21
-5.98806
0
LINE
8
BLACK
6
CONTINUOUS
10
5.20051
20
-5.98806
11
5.20426
21
-5.99556
0
LINE
8
BLACK
6
CONTINUOUS
10
5.20426
20
-5.99556
11
5.20426
21
-6.00306
0
LINE
8
BLACK
6
CONTINUOUS
10
5.20426
20
-6.00306
11
5.16676
21
-6.01055
0
LINE
8
BLACK
6
CONTINUOUS
10
5.23425
20
-6.03305
11
5.24175
21
-6.0368
0
LINE
8
BLACK
6
CONTINUOUS
10
5.24175
20
-6.0368
11
5.25675
21
-6.0368
0
LINE
8
BLACK
6
CONTINUOUS
10
5.25675
20
-6.0368
11
5.26425
21
-6.03305
0
LINE
8
BLACK
6
CONTINUOUS
10
5.26425
20
-6.03305
11
5.268
21
-6.02555
0
LINE
8
BLACK
6
CONTINUOUS
10
5.268
20
-6.02555
11
5.268
21
-6.0218
0
LINE
8
BLACK
6
CONTINUOUS
10
5.268
20
-6.0218
11
5.26425
21
-6.0143
0
LINE
8
BLACK
6
CONTINUOUS
10
5.26425
20
-6.0143
11
5.25675
21
-6.01055
0
LINE
8
BLACK
6
CONTINUOUS
10
5.25675
20
-6.01055
11
5.2455
21
-6.01055
0
LINE
8
BLACK
6
CONTINUOUS
10
5.2455
20
-6.01055
11
5.238
21
-6.00681
0
LINE
8
BLACK
6
CONTINUOUS
10
5.238
20
-6.00681
11
5.23425
21
-5.99931
0
LINE
8
BLACK
6
CONTINUOUS
10
5.23425
20
-5.99931
11
5.23425
21
-5.99556
0
LINE
8
BLACK
6
CONTINUOUS
10
5.23425
20
-5.99556
11
5.238
21
-5.98806
0
LINE
8
BLACK
6
CONTINUOUS
10
5.238
20
-5.98806
11
5.2455
21
-5.98431
0
LINE
8
BLACK
6
CONTINUOUS
10
5.2455
20
-5.98431
11
5.25675
21
-5.98431
0
LINE
8
BLACK
6
CONTINUOUS
10
5.25675
20
-5.98431
11
5.26425
21
-5.98806
0
LINE
8
BLACK
6
CONTINUOUS
10
5.29424
20
-6.0668
11
5.29799
21
-6.06305
0
LINE
8
BLACK
6
CONTINUOUS
10
5.29799
20
-6.06305
11
5.30549
21
-6.0518
0
LINE
8
BLACK
6
CONTINUOUS
10
5.30549
20
-6.0518
11
5.30924
21
-6.0443
0
LINE
8
BLACK
6
CONTINUOUS
10
5.30924
20
-6.0443
11
5.31299
21
-6.03305
0
LINE
8
BLACK
6
CONTINUOUS
10
5.31299
20
-6.03305
11
5.31674
21
-6.0143
0
LINE
8
BLACK
6
CONTINUOUS
10
5.31674
20
-6.0143
11
5.31674
21
-5.99931
0
LINE
8
BLACK
6
CONTINUOUS
10
5.31674
20
-5.99931
11
5.31299
21
-5.98056
0
LINE
8
BLACK
6
CONTINUOUS
10
5.31299
20
-5.98056
11
5.30924
21
-5.96931
0
LINE
8
BLACK
6
CONTINUOUS
10
5.30924
20
-5.96931
11
5.30549
21
-5.96181
0
LINE
8
BLACK
6
CONTINUOUS
10
5.30549
20
-5.96181
11
5.29799
21
-5.95056
0
LINE
8
BLACK
6
CONTINUOUS
10
5.29799
20
-5.95056
11
5.29424
21
-5.94681
0
LINE
8
BLACK
6
CONTINUOUS
10
3.33536
20
-6.11765
11
3.33536
21
-6.09259
0
LINE
8
BLACK
6
CONTINUOUS
10
3.33536
20
-6.09259
11
3.31031
21
-6.09259
0
LINE
8
BLACK
6
CONTINUOUS
10
3.31031
20
-6.09259
11
3.31031
21
-6.11765
0
LINE
8
BLACK
6
CONTINUOUS
10
3.31031
20
-6.11765
11
3.33536
21
-6.11765
0
LINE
8
BLACK
6
CONTINUOUS
10
3.45697
20
-6.062
11
3.46447
21
-6.062
0
LINE
8
BLACK
6
CONTINUOUS
10
3.46447
20
-6.062
11
3.47197
21
-6.06575
0
LINE
8
BLACK
6
CONTINUOUS
10
3.47197
20
-6.06575
11
3.47572
21
-6.0695
0
LINE
8
BLACK
6
CONTINUOUS
10
3.47572
20
-6.0695
11
3.47947
21
-6.077
0
LINE
8
BLACK
6
CONTINUOUS
10
3.47947
20
-6.077
11
3.48322
21
-6.09199
0
LINE
8
BLACK
6
CONTINUOUS
10
3.48322
20
-6.09199
11
3.48322
21
-6.11074
0
LINE
8
BLACK
6
CONTINUOUS
10
3.48322
20
-6.11074
11
3.47947
21
-6.12574
0
LINE
8
BLACK
6
CONTINUOUS
10
3.47947
20
-6.12574
11
3.47572
21
-6.13324
0
LINE
8
BLACK
6
CONTINUOUS
10
3.47572
20
-6.13324
11
3.47197
21
-6.13699
0
LINE
8
BLACK
6
CONTINUOUS
10
3.47197
20
-6.13699
11
3.46447
21
-6.14074
0
LINE
8
BLACK
6
CONTINUOUS
10
3.46447
20
-6.14074
11
3.45697
21
-6.14074
0
LINE
8
BLACK
6
CONTINUOUS
10
3.45697
20
-6.14074
11
3.44948
21
-6.13699
0
LINE
8
BLACK
6
CONTINUOUS
10
3.44948
20
-6.13699
11
3.44573
21
-6.13324
0
LINE
8
BLACK
6
CONTINUOUS
10
3.44573
20
-6.13324
11
3.44198
21
-6.12574
0
LINE
8
BLACK
6
CONTINUOUS
10
3.44198
20
-6.12574
11
3.43823
21
-6.11074
0
LINE
8
BLACK
6
CONTINUOUS
10
3.43823
20
-6.11074
11
3.43823
21
-6.09199
0
LINE
8
BLACK
6
CONTINUOUS
10
3.43823
20
-6.09199
11
3.44198
21
-6.077
0
LINE
8
BLACK
6
CONTINUOUS
10
3.44198
20
-6.077
11
3.44573
21
-6.0695
0
LINE
8
BLACK
6
CONTINUOUS
10
3.44573
20
-6.0695
11
3.44948
21
-6.06575
0
LINE
8
BLACK
6
CONTINUOUS
10
3.44948
20
-6.06575
11
3.45697
21
-6.062
0
LINE
8
BLACK
6
CONTINUOUS
10
3.51697
20
-6.13324
11
3.52072
21
-6.13699
0
LINE
8
BLACK
6
CONTINUOUS
10
3.52072
20
-6.13699
11
3.51697
21
-6.14074
0
LINE
8
BLACK
6
CONTINUOUS
10
3.51697
20
-6.14074
11
3.51322
21
-6.13699
0
LINE
8
BLACK
6
CONTINUOUS
10
3.51322
20
-6.13699
11
3.51697
21
-6.13324
0
LINE
8
BLACK
6
CONTINUOUS
10
3.51697
20
-6.13324
11
3.51697
21
-6.14074
0
LINE
8
BLACK
6
CONTINUOUS
10
3.55821
20
-6.14074
11
3.57321
21
-6.14074
0
LINE
8
BLACK
6
CONTINUOUS
10
3.57321
20
-6.14074
11
3.58071
21
-6.13699
0
LINE
8
BLACK
6
CONTINUOUS
10
3.58071
20
-6.13699
11
3.58446
21
-6.13324
0
LINE
8
BLACK
6
CONTINUOUS
10
3.58446
20
-6.13324
11
3.59196
21
-6.12199
0
LINE
8
BLACK
6
CONTINUOUS
10
3.59196
20
-6.12199
11
3.59571
21
-6.10699
0
LINE
8
BLACK
6
CONTINUOUS
10
3.59571
20
-6.10699
11
3.59571
21
-6.077
0
LINE
8
BLACK
6
CONTINUOUS
10
3.59571
20
-6.077
11
3.59196
21
-6.0695
0
LINE
8
BLACK
6
CONTINUOUS
10
3.59196
20
-6.0695
11
3.58821
21
-6.06575
0
LINE
8
BLACK
6
CONTINUOUS
10
3.58821
20
-6.06575
11
3.58071
21
-6.062
0
LINE
8
BLACK
6
CONTINUOUS
10
3.58071
20
-6.062
11
3.56571
21
-6.062
0
LINE
8
BLACK
6
CONTINUOUS
10
3.56571
20
-6.062
11
3.55821
21
-6.06575
0
LINE
8
BLACK
6
CONTINUOUS
10
3.55821
20
-6.06575
11
3.55446
21
-6.0695
0
LINE
8
BLACK
6
CONTINUOUS
10
3.55446
20
-6.0695
11
3.55071
21
-6.077
0
LINE
8
BLACK
6
CONTINUOUS
10
3.55071
20
-6.077
11
3.55071
21
-6.09574
0
LINE
8
BLACK
6
CONTINUOUS
10
3.55071
20
-6.09574
11
3.55446
21
-6.10324
0
LINE
8
BLACK
6
CONTINUOUS
10
3.55446
20
-6.10324
11
3.55821
21
-6.10699
0
LINE
8
BLACK
6
CONTINUOUS
10
3.55821
20
-6.10699
11
3.56571
21
-6.11074
0
LINE
8
BLACK
6
CONTINUOUS
10
3.56571
20
-6.11074
11
3.58071
21
-6.11074
0
LINE
8
BLACK
6
CONTINUOUS
10
3.58071
20
-6.11074
11
3.58821
21
-6.10699
0
LINE
8
BLACK
6
CONTINUOUS
10
3.58821
20
-6.10699
11
3.59196
21
-6.10324
0
LINE
8
BLACK
6
CONTINUOUS
10
3.59196
20
-6.10324
11
3.59571
21
-6.09574
0
LINE
8
BLACK
6
CONTINUOUS
10
3.64445
20
-6.062
11
3.65195
21
-6.062
0
LINE
8
BLACK
6
CONTINUOUS
10
3.65195
20
-6.062
11
3.65945
21
-6.06575
0
LINE
8
BLACK
6
CONTINUOUS
10
3.65945
20
-6.06575
11
3.6632
21
-6.0695
0
LINE
8
BLACK
6
CONTINUOUS
10
3.6632
20
-6.0695
11
3.66695
21
-6.077
0
LINE
8
BLACK
6
CONTINUOUS
10
3.66695
20
-6.077
11
3.6707
21
-6.09199
0
LINE
8
BLACK
6
CONTINUOUS
10
3.6707
20
-6.09199
11
3.6707
21
-6.11074
0
LINE
8
BLACK
6
CONTINUOUS
10
3.6707
20
-6.11074
11
3.66695
21
-6.12574
0
LINE
8
BLACK
6
CONTINUOUS
10
3.66695
20
-6.12574
11
3.6632
21
-6.13324
0
LINE
8
BLACK
6
CONTINUOUS
10
3.6632
20
-6.13324
11
3.65945
21
-6.13699
0
LINE
8
BLACK
6
CONTINUOUS
10
3.65945
20
-6.13699
11
3.65195
21
-6.14074
0
LINE
8
BLACK
6
CONTINUOUS
10
3.65195
20
-6.14074
11
3.64445
21
-6.14074
0
LINE
8
BLACK
6
CONTINUOUS
10
3.64445
20
-6.14074
11
3.63695
21
-6.13699
0
LINE
8
BLACK
6
CONTINUOUS
10
3.63695
20
-6.13699
11
3.6332
21
-6.13324
0
LINE
8
BLACK
6
CONTINUOUS
10
3.6332
20
-6.13324
11
3.62945
21
-6.12574
0
LINE
8
BLACK
6
CONTINUOUS
10
3.62945
20
-6.12574
11
3.6257
21
-6.11074
0
LINE
8
BLACK
6
CONTINUOUS
10
3.6257
20
-6.11074
11
3.6257
21
-6.09199
0
LINE
8
BLACK
6
CONTINUOUS
10
3.6257
20
-6.09199
11
3.62945
21
-6.077
0
LINE
8
BLACK
6
CONTINUOUS
10
3.62945
20
-6.077
11
3.6332
21
-6.0695
0
LINE
8
BLACK
6
CONTINUOUS
10
3.6332
20
-6.0695
11
3.63695
21
-6.06575
0
LINE
8
BLACK
6
CONTINUOUS
10
3.63695
20
-6.06575
11
3.64445
21
-6.062
0
LINE
8
BLACK
6
CONTINUOUS
10
3.71944
20
-6.062
11
3.72694
21
-6.062
0
LINE
8
BLACK
6
CONTINUOUS
10
3.72694
20
-6.062
11
3.73444
21
-6.06575
0
LINE
8
BLACK
6
CONTINUOUS
10
3.73444
20
-6.06575
11
3.73819
21
-6.0695
0
LINE
8
BLACK
6
CONTINUOUS
10
3.73819
20
-6.0695
11
3.74194
21
-6.077
0
LINE
8
BLACK
6
CONTINUOUS
10
3.74194
20
-6.077
11
3.74569
21
-6.09199
0
LINE
8
BLACK
6
CONTINUOUS
10
3.74569
20
-6.09199
11
3.74569
21
-6.11074
0
LINE
8
BLACK
6
CONTINUOUS
10
3.74569
20
-6.11074
11
3.74194
21
-6.12574
0
LINE
8
BLACK
6
CONTINUOUS
10
3.74194
20
-6.12574
11
3.73819
21
-6.13324
0
LINE
8
BLACK
6
CONTINUOUS
10
3.73819
20
-6.13324
11
3.73444
21
-6.13699
0
LINE
8
BLACK
6
CONTINUOUS
10
3.73444
20
-6.13699
11
3.72694
21
-6.14074
0
LINE
8
BLACK
6
CONTINUOUS
10
3.72694
20
-6.14074
11
3.71944
21
-6.14074
0
LINE
8
BLACK
6
CONTINUOUS
10
3.71944
20
-6.14074
11
3.71194
21
-6.13699
0
LINE
8
BLACK
6
CONTINUOUS
10
3.71194
20
-6.13699
11
3.70819
21
-6.13324
0
LINE
8
BLACK
6
CONTINUOUS
10
3.70819
20
-6.13324
11
3.70444
21
-6.12574
0
LINE
8
BLACK
6
CONTINUOUS
10
3.70444
20
-6.12574
11
3.70069
21
-6.11074
0
LINE
8
BLACK
6
CONTINUOUS
10
3.70069
20
-6.11074
11
3.70069
21
-6.09199
0
LINE
8
BLACK
6
CONTINUOUS
10
3.70069
20
-6.09199
11
3.70444
21
-6.077
0
LINE
8
BLACK
6
CONTINUOUS
10
3.70444
20
-6.077
11
3.70819
21
-6.0695
0
LINE
8
BLACK
6
CONTINUOUS
10
3.70819
20
-6.0695
11
3.71194
21
-6.06575
0
LINE
8
BLACK
6
CONTINUOUS
10
3.71194
20
-6.06575
11
3.71944
21
-6.062
0
LINE
8
BLACK
6
CONTINUOUS
10
3.77943
20
-6.14074
11
3.77943
21
-6.08825
0
LINE
8
BLACK
6
CONTINUOUS
10
3.77943
20
-6.09574
11
3.78318
21
-6.09199
0
LINE
8
BLACK
6
CONTINUOUS
10
3.78318
20
-6.09199
11
3.79068
21
-6.08825
0
LINE
8
BLACK
6
CONTINUOUS
10
3.79068
20
-6.08825
11
3.80193
21
-6.08825
0
LINE
8
BLACK
6
CONTINUOUS
10
3.80193
20
-6.08825
11
3.80943
21
-6.09199
0
LINE
8
BLACK
6
CONTINUOUS
10
3.80943
20
-6.09199
11
3.81318
21
-6.09949
0
LINE
8
BLACK
6
CONTINUOUS
10
3.81318
20
-6.09949
11
3.81318
21
-6.14074
0
LINE
8
BLACK
6
CONTINUOUS
10
3.81318
20
-6.09949
11
3.81693
21
-6.09199
0
LINE
8
BLACK
6
CONTINUOUS
10
3.81693
20
-6.09199
11
3.82443
21
-6.08825
0
LINE
8
BLACK
6
CONTINUOUS
10
3.82443
20
-6.08825
11
3.83568
21
-6.08825
0
LINE
8
BLACK
6
CONTINUOUS
10
3.83568
20
-6.08825
11
3.84318
21
-6.09199
0
LINE
8
BLACK
6
CONTINUOUS
10
3.84318
20
-6.09199
11
3.84693
21
-6.09949
0
LINE
8
BLACK
6
CONTINUOUS
10
3.84693
20
-6.09949
11
3.84693
21
-6.14074
0
LINE
8
BLACK
6
CONTINUOUS
10
3.88442
20
-6.14074
11
3.88442
21
-6.08825
0
LINE
8
BLACK
6
CONTINUOUS
10
3.88442
20
-6.09574
11
3.88817
21
-6.09199
0
LINE
8
BLACK
6
CONTINUOUS
10
3.88817
20
-6.09199
11
3.89567
21
-6.08825
0
LINE
8
BLACK
6
CONTINUOUS
10
3.89567
20
-6.08825
11
3.90692
21
-6.08825
0
LINE
8
BLACK
6
CONTINUOUS
10
3.90692
20
-6.08825
11
3.91442
21
-6.09199
0
LINE
8
BLACK
6
CONTINUOUS
10
3.91442
20
-6.09199
11
3.91817
21
-6.09949
0
LINE
8
BLACK
6
CONTINUOUS
10
3.91817
20
-6.09949
11
3.91817
21
-6.14074
0
LINE
8
BLACK
6
CONTINUOUS
10
3.91817
20
-6.09949
11
3.92192
21
-6.09199
0
LINE
8
BLACK
6
CONTINUOUS
10
3.92192
20
-6.09199
11
3.92942
21
-6.08825
0
LINE
8
BLACK
6
CONTINUOUS
10
3.92942
20
-6.08825
11
3.94066
21
-6.08825
0
LINE
8
BLACK
6
CONTINUOUS
10
3.94066
20
-6.08825
11
3.94816
21
-6.09199
0
LINE
8
BLACK
6
CONTINUOUS
10
3.94816
20
-6.09199
11
3.95191
21
-6.09949
0
LINE
8
BLACK
6
CONTINUOUS
10
3.95191
20
-6.09949
11
3.95191
21
-6.14074
0
LINE
8
BLACK
6
CONTINUOUS
10
4.10564
20
-6.05825
11
4.03815
21
-6.15949
0
LINE
8
BLACK
6
CONTINUOUS
10
4.20688
20
-6.062
11
4.21438
21
-6.062
0
LINE
8
BLACK
6
CONTINUOUS
10
4.21438
20
-6.062
11
4.22188
21
-6.06575
0
LINE
8
BLACK
6
CONTINUOUS
10
4.22188
20
-6.06575
11
4.22563
21
-6.0695
0
LINE
8
BLACK
6
CONTINUOUS
10
4.22563
20
-6.0695
11
4.22938
21
-6.077
0
LINE
8
BLACK
6
CONTINUOUS
10
4.22938
20
-6.077
11
4.23313
21
-6.09199
0
LINE
8
BLACK
6
CONTINUOUS
10
4.23313
20
-6.09199
11
4.23313
21
-6.11074
0
LINE
8
BLACK
6
CONTINUOUS
10
4.23313
20
-6.11074
11
4.22938
21
-6.12574
0
LINE
8
BLACK
6
CONTINUOUS
10
4.22938
20
-6.12574
11
4.22563
21
-6.13324
0
LINE
8
BLACK
6
CONTINUOUS
10
4.22563
20
-6.13324
11
4.22188
21
-6.13699
0
LINE
8
BLACK
6
CONTINUOUS
10
4.22188
20
-6.13699
11
4.21438
21
-6.14074
0
LINE
8
BLACK
6
CONTINUOUS
10
4.21438
20
-6.14074
11
4.20688
21
-6.14074
0
LINE
8
BLACK
6
CONTINUOUS
10
4.20688
20
-6.14074
11
4.19938
21
-6.13699
0
LINE
8
BLACK
6
CONTINUOUS
10
4.19938
20
-6.13699
11
4.19563
21
-6.13324
0
LINE
8
BLACK
6
CONTINUOUS
10
4.19563
20
-6.13324
11
4.19188
21
-6.12574
0
LINE
8
BLACK
6
CONTINUOUS
10
4.19188
20
-6.12574
11
4.18813
21
-6.11074
0
LINE
8
BLACK
6
CONTINUOUS
10
4.18813
20
-6.11074
11
4.18813
21
-6.09199
0
LINE
8
BLACK
6
CONTINUOUS
10
4.18813
20
-6.09199
11
4.19188
21
-6.077
0
LINE
8
BLACK
6
CONTINUOUS
10
4.19188
20
-6.077
11
4.19563
21
-6.0695
0
LINE
8
BLACK
6
CONTINUOUS
10
4.19563
20
-6.0695
11
4.19938
21
-6.06575
0
LINE
8
BLACK
6
CONTINUOUS
10
4.19938
20
-6.06575
11
4.20688
21
-6.062
0
LINE
8
BLACK
6
CONTINUOUS
10
4.26687
20
-6.13324
11
4.27062
21
-6.13699
0
LINE
8
BLACK
6
CONTINUOUS
10
4.27062
20
-6.13699
11
4.26687
21
-6.14074
0
LINE
8
BLACK
6
CONTINUOUS
10
4.26687
20
-6.14074
11
4.26312
21
-6.13699
0
LINE
8
BLACK
6
CONTINUOUS
10
4.26312
20
-6.13699
11
4.26687
21
-6.13324
0
LINE
8
BLACK
6
CONTINUOUS
10
4.26687
20
-6.13324
11
4.26687
21
-6.14074
0
LINE
8
BLACK
6
CONTINUOUS
10
4.31937
20
-6.062
11
4.32687
21
-6.062
0
LINE
8
BLACK
6
CONTINUOUS
10
4.32687
20
-6.062
11
4.33436
21
-6.06575
0
LINE
8
BLACK
6
CONTINUOUS
10
4.33436
20
-6.06575
11
4.33811
21
-6.0695
0
LINE
8
BLACK
6
CONTINUOUS
10
4.33811
20
-6.0695
11
4.34186
21
-6.077
0
LINE
8
BLACK
6
CONTINUOUS
10
4.34186
20
-6.077
11
4.34561
21
-6.09199
0
LINE
8
BLACK
6
CONTINUOUS
10
4.34561
20
-6.09199
11
4.34561
21
-6.11074
0
LINE
8
BLACK
6
CONTINUOUS
10
4.34561
20
-6.11074
11
4.34186
21
-6.12574
0
LINE
8
BLACK
6
CONTINUOUS
10
4.34186
20
-6.12574
11
4.33811
21
-6.13324
0
LINE
8
BLACK
6
CONTINUOUS
10
4.33811
20
-6.13324
11
4.33436
21
-6.13699
0
LINE
8
BLACK
6
CONTINUOUS
10
4.33436
20
-6.13699
11
4.32687
21
-6.14074
0
LINE
8
BLACK
6
CONTINUOUS
10
4.32687
20
-6.14074
11
4.31937
21
-6.14074
0
LINE
8
BLACK
6
CONTINUOUS
10
4.31937
20
-6.14074
11
4.31187
21
-6.13699
0
LINE
8
BLACK
6
CONTINUOUS
10
4.31187
20
-6.13699
11
4.30812
21
-6.13324
0
LINE
8
BLACK
6
CONTINUOUS
10
4.30812
20
-6.13324
11
4.30437
21
-6.12574
0
LINE
8
BLACK
6
CONTINUOUS
10
4.30437
20
-6.12574
11
4.30062
21
-6.11074
0
LINE
8
BLACK
6
CONTINUOUS
10
4.30062
20
-6.11074
11
4.30062
21
-6.09199
0
LINE
8
BLACK
6
CONTINUOUS
10
4.30062
20
-6.09199
11
4.30437
21
-6.077
0
LINE
8
BLACK
6
CONTINUOUS
10
4.30437
20
-6.077
11
4.30812
21
-6.0695
0
LINE
8
BLACK
6
CONTINUOUS
10
4.30812
20
-6.0695
11
4.31187
21
-6.06575
0
LINE
8
BLACK
6
CONTINUOUS
10
4.31187
20
-6.06575
11
4.31937
21
-6.062
0
LINE
8
BLACK
6
CONTINUOUS
10
4.37186
20
-6.062
11
4.4206
21
-6.062
0
LINE
8
BLACK
6
CONTINUOUS
10
4.4206
20
-6.062
11
4.39436
21
-6.09199
0
LINE
8
BLACK
6
CONTINUOUS
10
4.39436
20
-6.09199
11
4.40561
21
-6.09199
0
LINE
8
BLACK
6
CONTINUOUS
10
4.40561
20
-6.09199
11
4.4131
21
-6.09574
0
LINE
8
BLACK
6
CONTINUOUS
10
4.4131
20
-6.09574
11
4.41685
21
-6.09949
0
LINE
8
BLACK
6
CONTINUOUS
10
4.41685
20
-6.09949
11
4.4206
21
-6.10699
0
LINE
8
BLACK
6
CONTINUOUS
10
4.4206
20
-6.10699
11
4.4206
21
-6.12574
0
LINE
8
BLACK
6
CONTINUOUS
10
4.4206
20
-6.12574
11
4.41685
21
-6.13324
0
LINE
8
BLACK
6
CONTINUOUS
10
4.41685
20
-6.13324
11
4.4131
21
-6.13699
0
LINE
8
BLACK
6
CONTINUOUS
10
4.4131
20
-6.13699
11
4.40561
21
-6.14074
0
LINE
8
BLACK
6
CONTINUOUS
10
4.40561
20
-6.14074
11
4.38311
21
-6.14074
0
LINE
8
BLACK
6
CONTINUOUS
10
4.38311
20
-6.14074
11
4.37561
21
-6.13699
0
LINE
8
BLACK
6
CONTINUOUS
10
4.37561
20
-6.13699
11
4.37186
21
-6.13324
0
LINE
8
BLACK
6
CONTINUOUS
10
4.49184
20
-6.062
11
4.45435
21
-6.062
0
LINE
8
BLACK
6
CONTINUOUS
10
4.45435
20
-6.062
11
4.4506
21
-6.09949
0
LINE
8
BLACK
6
CONTINUOUS
10
4.4506
20
-6.09949
11
4.45435
21
-6.09574
0
LINE
8
BLACK
6
CONTINUOUS
10
4.45435
20
-6.09574
11
4.46185
21
-6.09199
0
LINE
8
BLACK
6
CONTINUOUS
10
4.46185
20
-6.09199
11
4.4806
21
-6.09199
0
LINE
8
BLACK
6
CONTINUOUS
10
4.4806
20
-6.09199
11
4.4881
21
-6.09574
0
LINE
8
BLACK
6
CONTINUOUS
10
4.4881
20
-6.09574
11
4.49184
21
-6.09949
0
LINE
8
BLACK
6
CONTINUOUS
10
4.49184
20
-6.09949
11
4.49559
21
-6.10699
0
LINE
8
BLACK
6
CONTINUOUS
10
4.49559
20
-6.10699
11
4.49559
21
-6.12574
0
LINE
8
BLACK
6
CONTINUOUS
10
4.49559
20
-6.12574
11
4.49184
21
-6.13324
0
LINE
8
BLACK
6
CONTINUOUS
10
4.49184
20
-6.13324
11
4.4881
21
-6.13699
0
LINE
8
BLACK
6
CONTINUOUS
10
4.4881
20
-6.13699
11
4.4806
21
-6.14074
0
LINE
8
BLACK
6
CONTINUOUS
10
4.4806
20
-6.14074
11
4.46185
21
-6.14074
0
LINE
8
BLACK
6
CONTINUOUS
10
4.46185
20
-6.14074
11
4.45435
21
-6.13699
0
LINE
8
BLACK
6
CONTINUOUS
10
4.45435
20
-6.13699
11
4.4506
21
-6.13324
0
LINE
8
BLACK
6
CONTINUOUS
10
4.56309
20
-6.08825
11
4.56309
21
-6.14074
0
LINE
8
BLACK
6
CONTINUOUS
10
4.54434
20
-6.05825
11
4.52559
21
-6.11449
0
LINE
8
BLACK
6
CONTINUOUS
10
4.52559
20
-6.11449
11
4.57433
21
-6.11449
0
LINE
8
BLACK
6
CONTINUOUS
10
4.60058
20
-6.062
11
4.60058
21
-6.077
0
LINE
8
BLACK
6
CONTINUOUS
10
4.63058
20
-6.062
11
4.63058
21
-6.077
0
LINE
8
BLACK
6
CONTINUOUS
10
4.74681
20
-6.17073
11
4.74306
21
-6.16699
0
LINE
8
BLACK
6
CONTINUOUS
10
4.74306
20
-6.16699
11
4.73556
21
-6.15574
0
LINE
8
BLACK
6
CONTINUOUS
10
4.73556
20
-6.15574
11
4.73181
21
-6.14824
0
LINE
8
BLACK
6
CONTINUOUS
10
4.73181
20
-6.14824
11
4.72807
21
-6.13699
0
LINE
8
BLACK
6
CONTINUOUS
10
4.72807
20
-6.13699
11
4.72432
21
-6.11824
0
LINE
8
BLACK
6
CONTINUOUS
10
4.72432
20
-6.11824
11
4.72432
21
-6.10324
0
LINE
8
BLACK
6
CONTINUOUS
10
4.72432
20
-6.10324
11
4.72807
21
-6.0845
0
LINE
8
BLACK
6
CONTINUOUS
10
4.72807
20
-6.0845
11
4.73181
21
-6.07325
0
LINE
8
BLACK
6
CONTINUOUS
10
4.73181
20
-6.07325
11
4.73556
21
-6.06575
0
LINE
8
BLACK
6
CONTINUOUS
10
4.73556
20
-6.06575
11
4.74306
21
-6.0545
0
LINE
8
BLACK
6
CONTINUOUS
10
4.74306
20
-6.0545
11
4.74681
21
-6.05075
0
LINE
8
BLACK
6
CONTINUOUS
10
4.78056
20
-6.14074
11
4.79556
21
-6.14074
0
LINE
8
BLACK
6
CONTINUOUS
10
4.79556
20
-6.14074
11
4.80306
21
-6.13699
0
LINE
8
BLACK
6
CONTINUOUS
10
4.80306
20
-6.13699
11
4.80681
21
-6.13324
0
LINE
8
BLACK
6
CONTINUOUS
10
4.80681
20
-6.13324
11
4.8143
21
-6.12199
0
LINE
8
BLACK
6
CONTINUOUS
10
4.8143
20
-6.12199
11
4.81805
21
-6.10699
0
LINE
8
BLACK
6
CONTINUOUS
10
4.81805
20
-6.10699
11
4.81805
21
-6.077
0
LINE
8
BLACK
6
CONTINUOUS
10
4.81805
20
-6.077
11
4.8143
21
-6.0695
0
LINE
8
BLACK
6
CONTINUOUS
10
4.8143
20
-6.0695
11
4.81055
21
-6.06575
0
LINE
8
BLACK
6
CONTINUOUS
10
4.81055
20
-6.06575
11
4.80306
21
-6.062
0
LINE
8
BLACK
6
CONTINUOUS
10
4.80306
20
-6.062
11
4.78806
21
-6.062
0
LINE
8
BLACK
6
CONTINUOUS
10
4.78806
20
-6.062
11
4.78056
21
-6.06575
0
LINE
8
BLACK
6
CONTINUOUS
10
4.78056
20
-6.06575
11
4.77681
21
-6.0695
0
LINE
8
BLACK
6
CONTINUOUS
10
4.77681
20
-6.0695
11
4.77306
21
-6.077
0
LINE
8
BLACK
6
CONTINUOUS
10
4.77306
20
-6.077
11
4.77306
21
-6.09574
0
LINE
8
BLACK
6
CONTINUOUS
10
4.77306
20
-6.09574
11
4.77681
21
-6.10324
0
LINE
8
BLACK
6
CONTINUOUS
10
4.77681
20
-6.10324
11
4.78056
21
-6.10699
0
LINE
8
BLACK
6
CONTINUOUS
10
4.78056
20
-6.10699
11
4.78806
21
-6.11074
0
LINE
8
BLACK
6
CONTINUOUS
10
4.78806
20
-6.11074
11
4.80306
21
-6.11074
0
LINE
8
BLACK
6
CONTINUOUS
10
4.80306
20
-6.11074
11
4.81055
21
-6.10699
0
LINE
8
BLACK
6
CONTINUOUS
10
4.81055
20
-6.10699
11
4.8143
21
-6.10324
0
LINE
8
BLACK
6
CONTINUOUS
10
4.8143
20
-6.10324
11
4.81805
21
-6.09574
0
LINE
8
BLACK
6
CONTINUOUS
10
4.91179
20
-6.14074
11
4.91179
21
-6.062
0
LINE
8
BLACK
6
CONTINUOUS
10
4.94554
20
-6.14074
11
4.94554
21
-6.09949
0
LINE
8
BLACK
6
CONTINUOUS
10
4.94554
20
-6.09949
11
4.94179
21
-6.09199
0
LINE
8
BLACK
6
CONTINUOUS
10
4.94179
20
-6.09199
11
4.93429
21
-6.08825
0
LINE
8
BLACK
6
CONTINUOUS
10
4.93429
20
-6.08825
11
4.92304
21
-6.08825
0
LINE
8
BLACK
6
CONTINUOUS
10
4.92304
20
-6.08825
11
4.91554
21
-6.09199
0
LINE
8
BLACK
6
CONTINUOUS
10
4.91554
20
-6.09199
11
4.91179
21
-6.09574
0
LINE
8
BLACK
6
CONTINUOUS
10
4.99428
20
-6.14074
11
4.98678
21
-6.13699
0
LINE
8
BLACK
6
CONTINUOUS
10
4.98678
20
-6.13699
11
4.98303
21
-6.13324
0
LINE
8
BLACK
6
CONTINUOUS
10
4.98303
20
-6.13324
11
4.97928
21
-6.12574
0
LINE
8
BLACK
6
CONTINUOUS
10
4.97928
20
-6.12574
11
4.97928
21
-6.10324
0
LINE
8
BLACK
6
CONTINUOUS
10
4.97928
20
-6.10324
11
4.98303
21
-6.09574
0
LINE
8
BLACK
6
CONTINUOUS
10
4.98303
20
-6.09574
11
4.98678
21
-6.09199
0
LINE
8
BLACK
6
CONTINUOUS
10
4.98678
20
-6.09199
11
4.99428
21
-6.08825
0
LINE
8
BLACK
6
CONTINUOUS
10
4.99428
20
-6.08825
11
5.00553
21
-6.08825
0
LINE
8
BLACK
6
CONTINUOUS
10
5.00553
20
-6.08825
11
5.01303
21
-6.09199
0
LINE
8
BLACK
6
CONTINUOUS
10
5.01303
20
-6.09199
11
5.01678
21
-6.09574
0
LINE
8
BLACK
6
CONTINUOUS
10
5.01678
20
-6.09574
11
5.02053
21
-6.10324
0
LINE
8
BLACK
6
CONTINUOUS
10
5.02053
20
-6.10324
11
5.02053
21
-6.12574
0
LINE
8
BLACK
6
CONTINUOUS
10
5.02053
20
-6.12574
11
5.01678
21
-6.13324
0
LINE
8
BLACK
6
CONTINUOUS
10
5.01678
20
-6.13324
11
5.01303
21
-6.13699
0
LINE
8
BLACK
6
CONTINUOUS
10
5.01303
20
-6.13699
11
5.00553
21
-6.14074
0
LINE
8
BLACK
6
CONTINUOUS
10
5.00553
20
-6.14074
11
4.99428
21
-6.14074
0
LINE
8
BLACK
6
CONTINUOUS
10
5.06552
20
-6.14074
11
5.05802
21
-6.13699
0
LINE
8
BLACK
6
CONTINUOUS
10
5.05802
20
-6.13699
11
5.05427
21
-6.12949
0
LINE
8
BLACK
6
CONTINUOUS
10
5.05427
20
-6.12949
11
5.05427
21
-6.062
0
LINE
8
BLACK
6
CONTINUOUS
10
5.12552
20
-6.13699
11
5.11802
21
-6.14074
0
LINE
8
BLACK
6
CONTINUOUS
10
5.11802
20
-6.14074
11
5.10302
21
-6.14074
0
LINE
8
BLACK
6
CONTINUOUS
10
5.10302
20
-6.14074
11
5.09552
21
-6.13699
0
LINE
8
BLACK
6
CONTINUOUS
10
5.09552
20
-6.13699
11
5.09177
21
-6.12949
0
LINE
8
BLACK
6
CONTINUOUS
10
5.09177
20
-6.12949
11
5.09177
21
-6.09949
0
LINE
8
BLACK
6
CONTINUOUS
10
5.09177
20
-6.09949
11
5.09552
21
-6.09199
0
LINE
8
BLACK
6
CONTINUOUS
10
5.09552
20
-6.09199
11
5.10302
21
-6.08825
0
LINE
8
BLACK
6
CONTINUOUS
10
5.10302
20
-6.08825
11
5.11802
21
-6.08825
0
LINE
8
BLACK
6
CONTINUOUS
10
5.11802
20
-6.08825
11
5.12552
21
-6.09199
0
LINE
8
BLACK
6
CONTINUOUS
10
5.12552
20
-6.09199
11
5.12927
21
-6.09949
0
LINE
8
BLACK
6
CONTINUOUS
10
5.12927
20
-6.09949
11
5.12927
21
-6.10699
0
LINE
8
BLACK
6
CONTINUOUS
10
5.12927
20
-6.10699
11
5.09177
21
-6.11449
0
LINE
8
BLACK
6
CONTINUOUS
10
5.15926
20
-6.13699
11
5.16676
21
-6.14074
0
LINE
8
BLACK
6
CONTINUOUS
10
5.16676
20
-6.14074
11
5.18176
21
-6.14074
0
LINE
8
BLACK
6
CONTINUOUS
10
5.18176
20
-6.14074
11
5.18926
21
-6.13699
0
LINE
8
BLACK
6
CONTINUOUS
10
5.18926
20
-6.13699
11
5.19301
21
-6.12949
0
LINE
8
BLACK
6
CONTINUOUS
10
5.19301
20
-6.12949
11
5.19301
21
-6.12574
0
LINE
8
BLACK
6
CONTINUOUS
10
5.19301
20
-6.12574
11
5.18926
21
-6.11824
0
LINE
8
BLACK
6
CONTINUOUS
10
5.18926
20
-6.11824
11
5.18176
21
-6.11449
0
LINE
8
BLACK
6
CONTINUOUS
10
5.18176
20
-6.11449
11
5.17051
21
-6.11449
0
LINE
8
BLACK
6
CONTINUOUS
10
5.17051
20
-6.11449
11
5.16301
21
-6.11074
0
LINE
8
BLACK
6
CONTINUOUS
10
5.16301
20
-6.11074
11
5.15926
21
-6.10324
0
LINE
8
BLACK
6
CONTINUOUS
10
5.15926
20
-6.10324
11
5.15926
21
-6.09949
0
LINE
8
BLACK
6
CONTINUOUS
10
5.15926
20
-6.09949
11
5.16301
21
-6.09199
0
LINE
8
BLACK
6
CONTINUOUS
10
5.16301
20
-6.09199
11
5.17051
21
-6.08825
0
LINE
8
BLACK
6
CONTINUOUS
10
5.17051
20
-6.08825
11
5.18176
21
-6.08825
0
LINE
8
BLACK
6
CONTINUOUS
10
5.18176
20
-6.08825
11
5.18926
21
-6.09199
0
LINE
8
BLACK
6
CONTINUOUS
10
5.21925
20
-6.17073
11
5.223
21
-6.16699
0
LINE
8
BLACK
6
CONTINUOUS
10
5.223
20
-6.16699
11
5.2305
21
-6.15574
0
LINE
8
BLACK
6
CONTINUOUS
10
5.2305
20
-6.15574
11
5.23425
21
-6.14824
0
LINE
8
BLACK
6
CONTINUOUS
10
5.23425
20
-6.14824
11
5.238
21
-6.13699
0
LINE
8
BLACK
6
CONTINUOUS
10
5.238
20
-6.13699
11
5.24175
21
-6.11824
0
LINE
8
BLACK
6
CONTINUOUS
10
5.24175
20
-6.11824
11
5.24175
21
-6.10324
0
LINE
8
BLACK
6
CONTINUOUS
10
5.24175
20
-6.10324
11
5.238
21
-6.0845
0
LINE
8
BLACK
6
CONTINUOUS
10
5.238
20
-6.0845
11
5.23425
21
-6.07325
0
LINE
8
BLACK
6
CONTINUOUS
10
5.23425
20
-6.07325
11
5.2305
21
-6.06575
0
LINE
8
BLACK
6
CONTINUOUS
10
5.2305
20
-6.06575
11
5.223
21
-6.0545
0
LINE
8
BLACK
6
CONTINUOUS
10
5.223
20
-6.0545
11
5.21925
21
-6.05075
0
LINE
8
BLACK
6
CONTINUOUS
10
3.32106
20
-6.22854
11
3.34055
21
-6.20906
0
LINE
8
BLACK
6
CONTINUOUS
10
3.34055
20
-6.20906
11
3.32106
21
-6.18957
0
LINE
8
BLACK
6
CONTINUOUS
10
3.32106
20
-6.18957
11
3.30157
21
-6.20906
0
LINE
8
BLACK
6
CONTINUOUS
10
3.30157
20
-6.20906
11
3.32106
21
-6.22854
0
LINE
8
BLACK
6
CONTINUOUS
10
3.45697
20
-6.16594
11
3.46447
21
-6.16594
0
LINE
8
BLACK
6
CONTINUOUS
10
3.46447
20
-6.16594
11
3.47197
21
-6.16969
0
LINE
8
BLACK
6
CONTINUOUS
10
3.47197
20
-6.16969
11
3.47572
21
-6.17343
0
LINE
8
BLACK
6
CONTINUOUS
10
3.47572
20
-6.17343
11
3.47947
21
-6.18093
0
LINE
8
BLACK
6
CONTINUOUS
10
3.47947
20
-6.18093
11
3.48322
21
-6.19593
0
LINE
8
BLACK
6
CONTINUOUS
10
3.48322
20
-6.19593
11
3.48322
21
-6.21468
0
LINE
8
BLACK
6
CONTINUOUS
10
3.48322
20
-6.21468
11
3.47947
21
-6.22968
0
LINE
8
BLACK
6
CONTINUOUS
10
3.47947
20
-6.22968
11
3.47572
21
-6.23718
0
LINE
8
BLACK
6
CONTINUOUS
10
3.47572
20
-6.23718
11
3.47197
21
-6.24093
0
LINE
8
BLACK
6
CONTINUOUS
10
3.47197
20
-6.24093
11
3.46447
21
-6.24468
0
LINE
8
BLACK
6
CONTINUOUS
10
3.46447
20
-6.24468
11
3.45697
21
-6.24468
0
LINE
8
BLACK
6
CONTINUOUS
10
3.45697
20
-6.24468
11
3.44948
21
-6.24093
0
LINE
8
BLACK
6
CONTINUOUS
10
3.44948
20
-6.24093
11
3.44573
21
-6.23718
0
LINE
8
BLACK
6
CONTINUOUS
10
3.44573
20
-6.23718
11
3.44198
21
-6.22968
0
LINE
8
BLACK
6
CONTINUOUS
10
3.44198
20
-6.22968
11
3.43823
21
-6.21468
0
LINE
8
BLACK
6
CONTINUOUS
10
3.43823
20
-6.21468
11
3.43823
21
-6.19593
0
LINE
8
BLACK
6
CONTINUOUS
10
3.43823
20
-6.19593
11
3.44198
21
-6.18093
0
LINE
8
BLACK
6
CONTINUOUS
10
3.44198
20
-6.18093
11
3.44573
21
-6.17343
0
LINE
8
BLACK
6
CONTINUOUS
10
3.44573
20
-6.17343
11
3.44948
21
-6.16969
0
LINE
8
BLACK
6
CONTINUOUS
10
3.44948
20
-6.16969
11
3.45697
21
-6.16594
0
LINE
8
BLACK
6
CONTINUOUS
10
3.51697
20
-6.23718
11
3.52072
21
-6.24093
0
LINE
8
BLACK
6
CONTINUOUS
10
3.52072
20
-6.24093
11
3.51697
21
-6.24468
0
LINE
8
BLACK
6
CONTINUOUS
10
3.51697
20
-6.24468
11
3.51322
21
-6.24093
0
LINE
8
BLACK
6
CONTINUOUS
10
3.51322
20
-6.24093
11
3.51697
21
-6.23718
0
LINE
8
BLACK
6
CONTINUOUS
10
3.51697
20
-6.23718
11
3.51697
21
-6.24468
0
LINE
8
BLACK
6
CONTINUOUS
10
3.55821
20
-6.24468
11
3.57321
21
-6.24468
0
LINE
8
BLACK
6
CONTINUOUS
10
3.57321
20
-6.24468
11
3.58071
21
-6.24093
0
LINE
8
BLACK
6
CONTINUOUS
10
3.58071
20
-6.24093
11
3.58446
21
-6.23718
0
LINE
8
BLACK
6
CONTINUOUS
10
3.58446
20
-6.23718
11
3.59196
21
-6.22593
0
LINE
8
BLACK
6
CONTINUOUS
10
3.59196
20
-6.22593
11
3.59571
21
-6.21093
0
LINE
8
BLACK
6
CONTINUOUS
10
3.59571
20
-6.21093
11
3.59571
21
-6.18093
0
LINE
8
BLACK
6
CONTINUOUS
10
3.59571
20
-6.18093
11
3.59196
21
-6.17343
0
LINE
8
BLACK
6
CONTINUOUS
10
3.59196
20
-6.17343
11
3.58821
21
-6.16969
0
LINE
8
BLACK
6
CONTINUOUS
10
3.58821
20
-6.16969
11
3.58071
21
-6.16594
0
LINE
8
BLACK
6
CONTINUOUS
10
3.58071
20
-6.16594
11
3.56571
21
-6.16594
0
LINE
8
BLACK
6
CONTINUOUS
10
3.56571
20
-6.16594
11
3.55821
21
-6.16969
0
LINE
8
BLACK
6
CONTINUOUS
10
3.55821
20
-6.16969
11
3.55446
21
-6.17343
0
LINE
8
BLACK
6
CONTINUOUS
10
3.55446
20
-6.17343
11
3.55071
21
-6.18093
0
LINE
8
BLACK
6
CONTINUOUS
10
3.55071
20
-6.18093
11
3.55071
21
-6.19968
0
LINE
8
BLACK
6
CONTINUOUS
10
3.55071
20
-6.19968
11
3.55446
21
-6.20718
0
LINE
8
BLACK
6
CONTINUOUS
10
3.55446
20
-6.20718
11
3.55821
21
-6.21093
0
LINE
8
BLACK
6
CONTINUOUS
10
3.55821
20
-6.21093
11
3.56571
21
-6.21468
0
LINE
8
BLACK
6
CONTINUOUS
10
3.56571
20
-6.21468
11
3.58071
21
-6.21468
0
LINE
8
BLACK
6
CONTINUOUS
10
3.58071
20
-6.21468
11
3.58821
21
-6.21093
0
LINE
8
BLACK
6
CONTINUOUS
10
3.58821
20
-6.21093
11
3.59196
21
-6.20718
0
LINE
8
BLACK
6
CONTINUOUS
10
3.59196
20
-6.20718
11
3.59571
21
-6.19968
0
LINE
8
BLACK
6
CONTINUOUS
10
3.6332
20
-6.24468
11
3.6482
21
-6.24468
0
LINE
8
BLACK
6
CONTINUOUS
10
3.6482
20
-6.24468
11
3.6557
21
-6.24093
0
LINE
8
BLACK
6
CONTINUOUS
10
3.6557
20
-6.24093
11
3.65945
21
-6.23718
0
LINE
8
BLACK
6
CONTINUOUS
10
3.65945
20
-6.23718
11
3.66695
21
-6.22593
0
LINE
8
BLACK
6
CONTINUOUS
10
3.66695
20
-6.22593
11
3.6707
21
-6.21093
0
LINE
8
BLACK
6
CONTINUOUS
10
3.6707
20
-6.21093
11
3.6707
21
-6.18093
0
LINE
8
BLACK
6
CONTINUOUS
10
3.6707
20
-6.18093
11
3.66695
21
-6.17343
0
LINE
8
BLACK
6
CONTINUOUS
10
3.66695
20
-6.17343
11
3.6632
21
-6.16969
0
LINE
8
BLACK
6
CONTINUOUS
10
3.6632
20
-6.16969
11
3.6557
21
-6.16594
0
LINE
8
BLACK
6
CONTINUOUS
10
3.6557
20
-6.16594
11
3.6407
21
-6.16594
0
LINE
8
BLACK
6
CONTINUOUS
10
3.6407
20
-6.16594
11
3.6332
21
-6.16969
0
LINE
8
BLACK
6
CONTINUOUS
10
3.6332
20
-6.16969
11
3.62945
21
-6.17343
0
LINE
8
BLACK
6
CONTINUOUS
10
3.62945
20
-6.17343
11
3.6257
21
-6.18093
0
LINE
8
BLACK
6
CONTINUOUS
10
3.6257
20
-6.18093
11
3.6257
21
-6.19968
0
LINE
8
BLACK
6
CONTINUOUS
10
3.6257
20
-6.19968
11
3.62945
21
-6.20718
0
LINE
8
BLACK
6
CONTINUOUS
10
3.62945
20
-6.20718
11
3.6332
21
-6.21093
0
LINE
8
BLACK
6
CONTINUOUS
10
3.6332
20
-6.21093
11
3.6407
21
-6.21468
0
LINE
8
BLACK
6
CONTINUOUS
10
3.6407
20
-6.21468
11
3.6557
21
-6.21468
0
LINE
8
BLACK
6
CONTINUOUS
10
3.6557
20
-6.21468
11
3.6632
21
-6.21093
0
LINE
8
BLACK
6
CONTINUOUS
10
3.6632
20
-6.21093
11
3.66695
21
-6.20718
0
LINE
8
BLACK
6
CONTINUOUS
10
3.66695
20
-6.20718
11
3.6707
21
-6.19968
0
LINE
8
BLACK
6
CONTINUOUS
10
3.71944
20
-6.16594
11
3.72694
21
-6.16594
0
LINE
8
BLACK
6
CONTINUOUS
10
3.72694
20
-6.16594
11
3.73444
21
-6.16969
0
LINE
8
BLACK
6
CONTINUOUS
10
3.73444
20
-6.16969
11
3.73819
21
-6.17343
0
LINE
8
BLACK
6
CONTINUOUS
10
3.73819
20
-6.17343
11
3.74194
21
-6.18093
0
LINE
8
BLACK
6
CONTINUOUS
10
3.74194
20
-6.18093
11
3.74569
21
-6.19593
0
LINE
8
BLACK
6
CONTINUOUS
10
3.74569
20
-6.19593
11
3.74569
21
-6.21468
0
LINE
8
BLACK
6
CONTINUOUS
10
3.74569
20
-6.21468
11
3.74194
21
-6.22968
0
LINE
8
BLACK
6
CONTINUOUS
10
3.74194
20
-6.22968
11
3.73819
21
-6.23718
0
LINE
8
BLACK
6
CONTINUOUS
10
3.73819
20
-6.23718
11
3.73444
21
-6.24093
0
LINE
8
BLACK
6
CONTINUOUS
10
3.73444
20
-6.24093
11
3.72694
21
-6.24468
0
LINE
8
BLACK
6
CONTINUOUS
10
3.72694
20
-6.24468
11
3.71944
21
-6.24468
0
LINE
8
BLACK
6
CONTINUOUS
10
3.71944
20
-6.24468
11
3.71194
21
-6.24093
0
LINE
8
BLACK
6
CONTINUOUS
10
3.71194
20
-6.24093
11
3.70819
21
-6.23718
0
LINE
8
BLACK
6
CONTINUOUS
10
3.70819
20
-6.23718
11
3.70444
21
-6.22968
0
LINE
8
BLACK
6
CONTINUOUS
10
3.70444
20
-6.22968
11
3.70069
21
-6.21468
0
LINE
8
BLACK
6
CONTINUOUS
10
3.70069
20
-6.21468
11
3.70069
21
-6.19593
0
LINE
8
BLACK
6
CONTINUOUS
10
3.70069
20
-6.19593
11
3.70444
21
-6.18093
0
LINE
8
BLACK
6
CONTINUOUS
10
3.70444
20
-6.18093
11
3.70819
21
-6.17343
0
LINE
8
BLACK
6
CONTINUOUS
10
3.70819
20
-6.17343
11
3.71194
21
-6.16969
0
LINE
8
BLACK
6
CONTINUOUS
10
3.71194
20
-6.16969
11
3.71944
21
-6.16594
0
LINE
8
BLACK
6
CONTINUOUS
10
3.77943
20
-6.24468
11
3.77943
21
-6.19218
0
LINE
8
BLACK
6
CONTINUOUS
10
3.77943
20
-6.19968
11
3.78318
21
-6.19593
0
LINE
8
BLACK
6
CONTINUOUS
10
3.78318
20
-6.19593
11
3.79068
21
-6.19218
0
LINE
8
BLACK
6
CONTINUOUS
10
3.79068
20
-6.19218
11
3.80193
21
-6.19218
0
LINE
8
BLACK
6
CONTINUOUS
10
3.80193
20
-6.19218
11
3.80943
21
-6.19593
0
LINE
8
BLACK
6
CONTINUOUS
10
3.80943
20
-6.19593
11
3.81318
21
-6.20343
0
LINE
8
BLACK
6
CONTINUOUS
10
3.81318
20
-6.20343
11
3.81318
21
-6.24468
0
LINE
8
BLACK
6
CONTINUOUS
10
3.81318
20
-6.20343
11
3.81693
21
-6.19593
0
LINE
8
BLACK
6
CONTINUOUS
10
3.81693
20
-6.19593
11
3.82443
21
-6.19218
0
LINE
8
BLACK
6
CONTINUOUS
10
3.82443
20
-6.19218
11
3.83568
21
-6.19218
0
LINE
8
BLACK
6
CONTINUOUS
10
3.83568
20
-6.19218
11
3.84318
21
-6.19593
0
LINE
8
BLACK
6
CONTINUOUS
10
3.84318
20
-6.19593
11
3.84693
21
-6.20343
0
LINE
8
BLACK
6
CONTINUOUS
10
3.84693
20
-6.20343
11
3.84693
21
-6.24468
0
LINE
8
BLACK
6
CONTINUOUS
10
3.88442
20
-6.24468
11
3.88442
21
-6.19218
0
LINE
8
BLACK
6
CONTINUOUS
10
3.88442
20
-6.19968
11
3.88817
21
-6.19593
0
LINE
8
BLACK
6
CONTINUOUS
10
3.88817
20
-6.19593
11
3.89567
21
-6.19218
0
LINE
8
BLACK
6
CONTINUOUS
10
3.89567
20
-6.19218
11
3.90692
21
-6.19218
0
LINE
8
BLACK
6
CONTINUOUS
10
3.90692
20
-6.19218
11
3.91442
21
-6.19593
0
LINE
8
BLACK
6
CONTINUOUS
10
3.91442
20
-6.19593
11
3.91817
21
-6.20343
0
LINE
8
BLACK
6
CONTINUOUS
10
3.91817
20
-6.20343
11
3.91817
21
-6.24468
0
LINE
8
BLACK
6
CONTINUOUS
10
3.91817
20
-6.20343
11
3.92192
21
-6.19593
0
LINE
8
BLACK
6
CONTINUOUS
10
3.92192
20
-6.19593
11
3.92942
21
-6.19218
0
LINE
8
BLACK
6
CONTINUOUS
10
3.92942
20
-6.19218
11
3.94066
21
-6.19218
0
LINE
8
BLACK
6
CONTINUOUS
10
3.94066
20
-6.19218
11
3.94816
21
-6.19593
0
LINE
8
BLACK
6
CONTINUOUS
10
3.94816
20
-6.19593
11
3.95191
21
-6.20343
0
LINE
8
BLACK
6
CONTINUOUS
10
3.95191
20
-6.20343
11
3.95191
21
-6.24468
0
LINE
8
BLACK
6
CONTINUOUS
10
4.10564
20
-6.16219
11
4.03815
21
-6.26342
0
LINE
8
BLACK
6
CONTINUOUS
10
4.20688
20
-6.16594
11
4.21438
21
-6.16594
0
LINE
8
BLACK
6
CONTINUOUS
10
4.21438
20
-6.16594
11
4.22188
21
-6.16969
0
LINE
8
BLACK
6
CONTINUOUS
10
4.22188
20
-6.16969
11
4.22563
21
-6.17343
0
LINE
8
BLACK
6
CONTINUOUS
10
4.22563
20
-6.17343
11
4.22938
21
-6.18093
0
LINE
8
BLACK
6
CONTINUOUS
10
4.22938
20
-6.18093
11
4.23313
21
-6.19593
0
LINE
8
BLACK
6
CONTINUOUS
10
4.23313
20
-6.19593
11
4.23313
21
-6.21468
0
LINE
8
BLACK
6
CONTINUOUS
10
4.23313
20
-6.21468
11
4.22938
21
-6.22968
0
LINE
8
BLACK
6
CONTINUOUS
10
4.22938
20
-6.22968
11
4.22563
21
-6.23718
0
LINE
8
BLACK
6
CONTINUOUS
10
4.22563
20
-6.23718
11
4.22188
21
-6.24093
0
LINE
8
BLACK
6
CONTINUOUS
10
4.22188
20
-6.24093
11
4.21438
21
-6.24468
0
LINE
8
BLACK
6
CONTINUOUS
10
4.21438
20
-6.24468
11
4.20688
21
-6.24468
0
LINE
8
BLACK
6
CONTINUOUS
10
4.20688
20
-6.24468
11
4.19938
21
-6.24093
0
LINE
8
BLACK
6
CONTINUOUS
10
4.19938
20
-6.24093
11
4.19563
21
-6.23718
0
LINE
8
BLACK
6
CONTINUOUS
10
4.19563
20
-6.23718
11
4.19188
21
-6.22968
0
LINE
8
BLACK
6
CONTINUOUS
10
4.19188
20
-6.22968
11
4.18813
21
-6.21468
0
LINE
8
BLACK
6
CONTINUOUS
10
4.18813
20
-6.21468
11
4.18813
21
-6.19593
0
LINE
8
BLACK
6
CONTINUOUS
10
4.18813
20
-6.19593
11
4.19188
21
-6.18093
0
LINE
8
BLACK
6
CONTINUOUS
10
4.19188
20
-6.18093
11
4.19563
21
-6.17343
0
LINE
8
BLACK
6
CONTINUOUS
10
4.19563
20
-6.17343
11
4.19938
21
-6.16969
0
LINE
8
BLACK
6
CONTINUOUS
10
4.19938
20
-6.16969
11
4.20688
21
-6.16594
0
LINE
8
BLACK
6
CONTINUOUS
10
4.26687
20
-6.23718
11
4.27062
21
-6.24093
0
LINE
8
BLACK
6
CONTINUOUS
10
4.27062
20
-6.24093
11
4.26687
21
-6.24468
0
LINE
8
BLACK
6
CONTINUOUS
10
4.26687
20
-6.24468
11
4.26312
21
-6.24093
0
LINE
8
BLACK
6
CONTINUOUS
10
4.26312
20
-6.24093
11
4.26687
21
-6.23718
0
LINE
8
BLACK
6
CONTINUOUS
10
4.26687
20
-6.23718
11
4.26687
21
-6.24468
0
LINE
8
BLACK
6
CONTINUOUS
10
4.31937
20
-6.16594
11
4.32687
21
-6.16594
0
LINE
8
BLACK
6
CONTINUOUS
10
4.32687
20
-6.16594
11
4.33436
21
-6.16969
0
LINE
8
BLACK
6
CONTINUOUS
10
4.33436
20
-6.16969
11
4.33811
21
-6.17343
0
LINE
8
BLACK
6
CONTINUOUS
10
4.33811
20
-6.17343
11
4.34186
21
-6.18093
0
LINE
8
BLACK
6
CONTINUOUS
10
4.34186
20
-6.18093
11
4.34561
21
-6.19593
0
LINE
8
BLACK
6
CONTINUOUS
10
4.34561
20
-6.19593
11
4.34561
21
-6.21468
0
LINE
8
BLACK
6
CONTINUOUS
10
4.34561
20
-6.21468
11
4.34186
21
-6.22968
0
LINE
8
BLACK
6
CONTINUOUS
10
4.34186
20
-6.22968
11
4.33811
21
-6.23718
0
LINE
8
BLACK
6
CONTINUOUS
10
4.33811
20
-6.23718
11
4.33436
21
-6.24093
0
LINE
8
BLACK
6
CONTINUOUS
10
4.33436
20
-6.24093
11
4.32687
21
-6.24468
0
LINE
8
BLACK
6
CONTINUOUS
10
4.32687
20
-6.24468
11
4.31937
21
-6.24468
0
LINE
8
BLACK
6
CONTINUOUS
10
4.31937
20
-6.24468
11
4.31187
21
-6.24093
0
LINE
8
BLACK
6
CONTINUOUS
10
4.31187
20
-6.24093
11
4.30812
21
-6.23718
0
LINE
8
BLACK
6
CONTINUOUS
10
4.30812
20
-6.23718
11
4.30437
21
-6.22968
0
LINE
8
BLACK
6
CONTINUOUS
10
4.30437
20
-6.22968
11
4.30062
21
-6.21468
0
LINE
8
BLACK
6
CONTINUOUS
10
4.30062
20
-6.21468
11
4.30062
21
-6.19593
0
LINE
8
BLACK
6
CONTINUOUS
10
4.30062
20
-6.19593
11
4.30437
21
-6.18093
0
LINE
8
BLACK
6
CONTINUOUS
10
4.30437
20
-6.18093
11
4.30812
21
-6.17343
0
LINE
8
BLACK
6
CONTINUOUS
10
4.30812
20
-6.17343
11
4.31187
21
-6.16969
0
LINE
8
BLACK
6
CONTINUOUS
10
4.31187
20
-6.16969
11
4.31937
21
-6.16594
0
LINE
8
BLACK
6
CONTINUOUS
10
4.37186
20
-6.16594
11
4.4206
21
-6.16594
0
LINE
8
BLACK
6
CONTINUOUS
10
4.4206
20
-6.16594
11
4.39436
21
-6.19593
0
LINE
8
BLACK
6
CONTINUOUS
10
4.39436
20
-6.19593
11
4.40561
21
-6.19593
0
LINE
8
BLACK
6
CONTINUOUS
10
4.40561
20
-6.19593
11
4.4131
21
-6.19968
0
LINE
8
BLACK
6
CONTINUOUS
10
4.4131
20
-6.19968
11
4.41685
21
-6.20343
0
LINE
8
BLACK
6
CONTINUOUS
10
4.41685
20
-6.20343
11
4.4206
21
-6.21093
0
LINE
8
BLACK
6
CONTINUOUS
10
4.4206
20
-6.21093
11
4.4206
21
-6.22968
0
LINE
8
BLACK
6
CONTINUOUS
10
4.4206
20
-6.22968
11
4.41685
21
-6.23718
0
LINE
8
BLACK
6
CONTINUOUS
10
4.41685
20
-6.23718
11
4.4131
21
-6.24093
0
LINE
8
BLACK
6
CONTINUOUS
10
4.4131
20
-6.24093
11
4.40561
21
-6.24468
0
LINE
8
BLACK
6
CONTINUOUS
10
4.40561
20
-6.24468
11
4.38311
21
-6.24468
0
LINE
8
BLACK
6
CONTINUOUS
10
4.38311
20
-6.24468
11
4.37561
21
-6.24093
0
LINE
8
BLACK
6
CONTINUOUS
10
4.37561
20
-6.24093
11
4.37186
21
-6.23718
0
LINE
8
BLACK
6
CONTINUOUS
10
4.4581
20
-6.24468
11
4.4731
21
-6.24468
0
LINE
8
BLACK
6
CONTINUOUS
10
4.4731
20
-6.24468
11
4.4806
21
-6.24093
0
LINE
8
BLACK
6
CONTINUOUS
10
4.4806
20
-6.24093
11
4.48435
21
-6.23718
0
LINE
8
BLACK
6
CONTINUOUS
10
4.48435
20
-6.23718
11
4.49184
21
-6.22593
0
LINE
8
BLACK
6
CONTINUOUS
10
4.49184
20
-6.22593
11
4.49559
21
-6.21093
0
LINE
8
BLACK
6
CONTINUOUS
10
4.49559
20
-6.21093
11
4.49559
21
-6.18093
0
LINE
8
BLACK
6
CONTINUOUS
10
4.49559
20
-6.18093
11
4.49184
21
-6.17343
0
LINE
8
BLACK
6
CONTINUOUS
10
4.49184
20
-6.17343
11
4.4881
21
-6.16969
0
LINE
8
BLACK
6
CONTINUOUS
10
4.4881
20
-6.16969
11
4.4806
21
-6.16594
0
LINE
8
BLACK
6
CONTINUOUS
10
4.4806
20
-6.16594
11
4.4656
21
-6.16594
0
LINE
8
BLACK
6
CONTINUOUS
10
4.4656
20
-6.16594
11
4.4581
21
-6.16969
0
LINE
8
BLACK
6
CONTINUOUS
10
4.4581
20
-6.16969
11
4.45435
21
-6.17343
0
LINE
8
BLACK
6
CONTINUOUS
10
4.45435
20
-6.17343
11
4.4506
21
-6.18093
0
LINE
8
BLACK
6
CONTINUOUS
10
4.4506
20
-6.18093
11
4.4506
21
-6.19968
0
LINE
8
BLACK
6
CONTINUOUS
10
4.4506
20
-6.19968
11
4.45435
21
-6.20718
0
LINE
8
BLACK
6
CONTINUOUS
10
4.45435
20
-6.20718
11
4.4581
21
-6.21093
0
LINE
8
BLACK
6
CONTINUOUS
10
4.4581
20
-6.21093
11
4.4656
21
-6.21468
0
LINE
8
BLACK
6
CONTINUOUS
10
4.4656
20
-6.21468
11
4.4806
21
-6.21468
0
LINE
8
BLACK
6
CONTINUOUS
10
4.4806
20
-6.21468
11
4.4881
21
-6.21093
0
LINE
8
BLACK
6
CONTINUOUS
10
4.4881
20
-6.21093
11
4.49184
21
-6.20718
0
LINE
8
BLACK
6
CONTINUOUS
10
4.49184
20
-6.20718
11
4.49559
21
-6.19968
0
LINE
8
BLACK
6
CONTINUOUS
10
4.54434
20
-6.16594
11
4.55184
21
-6.16594
0
LINE
8
BLACK
6
CONTINUOUS
10
4.55184
20
-6.16594
11
4.55934
21
-6.16969
0
LINE
8
BLACK
6
CONTINUOUS
10
4.55934
20
-6.16969
11
4.56309
21
-6.17343
0
LINE
8
BLACK
6
CONTINUOUS
10
4.56309
20
-6.17343
11
4.56684
21
-6.18093
0
LINE
8
BLACK
6
CONTINUOUS
10
4.56684
20
-6.18093
11
4.57058
21
-6.19593
0
LINE
8
BLACK
6
CONTINUOUS
10
4.57058
20
-6.19593
11
4.57058
21
-6.21468
0
LINE
8
BLACK
6
CONTINUOUS
10
4.57058
20
-6.21468
11
4.56684
21
-6.22968
0
LINE
8
BLACK
6
CONTINUOUS
10
4.56684
20
-6.22968
11
4.56309
21
-6.23718
0
LINE
8
BLACK
6
CONTINUOUS
10
4.56309
20
-6.23718
11
4.55934
21
-6.24093
0
LINE
8
BLACK
6
CONTINUOUS
10
4.55934
20
-6.24093
11
4.55184
21
-6.24468
0
LINE
8
BLACK
6
CONTINUOUS
10
4.55184
20
-6.24468
11
4.54434
21
-6.24468
0
LINE
8
BLACK
6
CONTINUOUS
10
4.54434
20
-6.24468
11
4.53684
21
-6.24093
0
LINE
8
BLACK
6
CONTINUOUS
10
4.53684
20
-6.24093
11
4.53309
21
-6.23718
0
LINE
8
BLACK
6
CONTINUOUS
10
4.53309
20
-6.23718
11
4.52934
21
-6.22968
0
LINE
8
BLACK
6
CONTINUOUS
10
4.52934
20
-6.22968
11
4.52559
21
-6.21468
0
LINE
8
BLACK
6
CONTINUOUS
10
4.52559
20
-6.21468
11
4.52559
21
-6.19593
0
LINE
8
BLACK
6
CONTINUOUS
10
4.52559
20
-6.19593
11
4.52934
21
-6.18093
0
LINE
8
BLACK
6
CONTINUOUS
10
4.52934
20
-6.18093
11
4.53309
21
-6.17343
0
LINE
8
BLACK
6
CONTINUOUS
10
4.53309
20
-6.17343
11
4.53684
21
-6.16969
0
LINE
8
BLACK
6
CONTINUOUS
10
4.53684
20
-6.16969
11
4.54434
21
-6.16594
0
LINE
8
BLACK
6
CONTINUOUS
10
4.60058
20
-6.16594
11
4.60058
21
-6.18093
0
LINE
8
BLACK
6
CONTINUOUS
10
4.63058
20
-6.16594
11
4.63058
21
-6.18093
0
LINE
8
BLACK
6
CONTINUOUS
10
4.74681
20
-6.27467
11
4.74306
21
-6.27092
0
LINE
8
BLACK
6
CONTINUOUS
10
4.74306
20
-6.27092
11
4.73556
21
-6.25967
0
LINE
8
BLACK
6
CONTINUOUS
10
4.73556
20
-6.25967
11
4.73181
21
-6.25217
0
LINE
8
BLACK
6
CONTINUOUS
10
4.73181
20
-6.25217
11
4.72807
21
-6.24093
0
LINE
8
BLACK
6
CONTINUOUS
10
4.72807
20
-6.24093
11
4.72432
21
-6.22218
0
LINE
8
BLACK
6
CONTINUOUS
10
4.72432
20
-6.22218
11
4.72432
21
-6.20718
0
LINE
8
BLACK
6
CONTINUOUS
10
4.72432
20
-6.20718
11
4.72807
21
-6.18843
0
LINE
8
BLACK
6
CONTINUOUS
10
4.72807
20
-6.18843
11
4.73181
21
-6.17718
0
LINE
8
BLACK
6
CONTINUOUS
10
4.73181
20
-6.17718
11
4.73556
21
-6.16969
0
LINE
8
BLACK
6
CONTINUOUS
10
4.73556
20
-6.16969
11
4.74306
21
-6.15844
0
LINE
8
BLACK
6
CONTINUOUS
10
4.74306
20
-6.15844
11
4.74681
21
-6.15469
0
LINE
8
BLACK
6
CONTINUOUS
10
4.77306
20
-6.17343
11
4.77681
21
-6.16969
0
LINE
8
BLACK
6
CONTINUOUS
10
4.77681
20
-6.16969
11
4.78431
21
-6.16594
0
LINE
8
BLACK
6
CONTINUOUS
10
4.78431
20
-6.16594
11
4.80306
21
-6.16594
0
LINE
8
BLACK
6
CONTINUOUS
10
4.80306
20
-6.16594
11
4.81055
21
-6.16969
0
LINE
8
BLACK
6
CONTINUOUS
10
4.81055
20
-6.16969
11
4.8143
21
-6.17343
0
LINE
8
BLACK
6
CONTINUOUS
10
4.8143
20
-6.17343
11
4.81805
21
-6.18093
0
LINE
8
BLACK
6
CONTINUOUS
10
4.81805
20
-6.18093
11
4.81805
21
-6.18843
0
LINE
8
BLACK
6
CONTINUOUS
10
4.81805
20
-6.18843
11
4.8143
21
-6.19968
0
LINE
8
BLACK
6
CONTINUOUS
10
4.8143
20
-6.19968
11
4.76931
21
-6.24468
0
LINE
8
BLACK
6
CONTINUOUS
10
4.76931
20
-6.24468
11
4.81805
21
-6.24468
0
LINE
8
BLACK
6
CONTINUOUS
10
4.91179
20
-6.24468
11
4.91179
21
-6.16594
0
LINE
8
BLACK
6
CONTINUOUS
10
4.94554
20
-6.24468
11
4.94554
21
-6.20343
0
LINE
8
BLACK
6
CONTINUOUS
10
4.94554
20
-6.20343
11
4.94179
21
-6.19593
0
LINE
8
BLACK
6
CONTINUOUS
10
4.94179
20
-6.19593
11
4.93429
21
-6.19218
0
LINE
8
BLACK
6
CONTINUOUS
10
4.93429
20
-6.19218
11
4.92304
21
-6.19218
0
LINE
8
BLACK
6
CONTINUOUS
10
4.92304
20
-6.19218
11
4.91554
21
-6.19593
0
LINE
8
BLACK
6
CONTINUOUS
10
4.91554
20
-6.19593
11
4.91179
21
-6.19968
0
LINE
8
BLACK
6
CONTINUOUS
10
4.99428
20
-6.24468
11
4.98678
21
-6.24093
0
LINE
8
BLACK
6
CONTINUOUS
10
4.98678
20
-6.24093
11
4.98303
21
-6.23718
0
LINE
8
BLACK
6
CONTINUOUS
10
4.98303
20
-6.23718
11
4.97928
21
-6.22968
0
LINE
8
BLACK
6
CONTINUOUS
10
4.97928
20
-6.22968
11
4.97928
21
-6.20718
0
LINE
8
BLACK
6
CONTINUOUS
10
4.97928
20
-6.20718
11
4.98303
21
-6.19968
0
LINE
8
BLACK
6
CONTINUOUS
10
4.98303
20
-6.19968
11
4.98678
21
-6.19593
0
LINE
8
BLACK
6
CONTINUOUS
10
4.98678
20
-6.19593
11
4.99428
21
-6.19218
0
LINE
8
BLACK
6
CONTINUOUS
10
4.99428
20
-6.19218
11
5.00553
21
-6.19218
0
LINE
8
BLACK
6
CONTINUOUS
10
5.00553
20
-6.19218
11
5.01303
21
-6.19593
0
LINE
8
BLACK
6
CONTINUOUS
10
5.01303
20
-6.19593
11
5.01678
21
-6.19968
0
LINE
8
BLACK
6
CONTINUOUS
10
5.01678
20
-6.19968
11
5.02053
21
-6.20718
0
LINE
8
BLACK
6
CONTINUOUS
10
5.02053
20
-6.20718
11
5.02053
21
-6.22968
0
LINE
8
BLACK
6
CONTINUOUS
10
5.02053
20
-6.22968
11
5.01678
21
-6.23718
0
LINE
8
BLACK
6
CONTINUOUS
10
5.01678
20
-6.23718
11
5.01303
21
-6.24093
0
LINE
8
BLACK
6
CONTINUOUS
10
5.01303
20
-6.24093
11
5.00553
21
-6.24468
0
LINE
8
BLACK
6
CONTINUOUS
10
5.00553
20
-6.24468
11
4.99428
21
-6.24468
0
LINE
8
BLACK
6
CONTINUOUS
10
5.06552
20
-6.24468
11
5.05802
21
-6.24093
0
LINE
8
BLACK
6
CONTINUOUS
10
5.05802
20
-6.24093
11
5.05427
21
-6.23343
0
LINE
8
BLACK
6
CONTINUOUS
10
5.05427
20
-6.23343
11
5.05427
21
-6.16594
0
LINE
8
BLACK
6
CONTINUOUS
10
5.12552
20
-6.24093
11
5.11802
21
-6.24468
0
LINE
8
BLACK
6
CONTINUOUS
10
5.11802
20
-6.24468
11
5.10302
21
-6.24468
0
LINE
8
BLACK
6
CONTINUOUS
10
5.10302
20
-6.24468
11
5.09552
21
-6.24093
0
LINE
8
BLACK
6
CONTINUOUS
10
5.09552
20
-6.24093
11
5.09177
21
-6.23343
0
LINE
8
BLACK
6
CONTINUOUS
10
5.09177
20
-6.23343
11
5.09177
21
-6.20343
0
LINE
8
BLACK
6
CONTINUOUS
10
5.09177
20
-6.20343
11
5.09552
21
-6.19593
0
LINE
8
BLACK
6
CONTINUOUS
10
5.09552
20
-6.19593
11
5.10302
21
-6.19218
0
LINE
8
BLACK
6
CONTINUOUS
10
5.10302
20
-6.19218
11
5.11802
21
-6.19218
0
LINE
8
BLACK
6
CONTINUOUS
10
5.11802
20
-6.19218
11
5.12552
21
-6.19593
0
LINE
8
BLACK
6
CONTINUOUS
10
5.12552
20
-6.19593
11
5.12927
21
-6.20343
0
LINE
8
BLACK
6
CONTINUOUS
10
5.12927
20
-6.20343
11
5.12927
21
-6.21093
0
LINE
8
BLACK
6
CONTINUOUS
10
5.12927
20
-6.21093
11
5.09177
21
-6.21843
0
LINE
8
BLACK
6
CONTINUOUS
10
5.15926
20
-6.24093
11
5.16676
21
-6.24468
0
LINE
8
BLACK
6
CONTINUOUS
10
5.16676
20
-6.24468
11
5.18176
21
-6.24468
0
LINE
8
BLACK
6
CONTINUOUS
10
5.18176
20
-6.24468
11
5.18926
21
-6.24093
0
LINE
8
BLACK
6
CONTINUOUS
10
5.18926
20
-6.24093
11
5.19301
21
-6.23343
0
LINE
8
BLACK
6
CONTINUOUS
10
5.19301
20
-6.23343
11
5.19301
21
-6.22968
0
LINE
8
BLACK
6
CONTINUOUS
10
5.19301
20
-6.22968
11
5.18926
21
-6.22218
0
LINE
8
BLACK
6
CONTINUOUS
10
5.18926
20
-6.22218
11
5.18176
21
-6.21843
0
LINE
8
BLACK
6
CONTINUOUS
10
5.18176
20
-6.21843
11
5.17051
21
-6.21843
0
LINE
8
BLACK
6
CONTINUOUS
10
5.17051
20
-6.21843
11
5.16301
21
-6.21468
0
LINE
8
BLACK
6
CONTINUOUS
10
5.16301
20
-6.21468
11
5.15926
21
-6.20718
0
LINE
8
BLACK
6
CONTINUOUS
10
5.15926
20
-6.20718
11
5.15926
21
-6.20343
0
LINE
8
BLACK
6
CONTINUOUS
10
5.15926
20
-6.20343
11
5.16301
21
-6.19593
0
LINE
8
BLACK
6
CONTINUOUS
10
5.16301
20
-6.19593
11
5.17051
21
-6.19218
0
LINE
8
BLACK
6
CONTINUOUS
10
5.17051
20
-6.19218
11
5.18176
21
-6.19218
0
LINE
8
BLACK
6
CONTINUOUS
10
5.18176
20
-6.19218
11
5.18926
21
-6.19593
0
LINE
8
BLACK
6
CONTINUOUS
10
5.21925
20
-6.27467
11
5.223
21
-6.27092
0
LINE
8
BLACK
6
CONTINUOUS
10
5.223
20
-6.27092
11
5.2305
21
-6.25967
0
LINE
8
BLACK
6
CONTINUOUS
10
5.2305
20
-6.25967
11
5.23425
21
-6.25217
0
LINE
8
BLACK
6
CONTINUOUS
10
5.23425
20
-6.25217
11
5.238
21
-6.24093
0
LINE
8
BLACK
6
CONTINUOUS
10
5.238
20
-6.24093
11
5.24175
21
-6.22218
0
LINE
8
BLACK
6
CONTINUOUS
10
5.24175
20
-6.22218
11
5.24175
21
-6.20718
0
LINE
8
BLACK
6
CONTINUOUS
10
5.24175
20
-6.20718
11
5.238
21
-6.18843
0
LINE
8
BLACK
6
CONTINUOUS
10
5.238
20
-6.18843
11
5.23425
21
-6.17718
0
LINE
8
BLACK
6
CONTINUOUS
10
5.23425
20
-6.17718
11
5.2305
21
-6.16969
0
LINE
8
BLACK
6
CONTINUOUS
10
5.2305
20
-6.16969
11
5.223
21
-6.15844
0
LINE
8
BLACK
6
CONTINUOUS
10
5.223
20
-6.15844
11
5.21925
21
-6.15469
0
LINE
8
BLACK
6
CONTINUOUS
10
3.28937
20
-6.2874
11
3.34055
21
-6.33858
0
LINE
8
BLACK
6
CONTINUOUS
10
3.34055
20
-6.2874
11
3.28937
21
-6.33858
0
CIRCLE
8
BLACK
10
3.31496
20
-6.31299
40
0.0255906
0
LINE
8
BLACK
6
CONTINUOUS
10
3.48322
20
-6.34861
11
3.43823
21
-6.34861
0
LINE
8
BLACK
6
CONTINUOUS
10
3.46072
20
-6.34861
11
3.46072
21
-6.26987
0
LINE
8
BLACK
6
CONTINUOUS
10
3.46072
20
-6.26987
11
3.45322
21
-6.28112
0
LINE
8
BLACK
6
CONTINUOUS
10
3.45322
20
-6.28112
11
3.44573
21
-6.28862
0
LINE
8
BLACK
6
CONTINUOUS
10
3.44573
20
-6.28862
11
3.43823
21
-6.29237
0
LINE
8
BLACK
6
CONTINUOUS
10
3.51697
20
-6.34111
11
3.52072
21
-6.34486
0
LINE
8
BLACK
6
CONTINUOUS
10
3.52072
20
-6.34486
11
3.51697
21
-6.34861
0
LINE
8
BLACK
6
CONTINUOUS
10
3.51697
20
-6.34861
11
3.51322
21
-6.34486
0
LINE
8
BLACK
6
CONTINUOUS
10
3.51322
20
-6.34486
11
3.51697
21
-6.34111
0
LINE
8
BLACK
6
CONTINUOUS
10
3.51697
20
-6.34111
11
3.51697
21
-6.34861
0
LINE
8
BLACK
6
CONTINUOUS
10
3.54696
20
-6.26987
11
3.59571
21
-6.26987
0
LINE
8
BLACK
6
CONTINUOUS
10
3.59571
20
-6.26987
11
3.56946
21
-6.29987
0
LINE
8
BLACK
6
CONTINUOUS
10
3.56946
20
-6.29987
11
3.58071
21
-6.29987
0
LINE
8
BLACK
6
CONTINUOUS
10
3.58071
20
-6.29987
11
3.58821
21
-6.30362
0
LINE
8
BLACK
6
CONTINUOUS
10
3.58821
20
-6.30362
11
3.59196
21
-6.30737
0
LINE
8
BLACK
6
CONTINUOUS
10
3.59196
20
-6.30737
11
3.59571
21
-6.31487
0
LINE
8
BLACK
6
CONTINUOUS
10
3.59571
20
-6.31487
11
3.59571
21
-6.33361
0
LINE
8
BLACK
6
CONTINUOUS
10
3.59571
20
-6.33361
11
3.59196
21
-6.34111
0
LINE
8
BLACK
6
CONTINUOUS
10
3.59196
20
-6.34111
11
3.58821
21
-6.34486
0
LINE
8
BLACK
6
CONTINUOUS
10
3.58821
20
-6.34486
11
3.58071
21
-6.34861
0
LINE
8
BLACK
6
CONTINUOUS
10
3.58071
20
-6.34861
11
3.55821
21
-6.34861
0
LINE
8
BLACK
6
CONTINUOUS
10
3.55821
20
-6.34861
11
3.55071
21
-6.34486
0
LINE
8
BLACK
6
CONTINUOUS
10
3.55071
20
-6.34486
11
3.54696
21
-6.34111
0
LINE
8
BLACK
6
CONTINUOUS
10
3.64445
20
-6.26987
11
3.65195
21
-6.26987
0
LINE
8
BLACK
6
CONTINUOUS
10
3.65195
20
-6.26987
11
3.65945
21
-6.27362
0
LINE
8
BLACK
6
CONTINUOUS
10
3.65945
20
-6.27362
11
3.6632
21
-6.27737
0
LINE
8
BLACK
6
CONTINUOUS
10
3.6632
20
-6.27737
11
3.66695
21
-6.28487
0
LINE
8
BLACK
6
CONTINUOUS
10
3.66695
20
-6.28487
11
3.6707
21
-6.29987
0
LINE
8
BLACK
6
CONTINUOUS
10
3.6707
20
-6.29987
11
3.6707
21
-6.31862
0
LINE
8
BLACK
6
CONTINUOUS
10
3.6707
20
-6.31862
11
3.66695
21
-6.33361
0
LINE
8
BLACK
6
CONTINUOUS
10
3.66695
20
-6.33361
11
3.6632
21
-6.34111
0
LINE
8
BLACK
6
CONTINUOUS
10
3.6632
20
-6.34111
11
3.65945
21
-6.34486
0
LINE
8
BLACK
6
CONTINUOUS
10
3.65945
20
-6.34486
11
3.65195
21
-6.34861
0
LINE
8
BLACK
6
CONTINUOUS
10
3.65195
20
-6.34861
11
3.64445
21
-6.34861
0
LINE
8
BLACK
6
CONTINUOUS
10
3.64445
20
-6.34861
11
3.63695
21
-6.34486
0
LINE
8
BLACK
6
CONTINUOUS
10
3.63695
20
-6.34486
11
3.6332
21
-6.34111
0
LINE
8
BLACK
6
CONTINUOUS
10
3.6332
20
-6.34111
11
3.62945
21
-6.33361
0
LINE
8
BLACK
6
CONTINUOUS
10
3.62945
20
-6.33361
11
3.6257
21
-6.31862
0
LINE
8
BLACK
6
CONTINUOUS
10
3.6257
20
-6.31862
11
3.6257
21
-6.29987
0
LINE
8
BLACK
6
CONTINUOUS
10
3.6257
20
-6.29987
11
3.62945
21
-6.28487
0
LINE
8
BLACK
6
CONTINUOUS
10
3.62945
20
-6.28487
11
3.6332
21
-6.27737
0
LINE
8
BLACK
6
CONTINUOUS
10
3.6332
20
-6.27737
11
3.63695
21
-6.27362
0
LINE
8
BLACK
6
CONTINUOUS
10
3.63695
20
-6.27362
11
3.64445
21
-6.26987
0
LINE
8
BLACK
6
CONTINUOUS
10
3.71944
20
-6.26987
11
3.72694
21
-6.26987
0
LINE
8
BLACK
6
CONTINUOUS
10
3.72694
20
-6.26987
11
3.73444
21
-6.27362
0
LINE
8
BLACK
6
CONTINUOUS
10
3.73444
20
-6.27362
11
3.73819
21
-6.27737
0
LINE
8
BLACK
6
CONTINUOUS
10
3.73819
20
-6.27737
11
3.74194
21
-6.28487
0
LINE
8
BLACK
6
CONTINUOUS
10
3.74194
20
-6.28487
11
3.74569
21
-6.29987
0
LINE
8
BLACK
6
CONTINUOUS
10
3.74569
20
-6.29987
11
3.74569
21
-6.31862
0
LINE
8
BLACK
6
CONTINUOUS
10
3.74569
20
-6.31862
11
3.74194
21
-6.33361
0
LINE
8
BLACK
6
CONTINUOUS
10
3.74194
20
-6.33361
11
3.73819
21
-6.34111
0
LINE
8
BLACK
6
CONTINUOUS
10
3.73819
20
-6.34111
11
3.73444
21
-6.34486
0
LINE
8
BLACK
6
CONTINUOUS
10
3.73444
20
-6.34486
11
3.72694
21
-6.34861
0
LINE
8
BLACK
6
CONTINUOUS
10
3.72694
20
-6.34861
11
3.71944
21
-6.34861
0
LINE
8
BLACK
6
CONTINUOUS
10
3.71944
20
-6.34861
11
3.71194
21
-6.34486
0
LINE
8
BLACK
6
CONTINUOUS
10
3.71194
20
-6.34486
11
3.70819
21
-6.34111
0
LINE
8
BLACK
6
CONTINUOUS
10
3.70819
20
-6.34111
11
3.70444
21
-6.33361
0
LINE
8
BLACK
6
CONTINUOUS
10
3.70444
20
-6.33361
11
3.70069
21
-6.31862
0
LINE
8
BLACK
6
CONTINUOUS
10
3.70069
20
-6.31862
11
3.70069
21
-6.29987
0
LINE
8
BLACK
6
CONTINUOUS
10
3.70069
20
-6.29987
11
3.70444
21
-6.28487
0
LINE
8
BLACK
6
CONTINUOUS
10
3.70444
20
-6.28487
11
3.70819
21
-6.27737
0
LINE
8
BLACK
6
CONTINUOUS
10
3.70819
20
-6.27737
11
3.71194
21
-6.27362
0
LINE
8
BLACK
6
CONTINUOUS
10
3.71194
20
-6.27362
11
3.71944
21
-6.26987
0
LINE
8
BLACK
6
CONTINUOUS
10
3.77943
20
-6.34861
11
3.77943
21
-6.29612
0
LINE
8
BLACK
6
CONTINUOUS
10
3.77943
20
-6.30362
11
3.78318
21
-6.29987
0
LINE
8
BLACK
6
CONTINUOUS
10
3.78318
20
-6.29987
11
3.79068
21
-6.29612
0
LINE
8
BLACK
6
CONTINUOUS
10
3.79068
20
-6.29612
11
3.80193
21
-6.29612
0
LINE
8
BLACK
6
CONTINUOUS
10
3.80193
20
-6.29612
11
3.80943
21
-6.29987
0
LINE
8
BLACK
6
CONTINUOUS
10
3.80943
20
-6.29987
11
3.81318
21
-6.30737
0
LINE
8
BLACK
6
CONTINUOUS
10
3.81318
20
-6.30737
11
3.81318
21
-6.34861
0
LINE
8
BLACK
6
CONTINUOUS
10
3.81318
20
-6.30737
11
3.81693
21
-6.29987
0
LINE
8
BLACK
6
CONTINUOUS
10
3.81693
20
-6.29987
11
3.82443
21
-6.29612
0
LINE
8
BLACK
6
CONTINUOUS
10
3.82443
20
-6.29612
11
3.83568
21
-6.29612
0
LINE
8
BLACK
6
CONTINUOUS
10
3.83568
20
-6.29612
11
3.84318
21
-6.29987
0
LINE
8
BLACK
6
CONTINUOUS
10
3.84318
20
-6.29987
11
3.84693
21
-6.30737
0
LINE
8
BLACK
6
CONTINUOUS
10
3.84693
20
-6.30737
11
3.84693
21
-6.34861
0
LINE
8
BLACK
6
CONTINUOUS
10
3.88442
20
-6.34861
11
3.88442
21
-6.29612
0
LINE
8
BLACK
6
CONTINUOUS
10
3.88442
20
-6.30362
11
3.88817
21
-6.29987
0
LINE
8
BLACK
6
CONTINUOUS
10
3.88817
20
-6.29987
11
3.89567
21
-6.29612
0
LINE
8
BLACK
6
CONTINUOUS
10
3.89567
20
-6.29612
11
3.90692
21
-6.29612
0
LINE
8
BLACK
6
CONTINUOUS
10
3.90692
20
-6.29612
11
3.91442
21
-6.29987
0
LINE
8
BLACK
6
CONTINUOUS
10
3.91442
20
-6.29987
11
3.91817
21
-6.30737
0
LINE
8
BLACK
6
CONTINUOUS
10
3.91817
20
-6.30737
11
3.91817
21
-6.34861
0
LINE
8
BLACK
6
CONTINUOUS
10
3.91817
20
-6.30737
11
3.92192
21
-6.29987
0
LINE
8
BLACK
6
CONTINUOUS
10
3.92192
20
-6.29987
11
3.92942
21
-6.29612
0
LINE
8
BLACK
6
CONTINUOUS
10
3.92942
20
-6.29612
11
3.94066
21
-6.29612
0
LINE
8
BLACK
6
CONTINUOUS
10
3.94066
20
-6.29612
11
3.94816
21
-6.29987
0
LINE
8
BLACK
6
CONTINUOUS
10
3.94816
20
-6.29987
11
3.95191
21
-6.30737
0
LINE
8
BLACK
6
CONTINUOUS
10
3.95191
20
-6.30737
11
3.95191
21
-6.34861
0
LINE
8
BLACK
6
CONTINUOUS
10
4.10564
20
-6.26612
11
4.03815
21
-6.36736
0
LINE
8
BLACK
6
CONTINUOUS
10
4.20688
20
-6.26987
11
4.21438
21
-6.26987
0
LINE
8
BLACK
6
CONTINUOUS
10
4.21438
20
-6.26987
11
4.22188
21
-6.27362
0
LINE
8
BLACK
6
CONTINUOUS
10
4.22188
20
-6.27362
11
4.22563
21
-6.27737
0
LINE
8
BLACK
6
CONTINUOUS
10
4.22563
20
-6.27737
11
4.22938
21
-6.28487
0
LINE
8
BLACK
6
CONTINUOUS
10
4.22938
20
-6.28487
11
4.23313
21
-6.29987
0
LINE
8
BLACK
6
CONTINUOUS
10
4.23313
20
-6.29987
11
4.23313
21
-6.31862
0
LINE
8
BLACK
6
CONTINUOUS
10
4.23313
20
-6.31862
11
4.22938
21
-6.33361
0
LINE
8
BLACK
6
CONTINUOUS
10
4.22938
20
-6.33361
11
4.22563
21
-6.34111
0
LINE
8
BLACK
6
CONTINUOUS
10
4.22563
20
-6.34111
11
4.22188
21
-6.34486
0
LINE
8
BLACK
6
CONTINUOUS
10
4.22188
20
-6.34486
11
4.21438
21
-6.34861
0
LINE
8
BLACK
6
CONTINUOUS
10
4.21438
20
-6.34861
11
4.20688
21
-6.34861
0
LINE
8
BLACK
6
CONTINUOUS
10
4.20688
20
-6.34861
11
4.19938
21
-6.34486
0
LINE
8
BLACK
6
CONTINUOUS
10
4.19938
20
-6.34486
11
4.19563
21
-6.34111
0
LINE
8
BLACK
6
CONTINUOUS
10
4.19563
20
-6.34111
11
4.19188
21
-6.33361
0
LINE
8
BLACK
6
CONTINUOUS
10
4.19188
20
-6.33361
11
4.18813
21
-6.31862
0
LINE
8
BLACK
6
CONTINUOUS
10
4.18813
20
-6.31862
11
4.18813
21
-6.29987
0
LINE
8
BLACK
6
CONTINUOUS
10
4.18813
20
-6.29987
11
4.19188
21
-6.28487
0
LINE
8
BLACK
6
CONTINUOUS
10
4.19188
20
-6.28487
11
4.19563
21
-6.27737
0
LINE
8
BLACK
6
CONTINUOUS
10
4.19563
20
-6.27737
11
4.19938
21
-6.27362
0
LINE
8
BLACK
6
CONTINUOUS
10
4.19938
20
-6.27362
11
4.20688
21
-6.26987
0
LINE
8
BLACK
6
CONTINUOUS
10
4.26687
20
-6.34111
11
4.27062
21
-6.34486
0
LINE
8
BLACK
6
CONTINUOUS
10
4.27062
20
-6.34486
11
4.26687
21
-6.34861
0
LINE
8
BLACK
6
CONTINUOUS
10
4.26687
20
-6.34861
11
4.26312
21
-6.34486
0
LINE
8
BLACK
6
CONTINUOUS
10
4.26312
20
-6.34486
11
4.26687
21
-6.34111
0
LINE
8
BLACK
6
CONTINUOUS
10
4.26687
20
-6.34111
11
4.26687
21
-6.34861
0
LINE
8
BLACK
6
CONTINUOUS
10
4.31937
20
-6.26987
11
4.32687
21
-6.26987
0
LINE
8
BLACK
6
CONTINUOUS
10
4.32687
20
-6.26987
11
4.33436
21
-6.27362
0
LINE
8
BLACK
6
CONTINUOUS
10
4.33436
20
-6.27362
11
4.33811
21
-6.27737
0
LINE
8
BLACK
6
CONTINUOUS
10
4.33811
20
-6.27737
11
4.34186
21
-6.28487
0
LINE
8
BLACK
6
CONTINUOUS
10
4.34186
20
-6.28487
11
4.34561
21
-6.29987
0
LINE
8
BLACK
6
CONTINUOUS
10
4.34561
20
-6.29987
11
4.34561
21
-6.31862
0
LINE
8
BLACK
6
CONTINUOUS
10
4.34561
20
-6.31862
11
4.34186
21
-6.33361
0
LINE
8
BLACK
6
CONTINUOUS
10
4.34186
20
-6.33361
11
4.33811
21
-6.34111
0
LINE
8
BLACK
6
CONTINUOUS
10
4.33811
20
-6.34111
11
4.33436
21
-6.34486
0
LINE
8
BLACK
6
CONTINUOUS
10
4.33436
20
-6.34486
11
4.32687
21
-6.34861
0
LINE
8
BLACK
6
CONTINUOUS
10
4.32687
20
-6.34861
11
4.31937
21
-6.34861
0
LINE
8
BLACK
6
CONTINUOUS
10
4.31937
20
-6.34861
11
4.31187
21
-6.34486
0
LINE
8
BLACK
6
CONTINUOUS
10
4.31187
20
-6.34486
11
4.30812
21
-6.34111
0
LINE
8
BLACK
6
CONTINUOUS
10
4.30812
20
-6.34111
11
4.30437
21
-6.33361
0
LINE
8
BLACK
6
CONTINUOUS
10
4.30437
20
-6.33361
11
4.30062
21
-6.31862
0
LINE
8
BLACK
6
CONTINUOUS
10
4.30062
20
-6.31862
11
4.30062
21
-6.29987
0
LINE
8
BLACK
6
CONTINUOUS
10
4.30062
20
-6.29987
11
4.30437
21
-6.28487
0
LINE
8
BLACK
6
CONTINUOUS
10
4.30437
20
-6.28487
11
4.30812
21
-6.27737
0
LINE
8
BLACK
6
CONTINUOUS
10
4.30812
20
-6.27737
11
4.31187
21
-6.27362
0
LINE
8
BLACK
6
CONTINUOUS
10
4.31187
20
-6.27362
11
4.31937
21
-6.26987
0
LINE
8
BLACK
6
CONTINUOUS
10
4.41685
20
-6.26987
11
4.37936
21
-6.26987
0
LINE
8
BLACK
6
CONTINUOUS
10
4.37936
20
-6.26987
11
4.37561
21
-6.30737
0
LINE
8
BLACK
6
CONTINUOUS
10
4.37561
20
-6.30737
11
4.37936
21
-6.30362
0
LINE
8
BLACK
6
CONTINUOUS
10
4.37936
20
-6.30362
11
4.38686
21
-6.29987
0
LINE
8
BLACK
6
CONTINUOUS
10
4.38686
20
-6.29987
11
4.40561
21
-6.29987
0
LINE
8
BLACK
6
CONTINUOUS
10
4.40561
20
-6.29987
11
4.4131
21
-6.30362
0
LINE
8
BLACK
6
CONTINUOUS
10
4.4131
20
-6.30362
11
4.41685
21
-6.30737
0
LINE
8
BLACK
6
CONTINUOUS
10
4.41685
20
-6.30737
11
4.4206
21
-6.31487
0
LINE
8
BLACK
6
CONTINUOUS
10
4.4206
20
-6.31487
11
4.4206
21
-6.33361
0
LINE
8
BLACK
6
CONTINUOUS
10
4.4206
20
-6.33361
11
4.41685
21
-6.34111
0
LINE
8
BLACK
6
CONTINUOUS
10
4.41685
20
-6.34111
11
4.4131
21
-6.34486
0
LINE
8
BLACK
6
CONTINUOUS
10
4.4131
20
-6.34486
11
4.40561
21
-6.34861
0
LINE
8
BLACK
6
CONTINUOUS
10
4.40561
20
-6.34861
11
4.38686
21
-6.34861
0
LINE
8
BLACK
6
CONTINUOUS
10
4.38686
20
-6.34861
11
4.37936
21
-6.34486
0
LINE
8
BLACK
6
CONTINUOUS
10
4.37936
20
-6.34486
11
4.37561
21
-6.34111
0
LINE
8
BLACK
6
CONTINUOUS
10
4.49559
20
-6.34861
11
4.4506
21
-6.34861
0
LINE
8
BLACK
6
CONTINUOUS
10
4.4731
20
-6.34861
11
4.4731
21
-6.26987
0
LINE
8
BLACK
6
CONTINUOUS
10
4.4731
20
-6.26987
11
4.4656
21
-6.28112
0
LINE
8
BLACK
6
CONTINUOUS
10
4.4656
20
-6.28112
11
4.4581
21
-6.28862
0
LINE
8
BLACK
6
CONTINUOUS
10
4.4581
20
-6.28862
11
4.4506
21
-6.29237
0
LINE
8
BLACK
6
CONTINUOUS
10
4.52559
20
-6.27737
11
4.52934
21
-6.27362
0
LINE
8
BLACK
6
CONTINUOUS
10
4.52934
20
-6.27362
11
4.53684
21
-6.26987
0
LINE
8
BLACK
6
CONTINUOUS
10
4.53684
20
-6.26987
11
4.55559
21
-6.26987
0
LINE
8
BLACK
6
CONTINUOUS
10
4.55559
20
-6.26987
11
4.56309
21
-6.27362
0
LINE
8
BLACK
6
CONTINUOUS
10
4.56309
20
-6.27362
11
4.56684
21
-6.27737
0
LINE
8
BLACK
6
CONTINUOUS
10
4.56684
20
-6.27737
11
4.57058
21
-6.28487
0
LINE
8
BLACK
6
CONTINUOUS
10
4.57058
20
-6.28487
11
4.57058
21
-6.29237
0
LINE
8
BLACK
6
CONTINUOUS
10
4.57058
20
-6.29237
11
4.56684
21
-6.30362
0
LINE
8
BLACK
6
CONTINUOUS
10
4.56684
20
-6.30362
11
4.52184
21
-6.34861
0
LINE
8
BLACK
6
CONTINUOUS
10
4.52184
20
-6.34861
11
4.57058
21
-6.34861
0
LINE
8
BLACK
6
CONTINUOUS
10
4.60058
20
-6.26987
11
4.60058
21
-6.28487
0
LINE
8
BLACK
6
CONTINUOUS
10
4.63058
20
-6.26987
11
4.63058
21
-6.28487
0
LINE
8
BLACK
6
CONTINUOUS
10
4.74681
20
-6.37861
11
4.74306
21
-6.37486
0
LINE
8
BLACK
6
CONTINUOUS
10
4.74306
20
-6.37486
11
4.73556
21
-6.36361
0
LINE
8
BLACK
6
CONTINUOUS
10
4.73556
20
-6.36361
11
4.73181
21
-6.35611
0
LINE
8
BLACK
6
CONTINUOUS
10
4.73181
20
-6.35611
11
4.72807
21
-6.34486
0
LINE
8
BLACK
6
CONTINUOUS
10
4.72807
20
-6.34486
11
4.72432
21
-6.32612
0
LINE
8
BLACK
6
CONTINUOUS
10
4.72432
20
-6.32612
11
4.72432
21
-6.31112
0
LINE
8
BLACK
6
CONTINUOUS
10
4.72432
20
-6.31112
11
4.72807
21
-6.29237
0
LINE
8
BLACK
6
CONTINUOUS
10
4.72807
20
-6.29237
11
4.73181
21
-6.28112
0
LINE
8
BLACK
6
CONTINUOUS
10
4.73181
20
-6.28112
11
4.73556
21
-6.27362
0
LINE
8
BLACK
6
CONTINUOUS
10
4.73556
20
-6.27362
11
4.74306
21
-6.26237
0
LINE
8
BLACK
6
CONTINUOUS
10
4.74306
20
-6.26237
11
4.74681
21
-6.25862
0
LINE
8
BLACK
6
CONTINUOUS
10
4.77306
20
-6.27737
11
4.77681
21
-6.27362
0
LINE
8
BLACK
6
CONTINUOUS
10
4.77681
20
-6.27362
11
4.78431
21
-6.26987
0
LINE
8
BLACK
6
CONTINUOUS
10
4.78431
20
-6.26987
11
4.80306
21
-6.26987
0
LINE
8
BLACK
6
CONTINUOUS
10
4.80306
20
-6.26987
11
4.81055
21
-6.27362
0
LINE
8
BLACK
6
CONTINUOUS
10
4.81055
20
-6.27362
11
4.8143
21
-6.27737
0
LINE
8
BLACK
6
CONTINUOUS
10
4.8143
20
-6.27737
11
4.81805
21
-6.28487
0
LINE
8
BLACK
6
CONTINUOUS
10
4.81805
20
-6.28487
11
4.81805
21
-6.29237
0
LINE
8
BLACK
6
CONTINUOUS
10
4.81805
20
-6.29237
11
4.8143
21
-6.30362
0
LINE
8
BLACK
6
CONTINUOUS
10
4.8143
20
-6.30362
11
4.76931
21
-6.34861
0
LINE
8
BLACK
6
CONTINUOUS
10
4.76931
20
-6.34861
11
4.81805
21
-6.34861
0
LINE
8
BLACK
6
CONTINUOUS
10
4.91179
20
-6.34861
11
4.91179
21
-6.26987
0
LINE
8
BLACK
6
CONTINUOUS
10
4.94554
20
-6.34861
11
4.94554
21
-6.30737
0
LINE
8
BLACK
6
CONTINUOUS
10
4.94554
20
-6.30737
11
4.94179
21
-6.29987
0
LINE
8
BLACK
6
CONTINUOUS
10
4.94179
20
-6.29987
11
4.93429
21
-6.29612
0
LINE
8
BLACK
6
CONTINUOUS
10
4.93429
20
-6.29612
11
4.92304
21
-6.29612
0
LINE
8
BLACK
6
CONTINUOUS
10
4.92304
20
-6.29612
11
4.91554
21
-6.29987
0
LINE
8
BLACK
6
CONTINUOUS
10
4.91554
20
-6.29987
11
4.91179
21
-6.30362
0
LINE
8
BLACK
6
CONTINUOUS
10
4.99428
20
-6.34861
11
4.98678
21
-6.34486
0
LINE
8
BLACK
6
CONTINUOUS
10
4.98678
20
-6.34486
11
4.98303
21
-6.34111
0
LINE
8
BLACK
6
CONTINUOUS
10
4.98303
20
-6.34111
11
4.97928
21
-6.33361
0
LINE
8
BLACK
6
CONTINUOUS
10
4.97928
20
-6.33361
11
4.97928
21
-6.31112
0
LINE
8
BLACK
6
CONTINUOUS
10
4.97928
20
-6.31112
11
4.98303
21
-6.30362
0
LINE
8
BLACK
6
CONTINUOUS
10
4.98303
20
-6.30362
11
4.98678
21
-6.29987
0
LINE
8
BLACK
6
CONTINUOUS
10
4.98678
20
-6.29987
11
4.99428
21
-6.29612
0
LINE
8
BLACK
6
CONTINUOUS
10
4.99428
20
-6.29612
11
5.00553
21
-6.29612
0
LINE
8
BLACK
6
CONTINUOUS
10
5.00553
20
-6.29612
11
5.01303
21
-6.29987
0
LINE
8
BLACK
6
CONTINUOUS
10
5.01303
20
-6.29987
11
5.01678
21
-6.30362
0
LINE
8
BLACK
6
CONTINUOUS
10
5.01678
20
-6.30362
11
5.02053
21
-6.31112
0
LINE
8
BLACK
6
CONTINUOUS
10
5.02053
20
-6.31112
11
5.02053
21
-6.33361
0
LINE
8
BLACK
6
CONTINUOUS
10
5.02053
20
-6.33361
11
5.01678
21
-6.34111
0
LINE
8
BLACK
6
CONTINUOUS
10
5.01678
20
-6.34111
11
5.01303
21
-6.34486
0
LINE
8
BLACK
6
CONTINUOUS
10
5.01303
20
-6.34486
11
5.00553
21
-6.34861
0
LINE
8
BLACK
6
CONTINUOUS
10
5.00553
20
-6.34861
11
4.99428
21
-6.34861
0
LINE
8
BLACK
6
CONTINUOUS
10
5.06552
20
-6.34861
11
5.05802
21
-6.34486
0
LINE
8
BLACK
6
CONTINUOUS
10
5.05802
20
-6.34486
11
5.05427
21
-6.33736
0
LINE
8
BLACK
6
CONTINUOUS
10
5.05427
20
-6.33736
11
5.05427
21
-6.26987
0
LINE
8
BLACK
6
CONTINUOUS
10
5.12552
20
-6.34486
11
5.11802
21
-6.34861
0
LINE
8
BLACK
6
CONTINUOUS
10
5.11802
20
-6.34861
11
5.10302
21
-6.34861
0
LINE
8
BLACK
6
CONTINUOUS
10
5.10302
20
-6.34861
11
5.09552
21
-6.34486
0
LINE
8
BLACK
6
CONTINUOUS
10
5.09552
20
-6.34486
11
5.09177
21
-6.33736
0
LINE
8
BLACK
6
CONTINUOUS
10
5.09177
20
-6.33736
11
5.09177
21
-6.30737
0
LINE
8
BLACK
6
CONTINUOUS
10
5.09177
20
-6.30737
11
5.09552
21
-6.29987
0
LINE
8
BLACK
6
CONTINUOUS
10
5.09552
20
-6.29987
11
5.10302
21
-6.29612
0
LINE
8
BLACK
6
CONTINUOUS
10
5.10302
20
-6.29612
11
5.11802
21
-6.29612
0
LINE
8
BLACK
6
CONTINUOUS
10
5.11802
20
-6.29612
11
5.12552
21
-6.29987
0
LINE
8
BLACK
6
CONTINUOUS
10
5.12552
20
-6.29987
11
5.12927
21
-6.30737
0
LINE
8
BLACK
6
CONTINUOUS
10
5.12927
20
-6.30737
11
5.12927
21
-6.31487
0
LINE
8
BLACK
6
CONTINUOUS
10
5.12927
20
-6.31487
11
5.09177
21
-6.32237
0
LINE
8
BLACK
6
CONTINUOUS
10
5.15926
20
-6.34486
11
5.16676
21
-6.34861
0
LINE
8
BLACK
6
CONTINUOUS
10
5.16676
20
-6.34861
11
5.18176
21
-6.34861
0
LINE
8
BLACK
6
CONTINUOUS
10
5.18176
20
-6.34861
11
5.18926
21
-6.34486
0
LINE
8
BLACK
6
CONTINUOUS
10
5.18926
20
-6.34486
11
5.19301
21
-6.33736
0
LINE
8
BLACK
6
CONTINUOUS
10
5.19301
20
-6.33736
11
5.19301
21
-6.33361
0
LINE
8
BLACK
6
CONTINUOUS
10
5.19301
20
-6.33361
11
5.18926
21
-6.32612
0
LINE
8
BLACK
6
CONTINUOUS
10
5.18926
20
-6.32612
11
5.18176
21
-6.32237
0
LINE
8
BLACK
6
CONTINUOUS
10
5.18176
20
-6.32237
11
5.17051
21
-6.32237
0
LINE
8
BLACK
6
CONTINUOUS
10
5.17051
20
-6.32237
11
5.16301
21
-6.31862
0
LINE
8
BLACK
6
CONTINUOUS
10
5.16301
20
-6.31862
11
5.15926
21
-6.31112
0
LINE
8
BLACK
6
CONTINUOUS
10
5.15926
20
-6.31112
11
5.15926
21
-6.30737
0
LINE
8
BLACK
6
CONTINUOUS
10
5.15926
20
-6.30737
11
5.16301
21
-6.29987
0
LINE
8
BLACK
6
CONTINUOUS
10
5.16301
20
-6.29987
11
5.17051
21
-6.29612
0
LINE
8
BLACK
6
CONTINUOUS
10
5.17051
20
-6.29612
11
5.18176
21
-6.29612
0
LINE
8
BLACK
6
CONTINUOUS
10
5.18176
20
-6.29612
11
5.18926
21
-6.29987
0
LINE
8
BLACK
6
CONTINUOUS
10
5.21925
20
-6.37861
11
5.223
21
-6.37486
0
LINE
8
BLACK
6
CONTINUOUS
10
5.223
20
-6.37486
11
5.2305
21
-6.36361
0
LINE
8
BLACK
6
CONTINUOUS
10
5.2305
20
-6.36361
11
5.23425
21
-6.35611
0
LINE
8
BLACK
6
CONTINUOUS
10
5.23425
20
-6.35611
11
5.238
21
-6.34486
0
LINE
8
BLACK
6
CONTINUOUS
10
5.238
20
-6.34486
11
5.24175
21
-6.32612
0
LINE
8
BLACK
6
CONTINUOUS
10
5.24175
20
-6.32612
11
5.24175
21
-6.31112
0
LINE
8
BLACK
6
CONTINUOUS
10
5.24175
20
-6.31112
11
5.238
21
-6.29237
0
LINE
8
BLACK
6
CONTINUOUS
10
5.238
20
-6.29237
11
5.23425
21
-6.28112
0
LINE
8
BLACK
6
CONTINUOUS
10
5.23425
20
-6.28112
11
5.2305
21
-6.27362
0
LINE
8
BLACK
6
CONTINUOUS
10
5.2305
20
-6.27362
11
5.223
21
-6.26237
0
LINE
8
BLACK
6
CONTINUOUS
10
5.223
20
-6.26237
11
5.21925
21
-6.25862
0
LINE
8
BLACK
6
CONTINUOUS
10
3.2815
20
-6.3874
11
3.34055
21
-6.44646
0
LINE
8
BLACK
6
CONTINUOUS
10
3.34055
20
-6.3874
11
3.2815
21
-6.44646
0
LINE
8
BLACK
6
CONTINUOUS
10
3.31102
20
-6.3874
11
3.31102
21
-6.44646
0
LINE
8
BLACK
6
CONTINUOUS
10
3.2815
20
-6.41693
11
3.34055
21
-6.41693
0
LINE
8
BLACK
6
CONTINUOUS
10
3.48322
20
-6.45255
11
3.43823
21
-6.45255
0
LINE
8
BLACK
6
CONTINUOUS
10
3.46072
20
-6.45255
11
3.46072
21
-6.37381
0
LINE
8
BLACK
6
CONTINUOUS
10
3.46072
20
-6.37381
11
3.45322
21
-6.38506
0
LINE
8
BLACK
6
CONTINUOUS
10
3.45322
20
-6.38506
11
3.44573
21
-6.39256
0
LINE
8
BLACK
6
CONTINUOUS
10
3.44573
20
-6.39256
11
3.43823
21
-6.39631
0
LINE
8
BLACK
6
CONTINUOUS
10
3.51697
20
-6.44505
11
3.52072
21
-6.4488
0
LINE
8
BLACK
6
CONTINUOUS
10
3.52072
20
-6.4488
11
3.51697
21
-6.45255
0
LINE
8
BLACK
6
CONTINUOUS
10
3.51697
20
-6.45255
11
3.51322
21
-6.4488
0
LINE
8
BLACK
6
CONTINUOUS
10
3.51322
20
-6.4488
11
3.51697
21
-6.44505
0
LINE
8
BLACK
6
CONTINUOUS
10
3.51697
20
-6.44505
11
3.51697
21
-6.45255
0
LINE
8
BLACK
6
CONTINUOUS
10
3.59196
20
-6.37381
11
3.55446
21
-6.37381
0
LINE
8
BLACK
6
CONTINUOUS
10
3.55446
20
-6.37381
11
3.55071
21
-6.4113
0
LINE
8
BLACK
6
CONTINUOUS
10
3.55071
20
-6.4113
11
3.55446
21
-6.40756
0
LINE
8
BLACK
6
CONTINUOUS
10
3.55446
20
-6.40756
11
3.56196
21
-6.40381
0
LINE
8
BLACK
6
CONTINUOUS
10
3.56196
20
-6.40381
11
3.58071
21
-6.40381
0
LINE
8
BLACK
6
CONTINUOUS
10
3.58071
20
-6.40381
11
3.58821
21
-6.40756
0
LINE
8
BLACK
6
CONTINUOUS
10
3.58821
20
-6.40756
11
3.59196
21
-6.4113
0
LINE
8
BLACK
6
CONTINUOUS
10
3.59196
20
-6.4113
11
3.59571
21
-6.4188
0
LINE
8
BLACK
6
CONTINUOUS
10
3.59571
20
-6.4188
11
3.59571
21
-6.43755
0
LINE
8
BLACK
6
CONTINUOUS
10
3.59571
20
-6.43755
11
3.59196
21
-6.44505
0
LINE
8
BLACK
6
CONTINUOUS
10
3.59196
20
-6.44505
11
3.58821
21
-6.4488
0
LINE
8
BLACK
6
CONTINUOUS
10
3.58821
20
-6.4488
11
3.58071
21
-6.45255
0
LINE
8
BLACK
6
CONTINUOUS
10
3.58071
20
-6.45255
11
3.56196
21
-6.45255
0
LINE
8
BLACK
6
CONTINUOUS
10
3.56196
20
-6.45255
11
3.55446
21
-6.4488
0
LINE
8
BLACK
6
CONTINUOUS
10
3.55446
20
-6.4488
11
3.55071
21
-6.44505
0
LINE
8
BLACK
6
CONTINUOUS
10
3.64445
20
-6.37381
11
3.65195
21
-6.37381
0
LINE
8
BLACK
6
CONTINUOUS
10
3.65195
20
-6.37381
11
3.65945
21
-6.37756
0
LINE
8
BLACK
6
CONTINUOUS
10
3.65945
20
-6.37756
11
3.6632
21
-6.38131
0
LINE
8
BLACK
6
CONTINUOUS
10
3.6632
20
-6.38131
11
3.66695
21
-6.38881
0
LINE
8
BLACK
6
CONTINUOUS
10
3.66695
20
-6.38881
11
3.6707
21
-6.40381
0
LINE
8
BLACK
6
CONTINUOUS
10
3.6707
20
-6.40381
11
3.6707
21
-6.42255
0
LINE
8
BLACK
6
CONTINUOUS
10
3.6707
20
-6.42255
11
3.66695
21
-6.43755
0
LINE
8
BLACK
6
CONTINUOUS
10
3.66695
20
-6.43755
11
3.6632
21
-6.44505
0
LINE
8
BLACK
6
CONTINUOUS
10
3.6632
20
-6.44505
11
3.65945
21
-6.4488
0
LINE
8
BLACK
6
CONTINUOUS
10
3.65945
20
-6.4488
11
3.65195
21
-6.45255
0
LINE
8
BLACK
6
CONTINUOUS
10
3.65195
20
-6.45255
11
3.64445
21
-6.45255
0
LINE
8
BLACK
6
CONTINUOUS
10
3.64445
20
-6.45255
11
3.63695
21
-6.4488
0
LINE
8
BLACK
6
CONTINUOUS
10
3.63695
20
-6.4488
11
3.6332
21
-6.44505
0
LINE
8
BLACK
6
CONTINUOUS
10
3.6332
20
-6.44505
11
3.62945
21
-6.43755
0
LINE
8
BLACK
6
CONTINUOUS
10
3.62945
20
-6.43755
11
3.6257
21
-6.42255
0
LINE
8
BLACK
6
CONTINUOUS
10
3.6257
20
-6.42255
11
3.6257
21
-6.40381
0
LINE
8
BLACK
6
CONTINUOUS
10
3.6257
20
-6.40381
11
3.62945
21
-6.38881
0
LINE
8
BLACK
6
CONTINUOUS
10
3.62945
20
-6.38881
11
3.6332
21
-6.38131
0
LINE
8
BLACK
6
CONTINUOUS
10
3.6332
20
-6.38131
11
3.63695
21
-6.37756
0
LINE
8
BLACK
6
CONTINUOUS
10
3.63695
20
-6.37756
11
3.64445
21
-6.37381
0
LINE
8
BLACK
6
CONTINUOUS
10
3.71944
20
-6.37381
11
3.72694
21
-6.37381
0
LINE
8
BLACK
6
CONTINUOUS
10
3.72694
20
-6.37381
11
3.73444
21
-6.37756
0
LINE
8
BLACK
6
CONTINUOUS
10
3.73444
20
-6.37756
11
3.73819
21
-6.38131
0
LINE
8
BLACK
6
CONTINUOUS
10
3.73819
20
-6.38131
11
3.74194
21
-6.38881
0
LINE
8
BLACK
6
CONTINUOUS
10
3.74194
20
-6.38881
11
3.74569
21
-6.40381
0
LINE
8
BLACK
6
CONTINUOUS
10
3.74569
20
-6.40381
11
3.74569
21
-6.42255
0
LINE
8
BLACK
6
CONTINUOUS
10
3.74569
20
-6.42255
11
3.74194
21
-6.43755
0
LINE
8
BLACK
6
CONTINUOUS
10
3.74194
20
-6.43755
11
3.73819
21
-6.44505
0
LINE
8
BLACK
6
CONTINUOUS
10
3.73819
20
-6.44505
11
3.73444
21
-6.4488
0
LINE
8
BLACK
6
CONTINUOUS
10
3.73444
20
-6.4488
11
3.72694
21
-6.45255
0
LINE
8
BLACK
6
CONTINUOUS
10
3.72694
20
-6.45255
11
3.71944
21
-6.45255
0
LINE
8
BLACK
6
CONTINUOUS
10
3.71944
20
-6.45255
11
3.71194
21
-6.4488
0
LINE
8
BLACK
6
CONTINUOUS
10
3.71194
20
-6.4488
11
3.70819
21
-6.44505
0
LINE
8
BLACK
6
CONTINUOUS
10
3.70819
20
-6.44505
11
3.70444
21
-6.43755
0
LINE
8
BLACK
6
CONTINUOUS
10
3.70444
20
-6.43755
11
3.70069
21
-6.42255
0
LINE
8
BLACK
6
CONTINUOUS
10
3.70069
20
-6.42255
11
3.70069
21
-6.40381
0
LINE
8
BLACK
6
CONTINUOUS
10
3.70069
20
-6.40381
11
3.70444
21
-6.38881
0
LINE
8
BLACK
6
CONTINUOUS
10
3.70444
20
-6.38881
11
3.70819
21
-6.38131
0
LINE
8
BLACK
6
CONTINUOUS
10
3.70819
20
-6.38131
11
3.71194
21
-6.37756
0
LINE
8
BLACK
6
CONTINUOUS
10
3.71194
20
-6.37756
11
3.71944
21
-6.37381
0
LINE
8
BLACK
6
CONTINUOUS
10
3.77943
20
-6.45255
11
3.77943
21
-6.40006
0
LINE
8
BLACK
6
CONTINUOUS
10
3.77943
20
-6.40756
11
3.78318
21
-6.40381
0
LINE
8
BLACK
6
CONTINUOUS
10
3.78318
20
-6.40381
11
3.79068
21
-6.40006
0
LINE
8
BLACK
6
CONTINUOUS
10
3.79068
20
-6.40006
11
3.80193
21
-6.40006
0
LINE
8
BLACK
6
CONTINUOUS
10
3.80193
20
-6.40006
11
3.80943
21
-6.40381
0
LINE
8
BLACK
6
CONTINUOUS
10
3.80943
20
-6.40381
11
3.81318
21
-6.4113
0
LINE
8
BLACK
6
CONTINUOUS
10
3.81318
20
-6.4113
11
3.81318
21
-6.45255
0
LINE
8
BLACK
6
CONTINUOUS
10
3.81318
20
-6.4113
11
3.81693
21
-6.40381
0
LINE
8
BLACK
6
CONTINUOUS
10
3.81693
20
-6.40381
11
3.82443
21
-6.40006
0
LINE
8
BLACK
6
CONTINUOUS
10
3.82443
20
-6.40006
11
3.83568
21
-6.40006
0
LINE
8
BLACK
6
CONTINUOUS
10
3.83568
20
-6.40006
11
3.84318
21
-6.40381
0
LINE
8
BLACK
6
CONTINUOUS
10
3.84318
20
-6.40381
11
3.84693
21
-6.4113
0
LINE
8
BLACK
6
CONTINUOUS
10
3.84693
20
-6.4113
11
3.84693
21
-6.45255
0
LINE
8
BLACK
6
CONTINUOUS
10
3.88442
20
-6.45255
11
3.88442
21
-6.40006
0
LINE
8
BLACK
6
CONTINUOUS
10
3.88442
20
-6.40756
11
3.88817
21
-6.40381
0
LINE
8
BLACK
6
CONTINUOUS
10
3.88817
20
-6.40381
11
3.89567
21
-6.40006
0
LINE
8
BLACK
6
CONTINUOUS
10
3.89567
20
-6.40006
11
3.90692
21
-6.40006
0
LINE
8
BLACK
6
CONTINUOUS
10
3.90692
20
-6.40006
11
3.91442
21
-6.40381
0
LINE
8
BLACK
6
CONTINUOUS
10
3.91442
20
-6.40381
11
3.91817
21
-6.4113
0
LINE
8
BLACK
6
CONTINUOUS
10
3.91817
20
-6.4113
11
3.91817
21
-6.45255
0
LINE
8
BLACK
6
CONTINUOUS
10
3.91817
20
-6.4113
11
3.92192
21
-6.40381
0
LINE
8
BLACK
6
CONTINUOUS
10
3.92192
20
-6.40381
11
3.92942
21
-6.40006
0
LINE
8
BLACK
6
CONTINUOUS
10
3.92942
20
-6.40006
11
3.94066
21
-6.40006
0
LINE
8
BLACK
6
CONTINUOUS
10
3.94066
20
-6.40006
11
3.94816
21
-6.40381
0
LINE
8
BLACK
6
CONTINUOUS
10
3.94816
20
-6.40381
11
3.95191
21
-6.4113
0
LINE
8
BLACK
6
CONTINUOUS
10
3.95191
20
-6.4113
11
3.95191
21
-6.45255
0
LINE
8
BLACK
6
CONTINUOUS
10
4.10564
20
-6.37006
11
4.03815
21
-6.4713
0
LINE
8
BLACK
6
CONTINUOUS
10
4.20688
20
-6.37381
11
4.21438
21
-6.37381
0
LINE
8
BLACK
6
CONTINUOUS
10
4.21438
20
-6.37381
11
4.22188
21
-6.37756
0
LINE
8
BLACK
6
CONTINUOUS
10
4.22188
20
-6.37756
11
4.22563
21
-6.38131
0
LINE
8
BLACK
6
CONTINUOUS
10
4.22563
20
-6.38131
11
4.22938
21
-6.38881
0
LINE
8
BLACK
6
CONTINUOUS
10
4.22938
20
-6.38881
11
4.23313
21
-6.40381
0
LINE
8
BLACK
6
CONTINUOUS
10
4.23313
20
-6.40381
11
4.23313
21
-6.42255
0
LINE
8
BLACK
6
CONTINUOUS
10
4.23313
20
-6.42255
11
4.22938
21
-6.43755
0
LINE
8
BLACK
6
CONTINUOUS
10
4.22938
20
-6.43755
11
4.22563
21
-6.44505
0
LINE
8
BLACK
6
CONTINUOUS
10
4.22563
20
-6.44505
11
4.22188
21
-6.4488
0
LINE
8
BLACK
6
CONTINUOUS
10
4.22188
20
-6.4488
11
4.21438
21
-6.45255
0
LINE
8
BLACK
6
CONTINUOUS
10
4.21438
20
-6.45255
11
4.20688
21
-6.45255
0
LINE
8
BLACK
6
CONTINUOUS
10
4.20688
20
-6.45255
11
4.19938
21
-6.4488
0
LINE
8
BLACK
6
CONTINUOUS
10
4.19938
20
-6.4488
11
4.19563
21
-6.44505
0
LINE
8
BLACK
6
CONTINUOUS
10
4.19563
20
-6.44505
11
4.19188
21
-6.43755
0
LINE
8
BLACK
6
CONTINUOUS
10
4.19188
20
-6.43755
11
4.18813
21
-6.42255
0
LINE
8
BLACK
6
CONTINUOUS
10
4.18813
20
-6.42255
11
4.18813
21
-6.40381
0
LINE
8
BLACK
6
CONTINUOUS
10
4.18813
20
-6.40381
11
4.19188
21
-6.38881
0
LINE
8
BLACK
6
CONTINUOUS
10
4.19188
20
-6.38881
11
4.19563
21
-6.38131
0
LINE
8
BLACK
6
CONTINUOUS
10
4.19563
20
-6.38131
11
4.19938
21
-6.37756
0
LINE
8
BLACK
6
CONTINUOUS
10
4.19938
20
-6.37756
11
4.20688
21
-6.37381
0
LINE
8
BLACK
6
CONTINUOUS
10
4.26687
20
-6.44505
11
4.27062
21
-6.4488
0
LINE
8
BLACK
6
CONTINUOUS
10
4.27062
20
-6.4488
11
4.26687
21
-6.45255
0
LINE
8
BLACK
6
CONTINUOUS
10
4.26687
20
-6.45255
11
4.26312
21
-6.4488
0
LINE
8
BLACK
6
CONTINUOUS
10
4.26312
20
-6.4488
11
4.26687
21
-6.44505
0
LINE
8
BLACK
6
CONTINUOUS
10
4.26687
20
-6.44505
11
4.26687
21
-6.45255
0
LINE
8
BLACK
6
CONTINUOUS
10
4.31937
20
-6.37381
11
4.32687
21
-6.37381
0
LINE
8
BLACK
6
CONTINUOUS
10
4.32687
20
-6.37381
11
4.33436
21
-6.37756
0
LINE
8
BLACK
6
CONTINUOUS
10
4.33436
20
-6.37756
11
4.33811
21
-6.38131
0
LINE
8
BLACK
6
CONTINUOUS
10
4.33811
20
-6.38131
11
4.34186
21
-6.38881
0
LINE
8
BLACK
6
CONTINUOUS
10
4.34186
20
-6.38881
11
4.34561
21
-6.40381
0
LINE
8
BLACK
6
CONTINUOUS
10
4.34561
20
-6.40381
11
4.34561
21
-6.42255
0
LINE
8
BLACK
6
CONTINUOUS
10
4.34561
20
-6.42255
11
4.34186
21
-6.43755
0
LINE
8
BLACK
6
CONTINUOUS
10
4.34186
20
-6.43755
11
4.33811
21
-6.44505
0
LINE
8
BLACK
6
CONTINUOUS
10
4.33811
20
-6.44505
11
4.33436
21
-6.4488
0
LINE
8
BLACK
6
CONTINUOUS
10
4.33436
20
-6.4488
11
4.32687
21
-6.45255
0
LINE
8
BLACK
6
CONTINUOUS
10
4.32687
20
-6.45255
11
4.31937
21
-6.45255
0
LINE
8
BLACK
6
CONTINUOUS
10
4.31937
20
-6.45255
11
4.31187
21
-6.4488
0
LINE
8
BLACK
6
CONTINUOUS
10
4.31187
20
-6.4488
11
4.30812
21
-6.44505
0
LINE
8
BLACK
6
CONTINUOUS
10
4.30812
20
-6.44505
11
4.30437
21
-6.43755
0
LINE
8
BLACK
6
CONTINUOUS
10
4.30437
20
-6.43755
11
4.30062
21
-6.42255
0
LINE
8
BLACK
6
CONTINUOUS
10
4.30062
20
-6.42255
11
4.30062
21
-6.40381
0
LINE
8
BLACK
6
CONTINUOUS
10
4.30062
20
-6.40381
11
4.30437
21
-6.38881
0
LINE
8
BLACK
6
CONTINUOUS
10
4.30437
20
-6.38881
11
4.30812
21
-6.38131
0
LINE
8
BLACK
6
CONTINUOUS
10
4.30812
20
-6.38131
11
4.31187
21
-6.37756
0
LINE
8
BLACK
6
CONTINUOUS
10
4.31187
20
-6.37756
11
4.31937
21
-6.37381
0
LINE
8
BLACK
6
CONTINUOUS
10
4.41685
20
-6.37381
11
4.37936
21
-6.37381
0
LINE
8
BLACK
6
CONTINUOUS
10
4.37936
20
-6.37381
11
4.37561
21
-6.4113
0
LINE
8
BLACK
6
CONTINUOUS
10
4.37561
20
-6.4113
11
4.37936
21
-6.40756
0
LINE
8
BLACK
6
CONTINUOUS
10
4.37936
20
-6.40756
11
4.38686
21
-6.40381
0
LINE
8
BLACK
6
CONTINUOUS
10
4.38686
20
-6.40381
11
4.40561
21
-6.40381
0
LINE
8
BLACK
6
CONTINUOUS
10
4.40561
20
-6.40381
11
4.4131
21
-6.40756
0
LINE
8
BLACK
6
CONTINUOUS
10
4.4131
20
-6.40756
11
4.41685
21
-6.4113
0
LINE
8
BLACK
6
CONTINUOUS
10
4.41685
20
-6.4113
11
4.4206
21
-6.4188
0
LINE
8
BLACK
6
CONTINUOUS
10
4.4206
20
-6.4188
11
4.4206
21
-6.43755
0
LINE
8
BLACK
6
CONTINUOUS
10
4.4206
20
-6.43755
11
4.41685
21
-6.44505
0
LINE
8
BLACK
6
CONTINUOUS
10
4.41685
20
-6.44505
11
4.4131
21
-6.4488
0
LINE
8
BLACK
6
CONTINUOUS
10
4.4131
20
-6.4488
11
4.40561
21
-6.45255
0
LINE
8
BLACK
6
CONTINUOUS
10
4.40561
20
-6.45255
11
4.38686
21
-6.45255
0
LINE
8
BLACK
6
CONTINUOUS
10
4.38686
20
-6.45255
11
4.37936
21
-6.4488
0
LINE
8
BLACK
6
CONTINUOUS
10
4.37936
20
-6.4488
11
4.37561
21
-6.44505
0
LINE
8
BLACK
6
CONTINUOUS
10
4.4581
20
-6.45255
11
4.4731
21
-6.45255
0
LINE
8
BLACK
6
CONTINUOUS
10
4.4731
20
-6.45255
11
4.4806
21
-6.4488
0
LINE
8
BLACK
6
CONTINUOUS
10
4.4806
20
-6.4488
11
4.48435
21
-6.44505
0
LINE
8
BLACK
6
CONTINUOUS
10
4.48435
20
-6.44505
11
4.49184
21
-6.4338
0
LINE
8
BLACK
6
CONTINUOUS
10
4.49184
20
-6.4338
11
4.49559
21
-6.4188
0
LINE
8
BLACK
6
CONTINUOUS
10
4.49559
20
-6.4188
11
4.49559
21
-6.38881
0
LINE
8
BLACK
6
CONTINUOUS
10
4.49559
20
-6.38881
11
4.49184
21
-6.38131
0
LINE
8
BLACK
6
CONTINUOUS
10
4.49184
20
-6.38131
11
4.4881
21
-6.37756
0
LINE
8
BLACK
6
CONTINUOUS
10
4.4881
20
-6.37756
11
4.4806
21
-6.37381
0
LINE
8
BLACK
6
CONTINUOUS
10
4.4806
20
-6.37381
11
4.4656
21
-6.37381
0
LINE
8
BLACK
6
CONTINUOUS
10
4.4656
20
-6.37381
11
4.4581
21
-6.37756
0
LINE
8
BLACK
6
CONTINUOUS
10
4.4581
20
-6.37756
11
4.45435
21
-6.38131
0
LINE
8
BLACK
6
CONTINUOUS
10
4.45435
20
-6.38131
11
4.4506
21
-6.38881
0
LINE
8
BLACK
6
CONTINUOUS
10
4.4506
20
-6.38881
11
4.4506
21
-6.40756
0
LINE
8
BLACK
6
CONTINUOUS
10
4.4506
20
-6.40756
11
4.45435
21
-6.41505
0
LINE
8
BLACK
6
CONTINUOUS
10
4.45435
20
-6.41505
11
4.4581
21
-6.4188
0
LINE
8
BLACK
6
CONTINUOUS
10
4.4581
20
-6.4188
11
4.4656
21
-6.42255
0
LINE
8
BLACK
6
CONTINUOUS
10
4.4656
20
-6.42255
11
4.4806
21
-6.42255
0
LINE
8
BLACK
6
CONTINUOUS
10
4.4806
20
-6.42255
11
4.4881
21
-6.4188
0
LINE
8
BLACK
6
CONTINUOUS
10
4.4881
20
-6.4188
11
4.49184
21
-6.41505
0
LINE
8
BLACK
6
CONTINUOUS
10
4.49184
20
-6.41505
11
4.49559
21
-6.40756
0
LINE
8
BLACK
6
CONTINUOUS
10
4.57058
20
-6.45255
11
4.52559
21
-6.45255
0
LINE
8
BLACK
6
CONTINUOUS
10
4.54809
20
-6.45255
11
4.54809
21
-6.37381
0
LINE
8
BLACK
6
CONTINUOUS
10
4.54809
20
-6.37381
11
4.54059
21
-6.38506
0
LINE
8
BLACK
6
CONTINUOUS
10
4.54059
20
-6.38506
11
4.53309
21
-6.39256
0
LINE
8
BLACK
6
CONTINUOUS
10
4.53309
20
-6.39256
11
4.52559
21
-6.39631
0
LINE
8
BLACK
6
CONTINUOUS
10
4.60058
20
-6.37381
11
4.60058
21
-6.38881
0
LINE
8
BLACK
6
CONTINUOUS
10
4.63058
20
-6.37381
11
4.63058
21
-6.38881
0
LINE
8
BLACK
6
CONTINUOUS
10
4.74681
20
-6.48255
11
4.74306
21
-6.4788
0
LINE
8
BLACK
6
CONTINUOUS
10
4.74306
20
-6.4788
11
4.73556
21
-6.46755
0
LINE
8
BLACK
6
CONTINUOUS
10
4.73556
20
-6.46755
11
4.73181
21
-6.46005
0
LINE
8
BLACK
6
CONTINUOUS
10
4.73181
20
-6.46005
11
4.72807
21
-6.4488
0
LINE
8
BLACK
6
CONTINUOUS
10
4.72807
20
-6.4488
11
4.72432
21
-6.43005
0
LINE
8
BLACK
6
CONTINUOUS
10
4.72432
20
-6.43005
11
4.72432
21
-6.41505
0
LINE
8
BLACK
6
CONTINUOUS
10
4.72432
20
-6.41505
11
4.72807
21
-6.39631
0
LINE
8
BLACK
6
CONTINUOUS
10
4.72807
20
-6.39631
11
4.73181
21
-6.38506
0
LINE
8
BLACK
6
CONTINUOUS
10
4.73181
20
-6.38506
11
4.73556
21
-6.37756
0
LINE
8
BLACK
6
CONTINUOUS
10
4.73556
20
-6.37756
11
4.74306
21
-6.36631
0
LINE
8
BLACK
6
CONTINUOUS
10
4.74306
20
-6.36631
11
4.74681
21
-6.36256
0
LINE
8
BLACK
6
CONTINUOUS
10
4.76931
20
-6.37381
11
4.8218
21
-6.37381
0
LINE
8
BLACK
6
CONTINUOUS
10
4.8218
20
-6.37381
11
4.78806
21
-6.45255
0
LINE
8
BLACK
6
CONTINUOUS
10
4.91179
20
-6.45255
11
4.91179
21
-6.37381
0
LINE
8
BLACK
6
CONTINUOUS
10
4.94554
20
-6.45255
11
4.94554
21
-6.4113
0
LINE
8
BLACK
6
CONTINUOUS
10
4.94554
20
-6.4113
11
4.94179
21
-6.40381
0
LINE
8
BLACK
6
CONTINUOUS
10
4.94179
20
-6.40381
11
4.93429
21
-6.40006
0
LINE
8
BLACK
6
CONTINUOUS
10
4.93429
20
-6.40006
11
4.92304
21
-6.40006
0
LINE
8
BLACK
6
CONTINUOUS
10
4.92304
20
-6.40006
11
4.91554
21
-6.40381
0
LINE
8
BLACK
6
CONTINUOUS
10
4.91554
20
-6.40381
11
4.91179
21
-6.40756
0
LINE
8
BLACK
6
CONTINUOUS
10
4.99428
20
-6.45255
11
4.98678
21
-6.4488
0
LINE
8
BLACK
6
CONTINUOUS
10
4.98678
20
-6.4488
11
4.98303
21
-6.44505
0
LINE
8
BLACK
6
CONTINUOUS
10
4.98303
20
-6.44505
11
4.97928
21
-6.43755
0
LINE
8
BLACK
6
CONTINUOUS
10
4.97928
20
-6.43755
11
4.97928
21
-6.41505
0
LINE
8
BLACK
6
CONTINUOUS
10
4.97928
20
-6.41505
11
4.98303
21
-6.40756
0
LINE
8
BLACK
6
CONTINUOUS
10
4.98303
20
-6.40756
11
4.98678
21
-6.40381
0
LINE
8
BLACK
6
CONTINUOUS
10
4.98678
20
-6.40381
11
4.99428
21
-6.40006
0
LINE
8
BLACK
6
CONTINUOUS
10
4.99428
20
-6.40006
11
5.00553
21
-6.40006
0
LINE
8
BLACK
6
CONTINUOUS
10
5.00553
20
-6.40006
11
5.01303
21
-6.40381
0
LINE
8
BLACK
6
CONTINUOUS
10
5.01303
20
-6.40381
11
5.01678
21
-6.40756
0
LINE
8
BLACK
6
CONTINUOUS
10
5.01678
20
-6.40756
11
5.02053
21
-6.41505
0
LINE
8
BLACK
6
CONTINUOUS
10
5.02053
20
-6.41505
11
5.02053
21
-6.43755
0
LINE
8
BLACK
6
CONTINUOUS
10
5.02053
20
-6.43755
11
5.01678
21
-6.44505
0
LINE
8
BLACK
6
CONTINUOUS
10
5.01678
20
-6.44505
11
5.01303
21
-6.4488
0
LINE
8
BLACK
6
CONTINUOUS
10
5.01303
20
-6.4488
11
5.00553
21
-6.45255
0
LINE
8
BLACK
6
CONTINUOUS
10
5.00553
20
-6.45255
11
4.99428
21
-6.45255
0
LINE
8
BLACK
6
CONTINUOUS
10
5.06552
20
-6.45255
11
5.05802
21
-6.4488
0
LINE
8
BLACK
6
CONTINUOUS
10
5.05802
20
-6.4488
11
5.05427
21
-6.4413
0
LINE
8
BLACK
6
CONTINUOUS
10
5.05427
20
-6.4413
11
5.05427
21
-6.37381
0
LINE
8
BLACK
6
CONTINUOUS
10
5.12552
20
-6.4488
11
5.11802
21
-6.45255
0
LINE
8
BLACK
6
CONTINUOUS
10
5.11802
20
-6.45255
11
5.10302
21
-6.45255
0
LINE
8
BLACK
6
CONTINUOUS
10
5.10302
20
-6.45255
11
5.09552
21
-6.4488
0
LINE
8
BLACK
6
CONTINUOUS
10
5.09552
20
-6.4488
11
5.09177
21
-6.4413
0
LINE
8
BLACK
6
CONTINUOUS
10
5.09177
20
-6.4413
11
5.09177
21
-6.4113
0
LINE
8
BLACK
6
CONTINUOUS
10
5.09177
20
-6.4113
11
5.09552
21
-6.40381
0
LINE
8
BLACK
6
CONTINUOUS
10
5.09552
20
-6.40381
11
5.10302
21
-6.40006
0
LINE
8
BLACK
6
CONTINUOUS
10
5.10302
20
-6.40006
11
5.11802
21
-6.40006
0
LINE
8
BLACK
6
CONTINUOUS
10
5.11802
20
-6.40006
11
5.12552
21
-6.40381
0
LINE
8
BLACK
6
CONTINUOUS
10
5.12552
20
-6.40381
11
5.12927
21
-6.4113
0
LINE
8
BLACK
6
CONTINUOUS
10
5.12927
20
-6.4113
11
5.12927
21
-6.4188
0
LINE
8
BLACK
6
CONTINUOUS
10
5.12927
20
-6.4188
11
5.09177
21
-6.4263
0
LINE
8
BLACK
6
CONTINUOUS
10
5.15926
20
-6.4488
11
5.16676
21
-6.45255
0
LINE
8
BLACK
6
CONTINUOUS
10
5.16676
20
-6.45255
11
5.18176
21
-6.45255
0
LINE
8
BLACK
6
CONTINUOUS
10
5.18176
20
-6.45255
11
5.18926
21
-6.4488
0
LINE
8
BLACK
6
CONTINUOUS
10
5.18926
20
-6.4488
11
5.19301
21
-6.4413
0
LINE
8
BLACK
6
CONTINUOUS
10
5.19301
20
-6.4413
11
5.19301
21
-6.43755
0
LINE
8
BLACK
6
CONTINUOUS
10
5.19301
20
-6.43755
11
5.18926
21
-6.43005
0
LINE
8
BLACK
6
CONTINUOUS
10
5.18926
20
-6.43005
11
5.18176
21
-6.4263
0
LINE
8
BLACK
6
CONTINUOUS
10
5.18176
20
-6.4263
11
5.17051
21
-6.4263
0
LINE
8
BLACK
6
CONTINUOUS
10
5.17051
20
-6.4263
11
5.16301
21
-6.42255
0
LINE
8
BLACK
6
CONTINUOUS
10
5.16301
20
-6.42255
11
5.15926
21
-6.41505
0
LINE
8
BLACK
6
CONTINUOUS
10
5.15926
20
-6.41505
11
5.15926
21
-6.4113
0
LINE
8
BLACK
6
CONTINUOUS
10
5.15926
20
-6.4113
11
5.16301
21
-6.40381
0
LINE
8
BLACK
6
CONTINUOUS
10
5.16301
20
-6.40381
11
5.17051
21
-6.40006
0
LINE
8
BLACK
6
CONTINUOUS
10
5.17051
20
-6.40006
11
5.18176
21
-6.40006
0
LINE
8
BLACK
6
CONTINUOUS
10
5.18176
20
-6.40006
11
5.18926
21
-6.40381
0
LINE
8
BLACK
6
CONTINUOUS
10
5.21925
20
-6.48255
11
5.223
21
-6.4788
0
LINE
8
BLACK
6
CONTINUOUS
10
5.223
20
-6.4788
11
5.2305
21
-6.46755
0
LINE
8
BLACK
6
CONTINUOUS
10
5.2305
20
-6.46755
11
5.23425
21
-6.46005
0
LINE
8
BLACK
6
CONTINUOUS
10
5.23425
20
-6.46005
11
5.238
21
-6.4488
0
LINE
8
BLACK
6
CONTINUOUS
10
5.238
20
-6.4488
11
5.24175
21
-6.43005
0
LINE
8
BLACK
6
CONTINUOUS
10
5.24175
20
-6.43005
11
5.24175
21
-6.41505
0
LINE
8
BLACK
6
CONTINUOUS
10
5.24175
20
-6.41505
11
5.238
21
-6.39631
0
LINE
8
BLACK
6
CONTINUOUS
10
5.238
20
-6.39631
11
5.23425
21
-6.38506
0
LINE
8
BLACK
6
CONTINUOUS
10
5.23425
20
-6.38506
11
5.2305
21
-6.37756
0
LINE
8
BLACK
6
CONTINUOUS
10
5.2305
20
-6.37756
11
5.223
21
-6.36631
0
LINE
8
BLACK
6
CONTINUOUS
10
5.223
20
-6.36631
11
5.21925
21
-6.36256
0
LINE
8
BLACK
6
CONTINUOUS
10
3.26181
20
-6.48386
11
3.34055
21
-6.5626
0
LINE
8
BLACK
6
CONTINUOUS
10
3.34055
20
-6.48386
11
3.26181
21
-6.5626
0
LINE
8
BLACK
6
CONTINUOUS
10
3.32902
20
-6.55107
11
3.32902
21
-6.49539
0
LINE
8
BLACK
6
CONTINUOUS
10
3.32902
20
-6.49539
11
3.27334
21
-6.49539
0
LINE
8
BLACK
6
CONTINUOUS
10
3.27334
20
-6.49539
11
3.27334
21
-6.55107
0
LINE
8
BLACK
6
CONTINUOUS
10
3.27334
20
-6.55107
11
3.32902
21
-6.55107
0
LINE
8
BLACK
6
CONTINUOUS
10
3.43448
20
-6.48011
11
3.48322
21
-6.48011
0
LINE
8
BLACK
6
CONTINUOUS
10
3.48322
20
-6.48011
11
3.45697
21
-6.5101
0
LINE
8
BLACK
6
CONTINUOUS
10
3.45697
20
-6.5101
11
3.46822
21
-6.5101
0
LINE
8
BLACK
6
CONTINUOUS
10
3.46822
20
-6.5101
11
3.47572
21
-6.51385
0
LINE
8
BLACK
6
CONTINUOUS
10
3.47572
20
-6.51385
11
3.47947
21
-6.5176
0
LINE
8
BLACK
6
CONTINUOUS
10
3.47947
20
-6.5176
11
3.48322
21
-6.5251
0
LINE
8
BLACK
6
CONTINUOUS
10
3.48322
20
-6.5251
11
3.48322
21
-6.54385
0
LINE
8
BLACK
6
CONTINUOUS
10
3.48322
20
-6.54385
11
3.47947
21
-6.55135
0
LINE
8
BLACK
6
CONTINUOUS
10
3.47947
20
-6.55135
11
3.47572
21
-6.5551
0
LINE
8
BLACK
6
CONTINUOUS
10
3.47572
20
-6.5551
11
3.46822
21
-6.55885
0
LINE
8
BLACK
6
CONTINUOUS
10
3.46822
20
-6.55885
11
3.44573
21
-6.55885
0
LINE
8
BLACK
6
CONTINUOUS
10
3.44573
20
-6.55885
11
3.43823
21
-6.5551
0
LINE
8
BLACK
6
CONTINUOUS
10
3.43823
20
-6.5551
11
3.43448
21
-6.55135
0
LINE
8
BLACK
6
CONTINUOUS
10
3.51697
20
-6.55135
11
3.52072
21
-6.5551
0
LINE
8
BLACK
6
CONTINUOUS
10
3.52072
20
-6.5551
11
3.51697
21
-6.55885
0
LINE
8
BLACK
6
CONTINUOUS
10
3.51697
20
-6.55885
11
3.51322
21
-6.5551
0
LINE
8
BLACK
6
CONTINUOUS
10
3.51322
20
-6.5551
11
3.51697
21
-6.55135
0
LINE
8
BLACK
6
CONTINUOUS
10
3.51697
20
-6.55135
11
3.51697
21
-6.55885
0
LINE
8
BLACK
6
CONTINUOUS
10
3.55071
20
-6.48761
11
3.55446
21
-6.48386
0
LINE
8
BLACK
6
CONTINUOUS
10
3.55446
20
-6.48386
11
3.56196
21
-6.48011
0
LINE
8
BLACK
6
CONTINUOUS
10
3.56196
20
-6.48011
11
3.58071
21
-6.48011
0
LINE
8
BLACK
6
CONTINUOUS
10
3.58071
20
-6.48011
11
3.58821
21
-6.48386
0
LINE
8
BLACK
6
CONTINUOUS
10
3.58821
20
-6.48386
11
3.59196
21
-6.48761
0
LINE
8
BLACK
6
CONTINUOUS
10
3.59196
20
-6.48761
11
3.59571
21
-6.49511
0
LINE
8
BLACK
6
CONTINUOUS
10
3.59571
20
-6.49511
11
3.59571
21
-6.50261
0
LINE
8
BLACK
6
CONTINUOUS
10
3.59571
20
-6.50261
11
3.59196
21
-6.51385
0
LINE
8
BLACK
6
CONTINUOUS
10
3.59196
20
-6.51385
11
3.54696
21
-6.55885
0
LINE
8
BLACK
6
CONTINUOUS
10
3.54696
20
-6.55885
11
3.59571
21
-6.55885
0
LINE
8
BLACK
6
CONTINUOUS
10
3.64445
20
-6.48011
11
3.65195
21
-6.48011
0
LINE
8
BLACK
6
CONTINUOUS
10
3.65195
20
-6.48011
11
3.65945
21
-6.48386
0
LINE
8
BLACK
6
CONTINUOUS
10
3.65945
20
-6.48386
11
3.6632
21
-6.48761
0
LINE
8
BLACK
6
CONTINUOUS
10
3.6632
20
-6.48761
11
3.66695
21
-6.49511
0
LINE
8
BLACK
6
CONTINUOUS
10
3.66695
20
-6.49511
11
3.6707
21
-6.5101
0
LINE
8
BLACK
6
CONTINUOUS
10
3.6707
20
-6.5101
11
3.6707
21
-6.52885
0
LINE
8
BLACK
6
CONTINUOUS
10
3.6707
20
-6.52885
11
3.66695
21
-6.54385
0
LINE
8
BLACK
6
CONTINUOUS
10
3.66695
20
-6.54385
11
3.6632
21
-6.55135
0
LINE
8
BLACK
6
CONTINUOUS
10
3.6632
20
-6.55135
11
3.65945
21
-6.5551
0
LINE
8
BLACK
6
CONTINUOUS
10
3.65945
20
-6.5551
11
3.65195
21
-6.55885
0
LINE
8
BLACK
6
CONTINUOUS
10
3.65195
20
-6.55885
11
3.64445
21
-6.55885
0
LINE
8
BLACK
6
CONTINUOUS
10
3.64445
20
-6.55885
11
3.63695
21
-6.5551
0
LINE
8
BLACK
6
CONTINUOUS
10
3.63695
20
-6.5551
11
3.6332
21
-6.55135
0
LINE
8
BLACK
6
CONTINUOUS
10
3.6332
20
-6.55135
11
3.62945
21
-6.54385
0
LINE
8
BLACK
6
CONTINUOUS
10
3.62945
20
-6.54385
11
3.6257
21
-6.52885
0
LINE
8
BLACK
6
CONTINUOUS
10
3.6257
20
-6.52885
11
3.6257
21
-6.5101
0
LINE
8
BLACK
6
CONTINUOUS
10
3.6257
20
-6.5101
11
3.62945
21
-6.49511
0
LINE
8
BLACK
6
CONTINUOUS
10
3.62945
20
-6.49511
11
3.6332
21
-6.48761
0
LINE
8
BLACK
6
CONTINUOUS
10
3.6332
20
-6.48761
11
3.63695
21
-6.48386
0
LINE
8
BLACK
6
CONTINUOUS
10
3.63695
20
-6.48386
11
3.64445
21
-6.48011
0
LINE
8
BLACK
6
CONTINUOUS
10
3.71944
20
-6.48011
11
3.72694
21
-6.48011
0
LINE
8
BLACK
6
CONTINUOUS
10
3.72694
20
-6.48011
11
3.73444
21
-6.48386
0
LINE
8
BLACK
6
CONTINUOUS
10
3.73444
20
-6.48386
11
3.73819
21
-6.48761
0
LINE
8
BLACK
6
CONTINUOUS
10
3.73819
20
-6.48761
11
3.74194
21
-6.49511
0
LINE
8
BLACK
6
CONTINUOUS
10
3.74194
20
-6.49511
11
3.74569
21
-6.5101
0
LINE
8
BLACK
6
CONTINUOUS
10
3.74569
20
-6.5101
11
3.74569
21
-6.52885
0
LINE
8
BLACK
6
CONTINUOUS
10
3.74569
20
-6.52885
11
3.74194
21
-6.54385
0
LINE
8
BLACK
6
CONTINUOUS
10
3.74194
20
-6.54385
11
3.73819
21
-6.55135
0
LINE
8
BLACK
6
CONTINUOUS
10
3.73819
20
-6.55135
11
3.73444
21
-6.5551
0
LINE
8
BLACK
6
CONTINUOUS
10
3.73444
20
-6.5551
11
3.72694
21
-6.55885
0
LINE
8
BLACK
6
CONTINUOUS
10
3.72694
20
-6.55885
11
3.71944
21
-6.55885
0
LINE
8
BLACK
6
CONTINUOUS
10
3.71944
20
-6.55885
11
3.71194
21
-6.5551
0
LINE
8
BLACK
6
CONTINUOUS
10
3.71194
20
-6.5551
11
3.70819
21
-6.55135
0
LINE
8
BLACK
6
CONTINUOUS
10
3.70819
20
-6.55135
11
3.70444
21
-6.54385
0
LINE
8
BLACK
6
CONTINUOUS
10
3.70444
20
-6.54385
11
3.70069
21
-6.52885
0
LINE
8
BLACK
6
CONTINUOUS
10
3.70069
20
-6.52885
11
3.70069
21
-6.5101
0
LINE
8
BLACK
6
CONTINUOUS
10
3.70069
20
-6.5101
11
3.70444
21
-6.49511
0
LINE
8
BLACK
6
CONTINUOUS
10
3.70444
20
-6.49511
11
3.70819
21
-6.48761
0
LINE
8
BLACK
6
CONTINUOUS
10
3.70819
20
-6.48761
11
3.71194
21
-6.48386
0
LINE
8
BLACK
6
CONTINUOUS
10
3.71194
20
-6.48386
11
3.71944
21
-6.48011
0
LINE
8
BLACK
6
CONTINUOUS
10
3.77943
20
-6.55885
11
3.77943
21
-6.50636
0
LINE
8
BLACK
6
CONTINUOUS
10
3.77943
20
-6.51385
11
3.78318
21
-6.5101
0
LINE
8
BLACK
6
CONTINUOUS
10
3.78318
20
-6.5101
11
3.79068
21
-6.50636
0
LINE
8
BLACK
6
CONTINUOUS
10
3.79068
20
-6.50636
11
3.80193
21
-6.50636
0
LINE
8
BLACK
6
CONTINUOUS
10
3.80193
20
-6.50636
11
3.80943
21
-6.5101
0
LINE
8
BLACK
6
CONTINUOUS
10
3.80943
20
-6.5101
11
3.81318
21
-6.5176
0
LINE
8
BLACK
6
CONTINUOUS
10
3.81318
20
-6.5176
11
3.81318
21
-6.55885
0
LINE
8
BLACK
6
CONTINUOUS
10
3.81318
20
-6.5176
11
3.81693
21
-6.5101
0
LINE
8
BLACK
6
CONTINUOUS
10
3.81693
20
-6.5101
11
3.82443
21
-6.50636
0
LINE
8
BLACK
6
CONTINUOUS
10
3.82443
20
-6.50636
11
3.83568
21
-6.50636
0
LINE
8
BLACK
6
CONTINUOUS
10
3.83568
20
-6.50636
11
3.84318
21
-6.5101
0
LINE
8
BLACK
6
CONTINUOUS
10
3.84318
20
-6.5101
11
3.84693
21
-6.5176
0
LINE
8
BLACK
6
CONTINUOUS
10
3.84693
20
-6.5176
11
3.84693
21
-6.55885
0
LINE
8
BLACK
6
CONTINUOUS
10
3.88442
20
-6.55885
11
3.88442
21
-6.50636
0
LINE
8
BLACK
6
CONTINUOUS
10
3.88442
20
-6.51385
11
3.88817
21
-6.5101
0
LINE
8
BLACK
6
CONTINUOUS
10
3.88817
20
-6.5101
11
3.89567
21
-6.50636
0
LINE
8
BLACK
6
CONTINUOUS
10
3.89567
20
-6.50636
11
3.90692
21
-6.50636
0
LINE
8
BLACK
6
CONTINUOUS
10
3.90692
20
-6.50636
11
3.91442
21
-6.5101
0
LINE
8
BLACK
6
CONTINUOUS
10
3.91442
20
-6.5101
11
3.91817
21
-6.5176
0
LINE
8
BLACK
6
CONTINUOUS
10
3.91817
20
-6.5176
11
3.91817
21
-6.55885
0
LINE
8
BLACK
6
CONTINUOUS
10
3.91817
20
-6.5176
11
3.92192
21
-6.5101
0
LINE
8
BLACK
6
CONTINUOUS
10
3.92192
20
-6.5101
11
3.92942
21
-6.50636
0
LINE
8
BLACK
6
CONTINUOUS
10
3.92942
20
-6.50636
11
3.94066
21
-6.50636
0
LINE
8
BLACK
6
CONTINUOUS
10
3.94066
20
-6.50636
11
3.94816
21
-6.5101
0
LINE
8
BLACK
6
CONTINUOUS
10
3.94816
20
-6.5101
11
3.95191
21
-6.5176
0
LINE
8
BLACK
6
CONTINUOUS
10
3.95191
20
-6.5176
11
3.95191
21
-6.55885
0
LINE
8
BLACK
6
CONTINUOUS
10
4.10564
20
-6.47636
11
4.03815
21
-6.5776
0
LINE
8
BLACK
6
CONTINUOUS
10
4.20688
20
-6.48011
11
4.21438
21
-6.48011
0
LINE
8
BLACK
6
CONTINUOUS
10
4.21438
20
-6.48011
11
4.22188
21
-6.48386
0
LINE
8
BLACK
6
CONTINUOUS
10
4.22188
20
-6.48386
11
4.22563
21
-6.48761
0
LINE
8
BLACK
6
CONTINUOUS
10
4.22563
20
-6.48761
11
4.22938
21
-6.49511
0
LINE
8
BLACK
6
CONTINUOUS
10
4.22938
20
-6.49511
11
4.23313
21
-6.5101
0
LINE
8
BLACK
6
CONTINUOUS
10
4.23313
20
-6.5101
11
4.23313
21
-6.52885
0
LINE
8
BLACK
6
CONTINUOUS
10
4.23313
20
-6.52885
11
4.22938
21
-6.54385
0
LINE
8
BLACK
6
CONTINUOUS
10
4.22938
20
-6.54385
11
4.22563
21
-6.55135
0
LINE
8
BLACK
6
CONTINUOUS
10
4.22563
20
-6.55135
11
4.22188
21
-6.5551
0
LINE
8
BLACK
6
CONTINUOUS
10
4.22188
20
-6.5551
11
4.21438
21
-6.55885
0
LINE
8
BLACK
6
CONTINUOUS
10
4.21438
20
-6.55885
11
4.20688
21
-6.55885
0
LINE
8
BLACK
6
CONTINUOUS
10
4.20688
20
-6.55885
11
4.19938
21
-6.5551
0
LINE
8
BLACK
6
CONTINUOUS
10
4.19938
20
-6.5551
11
4.19563
21
-6.55135
0
LINE
8
BLACK
6
CONTINUOUS
10
4.19563
20
-6.55135
11
4.19188
21
-6.54385
0
LINE
8
BLACK
6
CONTINUOUS
10
4.19188
20
-6.54385
11
4.18813
21
-6.52885
0
LINE
8
BLACK
6
CONTINUOUS
10
4.18813
20
-6.52885
11
4.18813
21
-6.5101
0
LINE
8
BLACK
6
CONTINUOUS
10
4.18813
20
-6.5101
11
4.19188
21
-6.49511
0
LINE
8
BLACK
6
CONTINUOUS
10
4.19188
20
-6.49511
11
4.19563
21
-6.48761
0
LINE
8
BLACK
6
CONTINUOUS
10
4.19563
20
-6.48761
11
4.19938
21
-6.48386
0
LINE
8
BLACK
6
CONTINUOUS
10
4.19938
20
-6.48386
11
4.20688
21
-6.48011
0
LINE
8
BLACK
6
CONTINUOUS
10
4.26687
20
-6.55135
11
4.27062
21
-6.5551
0
LINE
8
BLACK
6
CONTINUOUS
10
4.27062
20
-6.5551
11
4.26687
21
-6.55885
0
LINE
8
BLACK
6
CONTINUOUS
10
4.26687
20
-6.55885
11
4.26312
21
-6.5551
0
LINE
8
BLACK
6
CONTINUOUS
10
4.26312
20
-6.5551
11
4.26687
21
-6.55135
0
LINE
8
BLACK
6
CONTINUOUS
10
4.26687
20
-6.55135
11
4.26687
21
-6.55885
0
LINE
8
BLACK
6
CONTINUOUS
10
4.34561
20
-6.55885
11
4.30062
21
-6.55885
0
LINE
8
BLACK
6
CONTINUOUS
10
4.32312
20
-6.55885
11
4.32312
21
-6.48011
0
LINE
8
BLACK
6
CONTINUOUS
10
4.32312
20
-6.48011
11
4.31562
21
-6.49136
0
LINE
8
BLACK
6
CONTINUOUS
10
4.31562
20
-6.49136
11
4.30812
21
-6.49886
0
LINE
8
BLACK
6
CONTINUOUS
10
4.30812
20
-6.49886
11
4.30062
21
-6.50261
0
LINE
8
BLACK
6
CONTINUOUS
10
4.37561
20
-6.48761
11
4.37936
21
-6.48386
0
LINE
8
BLACK
6
CONTINUOUS
10
4.37936
20
-6.48386
11
4.38686
21
-6.48011
0
LINE
8
BLACK
6
CONTINUOUS
10
4.38686
20
-6.48011
11
4.40561
21
-6.48011
0
LINE
8
BLACK
6
CONTINUOUS
10
4.40561
20
-6.48011
11
4.4131
21
-6.48386
0
LINE
8
BLACK
6
CONTINUOUS
10
4.4131
20
-6.48386
11
4.41685
21
-6.48761
0
LINE
8
BLACK
6
CONTINUOUS
10
4.41685
20
-6.48761
11
4.4206
21
-6.49511
0
LINE
8
BLACK
6
CONTINUOUS
10
4.4206
20
-6.49511
11
4.4206
21
-6.50261
0
LINE
8
BLACK
6
CONTINUOUS
10
4.4206
20
-6.50261
11
4.41685
21
-6.51385
0
LINE
8
BLACK
6
CONTINUOUS
10
4.41685
20
-6.51385
11
4.37186
21
-6.55885
0
LINE
8
BLACK
6
CONTINUOUS
10
4.37186
20
-6.55885
11
4.4206
21
-6.55885
0
LINE
8
BLACK
6
CONTINUOUS
10
4.4881
20
-6.48011
11
4.4731
21
-6.48011
0
LINE
8
BLACK
6
CONTINUOUS
10
4.4731
20
-6.48011
11
4.4656
21
-6.48386
0
LINE
8
BLACK
6
CONTINUOUS
10
4.4656
20
-6.48386
11
4.46185
21
-6.48761
0
LINE
8
BLACK
6
CONTINUOUS
10
4.46185
20
-6.48761
11
4.45435
21
-6.49886
0
LINE
8
BLACK
6
CONTINUOUS
10
4.45435
20
-6.49886
11
4.4506
21
-6.51385
0
LINE
8
BLACK
6
CONTINUOUS
10
4.4506
20
-6.51385
11
4.4506
21
-6.54385
0
LINE
8
BLACK
6
CONTINUOUS
10
4.4506
20
-6.54385
11
4.45435
21
-6.55135
0
LINE
8
BLACK
6
CONTINUOUS
10
4.45435
20
-6.55135
11
4.4581
21
-6.5551
0
LINE
8
BLACK
6
CONTINUOUS
10
4.4581
20
-6.5551
11
4.4656
21
-6.55885
0
LINE
8
BLACK
6
CONTINUOUS
10
4.4656
20
-6.55885
11
4.4806
21
-6.55885
0
LINE
8
BLACK
6
CONTINUOUS
10
4.4806
20
-6.55885
11
4.4881
21
-6.5551
0
LINE
8
BLACK
6
CONTINUOUS
10
4.4881
20
-6.5551
11
4.49184
21
-6.55135
0
LINE
8
BLACK
6
CONTINUOUS
10
4.49184
20
-6.55135
11
4.49559
21
-6.54385
0
LINE
8
BLACK
6
CONTINUOUS
10
4.49559
20
-6.54385
11
4.49559
21
-6.5251
0
LINE
8
BLACK
6
CONTINUOUS
10
4.49559
20
-6.5251
11
4.49184
21
-6.5176
0
LINE
8
BLACK
6
CONTINUOUS
10
4.49184
20
-6.5176
11
4.4881
21
-6.51385
0
LINE
8
BLACK
6
CONTINUOUS
10
4.4881
20
-6.51385
11
4.4806
21
-6.5101
0
LINE
8
BLACK
6
CONTINUOUS
10
4.4806
20
-6.5101
11
4.4656
21
-6.5101
0
LINE
8
BLACK
6
CONTINUOUS
10
4.4656
20
-6.5101
11
4.4581
21
-6.51385
0
LINE
8
BLACK
6
CONTINUOUS
10
4.4581
20
-6.51385
11
4.45435
21
-6.5176
0
LINE
8
BLACK
6
CONTINUOUS
10
4.45435
20
-6.5176
11
4.4506
21
-6.5251
0
LINE
8
BLACK
6
CONTINUOUS
10
4.54434
20
-6.48011
11
4.55184
21
-6.48011
0
LINE
8
BLACK
6
CONTINUOUS
10
4.55184
20
-6.48011
11
4.55934
21
-6.48386
0
LINE
8
BLACK
6
CONTINUOUS
10
4.55934
20
-6.48386
11
4.56309
21
-6.48761
0
LINE
8
BLACK
6
CONTINUOUS
10
4.56309
20
-6.48761
11
4.56684
21
-6.49511
0
LINE
8
BLACK
6
CONTINUOUS
10
4.56684
20
-6.49511
11
4.57058
21
-6.5101
0
LINE
8
BLACK
6
CONTINUOUS
10
4.57058
20
-6.5101
11
4.57058
21
-6.52885
0
LINE
8
BLACK
6
CONTINUOUS
10
4.57058
20
-6.52885
11
4.56684
21
-6.54385
0
LINE
8
BLACK
6
CONTINUOUS
10
4.56684
20
-6.54385
11
4.56309
21
-6.55135
0
LINE
8
BLACK
6
CONTINUOUS
10
4.56309
20
-6.55135
11
4.55934
21
-6.5551
0
LINE
8
BLACK
6
CONTINUOUS
10
4.55934
20
-6.5551
11
4.55184
21
-6.55885
0
LINE
8
BLACK
6
CONTINUOUS
10
4.55184
20
-6.55885
11
4.54434
21
-6.55885
0
LINE
8
BLACK
6
CONTINUOUS
10
4.54434
20
-6.55885
11
4.53684
21
-6.5551
0
LINE
8
BLACK
6
CONTINUOUS
10
4.53684
20
-6.5551
11
4.53309
21
-6.55135
0
LINE
8
BLACK
6
CONTINUOUS
10
4.53309
20
-6.55135
11
4.52934
21
-6.54385
0
LINE
8
BLACK
6
CONTINUOUS
10
4.52934
20
-6.54385
11
4.52559
21
-6.52885
0
LINE
8
BLACK
6
CONTINUOUS
10
4.52559
20
-6.52885
11
4.52559
21
-6.5101
0
LINE
8
BLACK
6
CONTINUOUS
10
4.52559
20
-6.5101
11
4.52934
21
-6.49511
0
LINE
8
BLACK
6
CONTINUOUS
10
4.52934
20
-6.49511
11
4.53309
21
-6.48761
0
LINE
8
BLACK
6
CONTINUOUS
10
4.53309
20
-6.48761
11
4.53684
21
-6.48386
0
LINE
8
BLACK
6
CONTINUOUS
10
4.53684
20
-6.48386
11
4.54434
21
-6.48011
0
LINE
8
BLACK
6
CONTINUOUS
10
4.60058
20
-6.48011
11
4.60058
21
-6.49511
0
LINE
8
BLACK
6
CONTINUOUS
10
4.63058
20
-6.48011
11
4.63058
21
-6.49511
0
LINE
8
BLACK
6
CONTINUOUS
10
4.74681
20
-6.58885
11
4.74306
21
-6.5851
0
LINE
8
BLACK
6
CONTINUOUS
10
4.74306
20
-6.5851
11
4.73556
21
-6.57385
0
LINE
8
BLACK
6
CONTINUOUS
10
4.73556
20
-6.57385
11
4.73181
21
-6.56635
0
LINE
8
BLACK
6
CONTINUOUS
10
4.73181
20
-6.56635
11
4.72807
21
-6.5551
0
LINE
8
BLACK
6
CONTINUOUS
10
4.72807
20
-6.5551
11
4.72432
21
-6.53635
0
LINE
8
BLACK
6
CONTINUOUS
10
4.72432
20
-6.53635
11
4.72432
21
-6.52135
0
LINE
8
BLACK
6
CONTINUOUS
10
4.72432
20
-6.52135
11
4.72807
21
-6.50261
0
LINE
8
BLACK
6
CONTINUOUS
10
4.72807
20
-6.50261
11
4.73181
21
-6.49136
0
LINE
8
BLACK
6
CONTINUOUS
10
4.73181
20
-6.49136
11
4.73556
21
-6.48386
0
LINE
8
BLACK
6
CONTINUOUS
10
4.73556
20
-6.48386
11
4.74306
21
-6.47261
0
LINE
8
BLACK
6
CONTINUOUS
10
4.74306
20
-6.47261
11
4.74681
21
-6.46886
0
LINE
8
BLACK
6
CONTINUOUS
10
4.81055
20
-6.50636
11
4.81055
21
-6.55885
0
LINE
8
BLACK
6
CONTINUOUS
10
4.79181
20
-6.47636
11
4.77306
21
-6.5326
0
LINE
8
BLACK
6
CONTINUOUS
10
4.77306
20
-6.5326
11
4.8218
21
-6.5326
0
LINE
8
BLACK
6
CONTINUOUS
10
4.91179
20
-6.55885
11
4.91179
21
-6.48011
0
LINE
8
BLACK
6
CONTINUOUS
10
4.94554
20
-6.55885
11
4.94554
21
-6.5176
0
LINE
8
BLACK
6
CONTINUOUS
10
4.94554
20
-6.5176
11
4.94179
21
-6.5101
0
LINE
8
BLACK
6
CONTINUOUS
10
4.94179
20
-6.5101
11
4.93429
21
-6.50636
0
LINE
8
BLACK
6
CONTINUOUS
10
4.93429
20
-6.50636
11
4.92304
21
-6.50636
0
LINE
8
BLACK
6
CONTINUOUS
10
4.92304
20
-6.50636
11
4.91554
21
-6.5101
0
LINE
8
BLACK
6
CONTINUOUS
10
4.91554
20
-6.5101
11
4.91179
21
-6.51385
0
LINE
8
BLACK
6
CONTINUOUS
10
4.99428
20
-6.55885
11
4.98678
21
-6.5551
0
LINE
8
BLACK
6
CONTINUOUS
10
4.98678
20
-6.5551
11
4.98303
21
-6.55135
0
LINE
8
BLACK
6
CONTINUOUS
10
4.98303
20
-6.55135
11
4.97928
21
-6.54385
0
LINE
8
BLACK
6
CONTINUOUS
10
4.97928
20
-6.54385
11
4.97928
21
-6.52135
0
LINE
8
BLACK
6
CONTINUOUS
10
4.97928
20
-6.52135
11
4.98303
21
-6.51385
0
LINE
8
BLACK
6
CONTINUOUS
10
4.98303
20
-6.51385
11
4.98678
21
-6.5101
0
LINE
8
BLACK
6
CONTINUOUS
10
4.98678
20
-6.5101
11
4.99428
21
-6.50636
0
LINE
8
BLACK
6
CONTINUOUS
10
4.99428
20
-6.50636
11
5.00553
21
-6.50636
0
LINE
8
BLACK
6
CONTINUOUS
10
5.00553
20
-6.50636
11
5.01303
21
-6.5101
0
LINE
8
BLACK
6
CONTINUOUS
10
5.01303
20
-6.5101
11
5.01678
21
-6.51385
0
LINE
8
BLACK
6
CONTINUOUS
10
5.01678
20
-6.51385
11
5.02053
21
-6.52135
0
LINE
8
BLACK
6
CONTINUOUS
10
5.02053
20
-6.52135
11
5.02053
21
-6.54385
0
LINE
8
BLACK
6
CONTINUOUS
10
5.02053
20
-6.54385
11
5.01678
21
-6.55135
0
LINE
8
BLACK
6
CONTINUOUS
10
5.01678
20
-6.55135
11
5.01303
21
-6.5551
0
LINE
8
BLACK
6
CONTINUOUS
10
5.01303
20
-6.5551
11
5.00553
21
-6.55885
0
LINE
8
BLACK
6
CONTINUOUS
10
5.00553
20
-6.55885
11
4.99428
21
-6.55885
0
LINE
8
BLACK
6
CONTINUOUS
10
5.06552
20
-6.55885
11
5.05802
21
-6.5551
0
LINE
8
BLACK
6
CONTINUOUS
10
5.05802
20
-6.5551
11
5.05427
21
-6.5476
0
LINE
8
BLACK
6
CONTINUOUS
10
5.05427
20
-6.5476
11
5.05427
21
-6.48011
0
LINE
8
BLACK
6
CONTINUOUS
10
5.12552
20
-6.5551
11
5.11802
21
-6.55885
0
LINE
8
BLACK
6
CONTINUOUS
10
5.11802
20
-6.55885
11
5.10302
21
-6.55885
0
LINE
8
BLACK
6
CONTINUOUS
10
5.10302
20
-6.55885
11
5.09552
21
-6.5551
0
LINE
8
BLACK
6
CONTINUOUS
10
5.09552
20
-6.5551
11
5.09177
21
-6.5476
0
LINE
8
BLACK
6
CONTINUOUS
10
5.09177
20
-6.5476
11
5.09177
21
-6.5176
0
LINE
8
BLACK
6
CONTINUOUS
10
5.09177
20
-6.5176
11
5.09552
21
-6.5101
0
LINE
8
BLACK
6
CONTINUOUS
10
5.09552
20
-6.5101
11
5.10302
21
-6.50636
0
LINE
8
BLACK
6
CONTINUOUS
10
5.10302
20
-6.50636
11
5.11802
21
-6.50636
0
LINE
8
BLACK
6
CONTINUOUS
10
5.11802
20
-6.50636
11
5.12552
21
-6.5101
0
LINE
8
BLACK
6
CONTINUOUS
10
5.12552
20
-6.5101
11
5.12927
21
-6.5176
0
LINE
8
BLACK
6
CONTINUOUS
10
5.12927
20
-6.5176
11
5.12927
21
-6.5251
0
LINE
8
BLACK
6
CONTINUOUS
10
5.12927
20
-6.5251
11
5.09177
21
-6.5326
0
LINE
8
BLACK
6
CONTINUOUS
10
5.15926
20
-6.5551
11
5.16676
21
-6.55885
0
LINE
8
BLACK
6
CONTINUOUS
10
5.16676
20
-6.55885
11
5.18176
21
-6.55885
0
LINE
8
BLACK
6
CONTINUOUS
10
5.18176
20
-6.55885
11
5.18926
21
-6.5551
0
LINE
8
BLACK
6
CONTINUOUS
10
5.18926
20
-6.5551
11
5.19301
21
-6.5476
0
LINE
8
BLACK
6
CONTINUOUS
10
5.19301
20
-6.5476
11
5.19301
21
-6.54385
0
LINE
8
BLACK
6
CONTINUOUS
10
5.19301
20
-6.54385
11
5.18926
21
-6.53635
0
LINE
8
BLACK
6
CONTINUOUS
10
5.18926
20
-6.53635
11
5.18176
21
-6.5326
0
LINE
8
BLACK
6
CONTINUOUS
10
5.18176
20
-6.5326
11
5.17051
21
-6.5326
0
LINE
8
BLACK
6
CONTINUOUS
10
5.17051
20
-6.5326
11
5.16301
21
-6.52885
0
LINE
8
BLACK
6
CONTINUOUS
10
5.16301
20
-6.52885
11
5.15926
21
-6.52135
0
LINE
8
BLACK
6
CONTINUOUS
10
5.15926
20
-6.52135
11
5.15926
21
-6.5176
0
LINE
8
BLACK
6
CONTINUOUS
10
5.15926
20
-6.5176
11
5.16301
21
-6.5101
0
LINE
8
BLACK
6
CONTINUOUS
10
5.16301
20
-6.5101
11
5.17051
21
-6.50636
0
LINE
8
BLACK
6
CONTINUOUS
10
5.17051
20
-6.50636
11
5.18176
21
-6.50636
0
LINE
8
BLACK
6
CONTINUOUS
10
5.18176
20
-6.50636
11
5.18926
21
-6.5101
0
LINE
8
BLACK
6
CONTINUOUS
10
5.21925
20
-6.58885
11
5.223
21
-6.5851
0
LINE
8
BLACK
6
CONTINUOUS
10
5.223
20
-6.5851
11
5.2305
21
-6.57385
0
LINE
8
BLACK
6
CONTINUOUS
10
5.2305
20
-6.57385
11
5.23425
21
-6.56635
0
LINE
8
BLACK
6
CONTINUOUS
10
5.23425
20
-6.56635
11
5.238
21
-6.5551
0
LINE
8
BLACK
6
CONTINUOUS
10
5.238
20
-6.5551
11
5.24175
21
-6.53635
0
LINE
8
BLACK
6
CONTINUOUS
10
5.24175
20
-6.53635
11
5.24175
21
-6.52135
0
LINE
8
BLACK
6
CONTINUOUS
10
5.24175
20
-6.52135
11
5.238
21
-6.50261
0
LINE
8
BLACK
6
CONTINUOUS
10
5.238
20
-6.50261
11
5.23425
21
-6.49136
0
LINE
8
BLACK
6
CONTINUOUS
10
5.23425
20
-6.49136
11
5.2305
21
-6.48386
0
LINE
8
BLACK
6
CONTINUOUS
10
5.2305
20
-6.48386
11
5.223
21
-6.47261
0
LINE
8
BLACK
6
CONTINUOUS
10
5.223
20
-6.47261
11
5.21925
21
-6.46886
  0
ENDSEC
  0
EOF
