  0
SECTION
  2
HEADER
  9
$ANGBASE
  50
0.0
  9
$ANGDIR
  70
1
  9
$MEASUREMENT
  70
1
  0
ENDSEC
  0
SECTION
  2
TABLES
  0
TABLE
  2
LTYPE
  70
4
  0
LTYPE
  5
40F
  2
CONTINUOUS
  70
0
  3
Solid line
  72
65
  73
0
  40
0.0
  0
LTYPE
  5
410
  2
DASHDOT
 70
0
  3
Dash Dot ____ _ ____ _
 72
65
 73
4
 40
2.0
 49
1.25
 49
-0.25
 49
0.25
 49
-0.25
  0
LTYPE
  5
411
  2
DASHED
 70
0
  3
Dashed __ __ __ __ __
 72
65
 73
2
 40
0.75
 49
0.5
 49
-0.25
  0
LTYPE
  5
43B
  2
DOTTED
 70
0
  3
Dotted .  .  .  .
 72
65
 73
2
 40
0.2
 49
0.0
 49
-0.2
  0
ENDTAB
  0
TABLE
  2
STYLE
  70
4
  0
STYLE
  2
KICAD
  70
0
  40
0
  41
1
  42
1
  50
0
  71
0
  3
isocp.shx
  0
STYLE
  2
KICADB
  70
0
  40
0
  41
1
  42
1
  50
0
  71
0
  3
isocp.shx
  0
STYLE
  2
KICADI
  70
0
  40
0
  41
1
  42
1
  50
15
  71
0
  3
isocp.shx
  0
STYLE
  2
KICADBI
  70
0
  40
0
  41
1
  42
1
  50
15
  71
0
  3
isocp.shx
  0
ENDTAB
  0
TABLE
  2
LAYER
  70
1
  0
LAYER
  2
BLACK
  70
0
  62
7
  6
CONTINUOUS
  0
ENDTAB
  0
ENDSEC
  0
SECTION
  2
ENTITIES
0
LINE
8
BLACK
6
CONTINUOUS
10
142.5
20
-84
11
109.7
21
-84
0
LINE
8
BLACK
6
CONTINUOUS
10
85
20
-84
11
85
21
-140.6
0
ARC
8
BLACK
10
106.35
20
-87.183
40
3.35204
50
-178
51
-2.00001
0
LINE
8
BLACK
6
CONTINUOUS
10
109.7
20
-84
11
109.7
21
-87.3
0
LINE
8
BLACK
6
CONTINUOUS
10
109.7
20
-140.6
11
142.5
21
-140.6
0
ARC
8
BLACK
10
106.35
20
-137.317
40
3.35204
50
2.00001
51
178
0
LINE
8
BLACK
6
CONTINUOUS
10
103
20
-140.6
11
103
21
-137.2
0
LINE
8
BLACK
6
CONTINUOUS
10
142.5
20
-140.6
11
142.5
21
-84
0
LINE
8
BLACK
6
CONTINUOUS
10
103
20
-87.3
11
103
21
-84
0
LINE
8
BLACK
6
CONTINUOUS
10
109.7
20
-137.2
11
109.7
21
-140.6
0
LINE
8
BLACK
6
CONTINUOUS
10
103
20
-84
11
85
21
-84
0
LINE
8
BLACK
6
CONTINUOUS
10
85
20
-140.6
11
103
21
-140.6
0
LINE
8
BLACK
6
CONTINUOUS
10
90.6025
20
-109.09
11
91.2525
21
-109.74
0
LINE
8
BLACK
6
CONTINUOUS
10
91.2525
20
-109.09
11
90.6025
21
-109.74
0
LINE
8
BLACK
6
CONTINUOUS
10
90.6025
20
-114.87
11
91.2525
21
-115.52
0
LINE
8
BLACK
6
CONTINUOUS
10
91.2525
20
-114.87
11
90.6025
21
-115.52
0
LINE
8
BLACK
6
CONTINUOUS
10
87.4262
20
-143.855
11
87.4262
21
-141.855
0
LINE
8
BLACK
6
CONTINUOUS
10
87.4262
20
-141.855
11
87.9024
21
-141.855
0
LINE
8
BLACK
6
CONTINUOUS
10
87.9024
20
-141.855
11
88.1881
21
-141.95
0
LINE
8
BLACK
6
CONTINUOUS
10
88.1881
20
-141.95
11
88.3786
21
-142.14
0
LINE
8
BLACK
6
CONTINUOUS
10
88.3786
20
-142.14
11
88.4738
21
-142.331
0
LINE
8
BLACK
6
CONTINUOUS
10
88.4738
20
-142.331
11
88.569
21
-142.712
0
LINE
8
BLACK
6
CONTINUOUS
10
88.569
20
-142.712
11
88.569
21
-142.998
0
LINE
8
BLACK
6
CONTINUOUS
10
88.569
20
-142.998
11
88.4738
21
-143.379
0
LINE
8
BLACK
6
CONTINUOUS
10
88.4738
20
-143.379
11
88.3786
21
-143.569
0
LINE
8
BLACK
6
CONTINUOUS
10
88.3786
20
-143.569
11
88.1881
21
-143.76
0
LINE
8
BLACK
6
CONTINUOUS
10
88.1881
20
-143.76
11
87.9024
21
-143.855
0
LINE
8
BLACK
6
CONTINUOUS
10
87.9024
20
-143.855
11
87.4262
21
-143.855
0
LINE
8
BLACK
6
CONTINUOUS
10
89.4262
20
-143.855
11
89.4262
21
-142.521
0
LINE
8
BLACK
6
CONTINUOUS
10
89.4262
20
-142.902
11
89.5214
21
-142.712
0
LINE
8
BLACK
6
CONTINUOUS
10
89.5214
20
-142.712
11
89.6167
21
-142.617
0
LINE
8
BLACK
6
CONTINUOUS
10
89.6167
20
-142.617
11
89.8071
21
-142.521
0
LINE
8
BLACK
6
CONTINUOUS
10
89.8071
20
-142.521
11
89.9976
21
-142.521
0
LINE
8
BLACK
6
CONTINUOUS
10
90.6643
20
-143.855
11
90.6643
21
-142.521
0
LINE
8
BLACK
6
CONTINUOUS
10
90.6643
20
-141.855
11
90.569
21
-141.95
0
LINE
8
BLACK
6
CONTINUOUS
10
90.569
20
-141.95
11
90.6643
21
-142.045
0
LINE
8
BLACK
6
CONTINUOUS
10
90.6643
20
-142.045
11
90.7595
21
-141.95
0
LINE
8
BLACK
6
CONTINUOUS
10
90.7595
20
-141.95
11
90.6643
21
-141.855
0
LINE
8
BLACK
6
CONTINUOUS
10
90.6643
20
-141.855
11
90.6643
21
-142.045
0
LINE
8
BLACK
6
CONTINUOUS
10
91.9024
20
-143.855
11
91.7119
21
-143.76
0
LINE
8
BLACK
6
CONTINUOUS
10
91.7119
20
-143.76
11
91.6167
21
-143.569
0
LINE
8
BLACK
6
CONTINUOUS
10
91.6167
20
-143.569
11
91.6167
21
-141.855
0
LINE
8
BLACK
6
CONTINUOUS
10
92.95
20
-143.855
11
92.7595
21
-143.76
0
LINE
8
BLACK
6
CONTINUOUS
10
92.7595
20
-143.76
11
92.6643
21
-143.569
0
LINE
8
BLACK
6
CONTINUOUS
10
92.6643
20
-143.569
11
92.6643
21
-141.855
0
LINE
8
BLACK
6
CONTINUOUS
10
95.2357
20
-143.855
11
95.2357
21
-141.855
0
LINE
8
BLACK
6
CONTINUOUS
10
95.2357
20
-141.855
11
95.9024
21
-143.283
0
LINE
8
BLACK
6
CONTINUOUS
10
95.9024
20
-143.283
11
96.569
21
-141.855
0
LINE
8
BLACK
6
CONTINUOUS
10
96.569
20
-141.855
11
96.569
21
-143.855
0
LINE
8
BLACK
6
CONTINUOUS
10
98.3786
20
-143.855
11
98.3786
21
-142.807
0
LINE
8
BLACK
6
CONTINUOUS
10
98.3786
20
-142.807
11
98.2833
21
-142.617
0
LINE
8
BLACK
6
CONTINUOUS
10
98.2833
20
-142.617
11
98.0929
21
-142.521
0
LINE
8
BLACK
6
CONTINUOUS
10
98.0929
20
-142.521
11
97.7119
21
-142.521
0
LINE
8
BLACK
6
CONTINUOUS
10
97.7119
20
-142.521
11
97.5214
21
-142.617
0
LINE
8
BLACK
6
CONTINUOUS
10
98.3786
20
-143.76
11
98.1881
21
-143.855
0
LINE
8
BLACK
6
CONTINUOUS
10
98.1881
20
-143.855
11
97.7119
21
-143.855
0
LINE
8
BLACK
6
CONTINUOUS
10
97.7119
20
-143.855
11
97.5214
21
-143.76
0
LINE
8
BLACK
6
CONTINUOUS
10
97.5214
20
-143.76
11
97.4262
21
-143.569
0
LINE
8
BLACK
6
CONTINUOUS
10
97.4262
20
-143.569
11
97.4262
21
-143.379
0
LINE
8
BLACK
6
CONTINUOUS
10
97.4262
20
-143.379
11
97.5214
21
-143.188
0
LINE
8
BLACK
6
CONTINUOUS
10
97.5214
20
-143.188
11
97.7119
21
-143.093
0
LINE
8
BLACK
6
CONTINUOUS
10
97.7119
20
-143.093
11
98.1881
21
-143.093
0
LINE
8
BLACK
6
CONTINUOUS
10
98.1881
20
-143.093
11
98.3786
21
-142.998
0
LINE
8
BLACK
6
CONTINUOUS
10
99.331
20
-142.521
11
99.331
21
-144.521
0
LINE
8
BLACK
6
CONTINUOUS
10
99.331
20
-142.617
11
99.5214
21
-142.521
0
LINE
8
BLACK
6
CONTINUOUS
10
99.5214
20
-142.521
11
99.9024
21
-142.521
0
LINE
8
BLACK
6
CONTINUOUS
10
99.9024
20
-142.521
11
100.093
21
-142.617
0
LINE
8
BLACK
6
CONTINUOUS
10
100.093
20
-142.617
11
100.188
21
-142.712
0
LINE
8
BLACK
6
CONTINUOUS
10
100.188
20
-142.712
11
100.283
21
-142.902
0
LINE
8
BLACK
6
CONTINUOUS
10
100.283
20
-142.902
11
100.283
21
-143.474
0
LINE
8
BLACK
6
CONTINUOUS
10
100.283
20
-143.474
11
100.188
21
-143.664
0
LINE
8
BLACK
6
CONTINUOUS
10
100.188
20
-143.664
11
100.093
21
-143.76
0
LINE
8
BLACK
6
CONTINUOUS
10
100.093
20
-143.76
11
99.9024
21
-143.855
0
LINE
8
BLACK
6
CONTINUOUS
10
99.9024
20
-143.855
11
99.5214
21
-143.855
0
LINE
8
BLACK
6
CONTINUOUS
10
99.5214
20
-143.855
11
99.331
21
-143.76
0
LINE
8
BLACK
6
CONTINUOUS
10
101.14
20
-143.664
11
101.236
21
-143.76
0
LINE
8
BLACK
6
CONTINUOUS
10
101.236
20
-143.76
11
101.14
21
-143.855
0
LINE
8
BLACK
6
CONTINUOUS
10
101.14
20
-143.855
11
101.045
21
-143.76
0
LINE
8
BLACK
6
CONTINUOUS
10
101.045
20
-143.76
11
101.14
21
-143.664
0
LINE
8
BLACK
6
CONTINUOUS
10
101.14
20
-143.664
11
101.14
21
-143.855
0
LINE
8
BLACK
6
CONTINUOUS
10
101.14
20
-142.617
11
101.236
21
-142.712
0
LINE
8
BLACK
6
CONTINUOUS
10
101.236
20
-142.712
11
101.14
21
-142.807
0
LINE
8
BLACK
6
CONTINUOUS
10
101.14
20
-142.807
11
101.045
21
-142.712
0
LINE
8
BLACK
6
CONTINUOUS
10
101.045
20
-142.712
11
101.14
21
-142.617
0
LINE
8
BLACK
6
CONTINUOUS
10
101.14
20
-142.617
11
101.14
21
-142.807
0
LINE
8
BLACK
6
CONTINUOUS
10
84.2
20
-146.825
11
84.85
21
-147.475
0
LINE
8
BLACK
6
CONTINUOUS
10
84.85
20
-146.825
11
84.2
21
-147.475
0
LINE
8
BLACK
6
CONTINUOUS
10
87.8071
20
-146.055
11
87.9976
21
-146.055
0
LINE
8
BLACK
6
CONTINUOUS
10
87.9976
20
-146.055
11
88.1881
21
-146.15
0
LINE
8
BLACK
6
CONTINUOUS
10
88.1881
20
-146.15
11
88.2833
21
-146.245
0
LINE
8
BLACK
6
CONTINUOUS
10
88.2833
20
-146.245
11
88.3786
21
-146.436
0
LINE
8
BLACK
6
CONTINUOUS
10
88.3786
20
-146.436
11
88.4738
21
-146.817
0
LINE
8
BLACK
6
CONTINUOUS
10
88.4738
20
-146.817
11
88.4738
21
-147.293
0
LINE
8
BLACK
6
CONTINUOUS
10
88.4738
20
-147.293
11
88.3786
21
-147.674
0
LINE
8
BLACK
6
CONTINUOUS
10
88.3786
20
-147.674
11
88.2833
21
-147.864
0
LINE
8
BLACK
6
CONTINUOUS
10
88.2833
20
-147.864
11
88.1881
21
-147.96
0
LINE
8
BLACK
6
CONTINUOUS
10
88.1881
20
-147.96
11
87.9976
21
-148.055
0
LINE
8
BLACK
6
CONTINUOUS
10
87.9976
20
-148.055
11
87.8071
21
-148.055
0
LINE
8
BLACK
6
CONTINUOUS
10
87.8071
20
-148.055
11
87.6167
21
-147.96
0
LINE
8
BLACK
6
CONTINUOUS
10
87.6167
20
-147.96
11
87.5214
21
-147.864
0
LINE
8
BLACK
6
CONTINUOUS
10
87.5214
20
-147.864
11
87.4262
21
-147.674
0
LINE
8
BLACK
6
CONTINUOUS
10
87.4262
20
-147.674
11
87.331
21
-147.293
0
LINE
8
BLACK
6
CONTINUOUS
10
87.331
20
-147.293
11
87.331
21
-146.817
0
LINE
8
BLACK
6
CONTINUOUS
10
87.331
20
-146.817
11
87.4262
21
-146.436
0
LINE
8
BLACK
6
CONTINUOUS
10
87.4262
20
-146.436
11
87.5214
21
-146.245
0
LINE
8
BLACK
6
CONTINUOUS
10
87.5214
20
-146.245
11
87.6167
21
-146.15
0
LINE
8
BLACK
6
CONTINUOUS
10
87.6167
20
-146.15
11
87.8071
21
-146.055
0
LINE
8
BLACK
6
CONTINUOUS
10
89.331
20
-147.864
11
89.4262
21
-147.96
0
LINE
8
BLACK
6
CONTINUOUS
10
89.4262
20
-147.96
11
89.331
21
-148.055
0
LINE
8
BLACK
6
CONTINUOUS
10
89.331
20
-148.055
11
89.2357
21
-147.96
0
LINE
8
BLACK
6
CONTINUOUS
10
89.2357
20
-147.96
11
89.331
21
-147.864
0
LINE
8
BLACK
6
CONTINUOUS
10
89.331
20
-147.864
11
89.331
21
-148.055
0
LINE
8
BLACK
6
CONTINUOUS
10
91.1405
20
-146.055
11
90.7595
21
-146.055
0
LINE
8
BLACK
6
CONTINUOUS
10
90.7595
20
-146.055
11
90.569
21
-146.15
0
LINE
8
BLACK
6
CONTINUOUS
10
90.569
20
-146.15
11
90.4738
21
-146.245
0
LINE
8
BLACK
6
CONTINUOUS
10
90.4738
20
-146.245
11
90.2833
21
-146.531
0
LINE
8
BLACK
6
CONTINUOUS
10
90.2833
20
-146.531
11
90.1881
21
-146.912
0
LINE
8
BLACK
6
CONTINUOUS
10
90.1881
20
-146.912
11
90.1881
21
-147.674
0
LINE
8
BLACK
6
CONTINUOUS
10
90.1881
20
-147.674
11
90.2833
21
-147.864
0
LINE
8
BLACK
6
CONTINUOUS
10
90.2833
20
-147.864
11
90.3786
21
-147.96
0
LINE
8
BLACK
6
CONTINUOUS
10
90.3786
20
-147.96
11
90.569
21
-148.055
0
LINE
8
BLACK
6
CONTINUOUS
10
90.569
20
-148.055
11
90.95
21
-148.055
0
LINE
8
BLACK
6
CONTINUOUS
10
90.95
20
-148.055
11
91.1405
21
-147.96
0
LINE
8
BLACK
6
CONTINUOUS
10
91.1405
20
-147.96
11
91.2357
21
-147.864
0
LINE
8
BLACK
6
CONTINUOUS
10
91.2357
20
-147.864
11
91.331
21
-147.674
0
LINE
8
BLACK
6
CONTINUOUS
10
91.331
20
-147.674
11
91.331
21
-147.198
0
LINE
8
BLACK
6
CONTINUOUS
10
91.331
20
-147.198
11
91.2357
21
-147.007
0
LINE
8
BLACK
6
CONTINUOUS
10
91.2357
20
-147.007
11
91.1405
21
-146.912
0
LINE
8
BLACK
6
CONTINUOUS
10
91.1405
20
-146.912
11
90.95
21
-146.817
0
LINE
8
BLACK
6
CONTINUOUS
10
90.95
20
-146.817
11
90.569
21
-146.817
0
LINE
8
BLACK
6
CONTINUOUS
10
90.569
20
-146.817
11
90.3786
21
-146.912
0
LINE
8
BLACK
6
CONTINUOUS
10
90.3786
20
-146.912
11
90.2833
21
-147.007
0
LINE
8
BLACK
6
CONTINUOUS
10
90.2833
20
-147.007
11
90.1881
21
-147.198
0
LINE
8
BLACK
6
CONTINUOUS
10
93.1405
20
-146.055
11
92.1881
21
-146.055
0
LINE
8
BLACK
6
CONTINUOUS
10
92.1881
20
-146.055
11
92.0929
21
-147.007
0
LINE
8
BLACK
6
CONTINUOUS
10
92.0929
20
-147.007
11
92.1881
21
-146.912
0
LINE
8
BLACK
6
CONTINUOUS
10
92.1881
20
-146.912
11
92.3786
21
-146.817
0
LINE
8
BLACK
6
CONTINUOUS
10
92.3786
20
-146.817
11
92.8548
21
-146.817
0
LINE
8
BLACK
6
CONTINUOUS
10
92.8548
20
-146.817
11
93.0452
21
-146.912
0
LINE
8
BLACK
6
CONTINUOUS
10
93.0452
20
-146.912
11
93.1405
21
-147.007
0
LINE
8
BLACK
6
CONTINUOUS
10
93.1405
20
-147.007
11
93.2357
21
-147.198
0
LINE
8
BLACK
6
CONTINUOUS
10
93.2357
20
-147.198
11
93.2357
21
-147.674
0
LINE
8
BLACK
6
CONTINUOUS
10
93.2357
20
-147.674
11
93.1405
21
-147.864
0
LINE
8
BLACK
6
CONTINUOUS
10
93.1405
20
-147.864
11
93.0452
21
-147.96
0
LINE
8
BLACK
6
CONTINUOUS
10
93.0452
20
-147.96
11
92.8548
21
-148.055
0
LINE
8
BLACK
6
CONTINUOUS
10
92.8548
20
-148.055
11
92.3786
21
-148.055
0
LINE
8
BLACK
6
CONTINUOUS
10
92.3786
20
-148.055
11
92.1881
21
-147.96
0
LINE
8
BLACK
6
CONTINUOUS
10
92.1881
20
-147.96
11
92.0929
21
-147.864
0
LINE
8
BLACK
6
CONTINUOUS
10
94.4738
20
-146.055
11
94.6643
21
-146.055
0
LINE
8
BLACK
6
CONTINUOUS
10
94.6643
20
-146.055
11
94.8548
21
-146.15
0
LINE
8
BLACK
6
CONTINUOUS
10
94.8548
20
-146.15
11
94.95
21
-146.245
0
LINE
8
BLACK
6
CONTINUOUS
10
94.95
20
-146.245
11
95.0452
21
-146.436
0
LINE
8
BLACK
6
CONTINUOUS
10
95.0452
20
-146.436
11
95.1405
21
-146.817
0
LINE
8
BLACK
6
CONTINUOUS
10
95.1405
20
-146.817
11
95.1405
21
-147.293
0
LINE
8
BLACK
6
CONTINUOUS
10
95.1405
20
-147.293
11
95.0452
21
-147.674
0
LINE
8
BLACK
6
CONTINUOUS
10
95.0452
20
-147.674
11
94.95
21
-147.864
0
LINE
8
BLACK
6
CONTINUOUS
10
94.95
20
-147.864
11
94.8548
21
-147.96
0
LINE
8
BLACK
6
CONTINUOUS
10
94.8548
20
-147.96
11
94.6643
21
-148.055
0
LINE
8
BLACK
6
CONTINUOUS
10
94.6643
20
-148.055
11
94.4738
21
-148.055
0
LINE
8
BLACK
6
CONTINUOUS
10
94.4738
20
-148.055
11
94.2833
21
-147.96
0
LINE
8
BLACK
6
CONTINUOUS
10
94.2833
20
-147.96
11
94.1881
21
-147.864
0
LINE
8
BLACK
6
CONTINUOUS
10
94.1881
20
-147.864
11
94.0929
21
-147.674
0
LINE
8
BLACK
6
CONTINUOUS
10
94.0929
20
-147.674
11
93.9976
21
-147.293
0
LINE
8
BLACK
6
CONTINUOUS
10
93.9976
20
-147.293
11
93.9976
21
-146.817
0
LINE
8
BLACK
6
CONTINUOUS
10
93.9976
20
-146.817
11
94.0929
21
-146.436
0
LINE
8
BLACK
6
CONTINUOUS
10
94.0929
20
-146.436
11
94.1881
21
-146.245
0
LINE
8
BLACK
6
CONTINUOUS
10
94.1881
20
-146.245
11
94.2833
21
-146.15
0
LINE
8
BLACK
6
CONTINUOUS
10
94.2833
20
-146.15
11
94.4738
21
-146.055
0
LINE
8
BLACK
6
CONTINUOUS
10
95.9976
20
-148.055
11
95.9976
21
-146.721
0
LINE
8
BLACK
6
CONTINUOUS
10
95.9976
20
-146.912
11
96.0929
21
-146.817
0
LINE
8
BLACK
6
CONTINUOUS
10
96.0929
20
-146.817
11
96.2833
21
-146.721
0
LINE
8
BLACK
6
CONTINUOUS
10
96.2833
20
-146.721
11
96.569
21
-146.721
0
LINE
8
BLACK
6
CONTINUOUS
10
96.569
20
-146.721
11
96.7595
21
-146.817
0
LINE
8
BLACK
6
CONTINUOUS
10
96.7595
20
-146.817
11
96.8548
21
-147.007
0
LINE
8
BLACK
6
CONTINUOUS
10
96.8548
20
-147.007
11
96.8548
21
-148.055
0
LINE
8
BLACK
6
CONTINUOUS
10
96.8548
20
-147.007
11
96.95
21
-146.817
0
LINE
8
BLACK
6
CONTINUOUS
10
96.95
20
-146.817
11
97.1405
21
-146.721
0
LINE
8
BLACK
6
CONTINUOUS
10
97.1405
20
-146.721
11
97.4262
21
-146.721
0
LINE
8
BLACK
6
CONTINUOUS
10
97.4262
20
-146.721
11
97.6167
21
-146.817
0
LINE
8
BLACK
6
CONTINUOUS
10
97.6167
20
-146.817
11
97.7119
21
-147.007
0
LINE
8
BLACK
6
CONTINUOUS
10
97.7119
20
-147.007
11
97.7119
21
-148.055
0
LINE
8
BLACK
6
CONTINUOUS
10
98.6643
20
-148.055
11
98.6643
21
-146.721
0
LINE
8
BLACK
6
CONTINUOUS
10
98.6643
20
-146.912
11
98.7595
21
-146.817
0
LINE
8
BLACK
6
CONTINUOUS
10
98.7595
20
-146.817
11
98.95
21
-146.721
0
LINE
8
BLACK
6
CONTINUOUS
10
98.95
20
-146.721
11
99.2357
21
-146.721
0
LINE
8
BLACK
6
CONTINUOUS
10
99.2357
20
-146.721
11
99.4262
21
-146.817
0
LINE
8
BLACK
6
CONTINUOUS
10
99.4262
20
-146.817
11
99.5214
21
-147.007
0
LINE
8
BLACK
6
CONTINUOUS
10
99.5214
20
-147.007
11
99.5214
21
-148.055
0
LINE
8
BLACK
6
CONTINUOUS
10
99.5214
20
-147.007
11
99.6167
21
-146.817
0
LINE
8
BLACK
6
CONTINUOUS
10
99.6167
20
-146.817
11
99.8071
21
-146.721
0
LINE
8
BLACK
6
CONTINUOUS
10
99.8071
20
-146.721
11
100.093
21
-146.721
0
LINE
8
BLACK
6
CONTINUOUS
10
100.093
20
-146.721
11
100.283
21
-146.817
0
LINE
8
BLACK
6
CONTINUOUS
10
100.283
20
-146.817
11
100.379
21
-147.007
0
LINE
8
BLACK
6
CONTINUOUS
10
100.379
20
-147.007
11
100.379
21
-148.055
0
LINE
8
BLACK
6
CONTINUOUS
10
104.283
20
-145.96
11
102.569
21
-148.531
0
LINE
8
BLACK
6
CONTINUOUS
10
106.855
20
-146.055
11
107.045
21
-146.055
0
LINE
8
BLACK
6
CONTINUOUS
10
107.045
20
-146.055
11
107.236
21
-146.15
0
LINE
8
BLACK
6
CONTINUOUS
10
107.236
20
-146.15
11
107.331
21
-146.245
0
LINE
8
BLACK
6
CONTINUOUS
10
107.331
20
-146.245
11
107.426
21
-146.436
0
LINE
8
BLACK
6
CONTINUOUS
10
107.426
20
-146.436
11
107.521
21
-146.817
0
LINE
8
BLACK
6
CONTINUOUS
10
107.521
20
-146.817
11
107.521
21
-147.293
0
LINE
8
BLACK
6
CONTINUOUS
10
107.521
20
-147.293
11
107.426
21
-147.674
0
LINE
8
BLACK
6
CONTINUOUS
10
107.426
20
-147.674
11
107.331
21
-147.864
0
LINE
8
BLACK
6
CONTINUOUS
10
107.331
20
-147.864
11
107.236
21
-147.96
0
LINE
8
BLACK
6
CONTINUOUS
10
107.236
20
-147.96
11
107.045
21
-148.055
0
LINE
8
BLACK
6
CONTINUOUS
10
107.045
20
-148.055
11
106.855
21
-148.055
0
LINE
8
BLACK
6
CONTINUOUS
10
106.855
20
-148.055
11
106.664
21
-147.96
0
LINE
8
BLACK
6
CONTINUOUS
10
106.664
20
-147.96
11
106.569
21
-147.864
0
LINE
8
BLACK
6
CONTINUOUS
10
106.569
20
-147.864
11
106.474
21
-147.674
0
LINE
8
BLACK
6
CONTINUOUS
10
106.474
20
-147.674
11
106.379
21
-147.293
0
LINE
8
BLACK
6
CONTINUOUS
10
106.379
20
-147.293
11
106.379
21
-146.817
0
LINE
8
BLACK
6
CONTINUOUS
10
106.379
20
-146.817
11
106.474
21
-146.436
0
LINE
8
BLACK
6
CONTINUOUS
10
106.474
20
-146.436
11
106.569
21
-146.245
0
LINE
8
BLACK
6
CONTINUOUS
10
106.569
20
-146.245
11
106.664
21
-146.15
0
LINE
8
BLACK
6
CONTINUOUS
10
106.664
20
-146.15
11
106.855
21
-146.055
0
LINE
8
BLACK
6
CONTINUOUS
10
108.379
20
-147.864
11
108.474
21
-147.96
0
LINE
8
BLACK
6
CONTINUOUS
10
108.474
20
-147.96
11
108.379
21
-148.055
0
LINE
8
BLACK
6
CONTINUOUS
10
108.379
20
-148.055
11
108.283
21
-147.96
0
LINE
8
BLACK
6
CONTINUOUS
10
108.283
20
-147.96
11
108.379
21
-147.864
0
LINE
8
BLACK
6
CONTINUOUS
10
108.379
20
-147.864
11
108.379
21
-148.055
0
LINE
8
BLACK
6
CONTINUOUS
10
109.712
20
-146.055
11
109.902
21
-146.055
0
LINE
8
BLACK
6
CONTINUOUS
10
109.902
20
-146.055
11
110.093
21
-146.15
0
LINE
8
BLACK
6
CONTINUOUS
10
110.093
20
-146.15
11
110.188
21
-146.245
0
LINE
8
BLACK
6
CONTINUOUS
10
110.188
20
-146.245
11
110.283
21
-146.436
0
LINE
8
BLACK
6
CONTINUOUS
10
110.283
20
-146.436
11
110.379
21
-146.817
0
LINE
8
BLACK
6
CONTINUOUS
10
110.379
20
-146.817
11
110.379
21
-147.293
0
LINE
8
BLACK
6
CONTINUOUS
10
110.379
20
-147.293
11
110.283
21
-147.674
0
LINE
8
BLACK
6
CONTINUOUS
10
110.283
20
-147.674
11
110.188
21
-147.864
0
LINE
8
BLACK
6
CONTINUOUS
10
110.188
20
-147.864
11
110.093
21
-147.96
0
LINE
8
BLACK
6
CONTINUOUS
10
110.093
20
-147.96
11
109.902
21
-148.055
0
LINE
8
BLACK
6
CONTINUOUS
10
109.902
20
-148.055
11
109.712
21
-148.055
0
LINE
8
BLACK
6
CONTINUOUS
10
109.712
20
-148.055
11
109.521
21
-147.96
0
LINE
8
BLACK
6
CONTINUOUS
10
109.521
20
-147.96
11
109.426
21
-147.864
0
LINE
8
BLACK
6
CONTINUOUS
10
109.426
20
-147.864
11
109.331
21
-147.674
0
LINE
8
BLACK
6
CONTINUOUS
10
109.331
20
-147.674
11
109.236
21
-147.293
0
LINE
8
BLACK
6
CONTINUOUS
10
109.236
20
-147.293
11
109.236
21
-146.817
0
LINE
8
BLACK
6
CONTINUOUS
10
109.236
20
-146.817
11
109.331
21
-146.436
0
LINE
8
BLACK
6
CONTINUOUS
10
109.331
20
-146.436
11
109.426
21
-146.245
0
LINE
8
BLACK
6
CONTINUOUS
10
109.426
20
-146.245
11
109.521
21
-146.15
0
LINE
8
BLACK
6
CONTINUOUS
10
109.521
20
-146.15
11
109.712
21
-146.055
0
LINE
8
BLACK
6
CONTINUOUS
10
111.14
20
-146.245
11
111.236
21
-146.15
0
LINE
8
BLACK
6
CONTINUOUS
10
111.236
20
-146.15
11
111.426
21
-146.055
0
LINE
8
BLACK
6
CONTINUOUS
10
111.426
20
-146.055
11
111.902
21
-146.055
0
LINE
8
BLACK
6
CONTINUOUS
10
111.902
20
-146.055
11
112.093
21
-146.15
0
LINE
8
BLACK
6
CONTINUOUS
10
112.093
20
-146.15
11
112.188
21
-146.245
0
LINE
8
BLACK
6
CONTINUOUS
10
112.188
20
-146.245
11
112.283
21
-146.436
0
LINE
8
BLACK
6
CONTINUOUS
10
112.283
20
-146.436
11
112.283
21
-146.626
0
LINE
8
BLACK
6
CONTINUOUS
10
112.283
20
-146.626
11
112.188
21
-146.912
0
LINE
8
BLACK
6
CONTINUOUS
10
112.188
20
-146.912
11
111.045
21
-148.055
0
LINE
8
BLACK
6
CONTINUOUS
10
111.045
20
-148.055
11
112.283
21
-148.055
0
LINE
8
BLACK
6
CONTINUOUS
10
114.093
20
-146.055
11
113.14
21
-146.055
0
LINE
8
BLACK
6
CONTINUOUS
10
113.14
20
-146.055
11
113.045
21
-147.007
0
LINE
8
BLACK
6
CONTINUOUS
10
113.045
20
-147.007
11
113.14
21
-146.912
0
LINE
8
BLACK
6
CONTINUOUS
10
113.14
20
-146.912
11
113.331
21
-146.817
0
LINE
8
BLACK
6
CONTINUOUS
10
113.331
20
-146.817
11
113.807
21
-146.817
0
LINE
8
BLACK
6
CONTINUOUS
10
113.807
20
-146.817
11
113.998
21
-146.912
0
LINE
8
BLACK
6
CONTINUOUS
10
113.998
20
-146.912
11
114.093
21
-147.007
0
LINE
8
BLACK
6
CONTINUOUS
10
114.093
20
-147.007
11
114.188
21
-147.198
0
LINE
8
BLACK
6
CONTINUOUS
10
114.188
20
-147.198
11
114.188
21
-147.674
0
LINE
8
BLACK
6
CONTINUOUS
10
114.188
20
-147.674
11
114.093
21
-147.864
0
LINE
8
BLACK
6
CONTINUOUS
10
114.093
20
-147.864
11
113.998
21
-147.96
0
LINE
8
BLACK
6
CONTINUOUS
10
113.998
20
-147.96
11
113.807
21
-148.055
0
LINE
8
BLACK
6
CONTINUOUS
10
113.807
20
-148.055
11
113.331
21
-148.055
0
LINE
8
BLACK
6
CONTINUOUS
10
113.331
20
-148.055
11
113.14
21
-147.96
0
LINE
8
BLACK
6
CONTINUOUS
10
113.14
20
-147.96
11
113.045
21
-147.864
0
LINE
8
BLACK
6
CONTINUOUS
10
115.902
20
-146.055
11
115.521
21
-146.055
0
LINE
8
BLACK
6
CONTINUOUS
10
115.521
20
-146.055
11
115.331
21
-146.15
0
LINE
8
BLACK
6
CONTINUOUS
10
115.331
20
-146.15
11
115.236
21
-146.245
0
LINE
8
BLACK
6
CONTINUOUS
10
115.236
20
-146.245
11
115.045
21
-146.531
0
LINE
8
BLACK
6
CONTINUOUS
10
115.045
20
-146.531
11
114.95
21
-146.912
0
LINE
8
BLACK
6
CONTINUOUS
10
114.95
20
-146.912
11
114.95
21
-147.674
0
LINE
8
BLACK
6
CONTINUOUS
10
114.95
20
-147.674
11
115.045
21
-147.864
0
LINE
8
BLACK
6
CONTINUOUS
10
115.045
20
-147.864
11
115.14
21
-147.96
0
LINE
8
BLACK
6
CONTINUOUS
10
115.14
20
-147.96
11
115.331
21
-148.055
0
LINE
8
BLACK
6
CONTINUOUS
10
115.331
20
-148.055
11
115.712
21
-148.055
0
LINE
8
BLACK
6
CONTINUOUS
10
115.712
20
-148.055
11
115.902
21
-147.96
0
LINE
8
BLACK
6
CONTINUOUS
10
115.902
20
-147.96
11
115.998
21
-147.864
0
LINE
8
BLACK
6
CONTINUOUS
10
115.998
20
-147.864
11
116.093
21
-147.674
0
LINE
8
BLACK
6
CONTINUOUS
10
116.093
20
-147.674
11
116.093
21
-147.198
0
LINE
8
BLACK
6
CONTINUOUS
10
116.093
20
-147.198
11
115.998
21
-147.007
0
LINE
8
BLACK
6
CONTINUOUS
10
115.998
20
-147.007
11
115.902
21
-146.912
0
LINE
8
BLACK
6
CONTINUOUS
10
115.902
20
-146.912
11
115.712
21
-146.817
0
LINE
8
BLACK
6
CONTINUOUS
10
115.712
20
-146.817
11
115.331
21
-146.817
0
LINE
8
BLACK
6
CONTINUOUS
10
115.331
20
-146.817
11
115.14
21
-146.912
0
LINE
8
BLACK
6
CONTINUOUS
10
115.14
20
-146.912
11
115.045
21
-147.007
0
LINE
8
BLACK
6
CONTINUOUS
10
115.045
20
-147.007
11
114.95
21
-147.198
0
LINE
8
BLACK
6
CONTINUOUS
10
116.855
20
-146.055
11
116.855
21
-146.436
0
LINE
8
BLACK
6
CONTINUOUS
10
117.617
20
-146.055
11
117.617
21
-146.436
0
LINE
8
BLACK
6
CONTINUOUS
10
120.569
20
-148.817
11
120.474
21
-148.721
0
LINE
8
BLACK
6
CONTINUOUS
10
120.474
20
-148.721
11
120.283
21
-148.436
0
LINE
8
BLACK
6
CONTINUOUS
10
120.283
20
-148.436
11
120.188
21
-148.245
0
LINE
8
BLACK
6
CONTINUOUS
10
120.188
20
-148.245
11
120.093
21
-147.96
0
LINE
8
BLACK
6
CONTINUOUS
10
120.093
20
-147.96
11
119.998
21
-147.483
0
LINE
8
BLACK
6
CONTINUOUS
10
119.998
20
-147.483
11
119.998
21
-147.102
0
LINE
8
BLACK
6
CONTINUOUS
10
119.998
20
-147.102
11
120.093
21
-146.626
0
LINE
8
BLACK
6
CONTINUOUS
10
120.093
20
-146.626
11
120.188
21
-146.34
0
LINE
8
BLACK
6
CONTINUOUS
10
120.188
20
-146.34
11
120.283
21
-146.15
0
LINE
8
BLACK
6
CONTINUOUS
10
120.283
20
-146.15
11
120.474
21
-145.864
0
LINE
8
BLACK
6
CONTINUOUS
10
120.474
20
-145.864
11
120.569
21
-145.769
0
LINE
8
BLACK
6
CONTINUOUS
10
121.236
20
-146.245
11
121.331
21
-146.15
0
LINE
8
BLACK
6
CONTINUOUS
10
121.331
20
-146.15
11
121.521
21
-146.055
0
LINE
8
BLACK
6
CONTINUOUS
10
121.521
20
-146.055
11
121.998
21
-146.055
0
LINE
8
BLACK
6
CONTINUOUS
10
121.998
20
-146.055
11
122.188
21
-146.15
0
LINE
8
BLACK
6
CONTINUOUS
10
122.188
20
-146.15
11
122.283
21
-146.245
0
LINE
8
BLACK
6
CONTINUOUS
10
122.283
20
-146.245
11
122.379
21
-146.436
0
LINE
8
BLACK
6
CONTINUOUS
10
122.379
20
-146.436
11
122.379
21
-146.626
0
LINE
8
BLACK
6
CONTINUOUS
10
122.379
20
-146.626
11
122.283
21
-146.912
0
LINE
8
BLACK
6
CONTINUOUS
10
122.283
20
-146.912
11
121.14
21
-148.055
0
LINE
8
BLACK
6
CONTINUOUS
10
121.14
20
-148.055
11
122.379
21
-148.055
0
LINE
8
BLACK
6
CONTINUOUS
10
124.76
20
-148.055
11
124.76
21
-146.055
0
LINE
8
BLACK
6
CONTINUOUS
10
125.617
20
-148.055
11
125.617
21
-147.007
0
LINE
8
BLACK
6
CONTINUOUS
10
125.617
20
-147.007
11
125.521
21
-146.817
0
LINE
8
BLACK
6
CONTINUOUS
10
125.521
20
-146.817
11
125.331
21
-146.721
0
LINE
8
BLACK
6
CONTINUOUS
10
125.331
20
-146.721
11
125.045
21
-146.721
0
LINE
8
BLACK
6
CONTINUOUS
10
125.045
20
-146.721
11
124.855
21
-146.817
0
LINE
8
BLACK
6
CONTINUOUS
10
124.855
20
-146.817
11
124.76
21
-146.912
0
LINE
8
BLACK
6
CONTINUOUS
10
126.855
20
-148.055
11
126.664
21
-147.96
0
LINE
8
BLACK
6
CONTINUOUS
10
126.664
20
-147.96
11
126.569
21
-147.864
0
LINE
8
BLACK
6
CONTINUOUS
10
126.569
20
-147.864
11
126.474
21
-147.674
0
LINE
8
BLACK
6
CONTINUOUS
10
126.474
20
-147.674
11
126.474
21
-147.102
0
LINE
8
BLACK
6
CONTINUOUS
10
126.474
20
-147.102
11
126.569
21
-146.912
0
LINE
8
BLACK
6
CONTINUOUS
10
126.569
20
-146.912
11
126.664
21
-146.817
0
LINE
8
BLACK
6
CONTINUOUS
10
126.664
20
-146.817
11
126.855
21
-146.721
0
LINE
8
BLACK
6
CONTINUOUS
10
126.855
20
-146.721
11
127.14
21
-146.721
0
LINE
8
BLACK
6
CONTINUOUS
10
127.14
20
-146.721
11
127.331
21
-146.817
0
LINE
8
BLACK
6
CONTINUOUS
10
127.331
20
-146.817
11
127.426
21
-146.912
0
LINE
8
BLACK
6
CONTINUOUS
10
127.426
20
-146.912
11
127.521
21
-147.102
0
LINE
8
BLACK
6
CONTINUOUS
10
127.521
20
-147.102
11
127.521
21
-147.674
0
LINE
8
BLACK
6
CONTINUOUS
10
127.521
20
-147.674
11
127.426
21
-147.864
0
LINE
8
BLACK
6
CONTINUOUS
10
127.426
20
-147.864
11
127.331
21
-147.96
0
LINE
8
BLACK
6
CONTINUOUS
10
127.331
20
-147.96
11
127.14
21
-148.055
0
LINE
8
BLACK
6
CONTINUOUS
10
127.14
20
-148.055
11
126.855
21
-148.055
0
LINE
8
BLACK
6
CONTINUOUS
10
128.664
20
-148.055
11
128.474
21
-147.96
0
LINE
8
BLACK
6
CONTINUOUS
10
128.474
20
-147.96
11
128.379
21
-147.769
0
LINE
8
BLACK
6
CONTINUOUS
10
128.379
20
-147.769
11
128.379
21
-146.055
0
LINE
8
BLACK
6
CONTINUOUS
10
130.188
20
-147.96
11
129.998
21
-148.055
0
LINE
8
BLACK
6
CONTINUOUS
10
129.998
20
-148.055
11
129.617
21
-148.055
0
LINE
8
BLACK
6
CONTINUOUS
10
129.617
20
-148.055
11
129.426
21
-147.96
0
LINE
8
BLACK
6
CONTINUOUS
10
129.426
20
-147.96
11
129.331
21
-147.769
0
LINE
8
BLACK
6
CONTINUOUS
10
129.331
20
-147.769
11
129.331
21
-147.007
0
LINE
8
BLACK
6
CONTINUOUS
10
129.331
20
-147.007
11
129.426
21
-146.817
0
LINE
8
BLACK
6
CONTINUOUS
10
129.426
20
-146.817
11
129.617
21
-146.721
0
LINE
8
BLACK
6
CONTINUOUS
10
129.617
20
-146.721
11
129.998
21
-146.721
0
LINE
8
BLACK
6
CONTINUOUS
10
129.998
20
-146.721
11
130.188
21
-146.817
0
LINE
8
BLACK
6
CONTINUOUS
10
130.188
20
-146.817
11
130.283
21
-147.007
0
LINE
8
BLACK
6
CONTINUOUS
10
130.283
20
-147.007
11
130.283
21
-147.198
0
LINE
8
BLACK
6
CONTINUOUS
10
130.283
20
-147.198
11
129.331
21
-147.388
0
LINE
8
BLACK
6
CONTINUOUS
10
131.045
20
-147.96
11
131.236
21
-148.055
0
LINE
8
BLACK
6
CONTINUOUS
10
131.236
20
-148.055
11
131.617
21
-148.055
0
LINE
8
BLACK
6
CONTINUOUS
10
131.617
20
-148.055
11
131.807
21
-147.96
0
LINE
8
BLACK
6
CONTINUOUS
10
131.807
20
-147.96
11
131.902
21
-147.769
0
LINE
8
BLACK
6
CONTINUOUS
10
131.902
20
-147.769
11
131.902
21
-147.674
0
LINE
8
BLACK
6
CONTINUOUS
10
131.902
20
-147.674
11
131.807
21
-147.483
0
LINE
8
BLACK
6
CONTINUOUS
10
131.807
20
-147.483
11
131.617
21
-147.388
0
LINE
8
BLACK
6
CONTINUOUS
10
131.617
20
-147.388
11
131.331
21
-147.388
0
LINE
8
BLACK
6
CONTINUOUS
10
131.331
20
-147.388
11
131.14
21
-147.293
0
LINE
8
BLACK
6
CONTINUOUS
10
131.14
20
-147.293
11
131.045
21
-147.102
0
LINE
8
BLACK
6
CONTINUOUS
10
131.045
20
-147.102
11
131.045
21
-147.007
0
LINE
8
BLACK
6
CONTINUOUS
10
131.045
20
-147.007
11
131.14
21
-146.817
0
LINE
8
BLACK
6
CONTINUOUS
10
131.14
20
-146.817
11
131.331
21
-146.721
0
LINE
8
BLACK
6
CONTINUOUS
10
131.331
20
-146.721
11
131.617
21
-146.721
0
LINE
8
BLACK
6
CONTINUOUS
10
131.617
20
-146.721
11
131.807
21
-146.817
0
LINE
8
BLACK
6
CONTINUOUS
10
132.569
20
-148.817
11
132.664
21
-148.721
0
LINE
8
BLACK
6
CONTINUOUS
10
132.664
20
-148.721
11
132.855
21
-148.436
0
LINE
8
BLACK
6
CONTINUOUS
10
132.855
20
-148.436
11
132.95
21
-148.245
0
LINE
8
BLACK
6
CONTINUOUS
10
132.95
20
-148.245
11
133.045
21
-147.96
0
LINE
8
BLACK
6
CONTINUOUS
10
133.045
20
-147.96
11
133.14
21
-147.483
0
LINE
8
BLACK
6
CONTINUOUS
10
133.14
20
-147.483
11
133.14
21
-147.102
0
LINE
8
BLACK
6
CONTINUOUS
10
133.14
20
-147.102
11
133.045
21
-146.626
0
LINE
8
BLACK
6
CONTINUOUS
10
133.045
20
-146.626
11
132.95
21
-146.34
0
LINE
8
BLACK
6
CONTINUOUS
10
132.95
20
-146.34
11
132.855
21
-146.15
0
LINE
8
BLACK
6
CONTINUOUS
10
132.855
20
-146.15
11
132.664
21
-145.864
0
LINE
8
BLACK
6
CONTINUOUS
10
132.664
20
-145.864
11
132.569
21
-145.769
0
LINE
8
BLACK
6
CONTINUOUS
10
136.188
20
-148.817
11
136.093
21
-148.721
0
LINE
8
BLACK
6
CONTINUOUS
10
136.093
20
-148.721
11
135.902
21
-148.436
0
LINE
8
BLACK
6
CONTINUOUS
10
135.902
20
-148.436
11
135.807
21
-148.245
0
LINE
8
BLACK
6
CONTINUOUS
10
135.807
20
-148.245
11
135.712
21
-147.96
0
LINE
8
BLACK
6
CONTINUOUS
10
135.712
20
-147.96
11
135.617
21
-147.483
0
LINE
8
BLACK
6
CONTINUOUS
10
135.617
20
-147.483
11
135.617
21
-147.102
0
LINE
8
BLACK
6
CONTINUOUS
10
135.617
20
-147.102
11
135.712
21
-146.626
0
LINE
8
BLACK
6
CONTINUOUS
10
135.712
20
-146.626
11
135.807
21
-146.34
0
LINE
8
BLACK
6
CONTINUOUS
10
135.807
20
-146.34
11
135.902
21
-146.15
0
LINE
8
BLACK
6
CONTINUOUS
10
135.902
20
-146.15
11
136.093
21
-145.864
0
LINE
8
BLACK
6
CONTINUOUS
10
136.093
20
-145.864
11
136.188
21
-145.769
0
LINE
8
BLACK
6
CONTINUOUS
10
136.95
20
-146.721
11
136.95
21
-148.055
0
LINE
8
BLACK
6
CONTINUOUS
10
136.95
20
-146.912
11
137.045
21
-146.817
0
LINE
8
BLACK
6
CONTINUOUS
10
137.045
20
-146.817
11
137.236
21
-146.721
0
LINE
8
BLACK
6
CONTINUOUS
10
137.236
20
-146.721
11
137.521
21
-146.721
0
LINE
8
BLACK
6
CONTINUOUS
10
137.521
20
-146.721
11
137.712
21
-146.817
0
LINE
8
BLACK
6
CONTINUOUS
10
137.712
20
-146.817
11
137.807
21
-147.007
0
LINE
8
BLACK
6
CONTINUOUS
10
137.807
20
-147.007
11
137.807
21
-148.055
0
LINE
8
BLACK
6
CONTINUOUS
10
139.045
20
-148.055
11
138.855
21
-147.96
0
LINE
8
BLACK
6
CONTINUOUS
10
138.855
20
-147.96
11
138.76
21
-147.864
0
LINE
8
BLACK
6
CONTINUOUS
10
138.76
20
-147.864
11
138.664
21
-147.674
0
LINE
8
BLACK
6
CONTINUOUS
10
138.664
20
-147.674
11
138.664
21
-147.102
0
LINE
8
BLACK
6
CONTINUOUS
10
138.664
20
-147.102
11
138.76
21
-146.912
0
LINE
8
BLACK
6
CONTINUOUS
10
138.76
20
-146.912
11
138.855
21
-146.817
0
LINE
8
BLACK
6
CONTINUOUS
10
138.855
20
-146.817
11
139.045
21
-146.721
0
LINE
8
BLACK
6
CONTINUOUS
10
139.045
20
-146.721
11
139.331
21
-146.721
0
LINE
8
BLACK
6
CONTINUOUS
10
139.331
20
-146.721
11
139.521
21
-146.817
0
LINE
8
BLACK
6
CONTINUOUS
10
139.521
20
-146.817
11
139.617
21
-146.912
0
LINE
8
BLACK
6
CONTINUOUS
10
139.617
20
-146.912
11
139.712
21
-147.102
0
LINE
8
BLACK
6
CONTINUOUS
10
139.712
20
-147.102
11
139.712
21
-147.674
0
LINE
8
BLACK
6
CONTINUOUS
10
139.712
20
-147.674
11
139.617
21
-147.864
0
LINE
8
BLACK
6
CONTINUOUS
10
139.617
20
-147.864
11
139.521
21
-147.96
0
LINE
8
BLACK
6
CONTINUOUS
10
139.521
20
-147.96
11
139.331
21
-148.055
0
LINE
8
BLACK
6
CONTINUOUS
10
139.331
20
-148.055
11
139.045
21
-148.055
0
LINE
8
BLACK
6
CONTINUOUS
10
140.283
20
-146.721
11
141.045
21
-146.721
0
LINE
8
BLACK
6
CONTINUOUS
10
140.569
20
-146.055
11
140.569
21
-147.769
0
LINE
8
BLACK
6
CONTINUOUS
10
140.569
20
-147.769
11
140.664
21
-147.96
0
LINE
8
BLACK
6
CONTINUOUS
10
140.664
20
-147.96
11
140.855
21
-148.055
0
LINE
8
BLACK
6
CONTINUOUS
10
140.855
20
-148.055
11
141.045
21
-148.055
0
LINE
8
BLACK
6
CONTINUOUS
10
143.236
20
-146.721
11
143.236
21
-148.721
0
LINE
8
BLACK
6
CONTINUOUS
10
143.236
20
-146.817
11
143.426
21
-146.721
0
LINE
8
BLACK
6
CONTINUOUS
10
143.426
20
-146.721
11
143.807
21
-146.721
0
LINE
8
BLACK
6
CONTINUOUS
10
143.807
20
-146.721
11
143.998
21
-146.817
0
LINE
8
BLACK
6
CONTINUOUS
10
143.998
20
-146.817
11
144.093
21
-146.912
0
LINE
8
BLACK
6
CONTINUOUS
10
144.093
20
-146.912
11
144.188
21
-147.102
0
LINE
8
BLACK
6
CONTINUOUS
10
144.188
20
-147.102
11
144.188
21
-147.674
0
LINE
8
BLACK
6
CONTINUOUS
10
144.188
20
-147.674
11
144.093
21
-147.864
0
LINE
8
BLACK
6
CONTINUOUS
10
144.093
20
-147.864
11
143.998
21
-147.96
0
LINE
8
BLACK
6
CONTINUOUS
10
143.998
20
-147.96
11
143.807
21
-148.055
0
LINE
8
BLACK
6
CONTINUOUS
10
143.807
20
-148.055
11
143.426
21
-148.055
0
LINE
8
BLACK
6
CONTINUOUS
10
143.426
20
-148.055
11
143.236
21
-147.96
0
LINE
8
BLACK
6
CONTINUOUS
10
145.331
20
-148.055
11
145.14
21
-147.96
0
LINE
8
BLACK
6
CONTINUOUS
10
145.14
20
-147.96
11
145.045
21
-147.769
0
LINE
8
BLACK
6
CONTINUOUS
10
145.045
20
-147.769
11
145.045
21
-146.055
0
LINE
8
BLACK
6
CONTINUOUS
10
146.95
20
-148.055
11
146.95
21
-147.007
0
LINE
8
BLACK
6
CONTINUOUS
10
146.95
20
-147.007
11
146.855
21
-146.817
0
LINE
8
BLACK
6
CONTINUOUS
10
146.855
20
-146.817
11
146.664
21
-146.721
0
LINE
8
BLACK
6
CONTINUOUS
10
146.664
20
-146.721
11
146.283
21
-146.721
0
LINE
8
BLACK
6
CONTINUOUS
10
146.283
20
-146.721
11
146.093
21
-146.817
0
LINE
8
BLACK
6
CONTINUOUS
10
146.95
20
-147.96
11
146.76
21
-148.055
0
LINE
8
BLACK
6
CONTINUOUS
10
146.76
20
-148.055
11
146.283
21
-148.055
0
LINE
8
BLACK
6
CONTINUOUS
10
146.283
20
-148.055
11
146.093
21
-147.96
0
LINE
8
BLACK
6
CONTINUOUS
10
146.093
20
-147.96
11
145.998
21
-147.769
0
LINE
8
BLACK
6
CONTINUOUS
10
145.998
20
-147.769
11
145.998
21
-147.579
0
LINE
8
BLACK
6
CONTINUOUS
10
145.998
20
-147.579
11
146.093
21
-147.388
0
LINE
8
BLACK
6
CONTINUOUS
10
146.093
20
-147.388
11
146.283
21
-147.293
0
LINE
8
BLACK
6
CONTINUOUS
10
146.283
20
-147.293
11
146.76
21
-147.293
0
LINE
8
BLACK
6
CONTINUOUS
10
146.76
20
-147.293
11
146.95
21
-147.198
0
LINE
8
BLACK
6
CONTINUOUS
10
147.617
20
-146.721
11
148.379
21
-146.721
0
LINE
8
BLACK
6
CONTINUOUS
10
147.902
20
-146.055
11
147.902
21
-147.769
0
LINE
8
BLACK
6
CONTINUOUS
10
147.902
20
-147.769
11
147.998
21
-147.96
0
LINE
8
BLACK
6
CONTINUOUS
10
147.998
20
-147.96
11
148.188
21
-148.055
0
LINE
8
BLACK
6
CONTINUOUS
10
148.188
20
-148.055
11
148.379
21
-148.055
0
LINE
8
BLACK
6
CONTINUOUS
10
149.807
20
-147.96
11
149.617
21
-148.055
0
LINE
8
BLACK
6
CONTINUOUS
10
149.617
20
-148.055
11
149.236
21
-148.055
0
LINE
8
BLACK
6
CONTINUOUS
10
149.236
20
-148.055
11
149.045
21
-147.96
0
LINE
8
BLACK
6
CONTINUOUS
10
149.045
20
-147.96
11
148.95
21
-147.769
0
LINE
8
BLACK
6
CONTINUOUS
10
148.95
20
-147.769
11
148.95
21
-147.007
0
LINE
8
BLACK
6
CONTINUOUS
10
148.95
20
-147.007
11
149.045
21
-146.817
0
LINE
8
BLACK
6
CONTINUOUS
10
149.045
20
-146.817
11
149.236
21
-146.721
0
LINE
8
BLACK
6
CONTINUOUS
10
149.236
20
-146.721
11
149.617
21
-146.721
0
LINE
8
BLACK
6
CONTINUOUS
10
149.617
20
-146.721
11
149.807
21
-146.817
0
LINE
8
BLACK
6
CONTINUOUS
10
149.807
20
-146.817
11
149.902
21
-147.007
0
LINE
8
BLACK
6
CONTINUOUS
10
149.902
20
-147.007
11
149.902
21
-147.198
0
LINE
8
BLACK
6
CONTINUOUS
10
149.902
20
-147.198
11
148.95
21
-147.388
0
LINE
8
BLACK
6
CONTINUOUS
10
151.617
20
-148.055
11
151.617
21
-146.055
0
LINE
8
BLACK
6
CONTINUOUS
10
151.617
20
-147.96
11
151.426
21
-148.055
0
LINE
8
BLACK
6
CONTINUOUS
10
151.426
20
-148.055
11
151.045
21
-148.055
0
LINE
8
BLACK
6
CONTINUOUS
10
151.045
20
-148.055
11
150.855
21
-147.96
0
LINE
8
BLACK
6
CONTINUOUS
10
150.855
20
-147.96
11
150.76
21
-147.864
0
LINE
8
BLACK
6
CONTINUOUS
10
150.76
20
-147.864
11
150.664
21
-147.674
0
LINE
8
BLACK
6
CONTINUOUS
10
150.664
20
-147.674
11
150.664
21
-147.102
0
LINE
8
BLACK
6
CONTINUOUS
10
150.664
20
-147.102
11
150.76
21
-146.912
0
LINE
8
BLACK
6
CONTINUOUS
10
150.76
20
-146.912
11
150.855
21
-146.817
0
LINE
8
BLACK
6
CONTINUOUS
10
150.855
20
-146.817
11
151.045
21
-146.721
0
LINE
8
BLACK
6
CONTINUOUS
10
151.045
20
-146.721
11
151.426
21
-146.721
0
LINE
8
BLACK
6
CONTINUOUS
10
151.426
20
-146.721
11
151.617
21
-146.817
0
LINE
8
BLACK
6
CONTINUOUS
10
152.379
20
-148.817
11
152.474
21
-148.721
0
LINE
8
BLACK
6
CONTINUOUS
10
152.474
20
-148.721
11
152.664
21
-148.436
0
LINE
8
BLACK
6
CONTINUOUS
10
152.664
20
-148.436
11
152.76
21
-148.245
0
LINE
8
BLACK
6
CONTINUOUS
10
152.76
20
-148.245
11
152.855
21
-147.96
0
LINE
8
BLACK
6
CONTINUOUS
10
152.855
20
-147.96
11
152.95
21
-147.483
0
LINE
8
BLACK
6
CONTINUOUS
10
152.95
20
-147.483
11
152.95
21
-147.102
0
LINE
8
BLACK
6
CONTINUOUS
10
152.95
20
-147.102
11
152.855
21
-146.626
0
LINE
8
BLACK
6
CONTINUOUS
10
152.855
20
-146.626
11
152.76
21
-146.34
0
LINE
8
BLACK
6
CONTINUOUS
10
152.76
20
-146.34
11
152.664
21
-146.15
0
LINE
8
BLACK
6
CONTINUOUS
10
152.664
20
-146.15
11
152.474
21
-145.864
0
LINE
8
BLACK
6
CONTINUOUS
10
152.474
20
-145.864
11
152.379
21
-145.769
  0
ENDSEC
  0
EOF
