  0
SECTION
  2
HEADER
  9
$ANGBASE
  50
0.0
  9
$ANGDIR
  70
1
  9
$MEASUREMENT
  70
1
  0
ENDSEC
  0
SECTION
  2
TABLES
  0
TABLE
  2
LTYPE
  70
4
  0
LTYPE
  5
40F
  2
CONTINUOUS
  70
0
  3
Solid line
  72
65
  73
0
  40
0.0
  0
LTYPE
  5
410
  2
DASHDOT
 70
0
  3
Dash Dot ____ _ ____ _
 72
65
 73
4
 40
2.0
 49
1.25
 49
-0.25
 49
0.25
 49
-0.25
  0
LTYPE
  5
411
  2
DASHED
 70
0
  3
Dashed __ __ __ __ __
 72
65
 73
2
 40
0.75
 49
0.5
 49
-0.25
  0
LTYPE
  5
43B
  2
DOTTED
 70
0
  3
Dotted .  .  .  .
 72
65
 73
2
 40
0.2
 49
0.0
 49
-0.2
  0
ENDTAB
  0
TABLE
  2
STYLE
  70
4
  0
STYLE
  2
KICAD
  70
0
  40
0
  41
1
  42
1
  50
0
  71
0
  3
isocp.shx
  0
STYLE
  2
KICADB
  70
0
  40
0
  41
1
  42
1
  50
0
  71
0
  3
isocp.shx
  0
STYLE
  2
KICADI
  70
0
  40
0
  41
1
  42
1
  50
15
  71
0
  3
isocp.shx
  0
STYLE
  2
KICADBI
  70
0
  40
0
  41
1
  42
1
  50
15
  71
0
  3
isocp.shx
  0
ENDTAB
  0
TABLE
  2
LAYER
  70
1
  0
LAYER
  2
BLACK
  70
0
  62
7
  6
CONTINUOUS
  0
ENDTAB
  0
ENDSEC
  0
SECTION
  2
ENTITIES
0
LINE
8
BLACK
6
CONTINUOUS
10
142.5
20
-84
11
109.7
21
-84
0
LINE
8
BLACK
6
CONTINUOUS
10
85
20
-84
11
85
21
-140.6
0
ARC
8
BLACK
10
106.35
20
-87.183
40
3.35204
50
-178
51
-2.00001
0
LINE
8
BLACK
6
CONTINUOUS
10
109.7
20
-84
11
109.7
21
-87.3
0
LINE
8
BLACK
6
CONTINUOUS
10
109.7
20
-140.6
11
142.5
21
-140.6
0
ARC
8
BLACK
10
106.35
20
-137.317
40
3.35204
50
2.00001
51
178
0
LINE
8
BLACK
6
CONTINUOUS
10
103
20
-140.6
11
103
21
-137.2
0
LINE
8
BLACK
6
CONTINUOUS
10
142.5
20
-140.6
11
142.5
21
-84
0
LINE
8
BLACK
6
CONTINUOUS
10
103
20
-87.3
11
103
21
-84
0
LINE
8
BLACK
6
CONTINUOUS
10
109.7
20
-137.2
11
109.7
21
-140.6
0
LINE
8
BLACK
6
CONTINUOUS
10
103
20
-84
11
85
21
-84
0
LINE
8
BLACK
6
CONTINUOUS
10
85
20
-140.6
11
103
21
-140.6
0
LINE
8
BLACK
6
CONTINUOUS
10
88.7
20
-123.625
11
89.1
21
-124.025
0
LINE
8
BLACK
6
CONTINUOUS
10
89.1
20
-123.625
11
88.7
21
-124.025
0
LINE
8
BLACK
6
CONTINUOUS
10
89.335
20
-105.21
11
89.735
21
-105.61
0
LINE
8
BLACK
6
CONTINUOUS
10
89.735
20
-105.21
11
89.335
21
-105.61
0
LINE
8
BLACK
6
CONTINUOUS
10
89.335
20
-110.29
11
89.735
21
-110.69
0
LINE
8
BLACK
6
CONTINUOUS
10
89.735
20
-110.29
11
89.335
21
-110.69
0
LINE
8
BLACK
6
CONTINUOUS
10
89.335
20
-114.1
11
89.735
21
-114.5
0
LINE
8
BLACK
6
CONTINUOUS
10
89.735
20
-114.1
11
89.335
21
-114.5
0
LINE
8
BLACK
6
CONTINUOUS
10
89.97
20
-112.195
11
90.37
21
-112.595
0
LINE
8
BLACK
6
CONTINUOUS
10
90.37
20
-112.195
11
89.97
21
-112.595
0
LINE
8
BLACK
6
CONTINUOUS
10
90.605
20
-100.13
11
91.005
21
-100.53
0
LINE
8
BLACK
6
CONTINUOUS
10
91.005
20
-100.13
11
90.605
21
-100.53
0
LINE
8
BLACK
6
CONTINUOUS
10
92.51
20
-123.625
11
92.91
21
-124.025
0
LINE
8
BLACK
6
CONTINUOUS
10
92.91
20
-123.625
11
92.51
21
-124.025
0
LINE
8
BLACK
6
CONTINUOUS
10
93.78
20
-95.0105
11
94.18
21
-95.4105
0
LINE
8
BLACK
6
CONTINUOUS
10
94.18
20
-95.0105
11
93.78
21
-95.4105
0
LINE
8
BLACK
6
CONTINUOUS
10
93.78
20
-106.48
11
94.18
21
-106.88
0
LINE
8
BLACK
6
CONTINUOUS
10
94.18
20
-106.48
11
93.78
21
-106.88
0
LINE
8
BLACK
6
CONTINUOUS
10
93.78
20
-110.925
11
94.18
21
-111.325
0
LINE
8
BLACK
6
CONTINUOUS
10
94.18
20
-110.925
11
93.78
21
-111.325
0
LINE
8
BLACK
6
CONTINUOUS
10
95.685
20
-114.1
11
96.085
21
-114.5
0
LINE
8
BLACK
6
CONTINUOUS
10
96.085
20
-114.1
11
95.685
21
-114.5
0
LINE
8
BLACK
6
CONTINUOUS
10
97.59
20
-120.45
11
97.99
21
-120.85
0
LINE
8
BLACK
6
CONTINUOUS
10
97.99
20
-120.45
11
97.59
21
-120.85
0
LINE
8
BLACK
6
CONTINUOUS
10
100.13
20
-103.305
11
100.53
21
-103.705
0
LINE
8
BLACK
6
CONTINUOUS
10
100.53
20
-103.305
11
100.13
21
-103.705
0
LINE
8
BLACK
6
CONTINUOUS
10
102.67
20
-96.955
11
103.07
21
-97.355
0
LINE
8
BLACK
6
CONTINUOUS
10
103.07
20
-96.955
11
102.67
21
-97.355
0
LINE
8
BLACK
6
CONTINUOUS
10
103.94
20
-92.51
11
104.34
21
-92.91
0
LINE
8
BLACK
6
CONTINUOUS
10
104.34
20
-92.51
11
103.94
21
-92.91
0
LINE
8
BLACK
6
CONTINUOUS
10
103.94
20
-119.815
11
104.34
21
-120.215
0
LINE
8
BLACK
6
CONTINUOUS
10
104.34
20
-119.815
11
103.94
21
-120.215
0
LINE
8
BLACK
6
CONTINUOUS
10
104.575
20
-105.845
11
104.975
21
-106.245
0
LINE
8
BLACK
6
CONTINUOUS
10
104.975
20
-105.845
11
104.575
21
-106.245
0
LINE
8
BLACK
6
CONTINUOUS
10
104.575
20
-110.29
11
104.975
21
-110.69
0
LINE
8
BLACK
6
CONTINUOUS
10
104.975
20
-110.29
11
104.575
21
-110.69
0
LINE
8
BLACK
6
CONTINUOUS
10
104.575
20
-115.37
11
104.975
21
-115.77
0
LINE
8
BLACK
6
CONTINUOUS
10
104.975
20
-115.37
11
104.575
21
-115.77
0
LINE
8
BLACK
6
CONTINUOUS
10
104.841
20
-118.914
11
105.241
21
-119.314
0
LINE
8
BLACK
6
CONTINUOUS
10
105.241
20
-118.914
11
104.841
21
-119.314
0
LINE
8
BLACK
6
CONTINUOUS
10
105.21
20
-92.5995
11
105.61
21
-92.9995
0
LINE
8
BLACK
6
CONTINUOUS
10
105.61
20
-92.5995
11
105.21
21
-92.9995
0
LINE
8
BLACK
6
CONTINUOUS
10
108.385
20
-117.275
11
108.785
21
-117.675
0
LINE
8
BLACK
6
CONTINUOUS
10
108.785
20
-117.275
11
108.385
21
-117.675
0
LINE
8
BLACK
6
CONTINUOUS
10
109.655
20
-93.78
11
110.055
21
-94.18
0
LINE
8
BLACK
6
CONTINUOUS
10
110.055
20
-93.78
11
109.655
21
-94.18
0
LINE
8
BLACK
6
CONTINUOUS
10
111.042
20
-107.232
11
111.442
21
-107.632
0
LINE
8
BLACK
6
CONTINUOUS
10
111.442
20
-107.232
11
111.042
21
-107.632
0
LINE
8
BLACK
6
CONTINUOUS
10
117.148
20
-124.768
11
117.548
21
-125.168
0
LINE
8
BLACK
6
CONTINUOUS
10
117.548
20
-124.768
11
117.148
21
-125.168
0
LINE
8
BLACK
6
CONTINUOUS
10
117.148
20
-126.292
11
117.548
21
-126.692
0
LINE
8
BLACK
6
CONTINUOUS
10
117.548
20
-126.292
11
117.148
21
-126.692
0
LINE
8
BLACK
6
CONTINUOUS
10
117.148
20
-127.816
11
117.548
21
-128.216
0
LINE
8
BLACK
6
CONTINUOUS
10
117.548
20
-127.816
11
117.148
21
-128.216
0
LINE
8
BLACK
6
CONTINUOUS
10
117.148
20
-129.34
11
117.548
21
-129.74
0
LINE
8
BLACK
6
CONTINUOUS
10
117.548
20
-129.34
11
117.148
21
-129.74
0
LINE
8
BLACK
6
CONTINUOUS
10
117.148
20
-130.864
11
117.548
21
-131.264
0
LINE
8
BLACK
6
CONTINUOUS
10
117.548
20
-130.864
11
117.148
21
-131.264
0
LINE
8
BLACK
6
CONTINUOUS
10
117.275
20
-90.605
11
117.675
21
-91.005
0
LINE
8
BLACK
6
CONTINUOUS
10
117.675
20
-90.605
11
117.275
21
-91.005
0
LINE
8
BLACK
6
CONTINUOUS
10
117.275
20
-91.875
11
117.675
21
-92.275
0
LINE
8
BLACK
6
CONTINUOUS
10
117.675
20
-91.875
11
117.275
21
-92.275
0
LINE
8
BLACK
6
CONTINUOUS
10
117.275
20
-97.7545
11
117.675
21
-98.1545
0
LINE
8
BLACK
6
CONTINUOUS
10
117.675
20
-97.7545
11
117.275
21
-98.1545
0
LINE
8
BLACK
6
CONTINUOUS
10
118.418
20
-131.88
11
118.818
21
-132.28
0
LINE
8
BLACK
6
CONTINUOUS
10
118.818
20
-131.88
11
118.418
21
-132.28
0
LINE
8
BLACK
6
CONTINUOUS
10
118.672
20
-124.768
11
119.072
21
-125.168
0
LINE
8
BLACK
6
CONTINUOUS
10
119.072
20
-124.768
11
118.672
21
-125.168
0
LINE
8
BLACK
6
CONTINUOUS
10
119.18
20
-132.896
11
119.58
21
-133.296
0
LINE
8
BLACK
6
CONTINUOUS
10
119.58
20
-132.896
11
119.18
21
-133.296
0
LINE
8
BLACK
6
CONTINUOUS
10
120.45
20
-86.795
11
120.85
21
-87.195
0
LINE
8
BLACK
6
CONTINUOUS
10
120.85
20
-86.795
11
120.45
21
-87.195
0
LINE
8
BLACK
6
CONTINUOUS
10
120.45
20
-91.24
11
120.85
21
-91.64
0
LINE
8
BLACK
6
CONTINUOUS
10
120.85
20
-91.24
11
120.45
21
-91.64
0
LINE
8
BLACK
6
CONTINUOUS
10
120.45
20
-114.735
11
120.85
21
-115.135
0
LINE
8
BLACK
6
CONTINUOUS
10
120.85
20
-114.735
11
120.45
21
-115.135
0
LINE
8
BLACK
6
CONTINUOUS
10
120.45
20
-124.768
11
120.85
21
-125.168
0
LINE
8
BLACK
6
CONTINUOUS
10
120.85
20
-124.768
11
120.45
21
-125.168
0
LINE
8
BLACK
6
CONTINUOUS
10
121.72
20
-132.896
11
122.12
21
-133.296
0
LINE
8
BLACK
6
CONTINUOUS
10
122.12
20
-132.896
11
121.72
21
-133.296
0
LINE
8
BLACK
6
CONTINUOUS
10
121.974
20
-124.768
11
122.374
21
-125.168
0
LINE
8
BLACK
6
CONTINUOUS
10
122.374
20
-124.768
11
121.974
21
-125.168
0
LINE
8
BLACK
6
CONTINUOUS
10
122.228
20
-127.308
11
122.628
21
-127.708
0
LINE
8
BLACK
6
CONTINUOUS
10
122.628
20
-127.308
11
122.228
21
-127.708
0
LINE
8
BLACK
6
CONTINUOUS
10
122.294
20
-107.176
11
122.694
21
-107.576
0
LINE
8
BLACK
6
CONTINUOUS
10
122.694
20
-107.176
11
122.294
21
-107.576
0
LINE
8
BLACK
6
CONTINUOUS
10
122.355
20
-117.275
11
122.755
21
-117.675
0
LINE
8
BLACK
6
CONTINUOUS
10
122.755
20
-117.275
11
122.355
21
-117.675
0
LINE
8
BLACK
6
CONTINUOUS
10
122.482
20
-120.704
11
122.882
21
-121.104
0
LINE
8
BLACK
6
CONTINUOUS
10
122.882
20
-120.704
11
122.482
21
-121.104
0
LINE
8
BLACK
6
CONTINUOUS
10
122.482
20
-121.72
11
122.882
21
-122.12
0
LINE
8
BLACK
6
CONTINUOUS
10
122.882
20
-121.72
11
122.482
21
-122.12
0
LINE
8
BLACK
6
CONTINUOUS
10
122.736
20
-128.832
11
123.136
21
-129.232
0
LINE
8
BLACK
6
CONTINUOUS
10
123.136
20
-128.832
11
122.736
21
-129.232
0
LINE
8
BLACK
6
CONTINUOUS
10
122.99
20
-130.356
11
123.39
21
-130.756
0
LINE
8
BLACK
6
CONTINUOUS
10
123.39
20
-130.356
11
122.99
21
-130.756
0
LINE
8
BLACK
6
CONTINUOUS
10
123.244
20
-124.768
11
123.644
21
-125.168
0
LINE
8
BLACK
6
CONTINUOUS
10
123.644
20
-124.768
11
123.244
21
-125.168
0
LINE
8
BLACK
6
CONTINUOUS
10
124.006
20
-127.054
11
124.406
21
-127.454
0
LINE
8
BLACK
6
CONTINUOUS
10
124.406
20
-127.054
11
124.006
21
-127.454
0
LINE
8
BLACK
6
CONTINUOUS
10
124.26
20
-130.61
11
124.66
21
-131.01
0
LINE
8
BLACK
6
CONTINUOUS
10
124.66
20
-130.61
11
124.26
21
-131.01
0
LINE
8
BLACK
6
CONTINUOUS
10
124.26
20
-132.896
11
124.66
21
-133.296
0
LINE
8
BLACK
6
CONTINUOUS
10
124.66
20
-132.896
11
124.26
21
-133.296
0
LINE
8
BLACK
6
CONTINUOUS
10
125.022
20
-120.704
11
125.422
21
-121.104
0
LINE
8
BLACK
6
CONTINUOUS
10
125.422
20
-120.704
11
125.022
21
-121.104
0
LINE
8
BLACK
6
CONTINUOUS
10
125.784
20
-121.974
11
126.184
21
-122.374
0
LINE
8
BLACK
6
CONTINUOUS
10
126.184
20
-121.974
11
125.784
21
-122.374
0
LINE
8
BLACK
6
CONTINUOUS
10
126.038
20
-123.752
11
126.438
21
-124.152
0
LINE
8
BLACK
6
CONTINUOUS
10
126.438
20
-123.752
11
126.038
21
-124.152
0
LINE
8
BLACK
6
CONTINUOUS
10
126.038
20
-130.61
11
126.438
21
-131.01
0
LINE
8
BLACK
6
CONTINUOUS
10
126.438
20
-130.61
11
126.038
21
-131.01
0
LINE
8
BLACK
6
CONTINUOUS
10
126.038
20
-132.896
11
126.438
21
-133.296
0
LINE
8
BLACK
6
CONTINUOUS
10
126.438
20
-132.896
11
126.038
21
-133.296
0
LINE
8
BLACK
6
CONTINUOUS
10
128.07
20
-130.61
11
128.47
21
-131.01
0
LINE
8
BLACK
6
CONTINUOUS
10
128.47
20
-130.61
11
128.07
21
-131.01
0
LINE
8
BLACK
6
CONTINUOUS
10
128.07
20
-132.896
11
128.47
21
-133.296
0
LINE
8
BLACK
6
CONTINUOUS
10
128.47
20
-132.896
11
128.07
21
-133.296
0
LINE
8
BLACK
6
CONTINUOUS
10
130.102
20
-130.61
11
130.502
21
-131.01
0
LINE
8
BLACK
6
CONTINUOUS
10
130.502
20
-130.61
11
130.102
21
-131.01
0
LINE
8
BLACK
6
CONTINUOUS
10
130.102
20
-132.896
11
130.502
21
-133.296
0
LINE
8
BLACK
6
CONTINUOUS
10
130.502
20
-132.896
11
130.102
21
-133.296
0
LINE
8
BLACK
6
CONTINUOUS
10
131.88
20
-130.61
11
132.28
21
-131.01
0
LINE
8
BLACK
6
CONTINUOUS
10
132.28
20
-130.61
11
131.88
21
-131.01
0
LINE
8
BLACK
6
CONTINUOUS
10
131.88
20
-132.896
11
132.28
21
-133.296
0
LINE
8
BLACK
6
CONTINUOUS
10
132.28
20
-132.896
11
131.88
21
-133.296
0
LINE
8
BLACK
6
CONTINUOUS
10
133.658
20
-130.61
11
134.058
21
-131.01
0
LINE
8
BLACK
6
CONTINUOUS
10
134.058
20
-130.61
11
133.658
21
-131.01
0
LINE
8
BLACK
6
CONTINUOUS
10
133.658
20
-132.896
11
134.058
21
-133.296
0
LINE
8
BLACK
6
CONTINUOUS
10
134.058
20
-132.896
11
133.658
21
-133.296
0
LINE
8
BLACK
6
CONTINUOUS
10
134.42
20
-92.9505
11
134.82
21
-93.3505
0
LINE
8
BLACK
6
CONTINUOUS
10
134.82
20
-92.9505
11
134.42
21
-93.3505
0
LINE
8
BLACK
6
CONTINUOUS
10
135.69
20
-103.94
11
136.09
21
-104.34
0
LINE
8
BLACK
6
CONTINUOUS
10
136.09
20
-103.94
11
135.69
21
-104.34
0
LINE
8
BLACK
6
CONTINUOUS
10
136.325
20
-96.955
11
136.725
21
-97.355
0
LINE
8
BLACK
6
CONTINUOUS
10
136.725
20
-96.955
11
136.325
21
-97.355
0
CIRCLE
8
BLACK
10
87.2375
20
-107.985
40
0.3
0
LINE
8
BLACK
6
CONTINUOUS
10
87.6375
20
-107.685
11
86.8375
21
-107.685
0
LINE
8
BLACK
6
CONTINUOUS
10
87.6375
20
-108.285
11
86.8375
21
-108.285
0
ARC
8
BLACK
10
86.8375
20
-107.985
40
0.3
50
450
51
630
0
ARC
8
BLACK
10
87.6375
20
-107.985
40
0.3
50
270
51
450
0
CIRCLE
8
BLACK
10
87.2375
20
-116.635
40
0.3
0
LINE
8
BLACK
6
CONTINUOUS
10
87.6375
20
-116.335
11
86.8375
21
-116.335
0
LINE
8
BLACK
6
CONTINUOUS
10
87.6375
20
-116.935
11
86.8375
21
-116.935
0
ARC
8
BLACK
10
86.8375
20
-116.635
40
0.3
50
450
51
630
0
ARC
8
BLACK
10
87.6375
20
-116.635
40
0.3
50
270
51
450
0
CIRCLE
8
BLACK
10
91.4175
20
-107.985
40
0.3
0
LINE
8
BLACK
6
CONTINUOUS
10
91.9675
20
-107.685
11
90.8675
21
-107.685
0
LINE
8
BLACK
6
CONTINUOUS
10
91.9675
20
-108.285
11
90.8675
21
-108.285
0
ARC
8
BLACK
10
90.8675
20
-107.985
40
0.3
50
450
51
630
0
ARC
8
BLACK
10
91.9675
20
-107.985
40
0.3
50
270
51
450
0
CIRCLE
8
BLACK
10
91.4175
20
-116.625
40
0.3
0
LINE
8
BLACK
6
CONTINUOUS
10
91.9675
20
-116.325
11
90.8675
21
-116.325
0
LINE
8
BLACK
6
CONTINUOUS
10
91.9675
20
-116.925
11
90.8675
21
-116.925
0
ARC
8
BLACK
10
90.8675
20
-116.625
40
0.3
50
450
51
630
0
ARC
8
BLACK
10
91.9675
20
-116.625
40
0.3
50
270
51
450
0
LINE
8
BLACK
6
CONTINUOUS
10
104.795
20
-101.05
11
104.795
21
-101.75
0
LINE
8
BLACK
6
CONTINUOUS
10
104.445
20
-101.4
11
105.145
21
-101.4
0
LINE
8
BLACK
6
CONTINUOUS
10
104.795
20
-123.05
11
104.795
21
-123.75
0
LINE
8
BLACK
6
CONTINUOUS
10
104.445
20
-123.4
11
105.145
21
-123.4
0
LINE
8
BLACK
6
CONTINUOUS
10
106.795
20
-101.05
11
106.795
21
-101.75
0
LINE
8
BLACK
6
CONTINUOUS
10
106.445
20
-101.4
11
107.145
21
-101.4
0
LINE
8
BLACK
6
CONTINUOUS
10
106.795
20
-123.05
11
106.795
21
-123.75
0
LINE
8
BLACK
6
CONTINUOUS
10
106.445
20
-123.4
11
107.145
21
-123.4
0
LINE
8
BLACK
6
CONTINUOUS
10
108.795
20
-101.05
11
108.795
21
-101.75
0
LINE
8
BLACK
6
CONTINUOUS
10
108.445
20
-101.4
11
109.145
21
-101.4
0
LINE
8
BLACK
6
CONTINUOUS
10
108.795
20
-123.05
11
108.795
21
-123.75
0
LINE
8
BLACK
6
CONTINUOUS
10
108.445
20
-123.4
11
109.145
21
-123.4
0
LINE
8
BLACK
6
CONTINUOUS
10
110.795
20
-101.05
11
110.795
21
-101.75
0
LINE
8
BLACK
6
CONTINUOUS
10
110.445
20
-101.4
11
111.145
21
-101.4
0
LINE
8
BLACK
6
CONTINUOUS
10
110.795
20
-123.05
11
110.795
21
-123.75
0
LINE
8
BLACK
6
CONTINUOUS
10
110.445
20
-123.4
11
111.145
21
-123.4
0
LINE
8
BLACK
6
CONTINUOUS
10
112.795
20
-101.05
11
112.795
21
-101.75
0
LINE
8
BLACK
6
CONTINUOUS
10
112.445
20
-101.4
11
113.145
21
-101.4
0
LINE
8
BLACK
6
CONTINUOUS
10
112.795
20
-123.05
11
112.795
21
-123.75
0
LINE
8
BLACK
6
CONTINUOUS
10
112.445
20
-123.4
11
113.145
21
-123.4
0
LINE
8
BLACK
6
CONTINUOUS
10
114.795
20
-101.05
11
114.795
21
-101.75
0
LINE
8
BLACK
6
CONTINUOUS
10
114.445
20
-101.4
11
115.145
21
-101.4
0
LINE
8
BLACK
6
CONTINUOUS
10
114.795
20
-123.05
11
114.795
21
-123.75
0
LINE
8
BLACK
6
CONTINUOUS
10
114.445
20
-123.4
11
115.145
21
-123.4
0
LINE
8
BLACK
6
CONTINUOUS
10
116.795
20
-101.05
11
116.795
21
-101.75
0
LINE
8
BLACK
6
CONTINUOUS
10
116.445
20
-101.4
11
117.145
21
-101.4
0
LINE
8
BLACK
6
CONTINUOUS
10
116.795
20
-123.05
11
116.795
21
-123.75
0
LINE
8
BLACK
6
CONTINUOUS
10
116.445
20
-123.4
11
117.145
21
-123.4
0
LINE
8
BLACK
6
CONTINUOUS
10
118.795
20
-101.05
11
118.795
21
-101.75
0
LINE
8
BLACK
6
CONTINUOUS
10
118.445
20
-101.4
11
119.145
21
-101.4
0
LINE
8
BLACK
6
CONTINUOUS
10
118.795
20
-123.05
11
118.795
21
-123.75
0
LINE
8
BLACK
6
CONTINUOUS
10
118.445
20
-123.4
11
119.145
21
-123.4
0
LINE
8
BLACK
6
CONTINUOUS
10
120.795
20
-101.05
11
120.795
21
-101.75
0
LINE
8
BLACK
6
CONTINUOUS
10
120.445
20
-101.4
11
121.145
21
-101.4
0
LINE
8
BLACK
6
CONTINUOUS
10
120.795
20
-123.05
11
120.795
21
-123.75
0
LINE
8
BLACK
6
CONTINUOUS
10
120.445
20
-123.4
11
121.145
21
-123.4
0
LINE
8
BLACK
6
CONTINUOUS
10
122.795
20
-101.05
11
122.795
21
-101.75
0
LINE
8
BLACK
6
CONTINUOUS
10
122.445
20
-101.4
11
123.145
21
-101.4
0
LINE
8
BLACK
6
CONTINUOUS
10
122.795
20
-123.05
11
122.795
21
-123.75
0
LINE
8
BLACK
6
CONTINUOUS
10
122.445
20
-123.4
11
123.145
21
-123.4
0
LINE
8
BLACK
6
CONTINUOUS
10
87.6432
20
-132.068
11
87.6432
21
-131.432
0
LINE
8
BLACK
6
CONTINUOUS
10
87.6432
20
-131.432
11
87.0068
21
-131.432
0
LINE
8
BLACK
6
CONTINUOUS
10
87.0068
20
-131.432
11
87.0068
21
-132.068
0
LINE
8
BLACK
6
CONTINUOUS
10
87.0068
20
-132.068
11
87.6432
21
-132.068
0
LINE
8
BLACK
6
CONTINUOUS
10
87.6432
20
-134.608
11
87.6432
21
-133.972
0
LINE
8
BLACK
6
CONTINUOUS
10
87.6432
20
-133.972
11
87.0068
21
-133.972
0
LINE
8
BLACK
6
CONTINUOUS
10
87.0068
20
-133.972
11
87.0068
21
-134.608
0
LINE
8
BLACK
6
CONTINUOUS
10
87.0068
20
-134.608
11
87.6432
21
-134.608
0
LINE
8
BLACK
6
CONTINUOUS
10
138.843
20
-106.053
11
138.843
21
-105.417
0
LINE
8
BLACK
6
CONTINUOUS
10
138.843
20
-105.417
11
138.207
21
-105.417
0
LINE
8
BLACK
6
CONTINUOUS
10
138.207
20
-105.417
11
138.207
21
-106.053
0
LINE
8
BLACK
6
CONTINUOUS
10
138.207
20
-106.053
11
138.843
21
-106.053
0
LINE
8
BLACK
6
CONTINUOUS
10
138.843
20
-108.593
11
138.843
21
-107.957
0
LINE
8
BLACK
6
CONTINUOUS
10
138.843
20
-107.957
11
138.207
21
-107.957
0
LINE
8
BLACK
6
CONTINUOUS
10
138.207
20
-107.957
11
138.207
21
-108.593
0
LINE
8
BLACK
6
CONTINUOUS
10
138.207
20
-108.593
11
138.843
21
-108.593
0
LINE
8
BLACK
6
CONTINUOUS
10
138.843
20
-117.053
11
138.843
21
-116.417
0
LINE
8
BLACK
6
CONTINUOUS
10
138.843
20
-116.417
11
138.207
21
-116.417
0
LINE
8
BLACK
6
CONTINUOUS
10
138.207
20
-116.417
11
138.207
21
-117.053
0
LINE
8
BLACK
6
CONTINUOUS
10
138.207
20
-117.053
11
138.843
21
-117.053
0
LINE
8
BLACK
6
CONTINUOUS
10
138.843
20
-119.593
11
138.843
21
-118.957
0
LINE
8
BLACK
6
CONTINUOUS
10
138.843
20
-118.957
11
138.207
21
-118.957
0
LINE
8
BLACK
6
CONTINUOUS
10
138.207
20
-118.957
11
138.207
21
-119.593
0
LINE
8
BLACK
6
CONTINUOUS
10
138.207
20
-119.593
11
138.843
21
-119.593
0
LINE
8
BLACK
6
CONTINUOUS
10
140.318
20
-90.3182
11
140.318
21
-89.6818
0
LINE
8
BLACK
6
CONTINUOUS
10
140.318
20
-89.6818
11
139.682
21
-89.6818
0
LINE
8
BLACK
6
CONTINUOUS
10
139.682
20
-89.6818
11
139.682
21
-90.3182
0
LINE
8
BLACK
6
CONTINUOUS
10
139.682
20
-90.3182
11
140.318
21
-90.3182
0
LINE
8
BLACK
6
CONTINUOUS
10
140.318
20
-92.3182
11
140.318
21
-91.6818
0
LINE
8
BLACK
6
CONTINUOUS
10
140.318
20
-91.6818
11
139.682
21
-91.6818
0
LINE
8
BLACK
6
CONTINUOUS
10
139.682
20
-91.6818
11
139.682
21
-92.3182
0
LINE
8
BLACK
6
CONTINUOUS
10
139.682
20
-92.3182
11
140.318
21
-92.3182
0
LINE
8
BLACK
6
CONTINUOUS
10
140.318
20
-94.3182
11
140.318
21
-93.6818
0
LINE
8
BLACK
6
CONTINUOUS
10
140.318
20
-93.6818
11
139.682
21
-93.6818
0
LINE
8
BLACK
6
CONTINUOUS
10
139.682
20
-93.6818
11
139.682
21
-94.3182
0
LINE
8
BLACK
6
CONTINUOUS
10
139.682
20
-94.3182
11
140.318
21
-94.3182
0
LINE
8
BLACK
6
CONTINUOUS
10
88.4625
20
-90.27
11
88.9575
21
-89.775
0
LINE
8
BLACK
6
CONTINUOUS
10
88.9575
20
-89.775
11
88.4625
21
-89.28
0
LINE
8
BLACK
6
CONTINUOUS
10
88.4625
20
-89.28
11
87.9675
21
-89.775
0
LINE
8
BLACK
6
CONTINUOUS
10
87.9675
20
-89.775
11
88.4625
21
-90.27
0
LINE
8
BLACK
6
CONTINUOUS
10
88.4625
20
-94.77
11
88.9575
21
-94.275
0
LINE
8
BLACK
6
CONTINUOUS
10
88.9575
20
-94.275
11
88.4625
21
-93.78
0
LINE
8
BLACK
6
CONTINUOUS
10
88.4625
20
-93.78
11
87.9675
21
-94.275
0
LINE
8
BLACK
6
CONTINUOUS
10
87.9675
20
-94.275
11
88.4625
21
-94.77
0
LINE
8
BLACK
6
CONTINUOUS
10
90.3025
20
-87.865
11
91.6025
21
-89.165
0
LINE
8
BLACK
6
CONTINUOUS
10
91.6025
20
-87.865
11
90.3025
21
-89.165
0
CIRCLE
8
BLACK
10
90.9525
20
-88.515
40
0.65
0
LINE
8
BLACK
6
CONTINUOUS
10
90.3025
20
-94.875
11
91.6025
21
-96.175
0
LINE
8
BLACK
6
CONTINUOUS
10
91.6025
20
-94.875
11
90.3025
21
-96.175
0
CIRCLE
8
BLACK
10
90.9525
20
-95.525
40
0.65
0
LINE
8
BLACK
6
CONTINUOUS
10
134.71
20
-128.71
11
136.21
21
-130.21
0
LINE
8
BLACK
6
CONTINUOUS
10
136.21
20
-128.71
11
134.71
21
-130.21
0
LINE
8
BLACK
6
CONTINUOUS
10
135.46
20
-128.71
11
135.46
21
-130.21
0
LINE
8
BLACK
6
CONTINUOUS
10
134.71
20
-129.46
11
136.21
21
-129.46
0
LINE
8
BLACK
6
CONTINUOUS
10
134.71
20
-133.79
11
136.21
21
-135.29
0
LINE
8
BLACK
6
CONTINUOUS
10
136.21
20
-133.79
11
134.71
21
-135.29
0
LINE
8
BLACK
6
CONTINUOUS
10
135.46
20
-133.79
11
135.46
21
-135.29
0
LINE
8
BLACK
6
CONTINUOUS
10
134.71
20
-134.54
11
136.21
21
-134.54
0
LINE
8
BLACK
6
CONTINUOUS
10
137.25
20
-131.25
11
138.75
21
-132.75
0
LINE
8
BLACK
6
CONTINUOUS
10
138.75
20
-131.25
11
137.25
21
-132.75
0
LINE
8
BLACK
6
CONTINUOUS
10
138
20
-131.25
11
138
21
-132.75
0
LINE
8
BLACK
6
CONTINUOUS
10
137.25
20
-132
11
138.75
21
-132
0
LINE
8
BLACK
6
CONTINUOUS
10
139.25
20
-87.15
11
140.75
21
-88.65
0
LINE
8
BLACK
6
CONTINUOUS
10
140.75
20
-87.15
11
139.25
21
-88.65
0
LINE
8
BLACK
6
CONTINUOUS
10
140
20
-87.15
11
140
21
-88.65
0
LINE
8
BLACK
6
CONTINUOUS
10
139.25
20
-87.9
11
140.75
21
-87.9
0
LINE
8
BLACK
6
CONTINUOUS
10
139.25
20
-95.35
11
140.75
21
-96.85
0
LINE
8
BLACK
6
CONTINUOUS
10
140.75
20
-95.35
11
139.25
21
-96.85
0
LINE
8
BLACK
6
CONTINUOUS
10
140
20
-95.35
11
140
21
-96.85
0
LINE
8
BLACK
6
CONTINUOUS
10
139.25
20
-96.1
11
140.75
21
-96.1
0
LINE
8
BLACK
6
CONTINUOUS
10
139.79
20
-128.71
11
141.29
21
-130.21
0
LINE
8
BLACK
6
CONTINUOUS
10
141.29
20
-128.71
11
139.79
21
-130.21
0
LINE
8
BLACK
6
CONTINUOUS
10
140.54
20
-128.71
11
140.54
21
-130.21
0
LINE
8
BLACK
6
CONTINUOUS
10
139.79
20
-129.46
11
141.29
21
-129.46
0
LINE
8
BLACK
6
CONTINUOUS
10
139.79
20
-133.79
11
141.29
21
-135.29
0
LINE
8
BLACK
6
CONTINUOUS
10
141.29
20
-133.79
11
139.79
21
-135.29
0
LINE
8
BLACK
6
CONTINUOUS
10
140.54
20
-133.79
11
140.54
21
-135.29
0
LINE
8
BLACK
6
CONTINUOUS
10
139.79
20
-134.54
11
141.29
21
-134.54
0
LINE
8
BLACK
6
CONTINUOUS
10
98.15
20
-96.7
11
101.35
21
-99.9
0
LINE
8
BLACK
6
CONTINUOUS
10
101.35
20
-96.7
11
98.15
21
-99.9
0
LINE
8
BLACK
6
CONTINUOUS
10
100.881
20
-99.4314
11
100.881
21
-97.1686
0
LINE
8
BLACK
6
CONTINUOUS
10
100.881
20
-97.1686
11
98.6186
21
-97.1686
0
LINE
8
BLACK
6
CONTINUOUS
10
98.6186
20
-97.1686
11
98.6186
21
-99.4314
0
LINE
8
BLACK
6
CONTINUOUS
10
98.6186
20
-99.4314
11
100.881
21
-99.4314
0
LINE
8
BLACK
6
CONTINUOUS
10
98.15
20
-124.7
11
101.35
21
-127.9
0
LINE
8
BLACK
6
CONTINUOUS
10
101.35
20
-124.7
11
98.15
21
-127.9
0
LINE
8
BLACK
6
CONTINUOUS
10
100.881
20
-127.431
11
100.881
21
-125.169
0
LINE
8
BLACK
6
CONTINUOUS
10
100.881
20
-125.169
11
98.6186
21
-125.169
0
LINE
8
BLACK
6
CONTINUOUS
10
98.6186
20
-125.169
11
98.6186
21
-127.431
0
LINE
8
BLACK
6
CONTINUOUS
10
98.6186
20
-127.431
11
100.881
21
-127.431
0
LINE
8
BLACK
6
CONTINUOUS
10
126.15
20
-96.7
11
129.35
21
-99.9
0
LINE
8
BLACK
6
CONTINUOUS
10
129.35
20
-96.7
11
126.15
21
-99.9
0
LINE
8
BLACK
6
CONTINUOUS
10
128.881
20
-99.4314
11
128.881
21
-97.1686
0
LINE
8
BLACK
6
CONTINUOUS
10
128.881
20
-97.1686
11
126.619
21
-97.1686
0
LINE
8
BLACK
6
CONTINUOUS
10
126.619
20
-97.1686
11
126.619
21
-99.4314
0
LINE
8
BLACK
6
CONTINUOUS
10
126.619
20
-99.4314
11
128.881
21
-99.4314
0
LINE
8
BLACK
6
CONTINUOUS
10
126.15
20
-124.7
11
129.35
21
-127.9
0
LINE
8
BLACK
6
CONTINUOUS
10
129.35
20
-124.7
11
126.15
21
-127.9
0
LINE
8
BLACK
6
CONTINUOUS
10
128.881
20
-127.431
11
128.881
21
-125.169
0
LINE
8
BLACK
6
CONTINUOUS
10
128.881
20
-125.169
11
126.619
21
-125.169
0
LINE
8
BLACK
6
CONTINUOUS
10
126.619
20
-125.169
11
126.619
21
-127.431
0
LINE
8
BLACK
6
CONTINUOUS
10
126.619
20
-127.431
11
128.881
21
-127.431
0
LINE
8
BLACK
6
CONTINUOUS
10
87.4262
20
-143.855
11
87.4262
21
-141.855
0
LINE
8
BLACK
6
CONTINUOUS
10
87.4262
20
-141.855
11
87.9024
21
-141.855
0
LINE
8
BLACK
6
CONTINUOUS
10
87.9024
20
-141.855
11
88.1881
21
-141.95
0
LINE
8
BLACK
6
CONTINUOUS
10
88.1881
20
-141.95
11
88.3786
21
-142.14
0
LINE
8
BLACK
6
CONTINUOUS
10
88.3786
20
-142.14
11
88.4738
21
-142.331
0
LINE
8
BLACK
6
CONTINUOUS
10
88.4738
20
-142.331
11
88.569
21
-142.712
0
LINE
8
BLACK
6
CONTINUOUS
10
88.569
20
-142.712
11
88.569
21
-142.998
0
LINE
8
BLACK
6
CONTINUOUS
10
88.569
20
-142.998
11
88.4738
21
-143.379
0
LINE
8
BLACK
6
CONTINUOUS
10
88.4738
20
-143.379
11
88.3786
21
-143.569
0
LINE
8
BLACK
6
CONTINUOUS
10
88.3786
20
-143.569
11
88.1881
21
-143.76
0
LINE
8
BLACK
6
CONTINUOUS
10
88.1881
20
-143.76
11
87.9024
21
-143.855
0
LINE
8
BLACK
6
CONTINUOUS
10
87.9024
20
-143.855
11
87.4262
21
-143.855
0
LINE
8
BLACK
6
CONTINUOUS
10
89.4262
20
-143.855
11
89.4262
21
-142.521
0
LINE
8
BLACK
6
CONTINUOUS
10
89.4262
20
-142.902
11
89.5214
21
-142.712
0
LINE
8
BLACK
6
CONTINUOUS
10
89.5214
20
-142.712
11
89.6167
21
-142.617
0
LINE
8
BLACK
6
CONTINUOUS
10
89.6167
20
-142.617
11
89.8071
21
-142.521
0
LINE
8
BLACK
6
CONTINUOUS
10
89.8071
20
-142.521
11
89.9976
21
-142.521
0
LINE
8
BLACK
6
CONTINUOUS
10
90.6643
20
-143.855
11
90.6643
21
-142.521
0
LINE
8
BLACK
6
CONTINUOUS
10
90.6643
20
-141.855
11
90.569
21
-141.95
0
LINE
8
BLACK
6
CONTINUOUS
10
90.569
20
-141.95
11
90.6643
21
-142.045
0
LINE
8
BLACK
6
CONTINUOUS
10
90.6643
20
-142.045
11
90.7595
21
-141.95
0
LINE
8
BLACK
6
CONTINUOUS
10
90.7595
20
-141.95
11
90.6643
21
-141.855
0
LINE
8
BLACK
6
CONTINUOUS
10
90.6643
20
-141.855
11
90.6643
21
-142.045
0
LINE
8
BLACK
6
CONTINUOUS
10
91.9024
20
-143.855
11
91.7119
21
-143.76
0
LINE
8
BLACK
6
CONTINUOUS
10
91.7119
20
-143.76
11
91.6167
21
-143.569
0
LINE
8
BLACK
6
CONTINUOUS
10
91.6167
20
-143.569
11
91.6167
21
-141.855
0
LINE
8
BLACK
6
CONTINUOUS
10
92.95
20
-143.855
11
92.7595
21
-143.76
0
LINE
8
BLACK
6
CONTINUOUS
10
92.7595
20
-143.76
11
92.6643
21
-143.569
0
LINE
8
BLACK
6
CONTINUOUS
10
92.6643
20
-143.569
11
92.6643
21
-141.855
0
LINE
8
BLACK
6
CONTINUOUS
10
95.2357
20
-143.855
11
95.2357
21
-141.855
0
LINE
8
BLACK
6
CONTINUOUS
10
95.2357
20
-141.855
11
95.9024
21
-143.283
0
LINE
8
BLACK
6
CONTINUOUS
10
95.9024
20
-143.283
11
96.569
21
-141.855
0
LINE
8
BLACK
6
CONTINUOUS
10
96.569
20
-141.855
11
96.569
21
-143.855
0
LINE
8
BLACK
6
CONTINUOUS
10
98.3786
20
-143.855
11
98.3786
21
-142.807
0
LINE
8
BLACK
6
CONTINUOUS
10
98.3786
20
-142.807
11
98.2833
21
-142.617
0
LINE
8
BLACK
6
CONTINUOUS
10
98.2833
20
-142.617
11
98.0929
21
-142.521
0
LINE
8
BLACK
6
CONTINUOUS
10
98.0929
20
-142.521
11
97.7119
21
-142.521
0
LINE
8
BLACK
6
CONTINUOUS
10
97.7119
20
-142.521
11
97.5214
21
-142.617
0
LINE
8
BLACK
6
CONTINUOUS
10
98.3786
20
-143.76
11
98.1881
21
-143.855
0
LINE
8
BLACK
6
CONTINUOUS
10
98.1881
20
-143.855
11
97.7119
21
-143.855
0
LINE
8
BLACK
6
CONTINUOUS
10
97.7119
20
-143.855
11
97.5214
21
-143.76
0
LINE
8
BLACK
6
CONTINUOUS
10
97.5214
20
-143.76
11
97.4262
21
-143.569
0
LINE
8
BLACK
6
CONTINUOUS
10
97.4262
20
-143.569
11
97.4262
21
-143.379
0
LINE
8
BLACK
6
CONTINUOUS
10
97.4262
20
-143.379
11
97.5214
21
-143.188
0
LINE
8
BLACK
6
CONTINUOUS
10
97.5214
20
-143.188
11
97.7119
21
-143.093
0
LINE
8
BLACK
6
CONTINUOUS
10
97.7119
20
-143.093
11
98.1881
21
-143.093
0
LINE
8
BLACK
6
CONTINUOUS
10
98.1881
20
-143.093
11
98.3786
21
-142.998
0
LINE
8
BLACK
6
CONTINUOUS
10
99.331
20
-142.521
11
99.331
21
-144.521
0
LINE
8
BLACK
6
CONTINUOUS
10
99.331
20
-142.617
11
99.5214
21
-142.521
0
LINE
8
BLACK
6
CONTINUOUS
10
99.5214
20
-142.521
11
99.9024
21
-142.521
0
LINE
8
BLACK
6
CONTINUOUS
10
99.9024
20
-142.521
11
100.093
21
-142.617
0
LINE
8
BLACK
6
CONTINUOUS
10
100.093
20
-142.617
11
100.188
21
-142.712
0
LINE
8
BLACK
6
CONTINUOUS
10
100.188
20
-142.712
11
100.283
21
-142.902
0
LINE
8
BLACK
6
CONTINUOUS
10
100.283
20
-142.902
11
100.283
21
-143.474
0
LINE
8
BLACK
6
CONTINUOUS
10
100.283
20
-143.474
11
100.188
21
-143.664
0
LINE
8
BLACK
6
CONTINUOUS
10
100.188
20
-143.664
11
100.093
21
-143.76
0
LINE
8
BLACK
6
CONTINUOUS
10
100.093
20
-143.76
11
99.9024
21
-143.855
0
LINE
8
BLACK
6
CONTINUOUS
10
99.9024
20
-143.855
11
99.5214
21
-143.855
0
LINE
8
BLACK
6
CONTINUOUS
10
99.5214
20
-143.855
11
99.331
21
-143.76
0
LINE
8
BLACK
6
CONTINUOUS
10
101.14
20
-143.664
11
101.236
21
-143.76
0
LINE
8
BLACK
6
CONTINUOUS
10
101.236
20
-143.76
11
101.14
21
-143.855
0
LINE
8
BLACK
6
CONTINUOUS
10
101.14
20
-143.855
11
101.045
21
-143.76
0
LINE
8
BLACK
6
CONTINUOUS
10
101.045
20
-143.76
11
101.14
21
-143.664
0
LINE
8
BLACK
6
CONTINUOUS
10
101.14
20
-143.664
11
101.14
21
-143.855
0
LINE
8
BLACK
6
CONTINUOUS
10
101.14
20
-142.617
11
101.236
21
-142.712
0
LINE
8
BLACK
6
CONTINUOUS
10
101.236
20
-142.712
11
101.14
21
-142.807
0
LINE
8
BLACK
6
CONTINUOUS
10
101.14
20
-142.807
11
101.045
21
-142.712
0
LINE
8
BLACK
6
CONTINUOUS
10
101.045
20
-142.712
11
101.14
21
-142.617
0
LINE
8
BLACK
6
CONTINUOUS
10
101.14
20
-142.617
11
101.14
21
-142.807
0
LINE
8
BLACK
6
CONTINUOUS
10
84.45
20
-146.95
11
84.85
21
-147.35
0
LINE
8
BLACK
6
CONTINUOUS
10
84.85
20
-146.95
11
84.45
21
-147.35
0
LINE
8
BLACK
6
CONTINUOUS
10
87.8071
20
-146.055
11
87.9976
21
-146.055
0
LINE
8
BLACK
6
CONTINUOUS
10
87.9976
20
-146.055
11
88.1881
21
-146.15
0
LINE
8
BLACK
6
CONTINUOUS
10
88.1881
20
-146.15
11
88.2833
21
-146.245
0
LINE
8
BLACK
6
CONTINUOUS
10
88.2833
20
-146.245
11
88.3786
21
-146.436
0
LINE
8
BLACK
6
CONTINUOUS
10
88.3786
20
-146.436
11
88.4738
21
-146.817
0
LINE
8
BLACK
6
CONTINUOUS
10
88.4738
20
-146.817
11
88.4738
21
-147.293
0
LINE
8
BLACK
6
CONTINUOUS
10
88.4738
20
-147.293
11
88.3786
21
-147.674
0
LINE
8
BLACK
6
CONTINUOUS
10
88.3786
20
-147.674
11
88.2833
21
-147.864
0
LINE
8
BLACK
6
CONTINUOUS
10
88.2833
20
-147.864
11
88.1881
21
-147.96
0
LINE
8
BLACK
6
CONTINUOUS
10
88.1881
20
-147.96
11
87.9976
21
-148.055
0
LINE
8
BLACK
6
CONTINUOUS
10
87.9976
20
-148.055
11
87.8071
21
-148.055
0
LINE
8
BLACK
6
CONTINUOUS
10
87.8071
20
-148.055
11
87.6167
21
-147.96
0
LINE
8
BLACK
6
CONTINUOUS
10
87.6167
20
-147.96
11
87.5214
21
-147.864
0
LINE
8
BLACK
6
CONTINUOUS
10
87.5214
20
-147.864
11
87.4262
21
-147.674
0
LINE
8
BLACK
6
CONTINUOUS
10
87.4262
20
-147.674
11
87.331
21
-147.293
0
LINE
8
BLACK
6
CONTINUOUS
10
87.331
20
-147.293
11
87.331
21
-146.817
0
LINE
8
BLACK
6
CONTINUOUS
10
87.331
20
-146.817
11
87.4262
21
-146.436
0
LINE
8
BLACK
6
CONTINUOUS
10
87.4262
20
-146.436
11
87.5214
21
-146.245
0
LINE
8
BLACK
6
CONTINUOUS
10
87.5214
20
-146.245
11
87.6167
21
-146.15
0
LINE
8
BLACK
6
CONTINUOUS
10
87.6167
20
-146.15
11
87.8071
21
-146.055
0
LINE
8
BLACK
6
CONTINUOUS
10
89.331
20
-147.864
11
89.4262
21
-147.96
0
LINE
8
BLACK
6
CONTINUOUS
10
89.4262
20
-147.96
11
89.331
21
-148.055
0
LINE
8
BLACK
6
CONTINUOUS
10
89.331
20
-148.055
11
89.2357
21
-147.96
0
LINE
8
BLACK
6
CONTINUOUS
10
89.2357
20
-147.96
11
89.331
21
-147.864
0
LINE
8
BLACK
6
CONTINUOUS
10
89.331
20
-147.864
11
89.331
21
-148.055
0
LINE
8
BLACK
6
CONTINUOUS
10
91.1405
20
-146.721
11
91.1405
21
-148.055
0
LINE
8
BLACK
6
CONTINUOUS
10
90.6643
20
-145.96
11
90.1881
21
-147.388
0
LINE
8
BLACK
6
CONTINUOUS
10
90.1881
20
-147.388
11
91.4262
21
-147.388
0
LINE
8
BLACK
6
CONTINUOUS
10
92.569
20
-146.055
11
92.7595
21
-146.055
0
LINE
8
BLACK
6
CONTINUOUS
10
92.7595
20
-146.055
11
92.95
21
-146.15
0
LINE
8
BLACK
6
CONTINUOUS
10
92.95
20
-146.15
11
93.0452
21
-146.245
0
LINE
8
BLACK
6
CONTINUOUS
10
93.0452
20
-146.245
11
93.1405
21
-146.436
0
LINE
8
BLACK
6
CONTINUOUS
10
93.1405
20
-146.436
11
93.2357
21
-146.817
0
LINE
8
BLACK
6
CONTINUOUS
10
93.2357
20
-146.817
11
93.2357
21
-147.293
0
LINE
8
BLACK
6
CONTINUOUS
10
93.2357
20
-147.293
11
93.1405
21
-147.674
0
LINE
8
BLACK
6
CONTINUOUS
10
93.1405
20
-147.674
11
93.0452
21
-147.864
0
LINE
8
BLACK
6
CONTINUOUS
10
93.0452
20
-147.864
11
92.95
21
-147.96
0
LINE
8
BLACK
6
CONTINUOUS
10
92.95
20
-147.96
11
92.7595
21
-148.055
0
LINE
8
BLACK
6
CONTINUOUS
10
92.7595
20
-148.055
11
92.569
21
-148.055
0
LINE
8
BLACK
6
CONTINUOUS
10
92.569
20
-148.055
11
92.3786
21
-147.96
0
LINE
8
BLACK
6
CONTINUOUS
10
92.3786
20
-147.96
11
92.2833
21
-147.864
0
LINE
8
BLACK
6
CONTINUOUS
10
92.2833
20
-147.864
11
92.1881
21
-147.674
0
LINE
8
BLACK
6
CONTINUOUS
10
92.1881
20
-147.674
11
92.0929
21
-147.293
0
LINE
8
BLACK
6
CONTINUOUS
10
92.0929
20
-147.293
11
92.0929
21
-146.817
0
LINE
8
BLACK
6
CONTINUOUS
10
92.0929
20
-146.817
11
92.1881
21
-146.436
0
LINE
8
BLACK
6
CONTINUOUS
10
92.1881
20
-146.436
11
92.2833
21
-146.245
0
LINE
8
BLACK
6
CONTINUOUS
10
92.2833
20
-146.245
11
92.3786
21
-146.15
0
LINE
8
BLACK
6
CONTINUOUS
10
92.3786
20
-146.15
11
92.569
21
-146.055
0
LINE
8
BLACK
6
CONTINUOUS
10
94.4738
20
-146.055
11
94.6643
21
-146.055
0
LINE
8
BLACK
6
CONTINUOUS
10
94.6643
20
-146.055
11
94.8548
21
-146.15
0
LINE
8
BLACK
6
CONTINUOUS
10
94.8548
20
-146.15
11
94.95
21
-146.245
0
LINE
8
BLACK
6
CONTINUOUS
10
94.95
20
-146.245
11
95.0452
21
-146.436
0
LINE
8
BLACK
6
CONTINUOUS
10
95.0452
20
-146.436
11
95.1405
21
-146.817
0
LINE
8
BLACK
6
CONTINUOUS
10
95.1405
20
-146.817
11
95.1405
21
-147.293
0
LINE
8
BLACK
6
CONTINUOUS
10
95.1405
20
-147.293
11
95.0452
21
-147.674
0
LINE
8
BLACK
6
CONTINUOUS
10
95.0452
20
-147.674
11
94.95
21
-147.864
0
LINE
8
BLACK
6
CONTINUOUS
10
94.95
20
-147.864
11
94.8548
21
-147.96
0
LINE
8
BLACK
6
CONTINUOUS
10
94.8548
20
-147.96
11
94.6643
21
-148.055
0
LINE
8
BLACK
6
CONTINUOUS
10
94.6643
20
-148.055
11
94.4738
21
-148.055
0
LINE
8
BLACK
6
CONTINUOUS
10
94.4738
20
-148.055
11
94.2833
21
-147.96
0
LINE
8
BLACK
6
CONTINUOUS
10
94.2833
20
-147.96
11
94.1881
21
-147.864
0
LINE
8
BLACK
6
CONTINUOUS
10
94.1881
20
-147.864
11
94.0929
21
-147.674
0
LINE
8
BLACK
6
CONTINUOUS
10
94.0929
20
-147.674
11
93.9976
21
-147.293
0
LINE
8
BLACK
6
CONTINUOUS
10
93.9976
20
-147.293
11
93.9976
21
-146.817
0
LINE
8
BLACK
6
CONTINUOUS
10
93.9976
20
-146.817
11
94.0929
21
-146.436
0
LINE
8
BLACK
6
CONTINUOUS
10
94.0929
20
-146.436
11
94.1881
21
-146.245
0
LINE
8
BLACK
6
CONTINUOUS
10
94.1881
20
-146.245
11
94.2833
21
-146.15
0
LINE
8
BLACK
6
CONTINUOUS
10
94.2833
20
-146.15
11
94.4738
21
-146.055
0
LINE
8
BLACK
6
CONTINUOUS
10
95.9976
20
-148.055
11
95.9976
21
-146.721
0
LINE
8
BLACK
6
CONTINUOUS
10
95.9976
20
-146.912
11
96.0929
21
-146.817
0
LINE
8
BLACK
6
CONTINUOUS
10
96.0929
20
-146.817
11
96.2833
21
-146.721
0
LINE
8
BLACK
6
CONTINUOUS
10
96.2833
20
-146.721
11
96.569
21
-146.721
0
LINE
8
BLACK
6
CONTINUOUS
10
96.569
20
-146.721
11
96.7595
21
-146.817
0
LINE
8
BLACK
6
CONTINUOUS
10
96.7595
20
-146.817
11
96.8548
21
-147.007
0
LINE
8
BLACK
6
CONTINUOUS
10
96.8548
20
-147.007
11
96.8548
21
-148.055
0
LINE
8
BLACK
6
CONTINUOUS
10
96.8548
20
-147.007
11
96.95
21
-146.817
0
LINE
8
BLACK
6
CONTINUOUS
10
96.95
20
-146.817
11
97.1405
21
-146.721
0
LINE
8
BLACK
6
CONTINUOUS
10
97.1405
20
-146.721
11
97.4262
21
-146.721
0
LINE
8
BLACK
6
CONTINUOUS
10
97.4262
20
-146.721
11
97.6167
21
-146.817
0
LINE
8
BLACK
6
CONTINUOUS
10
97.6167
20
-146.817
11
97.7119
21
-147.007
0
LINE
8
BLACK
6
CONTINUOUS
10
97.7119
20
-147.007
11
97.7119
21
-148.055
0
LINE
8
BLACK
6
CONTINUOUS
10
98.6643
20
-148.055
11
98.6643
21
-146.721
0
LINE
8
BLACK
6
CONTINUOUS
10
98.6643
20
-146.912
11
98.7595
21
-146.817
0
LINE
8
BLACK
6
CONTINUOUS
10
98.7595
20
-146.817
11
98.95
21
-146.721
0
LINE
8
BLACK
6
CONTINUOUS
10
98.95
20
-146.721
11
99.2357
21
-146.721
0
LINE
8
BLACK
6
CONTINUOUS
10
99.2357
20
-146.721
11
99.4262
21
-146.817
0
LINE
8
BLACK
6
CONTINUOUS
10
99.4262
20
-146.817
11
99.5214
21
-147.007
0
LINE
8
BLACK
6
CONTINUOUS
10
99.5214
20
-147.007
11
99.5214
21
-148.055
0
LINE
8
BLACK
6
CONTINUOUS
10
99.5214
20
-147.007
11
99.6167
21
-146.817
0
LINE
8
BLACK
6
CONTINUOUS
10
99.6167
20
-146.817
11
99.8071
21
-146.721
0
LINE
8
BLACK
6
CONTINUOUS
10
99.8071
20
-146.721
11
100.093
21
-146.721
0
LINE
8
BLACK
6
CONTINUOUS
10
100.093
20
-146.721
11
100.283
21
-146.817
0
LINE
8
BLACK
6
CONTINUOUS
10
100.283
20
-146.817
11
100.379
21
-147.007
0
LINE
8
BLACK
6
CONTINUOUS
10
100.379
20
-147.007
11
100.379
21
-148.055
0
LINE
8
BLACK
6
CONTINUOUS
10
104.283
20
-145.96
11
102.569
21
-148.531
0
LINE
8
BLACK
6
CONTINUOUS
10
106.855
20
-146.055
11
107.045
21
-146.055
0
LINE
8
BLACK
6
CONTINUOUS
10
107.045
20
-146.055
11
107.236
21
-146.15
0
LINE
8
BLACK
6
CONTINUOUS
10
107.236
20
-146.15
11
107.331
21
-146.245
0
LINE
8
BLACK
6
CONTINUOUS
10
107.331
20
-146.245
11
107.426
21
-146.436
0
LINE
8
BLACK
6
CONTINUOUS
10
107.426
20
-146.436
11
107.521
21
-146.817
0
LINE
8
BLACK
6
CONTINUOUS
10
107.521
20
-146.817
11
107.521
21
-147.293
0
LINE
8
BLACK
6
CONTINUOUS
10
107.521
20
-147.293
11
107.426
21
-147.674
0
LINE
8
BLACK
6
CONTINUOUS
10
107.426
20
-147.674
11
107.331
21
-147.864
0
LINE
8
BLACK
6
CONTINUOUS
10
107.331
20
-147.864
11
107.236
21
-147.96
0
LINE
8
BLACK
6
CONTINUOUS
10
107.236
20
-147.96
11
107.045
21
-148.055
0
LINE
8
BLACK
6
CONTINUOUS
10
107.045
20
-148.055
11
106.855
21
-148.055
0
LINE
8
BLACK
6
CONTINUOUS
10
106.855
20
-148.055
11
106.664
21
-147.96
0
LINE
8
BLACK
6
CONTINUOUS
10
106.664
20
-147.96
11
106.569
21
-147.864
0
LINE
8
BLACK
6
CONTINUOUS
10
106.569
20
-147.864
11
106.474
21
-147.674
0
LINE
8
BLACK
6
CONTINUOUS
10
106.474
20
-147.674
11
106.379
21
-147.293
0
LINE
8
BLACK
6
CONTINUOUS
10
106.379
20
-147.293
11
106.379
21
-146.817
0
LINE
8
BLACK
6
CONTINUOUS
10
106.379
20
-146.817
11
106.474
21
-146.436
0
LINE
8
BLACK
6
CONTINUOUS
10
106.474
20
-146.436
11
106.569
21
-146.245
0
LINE
8
BLACK
6
CONTINUOUS
10
106.569
20
-146.245
11
106.664
21
-146.15
0
LINE
8
BLACK
6
CONTINUOUS
10
106.664
20
-146.15
11
106.855
21
-146.055
0
LINE
8
BLACK
6
CONTINUOUS
10
108.379
20
-147.864
11
108.474
21
-147.96
0
LINE
8
BLACK
6
CONTINUOUS
10
108.474
20
-147.96
11
108.379
21
-148.055
0
LINE
8
BLACK
6
CONTINUOUS
10
108.379
20
-148.055
11
108.283
21
-147.96
0
LINE
8
BLACK
6
CONTINUOUS
10
108.283
20
-147.96
11
108.379
21
-147.864
0
LINE
8
BLACK
6
CONTINUOUS
10
108.379
20
-147.864
11
108.379
21
-148.055
0
LINE
8
BLACK
6
CONTINUOUS
10
109.712
20
-146.055
11
109.902
21
-146.055
0
LINE
8
BLACK
6
CONTINUOUS
10
109.902
20
-146.055
11
110.093
21
-146.15
0
LINE
8
BLACK
6
CONTINUOUS
10
110.093
20
-146.15
11
110.188
21
-146.245
0
LINE
8
BLACK
6
CONTINUOUS
10
110.188
20
-146.245
11
110.283
21
-146.436
0
LINE
8
BLACK
6
CONTINUOUS
10
110.283
20
-146.436
11
110.379
21
-146.817
0
LINE
8
BLACK
6
CONTINUOUS
10
110.379
20
-146.817
11
110.379
21
-147.293
0
LINE
8
BLACK
6
CONTINUOUS
10
110.379
20
-147.293
11
110.283
21
-147.674
0
LINE
8
BLACK
6
CONTINUOUS
10
110.283
20
-147.674
11
110.188
21
-147.864
0
LINE
8
BLACK
6
CONTINUOUS
10
110.188
20
-147.864
11
110.093
21
-147.96
0
LINE
8
BLACK
6
CONTINUOUS
10
110.093
20
-147.96
11
109.902
21
-148.055
0
LINE
8
BLACK
6
CONTINUOUS
10
109.902
20
-148.055
11
109.712
21
-148.055
0
LINE
8
BLACK
6
CONTINUOUS
10
109.712
20
-148.055
11
109.521
21
-147.96
0
LINE
8
BLACK
6
CONTINUOUS
10
109.521
20
-147.96
11
109.426
21
-147.864
0
LINE
8
BLACK
6
CONTINUOUS
10
109.426
20
-147.864
11
109.331
21
-147.674
0
LINE
8
BLACK
6
CONTINUOUS
10
109.331
20
-147.674
11
109.236
21
-147.293
0
LINE
8
BLACK
6
CONTINUOUS
10
109.236
20
-147.293
11
109.236
21
-146.817
0
LINE
8
BLACK
6
CONTINUOUS
10
109.236
20
-146.817
11
109.331
21
-146.436
0
LINE
8
BLACK
6
CONTINUOUS
10
109.331
20
-146.436
11
109.426
21
-146.245
0
LINE
8
BLACK
6
CONTINUOUS
10
109.426
20
-146.245
11
109.521
21
-146.15
0
LINE
8
BLACK
6
CONTINUOUS
10
109.521
20
-146.15
11
109.712
21
-146.055
0
LINE
8
BLACK
6
CONTINUOUS
10
112.283
20
-148.055
11
111.14
21
-148.055
0
LINE
8
BLACK
6
CONTINUOUS
10
111.712
20
-148.055
11
111.712
21
-146.055
0
LINE
8
BLACK
6
CONTINUOUS
10
111.712
20
-146.055
11
111.521
21
-146.34
0
LINE
8
BLACK
6
CONTINUOUS
10
111.521
20
-146.34
11
111.331
21
-146.531
0
LINE
8
BLACK
6
CONTINUOUS
10
111.331
20
-146.531
11
111.14
21
-146.626
0
LINE
8
BLACK
6
CONTINUOUS
10
114.093
20
-146.055
11
113.14
21
-146.055
0
LINE
8
BLACK
6
CONTINUOUS
10
113.14
20
-146.055
11
113.045
21
-147.007
0
LINE
8
BLACK
6
CONTINUOUS
10
113.045
20
-147.007
11
113.14
21
-146.912
0
LINE
8
BLACK
6
CONTINUOUS
10
113.14
20
-146.912
11
113.331
21
-146.817
0
LINE
8
BLACK
6
CONTINUOUS
10
113.331
20
-146.817
11
113.807
21
-146.817
0
LINE
8
BLACK
6
CONTINUOUS
10
113.807
20
-146.817
11
113.998
21
-146.912
0
LINE
8
BLACK
6
CONTINUOUS
10
113.998
20
-146.912
11
114.093
21
-147.007
0
LINE
8
BLACK
6
CONTINUOUS
10
114.093
20
-147.007
11
114.188
21
-147.198
0
LINE
8
BLACK
6
CONTINUOUS
10
114.188
20
-147.198
11
114.188
21
-147.674
0
LINE
8
BLACK
6
CONTINUOUS
10
114.188
20
-147.674
11
114.093
21
-147.864
0
LINE
8
BLACK
6
CONTINUOUS
10
114.093
20
-147.864
11
113.998
21
-147.96
0
LINE
8
BLACK
6
CONTINUOUS
10
113.998
20
-147.96
11
113.807
21
-148.055
0
LINE
8
BLACK
6
CONTINUOUS
10
113.807
20
-148.055
11
113.331
21
-148.055
0
LINE
8
BLACK
6
CONTINUOUS
10
113.331
20
-148.055
11
113.14
21
-147.96
0
LINE
8
BLACK
6
CONTINUOUS
10
113.14
20
-147.96
11
113.045
21
-147.864
0
LINE
8
BLACK
6
CONTINUOUS
10
114.855
20
-146.055
11
116.188
21
-146.055
0
LINE
8
BLACK
6
CONTINUOUS
10
116.188
20
-146.055
11
115.331
21
-148.055
0
LINE
8
BLACK
6
CONTINUOUS
10
116.855
20
-146.055
11
116.855
21
-146.436
0
LINE
8
BLACK
6
CONTINUOUS
10
117.617
20
-146.055
11
117.617
21
-146.436
0
LINE
8
BLACK
6
CONTINUOUS
10
120.569
20
-148.817
11
120.474
21
-148.721
0
LINE
8
BLACK
6
CONTINUOUS
10
120.474
20
-148.721
11
120.283
21
-148.436
0
LINE
8
BLACK
6
CONTINUOUS
10
120.283
20
-148.436
11
120.188
21
-148.245
0
LINE
8
BLACK
6
CONTINUOUS
10
120.188
20
-148.245
11
120.093
21
-147.96
0
LINE
8
BLACK
6
CONTINUOUS
10
120.093
20
-147.96
11
119.998
21
-147.483
0
LINE
8
BLACK
6
CONTINUOUS
10
119.998
20
-147.483
11
119.998
21
-147.102
0
LINE
8
BLACK
6
CONTINUOUS
10
119.998
20
-147.102
11
120.093
21
-146.626
0
LINE
8
BLACK
6
CONTINUOUS
10
120.093
20
-146.626
11
120.188
21
-146.34
0
LINE
8
BLACK
6
CONTINUOUS
10
120.188
20
-146.34
11
120.283
21
-146.15
0
LINE
8
BLACK
6
CONTINUOUS
10
120.283
20
-146.15
11
120.474
21
-145.864
0
LINE
8
BLACK
6
CONTINUOUS
10
120.474
20
-145.864
11
120.569
21
-145.769
0
LINE
8
BLACK
6
CONTINUOUS
10
122.188
20
-146.055
11
121.807
21
-146.055
0
LINE
8
BLACK
6
CONTINUOUS
10
121.807
20
-146.055
11
121.617
21
-146.15
0
LINE
8
BLACK
6
CONTINUOUS
10
121.617
20
-146.15
11
121.521
21
-146.245
0
LINE
8
BLACK
6
CONTINUOUS
10
121.521
20
-146.245
11
121.331
21
-146.531
0
LINE
8
BLACK
6
CONTINUOUS
10
121.331
20
-146.531
11
121.236
21
-146.912
0
LINE
8
BLACK
6
CONTINUOUS
10
121.236
20
-146.912
11
121.236
21
-147.674
0
LINE
8
BLACK
6
CONTINUOUS
10
121.236
20
-147.674
11
121.331
21
-147.864
0
LINE
8
BLACK
6
CONTINUOUS
10
121.331
20
-147.864
11
121.426
21
-147.96
0
LINE
8
BLACK
6
CONTINUOUS
10
121.426
20
-147.96
11
121.617
21
-148.055
0
LINE
8
BLACK
6
CONTINUOUS
10
121.617
20
-148.055
11
121.998
21
-148.055
0
LINE
8
BLACK
6
CONTINUOUS
10
121.998
20
-148.055
11
122.188
21
-147.96
0
LINE
8
BLACK
6
CONTINUOUS
10
122.188
20
-147.96
11
122.283
21
-147.864
0
LINE
8
BLACK
6
CONTINUOUS
10
122.283
20
-147.864
11
122.379
21
-147.674
0
LINE
8
BLACK
6
CONTINUOUS
10
122.379
20
-147.674
11
122.379
21
-147.198
0
LINE
8
BLACK
6
CONTINUOUS
10
122.379
20
-147.198
11
122.283
21
-147.007
0
LINE
8
BLACK
6
CONTINUOUS
10
122.283
20
-147.007
11
122.188
21
-146.912
0
LINE
8
BLACK
6
CONTINUOUS
10
122.188
20
-146.912
11
121.998
21
-146.817
0
LINE
8
BLACK
6
CONTINUOUS
10
121.998
20
-146.817
11
121.617
21
-146.817
0
LINE
8
BLACK
6
CONTINUOUS
10
121.617
20
-146.817
11
121.426
21
-146.912
0
LINE
8
BLACK
6
CONTINUOUS
10
121.426
20
-146.912
11
121.331
21
-147.007
0
LINE
8
BLACK
6
CONTINUOUS
10
121.331
20
-147.007
11
121.236
21
-147.198
0
LINE
8
BLACK
6
CONTINUOUS
10
123.521
20
-146.912
11
123.331
21
-146.817
0
LINE
8
BLACK
6
CONTINUOUS
10
123.331
20
-146.817
11
123.236
21
-146.721
0
LINE
8
BLACK
6
CONTINUOUS
10
123.236
20
-146.721
11
123.14
21
-146.531
0
LINE
8
BLACK
6
CONTINUOUS
10
123.14
20
-146.531
11
123.14
21
-146.436
0
LINE
8
BLACK
6
CONTINUOUS
10
123.14
20
-146.436
11
123.236
21
-146.245
0
LINE
8
BLACK
6
CONTINUOUS
10
123.236
20
-146.245
11
123.331
21
-146.15
0
LINE
8
BLACK
6
CONTINUOUS
10
123.331
20
-146.15
11
123.521
21
-146.055
0
LINE
8
BLACK
6
CONTINUOUS
10
123.521
20
-146.055
11
123.902
21
-146.055
0
LINE
8
BLACK
6
CONTINUOUS
10
123.902
20
-146.055
11
124.093
21
-146.15
0
LINE
8
BLACK
6
CONTINUOUS
10
124.093
20
-146.15
11
124.188
21
-146.245
0
LINE
8
BLACK
6
CONTINUOUS
10
124.188
20
-146.245
11
124.283
21
-146.436
0
LINE
8
BLACK
6
CONTINUOUS
10
124.283
20
-146.436
11
124.283
21
-146.531
0
LINE
8
BLACK
6
CONTINUOUS
10
124.283
20
-146.531
11
124.188
21
-146.721
0
LINE
8
BLACK
6
CONTINUOUS
10
124.188
20
-146.721
11
124.093
21
-146.817
0
LINE
8
BLACK
6
CONTINUOUS
10
124.093
20
-146.817
11
123.902
21
-146.912
0
LINE
8
BLACK
6
CONTINUOUS
10
123.902
20
-146.912
11
123.521
21
-146.912
0
LINE
8
BLACK
6
CONTINUOUS
10
123.521
20
-146.912
11
123.331
21
-147.007
0
LINE
8
BLACK
6
CONTINUOUS
10
123.331
20
-147.007
11
123.236
21
-147.102
0
LINE
8
BLACK
6
CONTINUOUS
10
123.236
20
-147.102
11
123.14
21
-147.293
0
LINE
8
BLACK
6
CONTINUOUS
10
123.14
20
-147.293
11
123.14
21
-147.674
0
LINE
8
BLACK
6
CONTINUOUS
10
123.14
20
-147.674
11
123.236
21
-147.864
0
LINE
8
BLACK
6
CONTINUOUS
10
123.236
20
-147.864
11
123.331
21
-147.96
0
LINE
8
BLACK
6
CONTINUOUS
10
123.331
20
-147.96
11
123.521
21
-148.055
0
LINE
8
BLACK
6
CONTINUOUS
10
123.521
20
-148.055
11
123.902
21
-148.055
0
LINE
8
BLACK
6
CONTINUOUS
10
123.902
20
-148.055
11
124.093
21
-147.96
0
LINE
8
BLACK
6
CONTINUOUS
10
124.093
20
-147.96
11
124.188
21
-147.864
0
LINE
8
BLACK
6
CONTINUOUS
10
124.188
20
-147.864
11
124.283
21
-147.674
0
LINE
8
BLACK
6
CONTINUOUS
10
124.283
20
-147.674
11
124.283
21
-147.293
0
LINE
8
BLACK
6
CONTINUOUS
10
124.283
20
-147.293
11
124.188
21
-147.102
0
LINE
8
BLACK
6
CONTINUOUS
10
124.188
20
-147.102
11
124.093
21
-147.007
0
LINE
8
BLACK
6
CONTINUOUS
10
124.093
20
-147.007
11
123.902
21
-146.912
0
LINE
8
BLACK
6
CONTINUOUS
10
126.664
20
-148.055
11
126.664
21
-146.055
0
LINE
8
BLACK
6
CONTINUOUS
10
127.521
20
-148.055
11
127.521
21
-147.007
0
LINE
8
BLACK
6
CONTINUOUS
10
127.521
20
-147.007
11
127.426
21
-146.817
0
LINE
8
BLACK
6
CONTINUOUS
10
127.426
20
-146.817
11
127.236
21
-146.721
0
LINE
8
BLACK
6
CONTINUOUS
10
127.236
20
-146.721
11
126.95
21
-146.721
0
LINE
8
BLACK
6
CONTINUOUS
10
126.95
20
-146.721
11
126.76
21
-146.817
0
LINE
8
BLACK
6
CONTINUOUS
10
126.76
20
-146.817
11
126.664
21
-146.912
0
LINE
8
BLACK
6
CONTINUOUS
10
128.76
20
-148.055
11
128.569
21
-147.96
0
LINE
8
BLACK
6
CONTINUOUS
10
128.569
20
-147.96
11
128.474
21
-147.864
0
LINE
8
BLACK
6
CONTINUOUS
10
128.474
20
-147.864
11
128.379
21
-147.674
0
LINE
8
BLACK
6
CONTINUOUS
10
128.379
20
-147.674
11
128.379
21
-147.102
0
LINE
8
BLACK
6
CONTINUOUS
10
128.379
20
-147.102
11
128.474
21
-146.912
0
LINE
8
BLACK
6
CONTINUOUS
10
128.474
20
-146.912
11
128.569
21
-146.817
0
LINE
8
BLACK
6
CONTINUOUS
10
128.569
20
-146.817
11
128.76
21
-146.721
0
LINE
8
BLACK
6
CONTINUOUS
10
128.76
20
-146.721
11
129.045
21
-146.721
0
LINE
8
BLACK
6
CONTINUOUS
10
129.045
20
-146.721
11
129.236
21
-146.817
0
LINE
8
BLACK
6
CONTINUOUS
10
129.236
20
-146.817
11
129.331
21
-146.912
0
LINE
8
BLACK
6
CONTINUOUS
10
129.331
20
-146.912
11
129.426
21
-147.102
0
LINE
8
BLACK
6
CONTINUOUS
10
129.426
20
-147.102
11
129.426
21
-147.674
0
LINE
8
BLACK
6
CONTINUOUS
10
129.426
20
-147.674
11
129.331
21
-147.864
0
LINE
8
BLACK
6
CONTINUOUS
10
129.331
20
-147.864
11
129.236
21
-147.96
0
LINE
8
BLACK
6
CONTINUOUS
10
129.236
20
-147.96
11
129.045
21
-148.055
0
LINE
8
BLACK
6
CONTINUOUS
10
129.045
20
-148.055
11
128.76
21
-148.055
0
LINE
8
BLACK
6
CONTINUOUS
10
130.569
20
-148.055
11
130.379
21
-147.96
0
LINE
8
BLACK
6
CONTINUOUS
10
130.379
20
-147.96
11
130.283
21
-147.769
0
LINE
8
BLACK
6
CONTINUOUS
10
130.283
20
-147.769
11
130.283
21
-146.055
0
LINE
8
BLACK
6
CONTINUOUS
10
132.093
20
-147.96
11
131.902
21
-148.055
0
LINE
8
BLACK
6
CONTINUOUS
10
131.902
20
-148.055
11
131.521
21
-148.055
0
LINE
8
BLACK
6
CONTINUOUS
10
131.521
20
-148.055
11
131.331
21
-147.96
0
LINE
8
BLACK
6
CONTINUOUS
10
131.331
20
-147.96
11
131.236
21
-147.769
0
LINE
8
BLACK
6
CONTINUOUS
10
131.236
20
-147.769
11
131.236
21
-147.007
0
LINE
8
BLACK
6
CONTINUOUS
10
131.236
20
-147.007
11
131.331
21
-146.817
0
LINE
8
BLACK
6
CONTINUOUS
10
131.331
20
-146.817
11
131.521
21
-146.721
0
LINE
8
BLACK
6
CONTINUOUS
10
131.521
20
-146.721
11
131.902
21
-146.721
0
LINE
8
BLACK
6
CONTINUOUS
10
131.902
20
-146.721
11
132.093
21
-146.817
0
LINE
8
BLACK
6
CONTINUOUS
10
132.093
20
-146.817
11
132.188
21
-147.007
0
LINE
8
BLACK
6
CONTINUOUS
10
132.188
20
-147.007
11
132.188
21
-147.198
0
LINE
8
BLACK
6
CONTINUOUS
10
132.188
20
-147.198
11
131.236
21
-147.388
0
LINE
8
BLACK
6
CONTINUOUS
10
132.95
20
-147.96
11
133.14
21
-148.055
0
LINE
8
BLACK
6
CONTINUOUS
10
133.14
20
-148.055
11
133.521
21
-148.055
0
LINE
8
BLACK
6
CONTINUOUS
10
133.521
20
-148.055
11
133.712
21
-147.96
0
LINE
8
BLACK
6
CONTINUOUS
10
133.712
20
-147.96
11
133.807
21
-147.769
0
LINE
8
BLACK
6
CONTINUOUS
10
133.807
20
-147.769
11
133.807
21
-147.674
0
LINE
8
BLACK
6
CONTINUOUS
10
133.807
20
-147.674
11
133.712
21
-147.483
0
LINE
8
BLACK
6
CONTINUOUS
10
133.712
20
-147.483
11
133.521
21
-147.388
0
LINE
8
BLACK
6
CONTINUOUS
10
133.521
20
-147.388
11
133.236
21
-147.388
0
LINE
8
BLACK
6
CONTINUOUS
10
133.236
20
-147.388
11
133.045
21
-147.293
0
LINE
8
BLACK
6
CONTINUOUS
10
133.045
20
-147.293
11
132.95
21
-147.102
0
LINE
8
BLACK
6
CONTINUOUS
10
132.95
20
-147.102
11
132.95
21
-147.007
0
LINE
8
BLACK
6
CONTINUOUS
10
132.95
20
-147.007
11
133.045
21
-146.817
0
LINE
8
BLACK
6
CONTINUOUS
10
133.045
20
-146.817
11
133.236
21
-146.721
0
LINE
8
BLACK
6
CONTINUOUS
10
133.236
20
-146.721
11
133.521
21
-146.721
0
LINE
8
BLACK
6
CONTINUOUS
10
133.521
20
-146.721
11
133.712
21
-146.817
0
LINE
8
BLACK
6
CONTINUOUS
10
134.474
20
-148.817
11
134.569
21
-148.721
0
LINE
8
BLACK
6
CONTINUOUS
10
134.569
20
-148.721
11
134.76
21
-148.436
0
LINE
8
BLACK
6
CONTINUOUS
10
134.76
20
-148.436
11
134.855
21
-148.245
0
LINE
8
BLACK
6
CONTINUOUS
10
134.855
20
-148.245
11
134.95
21
-147.96
0
LINE
8
BLACK
6
CONTINUOUS
10
134.95
20
-147.96
11
135.045
21
-147.483
0
LINE
8
BLACK
6
CONTINUOUS
10
135.045
20
-147.483
11
135.045
21
-147.102
0
LINE
8
BLACK
6
CONTINUOUS
10
135.045
20
-147.102
11
134.95
21
-146.626
0
LINE
8
BLACK
6
CONTINUOUS
10
134.95
20
-146.626
11
134.855
21
-146.34
0
LINE
8
BLACK
6
CONTINUOUS
10
134.855
20
-146.34
11
134.76
21
-146.15
0
LINE
8
BLACK
6
CONTINUOUS
10
134.76
20
-146.15
11
134.569
21
-145.864
0
LINE
8
BLACK
6
CONTINUOUS
10
134.569
20
-145.864
11
134.474
21
-145.769
0
CIRCLE
8
BLACK
10
84.55
20
-149.79
40
0.3
0
LINE
8
BLACK
6
CONTINUOUS
10
87.8071
20
-148.695
11
87.9976
21
-148.695
0
LINE
8
BLACK
6
CONTINUOUS
10
87.9976
20
-148.695
11
88.1881
21
-148.79
0
LINE
8
BLACK
6
CONTINUOUS
10
88.1881
20
-148.79
11
88.2833
21
-148.885
0
LINE
8
BLACK
6
CONTINUOUS
10
88.2833
20
-148.885
11
88.3786
21
-149.076
0
LINE
8
BLACK
6
CONTINUOUS
10
88.3786
20
-149.076
11
88.4738
21
-149.457
0
LINE
8
BLACK
6
CONTINUOUS
10
88.4738
20
-149.457
11
88.4738
21
-149.933
0
LINE
8
BLACK
6
CONTINUOUS
10
88.4738
20
-149.933
11
88.3786
21
-150.314
0
LINE
8
BLACK
6
CONTINUOUS
10
88.3786
20
-150.314
11
88.2833
21
-150.504
0
LINE
8
BLACK
6
CONTINUOUS
10
88.2833
20
-150.504
11
88.1881
21
-150.6
0
LINE
8
BLACK
6
CONTINUOUS
10
88.1881
20
-150.6
11
87.9976
21
-150.695
0
LINE
8
BLACK
6
CONTINUOUS
10
87.9976
20
-150.695
11
87.8071
21
-150.695
0
LINE
8
BLACK
6
CONTINUOUS
10
87.8071
20
-150.695
11
87.6167
21
-150.6
0
LINE
8
BLACK
6
CONTINUOUS
10
87.6167
20
-150.6
11
87.5214
21
-150.504
0
LINE
8
BLACK
6
CONTINUOUS
10
87.5214
20
-150.504
11
87.4262
21
-150.314
0
LINE
8
BLACK
6
CONTINUOUS
10
87.4262
20
-150.314
11
87.331
21
-149.933
0
LINE
8
BLACK
6
CONTINUOUS
10
87.331
20
-149.933
11
87.331
21
-149.457
0
LINE
8
BLACK
6
CONTINUOUS
10
87.331
20
-149.457
11
87.4262
21
-149.076
0
LINE
8
BLACK
6
CONTINUOUS
10
87.4262
20
-149.076
11
87.5214
21
-148.885
0
LINE
8
BLACK
6
CONTINUOUS
10
87.5214
20
-148.885
11
87.6167
21
-148.79
0
LINE
8
BLACK
6
CONTINUOUS
10
87.6167
20
-148.79
11
87.8071
21
-148.695
0
LINE
8
BLACK
6
CONTINUOUS
10
89.331
20
-150.504
11
89.4262
21
-150.6
0
LINE
8
BLACK
6
CONTINUOUS
10
89.4262
20
-150.6
11
89.331
21
-150.695
0
LINE
8
BLACK
6
CONTINUOUS
10
89.331
20
-150.695
11
89.2357
21
-150.6
0
LINE
8
BLACK
6
CONTINUOUS
10
89.2357
20
-150.6
11
89.331
21
-150.504
0
LINE
8
BLACK
6
CONTINUOUS
10
89.331
20
-150.504
11
89.331
21
-150.695
0
LINE
8
BLACK
6
CONTINUOUS
10
91.1405
20
-148.695
11
90.7595
21
-148.695
0
LINE
8
BLACK
6
CONTINUOUS
10
90.7595
20
-148.695
11
90.569
21
-148.79
0
LINE
8
BLACK
6
CONTINUOUS
10
90.569
20
-148.79
11
90.4738
21
-148.885
0
LINE
8
BLACK
6
CONTINUOUS
10
90.4738
20
-148.885
11
90.2833
21
-149.171
0
LINE
8
BLACK
6
CONTINUOUS
10
90.2833
20
-149.171
11
90.1881
21
-149.552
0
LINE
8
BLACK
6
CONTINUOUS
10
90.1881
20
-149.552
11
90.1881
21
-150.314
0
LINE
8
BLACK
6
CONTINUOUS
10
90.1881
20
-150.314
11
90.2833
21
-150.504
0
LINE
8
BLACK
6
CONTINUOUS
10
90.2833
20
-150.504
11
90.3786
21
-150.6
0
LINE
8
BLACK
6
CONTINUOUS
10
90.3786
20
-150.6
11
90.569
21
-150.695
0
LINE
8
BLACK
6
CONTINUOUS
10
90.569
20
-150.695
11
90.95
21
-150.695
0
LINE
8
BLACK
6
CONTINUOUS
10
90.95
20
-150.695
11
91.1405
21
-150.6
0
LINE
8
BLACK
6
CONTINUOUS
10
91.1405
20
-150.6
11
91.2357
21
-150.504
0
LINE
8
BLACK
6
CONTINUOUS
10
91.2357
20
-150.504
11
91.331
21
-150.314
0
LINE
8
BLACK
6
CONTINUOUS
10
91.331
20
-150.314
11
91.331
21
-149.838
0
LINE
8
BLACK
6
CONTINUOUS
10
91.331
20
-149.838
11
91.2357
21
-149.647
0
LINE
8
BLACK
6
CONTINUOUS
10
91.2357
20
-149.647
11
91.1405
21
-149.552
0
LINE
8
BLACK
6
CONTINUOUS
10
91.1405
20
-149.552
11
90.95
21
-149.457
0
LINE
8
BLACK
6
CONTINUOUS
10
90.95
20
-149.457
11
90.569
21
-149.457
0
LINE
8
BLACK
6
CONTINUOUS
10
90.569
20
-149.457
11
90.3786
21
-149.552
0
LINE
8
BLACK
6
CONTINUOUS
10
90.3786
20
-149.552
11
90.2833
21
-149.647
0
LINE
8
BLACK
6
CONTINUOUS
10
90.2833
20
-149.647
11
90.1881
21
-149.838
0
LINE
8
BLACK
6
CONTINUOUS
10
92.569
20
-148.695
11
92.7595
21
-148.695
0
LINE
8
BLACK
6
CONTINUOUS
10
92.7595
20
-148.695
11
92.95
21
-148.79
0
LINE
8
BLACK
6
CONTINUOUS
10
92.95
20
-148.79
11
93.0452
21
-148.885
0
LINE
8
BLACK
6
CONTINUOUS
10
93.0452
20
-148.885
11
93.1405
21
-149.076
0
LINE
8
BLACK
6
CONTINUOUS
10
93.1405
20
-149.076
11
93.2357
21
-149.457
0
LINE
8
BLACK
6
CONTINUOUS
10
93.2357
20
-149.457
11
93.2357
21
-149.933
0
LINE
8
BLACK
6
CONTINUOUS
10
93.2357
20
-149.933
11
93.1405
21
-150.314
0
LINE
8
BLACK
6
CONTINUOUS
10
93.1405
20
-150.314
11
93.0452
21
-150.504
0
LINE
8
BLACK
6
CONTINUOUS
10
93.0452
20
-150.504
11
92.95
21
-150.6
0
LINE
8
BLACK
6
CONTINUOUS
10
92.95
20
-150.6
11
92.7595
21
-150.695
0
LINE
8
BLACK
6
CONTINUOUS
10
92.7595
20
-150.695
11
92.569
21
-150.695
0
LINE
8
BLACK
6
CONTINUOUS
10
92.569
20
-150.695
11
92.3786
21
-150.6
0
LINE
8
BLACK
6
CONTINUOUS
10
92.3786
20
-150.6
11
92.2833
21
-150.504
0
LINE
8
BLACK
6
CONTINUOUS
10
92.2833
20
-150.504
11
92.1881
21
-150.314
0
LINE
8
BLACK
6
CONTINUOUS
10
92.1881
20
-150.314
11
92.0929
21
-149.933
0
LINE
8
BLACK
6
CONTINUOUS
10
92.0929
20
-149.933
11
92.0929
21
-149.457
0
LINE
8
BLACK
6
CONTINUOUS
10
92.0929
20
-149.457
11
92.1881
21
-149.076
0
LINE
8
BLACK
6
CONTINUOUS
10
92.1881
20
-149.076
11
92.2833
21
-148.885
0
LINE
8
BLACK
6
CONTINUOUS
10
92.2833
20
-148.885
11
92.3786
21
-148.79
0
LINE
8
BLACK
6
CONTINUOUS
10
92.3786
20
-148.79
11
92.569
21
-148.695
0
LINE
8
BLACK
6
CONTINUOUS
10
94.4738
20
-148.695
11
94.6643
21
-148.695
0
LINE
8
BLACK
6
CONTINUOUS
10
94.6643
20
-148.695
11
94.8548
21
-148.79
0
LINE
8
BLACK
6
CONTINUOUS
10
94.8548
20
-148.79
11
94.95
21
-148.885
0
LINE
8
BLACK
6
CONTINUOUS
10
94.95
20
-148.885
11
95.0452
21
-149.076
0
LINE
8
BLACK
6
CONTINUOUS
10
95.0452
20
-149.076
11
95.1405
21
-149.457
0
LINE
8
BLACK
6
CONTINUOUS
10
95.1405
20
-149.457
11
95.1405
21
-149.933
0
LINE
8
BLACK
6
CONTINUOUS
10
95.1405
20
-149.933
11
95.0452
21
-150.314
0
LINE
8
BLACK
6
CONTINUOUS
10
95.0452
20
-150.314
11
94.95
21
-150.504
0
LINE
8
BLACK
6
CONTINUOUS
10
94.95
20
-150.504
11
94.8548
21
-150.6
0
LINE
8
BLACK
6
CONTINUOUS
10
94.8548
20
-150.6
11
94.6643
21
-150.695
0
LINE
8
BLACK
6
CONTINUOUS
10
94.6643
20
-150.695
11
94.4738
21
-150.695
0
LINE
8
BLACK
6
CONTINUOUS
10
94.4738
20
-150.695
11
94.2833
21
-150.6
0
LINE
8
BLACK
6
CONTINUOUS
10
94.2833
20
-150.6
11
94.1881
21
-150.504
0
LINE
8
BLACK
6
CONTINUOUS
10
94.1881
20
-150.504
11
94.0929
21
-150.314
0
LINE
8
BLACK
6
CONTINUOUS
10
94.0929
20
-150.314
11
93.9976
21
-149.933
0
LINE
8
BLACK
6
CONTINUOUS
10
93.9976
20
-149.933
11
93.9976
21
-149.457
0
LINE
8
BLACK
6
CONTINUOUS
10
93.9976
20
-149.457
11
94.0929
21
-149.076
0
LINE
8
BLACK
6
CONTINUOUS
10
94.0929
20
-149.076
11
94.1881
21
-148.885
0
LINE
8
BLACK
6
CONTINUOUS
10
94.1881
20
-148.885
11
94.2833
21
-148.79
0
LINE
8
BLACK
6
CONTINUOUS
10
94.2833
20
-148.79
11
94.4738
21
-148.695
0
LINE
8
BLACK
6
CONTINUOUS
10
95.9976
20
-150.695
11
95.9976
21
-149.361
0
LINE
8
BLACK
6
CONTINUOUS
10
95.9976
20
-149.552
11
96.0929
21
-149.457
0
LINE
8
BLACK
6
CONTINUOUS
10
96.0929
20
-149.457
11
96.2833
21
-149.361
0
LINE
8
BLACK
6
CONTINUOUS
10
96.2833
20
-149.361
11
96.569
21
-149.361
0
LINE
8
BLACK
6
CONTINUOUS
10
96.569
20
-149.361
11
96.7595
21
-149.457
0
LINE
8
BLACK
6
CONTINUOUS
10
96.7595
20
-149.457
11
96.8548
21
-149.647
0
LINE
8
BLACK
6
CONTINUOUS
10
96.8548
20
-149.647
11
96.8548
21
-150.695
0
LINE
8
BLACK
6
CONTINUOUS
10
96.8548
20
-149.647
11
96.95
21
-149.457
0
LINE
8
BLACK
6
CONTINUOUS
10
96.95
20
-149.457
11
97.1405
21
-149.361
0
LINE
8
BLACK
6
CONTINUOUS
10
97.1405
20
-149.361
11
97.4262
21
-149.361
0
LINE
8
BLACK
6
CONTINUOUS
10
97.4262
20
-149.361
11
97.6167
21
-149.457
0
LINE
8
BLACK
6
CONTINUOUS
10
97.6167
20
-149.457
11
97.7119
21
-149.647
0
LINE
8
BLACK
6
CONTINUOUS
10
97.7119
20
-149.647
11
97.7119
21
-150.695
0
LINE
8
BLACK
6
CONTINUOUS
10
98.6643
20
-150.695
11
98.6643
21
-149.361
0
LINE
8
BLACK
6
CONTINUOUS
10
98.6643
20
-149.552
11
98.7595
21
-149.457
0
LINE
8
BLACK
6
CONTINUOUS
10
98.7595
20
-149.457
11
98.95
21
-149.361
0
LINE
8
BLACK
6
CONTINUOUS
10
98.95
20
-149.361
11
99.2357
21
-149.361
0
LINE
8
BLACK
6
CONTINUOUS
10
99.2357
20
-149.361
11
99.4262
21
-149.457
0
LINE
8
BLACK
6
CONTINUOUS
10
99.4262
20
-149.457
11
99.5214
21
-149.647
0
LINE
8
BLACK
6
CONTINUOUS
10
99.5214
20
-149.647
11
99.5214
21
-150.695
0
LINE
8
BLACK
6
CONTINUOUS
10
99.5214
20
-149.647
11
99.6167
21
-149.457
0
LINE
8
BLACK
6
CONTINUOUS
10
99.6167
20
-149.457
11
99.8071
21
-149.361
0
LINE
8
BLACK
6
CONTINUOUS
10
99.8071
20
-149.361
11
100.093
21
-149.361
0
LINE
8
BLACK
6
CONTINUOUS
10
100.093
20
-149.361
11
100.283
21
-149.457
0
LINE
8
BLACK
6
CONTINUOUS
10
100.283
20
-149.457
11
100.379
21
-149.647
0
LINE
8
BLACK
6
CONTINUOUS
10
100.379
20
-149.647
11
100.379
21
-150.695
0
LINE
8
BLACK
6
CONTINUOUS
10
104.283
20
-148.6
11
102.569
21
-151.171
0
LINE
8
BLACK
6
CONTINUOUS
10
106.855
20
-148.695
11
107.045
21
-148.695
0
LINE
8
BLACK
6
CONTINUOUS
10
107.045
20
-148.695
11
107.236
21
-148.79
0
LINE
8
BLACK
6
CONTINUOUS
10
107.236
20
-148.79
11
107.331
21
-148.885
0
LINE
8
BLACK
6
CONTINUOUS
10
107.331
20
-148.885
11
107.426
21
-149.076
0
LINE
8
BLACK
6
CONTINUOUS
10
107.426
20
-149.076
11
107.521
21
-149.457
0
LINE
8
BLACK
6
CONTINUOUS
10
107.521
20
-149.457
11
107.521
21
-149.933
0
LINE
8
BLACK
6
CONTINUOUS
10
107.521
20
-149.933
11
107.426
21
-150.314
0
LINE
8
BLACK
6
CONTINUOUS
10
107.426
20
-150.314
11
107.331
21
-150.504
0
LINE
8
BLACK
6
CONTINUOUS
10
107.331
20
-150.504
11
107.236
21
-150.6
0
LINE
8
BLACK
6
CONTINUOUS
10
107.236
20
-150.6
11
107.045
21
-150.695
0
LINE
8
BLACK
6
CONTINUOUS
10
107.045
20
-150.695
11
106.855
21
-150.695
0
LINE
8
BLACK
6
CONTINUOUS
10
106.855
20
-150.695
11
106.664
21
-150.6
0
LINE
8
BLACK
6
CONTINUOUS
10
106.664
20
-150.6
11
106.569
21
-150.504
0
LINE
8
BLACK
6
CONTINUOUS
10
106.569
20
-150.504
11
106.474
21
-150.314
0
LINE
8
BLACK
6
CONTINUOUS
10
106.474
20
-150.314
11
106.379
21
-149.933
0
LINE
8
BLACK
6
CONTINUOUS
10
106.379
20
-149.933
11
106.379
21
-149.457
0
LINE
8
BLACK
6
CONTINUOUS
10
106.379
20
-149.457
11
106.474
21
-149.076
0
LINE
8
BLACK
6
CONTINUOUS
10
106.474
20
-149.076
11
106.569
21
-148.885
0
LINE
8
BLACK
6
CONTINUOUS
10
106.569
20
-148.885
11
106.664
21
-148.79
0
LINE
8
BLACK
6
CONTINUOUS
10
106.664
20
-148.79
11
106.855
21
-148.695
0
LINE
8
BLACK
6
CONTINUOUS
10
108.379
20
-150.504
11
108.474
21
-150.6
0
LINE
8
BLACK
6
CONTINUOUS
10
108.474
20
-150.6
11
108.379
21
-150.695
0
LINE
8
BLACK
6
CONTINUOUS
10
108.379
20
-150.695
11
108.283
21
-150.6
0
LINE
8
BLACK
6
CONTINUOUS
10
108.283
20
-150.6
11
108.379
21
-150.504
0
LINE
8
BLACK
6
CONTINUOUS
10
108.379
20
-150.504
11
108.379
21
-150.695
0
LINE
8
BLACK
6
CONTINUOUS
10
109.712
20
-148.695
11
109.902
21
-148.695
0
LINE
8
BLACK
6
CONTINUOUS
10
109.902
20
-148.695
11
110.093
21
-148.79
0
LINE
8
BLACK
6
CONTINUOUS
10
110.093
20
-148.79
11
110.188
21
-148.885
0
LINE
8
BLACK
6
CONTINUOUS
10
110.188
20
-148.885
11
110.283
21
-149.076
0
LINE
8
BLACK
6
CONTINUOUS
10
110.283
20
-149.076
11
110.379
21
-149.457
0
LINE
8
BLACK
6
CONTINUOUS
10
110.379
20
-149.457
11
110.379
21
-149.933
0
LINE
8
BLACK
6
CONTINUOUS
10
110.379
20
-149.933
11
110.283
21
-150.314
0
LINE
8
BLACK
6
CONTINUOUS
10
110.283
20
-150.314
11
110.188
21
-150.504
0
LINE
8
BLACK
6
CONTINUOUS
10
110.188
20
-150.504
11
110.093
21
-150.6
0
LINE
8
BLACK
6
CONTINUOUS
10
110.093
20
-150.6
11
109.902
21
-150.695
0
LINE
8
BLACK
6
CONTINUOUS
10
109.902
20
-150.695
11
109.712
21
-150.695
0
LINE
8
BLACK
6
CONTINUOUS
10
109.712
20
-150.695
11
109.521
21
-150.6
0
LINE
8
BLACK
6
CONTINUOUS
10
109.521
20
-150.6
11
109.426
21
-150.504
0
LINE
8
BLACK
6
CONTINUOUS
10
109.426
20
-150.504
11
109.331
21
-150.314
0
LINE
8
BLACK
6
CONTINUOUS
10
109.331
20
-150.314
11
109.236
21
-149.933
0
LINE
8
BLACK
6
CONTINUOUS
10
109.236
20
-149.933
11
109.236
21
-149.457
0
LINE
8
BLACK
6
CONTINUOUS
10
109.236
20
-149.457
11
109.331
21
-149.076
0
LINE
8
BLACK
6
CONTINUOUS
10
109.331
20
-149.076
11
109.426
21
-148.885
0
LINE
8
BLACK
6
CONTINUOUS
10
109.426
20
-148.885
11
109.521
21
-148.79
0
LINE
8
BLACK
6
CONTINUOUS
10
109.521
20
-148.79
11
109.712
21
-148.695
0
LINE
8
BLACK
6
CONTINUOUS
10
111.14
20
-148.885
11
111.236
21
-148.79
0
LINE
8
BLACK
6
CONTINUOUS
10
111.236
20
-148.79
11
111.426
21
-148.695
0
LINE
8
BLACK
6
CONTINUOUS
10
111.426
20
-148.695
11
111.902
21
-148.695
0
LINE
8
BLACK
6
CONTINUOUS
10
111.902
20
-148.695
11
112.093
21
-148.79
0
LINE
8
BLACK
6
CONTINUOUS
10
112.093
20
-148.79
11
112.188
21
-148.885
0
LINE
8
BLACK
6
CONTINUOUS
10
112.188
20
-148.885
11
112.283
21
-149.076
0
LINE
8
BLACK
6
CONTINUOUS
10
112.283
20
-149.076
11
112.283
21
-149.266
0
LINE
8
BLACK
6
CONTINUOUS
10
112.283
20
-149.266
11
112.188
21
-149.552
0
LINE
8
BLACK
6
CONTINUOUS
10
112.188
20
-149.552
11
111.045
21
-150.695
0
LINE
8
BLACK
6
CONTINUOUS
10
111.045
20
-150.695
11
112.283
21
-150.695
0
LINE
8
BLACK
6
CONTINUOUS
10
112.95
20
-148.695
11
114.188
21
-148.695
0
LINE
8
BLACK
6
CONTINUOUS
10
114.188
20
-148.695
11
113.521
21
-149.457
0
LINE
8
BLACK
6
CONTINUOUS
10
113.521
20
-149.457
11
113.807
21
-149.457
0
LINE
8
BLACK
6
CONTINUOUS
10
113.807
20
-149.457
11
113.998
21
-149.552
0
LINE
8
BLACK
6
CONTINUOUS
10
113.998
20
-149.552
11
114.093
21
-149.647
0
LINE
8
BLACK
6
CONTINUOUS
10
114.093
20
-149.647
11
114.188
21
-149.838
0
LINE
8
BLACK
6
CONTINUOUS
10
114.188
20
-149.838
11
114.188
21
-150.314
0
LINE
8
BLACK
6
CONTINUOUS
10
114.188
20
-150.314
11
114.093
21
-150.504
0
LINE
8
BLACK
6
CONTINUOUS
10
114.093
20
-150.504
11
113.998
21
-150.6
0
LINE
8
BLACK
6
CONTINUOUS
10
113.998
20
-150.6
11
113.807
21
-150.695
0
LINE
8
BLACK
6
CONTINUOUS
10
113.807
20
-150.695
11
113.236
21
-150.695
0
LINE
8
BLACK
6
CONTINUOUS
10
113.236
20
-150.695
11
113.045
21
-150.6
0
LINE
8
BLACK
6
CONTINUOUS
10
113.045
20
-150.6
11
112.95
21
-150.504
0
LINE
8
BLACK
6
CONTINUOUS
10
115.902
20
-148.695
11
115.521
21
-148.695
0
LINE
8
BLACK
6
CONTINUOUS
10
115.521
20
-148.695
11
115.331
21
-148.79
0
LINE
8
BLACK
6
CONTINUOUS
10
115.331
20
-148.79
11
115.236
21
-148.885
0
LINE
8
BLACK
6
CONTINUOUS
10
115.236
20
-148.885
11
115.045
21
-149.171
0
LINE
8
BLACK
6
CONTINUOUS
10
115.045
20
-149.171
11
114.95
21
-149.552
0
LINE
8
BLACK
6
CONTINUOUS
10
114.95
20
-149.552
11
114.95
21
-150.314
0
LINE
8
BLACK
6
CONTINUOUS
10
114.95
20
-150.314
11
115.045
21
-150.504
0
LINE
8
BLACK
6
CONTINUOUS
10
115.045
20
-150.504
11
115.14
21
-150.6
0
LINE
8
BLACK
6
CONTINUOUS
10
115.14
20
-150.6
11
115.331
21
-150.695
0
LINE
8
BLACK
6
CONTINUOUS
10
115.331
20
-150.695
11
115.712
21
-150.695
0
LINE
8
BLACK
6
CONTINUOUS
10
115.712
20
-150.695
11
115.902
21
-150.6
0
LINE
8
BLACK
6
CONTINUOUS
10
115.902
20
-150.6
11
115.998
21
-150.504
0
LINE
8
BLACK
6
CONTINUOUS
10
115.998
20
-150.504
11
116.093
21
-150.314
0
LINE
8
BLACK
6
CONTINUOUS
10
116.093
20
-150.314
11
116.093
21
-149.838
0
LINE
8
BLACK
6
CONTINUOUS
10
116.093
20
-149.838
11
115.998
21
-149.647
0
LINE
8
BLACK
6
CONTINUOUS
10
115.998
20
-149.647
11
115.902
21
-149.552
0
LINE
8
BLACK
6
CONTINUOUS
10
115.902
20
-149.552
11
115.712
21
-149.457
0
LINE
8
BLACK
6
CONTINUOUS
10
115.712
20
-149.457
11
115.331
21
-149.457
0
LINE
8
BLACK
6
CONTINUOUS
10
115.331
20
-149.457
11
115.14
21
-149.552
0
LINE
8
BLACK
6
CONTINUOUS
10
115.14
20
-149.552
11
115.045
21
-149.647
0
LINE
8
BLACK
6
CONTINUOUS
10
115.045
20
-149.647
11
114.95
21
-149.838
0
LINE
8
BLACK
6
CONTINUOUS
10
116.855
20
-148.695
11
116.855
21
-149.076
0
LINE
8
BLACK
6
CONTINUOUS
10
117.617
20
-148.695
11
117.617
21
-149.076
0
LINE
8
BLACK
6
CONTINUOUS
10
120.569
20
-151.457
11
120.474
21
-151.361
0
LINE
8
BLACK
6
CONTINUOUS
10
120.474
20
-151.361
11
120.283
21
-151.076
0
LINE
8
BLACK
6
CONTINUOUS
10
120.283
20
-151.076
11
120.188
21
-150.885
0
LINE
8
BLACK
6
CONTINUOUS
10
120.188
20
-150.885
11
120.093
21
-150.6
0
LINE
8
BLACK
6
CONTINUOUS
10
120.093
20
-150.6
11
119.998
21
-150.123
0
LINE
8
BLACK
6
CONTINUOUS
10
119.998
20
-150.123
11
119.998
21
-149.742
0
LINE
8
BLACK
6
CONTINUOUS
10
119.998
20
-149.742
11
120.093
21
-149.266
0
LINE
8
BLACK
6
CONTINUOUS
10
120.093
20
-149.266
11
120.188
21
-148.98
0
LINE
8
BLACK
6
CONTINUOUS
10
120.188
20
-148.98
11
120.283
21
-148.79
0
LINE
8
BLACK
6
CONTINUOUS
10
120.283
20
-148.79
11
120.474
21
-148.504
0
LINE
8
BLACK
6
CONTINUOUS
10
120.474
20
-148.504
11
120.569
21
-148.409
0
LINE
8
BLACK
6
CONTINUOUS
10
121.712
20
-148.695
11
121.902
21
-148.695
0
LINE
8
BLACK
6
CONTINUOUS
10
121.902
20
-148.695
11
122.093
21
-148.79
0
LINE
8
BLACK
6
CONTINUOUS
10
122.093
20
-148.79
11
122.188
21
-148.885
0
LINE
8
BLACK
6
CONTINUOUS
10
122.188
20
-148.885
11
122.283
21
-149.076
0
LINE
8
BLACK
6
CONTINUOUS
10
122.283
20
-149.076
11
122.379
21
-149.457
0
LINE
8
BLACK
6
CONTINUOUS
10
122.379
20
-149.457
11
122.379
21
-149.933
0
LINE
8
BLACK
6
CONTINUOUS
10
122.379
20
-149.933
11
122.283
21
-150.314
0
LINE
8
BLACK
6
CONTINUOUS
10
122.283
20
-150.314
11
122.188
21
-150.504
0
LINE
8
BLACK
6
CONTINUOUS
10
122.188
20
-150.504
11
122.093
21
-150.6
0
LINE
8
BLACK
6
CONTINUOUS
10
122.093
20
-150.6
11
121.902
21
-150.695
0
LINE
8
BLACK
6
CONTINUOUS
10
121.902
20
-150.695
11
121.712
21
-150.695
0
LINE
8
BLACK
6
CONTINUOUS
10
121.712
20
-150.695
11
121.521
21
-150.6
0
LINE
8
BLACK
6
CONTINUOUS
10
121.521
20
-150.6
11
121.426
21
-150.504
0
LINE
8
BLACK
6
CONTINUOUS
10
121.426
20
-150.504
11
121.331
21
-150.314
0
LINE
8
BLACK
6
CONTINUOUS
10
121.331
20
-150.314
11
121.236
21
-149.933
0
LINE
8
BLACK
6
CONTINUOUS
10
121.236
20
-149.933
11
121.236
21
-149.457
0
LINE
8
BLACK
6
CONTINUOUS
10
121.236
20
-149.457
11
121.331
21
-149.076
0
LINE
8
BLACK
6
CONTINUOUS
10
121.331
20
-149.076
11
121.426
21
-148.885
0
LINE
8
BLACK
6
CONTINUOUS
10
121.426
20
-148.885
11
121.521
21
-148.79
0
LINE
8
BLACK
6
CONTINUOUS
10
121.521
20
-148.79
11
121.712
21
-148.695
0
LINE
8
BLACK
6
CONTINUOUS
10
124.76
20
-150.695
11
124.76
21
-148.695
0
LINE
8
BLACK
6
CONTINUOUS
10
125.617
20
-150.695
11
125.617
21
-149.647
0
LINE
8
BLACK
6
CONTINUOUS
10
125.617
20
-149.647
11
125.521
21
-149.457
0
LINE
8
BLACK
6
CONTINUOUS
10
125.521
20
-149.457
11
125.331
21
-149.361
0
LINE
8
BLACK
6
CONTINUOUS
10
125.331
20
-149.361
11
125.045
21
-149.361
0
LINE
8
BLACK
6
CONTINUOUS
10
125.045
20
-149.361
11
124.855
21
-149.457
0
LINE
8
BLACK
6
CONTINUOUS
10
124.855
20
-149.457
11
124.76
21
-149.552
0
LINE
8
BLACK
6
CONTINUOUS
10
126.855
20
-150.695
11
126.664
21
-150.6
0
LINE
8
BLACK
6
CONTINUOUS
10
126.664
20
-150.6
11
126.569
21
-150.504
0
LINE
8
BLACK
6
CONTINUOUS
10
126.569
20
-150.504
11
126.474
21
-150.314
0
LINE
8
BLACK
6
CONTINUOUS
10
126.474
20
-150.314
11
126.474
21
-149.742
0
LINE
8
BLACK
6
CONTINUOUS
10
126.474
20
-149.742
11
126.569
21
-149.552
0
LINE
8
BLACK
6
CONTINUOUS
10
126.569
20
-149.552
11
126.664
21
-149.457
0
LINE
8
BLACK
6
CONTINUOUS
10
126.664
20
-149.457
11
126.855
21
-149.361
0
LINE
8
BLACK
6
CONTINUOUS
10
126.855
20
-149.361
11
127.14
21
-149.361
0
LINE
8
BLACK
6
CONTINUOUS
10
127.14
20
-149.361
11
127.331
21
-149.457
0
LINE
8
BLACK
6
CONTINUOUS
10
127.331
20
-149.457
11
127.426
21
-149.552
0
LINE
8
BLACK
6
CONTINUOUS
10
127.426
20
-149.552
11
127.521
21
-149.742
0
LINE
8
BLACK
6
CONTINUOUS
10
127.521
20
-149.742
11
127.521
21
-150.314
0
LINE
8
BLACK
6
CONTINUOUS
10
127.521
20
-150.314
11
127.426
21
-150.504
0
LINE
8
BLACK
6
CONTINUOUS
10
127.426
20
-150.504
11
127.331
21
-150.6
0
LINE
8
BLACK
6
CONTINUOUS
10
127.331
20
-150.6
11
127.14
21
-150.695
0
LINE
8
BLACK
6
CONTINUOUS
10
127.14
20
-150.695
11
126.855
21
-150.695
0
LINE
8
BLACK
6
CONTINUOUS
10
128.664
20
-150.695
11
128.474
21
-150.6
0
LINE
8
BLACK
6
CONTINUOUS
10
128.474
20
-150.6
11
128.379
21
-150.409
0
LINE
8
BLACK
6
CONTINUOUS
10
128.379
20
-150.409
11
128.379
21
-148.695
0
LINE
8
BLACK
6
CONTINUOUS
10
130.188
20
-150.6
11
129.998
21
-150.695
0
LINE
8
BLACK
6
CONTINUOUS
10
129.998
20
-150.695
11
129.617
21
-150.695
0
LINE
8
BLACK
6
CONTINUOUS
10
129.617
20
-150.695
11
129.426
21
-150.6
0
LINE
8
BLACK
6
CONTINUOUS
10
129.426
20
-150.6
11
129.331
21
-150.409
0
LINE
8
BLACK
6
CONTINUOUS
10
129.331
20
-150.409
11
129.331
21
-149.647
0
LINE
8
BLACK
6
CONTINUOUS
10
129.331
20
-149.647
11
129.426
21
-149.457
0
LINE
8
BLACK
6
CONTINUOUS
10
129.426
20
-149.457
11
129.617
21
-149.361
0
LINE
8
BLACK
6
CONTINUOUS
10
129.617
20
-149.361
11
129.998
21
-149.361
0
LINE
8
BLACK
6
CONTINUOUS
10
129.998
20
-149.361
11
130.188
21
-149.457
0
LINE
8
BLACK
6
CONTINUOUS
10
130.188
20
-149.457
11
130.283
21
-149.647
0
LINE
8
BLACK
6
CONTINUOUS
10
130.283
20
-149.647
11
130.283
21
-149.838
0
LINE
8
BLACK
6
CONTINUOUS
10
130.283
20
-149.838
11
129.331
21
-150.028
0
LINE
8
BLACK
6
CONTINUOUS
10
131.045
20
-150.6
11
131.236
21
-150.695
0
LINE
8
BLACK
6
CONTINUOUS
10
131.236
20
-150.695
11
131.617
21
-150.695
0
LINE
8
BLACK
6
CONTINUOUS
10
131.617
20
-150.695
11
131.807
21
-150.6
0
LINE
8
BLACK
6
CONTINUOUS
10
131.807
20
-150.6
11
131.902
21
-150.409
0
LINE
8
BLACK
6
CONTINUOUS
10
131.902
20
-150.409
11
131.902
21
-150.314
0
LINE
8
BLACK
6
CONTINUOUS
10
131.902
20
-150.314
11
131.807
21
-150.123
0
LINE
8
BLACK
6
CONTINUOUS
10
131.807
20
-150.123
11
131.617
21
-150.028
0
LINE
8
BLACK
6
CONTINUOUS
10
131.617
20
-150.028
11
131.331
21
-150.028
0
LINE
8
BLACK
6
CONTINUOUS
10
131.331
20
-150.028
11
131.14
21
-149.933
0
LINE
8
BLACK
6
CONTINUOUS
10
131.14
20
-149.933
11
131.045
21
-149.742
0
LINE
8
BLACK
6
CONTINUOUS
10
131.045
20
-149.742
11
131.045
21
-149.647
0
LINE
8
BLACK
6
CONTINUOUS
10
131.045
20
-149.647
11
131.14
21
-149.457
0
LINE
8
BLACK
6
CONTINUOUS
10
131.14
20
-149.457
11
131.331
21
-149.361
0
LINE
8
BLACK
6
CONTINUOUS
10
131.331
20
-149.361
11
131.617
21
-149.361
0
LINE
8
BLACK
6
CONTINUOUS
10
131.617
20
-149.361
11
131.807
21
-149.457
0
LINE
8
BLACK
6
CONTINUOUS
10
134.283
20
-149.933
11
135.807
21
-149.933
0
LINE
8
BLACK
6
CONTINUOUS
10
135.045
20
-150.695
11
135.045
21
-149.171
0
LINE
8
BLACK
6
CONTINUOUS
10
139.14
20
-149.361
11
139.14
21
-150.695
0
LINE
8
BLACK
6
CONTINUOUS
10
138.664
20
-148.6
11
138.188
21
-150.028
0
LINE
8
BLACK
6
CONTINUOUS
10
138.188
20
-150.028
11
139.426
21
-150.028
0
LINE
8
BLACK
6
CONTINUOUS
10
141.617
20
-150.6
11
141.807
21
-150.695
0
LINE
8
BLACK
6
CONTINUOUS
10
141.807
20
-150.695
11
142.188
21
-150.695
0
LINE
8
BLACK
6
CONTINUOUS
10
142.188
20
-150.695
11
142.379
21
-150.6
0
LINE
8
BLACK
6
CONTINUOUS
10
142.379
20
-150.6
11
142.474
21
-150.409
0
LINE
8
BLACK
6
CONTINUOUS
10
142.474
20
-150.409
11
142.474
21
-150.314
0
LINE
8
BLACK
6
CONTINUOUS
10
142.474
20
-150.314
11
142.379
21
-150.123
0
LINE
8
BLACK
6
CONTINUOUS
10
142.379
20
-150.123
11
142.188
21
-150.028
0
LINE
8
BLACK
6
CONTINUOUS
10
142.188
20
-150.028
11
141.902
21
-150.028
0
LINE
8
BLACK
6
CONTINUOUS
10
141.902
20
-150.028
11
141.712
21
-149.933
0
LINE
8
BLACK
6
CONTINUOUS
10
141.712
20
-149.933
11
141.617
21
-149.742
0
LINE
8
BLACK
6
CONTINUOUS
10
141.617
20
-149.742
11
141.617
21
-149.647
0
LINE
8
BLACK
6
CONTINUOUS
10
141.617
20
-149.647
11
141.712
21
-149.457
0
LINE
8
BLACK
6
CONTINUOUS
10
141.712
20
-149.457
11
141.902
21
-149.361
0
LINE
8
BLACK
6
CONTINUOUS
10
141.902
20
-149.361
11
142.188
21
-149.361
0
LINE
8
BLACK
6
CONTINUOUS
10
142.188
20
-149.361
11
142.379
21
-149.457
0
LINE
8
BLACK
6
CONTINUOUS
10
143.617
20
-150.695
11
143.426
21
-150.6
0
LINE
8
BLACK
6
CONTINUOUS
10
143.426
20
-150.6
11
143.331
21
-150.409
0
LINE
8
BLACK
6
CONTINUOUS
10
143.331
20
-150.409
11
143.331
21
-148.695
0
LINE
8
BLACK
6
CONTINUOUS
10
144.664
20
-150.695
11
144.474
21
-150.6
0
LINE
8
BLACK
6
CONTINUOUS
10
144.474
20
-150.6
11
144.379
21
-150.504
0
LINE
8
BLACK
6
CONTINUOUS
10
144.379
20
-150.504
11
144.283
21
-150.314
0
LINE
8
BLACK
6
CONTINUOUS
10
144.283
20
-150.314
11
144.283
21
-149.742
0
LINE
8
BLACK
6
CONTINUOUS
10
144.283
20
-149.742
11
144.379
21
-149.552
0
LINE
8
BLACK
6
CONTINUOUS
10
144.379
20
-149.552
11
144.474
21
-149.457
0
LINE
8
BLACK
6
CONTINUOUS
10
144.474
20
-149.457
11
144.664
21
-149.361
0
LINE
8
BLACK
6
CONTINUOUS
10
144.664
20
-149.361
11
144.95
21
-149.361
0
LINE
8
BLACK
6
CONTINUOUS
10
144.95
20
-149.361
11
145.14
21
-149.457
0
LINE
8
BLACK
6
CONTINUOUS
10
145.14
20
-149.457
11
145.236
21
-149.552
0
LINE
8
BLACK
6
CONTINUOUS
10
145.236
20
-149.552
11
145.331
21
-149.742
0
LINE
8
BLACK
6
CONTINUOUS
10
145.331
20
-149.742
11
145.331
21
-150.314
0
LINE
8
BLACK
6
CONTINUOUS
10
145.331
20
-150.314
11
145.236
21
-150.504
0
LINE
8
BLACK
6
CONTINUOUS
10
145.236
20
-150.504
11
145.14
21
-150.6
0
LINE
8
BLACK
6
CONTINUOUS
10
145.14
20
-150.6
11
144.95
21
-150.695
0
LINE
8
BLACK
6
CONTINUOUS
10
144.95
20
-150.695
11
144.664
21
-150.695
0
LINE
8
BLACK
6
CONTINUOUS
10
145.902
20
-149.361
11
146.664
21
-149.361
0
LINE
8
BLACK
6
CONTINUOUS
10
146.188
20
-148.695
11
146.188
21
-150.409
0
LINE
8
BLACK
6
CONTINUOUS
10
146.188
20
-150.409
11
146.283
21
-150.6
0
LINE
8
BLACK
6
CONTINUOUS
10
146.283
20
-150.6
11
146.474
21
-150.695
0
LINE
8
BLACK
6
CONTINUOUS
10
146.474
20
-150.695
11
146.664
21
-150.695
0
LINE
8
BLACK
6
CONTINUOUS
10
147.236
20
-150.6
11
147.426
21
-150.695
0
LINE
8
BLACK
6
CONTINUOUS
10
147.426
20
-150.695
11
147.807
21
-150.695
0
LINE
8
BLACK
6
CONTINUOUS
10
147.807
20
-150.695
11
147.998
21
-150.6
0
LINE
8
BLACK
6
CONTINUOUS
10
147.998
20
-150.6
11
148.093
21
-150.409
0
LINE
8
BLACK
6
CONTINUOUS
10
148.093
20
-150.409
11
148.093
21
-150.314
0
LINE
8
BLACK
6
CONTINUOUS
10
148.093
20
-150.314
11
147.998
21
-150.123
0
LINE
8
BLACK
6
CONTINUOUS
10
147.998
20
-150.123
11
147.807
21
-150.028
0
LINE
8
BLACK
6
CONTINUOUS
10
147.807
20
-150.028
11
147.521
21
-150.028
0
LINE
8
BLACK
6
CONTINUOUS
10
147.521
20
-150.028
11
147.331
21
-149.933
0
LINE
8
BLACK
6
CONTINUOUS
10
147.331
20
-149.933
11
147.236
21
-149.742
0
LINE
8
BLACK
6
CONTINUOUS
10
147.236
20
-149.742
11
147.236
21
-149.647
0
LINE
8
BLACK
6
CONTINUOUS
10
147.236
20
-149.647
11
147.331
21
-149.457
0
LINE
8
BLACK
6
CONTINUOUS
10
147.331
20
-149.457
11
147.521
21
-149.361
0
LINE
8
BLACK
6
CONTINUOUS
10
147.521
20
-149.361
11
147.807
21
-149.361
0
LINE
8
BLACK
6
CONTINUOUS
10
147.807
20
-149.361
11
147.998
21
-149.457
0
LINE
8
BLACK
6
CONTINUOUS
10
148.76
20
-151.457
11
148.855
21
-151.361
0
LINE
8
BLACK
6
CONTINUOUS
10
148.855
20
-151.361
11
149.045
21
-151.076
0
LINE
8
BLACK
6
CONTINUOUS
10
149.045
20
-151.076
11
149.14
21
-150.885
0
LINE
8
BLACK
6
CONTINUOUS
10
149.14
20
-150.885
11
149.236
21
-150.6
0
LINE
8
BLACK
6
CONTINUOUS
10
149.236
20
-150.6
11
149.331
21
-150.123
0
LINE
8
BLACK
6
CONTINUOUS
10
149.331
20
-150.123
11
149.331
21
-149.742
0
LINE
8
BLACK
6
CONTINUOUS
10
149.331
20
-149.742
11
149.236
21
-149.266
0
LINE
8
BLACK
6
CONTINUOUS
10
149.236
20
-149.266
11
149.14
21
-148.98
0
LINE
8
BLACK
6
CONTINUOUS
10
149.14
20
-148.98
11
149.045
21
-148.79
0
LINE
8
BLACK
6
CONTINUOUS
10
149.045
20
-148.79
11
148.855
21
-148.504
0
LINE
8
BLACK
6
CONTINUOUS
10
148.855
20
-148.504
11
148.76
21
-148.409
0
LINE
8
BLACK
6
CONTINUOUS
10
84.5
20
-152.08
11
84.5
21
-152.78
0
LINE
8
BLACK
6
CONTINUOUS
10
84.15
20
-152.43
11
84.85
21
-152.43
0
LINE
8
BLACK
6
CONTINUOUS
10
87.8071
20
-151.335
11
87.9976
21
-151.335
0
LINE
8
BLACK
6
CONTINUOUS
10
87.9976
20
-151.335
11
88.1881
21
-151.43
0
LINE
8
BLACK
6
CONTINUOUS
10
88.1881
20
-151.43
11
88.2833
21
-151.525
0
LINE
8
BLACK
6
CONTINUOUS
10
88.2833
20
-151.525
11
88.3786
21
-151.716
0
LINE
8
BLACK
6
CONTINUOUS
10
88.3786
20
-151.716
11
88.4738
21
-152.097
0
LINE
8
BLACK
6
CONTINUOUS
10
88.4738
20
-152.097
11
88.4738
21
-152.573
0
LINE
8
BLACK
6
CONTINUOUS
10
88.4738
20
-152.573
11
88.3786
21
-152.954
0
LINE
8
BLACK
6
CONTINUOUS
10
88.3786
20
-152.954
11
88.2833
21
-153.144
0
LINE
8
BLACK
6
CONTINUOUS
10
88.2833
20
-153.144
11
88.1881
21
-153.24
0
LINE
8
BLACK
6
CONTINUOUS
10
88.1881
20
-153.24
11
87.9976
21
-153.335
0
LINE
8
BLACK
6
CONTINUOUS
10
87.9976
20
-153.335
11
87.8071
21
-153.335
0
LINE
8
BLACK
6
CONTINUOUS
10
87.8071
20
-153.335
11
87.6167
21
-153.24
0
LINE
8
BLACK
6
CONTINUOUS
10
87.6167
20
-153.24
11
87.5214
21
-153.144
0
LINE
8
BLACK
6
CONTINUOUS
10
87.5214
20
-153.144
11
87.4262
21
-152.954
0
LINE
8
BLACK
6
CONTINUOUS
10
87.4262
20
-152.954
11
87.331
21
-152.573
0
LINE
8
BLACK
6
CONTINUOUS
10
87.331
20
-152.573
11
87.331
21
-152.097
0
LINE
8
BLACK
6
CONTINUOUS
10
87.331
20
-152.097
11
87.4262
21
-151.716
0
LINE
8
BLACK
6
CONTINUOUS
10
87.4262
20
-151.716
11
87.5214
21
-151.525
0
LINE
8
BLACK
6
CONTINUOUS
10
87.5214
20
-151.525
11
87.6167
21
-151.43
0
LINE
8
BLACK
6
CONTINUOUS
10
87.6167
20
-151.43
11
87.8071
21
-151.335
0
LINE
8
BLACK
6
CONTINUOUS
10
89.331
20
-153.144
11
89.4262
21
-153.24
0
LINE
8
BLACK
6
CONTINUOUS
10
89.4262
20
-153.24
11
89.331
21
-153.335
0
LINE
8
BLACK
6
CONTINUOUS
10
89.331
20
-153.335
11
89.2357
21
-153.24
0
LINE
8
BLACK
6
CONTINUOUS
10
89.2357
20
-153.24
11
89.331
21
-153.144
0
LINE
8
BLACK
6
CONTINUOUS
10
89.331
20
-153.144
11
89.331
21
-153.335
0
LINE
8
BLACK
6
CONTINUOUS
10
90.0929
20
-151.335
11
91.4262
21
-151.335
0
LINE
8
BLACK
6
CONTINUOUS
10
91.4262
20
-151.335
11
90.569
21
-153.335
0
LINE
8
BLACK
6
CONTINUOUS
10
92.569
20
-151.335
11
92.7595
21
-151.335
0
LINE
8
BLACK
6
CONTINUOUS
10
92.7595
20
-151.335
11
92.95
21
-151.43
0
LINE
8
BLACK
6
CONTINUOUS
10
92.95
20
-151.43
11
93.0452
21
-151.525
0
LINE
8
BLACK
6
CONTINUOUS
10
93.0452
20
-151.525
11
93.1405
21
-151.716
0
LINE
8
BLACK
6
CONTINUOUS
10
93.1405
20
-151.716
11
93.2357
21
-152.097
0
LINE
8
BLACK
6
CONTINUOUS
10
93.2357
20
-152.097
11
93.2357
21
-152.573
0
LINE
8
BLACK
6
CONTINUOUS
10
93.2357
20
-152.573
11
93.1405
21
-152.954
0
LINE
8
BLACK
6
CONTINUOUS
10
93.1405
20
-152.954
11
93.0452
21
-153.144
0
LINE
8
BLACK
6
CONTINUOUS
10
93.0452
20
-153.144
11
92.95
21
-153.24
0
LINE
8
BLACK
6
CONTINUOUS
10
92.95
20
-153.24
11
92.7595
21
-153.335
0
LINE
8
BLACK
6
CONTINUOUS
10
92.7595
20
-153.335
11
92.569
21
-153.335
0
LINE
8
BLACK
6
CONTINUOUS
10
92.569
20
-153.335
11
92.3786
21
-153.24
0
LINE
8
BLACK
6
CONTINUOUS
10
92.3786
20
-153.24
11
92.2833
21
-153.144
0
LINE
8
BLACK
6
CONTINUOUS
10
92.2833
20
-153.144
11
92.1881
21
-152.954
0
LINE
8
BLACK
6
CONTINUOUS
10
92.1881
20
-152.954
11
92.0929
21
-152.573
0
LINE
8
BLACK
6
CONTINUOUS
10
92.0929
20
-152.573
11
92.0929
21
-152.097
0
LINE
8
BLACK
6
CONTINUOUS
10
92.0929
20
-152.097
11
92.1881
21
-151.716
0
LINE
8
BLACK
6
CONTINUOUS
10
92.1881
20
-151.716
11
92.2833
21
-151.525
0
LINE
8
BLACK
6
CONTINUOUS
10
92.2833
20
-151.525
11
92.3786
21
-151.43
0
LINE
8
BLACK
6
CONTINUOUS
10
92.3786
20
-151.43
11
92.569
21
-151.335
0
LINE
8
BLACK
6
CONTINUOUS
10
94.4738
20
-151.335
11
94.6643
21
-151.335
0
LINE
8
BLACK
6
CONTINUOUS
10
94.6643
20
-151.335
11
94.8548
21
-151.43
0
LINE
8
BLACK
6
CONTINUOUS
10
94.8548
20
-151.43
11
94.95
21
-151.525
0
LINE
8
BLACK
6
CONTINUOUS
10
94.95
20
-151.525
11
95.0452
21
-151.716
0
LINE
8
BLACK
6
CONTINUOUS
10
95.0452
20
-151.716
11
95.1405
21
-152.097
0
LINE
8
BLACK
6
CONTINUOUS
10
95.1405
20
-152.097
11
95.1405
21
-152.573
0
LINE
8
BLACK
6
CONTINUOUS
10
95.1405
20
-152.573
11
95.0452
21
-152.954
0
LINE
8
BLACK
6
CONTINUOUS
10
95.0452
20
-152.954
11
94.95
21
-153.144
0
LINE
8
BLACK
6
CONTINUOUS
10
94.95
20
-153.144
11
94.8548
21
-153.24
0
LINE
8
BLACK
6
CONTINUOUS
10
94.8548
20
-153.24
11
94.6643
21
-153.335
0
LINE
8
BLACK
6
CONTINUOUS
10
94.6643
20
-153.335
11
94.4738
21
-153.335
0
LINE
8
BLACK
6
CONTINUOUS
10
94.4738
20
-153.335
11
94.2833
21
-153.24
0
LINE
8
BLACK
6
CONTINUOUS
10
94.2833
20
-153.24
11
94.1881
21
-153.144
0
LINE
8
BLACK
6
CONTINUOUS
10
94.1881
20
-153.144
11
94.0929
21
-152.954
0
LINE
8
BLACK
6
CONTINUOUS
10
94.0929
20
-152.954
11
93.9976
21
-152.573
0
LINE
8
BLACK
6
CONTINUOUS
10
93.9976
20
-152.573
11
93.9976
21
-152.097
0
LINE
8
BLACK
6
CONTINUOUS
10
93.9976
20
-152.097
11
94.0929
21
-151.716
0
LINE
8
BLACK
6
CONTINUOUS
10
94.0929
20
-151.716
11
94.1881
21
-151.525
0
LINE
8
BLACK
6
CONTINUOUS
10
94.1881
20
-151.525
11
94.2833
21
-151.43
0
LINE
8
BLACK
6
CONTINUOUS
10
94.2833
20
-151.43
11
94.4738
21
-151.335
0
LINE
8
BLACK
6
CONTINUOUS
10
95.9976
20
-153.335
11
95.9976
21
-152.001
0
LINE
8
BLACK
6
CONTINUOUS
10
95.9976
20
-152.192
11
96.0929
21
-152.097
0
LINE
8
BLACK
6
CONTINUOUS
10
96.0929
20
-152.097
11
96.2833
21
-152.001
0
LINE
8
BLACK
6
CONTINUOUS
10
96.2833
20
-152.001
11
96.569
21
-152.001
0
LINE
8
BLACK
6
CONTINUOUS
10
96.569
20
-152.001
11
96.7595
21
-152.097
0
LINE
8
BLACK
6
CONTINUOUS
10
96.7595
20
-152.097
11
96.8548
21
-152.287
0
LINE
8
BLACK
6
CONTINUOUS
10
96.8548
20
-152.287
11
96.8548
21
-153.335
0
LINE
8
BLACK
6
CONTINUOUS
10
96.8548
20
-152.287
11
96.95
21
-152.097
0
LINE
8
BLACK
6
CONTINUOUS
10
96.95
20
-152.097
11
97.1405
21
-152.001
0
LINE
8
BLACK
6
CONTINUOUS
10
97.1405
20
-152.001
11
97.4262
21
-152.001
0
LINE
8
BLACK
6
CONTINUOUS
10
97.4262
20
-152.001
11
97.6167
21
-152.097
0
LINE
8
BLACK
6
CONTINUOUS
10
97.6167
20
-152.097
11
97.7119
21
-152.287
0
LINE
8
BLACK
6
CONTINUOUS
10
97.7119
20
-152.287
11
97.7119
21
-153.335
0
LINE
8
BLACK
6
CONTINUOUS
10
98.6643
20
-153.335
11
98.6643
21
-152.001
0
LINE
8
BLACK
6
CONTINUOUS
10
98.6643
20
-152.192
11
98.7595
21
-152.097
0
LINE
8
BLACK
6
CONTINUOUS
10
98.7595
20
-152.097
11
98.95
21
-152.001
0
LINE
8
BLACK
6
CONTINUOUS
10
98.95
20
-152.001
11
99.2357
21
-152.001
0
LINE
8
BLACK
6
CONTINUOUS
10
99.2357
20
-152.001
11
99.4262
21
-152.097
0
LINE
8
BLACK
6
CONTINUOUS
10
99.4262
20
-152.097
11
99.5214
21
-152.287
0
LINE
8
BLACK
6
CONTINUOUS
10
99.5214
20
-152.287
11
99.5214
21
-153.335
0
LINE
8
BLACK
6
CONTINUOUS
10
99.5214
20
-152.287
11
99.6167
21
-152.097
0
LINE
8
BLACK
6
CONTINUOUS
10
99.6167
20
-152.097
11
99.8071
21
-152.001
0
LINE
8
BLACK
6
CONTINUOUS
10
99.8071
20
-152.001
11
100.093
21
-152.001
0
LINE
8
BLACK
6
CONTINUOUS
10
100.093
20
-152.001
11
100.283
21
-152.097
0
LINE
8
BLACK
6
CONTINUOUS
10
100.283
20
-152.097
11
100.379
21
-152.287
0
LINE
8
BLACK
6
CONTINUOUS
10
100.379
20
-152.287
11
100.379
21
-153.335
0
LINE
8
BLACK
6
CONTINUOUS
10
104.283
20
-151.24
11
102.569
21
-153.811
0
LINE
8
BLACK
6
CONTINUOUS
10
106.855
20
-151.335
11
107.045
21
-151.335
0
LINE
8
BLACK
6
CONTINUOUS
10
107.045
20
-151.335
11
107.236
21
-151.43
0
LINE
8
BLACK
6
CONTINUOUS
10
107.236
20
-151.43
11
107.331
21
-151.525
0
LINE
8
BLACK
6
CONTINUOUS
10
107.331
20
-151.525
11
107.426
21
-151.716
0
LINE
8
BLACK
6
CONTINUOUS
10
107.426
20
-151.716
11
107.521
21
-152.097
0
LINE
8
BLACK
6
CONTINUOUS
10
107.521
20
-152.097
11
107.521
21
-152.573
0
LINE
8
BLACK
6
CONTINUOUS
10
107.521
20
-152.573
11
107.426
21
-152.954
0
LINE
8
BLACK
6
CONTINUOUS
10
107.426
20
-152.954
11
107.331
21
-153.144
0
LINE
8
BLACK
6
CONTINUOUS
10
107.331
20
-153.144
11
107.236
21
-153.24
0
LINE
8
BLACK
6
CONTINUOUS
10
107.236
20
-153.24
11
107.045
21
-153.335
0
LINE
8
BLACK
6
CONTINUOUS
10
107.045
20
-153.335
11
106.855
21
-153.335
0
LINE
8
BLACK
6
CONTINUOUS
10
106.855
20
-153.335
11
106.664
21
-153.24
0
LINE
8
BLACK
6
CONTINUOUS
10
106.664
20
-153.24
11
106.569
21
-153.144
0
LINE
8
BLACK
6
CONTINUOUS
10
106.569
20
-153.144
11
106.474
21
-152.954
0
LINE
8
BLACK
6
CONTINUOUS
10
106.474
20
-152.954
11
106.379
21
-152.573
0
LINE
8
BLACK
6
CONTINUOUS
10
106.379
20
-152.573
11
106.379
21
-152.097
0
LINE
8
BLACK
6
CONTINUOUS
10
106.379
20
-152.097
11
106.474
21
-151.716
0
LINE
8
BLACK
6
CONTINUOUS
10
106.474
20
-151.716
11
106.569
21
-151.525
0
LINE
8
BLACK
6
CONTINUOUS
10
106.569
20
-151.525
11
106.664
21
-151.43
0
LINE
8
BLACK
6
CONTINUOUS
10
106.664
20
-151.43
11
106.855
21
-151.335
0
LINE
8
BLACK
6
CONTINUOUS
10
108.379
20
-153.144
11
108.474
21
-153.24
0
LINE
8
BLACK
6
CONTINUOUS
10
108.474
20
-153.24
11
108.379
21
-153.335
0
LINE
8
BLACK
6
CONTINUOUS
10
108.379
20
-153.335
11
108.283
21
-153.24
0
LINE
8
BLACK
6
CONTINUOUS
10
108.283
20
-153.24
11
108.379
21
-153.144
0
LINE
8
BLACK
6
CONTINUOUS
10
108.379
20
-153.144
11
108.379
21
-153.335
0
LINE
8
BLACK
6
CONTINUOUS
10
109.712
20
-151.335
11
109.902
21
-151.335
0
LINE
8
BLACK
6
CONTINUOUS
10
109.902
20
-151.335
11
110.093
21
-151.43
0
LINE
8
BLACK
6
CONTINUOUS
10
110.093
20
-151.43
11
110.188
21
-151.525
0
LINE
8
BLACK
6
CONTINUOUS
10
110.188
20
-151.525
11
110.283
21
-151.716
0
LINE
8
BLACK
6
CONTINUOUS
10
110.283
20
-151.716
11
110.379
21
-152.097
0
LINE
8
BLACK
6
CONTINUOUS
10
110.379
20
-152.097
11
110.379
21
-152.573
0
LINE
8
BLACK
6
CONTINUOUS
10
110.379
20
-152.573
11
110.283
21
-152.954
0
LINE
8
BLACK
6
CONTINUOUS
10
110.283
20
-152.954
11
110.188
21
-153.144
0
LINE
8
BLACK
6
CONTINUOUS
10
110.188
20
-153.144
11
110.093
21
-153.24
0
LINE
8
BLACK
6
CONTINUOUS
10
110.093
20
-153.24
11
109.902
21
-153.335
0
LINE
8
BLACK
6
CONTINUOUS
10
109.902
20
-153.335
11
109.712
21
-153.335
0
LINE
8
BLACK
6
CONTINUOUS
10
109.712
20
-153.335
11
109.521
21
-153.24
0
LINE
8
BLACK
6
CONTINUOUS
10
109.521
20
-153.24
11
109.426
21
-153.144
0
LINE
8
BLACK
6
CONTINUOUS
10
109.426
20
-153.144
11
109.331
21
-152.954
0
LINE
8
BLACK
6
CONTINUOUS
10
109.331
20
-152.954
11
109.236
21
-152.573
0
LINE
8
BLACK
6
CONTINUOUS
10
109.236
20
-152.573
11
109.236
21
-152.097
0
LINE
8
BLACK
6
CONTINUOUS
10
109.236
20
-152.097
11
109.331
21
-151.716
0
LINE
8
BLACK
6
CONTINUOUS
10
109.331
20
-151.716
11
109.426
21
-151.525
0
LINE
8
BLACK
6
CONTINUOUS
10
109.426
20
-151.525
11
109.521
21
-151.43
0
LINE
8
BLACK
6
CONTINUOUS
10
109.521
20
-151.43
11
109.712
21
-151.335
0
LINE
8
BLACK
6
CONTINUOUS
10
111.14
20
-151.525
11
111.236
21
-151.43
0
LINE
8
BLACK
6
CONTINUOUS
10
111.236
20
-151.43
11
111.426
21
-151.335
0
LINE
8
BLACK
6
CONTINUOUS
10
111.426
20
-151.335
11
111.902
21
-151.335
0
LINE
8
BLACK
6
CONTINUOUS
10
111.902
20
-151.335
11
112.093
21
-151.43
0
LINE
8
BLACK
6
CONTINUOUS
10
112.093
20
-151.43
11
112.188
21
-151.525
0
LINE
8
BLACK
6
CONTINUOUS
10
112.188
20
-151.525
11
112.283
21
-151.716
0
LINE
8
BLACK
6
CONTINUOUS
10
112.283
20
-151.716
11
112.283
21
-151.906
0
LINE
8
BLACK
6
CONTINUOUS
10
112.283
20
-151.906
11
112.188
21
-152.192
0
LINE
8
BLACK
6
CONTINUOUS
10
112.188
20
-152.192
11
111.045
21
-153.335
0
LINE
8
BLACK
6
CONTINUOUS
10
111.045
20
-153.335
11
112.283
21
-153.335
0
LINE
8
BLACK
6
CONTINUOUS
10
112.95
20
-151.335
11
114.283
21
-151.335
0
LINE
8
BLACK
6
CONTINUOUS
10
114.283
20
-151.335
11
113.426
21
-153.335
0
LINE
8
BLACK
6
CONTINUOUS
10
115.902
20
-151.335
11
115.521
21
-151.335
0
LINE
8
BLACK
6
CONTINUOUS
10
115.521
20
-151.335
11
115.331
21
-151.43
0
LINE
8
BLACK
6
CONTINUOUS
10
115.331
20
-151.43
11
115.236
21
-151.525
0
LINE
8
BLACK
6
CONTINUOUS
10
115.236
20
-151.525
11
115.045
21
-151.811
0
LINE
8
BLACK
6
CONTINUOUS
10
115.045
20
-151.811
11
114.95
21
-152.192
0
LINE
8
BLACK
6
CONTINUOUS
10
114.95
20
-152.192
11
114.95
21
-152.954
0
LINE
8
BLACK
6
CONTINUOUS
10
114.95
20
-152.954
11
115.045
21
-153.144
0
LINE
8
BLACK
6
CONTINUOUS
10
115.045
20
-153.144
11
115.14
21
-153.24
0
LINE
8
BLACK
6
CONTINUOUS
10
115.14
20
-153.24
11
115.331
21
-153.335
0
LINE
8
BLACK
6
CONTINUOUS
10
115.331
20
-153.335
11
115.712
21
-153.335
0
LINE
8
BLACK
6
CONTINUOUS
10
115.712
20
-153.335
11
115.902
21
-153.24
0
LINE
8
BLACK
6
CONTINUOUS
10
115.902
20
-153.24
11
115.998
21
-153.144
0
LINE
8
BLACK
6
CONTINUOUS
10
115.998
20
-153.144
11
116.093
21
-152.954
0
LINE
8
BLACK
6
CONTINUOUS
10
116.093
20
-152.954
11
116.093
21
-152.478
0
LINE
8
BLACK
6
CONTINUOUS
10
116.093
20
-152.478
11
115.998
21
-152.287
0
LINE
8
BLACK
6
CONTINUOUS
10
115.998
20
-152.287
11
115.902
21
-152.192
0
LINE
8
BLACK
6
CONTINUOUS
10
115.902
20
-152.192
11
115.712
21
-152.097
0
LINE
8
BLACK
6
CONTINUOUS
10
115.712
20
-152.097
11
115.331
21
-152.097
0
LINE
8
BLACK
6
CONTINUOUS
10
115.331
20
-152.097
11
115.14
21
-152.192
0
LINE
8
BLACK
6
CONTINUOUS
10
115.14
20
-152.192
11
115.045
21
-152.287
0
LINE
8
BLACK
6
CONTINUOUS
10
115.045
20
-152.287
11
114.95
21
-152.478
0
LINE
8
BLACK
6
CONTINUOUS
10
116.855
20
-151.335
11
116.855
21
-151.716
0
LINE
8
BLACK
6
CONTINUOUS
10
117.617
20
-151.335
11
117.617
21
-151.716
0
LINE
8
BLACK
6
CONTINUOUS
10
120.569
20
-154.097
11
120.474
21
-154.001
0
LINE
8
BLACK
6
CONTINUOUS
10
120.474
20
-154.001
11
120.283
21
-153.716
0
LINE
8
BLACK
6
CONTINUOUS
10
120.283
20
-153.716
11
120.188
21
-153.525
0
LINE
8
BLACK
6
CONTINUOUS
10
120.188
20
-153.525
11
120.093
21
-153.24
0
LINE
8
BLACK
6
CONTINUOUS
10
120.093
20
-153.24
11
119.998
21
-152.763
0
LINE
8
BLACK
6
CONTINUOUS
10
119.998
20
-152.763
11
119.998
21
-152.382
0
LINE
8
BLACK
6
CONTINUOUS
10
119.998
20
-152.382
11
120.093
21
-151.906
0
LINE
8
BLACK
6
CONTINUOUS
10
120.093
20
-151.906
11
120.188
21
-151.62
0
LINE
8
BLACK
6
CONTINUOUS
10
120.188
20
-151.62
11
120.283
21
-151.43
0
LINE
8
BLACK
6
CONTINUOUS
10
120.283
20
-151.43
11
120.474
21
-151.144
0
LINE
8
BLACK
6
CONTINUOUS
10
120.474
20
-151.144
11
120.569
21
-151.049
0
LINE
8
BLACK
6
CONTINUOUS
10
121.236
20
-151.525
11
121.331
21
-151.43
0
LINE
8
BLACK
6
CONTINUOUS
10
121.331
20
-151.43
11
121.521
21
-151.335
0
LINE
8
BLACK
6
CONTINUOUS
10
121.521
20
-151.335
11
121.998
21
-151.335
0
LINE
8
BLACK
6
CONTINUOUS
10
121.998
20
-151.335
11
122.188
21
-151.43
0
LINE
8
BLACK
6
CONTINUOUS
10
122.188
20
-151.43
11
122.283
21
-151.525
0
LINE
8
BLACK
6
CONTINUOUS
10
122.283
20
-151.525
11
122.379
21
-151.716
0
LINE
8
BLACK
6
CONTINUOUS
10
122.379
20
-151.716
11
122.379
21
-151.906
0
LINE
8
BLACK
6
CONTINUOUS
10
122.379
20
-151.906
11
122.283
21
-152.192
0
LINE
8
BLACK
6
CONTINUOUS
10
122.283
20
-152.192
11
121.14
21
-153.335
0
LINE
8
BLACK
6
CONTINUOUS
10
121.14
20
-153.335
11
122.379
21
-153.335
0
LINE
8
BLACK
6
CONTINUOUS
10
123.617
20
-151.335
11
123.807
21
-151.335
0
LINE
8
BLACK
6
CONTINUOUS
10
123.807
20
-151.335
11
123.998
21
-151.43
0
LINE
8
BLACK
6
CONTINUOUS
10
123.998
20
-151.43
11
124.093
21
-151.525
0
LINE
8
BLACK
6
CONTINUOUS
10
124.093
20
-151.525
11
124.188
21
-151.716
0
LINE
8
BLACK
6
CONTINUOUS
10
124.188
20
-151.716
11
124.283
21
-152.097
0
LINE
8
BLACK
6
CONTINUOUS
10
124.283
20
-152.097
11
124.283
21
-152.573
0
LINE
8
BLACK
6
CONTINUOUS
10
124.283
20
-152.573
11
124.188
21
-152.954
0
LINE
8
BLACK
6
CONTINUOUS
10
124.188
20
-152.954
11
124.093
21
-153.144
0
LINE
8
BLACK
6
CONTINUOUS
10
124.093
20
-153.144
11
123.998
21
-153.24
0
LINE
8
BLACK
6
CONTINUOUS
10
123.998
20
-153.24
11
123.807
21
-153.335
0
LINE
8
BLACK
6
CONTINUOUS
10
123.807
20
-153.335
11
123.617
21
-153.335
0
LINE
8
BLACK
6
CONTINUOUS
10
123.617
20
-153.335
11
123.426
21
-153.24
0
LINE
8
BLACK
6
CONTINUOUS
10
123.426
20
-153.24
11
123.331
21
-153.144
0
LINE
8
BLACK
6
CONTINUOUS
10
123.331
20
-153.144
11
123.236
21
-152.954
0
LINE
8
BLACK
6
CONTINUOUS
10
123.236
20
-152.954
11
123.14
21
-152.573
0
LINE
8
BLACK
6
CONTINUOUS
10
123.14
20
-152.573
11
123.14
21
-152.097
0
LINE
8
BLACK
6
CONTINUOUS
10
123.14
20
-152.097
11
123.236
21
-151.716
0
LINE
8
BLACK
6
CONTINUOUS
10
123.236
20
-151.716
11
123.331
21
-151.525
0
LINE
8
BLACK
6
CONTINUOUS
10
123.331
20
-151.525
11
123.426
21
-151.43
0
LINE
8
BLACK
6
CONTINUOUS
10
123.426
20
-151.43
11
123.617
21
-151.335
0
LINE
8
BLACK
6
CONTINUOUS
10
126.664
20
-153.335
11
126.664
21
-151.335
0
LINE
8
BLACK
6
CONTINUOUS
10
127.521
20
-153.335
11
127.521
21
-152.287
0
LINE
8
BLACK
6
CONTINUOUS
10
127.521
20
-152.287
11
127.426
21
-152.097
0
LINE
8
BLACK
6
CONTINUOUS
10
127.426
20
-152.097
11
127.236
21
-152.001
0
LINE
8
BLACK
6
CONTINUOUS
10
127.236
20
-152.001
11
126.95
21
-152.001
0
LINE
8
BLACK
6
CONTINUOUS
10
126.95
20
-152.001
11
126.76
21
-152.097
0
LINE
8
BLACK
6
CONTINUOUS
10
126.76
20
-152.097
11
126.664
21
-152.192
0
LINE
8
BLACK
6
CONTINUOUS
10
128.76
20
-153.335
11
128.569
21
-153.24
0
LINE
8
BLACK
6
CONTINUOUS
10
128.569
20
-153.24
11
128.474
21
-153.144
0
LINE
8
BLACK
6
CONTINUOUS
10
128.474
20
-153.144
11
128.379
21
-152.954
0
LINE
8
BLACK
6
CONTINUOUS
10
128.379
20
-152.954
11
128.379
21
-152.382
0
LINE
8
BLACK
6
CONTINUOUS
10
128.379
20
-152.382
11
128.474
21
-152.192
0
LINE
8
BLACK
6
CONTINUOUS
10
128.474
20
-152.192
11
128.569
21
-152.097
0
LINE
8
BLACK
6
CONTINUOUS
10
128.569
20
-152.097
11
128.76
21
-152.001
0
LINE
8
BLACK
6
CONTINUOUS
10
128.76
20
-152.001
11
129.045
21
-152.001
0
LINE
8
BLACK
6
CONTINUOUS
10
129.045
20
-152.001
11
129.236
21
-152.097
0
LINE
8
BLACK
6
CONTINUOUS
10
129.236
20
-152.097
11
129.331
21
-152.192
0
LINE
8
BLACK
6
CONTINUOUS
10
129.331
20
-152.192
11
129.426
21
-152.382
0
LINE
8
BLACK
6
CONTINUOUS
10
129.426
20
-152.382
11
129.426
21
-152.954
0
LINE
8
BLACK
6
CONTINUOUS
10
129.426
20
-152.954
11
129.331
21
-153.144
0
LINE
8
BLACK
6
CONTINUOUS
10
129.331
20
-153.144
11
129.236
21
-153.24
0
LINE
8
BLACK
6
CONTINUOUS
10
129.236
20
-153.24
11
129.045
21
-153.335
0
LINE
8
BLACK
6
CONTINUOUS
10
129.045
20
-153.335
11
128.76
21
-153.335
0
LINE
8
BLACK
6
CONTINUOUS
10
130.569
20
-153.335
11
130.379
21
-153.24
0
LINE
8
BLACK
6
CONTINUOUS
10
130.379
20
-153.24
11
130.283
21
-153.049
0
LINE
8
BLACK
6
CONTINUOUS
10
130.283
20
-153.049
11
130.283
21
-151.335
0
LINE
8
BLACK
6
CONTINUOUS
10
132.093
20
-153.24
11
131.902
21
-153.335
0
LINE
8
BLACK
6
CONTINUOUS
10
131.902
20
-153.335
11
131.521
21
-153.335
0
LINE
8
BLACK
6
CONTINUOUS
10
131.521
20
-153.335
11
131.331
21
-153.24
0
LINE
8
BLACK
6
CONTINUOUS
10
131.331
20
-153.24
11
131.236
21
-153.049
0
LINE
8
BLACK
6
CONTINUOUS
10
131.236
20
-153.049
11
131.236
21
-152.287
0
LINE
8
BLACK
6
CONTINUOUS
10
131.236
20
-152.287
11
131.331
21
-152.097
0
LINE
8
BLACK
6
CONTINUOUS
10
131.331
20
-152.097
11
131.521
21
-152.001
0
LINE
8
BLACK
6
CONTINUOUS
10
131.521
20
-152.001
11
131.902
21
-152.001
0
LINE
8
BLACK
6
CONTINUOUS
10
131.902
20
-152.001
11
132.093
21
-152.097
0
LINE
8
BLACK
6
CONTINUOUS
10
132.093
20
-152.097
11
132.188
21
-152.287
0
LINE
8
BLACK
6
CONTINUOUS
10
132.188
20
-152.287
11
132.188
21
-152.478
0
LINE
8
BLACK
6
CONTINUOUS
10
132.188
20
-152.478
11
131.236
21
-152.668
0
LINE
8
BLACK
6
CONTINUOUS
10
132.95
20
-153.24
11
133.14
21
-153.335
0
LINE
8
BLACK
6
CONTINUOUS
10
133.14
20
-153.335
11
133.521
21
-153.335
0
LINE
8
BLACK
6
CONTINUOUS
10
133.521
20
-153.335
11
133.712
21
-153.24
0
LINE
8
BLACK
6
CONTINUOUS
10
133.712
20
-153.24
11
133.807
21
-153.049
0
LINE
8
BLACK
6
CONTINUOUS
10
133.807
20
-153.049
11
133.807
21
-152.954
0
LINE
8
BLACK
6
CONTINUOUS
10
133.807
20
-152.954
11
133.712
21
-152.763
0
LINE
8
BLACK
6
CONTINUOUS
10
133.712
20
-152.763
11
133.521
21
-152.668
0
LINE
8
BLACK
6
CONTINUOUS
10
133.521
20
-152.668
11
133.236
21
-152.668
0
LINE
8
BLACK
6
CONTINUOUS
10
133.236
20
-152.668
11
133.045
21
-152.573
0
LINE
8
BLACK
6
CONTINUOUS
10
133.045
20
-152.573
11
132.95
21
-152.382
0
LINE
8
BLACK
6
CONTINUOUS
10
132.95
20
-152.382
11
132.95
21
-152.287
0
LINE
8
BLACK
6
CONTINUOUS
10
132.95
20
-152.287
11
133.045
21
-152.097
0
LINE
8
BLACK
6
CONTINUOUS
10
133.045
20
-152.097
11
133.236
21
-152.001
0
LINE
8
BLACK
6
CONTINUOUS
10
133.236
20
-152.001
11
133.521
21
-152.001
0
LINE
8
BLACK
6
CONTINUOUS
10
133.521
20
-152.001
11
133.712
21
-152.097
0
LINE
8
BLACK
6
CONTINUOUS
10
134.474
20
-154.097
11
134.569
21
-154.001
0
LINE
8
BLACK
6
CONTINUOUS
10
134.569
20
-154.001
11
134.76
21
-153.716
0
LINE
8
BLACK
6
CONTINUOUS
10
134.76
20
-153.716
11
134.855
21
-153.525
0
LINE
8
BLACK
6
CONTINUOUS
10
134.855
20
-153.525
11
134.95
21
-153.24
0
LINE
8
BLACK
6
CONTINUOUS
10
134.95
20
-153.24
11
135.045
21
-152.763
0
LINE
8
BLACK
6
CONTINUOUS
10
135.045
20
-152.763
11
135.045
21
-152.382
0
LINE
8
BLACK
6
CONTINUOUS
10
135.045
20
-152.382
11
134.95
21
-151.906
0
LINE
8
BLACK
6
CONTINUOUS
10
134.95
20
-151.906
11
134.855
21
-151.62
0
LINE
8
BLACK
6
CONTINUOUS
10
134.855
20
-151.62
11
134.76
21
-151.43
0
LINE
8
BLACK
6
CONTINUOUS
10
134.76
20
-151.43
11
134.569
21
-151.144
0
LINE
8
BLACK
6
CONTINUOUS
10
134.569
20
-151.144
11
134.474
21
-151.049
0
LINE
8
BLACK
6
CONTINUOUS
10
84.7182
20
-155.388
11
84.7182
21
-154.752
0
LINE
8
BLACK
6
CONTINUOUS
10
84.7182
20
-154.752
11
84.0818
21
-154.752
0
LINE
8
BLACK
6
CONTINUOUS
10
84.0818
20
-154.752
11
84.0818
21
-155.388
0
LINE
8
BLACK
6
CONTINUOUS
10
84.0818
20
-155.388
11
84.7182
21
-155.388
0
LINE
8
BLACK
6
CONTINUOUS
10
87.8071
20
-153.975
11
87.9976
21
-153.975
0
LINE
8
BLACK
6
CONTINUOUS
10
87.9976
20
-153.975
11
88.1881
21
-154.07
0
LINE
8
BLACK
6
CONTINUOUS
10
88.1881
20
-154.07
11
88.2833
21
-154.165
0
LINE
8
BLACK
6
CONTINUOUS
10
88.2833
20
-154.165
11
88.3786
21
-154.356
0
LINE
8
BLACK
6
CONTINUOUS
10
88.3786
20
-154.356
11
88.4738
21
-154.737
0
LINE
8
BLACK
6
CONTINUOUS
10
88.4738
20
-154.737
11
88.4738
21
-155.213
0
LINE
8
BLACK
6
CONTINUOUS
10
88.4738
20
-155.213
11
88.3786
21
-155.594
0
LINE
8
BLACK
6
CONTINUOUS
10
88.3786
20
-155.594
11
88.2833
21
-155.784
0
LINE
8
BLACK
6
CONTINUOUS
10
88.2833
20
-155.784
11
88.1881
21
-155.88
0
LINE
8
BLACK
6
CONTINUOUS
10
88.1881
20
-155.88
11
87.9976
21
-155.975
0
LINE
8
BLACK
6
CONTINUOUS
10
87.9976
20
-155.975
11
87.8071
21
-155.975
0
LINE
8
BLACK
6
CONTINUOUS
10
87.8071
20
-155.975
11
87.6167
21
-155.88
0
LINE
8
BLACK
6
CONTINUOUS
10
87.6167
20
-155.88
11
87.5214
21
-155.784
0
LINE
8
BLACK
6
CONTINUOUS
10
87.5214
20
-155.784
11
87.4262
21
-155.594
0
LINE
8
BLACK
6
CONTINUOUS
10
87.4262
20
-155.594
11
87.331
21
-155.213
0
LINE
8
BLACK
6
CONTINUOUS
10
87.331
20
-155.213
11
87.331
21
-154.737
0
LINE
8
BLACK
6
CONTINUOUS
10
87.331
20
-154.737
11
87.4262
21
-154.356
0
LINE
8
BLACK
6
CONTINUOUS
10
87.4262
20
-154.356
11
87.5214
21
-154.165
0
LINE
8
BLACK
6
CONTINUOUS
10
87.5214
20
-154.165
11
87.6167
21
-154.07
0
LINE
8
BLACK
6
CONTINUOUS
10
87.6167
20
-154.07
11
87.8071
21
-153.975
0
LINE
8
BLACK
6
CONTINUOUS
10
89.331
20
-155.784
11
89.4262
21
-155.88
0
LINE
8
BLACK
6
CONTINUOUS
10
89.4262
20
-155.88
11
89.331
21
-155.975
0
LINE
8
BLACK
6
CONTINUOUS
10
89.331
20
-155.975
11
89.2357
21
-155.88
0
LINE
8
BLACK
6
CONTINUOUS
10
89.2357
20
-155.88
11
89.331
21
-155.784
0
LINE
8
BLACK
6
CONTINUOUS
10
89.331
20
-155.784
11
89.331
21
-155.975
0
LINE
8
BLACK
6
CONTINUOUS
10
90.3786
20
-155.975
11
90.7595
21
-155.975
0
LINE
8
BLACK
6
CONTINUOUS
10
90.7595
20
-155.975
11
90.95
21
-155.88
0
LINE
8
BLACK
6
CONTINUOUS
10
90.95
20
-155.88
11
91.0452
21
-155.784
0
LINE
8
BLACK
6
CONTINUOUS
10
91.0452
20
-155.784
11
91.2357
21
-155.499
0
LINE
8
BLACK
6
CONTINUOUS
10
91.2357
20
-155.499
11
91.331
21
-155.118
0
LINE
8
BLACK
6
CONTINUOUS
10
91.331
20
-155.118
11
91.331
21
-154.356
0
LINE
8
BLACK
6
CONTINUOUS
10
91.331
20
-154.356
11
91.2357
21
-154.165
0
LINE
8
BLACK
6
CONTINUOUS
10
91.2357
20
-154.165
11
91.1405
21
-154.07
0
LINE
8
BLACK
6
CONTINUOUS
10
91.1405
20
-154.07
11
90.95
21
-153.975
0
LINE
8
BLACK
6
CONTINUOUS
10
90.95
20
-153.975
11
90.569
21
-153.975
0
LINE
8
BLACK
6
CONTINUOUS
10
90.569
20
-153.975
11
90.3786
21
-154.07
0
LINE
8
BLACK
6
CONTINUOUS
10
90.3786
20
-154.07
11
90.2833
21
-154.165
0
LINE
8
BLACK
6
CONTINUOUS
10
90.2833
20
-154.165
11
90.1881
21
-154.356
0
LINE
8
BLACK
6
CONTINUOUS
10
90.1881
20
-154.356
11
90.1881
21
-154.832
0
LINE
8
BLACK
6
CONTINUOUS
10
90.1881
20
-154.832
11
90.2833
21
-155.022
0
LINE
8
BLACK
6
CONTINUOUS
10
90.2833
20
-155.022
11
90.3786
21
-155.118
0
LINE
8
BLACK
6
CONTINUOUS
10
90.3786
20
-155.118
11
90.569
21
-155.213
0
LINE
8
BLACK
6
CONTINUOUS
10
90.569
20
-155.213
11
90.95
21
-155.213
0
LINE
8
BLACK
6
CONTINUOUS
10
90.95
20
-155.213
11
91.1405
21
-155.118
0
LINE
8
BLACK
6
CONTINUOUS
10
91.1405
20
-155.118
11
91.2357
21
-155.022
0
LINE
8
BLACK
6
CONTINUOUS
10
91.2357
20
-155.022
11
91.331
21
-154.832
0
LINE
8
BLACK
6
CONTINUOUS
10
92.569
20
-153.975
11
92.7595
21
-153.975
0
LINE
8
BLACK
6
CONTINUOUS
10
92.7595
20
-153.975
11
92.95
21
-154.07
0
LINE
8
BLACK
6
CONTINUOUS
10
92.95
20
-154.07
11
93.0452
21
-154.165
0
LINE
8
BLACK
6
CONTINUOUS
10
93.0452
20
-154.165
11
93.1405
21
-154.356
0
LINE
8
BLACK
6
CONTINUOUS
10
93.1405
20
-154.356
11
93.2357
21
-154.737
0
LINE
8
BLACK
6
CONTINUOUS
10
93.2357
20
-154.737
11
93.2357
21
-155.213
0
LINE
8
BLACK
6
CONTINUOUS
10
93.2357
20
-155.213
11
93.1405
21
-155.594
0
LINE
8
BLACK
6
CONTINUOUS
10
93.1405
20
-155.594
11
93.0452
21
-155.784
0
LINE
8
BLACK
6
CONTINUOUS
10
93.0452
20
-155.784
11
92.95
21
-155.88
0
LINE
8
BLACK
6
CONTINUOUS
10
92.95
20
-155.88
11
92.7595
21
-155.975
0
LINE
8
BLACK
6
CONTINUOUS
10
92.7595
20
-155.975
11
92.569
21
-155.975
0
LINE
8
BLACK
6
CONTINUOUS
10
92.569
20
-155.975
11
92.3786
21
-155.88
0
LINE
8
BLACK
6
CONTINUOUS
10
92.3786
20
-155.88
11
92.2833
21
-155.784
0
LINE
8
BLACK
6
CONTINUOUS
10
92.2833
20
-155.784
11
92.1881
21
-155.594
0
LINE
8
BLACK
6
CONTINUOUS
10
92.1881
20
-155.594
11
92.0929
21
-155.213
0
LINE
8
BLACK
6
CONTINUOUS
10
92.0929
20
-155.213
11
92.0929
21
-154.737
0
LINE
8
BLACK
6
CONTINUOUS
10
92.0929
20
-154.737
11
92.1881
21
-154.356
0
LINE
8
BLACK
6
CONTINUOUS
10
92.1881
20
-154.356
11
92.2833
21
-154.165
0
LINE
8
BLACK
6
CONTINUOUS
10
92.2833
20
-154.165
11
92.3786
21
-154.07
0
LINE
8
BLACK
6
CONTINUOUS
10
92.3786
20
-154.07
11
92.569
21
-153.975
0
LINE
8
BLACK
6
CONTINUOUS
10
94.4738
20
-153.975
11
94.6643
21
-153.975
0
LINE
8
BLACK
6
CONTINUOUS
10
94.6643
20
-153.975
11
94.8548
21
-154.07
0
LINE
8
BLACK
6
CONTINUOUS
10
94.8548
20
-154.07
11
94.95
21
-154.165
0
LINE
8
BLACK
6
CONTINUOUS
10
94.95
20
-154.165
11
95.0452
21
-154.356
0
LINE
8
BLACK
6
CONTINUOUS
10
95.0452
20
-154.356
11
95.1405
21
-154.737
0
LINE
8
BLACK
6
CONTINUOUS
10
95.1405
20
-154.737
11
95.1405
21
-155.213
0
LINE
8
BLACK
6
CONTINUOUS
10
95.1405
20
-155.213
11
95.0452
21
-155.594
0
LINE
8
BLACK
6
CONTINUOUS
10
95.0452
20
-155.594
11
94.95
21
-155.784
0
LINE
8
BLACK
6
CONTINUOUS
10
94.95
20
-155.784
11
94.8548
21
-155.88
0
LINE
8
BLACK
6
CONTINUOUS
10
94.8548
20
-155.88
11
94.6643
21
-155.975
0
LINE
8
BLACK
6
CONTINUOUS
10
94.6643
20
-155.975
11
94.4738
21
-155.975
0
LINE
8
BLACK
6
CONTINUOUS
10
94.4738
20
-155.975
11
94.2833
21
-155.88
0
LINE
8
BLACK
6
CONTINUOUS
10
94.2833
20
-155.88
11
94.1881
21
-155.784
0
LINE
8
BLACK
6
CONTINUOUS
10
94.1881
20
-155.784
11
94.0929
21
-155.594
0
LINE
8
BLACK
6
CONTINUOUS
10
94.0929
20
-155.594
11
93.9976
21
-155.213
0
LINE
8
BLACK
6
CONTINUOUS
10
93.9976
20
-155.213
11
93.9976
21
-154.737
0
LINE
8
BLACK
6
CONTINUOUS
10
93.9976
20
-154.737
11
94.0929
21
-154.356
0
LINE
8
BLACK
6
CONTINUOUS
10
94.0929
20
-154.356
11
94.1881
21
-154.165
0
LINE
8
BLACK
6
CONTINUOUS
10
94.1881
20
-154.165
11
94.2833
21
-154.07
0
LINE
8
BLACK
6
CONTINUOUS
10
94.2833
20
-154.07
11
94.4738
21
-153.975
0
LINE
8
BLACK
6
CONTINUOUS
10
95.9976
20
-155.975
11
95.9976
21
-154.641
0
LINE
8
BLACK
6
CONTINUOUS
10
95.9976
20
-154.832
11
96.0929
21
-154.737
0
LINE
8
BLACK
6
CONTINUOUS
10
96.0929
20
-154.737
11
96.2833
21
-154.641
0
LINE
8
BLACK
6
CONTINUOUS
10
96.2833
20
-154.641
11
96.569
21
-154.641
0
LINE
8
BLACK
6
CONTINUOUS
10
96.569
20
-154.641
11
96.7595
21
-154.737
0
LINE
8
BLACK
6
CONTINUOUS
10
96.7595
20
-154.737
11
96.8548
21
-154.927
0
LINE
8
BLACK
6
CONTINUOUS
10
96.8548
20
-154.927
11
96.8548
21
-155.975
0
LINE
8
BLACK
6
CONTINUOUS
10
96.8548
20
-154.927
11
96.95
21
-154.737
0
LINE
8
BLACK
6
CONTINUOUS
10
96.95
20
-154.737
11
97.1405
21
-154.641
0
LINE
8
BLACK
6
CONTINUOUS
10
97.1405
20
-154.641
11
97.4262
21
-154.641
0
LINE
8
BLACK
6
CONTINUOUS
10
97.4262
20
-154.641
11
97.6167
21
-154.737
0
LINE
8
BLACK
6
CONTINUOUS
10
97.6167
20
-154.737
11
97.7119
21
-154.927
0
LINE
8
BLACK
6
CONTINUOUS
10
97.7119
20
-154.927
11
97.7119
21
-155.975
0
LINE
8
BLACK
6
CONTINUOUS
10
98.6643
20
-155.975
11
98.6643
21
-154.641
0
LINE
8
BLACK
6
CONTINUOUS
10
98.6643
20
-154.832
11
98.7595
21
-154.737
0
LINE
8
BLACK
6
CONTINUOUS
10
98.7595
20
-154.737
11
98.95
21
-154.641
0
LINE
8
BLACK
6
CONTINUOUS
10
98.95
20
-154.641
11
99.2357
21
-154.641
0
LINE
8
BLACK
6
CONTINUOUS
10
99.2357
20
-154.641
11
99.4262
21
-154.737
0
LINE
8
BLACK
6
CONTINUOUS
10
99.4262
20
-154.737
11
99.5214
21
-154.927
0
LINE
8
BLACK
6
CONTINUOUS
10
99.5214
20
-154.927
11
99.5214
21
-155.975
0
LINE
8
BLACK
6
CONTINUOUS
10
99.5214
20
-154.927
11
99.6167
21
-154.737
0
LINE
8
BLACK
6
CONTINUOUS
10
99.6167
20
-154.737
11
99.8071
21
-154.641
0
LINE
8
BLACK
6
CONTINUOUS
10
99.8071
20
-154.641
11
100.093
21
-154.641
0
LINE
8
BLACK
6
CONTINUOUS
10
100.093
20
-154.641
11
100.283
21
-154.737
0
LINE
8
BLACK
6
CONTINUOUS
10
100.283
20
-154.737
11
100.379
21
-154.927
0
LINE
8
BLACK
6
CONTINUOUS
10
100.379
20
-154.927
11
100.379
21
-155.975
0
LINE
8
BLACK
6
CONTINUOUS
10
104.283
20
-153.88
11
102.569
21
-156.451
0
LINE
8
BLACK
6
CONTINUOUS
10
106.855
20
-153.975
11
107.045
21
-153.975
0
LINE
8
BLACK
6
CONTINUOUS
10
107.045
20
-153.975
11
107.236
21
-154.07
0
LINE
8
BLACK
6
CONTINUOUS
10
107.236
20
-154.07
11
107.331
21
-154.165
0
LINE
8
BLACK
6
CONTINUOUS
10
107.331
20
-154.165
11
107.426
21
-154.356
0
LINE
8
BLACK
6
CONTINUOUS
10
107.426
20
-154.356
11
107.521
21
-154.737
0
LINE
8
BLACK
6
CONTINUOUS
10
107.521
20
-154.737
11
107.521
21
-155.213
0
LINE
8
BLACK
6
CONTINUOUS
10
107.521
20
-155.213
11
107.426
21
-155.594
0
LINE
8
BLACK
6
CONTINUOUS
10
107.426
20
-155.594
11
107.331
21
-155.784
0
LINE
8
BLACK
6
CONTINUOUS
10
107.331
20
-155.784
11
107.236
21
-155.88
0
LINE
8
BLACK
6
CONTINUOUS
10
107.236
20
-155.88
11
107.045
21
-155.975
0
LINE
8
BLACK
6
CONTINUOUS
10
107.045
20
-155.975
11
106.855
21
-155.975
0
LINE
8
BLACK
6
CONTINUOUS
10
106.855
20
-155.975
11
106.664
21
-155.88
0
LINE
8
BLACK
6
CONTINUOUS
10
106.664
20
-155.88
11
106.569
21
-155.784
0
LINE
8
BLACK
6
CONTINUOUS
10
106.569
20
-155.784
11
106.474
21
-155.594
0
LINE
8
BLACK
6
CONTINUOUS
10
106.474
20
-155.594
11
106.379
21
-155.213
0
LINE
8
BLACK
6
CONTINUOUS
10
106.379
20
-155.213
11
106.379
21
-154.737
0
LINE
8
BLACK
6
CONTINUOUS
10
106.379
20
-154.737
11
106.474
21
-154.356
0
LINE
8
BLACK
6
CONTINUOUS
10
106.474
20
-154.356
11
106.569
21
-154.165
0
LINE
8
BLACK
6
CONTINUOUS
10
106.569
20
-154.165
11
106.664
21
-154.07
0
LINE
8
BLACK
6
CONTINUOUS
10
106.664
20
-154.07
11
106.855
21
-153.975
0
LINE
8
BLACK
6
CONTINUOUS
10
108.379
20
-155.784
11
108.474
21
-155.88
0
LINE
8
BLACK
6
CONTINUOUS
10
108.474
20
-155.88
11
108.379
21
-155.975
0
LINE
8
BLACK
6
CONTINUOUS
10
108.379
20
-155.975
11
108.283
21
-155.88
0
LINE
8
BLACK
6
CONTINUOUS
10
108.283
20
-155.88
11
108.379
21
-155.784
0
LINE
8
BLACK
6
CONTINUOUS
10
108.379
20
-155.784
11
108.379
21
-155.975
0
LINE
8
BLACK
6
CONTINUOUS
10
109.712
20
-153.975
11
109.902
21
-153.975
0
LINE
8
BLACK
6
CONTINUOUS
10
109.902
20
-153.975
11
110.093
21
-154.07
0
LINE
8
BLACK
6
CONTINUOUS
10
110.093
20
-154.07
11
110.188
21
-154.165
0
LINE
8
BLACK
6
CONTINUOUS
10
110.188
20
-154.165
11
110.283
21
-154.356
0
LINE
8
BLACK
6
CONTINUOUS
10
110.283
20
-154.356
11
110.379
21
-154.737
0
LINE
8
BLACK
6
CONTINUOUS
10
110.379
20
-154.737
11
110.379
21
-155.213
0
LINE
8
BLACK
6
CONTINUOUS
10
110.379
20
-155.213
11
110.283
21
-155.594
0
LINE
8
BLACK
6
CONTINUOUS
10
110.283
20
-155.594
11
110.188
21
-155.784
0
LINE
8
BLACK
6
CONTINUOUS
10
110.188
20
-155.784
11
110.093
21
-155.88
0
LINE
8
BLACK
6
CONTINUOUS
10
110.093
20
-155.88
11
109.902
21
-155.975
0
LINE
8
BLACK
6
CONTINUOUS
10
109.902
20
-155.975
11
109.712
21
-155.975
0
LINE
8
BLACK
6
CONTINUOUS
10
109.712
20
-155.975
11
109.521
21
-155.88
0
LINE
8
BLACK
6
CONTINUOUS
10
109.521
20
-155.88
11
109.426
21
-155.784
0
LINE
8
BLACK
6
CONTINUOUS
10
109.426
20
-155.784
11
109.331
21
-155.594
0
LINE
8
BLACK
6
CONTINUOUS
10
109.331
20
-155.594
11
109.236
21
-155.213
0
LINE
8
BLACK
6
CONTINUOUS
10
109.236
20
-155.213
11
109.236
21
-154.737
0
LINE
8
BLACK
6
CONTINUOUS
10
109.236
20
-154.737
11
109.331
21
-154.356
0
LINE
8
BLACK
6
CONTINUOUS
10
109.331
20
-154.356
11
109.426
21
-154.165
0
LINE
8
BLACK
6
CONTINUOUS
10
109.426
20
-154.165
11
109.521
21
-154.07
0
LINE
8
BLACK
6
CONTINUOUS
10
109.521
20
-154.07
11
109.712
21
-153.975
0
LINE
8
BLACK
6
CONTINUOUS
10
111.045
20
-153.975
11
112.283
21
-153.975
0
LINE
8
BLACK
6
CONTINUOUS
10
112.283
20
-153.975
11
111.617
21
-154.737
0
LINE
8
BLACK
6
CONTINUOUS
10
111.617
20
-154.737
11
111.902
21
-154.737
0
LINE
8
BLACK
6
CONTINUOUS
10
111.902
20
-154.737
11
112.093
21
-154.832
0
LINE
8
BLACK
6
CONTINUOUS
10
112.093
20
-154.832
11
112.188
21
-154.927
0
LINE
8
BLACK
6
CONTINUOUS
10
112.188
20
-154.927
11
112.283
21
-155.118
0
LINE
8
BLACK
6
CONTINUOUS
10
112.283
20
-155.118
11
112.283
21
-155.594
0
LINE
8
BLACK
6
CONTINUOUS
10
112.283
20
-155.594
11
112.188
21
-155.784
0
LINE
8
BLACK
6
CONTINUOUS
10
112.188
20
-155.784
11
112.093
21
-155.88
0
LINE
8
BLACK
6
CONTINUOUS
10
112.093
20
-155.88
11
111.902
21
-155.975
0
LINE
8
BLACK
6
CONTINUOUS
10
111.902
20
-155.975
11
111.331
21
-155.975
0
LINE
8
BLACK
6
CONTINUOUS
10
111.331
20
-155.975
11
111.14
21
-155.88
0
LINE
8
BLACK
6
CONTINUOUS
10
111.14
20
-155.88
11
111.045
21
-155.784
0
LINE
8
BLACK
6
CONTINUOUS
10
114.093
20
-153.975
11
113.14
21
-153.975
0
LINE
8
BLACK
6
CONTINUOUS
10
113.14
20
-153.975
11
113.045
21
-154.927
0
LINE
8
BLACK
6
CONTINUOUS
10
113.045
20
-154.927
11
113.14
21
-154.832
0
LINE
8
BLACK
6
CONTINUOUS
10
113.14
20
-154.832
11
113.331
21
-154.737
0
LINE
8
BLACK
6
CONTINUOUS
10
113.331
20
-154.737
11
113.807
21
-154.737
0
LINE
8
BLACK
6
CONTINUOUS
10
113.807
20
-154.737
11
113.998
21
-154.832
0
LINE
8
BLACK
6
CONTINUOUS
10
113.998
20
-154.832
11
114.093
21
-154.927
0
LINE
8
BLACK
6
CONTINUOUS
10
114.093
20
-154.927
11
114.188
21
-155.118
0
LINE
8
BLACK
6
CONTINUOUS
10
114.188
20
-155.118
11
114.188
21
-155.594
0
LINE
8
BLACK
6
CONTINUOUS
10
114.188
20
-155.594
11
114.093
21
-155.784
0
LINE
8
BLACK
6
CONTINUOUS
10
114.093
20
-155.784
11
113.998
21
-155.88
0
LINE
8
BLACK
6
CONTINUOUS
10
113.998
20
-155.88
11
113.807
21
-155.975
0
LINE
8
BLACK
6
CONTINUOUS
10
113.807
20
-155.975
11
113.331
21
-155.975
0
LINE
8
BLACK
6
CONTINUOUS
10
113.331
20
-155.975
11
113.14
21
-155.88
0
LINE
8
BLACK
6
CONTINUOUS
10
113.14
20
-155.88
11
113.045
21
-155.784
0
LINE
8
BLACK
6
CONTINUOUS
10
115.902
20
-154.641
11
115.902
21
-155.975
0
LINE
8
BLACK
6
CONTINUOUS
10
115.426
20
-153.88
11
114.95
21
-155.308
0
LINE
8
BLACK
6
CONTINUOUS
10
114.95
20
-155.308
11
116.188
21
-155.308
0
LINE
8
BLACK
6
CONTINUOUS
10
116.855
20
-153.975
11
116.855
21
-154.356
0
LINE
8
BLACK
6
CONTINUOUS
10
117.617
20
-153.975
11
117.617
21
-154.356
0
LINE
8
BLACK
6
CONTINUOUS
10
120.569
20
-156.737
11
120.474
21
-156.641
0
LINE
8
BLACK
6
CONTINUOUS
10
120.474
20
-156.641
11
120.283
21
-156.356
0
LINE
8
BLACK
6
CONTINUOUS
10
120.283
20
-156.356
11
120.188
21
-156.165
0
LINE
8
BLACK
6
CONTINUOUS
10
120.188
20
-156.165
11
120.093
21
-155.88
0
LINE
8
BLACK
6
CONTINUOUS
10
120.093
20
-155.88
11
119.998
21
-155.403
0
LINE
8
BLACK
6
CONTINUOUS
10
119.998
20
-155.403
11
119.998
21
-155.022
0
LINE
8
BLACK
6
CONTINUOUS
10
119.998
20
-155.022
11
120.093
21
-154.546
0
LINE
8
BLACK
6
CONTINUOUS
10
120.093
20
-154.546
11
120.188
21
-154.26
0
LINE
8
BLACK
6
CONTINUOUS
10
120.188
20
-154.26
11
120.283
21
-154.07
0
LINE
8
BLACK
6
CONTINUOUS
10
120.283
20
-154.07
11
120.474
21
-153.784
0
LINE
8
BLACK
6
CONTINUOUS
10
120.474
20
-153.784
11
120.569
21
-153.689
0
LINE
8
BLACK
6
CONTINUOUS
10
121.426
20
-155.975
11
121.807
21
-155.975
0
LINE
8
BLACK
6
CONTINUOUS
10
121.807
20
-155.975
11
121.998
21
-155.88
0
LINE
8
BLACK
6
CONTINUOUS
10
121.998
20
-155.88
11
122.093
21
-155.784
0
LINE
8
BLACK
6
CONTINUOUS
10
122.093
20
-155.784
11
122.283
21
-155.499
0
LINE
8
BLACK
6
CONTINUOUS
10
122.283
20
-155.499
11
122.379
21
-155.118
0
LINE
8
BLACK
6
CONTINUOUS
10
122.379
20
-155.118
11
122.379
21
-154.356
0
LINE
8
BLACK
6
CONTINUOUS
10
122.379
20
-154.356
11
122.283
21
-154.165
0
LINE
8
BLACK
6
CONTINUOUS
10
122.283
20
-154.165
11
122.188
21
-154.07
0
LINE
8
BLACK
6
CONTINUOUS
10
122.188
20
-154.07
11
121.998
21
-153.975
0
LINE
8
BLACK
6
CONTINUOUS
10
121.998
20
-153.975
11
121.617
21
-153.975
0
LINE
8
BLACK
6
CONTINUOUS
10
121.617
20
-153.975
11
121.426
21
-154.07
0
LINE
8
BLACK
6
CONTINUOUS
10
121.426
20
-154.07
11
121.331
21
-154.165
0
LINE
8
BLACK
6
CONTINUOUS
10
121.331
20
-154.165
11
121.236
21
-154.356
0
LINE
8
BLACK
6
CONTINUOUS
10
121.236
20
-154.356
11
121.236
21
-154.832
0
LINE
8
BLACK
6
CONTINUOUS
10
121.236
20
-154.832
11
121.331
21
-155.022
0
LINE
8
BLACK
6
CONTINUOUS
10
121.331
20
-155.022
11
121.426
21
-155.118
0
LINE
8
BLACK
6
CONTINUOUS
10
121.426
20
-155.118
11
121.617
21
-155.213
0
LINE
8
BLACK
6
CONTINUOUS
10
121.617
20
-155.213
11
121.998
21
-155.213
0
LINE
8
BLACK
6
CONTINUOUS
10
121.998
20
-155.213
11
122.188
21
-155.118
0
LINE
8
BLACK
6
CONTINUOUS
10
122.188
20
-155.118
11
122.283
21
-155.022
0
LINE
8
BLACK
6
CONTINUOUS
10
122.283
20
-155.022
11
122.379
21
-154.832
0
LINE
8
BLACK
6
CONTINUOUS
10
124.76
20
-155.975
11
124.76
21
-153.975
0
LINE
8
BLACK
6
CONTINUOUS
10
125.617
20
-155.975
11
125.617
21
-154.927
0
LINE
8
BLACK
6
CONTINUOUS
10
125.617
20
-154.927
11
125.521
21
-154.737
0
LINE
8
BLACK
6
CONTINUOUS
10
125.521
20
-154.737
11
125.331
21
-154.641
0
LINE
8
BLACK
6
CONTINUOUS
10
125.331
20
-154.641
11
125.045
21
-154.641
0
LINE
8
BLACK
6
CONTINUOUS
10
125.045
20
-154.641
11
124.855
21
-154.737
0
LINE
8
BLACK
6
CONTINUOUS
10
124.855
20
-154.737
11
124.76
21
-154.832
0
LINE
8
BLACK
6
CONTINUOUS
10
126.855
20
-155.975
11
126.664
21
-155.88
0
LINE
8
BLACK
6
CONTINUOUS
10
126.664
20
-155.88
11
126.569
21
-155.784
0
LINE
8
BLACK
6
CONTINUOUS
10
126.569
20
-155.784
11
126.474
21
-155.594
0
LINE
8
BLACK
6
CONTINUOUS
10
126.474
20
-155.594
11
126.474
21
-155.022
0
LINE
8
BLACK
6
CONTINUOUS
10
126.474
20
-155.022
11
126.569
21
-154.832
0
LINE
8
BLACK
6
CONTINUOUS
10
126.569
20
-154.832
11
126.664
21
-154.737
0
LINE
8
BLACK
6
CONTINUOUS
10
126.664
20
-154.737
11
126.855
21
-154.641
0
LINE
8
BLACK
6
CONTINUOUS
10
126.855
20
-154.641
11
127.14
21
-154.641
0
LINE
8
BLACK
6
CONTINUOUS
10
127.14
20
-154.641
11
127.331
21
-154.737
0
LINE
8
BLACK
6
CONTINUOUS
10
127.331
20
-154.737
11
127.426
21
-154.832
0
LINE
8
BLACK
6
CONTINUOUS
10
127.426
20
-154.832
11
127.521
21
-155.022
0
LINE
8
BLACK
6
CONTINUOUS
10
127.521
20
-155.022
11
127.521
21
-155.594
0
LINE
8
BLACK
6
CONTINUOUS
10
127.521
20
-155.594
11
127.426
21
-155.784
0
LINE
8
BLACK
6
CONTINUOUS
10
127.426
20
-155.784
11
127.331
21
-155.88
0
LINE
8
BLACK
6
CONTINUOUS
10
127.331
20
-155.88
11
127.14
21
-155.975
0
LINE
8
BLACK
6
CONTINUOUS
10
127.14
20
-155.975
11
126.855
21
-155.975
0
LINE
8
BLACK
6
CONTINUOUS
10
128.664
20
-155.975
11
128.474
21
-155.88
0
LINE
8
BLACK
6
CONTINUOUS
10
128.474
20
-155.88
11
128.379
21
-155.689
0
LINE
8
BLACK
6
CONTINUOUS
10
128.379
20
-155.689
11
128.379
21
-153.975
0
LINE
8
BLACK
6
CONTINUOUS
10
130.188
20
-155.88
11
129.998
21
-155.975
0
LINE
8
BLACK
6
CONTINUOUS
10
129.998
20
-155.975
11
129.617
21
-155.975
0
LINE
8
BLACK
6
CONTINUOUS
10
129.617
20
-155.975
11
129.426
21
-155.88
0
LINE
8
BLACK
6
CONTINUOUS
10
129.426
20
-155.88
11
129.331
21
-155.689
0
LINE
8
BLACK
6
CONTINUOUS
10
129.331
20
-155.689
11
129.331
21
-154.927
0
LINE
8
BLACK
6
CONTINUOUS
10
129.331
20
-154.927
11
129.426
21
-154.737
0
LINE
8
BLACK
6
CONTINUOUS
10
129.426
20
-154.737
11
129.617
21
-154.641
0
LINE
8
BLACK
6
CONTINUOUS
10
129.617
20
-154.641
11
129.998
21
-154.641
0
LINE
8
BLACK
6
CONTINUOUS
10
129.998
20
-154.641
11
130.188
21
-154.737
0
LINE
8
BLACK
6
CONTINUOUS
10
130.188
20
-154.737
11
130.283
21
-154.927
0
LINE
8
BLACK
6
CONTINUOUS
10
130.283
20
-154.927
11
130.283
21
-155.118
0
LINE
8
BLACK
6
CONTINUOUS
10
130.283
20
-155.118
11
129.331
21
-155.308
0
LINE
8
BLACK
6
CONTINUOUS
10
131.045
20
-155.88
11
131.236
21
-155.975
0
LINE
8
BLACK
6
CONTINUOUS
10
131.236
20
-155.975
11
131.617
21
-155.975
0
LINE
8
BLACK
6
CONTINUOUS
10
131.617
20
-155.975
11
131.807
21
-155.88
0
LINE
8
BLACK
6
CONTINUOUS
10
131.807
20
-155.88
11
131.902
21
-155.689
0
LINE
8
BLACK
6
CONTINUOUS
10
131.902
20
-155.689
11
131.902
21
-155.594
0
LINE
8
BLACK
6
CONTINUOUS
10
131.902
20
-155.594
11
131.807
21
-155.403
0
LINE
8
BLACK
6
CONTINUOUS
10
131.807
20
-155.403
11
131.617
21
-155.308
0
LINE
8
BLACK
6
CONTINUOUS
10
131.617
20
-155.308
11
131.331
21
-155.308
0
LINE
8
BLACK
6
CONTINUOUS
10
131.331
20
-155.308
11
131.14
21
-155.213
0
LINE
8
BLACK
6
CONTINUOUS
10
131.14
20
-155.213
11
131.045
21
-155.022
0
LINE
8
BLACK
6
CONTINUOUS
10
131.045
20
-155.022
11
131.045
21
-154.927
0
LINE
8
BLACK
6
CONTINUOUS
10
131.045
20
-154.927
11
131.14
21
-154.737
0
LINE
8
BLACK
6
CONTINUOUS
10
131.14
20
-154.737
11
131.331
21
-154.641
0
LINE
8
BLACK
6
CONTINUOUS
10
131.331
20
-154.641
11
131.617
21
-154.641
0
LINE
8
BLACK
6
CONTINUOUS
10
131.617
20
-154.641
11
131.807
21
-154.737
0
LINE
8
BLACK
6
CONTINUOUS
10
132.569
20
-156.737
11
132.664
21
-156.641
0
LINE
8
BLACK
6
CONTINUOUS
10
132.664
20
-156.641
11
132.855
21
-156.356
0
LINE
8
BLACK
6
CONTINUOUS
10
132.855
20
-156.356
11
132.95
21
-156.165
0
LINE
8
BLACK
6
CONTINUOUS
10
132.95
20
-156.165
11
133.045
21
-155.88
0
LINE
8
BLACK
6
CONTINUOUS
10
133.045
20
-155.88
11
133.14
21
-155.403
0
LINE
8
BLACK
6
CONTINUOUS
10
133.14
20
-155.403
11
133.14
21
-155.022
0
LINE
8
BLACK
6
CONTINUOUS
10
133.14
20
-155.022
11
133.045
21
-154.546
0
LINE
8
BLACK
6
CONTINUOUS
10
133.045
20
-154.546
11
132.95
21
-154.26
0
LINE
8
BLACK
6
CONTINUOUS
10
132.95
20
-154.26
11
132.855
21
-154.07
0
LINE
8
BLACK
6
CONTINUOUS
10
132.855
20
-154.07
11
132.664
21
-153.784
0
LINE
8
BLACK
6
CONTINUOUS
10
132.664
20
-153.784
11
132.569
21
-153.689
0
LINE
8
BLACK
6
CONTINUOUS
10
84.355
20
-158.205
11
84.85
21
-157.71
0
LINE
8
BLACK
6
CONTINUOUS
10
84.85
20
-157.71
11
84.355
21
-157.215
0
LINE
8
BLACK
6
CONTINUOUS
10
84.355
20
-157.215
11
83.86
21
-157.71
0
LINE
8
BLACK
6
CONTINUOUS
10
83.86
20
-157.71
11
84.355
21
-158.205
0
LINE
8
BLACK
6
CONTINUOUS
10
87.8071
20
-156.615
11
87.9976
21
-156.615
0
LINE
8
BLACK
6
CONTINUOUS
10
87.9976
20
-156.615
11
88.1881
21
-156.71
0
LINE
8
BLACK
6
CONTINUOUS
10
88.1881
20
-156.71
11
88.2833
21
-156.805
0
LINE
8
BLACK
6
CONTINUOUS
10
88.2833
20
-156.805
11
88.3786
21
-156.996
0
LINE
8
BLACK
6
CONTINUOUS
10
88.3786
20
-156.996
11
88.4738
21
-157.377
0
LINE
8
BLACK
6
CONTINUOUS
10
88.4738
20
-157.377
11
88.4738
21
-157.853
0
LINE
8
BLACK
6
CONTINUOUS
10
88.4738
20
-157.853
11
88.3786
21
-158.234
0
LINE
8
BLACK
6
CONTINUOUS
10
88.3786
20
-158.234
11
88.2833
21
-158.424
0
LINE
8
BLACK
6
CONTINUOUS
10
88.2833
20
-158.424
11
88.1881
21
-158.52
0
LINE
8
BLACK
6
CONTINUOUS
10
88.1881
20
-158.52
11
87.9976
21
-158.615
0
LINE
8
BLACK
6
CONTINUOUS
10
87.9976
20
-158.615
11
87.8071
21
-158.615
0
LINE
8
BLACK
6
CONTINUOUS
10
87.8071
20
-158.615
11
87.6167
21
-158.52
0
LINE
8
BLACK
6
CONTINUOUS
10
87.6167
20
-158.52
11
87.5214
21
-158.424
0
LINE
8
BLACK
6
CONTINUOUS
10
87.5214
20
-158.424
11
87.4262
21
-158.234
0
LINE
8
BLACK
6
CONTINUOUS
10
87.4262
20
-158.234
11
87.331
21
-157.853
0
LINE
8
BLACK
6
CONTINUOUS
10
87.331
20
-157.853
11
87.331
21
-157.377
0
LINE
8
BLACK
6
CONTINUOUS
10
87.331
20
-157.377
11
87.4262
21
-156.996
0
LINE
8
BLACK
6
CONTINUOUS
10
87.4262
20
-156.996
11
87.5214
21
-156.805
0
LINE
8
BLACK
6
CONTINUOUS
10
87.5214
20
-156.805
11
87.6167
21
-156.71
0
LINE
8
BLACK
6
CONTINUOUS
10
87.6167
20
-156.71
11
87.8071
21
-156.615
0
LINE
8
BLACK
6
CONTINUOUS
10
89.331
20
-158.424
11
89.4262
21
-158.52
0
LINE
8
BLACK
6
CONTINUOUS
10
89.4262
20
-158.52
11
89.331
21
-158.615
0
LINE
8
BLACK
6
CONTINUOUS
10
89.331
20
-158.615
11
89.2357
21
-158.52
0
LINE
8
BLACK
6
CONTINUOUS
10
89.2357
20
-158.52
11
89.331
21
-158.424
0
LINE
8
BLACK
6
CONTINUOUS
10
89.331
20
-158.424
11
89.331
21
-158.615
0
LINE
8
BLACK
6
CONTINUOUS
10
90.3786
20
-158.615
11
90.7595
21
-158.615
0
LINE
8
BLACK
6
CONTINUOUS
10
90.7595
20
-158.615
11
90.95
21
-158.52
0
LINE
8
BLACK
6
CONTINUOUS
10
90.95
20
-158.52
11
91.0452
21
-158.424
0
LINE
8
BLACK
6
CONTINUOUS
10
91.0452
20
-158.424
11
91.2357
21
-158.139
0
LINE
8
BLACK
6
CONTINUOUS
10
91.2357
20
-158.139
11
91.331
21
-157.758
0
LINE
8
BLACK
6
CONTINUOUS
10
91.331
20
-157.758
11
91.331
21
-156.996
0
LINE
8
BLACK
6
CONTINUOUS
10
91.331
20
-156.996
11
91.2357
21
-156.805
0
LINE
8
BLACK
6
CONTINUOUS
10
91.2357
20
-156.805
11
91.1405
21
-156.71
0
LINE
8
BLACK
6
CONTINUOUS
10
91.1405
20
-156.71
11
90.95
21
-156.615
0
LINE
8
BLACK
6
CONTINUOUS
10
90.95
20
-156.615
11
90.569
21
-156.615
0
LINE
8
BLACK
6
CONTINUOUS
10
90.569
20
-156.615
11
90.3786
21
-156.71
0
LINE
8
BLACK
6
CONTINUOUS
10
90.3786
20
-156.71
11
90.2833
21
-156.805
0
LINE
8
BLACK
6
CONTINUOUS
10
90.2833
20
-156.805
11
90.1881
21
-156.996
0
LINE
8
BLACK
6
CONTINUOUS
10
90.1881
20
-156.996
11
90.1881
21
-157.472
0
LINE
8
BLACK
6
CONTINUOUS
10
90.1881
20
-157.472
11
90.2833
21
-157.662
0
LINE
8
BLACK
6
CONTINUOUS
10
90.2833
20
-157.662
11
90.3786
21
-157.758
0
LINE
8
BLACK
6
CONTINUOUS
10
90.3786
20
-157.758
11
90.569
21
-157.853
0
LINE
8
BLACK
6
CONTINUOUS
10
90.569
20
-157.853
11
90.95
21
-157.853
0
LINE
8
BLACK
6
CONTINUOUS
10
90.95
20
-157.853
11
91.1405
21
-157.758
0
LINE
8
BLACK
6
CONTINUOUS
10
91.1405
20
-157.758
11
91.2357
21
-157.662
0
LINE
8
BLACK
6
CONTINUOUS
10
91.2357
20
-157.662
11
91.331
21
-157.472
0
LINE
8
BLACK
6
CONTINUOUS
10
92.2833
20
-158.615
11
92.6643
21
-158.615
0
LINE
8
BLACK
6
CONTINUOUS
10
92.6643
20
-158.615
11
92.8548
21
-158.52
0
LINE
8
BLACK
6
CONTINUOUS
10
92.8548
20
-158.52
11
92.95
21
-158.424
0
LINE
8
BLACK
6
CONTINUOUS
10
92.95
20
-158.424
11
93.1405
21
-158.139
0
LINE
8
BLACK
6
CONTINUOUS
10
93.1405
20
-158.139
11
93.2357
21
-157.758
0
LINE
8
BLACK
6
CONTINUOUS
10
93.2357
20
-157.758
11
93.2357
21
-156.996
0
LINE
8
BLACK
6
CONTINUOUS
10
93.2357
20
-156.996
11
93.1405
21
-156.805
0
LINE
8
BLACK
6
CONTINUOUS
10
93.1405
20
-156.805
11
93.0452
21
-156.71
0
LINE
8
BLACK
6
CONTINUOUS
10
93.0452
20
-156.71
11
92.8548
21
-156.615
0
LINE
8
BLACK
6
CONTINUOUS
10
92.8548
20
-156.615
11
92.4738
21
-156.615
0
LINE
8
BLACK
6
CONTINUOUS
10
92.4738
20
-156.615
11
92.2833
21
-156.71
0
LINE
8
BLACK
6
CONTINUOUS
10
92.2833
20
-156.71
11
92.1881
21
-156.805
0
LINE
8
BLACK
6
CONTINUOUS
10
92.1881
20
-156.805
11
92.0929
21
-156.996
0
LINE
8
BLACK
6
CONTINUOUS
10
92.0929
20
-156.996
11
92.0929
21
-157.472
0
LINE
8
BLACK
6
CONTINUOUS
10
92.0929
20
-157.472
11
92.1881
21
-157.662
0
LINE
8
BLACK
6
CONTINUOUS
10
92.1881
20
-157.662
11
92.2833
21
-157.758
0
LINE
8
BLACK
6
CONTINUOUS
10
92.2833
20
-157.758
11
92.4738
21
-157.853
0
LINE
8
BLACK
6
CONTINUOUS
10
92.4738
20
-157.853
11
92.8548
21
-157.853
0
LINE
8
BLACK
6
CONTINUOUS
10
92.8548
20
-157.853
11
93.0452
21
-157.758
0
LINE
8
BLACK
6
CONTINUOUS
10
93.0452
20
-157.758
11
93.1405
21
-157.662
0
LINE
8
BLACK
6
CONTINUOUS
10
93.1405
20
-157.662
11
93.2357
21
-157.472
0
LINE
8
BLACK
6
CONTINUOUS
10
94.4738
20
-156.615
11
94.6643
21
-156.615
0
LINE
8
BLACK
6
CONTINUOUS
10
94.6643
20
-156.615
11
94.8548
21
-156.71
0
LINE
8
BLACK
6
CONTINUOUS
10
94.8548
20
-156.71
11
94.95
21
-156.805
0
LINE
8
BLACK
6
CONTINUOUS
10
94.95
20
-156.805
11
95.0452
21
-156.996
0
LINE
8
BLACK
6
CONTINUOUS
10
95.0452
20
-156.996
11
95.1405
21
-157.377
0
LINE
8
BLACK
6
CONTINUOUS
10
95.1405
20
-157.377
11
95.1405
21
-157.853
0
LINE
8
BLACK
6
CONTINUOUS
10
95.1405
20
-157.853
11
95.0452
21
-158.234
0
LINE
8
BLACK
6
CONTINUOUS
10
95.0452
20
-158.234
11
94.95
21
-158.424
0
LINE
8
BLACK
6
CONTINUOUS
10
94.95
20
-158.424
11
94.8548
21
-158.52
0
LINE
8
BLACK
6
CONTINUOUS
10
94.8548
20
-158.52
11
94.6643
21
-158.615
0
LINE
8
BLACK
6
CONTINUOUS
10
94.6643
20
-158.615
11
94.4738
21
-158.615
0
LINE
8
BLACK
6
CONTINUOUS
10
94.4738
20
-158.615
11
94.2833
21
-158.52
0
LINE
8
BLACK
6
CONTINUOUS
10
94.2833
20
-158.52
11
94.1881
21
-158.424
0
LINE
8
BLACK
6
CONTINUOUS
10
94.1881
20
-158.424
11
94.0929
21
-158.234
0
LINE
8
BLACK
6
CONTINUOUS
10
94.0929
20
-158.234
11
93.9976
21
-157.853
0
LINE
8
BLACK
6
CONTINUOUS
10
93.9976
20
-157.853
11
93.9976
21
-157.377
0
LINE
8
BLACK
6
CONTINUOUS
10
93.9976
20
-157.377
11
94.0929
21
-156.996
0
LINE
8
BLACK
6
CONTINUOUS
10
94.0929
20
-156.996
11
94.1881
21
-156.805
0
LINE
8
BLACK
6
CONTINUOUS
10
94.1881
20
-156.805
11
94.2833
21
-156.71
0
LINE
8
BLACK
6
CONTINUOUS
10
94.2833
20
-156.71
11
94.4738
21
-156.615
0
LINE
8
BLACK
6
CONTINUOUS
10
95.9976
20
-158.615
11
95.9976
21
-157.281
0
LINE
8
BLACK
6
CONTINUOUS
10
95.9976
20
-157.472
11
96.0929
21
-157.377
0
LINE
8
BLACK
6
CONTINUOUS
10
96.0929
20
-157.377
11
96.2833
21
-157.281
0
LINE
8
BLACK
6
CONTINUOUS
10
96.2833
20
-157.281
11
96.569
21
-157.281
0
LINE
8
BLACK
6
CONTINUOUS
10
96.569
20
-157.281
11
96.7595
21
-157.377
0
LINE
8
BLACK
6
CONTINUOUS
10
96.7595
20
-157.377
11
96.8548
21
-157.567
0
LINE
8
BLACK
6
CONTINUOUS
10
96.8548
20
-157.567
11
96.8548
21
-158.615
0
LINE
8
BLACK
6
CONTINUOUS
10
96.8548
20
-157.567
11
96.95
21
-157.377
0
LINE
8
BLACK
6
CONTINUOUS
10
96.95
20
-157.377
11
97.1405
21
-157.281
0
LINE
8
BLACK
6
CONTINUOUS
10
97.1405
20
-157.281
11
97.4262
21
-157.281
0
LINE
8
BLACK
6
CONTINUOUS
10
97.4262
20
-157.281
11
97.6167
21
-157.377
0
LINE
8
BLACK
6
CONTINUOUS
10
97.6167
20
-157.377
11
97.7119
21
-157.567
0
LINE
8
BLACK
6
CONTINUOUS
10
97.7119
20
-157.567
11
97.7119
21
-158.615
0
LINE
8
BLACK
6
CONTINUOUS
10
98.6643
20
-158.615
11
98.6643
21
-157.281
0
LINE
8
BLACK
6
CONTINUOUS
10
98.6643
20
-157.472
11
98.7595
21
-157.377
0
LINE
8
BLACK
6
CONTINUOUS
10
98.7595
20
-157.377
11
98.95
21
-157.281
0
LINE
8
BLACK
6
CONTINUOUS
10
98.95
20
-157.281
11
99.2357
21
-157.281
0
LINE
8
BLACK
6
CONTINUOUS
10
99.2357
20
-157.281
11
99.4262
21
-157.377
0
LINE
8
BLACK
6
CONTINUOUS
10
99.4262
20
-157.377
11
99.5214
21
-157.567
0
LINE
8
BLACK
6
CONTINUOUS
10
99.5214
20
-157.567
11
99.5214
21
-158.615
0
LINE
8
BLACK
6
CONTINUOUS
10
99.5214
20
-157.567
11
99.6167
21
-157.377
0
LINE
8
BLACK
6
CONTINUOUS
10
99.6167
20
-157.377
11
99.8071
21
-157.281
0
LINE
8
BLACK
6
CONTINUOUS
10
99.8071
20
-157.281
11
100.093
21
-157.281
0
LINE
8
BLACK
6
CONTINUOUS
10
100.093
20
-157.281
11
100.283
21
-157.377
0
LINE
8
BLACK
6
CONTINUOUS
10
100.283
20
-157.377
11
100.379
21
-157.567
0
LINE
8
BLACK
6
CONTINUOUS
10
100.379
20
-157.567
11
100.379
21
-158.615
0
LINE
8
BLACK
6
CONTINUOUS
10
104.283
20
-156.52
11
102.569
21
-159.091
0
LINE
8
BLACK
6
CONTINUOUS
10
106.855
20
-156.615
11
107.045
21
-156.615
0
LINE
8
BLACK
6
CONTINUOUS
10
107.045
20
-156.615
11
107.236
21
-156.71
0
LINE
8
BLACK
6
CONTINUOUS
10
107.236
20
-156.71
11
107.331
21
-156.805
0
LINE
8
BLACK
6
CONTINUOUS
10
107.331
20
-156.805
11
107.426
21
-156.996
0
LINE
8
BLACK
6
CONTINUOUS
10
107.426
20
-156.996
11
107.521
21
-157.377
0
LINE
8
BLACK
6
CONTINUOUS
10
107.521
20
-157.377
11
107.521
21
-157.853
0
LINE
8
BLACK
6
CONTINUOUS
10
107.521
20
-157.853
11
107.426
21
-158.234
0
LINE
8
BLACK
6
CONTINUOUS
10
107.426
20
-158.234
11
107.331
21
-158.424
0
LINE
8
BLACK
6
CONTINUOUS
10
107.331
20
-158.424
11
107.236
21
-158.52
0
LINE
8
BLACK
6
CONTINUOUS
10
107.236
20
-158.52
11
107.045
21
-158.615
0
LINE
8
BLACK
6
CONTINUOUS
10
107.045
20
-158.615
11
106.855
21
-158.615
0
LINE
8
BLACK
6
CONTINUOUS
10
106.855
20
-158.615
11
106.664
21
-158.52
0
LINE
8
BLACK
6
CONTINUOUS
10
106.664
20
-158.52
11
106.569
21
-158.424
0
LINE
8
BLACK
6
CONTINUOUS
10
106.569
20
-158.424
11
106.474
21
-158.234
0
LINE
8
BLACK
6
CONTINUOUS
10
106.474
20
-158.234
11
106.379
21
-157.853
0
LINE
8
BLACK
6
CONTINUOUS
10
106.379
20
-157.853
11
106.379
21
-157.377
0
LINE
8
BLACK
6
CONTINUOUS
10
106.379
20
-157.377
11
106.474
21
-156.996
0
LINE
8
BLACK
6
CONTINUOUS
10
106.474
20
-156.996
11
106.569
21
-156.805
0
LINE
8
BLACK
6
CONTINUOUS
10
106.569
20
-156.805
11
106.664
21
-156.71
0
LINE
8
BLACK
6
CONTINUOUS
10
106.664
20
-156.71
11
106.855
21
-156.615
0
LINE
8
BLACK
6
CONTINUOUS
10
108.379
20
-158.424
11
108.474
21
-158.52
0
LINE
8
BLACK
6
CONTINUOUS
10
108.474
20
-158.52
11
108.379
21
-158.615
0
LINE
8
BLACK
6
CONTINUOUS
10
108.379
20
-158.615
11
108.283
21
-158.52
0
LINE
8
BLACK
6
CONTINUOUS
10
108.283
20
-158.52
11
108.379
21
-158.424
0
LINE
8
BLACK
6
CONTINUOUS
10
108.379
20
-158.424
11
108.379
21
-158.615
0
LINE
8
BLACK
6
CONTINUOUS
10
109.712
20
-156.615
11
109.902
21
-156.615
0
LINE
8
BLACK
6
CONTINUOUS
10
109.902
20
-156.615
11
110.093
21
-156.71
0
LINE
8
BLACK
6
CONTINUOUS
10
110.093
20
-156.71
11
110.188
21
-156.805
0
LINE
8
BLACK
6
CONTINUOUS
10
110.188
20
-156.805
11
110.283
21
-156.996
0
LINE
8
BLACK
6
CONTINUOUS
10
110.283
20
-156.996
11
110.379
21
-157.377
0
LINE
8
BLACK
6
CONTINUOUS
10
110.379
20
-157.377
11
110.379
21
-157.853
0
LINE
8
BLACK
6
CONTINUOUS
10
110.379
20
-157.853
11
110.283
21
-158.234
0
LINE
8
BLACK
6
CONTINUOUS
10
110.283
20
-158.234
11
110.188
21
-158.424
0
LINE
8
BLACK
6
CONTINUOUS
10
110.188
20
-158.424
11
110.093
21
-158.52
0
LINE
8
BLACK
6
CONTINUOUS
10
110.093
20
-158.52
11
109.902
21
-158.615
0
LINE
8
BLACK
6
CONTINUOUS
10
109.902
20
-158.615
11
109.712
21
-158.615
0
LINE
8
BLACK
6
CONTINUOUS
10
109.712
20
-158.615
11
109.521
21
-158.52
0
LINE
8
BLACK
6
CONTINUOUS
10
109.521
20
-158.52
11
109.426
21
-158.424
0
LINE
8
BLACK
6
CONTINUOUS
10
109.426
20
-158.424
11
109.331
21
-158.234
0
LINE
8
BLACK
6
CONTINUOUS
10
109.331
20
-158.234
11
109.236
21
-157.853
0
LINE
8
BLACK
6
CONTINUOUS
10
109.236
20
-157.853
11
109.236
21
-157.377
0
LINE
8
BLACK
6
CONTINUOUS
10
109.236
20
-157.377
11
109.331
21
-156.996
0
LINE
8
BLACK
6
CONTINUOUS
10
109.331
20
-156.996
11
109.426
21
-156.805
0
LINE
8
BLACK
6
CONTINUOUS
10
109.426
20
-156.805
11
109.521
21
-156.71
0
LINE
8
BLACK
6
CONTINUOUS
10
109.521
20
-156.71
11
109.712
21
-156.615
0
LINE
8
BLACK
6
CONTINUOUS
10
111.045
20
-156.615
11
112.283
21
-156.615
0
LINE
8
BLACK
6
CONTINUOUS
10
112.283
20
-156.615
11
111.617
21
-157.377
0
LINE
8
BLACK
6
CONTINUOUS
10
111.617
20
-157.377
11
111.902
21
-157.377
0
LINE
8
BLACK
6
CONTINUOUS
10
111.902
20
-157.377
11
112.093
21
-157.472
0
LINE
8
BLACK
6
CONTINUOUS
10
112.093
20
-157.472
11
112.188
21
-157.567
0
LINE
8
BLACK
6
CONTINUOUS
10
112.188
20
-157.567
11
112.283
21
-157.758
0
LINE
8
BLACK
6
CONTINUOUS
10
112.283
20
-157.758
11
112.283
21
-158.234
0
LINE
8
BLACK
6
CONTINUOUS
10
112.283
20
-158.234
11
112.188
21
-158.424
0
LINE
8
BLACK
6
CONTINUOUS
10
112.188
20
-158.424
11
112.093
21
-158.52
0
LINE
8
BLACK
6
CONTINUOUS
10
112.093
20
-158.52
11
111.902
21
-158.615
0
LINE
8
BLACK
6
CONTINUOUS
10
111.902
20
-158.615
11
111.331
21
-158.615
0
LINE
8
BLACK
6
CONTINUOUS
10
111.331
20
-158.615
11
111.14
21
-158.52
0
LINE
8
BLACK
6
CONTINUOUS
10
111.14
20
-158.52
11
111.045
21
-158.424
0
LINE
8
BLACK
6
CONTINUOUS
10
113.236
20
-158.615
11
113.617
21
-158.615
0
LINE
8
BLACK
6
CONTINUOUS
10
113.617
20
-158.615
11
113.807
21
-158.52
0
LINE
8
BLACK
6
CONTINUOUS
10
113.807
20
-158.52
11
113.902
21
-158.424
0
LINE
8
BLACK
6
CONTINUOUS
10
113.902
20
-158.424
11
114.093
21
-158.139
0
LINE
8
BLACK
6
CONTINUOUS
10
114.093
20
-158.139
11
114.188
21
-157.758
0
LINE
8
BLACK
6
CONTINUOUS
10
114.188
20
-157.758
11
114.188
21
-156.996
0
LINE
8
BLACK
6
CONTINUOUS
10
114.188
20
-156.996
11
114.093
21
-156.805
0
LINE
8
BLACK
6
CONTINUOUS
10
114.093
20
-156.805
11
113.998
21
-156.71
0
LINE
8
BLACK
6
CONTINUOUS
10
113.998
20
-156.71
11
113.807
21
-156.615
0
LINE
8
BLACK
6
CONTINUOUS
10
113.807
20
-156.615
11
113.426
21
-156.615
0
LINE
8
BLACK
6
CONTINUOUS
10
113.426
20
-156.615
11
113.236
21
-156.71
0
LINE
8
BLACK
6
CONTINUOUS
10
113.236
20
-156.71
11
113.14
21
-156.805
0
LINE
8
BLACK
6
CONTINUOUS
10
113.14
20
-156.805
11
113.045
21
-156.996
0
LINE
8
BLACK
6
CONTINUOUS
10
113.045
20
-156.996
11
113.045
21
-157.472
0
LINE
8
BLACK
6
CONTINUOUS
10
113.045
20
-157.472
11
113.14
21
-157.662
0
LINE
8
BLACK
6
CONTINUOUS
10
113.14
20
-157.662
11
113.236
21
-157.758
0
LINE
8
BLACK
6
CONTINUOUS
10
113.236
20
-157.758
11
113.426
21
-157.853
0
LINE
8
BLACK
6
CONTINUOUS
10
113.426
20
-157.853
11
113.807
21
-157.853
0
LINE
8
BLACK
6
CONTINUOUS
10
113.807
20
-157.853
11
113.998
21
-157.758
0
LINE
8
BLACK
6
CONTINUOUS
10
113.998
20
-157.758
11
114.093
21
-157.662
0
LINE
8
BLACK
6
CONTINUOUS
10
114.093
20
-157.662
11
114.188
21
-157.472
0
LINE
8
BLACK
6
CONTINUOUS
10
115.426
20
-156.615
11
115.617
21
-156.615
0
LINE
8
BLACK
6
CONTINUOUS
10
115.617
20
-156.615
11
115.807
21
-156.71
0
LINE
8
BLACK
6
CONTINUOUS
10
115.807
20
-156.71
11
115.902
21
-156.805
0
LINE
8
BLACK
6
CONTINUOUS
10
115.902
20
-156.805
11
115.998
21
-156.996
0
LINE
8
BLACK
6
CONTINUOUS
10
115.998
20
-156.996
11
116.093
21
-157.377
0
LINE
8
BLACK
6
CONTINUOUS
10
116.093
20
-157.377
11
116.093
21
-157.853
0
LINE
8
BLACK
6
CONTINUOUS
10
116.093
20
-157.853
11
115.998
21
-158.234
0
LINE
8
BLACK
6
CONTINUOUS
10
115.998
20
-158.234
11
115.902
21
-158.424
0
LINE
8
BLACK
6
CONTINUOUS
10
115.902
20
-158.424
11
115.807
21
-158.52
0
LINE
8
BLACK
6
CONTINUOUS
10
115.807
20
-158.52
11
115.617
21
-158.615
0
LINE
8
BLACK
6
CONTINUOUS
10
115.617
20
-158.615
11
115.426
21
-158.615
0
LINE
8
BLACK
6
CONTINUOUS
10
115.426
20
-158.615
11
115.236
21
-158.52
0
LINE
8
BLACK
6
CONTINUOUS
10
115.236
20
-158.52
11
115.14
21
-158.424
0
LINE
8
BLACK
6
CONTINUOUS
10
115.14
20
-158.424
11
115.045
21
-158.234
0
LINE
8
BLACK
6
CONTINUOUS
10
115.045
20
-158.234
11
114.95
21
-157.853
0
LINE
8
BLACK
6
CONTINUOUS
10
114.95
20
-157.853
11
114.95
21
-157.377
0
LINE
8
BLACK
6
CONTINUOUS
10
114.95
20
-157.377
11
115.045
21
-156.996
0
LINE
8
BLACK
6
CONTINUOUS
10
115.045
20
-156.996
11
115.14
21
-156.805
0
LINE
8
BLACK
6
CONTINUOUS
10
115.14
20
-156.805
11
115.236
21
-156.71
0
LINE
8
BLACK
6
CONTINUOUS
10
115.236
20
-156.71
11
115.426
21
-156.615
0
LINE
8
BLACK
6
CONTINUOUS
10
116.855
20
-156.615
11
116.855
21
-156.996
0
LINE
8
BLACK
6
CONTINUOUS
10
117.617
20
-156.615
11
117.617
21
-156.996
0
LINE
8
BLACK
6
CONTINUOUS
10
120.569
20
-159.377
11
120.474
21
-159.281
0
LINE
8
BLACK
6
CONTINUOUS
10
120.474
20
-159.281
11
120.283
21
-158.996
0
LINE
8
BLACK
6
CONTINUOUS
10
120.283
20
-158.996
11
120.188
21
-158.805
0
LINE
8
BLACK
6
CONTINUOUS
10
120.188
20
-158.805
11
120.093
21
-158.52
0
LINE
8
BLACK
6
CONTINUOUS
10
120.093
20
-158.52
11
119.998
21
-158.043
0
LINE
8
BLACK
6
CONTINUOUS
10
119.998
20
-158.043
11
119.998
21
-157.662
0
LINE
8
BLACK
6
CONTINUOUS
10
119.998
20
-157.662
11
120.093
21
-157.186
0
LINE
8
BLACK
6
CONTINUOUS
10
120.093
20
-157.186
11
120.188
21
-156.9
0
LINE
8
BLACK
6
CONTINUOUS
10
120.188
20
-156.9
11
120.283
21
-156.71
0
LINE
8
BLACK
6
CONTINUOUS
10
120.283
20
-156.71
11
120.474
21
-156.424
0
LINE
8
BLACK
6
CONTINUOUS
10
120.474
20
-156.424
11
120.569
21
-156.329
0
LINE
8
BLACK
6
CONTINUOUS
10
121.236
20
-156.805
11
121.331
21
-156.71
0
LINE
8
BLACK
6
CONTINUOUS
10
121.331
20
-156.71
11
121.521
21
-156.615
0
LINE
8
BLACK
6
CONTINUOUS
10
121.521
20
-156.615
11
121.998
21
-156.615
0
LINE
8
BLACK
6
CONTINUOUS
10
121.998
20
-156.615
11
122.188
21
-156.71
0
LINE
8
BLACK
6
CONTINUOUS
10
122.188
20
-156.71
11
122.283
21
-156.805
0
LINE
8
BLACK
6
CONTINUOUS
10
122.283
20
-156.805
11
122.379
21
-156.996
0
LINE
8
BLACK
6
CONTINUOUS
10
122.379
20
-156.996
11
122.379
21
-157.186
0
LINE
8
BLACK
6
CONTINUOUS
10
122.379
20
-157.186
11
122.283
21
-157.472
0
LINE
8
BLACK
6
CONTINUOUS
10
122.283
20
-157.472
11
121.14
21
-158.615
0
LINE
8
BLACK
6
CONTINUOUS
10
121.14
20
-158.615
11
122.379
21
-158.615
0
LINE
8
BLACK
6
CONTINUOUS
10
124.76
20
-158.615
11
124.76
21
-156.615
0
LINE
8
BLACK
6
CONTINUOUS
10
125.617
20
-158.615
11
125.617
21
-157.567
0
LINE
8
BLACK
6
CONTINUOUS
10
125.617
20
-157.567
11
125.521
21
-157.377
0
LINE
8
BLACK
6
CONTINUOUS
10
125.521
20
-157.377
11
125.331
21
-157.281
0
LINE
8
BLACK
6
CONTINUOUS
10
125.331
20
-157.281
11
125.045
21
-157.281
0
LINE
8
BLACK
6
CONTINUOUS
10
125.045
20
-157.281
11
124.855
21
-157.377
0
LINE
8
BLACK
6
CONTINUOUS
10
124.855
20
-157.377
11
124.76
21
-157.472
0
LINE
8
BLACK
6
CONTINUOUS
10
126.855
20
-158.615
11
126.664
21
-158.52
0
LINE
8
BLACK
6
CONTINUOUS
10
126.664
20
-158.52
11
126.569
21
-158.424
0
LINE
8
BLACK
6
CONTINUOUS
10
126.569
20
-158.424
11
126.474
21
-158.234
0
LINE
8
BLACK
6
CONTINUOUS
10
126.474
20
-158.234
11
126.474
21
-157.662
0
LINE
8
BLACK
6
CONTINUOUS
10
126.474
20
-157.662
11
126.569
21
-157.472
0
LINE
8
BLACK
6
CONTINUOUS
10
126.569
20
-157.472
11
126.664
21
-157.377
0
LINE
8
BLACK
6
CONTINUOUS
10
126.664
20
-157.377
11
126.855
21
-157.281
0
LINE
8
BLACK
6
CONTINUOUS
10
126.855
20
-157.281
11
127.14
21
-157.281
0
LINE
8
BLACK
6
CONTINUOUS
10
127.14
20
-157.281
11
127.331
21
-157.377
0
LINE
8
BLACK
6
CONTINUOUS
10
127.331
20
-157.377
11
127.426
21
-157.472
0
LINE
8
BLACK
6
CONTINUOUS
10
127.426
20
-157.472
11
127.521
21
-157.662
0
LINE
8
BLACK
6
CONTINUOUS
10
127.521
20
-157.662
11
127.521
21
-158.234
0
LINE
8
BLACK
6
CONTINUOUS
10
127.521
20
-158.234
11
127.426
21
-158.424
0
LINE
8
BLACK
6
CONTINUOUS
10
127.426
20
-158.424
11
127.331
21
-158.52
0
LINE
8
BLACK
6
CONTINUOUS
10
127.331
20
-158.52
11
127.14
21
-158.615
0
LINE
8
BLACK
6
CONTINUOUS
10
127.14
20
-158.615
11
126.855
21
-158.615
0
LINE
8
BLACK
6
CONTINUOUS
10
128.664
20
-158.615
11
128.474
21
-158.52
0
LINE
8
BLACK
6
CONTINUOUS
10
128.474
20
-158.52
11
128.379
21
-158.329
0
LINE
8
BLACK
6
CONTINUOUS
10
128.379
20
-158.329
11
128.379
21
-156.615
0
LINE
8
BLACK
6
CONTINUOUS
10
130.188
20
-158.52
11
129.998
21
-158.615
0
LINE
8
BLACK
6
CONTINUOUS
10
129.998
20
-158.615
11
129.617
21
-158.615
0
LINE
8
BLACK
6
CONTINUOUS
10
129.617
20
-158.615
11
129.426
21
-158.52
0
LINE
8
BLACK
6
CONTINUOUS
10
129.426
20
-158.52
11
129.331
21
-158.329
0
LINE
8
BLACK
6
CONTINUOUS
10
129.331
20
-158.329
11
129.331
21
-157.567
0
LINE
8
BLACK
6
CONTINUOUS
10
129.331
20
-157.567
11
129.426
21
-157.377
0
LINE
8
BLACK
6
CONTINUOUS
10
129.426
20
-157.377
11
129.617
21
-157.281
0
LINE
8
BLACK
6
CONTINUOUS
10
129.617
20
-157.281
11
129.998
21
-157.281
0
LINE
8
BLACK
6
CONTINUOUS
10
129.998
20
-157.281
11
130.188
21
-157.377
0
LINE
8
BLACK
6
CONTINUOUS
10
130.188
20
-157.377
11
130.283
21
-157.567
0
LINE
8
BLACK
6
CONTINUOUS
10
130.283
20
-157.567
11
130.283
21
-157.758
0
LINE
8
BLACK
6
CONTINUOUS
10
130.283
20
-157.758
11
129.331
21
-157.948
0
LINE
8
BLACK
6
CONTINUOUS
10
131.045
20
-158.52
11
131.236
21
-158.615
0
LINE
8
BLACK
6
CONTINUOUS
10
131.236
20
-158.615
11
131.617
21
-158.615
0
LINE
8
BLACK
6
CONTINUOUS
10
131.617
20
-158.615
11
131.807
21
-158.52
0
LINE
8
BLACK
6
CONTINUOUS
10
131.807
20
-158.52
11
131.902
21
-158.329
0
LINE
8
BLACK
6
CONTINUOUS
10
131.902
20
-158.329
11
131.902
21
-158.234
0
LINE
8
BLACK
6
CONTINUOUS
10
131.902
20
-158.234
11
131.807
21
-158.043
0
LINE
8
BLACK
6
CONTINUOUS
10
131.807
20
-158.043
11
131.617
21
-157.948
0
LINE
8
BLACK
6
CONTINUOUS
10
131.617
20
-157.948
11
131.331
21
-157.948
0
LINE
8
BLACK
6
CONTINUOUS
10
131.331
20
-157.948
11
131.14
21
-157.853
0
LINE
8
BLACK
6
CONTINUOUS
10
131.14
20
-157.853
11
131.045
21
-157.662
0
LINE
8
BLACK
6
CONTINUOUS
10
131.045
20
-157.662
11
131.045
21
-157.567
0
LINE
8
BLACK
6
CONTINUOUS
10
131.045
20
-157.567
11
131.14
21
-157.377
0
LINE
8
BLACK
6
CONTINUOUS
10
131.14
20
-157.377
11
131.331
21
-157.281
0
LINE
8
BLACK
6
CONTINUOUS
10
131.331
20
-157.281
11
131.617
21
-157.281
0
LINE
8
BLACK
6
CONTINUOUS
10
131.617
20
-157.281
11
131.807
21
-157.377
0
LINE
8
BLACK
6
CONTINUOUS
10
132.569
20
-159.377
11
132.664
21
-159.281
0
LINE
8
BLACK
6
CONTINUOUS
10
132.664
20
-159.281
11
132.855
21
-158.996
0
LINE
8
BLACK
6
CONTINUOUS
10
132.855
20
-158.996
11
132.95
21
-158.805
0
LINE
8
BLACK
6
CONTINUOUS
10
132.95
20
-158.805
11
133.045
21
-158.52
0
LINE
8
BLACK
6
CONTINUOUS
10
133.045
20
-158.52
11
133.14
21
-158.043
0
LINE
8
BLACK
6
CONTINUOUS
10
133.14
20
-158.043
11
133.14
21
-157.662
0
LINE
8
BLACK
6
CONTINUOUS
10
133.14
20
-157.662
11
133.045
21
-157.186
0
LINE
8
BLACK
6
CONTINUOUS
10
133.045
20
-157.186
11
132.95
21
-156.9
0
LINE
8
BLACK
6
CONTINUOUS
10
132.95
20
-156.9
11
132.855
21
-156.71
0
LINE
8
BLACK
6
CONTINUOUS
10
132.855
20
-156.71
11
132.664
21
-156.424
0
LINE
8
BLACK
6
CONTINUOUS
10
132.664
20
-156.424
11
132.569
21
-156.329
0
LINE
8
BLACK
6
CONTINUOUS
10
83.55
20
-159.7
11
84.85
21
-161
0
LINE
8
BLACK
6
CONTINUOUS
10
84.85
20
-159.7
11
83.55
21
-161
0
CIRCLE
8
BLACK
10
84.2
20
-160.35
40
0.65
0
LINE
8
BLACK
6
CONTINUOUS
10
88.4738
20
-161.255
11
87.331
21
-161.255
0
LINE
8
BLACK
6
CONTINUOUS
10
87.9024
20
-161.255
11
87.9024
21
-159.255
0
LINE
8
BLACK
6
CONTINUOUS
10
87.9024
20
-159.255
11
87.7119
21
-159.54
0
LINE
8
BLACK
6
CONTINUOUS
10
87.7119
20
-159.54
11
87.5214
21
-159.731
0
LINE
8
BLACK
6
CONTINUOUS
10
87.5214
20
-159.731
11
87.331
21
-159.826
0
LINE
8
BLACK
6
CONTINUOUS
10
89.331
20
-161.064
11
89.4262
21
-161.16
0
LINE
8
BLACK
6
CONTINUOUS
10
89.4262
20
-161.16
11
89.331
21
-161.255
0
LINE
8
BLACK
6
CONTINUOUS
10
89.331
20
-161.255
11
89.2357
21
-161.16
0
LINE
8
BLACK
6
CONTINUOUS
10
89.2357
20
-161.16
11
89.331
21
-161.064
0
LINE
8
BLACK
6
CONTINUOUS
10
89.331
20
-161.064
11
89.331
21
-161.255
0
LINE
8
BLACK
6
CONTINUOUS
10
90.0929
20
-159.255
11
91.331
21
-159.255
0
LINE
8
BLACK
6
CONTINUOUS
10
91.331
20
-159.255
11
90.6643
21
-160.017
0
LINE
8
BLACK
6
CONTINUOUS
10
90.6643
20
-160.017
11
90.95
21
-160.017
0
LINE
8
BLACK
6
CONTINUOUS
10
90.95
20
-160.017
11
91.1405
21
-160.112
0
LINE
8
BLACK
6
CONTINUOUS
10
91.1405
20
-160.112
11
91.2357
21
-160.207
0
LINE
8
BLACK
6
CONTINUOUS
10
91.2357
20
-160.207
11
91.331
21
-160.398
0
LINE
8
BLACK
6
CONTINUOUS
10
91.331
20
-160.398
11
91.331
21
-160.874
0
LINE
8
BLACK
6
CONTINUOUS
10
91.331
20
-160.874
11
91.2357
21
-161.064
0
LINE
8
BLACK
6
CONTINUOUS
10
91.2357
20
-161.064
11
91.1405
21
-161.16
0
LINE
8
BLACK
6
CONTINUOUS
10
91.1405
20
-161.16
11
90.95
21
-161.255
0
LINE
8
BLACK
6
CONTINUOUS
10
90.95
20
-161.255
11
90.3786
21
-161.255
0
LINE
8
BLACK
6
CONTINUOUS
10
90.3786
20
-161.255
11
90.1881
21
-161.16
0
LINE
8
BLACK
6
CONTINUOUS
10
90.1881
20
-161.16
11
90.0929
21
-161.064
0
LINE
8
BLACK
6
CONTINUOUS
10
92.569
20
-159.255
11
92.7595
21
-159.255
0
LINE
8
BLACK
6
CONTINUOUS
10
92.7595
20
-159.255
11
92.95
21
-159.35
0
LINE
8
BLACK
6
CONTINUOUS
10
92.95
20
-159.35
11
93.0452
21
-159.445
0
LINE
8
BLACK
6
CONTINUOUS
10
93.0452
20
-159.445
11
93.1405
21
-159.636
0
LINE
8
BLACK
6
CONTINUOUS
10
93.1405
20
-159.636
11
93.2357
21
-160.017
0
LINE
8
BLACK
6
CONTINUOUS
10
93.2357
20
-160.017
11
93.2357
21
-160.493
0
LINE
8
BLACK
6
CONTINUOUS
10
93.2357
20
-160.493
11
93.1405
21
-160.874
0
LINE
8
BLACK
6
CONTINUOUS
10
93.1405
20
-160.874
11
93.0452
21
-161.064
0
LINE
8
BLACK
6
CONTINUOUS
10
93.0452
20
-161.064
11
92.95
21
-161.16
0
LINE
8
BLACK
6
CONTINUOUS
10
92.95
20
-161.16
11
92.7595
21
-161.255
0
LINE
8
BLACK
6
CONTINUOUS
10
92.7595
20
-161.255
11
92.569
21
-161.255
0
LINE
8
BLACK
6
CONTINUOUS
10
92.569
20
-161.255
11
92.3786
21
-161.16
0
LINE
8
BLACK
6
CONTINUOUS
10
92.3786
20
-161.16
11
92.2833
21
-161.064
0
LINE
8
BLACK
6
CONTINUOUS
10
92.2833
20
-161.064
11
92.1881
21
-160.874
0
LINE
8
BLACK
6
CONTINUOUS
10
92.1881
20
-160.874
11
92.0929
21
-160.493
0
LINE
8
BLACK
6
CONTINUOUS
10
92.0929
20
-160.493
11
92.0929
21
-160.017
0
LINE
8
BLACK
6
CONTINUOUS
10
92.0929
20
-160.017
11
92.1881
21
-159.636
0
LINE
8
BLACK
6
CONTINUOUS
10
92.1881
20
-159.636
11
92.2833
21
-159.445
0
LINE
8
BLACK
6
CONTINUOUS
10
92.2833
20
-159.445
11
92.3786
21
-159.35
0
LINE
8
BLACK
6
CONTINUOUS
10
92.3786
20
-159.35
11
92.569
21
-159.255
0
LINE
8
BLACK
6
CONTINUOUS
10
94.4738
20
-159.255
11
94.6643
21
-159.255
0
LINE
8
BLACK
6
CONTINUOUS
10
94.6643
20
-159.255
11
94.8548
21
-159.35
0
LINE
8
BLACK
6
CONTINUOUS
10
94.8548
20
-159.35
11
94.95
21
-159.445
0
LINE
8
BLACK
6
CONTINUOUS
10
94.95
20
-159.445
11
95.0452
21
-159.636
0
LINE
8
BLACK
6
CONTINUOUS
10
95.0452
20
-159.636
11
95.1405
21
-160.017
0
LINE
8
BLACK
6
CONTINUOUS
10
95.1405
20
-160.017
11
95.1405
21
-160.493
0
LINE
8
BLACK
6
CONTINUOUS
10
95.1405
20
-160.493
11
95.0452
21
-160.874
0
LINE
8
BLACK
6
CONTINUOUS
10
95.0452
20
-160.874
11
94.95
21
-161.064
0
LINE
8
BLACK
6
CONTINUOUS
10
94.95
20
-161.064
11
94.8548
21
-161.16
0
LINE
8
BLACK
6
CONTINUOUS
10
94.8548
20
-161.16
11
94.6643
21
-161.255
0
LINE
8
BLACK
6
CONTINUOUS
10
94.6643
20
-161.255
11
94.4738
21
-161.255
0
LINE
8
BLACK
6
CONTINUOUS
10
94.4738
20
-161.255
11
94.2833
21
-161.16
0
LINE
8
BLACK
6
CONTINUOUS
10
94.2833
20
-161.16
11
94.1881
21
-161.064
0
LINE
8
BLACK
6
CONTINUOUS
10
94.1881
20
-161.064
11
94.0929
21
-160.874
0
LINE
8
BLACK
6
CONTINUOUS
10
94.0929
20
-160.874
11
93.9976
21
-160.493
0
LINE
8
BLACK
6
CONTINUOUS
10
93.9976
20
-160.493
11
93.9976
21
-160.017
0
LINE
8
BLACK
6
CONTINUOUS
10
93.9976
20
-160.017
11
94.0929
21
-159.636
0
LINE
8
BLACK
6
CONTINUOUS
10
94.0929
20
-159.636
11
94.1881
21
-159.445
0
LINE
8
BLACK
6
CONTINUOUS
10
94.1881
20
-159.445
11
94.2833
21
-159.35
0
LINE
8
BLACK
6
CONTINUOUS
10
94.2833
20
-159.35
11
94.4738
21
-159.255
0
LINE
8
BLACK
6
CONTINUOUS
10
95.9976
20
-161.255
11
95.9976
21
-159.921
0
LINE
8
BLACK
6
CONTINUOUS
10
95.9976
20
-160.112
11
96.0929
21
-160.017
0
LINE
8
BLACK
6
CONTINUOUS
10
96.0929
20
-160.017
11
96.2833
21
-159.921
0
LINE
8
BLACK
6
CONTINUOUS
10
96.2833
20
-159.921
11
96.569
21
-159.921
0
LINE
8
BLACK
6
CONTINUOUS
10
96.569
20
-159.921
11
96.7595
21
-160.017
0
LINE
8
BLACK
6
CONTINUOUS
10
96.7595
20
-160.017
11
96.8548
21
-160.207
0
LINE
8
BLACK
6
CONTINUOUS
10
96.8548
20
-160.207
11
96.8548
21
-161.255
0
LINE
8
BLACK
6
CONTINUOUS
10
96.8548
20
-160.207
11
96.95
21
-160.017
0
LINE
8
BLACK
6
CONTINUOUS
10
96.95
20
-160.017
11
97.1405
21
-159.921
0
LINE
8
BLACK
6
CONTINUOUS
10
97.1405
20
-159.921
11
97.4262
21
-159.921
0
LINE
8
BLACK
6
CONTINUOUS
10
97.4262
20
-159.921
11
97.6167
21
-160.017
0
LINE
8
BLACK
6
CONTINUOUS
10
97.6167
20
-160.017
11
97.7119
21
-160.207
0
LINE
8
BLACK
6
CONTINUOUS
10
97.7119
20
-160.207
11
97.7119
21
-161.255
0
LINE
8
BLACK
6
CONTINUOUS
10
98.6643
20
-161.255
11
98.6643
21
-159.921
0
LINE
8
BLACK
6
CONTINUOUS
10
98.6643
20
-160.112
11
98.7595
21
-160.017
0
LINE
8
BLACK
6
CONTINUOUS
10
98.7595
20
-160.017
11
98.95
21
-159.921
0
LINE
8
BLACK
6
CONTINUOUS
10
98.95
20
-159.921
11
99.2357
21
-159.921
0
LINE
8
BLACK
6
CONTINUOUS
10
99.2357
20
-159.921
11
99.4262
21
-160.017
0
LINE
8
BLACK
6
CONTINUOUS
10
99.4262
20
-160.017
11
99.5214
21
-160.207
0
LINE
8
BLACK
6
CONTINUOUS
10
99.5214
20
-160.207
11
99.5214
21
-161.255
0
LINE
8
BLACK
6
CONTINUOUS
10
99.5214
20
-160.207
11
99.6167
21
-160.017
0
LINE
8
BLACK
6
CONTINUOUS
10
99.6167
20
-160.017
11
99.8071
21
-159.921
0
LINE
8
BLACK
6
CONTINUOUS
10
99.8071
20
-159.921
11
100.093
21
-159.921
0
LINE
8
BLACK
6
CONTINUOUS
10
100.093
20
-159.921
11
100.283
21
-160.017
0
LINE
8
BLACK
6
CONTINUOUS
10
100.283
20
-160.017
11
100.379
21
-160.207
0
LINE
8
BLACK
6
CONTINUOUS
10
100.379
20
-160.207
11
100.379
21
-161.255
0
LINE
8
BLACK
6
CONTINUOUS
10
104.283
20
-159.16
11
102.569
21
-161.731
0
LINE
8
BLACK
6
CONTINUOUS
10
106.855
20
-159.255
11
107.045
21
-159.255
0
LINE
8
BLACK
6
CONTINUOUS
10
107.045
20
-159.255
11
107.236
21
-159.35
0
LINE
8
BLACK
6
CONTINUOUS
10
107.236
20
-159.35
11
107.331
21
-159.445
0
LINE
8
BLACK
6
CONTINUOUS
10
107.331
20
-159.445
11
107.426
21
-159.636
0
LINE
8
BLACK
6
CONTINUOUS
10
107.426
20
-159.636
11
107.521
21
-160.017
0
LINE
8
BLACK
6
CONTINUOUS
10
107.521
20
-160.017
11
107.521
21
-160.493
0
LINE
8
BLACK
6
CONTINUOUS
10
107.521
20
-160.493
11
107.426
21
-160.874
0
LINE
8
BLACK
6
CONTINUOUS
10
107.426
20
-160.874
11
107.331
21
-161.064
0
LINE
8
BLACK
6
CONTINUOUS
10
107.331
20
-161.064
11
107.236
21
-161.16
0
LINE
8
BLACK
6
CONTINUOUS
10
107.236
20
-161.16
11
107.045
21
-161.255
0
LINE
8
BLACK
6
CONTINUOUS
10
107.045
20
-161.255
11
106.855
21
-161.255
0
LINE
8
BLACK
6
CONTINUOUS
10
106.855
20
-161.255
11
106.664
21
-161.16
0
LINE
8
BLACK
6
CONTINUOUS
10
106.664
20
-161.16
11
106.569
21
-161.064
0
LINE
8
BLACK
6
CONTINUOUS
10
106.569
20
-161.064
11
106.474
21
-160.874
0
LINE
8
BLACK
6
CONTINUOUS
10
106.474
20
-160.874
11
106.379
21
-160.493
0
LINE
8
BLACK
6
CONTINUOUS
10
106.379
20
-160.493
11
106.379
21
-160.017
0
LINE
8
BLACK
6
CONTINUOUS
10
106.379
20
-160.017
11
106.474
21
-159.636
0
LINE
8
BLACK
6
CONTINUOUS
10
106.474
20
-159.636
11
106.569
21
-159.445
0
LINE
8
BLACK
6
CONTINUOUS
10
106.569
20
-159.445
11
106.664
21
-159.35
0
LINE
8
BLACK
6
CONTINUOUS
10
106.664
20
-159.35
11
106.855
21
-159.255
0
LINE
8
BLACK
6
CONTINUOUS
10
108.379
20
-161.064
11
108.474
21
-161.16
0
LINE
8
BLACK
6
CONTINUOUS
10
108.474
20
-161.16
11
108.379
21
-161.255
0
LINE
8
BLACK
6
CONTINUOUS
10
108.379
20
-161.255
11
108.283
21
-161.16
0
LINE
8
BLACK
6
CONTINUOUS
10
108.283
20
-161.16
11
108.379
21
-161.064
0
LINE
8
BLACK
6
CONTINUOUS
10
108.379
20
-161.064
11
108.379
21
-161.255
0
LINE
8
BLACK
6
CONTINUOUS
10
109.712
20
-159.255
11
109.902
21
-159.255
0
LINE
8
BLACK
6
CONTINUOUS
10
109.902
20
-159.255
11
110.093
21
-159.35
0
LINE
8
BLACK
6
CONTINUOUS
10
110.093
20
-159.35
11
110.188
21
-159.445
0
LINE
8
BLACK
6
CONTINUOUS
10
110.188
20
-159.445
11
110.283
21
-159.636
0
LINE
8
BLACK
6
CONTINUOUS
10
110.283
20
-159.636
11
110.379
21
-160.017
0
LINE
8
BLACK
6
CONTINUOUS
10
110.379
20
-160.017
11
110.379
21
-160.493
0
LINE
8
BLACK
6
CONTINUOUS
10
110.379
20
-160.493
11
110.283
21
-160.874
0
LINE
8
BLACK
6
CONTINUOUS
10
110.283
20
-160.874
11
110.188
21
-161.064
0
LINE
8
BLACK
6
CONTINUOUS
10
110.188
20
-161.064
11
110.093
21
-161.16
0
LINE
8
BLACK
6
CONTINUOUS
10
110.093
20
-161.16
11
109.902
21
-161.255
0
LINE
8
BLACK
6
CONTINUOUS
10
109.902
20
-161.255
11
109.712
21
-161.255
0
LINE
8
BLACK
6
CONTINUOUS
10
109.712
20
-161.255
11
109.521
21
-161.16
0
LINE
8
BLACK
6
CONTINUOUS
10
109.521
20
-161.16
11
109.426
21
-161.064
0
LINE
8
BLACK
6
CONTINUOUS
10
109.426
20
-161.064
11
109.331
21
-160.874
0
LINE
8
BLACK
6
CONTINUOUS
10
109.331
20
-160.874
11
109.236
21
-160.493
0
LINE
8
BLACK
6
CONTINUOUS
10
109.236
20
-160.493
11
109.236
21
-160.017
0
LINE
8
BLACK
6
CONTINUOUS
10
109.236
20
-160.017
11
109.331
21
-159.636
0
LINE
8
BLACK
6
CONTINUOUS
10
109.331
20
-159.636
11
109.426
21
-159.445
0
LINE
8
BLACK
6
CONTINUOUS
10
109.426
20
-159.445
11
109.521
21
-159.35
0
LINE
8
BLACK
6
CONTINUOUS
10
109.521
20
-159.35
11
109.712
21
-159.255
0
LINE
8
BLACK
6
CONTINUOUS
10
112.188
20
-159.255
11
111.236
21
-159.255
0
LINE
8
BLACK
6
CONTINUOUS
10
111.236
20
-159.255
11
111.14
21
-160.207
0
LINE
8
BLACK
6
CONTINUOUS
10
111.14
20
-160.207
11
111.236
21
-160.112
0
LINE
8
BLACK
6
CONTINUOUS
10
111.236
20
-160.112
11
111.426
21
-160.017
0
LINE
8
BLACK
6
CONTINUOUS
10
111.426
20
-160.017
11
111.902
21
-160.017
0
LINE
8
BLACK
6
CONTINUOUS
10
111.902
20
-160.017
11
112.093
21
-160.112
0
LINE
8
BLACK
6
CONTINUOUS
10
112.093
20
-160.112
11
112.188
21
-160.207
0
LINE
8
BLACK
6
CONTINUOUS
10
112.188
20
-160.207
11
112.283
21
-160.398
0
LINE
8
BLACK
6
CONTINUOUS
10
112.283
20
-160.398
11
112.283
21
-160.874
0
LINE
8
BLACK
6
CONTINUOUS
10
112.283
20
-160.874
11
112.188
21
-161.064
0
LINE
8
BLACK
6
CONTINUOUS
10
112.188
20
-161.064
11
112.093
21
-161.16
0
LINE
8
BLACK
6
CONTINUOUS
10
112.093
20
-161.16
11
111.902
21
-161.255
0
LINE
8
BLACK
6
CONTINUOUS
10
111.902
20
-161.255
11
111.426
21
-161.255
0
LINE
8
BLACK
6
CONTINUOUS
10
111.426
20
-161.255
11
111.236
21
-161.16
0
LINE
8
BLACK
6
CONTINUOUS
10
111.236
20
-161.16
11
111.14
21
-161.064
0
LINE
8
BLACK
6
CONTINUOUS
10
114.188
20
-161.255
11
113.045
21
-161.255
0
LINE
8
BLACK
6
CONTINUOUS
10
113.617
20
-161.255
11
113.617
21
-159.255
0
LINE
8
BLACK
6
CONTINUOUS
10
113.617
20
-159.255
11
113.426
21
-159.54
0
LINE
8
BLACK
6
CONTINUOUS
10
113.426
20
-159.54
11
113.236
21
-159.731
0
LINE
8
BLACK
6
CONTINUOUS
10
113.236
20
-159.731
11
113.045
21
-159.826
0
LINE
8
BLACK
6
CONTINUOUS
10
114.95
20
-159.445
11
115.045
21
-159.35
0
LINE
8
BLACK
6
CONTINUOUS
10
115.045
20
-159.35
11
115.236
21
-159.255
0
LINE
8
BLACK
6
CONTINUOUS
10
115.236
20
-159.255
11
115.712
21
-159.255
0
LINE
8
BLACK
6
CONTINUOUS
10
115.712
20
-159.255
11
115.902
21
-159.35
0
LINE
8
BLACK
6
CONTINUOUS
10
115.902
20
-159.35
11
115.998
21
-159.445
0
LINE
8
BLACK
6
CONTINUOUS
10
115.998
20
-159.445
11
116.093
21
-159.636
0
LINE
8
BLACK
6
CONTINUOUS
10
116.093
20
-159.636
11
116.093
21
-159.826
0
LINE
8
BLACK
6
CONTINUOUS
10
116.093
20
-159.826
11
115.998
21
-160.112
0
LINE
8
BLACK
6
CONTINUOUS
10
115.998
20
-160.112
11
114.855
21
-161.255
0
LINE
8
BLACK
6
CONTINUOUS
10
114.855
20
-161.255
11
116.093
21
-161.255
0
LINE
8
BLACK
6
CONTINUOUS
10
116.855
20
-159.255
11
116.855
21
-159.636
0
LINE
8
BLACK
6
CONTINUOUS
10
117.617
20
-159.255
11
117.617
21
-159.636
0
LINE
8
BLACK
6
CONTINUOUS
10
120.569
20
-162.017
11
120.474
21
-161.921
0
LINE
8
BLACK
6
CONTINUOUS
10
120.474
20
-161.921
11
120.283
21
-161.636
0
LINE
8
BLACK
6
CONTINUOUS
10
120.283
20
-161.636
11
120.188
21
-161.445
0
LINE
8
BLACK
6
CONTINUOUS
10
120.188
20
-161.445
11
120.093
21
-161.16
0
LINE
8
BLACK
6
CONTINUOUS
10
120.093
20
-161.16
11
119.998
21
-160.683
0
LINE
8
BLACK
6
CONTINUOUS
10
119.998
20
-160.683
11
119.998
21
-160.302
0
LINE
8
BLACK
6
CONTINUOUS
10
119.998
20
-160.302
11
120.093
21
-159.826
0
LINE
8
BLACK
6
CONTINUOUS
10
120.093
20
-159.826
11
120.188
21
-159.54
0
LINE
8
BLACK
6
CONTINUOUS
10
120.188
20
-159.54
11
120.283
21
-159.35
0
LINE
8
BLACK
6
CONTINUOUS
10
120.283
20
-159.35
11
120.474
21
-159.064
0
LINE
8
BLACK
6
CONTINUOUS
10
120.474
20
-159.064
11
120.569
21
-158.969
0
LINE
8
BLACK
6
CONTINUOUS
10
121.236
20
-159.445
11
121.331
21
-159.35
0
LINE
8
BLACK
6
CONTINUOUS
10
121.331
20
-159.35
11
121.521
21
-159.255
0
LINE
8
BLACK
6
CONTINUOUS
10
121.521
20
-159.255
11
121.998
21
-159.255
0
LINE
8
BLACK
6
CONTINUOUS
10
121.998
20
-159.255
11
122.188
21
-159.35
0
LINE
8
BLACK
6
CONTINUOUS
10
122.188
20
-159.35
11
122.283
21
-159.445
0
LINE
8
BLACK
6
CONTINUOUS
10
122.283
20
-159.445
11
122.379
21
-159.636
0
LINE
8
BLACK
6
CONTINUOUS
10
122.379
20
-159.636
11
122.379
21
-159.826
0
LINE
8
BLACK
6
CONTINUOUS
10
122.379
20
-159.826
11
122.283
21
-160.112
0
LINE
8
BLACK
6
CONTINUOUS
10
122.283
20
-160.112
11
121.14
21
-161.255
0
LINE
8
BLACK
6
CONTINUOUS
10
121.14
20
-161.255
11
122.379
21
-161.255
0
LINE
8
BLACK
6
CONTINUOUS
10
124.76
20
-161.255
11
124.76
21
-159.255
0
LINE
8
BLACK
6
CONTINUOUS
10
125.617
20
-161.255
11
125.617
21
-160.207
0
LINE
8
BLACK
6
CONTINUOUS
10
125.617
20
-160.207
11
125.521
21
-160.017
0
LINE
8
BLACK
6
CONTINUOUS
10
125.521
20
-160.017
11
125.331
21
-159.921
0
LINE
8
BLACK
6
CONTINUOUS
10
125.331
20
-159.921
11
125.045
21
-159.921
0
LINE
8
BLACK
6
CONTINUOUS
10
125.045
20
-159.921
11
124.855
21
-160.017
0
LINE
8
BLACK
6
CONTINUOUS
10
124.855
20
-160.017
11
124.76
21
-160.112
0
LINE
8
BLACK
6
CONTINUOUS
10
126.855
20
-161.255
11
126.664
21
-161.16
0
LINE
8
BLACK
6
CONTINUOUS
10
126.664
20
-161.16
11
126.569
21
-161.064
0
LINE
8
BLACK
6
CONTINUOUS
10
126.569
20
-161.064
11
126.474
21
-160.874
0
LINE
8
BLACK
6
CONTINUOUS
10
126.474
20
-160.874
11
126.474
21
-160.302
0
LINE
8
BLACK
6
CONTINUOUS
10
126.474
20
-160.302
11
126.569
21
-160.112
0
LINE
8
BLACK
6
CONTINUOUS
10
126.569
20
-160.112
11
126.664
21
-160.017
0
LINE
8
BLACK
6
CONTINUOUS
10
126.664
20
-160.017
11
126.855
21
-159.921
0
LINE
8
BLACK
6
CONTINUOUS
10
126.855
20
-159.921
11
127.14
21
-159.921
0
LINE
8
BLACK
6
CONTINUOUS
10
127.14
20
-159.921
11
127.331
21
-160.017
0
LINE
8
BLACK
6
CONTINUOUS
10
127.331
20
-160.017
11
127.426
21
-160.112
0
LINE
8
BLACK
6
CONTINUOUS
10
127.426
20
-160.112
11
127.521
21
-160.302
0
LINE
8
BLACK
6
CONTINUOUS
10
127.521
20
-160.302
11
127.521
21
-160.874
0
LINE
8
BLACK
6
CONTINUOUS
10
127.521
20
-160.874
11
127.426
21
-161.064
0
LINE
8
BLACK
6
CONTINUOUS
10
127.426
20
-161.064
11
127.331
21
-161.16
0
LINE
8
BLACK
6
CONTINUOUS
10
127.331
20
-161.16
11
127.14
21
-161.255
0
LINE
8
BLACK
6
CONTINUOUS
10
127.14
20
-161.255
11
126.855
21
-161.255
0
LINE
8
BLACK
6
CONTINUOUS
10
128.664
20
-161.255
11
128.474
21
-161.16
0
LINE
8
BLACK
6
CONTINUOUS
10
128.474
20
-161.16
11
128.379
21
-160.969
0
LINE
8
BLACK
6
CONTINUOUS
10
128.379
20
-160.969
11
128.379
21
-159.255
0
LINE
8
BLACK
6
CONTINUOUS
10
130.188
20
-161.16
11
129.998
21
-161.255
0
LINE
8
BLACK
6
CONTINUOUS
10
129.998
20
-161.255
11
129.617
21
-161.255
0
LINE
8
BLACK
6
CONTINUOUS
10
129.617
20
-161.255
11
129.426
21
-161.16
0
LINE
8
BLACK
6
CONTINUOUS
10
129.426
20
-161.16
11
129.331
21
-160.969
0
LINE
8
BLACK
6
CONTINUOUS
10
129.331
20
-160.969
11
129.331
21
-160.207
0
LINE
8
BLACK
6
CONTINUOUS
10
129.331
20
-160.207
11
129.426
21
-160.017
0
LINE
8
BLACK
6
CONTINUOUS
10
129.426
20
-160.017
11
129.617
21
-159.921
0
LINE
8
BLACK
6
CONTINUOUS
10
129.617
20
-159.921
11
129.998
21
-159.921
0
LINE
8
BLACK
6
CONTINUOUS
10
129.998
20
-159.921
11
130.188
21
-160.017
0
LINE
8
BLACK
6
CONTINUOUS
10
130.188
20
-160.017
11
130.283
21
-160.207
0
LINE
8
BLACK
6
CONTINUOUS
10
130.283
20
-160.207
11
130.283
21
-160.398
0
LINE
8
BLACK
6
CONTINUOUS
10
130.283
20
-160.398
11
129.331
21
-160.588
0
LINE
8
BLACK
6
CONTINUOUS
10
131.045
20
-161.16
11
131.236
21
-161.255
0
LINE
8
BLACK
6
CONTINUOUS
10
131.236
20
-161.255
11
131.617
21
-161.255
0
LINE
8
BLACK
6
CONTINUOUS
10
131.617
20
-161.255
11
131.807
21
-161.16
0
LINE
8
BLACK
6
CONTINUOUS
10
131.807
20
-161.16
11
131.902
21
-160.969
0
LINE
8
BLACK
6
CONTINUOUS
10
131.902
20
-160.969
11
131.902
21
-160.874
0
LINE
8
BLACK
6
CONTINUOUS
10
131.902
20
-160.874
11
131.807
21
-160.683
0
LINE
8
BLACK
6
CONTINUOUS
10
131.807
20
-160.683
11
131.617
21
-160.588
0
LINE
8
BLACK
6
CONTINUOUS
10
131.617
20
-160.588
11
131.331
21
-160.588
0
LINE
8
BLACK
6
CONTINUOUS
10
131.331
20
-160.588
11
131.14
21
-160.493
0
LINE
8
BLACK
6
CONTINUOUS
10
131.14
20
-160.493
11
131.045
21
-160.302
0
LINE
8
BLACK
6
CONTINUOUS
10
131.045
20
-160.302
11
131.045
21
-160.207
0
LINE
8
BLACK
6
CONTINUOUS
10
131.045
20
-160.207
11
131.14
21
-160.017
0
LINE
8
BLACK
6
CONTINUOUS
10
131.14
20
-160.017
11
131.331
21
-159.921
0
LINE
8
BLACK
6
CONTINUOUS
10
131.331
20
-159.921
11
131.617
21
-159.921
0
LINE
8
BLACK
6
CONTINUOUS
10
131.617
20
-159.921
11
131.807
21
-160.017
0
LINE
8
BLACK
6
CONTINUOUS
10
132.569
20
-162.017
11
132.664
21
-161.921
0
LINE
8
BLACK
6
CONTINUOUS
10
132.664
20
-161.921
11
132.855
21
-161.636
0
LINE
8
BLACK
6
CONTINUOUS
10
132.855
20
-161.636
11
132.95
21
-161.445
0
LINE
8
BLACK
6
CONTINUOUS
10
132.95
20
-161.445
11
133.045
21
-161.16
0
LINE
8
BLACK
6
CONTINUOUS
10
133.045
20
-161.16
11
133.14
21
-160.683
0
LINE
8
BLACK
6
CONTINUOUS
10
133.14
20
-160.683
11
133.14
21
-160.302
0
LINE
8
BLACK
6
CONTINUOUS
10
133.14
20
-160.302
11
133.045
21
-159.826
0
LINE
8
BLACK
6
CONTINUOUS
10
133.045
20
-159.826
11
132.95
21
-159.54
0
LINE
8
BLACK
6
CONTINUOUS
10
132.95
20
-159.54
11
132.855
21
-159.35
0
LINE
8
BLACK
6
CONTINUOUS
10
132.855
20
-159.35
11
132.664
21
-159.064
0
LINE
8
BLACK
6
CONTINUOUS
10
132.664
20
-159.064
11
132.569
21
-158.969
0
LINE
8
BLACK
6
CONTINUOUS
10
83.35
20
-162.24
11
84.85
21
-163.74
0
LINE
8
BLACK
6
CONTINUOUS
10
84.85
20
-162.24
11
83.35
21
-163.74
0
LINE
8
BLACK
6
CONTINUOUS
10
84.1
20
-162.24
11
84.1
21
-163.74
0
LINE
8
BLACK
6
CONTINUOUS
10
83.35
20
-162.99
11
84.85
21
-162.99
0
LINE
8
BLACK
6
CONTINUOUS
10
88.4738
20
-163.895
11
87.331
21
-163.895
0
LINE
8
BLACK
6
CONTINUOUS
10
87.9024
20
-163.895
11
87.9024
21
-161.895
0
LINE
8
BLACK
6
CONTINUOUS
10
87.9024
20
-161.895
11
87.7119
21
-162.18
0
LINE
8
BLACK
6
CONTINUOUS
10
87.7119
20
-162.18
11
87.5214
21
-162.371
0
LINE
8
BLACK
6
CONTINUOUS
10
87.5214
20
-162.371
11
87.331
21
-162.466
0
LINE
8
BLACK
6
CONTINUOUS
10
89.331
20
-163.704
11
89.4262
21
-163.8
0
LINE
8
BLACK
6
CONTINUOUS
10
89.4262
20
-163.8
11
89.331
21
-163.895
0
LINE
8
BLACK
6
CONTINUOUS
10
89.331
20
-163.895
11
89.2357
21
-163.8
0
LINE
8
BLACK
6
CONTINUOUS
10
89.2357
20
-163.8
11
89.331
21
-163.704
0
LINE
8
BLACK
6
CONTINUOUS
10
89.331
20
-163.704
11
89.331
21
-163.895
0
LINE
8
BLACK
6
CONTINUOUS
10
91.2357
20
-161.895
11
90.2833
21
-161.895
0
LINE
8
BLACK
6
CONTINUOUS
10
90.2833
20
-161.895
11
90.1881
21
-162.847
0
LINE
8
BLACK
6
CONTINUOUS
10
90.1881
20
-162.847
11
90.2833
21
-162.752
0
LINE
8
BLACK
6
CONTINUOUS
10
90.2833
20
-162.752
11
90.4738
21
-162.657
0
LINE
8
BLACK
6
CONTINUOUS
10
90.4738
20
-162.657
11
90.95
21
-162.657
0
LINE
8
BLACK
6
CONTINUOUS
10
90.95
20
-162.657
11
91.1405
21
-162.752
0
LINE
8
BLACK
6
CONTINUOUS
10
91.1405
20
-162.752
11
91.2357
21
-162.847
0
LINE
8
BLACK
6
CONTINUOUS
10
91.2357
20
-162.847
11
91.331
21
-163.038
0
LINE
8
BLACK
6
CONTINUOUS
10
91.331
20
-163.038
11
91.331
21
-163.514
0
LINE
8
BLACK
6
CONTINUOUS
10
91.331
20
-163.514
11
91.2357
21
-163.704
0
LINE
8
BLACK
6
CONTINUOUS
10
91.2357
20
-163.704
11
91.1405
21
-163.8
0
LINE
8
BLACK
6
CONTINUOUS
10
91.1405
20
-163.8
11
90.95
21
-163.895
0
LINE
8
BLACK
6
CONTINUOUS
10
90.95
20
-163.895
11
90.4738
21
-163.895
0
LINE
8
BLACK
6
CONTINUOUS
10
90.4738
20
-163.895
11
90.2833
21
-163.8
0
LINE
8
BLACK
6
CONTINUOUS
10
90.2833
20
-163.8
11
90.1881
21
-163.704
0
LINE
8
BLACK
6
CONTINUOUS
10
92.569
20
-161.895
11
92.7595
21
-161.895
0
LINE
8
BLACK
6
CONTINUOUS
10
92.7595
20
-161.895
11
92.95
21
-161.99
0
LINE
8
BLACK
6
CONTINUOUS
10
92.95
20
-161.99
11
93.0452
21
-162.085
0
LINE
8
BLACK
6
CONTINUOUS
10
93.0452
20
-162.085
11
93.1405
21
-162.276
0
LINE
8
BLACK
6
CONTINUOUS
10
93.1405
20
-162.276
11
93.2357
21
-162.657
0
LINE
8
BLACK
6
CONTINUOUS
10
93.2357
20
-162.657
11
93.2357
21
-163.133
0
LINE
8
BLACK
6
CONTINUOUS
10
93.2357
20
-163.133
11
93.1405
21
-163.514
0
LINE
8
BLACK
6
CONTINUOUS
10
93.1405
20
-163.514
11
93.0452
21
-163.704
0
LINE
8
BLACK
6
CONTINUOUS
10
93.0452
20
-163.704
11
92.95
21
-163.8
0
LINE
8
BLACK
6
CONTINUOUS
10
92.95
20
-163.8
11
92.7595
21
-163.895
0
LINE
8
BLACK
6
CONTINUOUS
10
92.7595
20
-163.895
11
92.569
21
-163.895
0
LINE
8
BLACK
6
CONTINUOUS
10
92.569
20
-163.895
11
92.3786
21
-163.8
0
LINE
8
BLACK
6
CONTINUOUS
10
92.3786
20
-163.8
11
92.2833
21
-163.704
0
LINE
8
BLACK
6
CONTINUOUS
10
92.2833
20
-163.704
11
92.1881
21
-163.514
0
LINE
8
BLACK
6
CONTINUOUS
10
92.1881
20
-163.514
11
92.0929
21
-163.133
0
LINE
8
BLACK
6
CONTINUOUS
10
92.0929
20
-163.133
11
92.0929
21
-162.657
0
LINE
8
BLACK
6
CONTINUOUS
10
92.0929
20
-162.657
11
92.1881
21
-162.276
0
LINE
8
BLACK
6
CONTINUOUS
10
92.1881
20
-162.276
11
92.2833
21
-162.085
0
LINE
8
BLACK
6
CONTINUOUS
10
92.2833
20
-162.085
11
92.3786
21
-161.99
0
LINE
8
BLACK
6
CONTINUOUS
10
92.3786
20
-161.99
11
92.569
21
-161.895
0
LINE
8
BLACK
6
CONTINUOUS
10
94.4738
20
-161.895
11
94.6643
21
-161.895
0
LINE
8
BLACK
6
CONTINUOUS
10
94.6643
20
-161.895
11
94.8548
21
-161.99
0
LINE
8
BLACK
6
CONTINUOUS
10
94.8548
20
-161.99
11
94.95
21
-162.085
0
LINE
8
BLACK
6
CONTINUOUS
10
94.95
20
-162.085
11
95.0452
21
-162.276
0
LINE
8
BLACK
6
CONTINUOUS
10
95.0452
20
-162.276
11
95.1405
21
-162.657
0
LINE
8
BLACK
6
CONTINUOUS
10
95.1405
20
-162.657
11
95.1405
21
-163.133
0
LINE
8
BLACK
6
CONTINUOUS
10
95.1405
20
-163.133
11
95.0452
21
-163.514
0
LINE
8
BLACK
6
CONTINUOUS
10
95.0452
20
-163.514
11
94.95
21
-163.704
0
LINE
8
BLACK
6
CONTINUOUS
10
94.95
20
-163.704
11
94.8548
21
-163.8
0
LINE
8
BLACK
6
CONTINUOUS
10
94.8548
20
-163.8
11
94.6643
21
-163.895
0
LINE
8
BLACK
6
CONTINUOUS
10
94.6643
20
-163.895
11
94.4738
21
-163.895
0
LINE
8
BLACK
6
CONTINUOUS
10
94.4738
20
-163.895
11
94.2833
21
-163.8
0
LINE
8
BLACK
6
CONTINUOUS
10
94.2833
20
-163.8
11
94.1881
21
-163.704
0
LINE
8
BLACK
6
CONTINUOUS
10
94.1881
20
-163.704
11
94.0929
21
-163.514
0
LINE
8
BLACK
6
CONTINUOUS
10
94.0929
20
-163.514
11
93.9976
21
-163.133
0
LINE
8
BLACK
6
CONTINUOUS
10
93.9976
20
-163.133
11
93.9976
21
-162.657
0
LINE
8
BLACK
6
CONTINUOUS
10
93.9976
20
-162.657
11
94.0929
21
-162.276
0
LINE
8
BLACK
6
CONTINUOUS
10
94.0929
20
-162.276
11
94.1881
21
-162.085
0
LINE
8
BLACK
6
CONTINUOUS
10
94.1881
20
-162.085
11
94.2833
21
-161.99
0
LINE
8
BLACK
6
CONTINUOUS
10
94.2833
20
-161.99
11
94.4738
21
-161.895
0
LINE
8
BLACK
6
CONTINUOUS
10
95.9976
20
-163.895
11
95.9976
21
-162.561
0
LINE
8
BLACK
6
CONTINUOUS
10
95.9976
20
-162.752
11
96.0929
21
-162.657
0
LINE
8
BLACK
6
CONTINUOUS
10
96.0929
20
-162.657
11
96.2833
21
-162.561
0
LINE
8
BLACK
6
CONTINUOUS
10
96.2833
20
-162.561
11
96.569
21
-162.561
0
LINE
8
BLACK
6
CONTINUOUS
10
96.569
20
-162.561
11
96.7595
21
-162.657
0
LINE
8
BLACK
6
CONTINUOUS
10
96.7595
20
-162.657
11
96.8548
21
-162.847
0
LINE
8
BLACK
6
CONTINUOUS
10
96.8548
20
-162.847
11
96.8548
21
-163.895
0
LINE
8
BLACK
6
CONTINUOUS
10
96.8548
20
-162.847
11
96.95
21
-162.657
0
LINE
8
BLACK
6
CONTINUOUS
10
96.95
20
-162.657
11
97.1405
21
-162.561
0
LINE
8
BLACK
6
CONTINUOUS
10
97.1405
20
-162.561
11
97.4262
21
-162.561
0
LINE
8
BLACK
6
CONTINUOUS
10
97.4262
20
-162.561
11
97.6167
21
-162.657
0
LINE
8
BLACK
6
CONTINUOUS
10
97.6167
20
-162.657
11
97.7119
21
-162.847
0
LINE
8
BLACK
6
CONTINUOUS
10
97.7119
20
-162.847
11
97.7119
21
-163.895
0
LINE
8
BLACK
6
CONTINUOUS
10
98.6643
20
-163.895
11
98.6643
21
-162.561
0
LINE
8
BLACK
6
CONTINUOUS
10
98.6643
20
-162.752
11
98.7595
21
-162.657
0
LINE
8
BLACK
6
CONTINUOUS
10
98.7595
20
-162.657
11
98.95
21
-162.561
0
LINE
8
BLACK
6
CONTINUOUS
10
98.95
20
-162.561
11
99.2357
21
-162.561
0
LINE
8
BLACK
6
CONTINUOUS
10
99.2357
20
-162.561
11
99.4262
21
-162.657
0
LINE
8
BLACK
6
CONTINUOUS
10
99.4262
20
-162.657
11
99.5214
21
-162.847
0
LINE
8
BLACK
6
CONTINUOUS
10
99.5214
20
-162.847
11
99.5214
21
-163.895
0
LINE
8
BLACK
6
CONTINUOUS
10
99.5214
20
-162.847
11
99.6167
21
-162.657
0
LINE
8
BLACK
6
CONTINUOUS
10
99.6167
20
-162.657
11
99.8071
21
-162.561
0
LINE
8
BLACK
6
CONTINUOUS
10
99.8071
20
-162.561
11
100.093
21
-162.561
0
LINE
8
BLACK
6
CONTINUOUS
10
100.093
20
-162.561
11
100.283
21
-162.657
0
LINE
8
BLACK
6
CONTINUOUS
10
100.283
20
-162.657
11
100.379
21
-162.847
0
LINE
8
BLACK
6
CONTINUOUS
10
100.379
20
-162.847
11
100.379
21
-163.895
0
LINE
8
BLACK
6
CONTINUOUS
10
104.283
20
-161.8
11
102.569
21
-164.371
0
LINE
8
BLACK
6
CONTINUOUS
10
106.855
20
-161.895
11
107.045
21
-161.895
0
LINE
8
BLACK
6
CONTINUOUS
10
107.045
20
-161.895
11
107.236
21
-161.99
0
LINE
8
BLACK
6
CONTINUOUS
10
107.236
20
-161.99
11
107.331
21
-162.085
0
LINE
8
BLACK
6
CONTINUOUS
10
107.331
20
-162.085
11
107.426
21
-162.276
0
LINE
8
BLACK
6
CONTINUOUS
10
107.426
20
-162.276
11
107.521
21
-162.657
0
LINE
8
BLACK
6
CONTINUOUS
10
107.521
20
-162.657
11
107.521
21
-163.133
0
LINE
8
BLACK
6
CONTINUOUS
10
107.521
20
-163.133
11
107.426
21
-163.514
0
LINE
8
BLACK
6
CONTINUOUS
10
107.426
20
-163.514
11
107.331
21
-163.704
0
LINE
8
BLACK
6
CONTINUOUS
10
107.331
20
-163.704
11
107.236
21
-163.8
0
LINE
8
BLACK
6
CONTINUOUS
10
107.236
20
-163.8
11
107.045
21
-163.895
0
LINE
8
BLACK
6
CONTINUOUS
10
107.045
20
-163.895
11
106.855
21
-163.895
0
LINE
8
BLACK
6
CONTINUOUS
10
106.855
20
-163.895
11
106.664
21
-163.8
0
LINE
8
BLACK
6
CONTINUOUS
10
106.664
20
-163.8
11
106.569
21
-163.704
0
LINE
8
BLACK
6
CONTINUOUS
10
106.569
20
-163.704
11
106.474
21
-163.514
0
LINE
8
BLACK
6
CONTINUOUS
10
106.474
20
-163.514
11
106.379
21
-163.133
0
LINE
8
BLACK
6
CONTINUOUS
10
106.379
20
-163.133
11
106.379
21
-162.657
0
LINE
8
BLACK
6
CONTINUOUS
10
106.379
20
-162.657
11
106.474
21
-162.276
0
LINE
8
BLACK
6
CONTINUOUS
10
106.474
20
-162.276
11
106.569
21
-162.085
0
LINE
8
BLACK
6
CONTINUOUS
10
106.569
20
-162.085
11
106.664
21
-161.99
0
LINE
8
BLACK
6
CONTINUOUS
10
106.664
20
-161.99
11
106.855
21
-161.895
0
LINE
8
BLACK
6
CONTINUOUS
10
108.379
20
-163.704
11
108.474
21
-163.8
0
LINE
8
BLACK
6
CONTINUOUS
10
108.474
20
-163.8
11
108.379
21
-163.895
0
LINE
8
BLACK
6
CONTINUOUS
10
108.379
20
-163.895
11
108.283
21
-163.8
0
LINE
8
BLACK
6
CONTINUOUS
10
108.283
20
-163.8
11
108.379
21
-163.704
0
LINE
8
BLACK
6
CONTINUOUS
10
108.379
20
-163.704
11
108.379
21
-163.895
0
LINE
8
BLACK
6
CONTINUOUS
10
109.712
20
-161.895
11
109.902
21
-161.895
0
LINE
8
BLACK
6
CONTINUOUS
10
109.902
20
-161.895
11
110.093
21
-161.99
0
LINE
8
BLACK
6
CONTINUOUS
10
110.093
20
-161.99
11
110.188
21
-162.085
0
LINE
8
BLACK
6
CONTINUOUS
10
110.188
20
-162.085
11
110.283
21
-162.276
0
LINE
8
BLACK
6
CONTINUOUS
10
110.283
20
-162.276
11
110.379
21
-162.657
0
LINE
8
BLACK
6
CONTINUOUS
10
110.379
20
-162.657
11
110.379
21
-163.133
0
LINE
8
BLACK
6
CONTINUOUS
10
110.379
20
-163.133
11
110.283
21
-163.514
0
LINE
8
BLACK
6
CONTINUOUS
10
110.283
20
-163.514
11
110.188
21
-163.704
0
LINE
8
BLACK
6
CONTINUOUS
10
110.188
20
-163.704
11
110.093
21
-163.8
0
LINE
8
BLACK
6
CONTINUOUS
10
110.093
20
-163.8
11
109.902
21
-163.895
0
LINE
8
BLACK
6
CONTINUOUS
10
109.902
20
-163.895
11
109.712
21
-163.895
0
LINE
8
BLACK
6
CONTINUOUS
10
109.712
20
-163.895
11
109.521
21
-163.8
0
LINE
8
BLACK
6
CONTINUOUS
10
109.521
20
-163.8
11
109.426
21
-163.704
0
LINE
8
BLACK
6
CONTINUOUS
10
109.426
20
-163.704
11
109.331
21
-163.514
0
LINE
8
BLACK
6
CONTINUOUS
10
109.331
20
-163.514
11
109.236
21
-163.133
0
LINE
8
BLACK
6
CONTINUOUS
10
109.236
20
-163.133
11
109.236
21
-162.657
0
LINE
8
BLACK
6
CONTINUOUS
10
109.236
20
-162.657
11
109.331
21
-162.276
0
LINE
8
BLACK
6
CONTINUOUS
10
109.331
20
-162.276
11
109.426
21
-162.085
0
LINE
8
BLACK
6
CONTINUOUS
10
109.426
20
-162.085
11
109.521
21
-161.99
0
LINE
8
BLACK
6
CONTINUOUS
10
109.521
20
-161.99
11
109.712
21
-161.895
0
LINE
8
BLACK
6
CONTINUOUS
10
112.188
20
-161.895
11
111.236
21
-161.895
0
LINE
8
BLACK
6
CONTINUOUS
10
111.236
20
-161.895
11
111.14
21
-162.847
0
LINE
8
BLACK
6
CONTINUOUS
10
111.14
20
-162.847
11
111.236
21
-162.752
0
LINE
8
BLACK
6
CONTINUOUS
10
111.236
20
-162.752
11
111.426
21
-162.657
0
LINE
8
BLACK
6
CONTINUOUS
10
111.426
20
-162.657
11
111.902
21
-162.657
0
LINE
8
BLACK
6
CONTINUOUS
10
111.902
20
-162.657
11
112.093
21
-162.752
0
LINE
8
BLACK
6
CONTINUOUS
10
112.093
20
-162.752
11
112.188
21
-162.847
0
LINE
8
BLACK
6
CONTINUOUS
10
112.188
20
-162.847
11
112.283
21
-163.038
0
LINE
8
BLACK
6
CONTINUOUS
10
112.283
20
-163.038
11
112.283
21
-163.514
0
LINE
8
BLACK
6
CONTINUOUS
10
112.283
20
-163.514
11
112.188
21
-163.704
0
LINE
8
BLACK
6
CONTINUOUS
10
112.188
20
-163.704
11
112.093
21
-163.8
0
LINE
8
BLACK
6
CONTINUOUS
10
112.093
20
-163.8
11
111.902
21
-163.895
0
LINE
8
BLACK
6
CONTINUOUS
10
111.902
20
-163.895
11
111.426
21
-163.895
0
LINE
8
BLACK
6
CONTINUOUS
10
111.426
20
-163.895
11
111.236
21
-163.8
0
LINE
8
BLACK
6
CONTINUOUS
10
111.236
20
-163.8
11
111.14
21
-163.704
0
LINE
8
BLACK
6
CONTINUOUS
10
113.236
20
-163.895
11
113.617
21
-163.895
0
LINE
8
BLACK
6
CONTINUOUS
10
113.617
20
-163.895
11
113.807
21
-163.8
0
LINE
8
BLACK
6
CONTINUOUS
10
113.807
20
-163.8
11
113.902
21
-163.704
0
LINE
8
BLACK
6
CONTINUOUS
10
113.902
20
-163.704
11
114.093
21
-163.419
0
LINE
8
BLACK
6
CONTINUOUS
10
114.093
20
-163.419
11
114.188
21
-163.038
0
LINE
8
BLACK
6
CONTINUOUS
10
114.188
20
-163.038
11
114.188
21
-162.276
0
LINE
8
BLACK
6
CONTINUOUS
10
114.188
20
-162.276
11
114.093
21
-162.085
0
LINE
8
BLACK
6
CONTINUOUS
10
114.093
20
-162.085
11
113.998
21
-161.99
0
LINE
8
BLACK
6
CONTINUOUS
10
113.998
20
-161.99
11
113.807
21
-161.895
0
LINE
8
BLACK
6
CONTINUOUS
10
113.807
20
-161.895
11
113.426
21
-161.895
0
LINE
8
BLACK
6
CONTINUOUS
10
113.426
20
-161.895
11
113.236
21
-161.99
0
LINE
8
BLACK
6
CONTINUOUS
10
113.236
20
-161.99
11
113.14
21
-162.085
0
LINE
8
BLACK
6
CONTINUOUS
10
113.14
20
-162.085
11
113.045
21
-162.276
0
LINE
8
BLACK
6
CONTINUOUS
10
113.045
20
-162.276
11
113.045
21
-162.752
0
LINE
8
BLACK
6
CONTINUOUS
10
113.045
20
-162.752
11
113.14
21
-162.942
0
LINE
8
BLACK
6
CONTINUOUS
10
113.14
20
-162.942
11
113.236
21
-163.038
0
LINE
8
BLACK
6
CONTINUOUS
10
113.236
20
-163.038
11
113.426
21
-163.133
0
LINE
8
BLACK
6
CONTINUOUS
10
113.426
20
-163.133
11
113.807
21
-163.133
0
LINE
8
BLACK
6
CONTINUOUS
10
113.807
20
-163.133
11
113.998
21
-163.038
0
LINE
8
BLACK
6
CONTINUOUS
10
113.998
20
-163.038
11
114.093
21
-162.942
0
LINE
8
BLACK
6
CONTINUOUS
10
114.093
20
-162.942
11
114.188
21
-162.752
0
LINE
8
BLACK
6
CONTINUOUS
10
116.093
20
-163.895
11
114.95
21
-163.895
0
LINE
8
BLACK
6
CONTINUOUS
10
115.521
20
-163.895
11
115.521
21
-161.895
0
LINE
8
BLACK
6
CONTINUOUS
10
115.521
20
-161.895
11
115.331
21
-162.18
0
LINE
8
BLACK
6
CONTINUOUS
10
115.331
20
-162.18
11
115.14
21
-162.371
0
LINE
8
BLACK
6
CONTINUOUS
10
115.14
20
-162.371
11
114.95
21
-162.466
0
LINE
8
BLACK
6
CONTINUOUS
10
116.855
20
-161.895
11
116.855
21
-162.276
0
LINE
8
BLACK
6
CONTINUOUS
10
117.617
20
-161.895
11
117.617
21
-162.276
0
LINE
8
BLACK
6
CONTINUOUS
10
120.569
20
-164.657
11
120.474
21
-164.561
0
LINE
8
BLACK
6
CONTINUOUS
10
120.474
20
-164.561
11
120.283
21
-164.276
0
LINE
8
BLACK
6
CONTINUOUS
10
120.283
20
-164.276
11
120.188
21
-164.085
0
LINE
8
BLACK
6
CONTINUOUS
10
120.188
20
-164.085
11
120.093
21
-163.8
0
LINE
8
BLACK
6
CONTINUOUS
10
120.093
20
-163.8
11
119.998
21
-163.323
0
LINE
8
BLACK
6
CONTINUOUS
10
119.998
20
-163.323
11
119.998
21
-162.942
0
LINE
8
BLACK
6
CONTINUOUS
10
119.998
20
-162.942
11
120.093
21
-162.466
0
LINE
8
BLACK
6
CONTINUOUS
10
120.093
20
-162.466
11
120.188
21
-162.18
0
LINE
8
BLACK
6
CONTINUOUS
10
120.188
20
-162.18
11
120.283
21
-161.99
0
LINE
8
BLACK
6
CONTINUOUS
10
120.283
20
-161.99
11
120.474
21
-161.704
0
LINE
8
BLACK
6
CONTINUOUS
10
120.474
20
-161.704
11
120.569
21
-161.609
0
LINE
8
BLACK
6
CONTINUOUS
10
121.14
20
-161.895
11
122.474
21
-161.895
0
LINE
8
BLACK
6
CONTINUOUS
10
122.474
20
-161.895
11
121.617
21
-163.895
0
LINE
8
BLACK
6
CONTINUOUS
10
124.76
20
-163.895
11
124.76
21
-161.895
0
LINE
8
BLACK
6
CONTINUOUS
10
125.617
20
-163.895
11
125.617
21
-162.847
0
LINE
8
BLACK
6
CONTINUOUS
10
125.617
20
-162.847
11
125.521
21
-162.657
0
LINE
8
BLACK
6
CONTINUOUS
10
125.521
20
-162.657
11
125.331
21
-162.561
0
LINE
8
BLACK
6
CONTINUOUS
10
125.331
20
-162.561
11
125.045
21
-162.561
0
LINE
8
BLACK
6
CONTINUOUS
10
125.045
20
-162.561
11
124.855
21
-162.657
0
LINE
8
BLACK
6
CONTINUOUS
10
124.855
20
-162.657
11
124.76
21
-162.752
0
LINE
8
BLACK
6
CONTINUOUS
10
126.855
20
-163.895
11
126.664
21
-163.8
0
LINE
8
BLACK
6
CONTINUOUS
10
126.664
20
-163.8
11
126.569
21
-163.704
0
LINE
8
BLACK
6
CONTINUOUS
10
126.569
20
-163.704
11
126.474
21
-163.514
0
LINE
8
BLACK
6
CONTINUOUS
10
126.474
20
-163.514
11
126.474
21
-162.942
0
LINE
8
BLACK
6
CONTINUOUS
10
126.474
20
-162.942
11
126.569
21
-162.752
0
LINE
8
BLACK
6
CONTINUOUS
10
126.569
20
-162.752
11
126.664
21
-162.657
0
LINE
8
BLACK
6
CONTINUOUS
10
126.664
20
-162.657
11
126.855
21
-162.561
0
LINE
8
BLACK
6
CONTINUOUS
10
126.855
20
-162.561
11
127.14
21
-162.561
0
LINE
8
BLACK
6
CONTINUOUS
10
127.14
20
-162.561
11
127.331
21
-162.657
0
LINE
8
BLACK
6
CONTINUOUS
10
127.331
20
-162.657
11
127.426
21
-162.752
0
LINE
8
BLACK
6
CONTINUOUS
10
127.426
20
-162.752
11
127.521
21
-162.942
0
LINE
8
BLACK
6
CONTINUOUS
10
127.521
20
-162.942
11
127.521
21
-163.514
0
LINE
8
BLACK
6
CONTINUOUS
10
127.521
20
-163.514
11
127.426
21
-163.704
0
LINE
8
BLACK
6
CONTINUOUS
10
127.426
20
-163.704
11
127.331
21
-163.8
0
LINE
8
BLACK
6
CONTINUOUS
10
127.331
20
-163.8
11
127.14
21
-163.895
0
LINE
8
BLACK
6
CONTINUOUS
10
127.14
20
-163.895
11
126.855
21
-163.895
0
LINE
8
BLACK
6
CONTINUOUS
10
128.664
20
-163.895
11
128.474
21
-163.8
0
LINE
8
BLACK
6
CONTINUOUS
10
128.474
20
-163.8
11
128.379
21
-163.609
0
LINE
8
BLACK
6
CONTINUOUS
10
128.379
20
-163.609
11
128.379
21
-161.895
0
LINE
8
BLACK
6
CONTINUOUS
10
130.188
20
-163.8
11
129.998
21
-163.895
0
LINE
8
BLACK
6
CONTINUOUS
10
129.998
20
-163.895
11
129.617
21
-163.895
0
LINE
8
BLACK
6
CONTINUOUS
10
129.617
20
-163.895
11
129.426
21
-163.8
0
LINE
8
BLACK
6
CONTINUOUS
10
129.426
20
-163.8
11
129.331
21
-163.609
0
LINE
8
BLACK
6
CONTINUOUS
10
129.331
20
-163.609
11
129.331
21
-162.847
0
LINE
8
BLACK
6
CONTINUOUS
10
129.331
20
-162.847
11
129.426
21
-162.657
0
LINE
8
BLACK
6
CONTINUOUS
10
129.426
20
-162.657
11
129.617
21
-162.561
0
LINE
8
BLACK
6
CONTINUOUS
10
129.617
20
-162.561
11
129.998
21
-162.561
0
LINE
8
BLACK
6
CONTINUOUS
10
129.998
20
-162.561
11
130.188
21
-162.657
0
LINE
8
BLACK
6
CONTINUOUS
10
130.188
20
-162.657
11
130.283
21
-162.847
0
LINE
8
BLACK
6
CONTINUOUS
10
130.283
20
-162.847
11
130.283
21
-163.038
0
LINE
8
BLACK
6
CONTINUOUS
10
130.283
20
-163.038
11
129.331
21
-163.228
0
LINE
8
BLACK
6
CONTINUOUS
10
131.045
20
-163.8
11
131.236
21
-163.895
0
LINE
8
BLACK
6
CONTINUOUS
10
131.236
20
-163.895
11
131.617
21
-163.895
0
LINE
8
BLACK
6
CONTINUOUS
10
131.617
20
-163.895
11
131.807
21
-163.8
0
LINE
8
BLACK
6
CONTINUOUS
10
131.807
20
-163.8
11
131.902
21
-163.609
0
LINE
8
BLACK
6
CONTINUOUS
10
131.902
20
-163.609
11
131.902
21
-163.514
0
LINE
8
BLACK
6
CONTINUOUS
10
131.902
20
-163.514
11
131.807
21
-163.323
0
LINE
8
BLACK
6
CONTINUOUS
10
131.807
20
-163.323
11
131.617
21
-163.228
0
LINE
8
BLACK
6
CONTINUOUS
10
131.617
20
-163.228
11
131.331
21
-163.228
0
LINE
8
BLACK
6
CONTINUOUS
10
131.331
20
-163.228
11
131.14
21
-163.133
0
LINE
8
BLACK
6
CONTINUOUS
10
131.14
20
-163.133
11
131.045
21
-162.942
0
LINE
8
BLACK
6
CONTINUOUS
10
131.045
20
-162.942
11
131.045
21
-162.847
0
LINE
8
BLACK
6
CONTINUOUS
10
131.045
20
-162.847
11
131.14
21
-162.657
0
LINE
8
BLACK
6
CONTINUOUS
10
131.14
20
-162.657
11
131.331
21
-162.561
0
LINE
8
BLACK
6
CONTINUOUS
10
131.331
20
-162.561
11
131.617
21
-162.561
0
LINE
8
BLACK
6
CONTINUOUS
10
131.617
20
-162.561
11
131.807
21
-162.657
0
LINE
8
BLACK
6
CONTINUOUS
10
132.569
20
-164.657
11
132.664
21
-164.561
0
LINE
8
BLACK
6
CONTINUOUS
10
132.664
20
-164.561
11
132.855
21
-164.276
0
LINE
8
BLACK
6
CONTINUOUS
10
132.855
20
-164.276
11
132.95
21
-164.085
0
LINE
8
BLACK
6
CONTINUOUS
10
132.95
20
-164.085
11
133.045
21
-163.8
0
LINE
8
BLACK
6
CONTINUOUS
10
133.045
20
-163.8
11
133.14
21
-163.323
0
LINE
8
BLACK
6
CONTINUOUS
10
133.14
20
-163.323
11
133.14
21
-162.942
0
LINE
8
BLACK
6
CONTINUOUS
10
133.14
20
-162.942
11
133.045
21
-162.466
0
LINE
8
BLACK
6
CONTINUOUS
10
133.045
20
-162.466
11
132.95
21
-162.18
0
LINE
8
BLACK
6
CONTINUOUS
10
132.95
20
-162.18
11
132.855
21
-161.99
0
LINE
8
BLACK
6
CONTINUOUS
10
132.855
20
-161.99
11
132.664
21
-161.704
0
LINE
8
BLACK
6
CONTINUOUS
10
132.664
20
-161.704
11
132.569
21
-161.609
0
LINE
8
BLACK
6
CONTINUOUS
10
82.85
20
-164.69
11
84.85
21
-166.69
0
LINE
8
BLACK
6
CONTINUOUS
10
84.85
20
-164.69
11
82.85
21
-166.69
0
LINE
8
BLACK
6
CONTINUOUS
10
84.5571
20
-166.397
11
84.5571
21
-164.983
0
LINE
8
BLACK
6
CONTINUOUS
10
84.5571
20
-164.983
11
83.1429
21
-164.983
0
LINE
8
BLACK
6
CONTINUOUS
10
83.1429
20
-164.983
11
83.1429
21
-166.397
0
LINE
8
BLACK
6
CONTINUOUS
10
83.1429
20
-166.397
11
84.5571
21
-166.397
0
LINE
8
BLACK
6
CONTINUOUS
10
87.2357
20
-164.595
11
88.4738
21
-164.595
0
LINE
8
BLACK
6
CONTINUOUS
10
88.4738
20
-164.595
11
87.8071
21
-165.357
0
LINE
8
BLACK
6
CONTINUOUS
10
87.8071
20
-165.357
11
88.0929
21
-165.357
0
LINE
8
BLACK
6
CONTINUOUS
10
88.0929
20
-165.357
11
88.2833
21
-165.452
0
LINE
8
BLACK
6
CONTINUOUS
10
88.2833
20
-165.452
11
88.3786
21
-165.547
0
LINE
8
BLACK
6
CONTINUOUS
10
88.3786
20
-165.547
11
88.4738
21
-165.738
0
LINE
8
BLACK
6
CONTINUOUS
10
88.4738
20
-165.738
11
88.4738
21
-166.214
0
LINE
8
BLACK
6
CONTINUOUS
10
88.4738
20
-166.214
11
88.3786
21
-166.404
0
LINE
8
BLACK
6
CONTINUOUS
10
88.3786
20
-166.404
11
88.2833
21
-166.5
0
LINE
8
BLACK
6
CONTINUOUS
10
88.2833
20
-166.5
11
88.0929
21
-166.595
0
LINE
8
BLACK
6
CONTINUOUS
10
88.0929
20
-166.595
11
87.5214
21
-166.595
0
LINE
8
BLACK
6
CONTINUOUS
10
87.5214
20
-166.595
11
87.331
21
-166.5
0
LINE
8
BLACK
6
CONTINUOUS
10
87.331
20
-166.5
11
87.2357
21
-166.404
0
LINE
8
BLACK
6
CONTINUOUS
10
89.331
20
-166.404
11
89.4262
21
-166.5
0
LINE
8
BLACK
6
CONTINUOUS
10
89.4262
20
-166.5
11
89.331
21
-166.595
0
LINE
8
BLACK
6
CONTINUOUS
10
89.331
20
-166.595
11
89.2357
21
-166.5
0
LINE
8
BLACK
6
CONTINUOUS
10
89.2357
20
-166.5
11
89.331
21
-166.404
0
LINE
8
BLACK
6
CONTINUOUS
10
89.331
20
-166.404
11
89.331
21
-166.595
0
LINE
8
BLACK
6
CONTINUOUS
10
90.1881
20
-164.785
11
90.2833
21
-164.69
0
LINE
8
BLACK
6
CONTINUOUS
10
90.2833
20
-164.69
11
90.4738
21
-164.595
0
LINE
8
BLACK
6
CONTINUOUS
10
90.4738
20
-164.595
11
90.95
21
-164.595
0
LINE
8
BLACK
6
CONTINUOUS
10
90.95
20
-164.595
11
91.1405
21
-164.69
0
LINE
8
BLACK
6
CONTINUOUS
10
91.1405
20
-164.69
11
91.2357
21
-164.785
0
LINE
8
BLACK
6
CONTINUOUS
10
91.2357
20
-164.785
11
91.331
21
-164.976
0
LINE
8
BLACK
6
CONTINUOUS
10
91.331
20
-164.976
11
91.331
21
-165.166
0
LINE
8
BLACK
6
CONTINUOUS
10
91.331
20
-165.166
11
91.2357
21
-165.452
0
LINE
8
BLACK
6
CONTINUOUS
10
91.2357
20
-165.452
11
90.0929
21
-166.595
0
LINE
8
BLACK
6
CONTINUOUS
10
90.0929
20
-166.595
11
91.331
21
-166.595
0
LINE
8
BLACK
6
CONTINUOUS
10
92.569
20
-164.595
11
92.7595
21
-164.595
0
LINE
8
BLACK
6
CONTINUOUS
10
92.7595
20
-164.595
11
92.95
21
-164.69
0
LINE
8
BLACK
6
CONTINUOUS
10
92.95
20
-164.69
11
93.0452
21
-164.785
0
LINE
8
BLACK
6
CONTINUOUS
10
93.0452
20
-164.785
11
93.1405
21
-164.976
0
LINE
8
BLACK
6
CONTINUOUS
10
93.1405
20
-164.976
11
93.2357
21
-165.357
0
LINE
8
BLACK
6
CONTINUOUS
10
93.2357
20
-165.357
11
93.2357
21
-165.833
0
LINE
8
BLACK
6
CONTINUOUS
10
93.2357
20
-165.833
11
93.1405
21
-166.214
0
LINE
8
BLACK
6
CONTINUOUS
10
93.1405
20
-166.214
11
93.0452
21
-166.404
0
LINE
8
BLACK
6
CONTINUOUS
10
93.0452
20
-166.404
11
92.95
21
-166.5
0
LINE
8
BLACK
6
CONTINUOUS
10
92.95
20
-166.5
11
92.7595
21
-166.595
0
LINE
8
BLACK
6
CONTINUOUS
10
92.7595
20
-166.595
11
92.569
21
-166.595
0
LINE
8
BLACK
6
CONTINUOUS
10
92.569
20
-166.595
11
92.3786
21
-166.5
0
LINE
8
BLACK
6
CONTINUOUS
10
92.3786
20
-166.5
11
92.2833
21
-166.404
0
LINE
8
BLACK
6
CONTINUOUS
10
92.2833
20
-166.404
11
92.1881
21
-166.214
0
LINE
8
BLACK
6
CONTINUOUS
10
92.1881
20
-166.214
11
92.0929
21
-165.833
0
LINE
8
BLACK
6
CONTINUOUS
10
92.0929
20
-165.833
11
92.0929
21
-165.357
0
LINE
8
BLACK
6
CONTINUOUS
10
92.0929
20
-165.357
11
92.1881
21
-164.976
0
LINE
8
BLACK
6
CONTINUOUS
10
92.1881
20
-164.976
11
92.2833
21
-164.785
0
LINE
8
BLACK
6
CONTINUOUS
10
92.2833
20
-164.785
11
92.3786
21
-164.69
0
LINE
8
BLACK
6
CONTINUOUS
10
92.3786
20
-164.69
11
92.569
21
-164.595
0
LINE
8
BLACK
6
CONTINUOUS
10
94.4738
20
-164.595
11
94.6643
21
-164.595
0
LINE
8
BLACK
6
CONTINUOUS
10
94.6643
20
-164.595
11
94.8548
21
-164.69
0
LINE
8
BLACK
6
CONTINUOUS
10
94.8548
20
-164.69
11
94.95
21
-164.785
0
LINE
8
BLACK
6
CONTINUOUS
10
94.95
20
-164.785
11
95.0452
21
-164.976
0
LINE
8
BLACK
6
CONTINUOUS
10
95.0452
20
-164.976
11
95.1405
21
-165.357
0
LINE
8
BLACK
6
CONTINUOUS
10
95.1405
20
-165.357
11
95.1405
21
-165.833
0
LINE
8
BLACK
6
CONTINUOUS
10
95.1405
20
-165.833
11
95.0452
21
-166.214
0
LINE
8
BLACK
6
CONTINUOUS
10
95.0452
20
-166.214
11
94.95
21
-166.404
0
LINE
8
BLACK
6
CONTINUOUS
10
94.95
20
-166.404
11
94.8548
21
-166.5
0
LINE
8
BLACK
6
CONTINUOUS
10
94.8548
20
-166.5
11
94.6643
21
-166.595
0
LINE
8
BLACK
6
CONTINUOUS
10
94.6643
20
-166.595
11
94.4738
21
-166.595
0
LINE
8
BLACK
6
CONTINUOUS
10
94.4738
20
-166.595
11
94.2833
21
-166.5
0
LINE
8
BLACK
6
CONTINUOUS
10
94.2833
20
-166.5
11
94.1881
21
-166.404
0
LINE
8
BLACK
6
CONTINUOUS
10
94.1881
20
-166.404
11
94.0929
21
-166.214
0
LINE
8
BLACK
6
CONTINUOUS
10
94.0929
20
-166.214
11
93.9976
21
-165.833
0
LINE
8
BLACK
6
CONTINUOUS
10
93.9976
20
-165.833
11
93.9976
21
-165.357
0
LINE
8
BLACK
6
CONTINUOUS
10
93.9976
20
-165.357
11
94.0929
21
-164.976
0
LINE
8
BLACK
6
CONTINUOUS
10
94.0929
20
-164.976
11
94.1881
21
-164.785
0
LINE
8
BLACK
6
CONTINUOUS
10
94.1881
20
-164.785
11
94.2833
21
-164.69
0
LINE
8
BLACK
6
CONTINUOUS
10
94.2833
20
-164.69
11
94.4738
21
-164.595
0
LINE
8
BLACK
6
CONTINUOUS
10
95.9976
20
-166.595
11
95.9976
21
-165.261
0
LINE
8
BLACK
6
CONTINUOUS
10
95.9976
20
-165.452
11
96.0929
21
-165.357
0
LINE
8
BLACK
6
CONTINUOUS
10
96.0929
20
-165.357
11
96.2833
21
-165.261
0
LINE
8
BLACK
6
CONTINUOUS
10
96.2833
20
-165.261
11
96.569
21
-165.261
0
LINE
8
BLACK
6
CONTINUOUS
10
96.569
20
-165.261
11
96.7595
21
-165.357
0
LINE
8
BLACK
6
CONTINUOUS
10
96.7595
20
-165.357
11
96.8548
21
-165.547
0
LINE
8
BLACK
6
CONTINUOUS
10
96.8548
20
-165.547
11
96.8548
21
-166.595
0
LINE
8
BLACK
6
CONTINUOUS
10
96.8548
20
-165.547
11
96.95
21
-165.357
0
LINE
8
BLACK
6
CONTINUOUS
10
96.95
20
-165.357
11
97.1405
21
-165.261
0
LINE
8
BLACK
6
CONTINUOUS
10
97.1405
20
-165.261
11
97.4262
21
-165.261
0
LINE
8
BLACK
6
CONTINUOUS
10
97.4262
20
-165.261
11
97.6167
21
-165.357
0
LINE
8
BLACK
6
CONTINUOUS
10
97.6167
20
-165.357
11
97.7119
21
-165.547
0
LINE
8
BLACK
6
CONTINUOUS
10
97.7119
20
-165.547
11
97.7119
21
-166.595
0
LINE
8
BLACK
6
CONTINUOUS
10
98.6643
20
-166.595
11
98.6643
21
-165.261
0
LINE
8
BLACK
6
CONTINUOUS
10
98.6643
20
-165.452
11
98.7595
21
-165.357
0
LINE
8
BLACK
6
CONTINUOUS
10
98.7595
20
-165.357
11
98.95
21
-165.261
0
LINE
8
BLACK
6
CONTINUOUS
10
98.95
20
-165.261
11
99.2357
21
-165.261
0
LINE
8
BLACK
6
CONTINUOUS
10
99.2357
20
-165.261
11
99.4262
21
-165.357
0
LINE
8
BLACK
6
CONTINUOUS
10
99.4262
20
-165.357
11
99.5214
21
-165.547
0
LINE
8
BLACK
6
CONTINUOUS
10
99.5214
20
-165.547
11
99.5214
21
-166.595
0
LINE
8
BLACK
6
CONTINUOUS
10
99.5214
20
-165.547
11
99.6167
21
-165.357
0
LINE
8
BLACK
6
CONTINUOUS
10
99.6167
20
-165.357
11
99.8071
21
-165.261
0
LINE
8
BLACK
6
CONTINUOUS
10
99.8071
20
-165.261
11
100.093
21
-165.261
0
LINE
8
BLACK
6
CONTINUOUS
10
100.093
20
-165.261
11
100.283
21
-165.357
0
LINE
8
BLACK
6
CONTINUOUS
10
100.283
20
-165.357
11
100.379
21
-165.547
0
LINE
8
BLACK
6
CONTINUOUS
10
100.379
20
-165.547
11
100.379
21
-166.595
0
LINE
8
BLACK
6
CONTINUOUS
10
104.283
20
-164.5
11
102.569
21
-167.071
0
LINE
8
BLACK
6
CONTINUOUS
10
106.855
20
-164.595
11
107.045
21
-164.595
0
LINE
8
BLACK
6
CONTINUOUS
10
107.045
20
-164.595
11
107.236
21
-164.69
0
LINE
8
BLACK
6
CONTINUOUS
10
107.236
20
-164.69
11
107.331
21
-164.785
0
LINE
8
BLACK
6
CONTINUOUS
10
107.331
20
-164.785
11
107.426
21
-164.976
0
LINE
8
BLACK
6
CONTINUOUS
10
107.426
20
-164.976
11
107.521
21
-165.357
0
LINE
8
BLACK
6
CONTINUOUS
10
107.521
20
-165.357
11
107.521
21
-165.833
0
LINE
8
BLACK
6
CONTINUOUS
10
107.521
20
-165.833
11
107.426
21
-166.214
0
LINE
8
BLACK
6
CONTINUOUS
10
107.426
20
-166.214
11
107.331
21
-166.404
0
LINE
8
BLACK
6
CONTINUOUS
10
107.331
20
-166.404
11
107.236
21
-166.5
0
LINE
8
BLACK
6
CONTINUOUS
10
107.236
20
-166.5
11
107.045
21
-166.595
0
LINE
8
BLACK
6
CONTINUOUS
10
107.045
20
-166.595
11
106.855
21
-166.595
0
LINE
8
BLACK
6
CONTINUOUS
10
106.855
20
-166.595
11
106.664
21
-166.5
0
LINE
8
BLACK
6
CONTINUOUS
10
106.664
20
-166.5
11
106.569
21
-166.404
0
LINE
8
BLACK
6
CONTINUOUS
10
106.569
20
-166.404
11
106.474
21
-166.214
0
LINE
8
BLACK
6
CONTINUOUS
10
106.474
20
-166.214
11
106.379
21
-165.833
0
LINE
8
BLACK
6
CONTINUOUS
10
106.379
20
-165.833
11
106.379
21
-165.357
0
LINE
8
BLACK
6
CONTINUOUS
10
106.379
20
-165.357
11
106.474
21
-164.976
0
LINE
8
BLACK
6
CONTINUOUS
10
106.474
20
-164.976
11
106.569
21
-164.785
0
LINE
8
BLACK
6
CONTINUOUS
10
106.569
20
-164.785
11
106.664
21
-164.69
0
LINE
8
BLACK
6
CONTINUOUS
10
106.664
20
-164.69
11
106.855
21
-164.595
0
LINE
8
BLACK
6
CONTINUOUS
10
108.379
20
-166.404
11
108.474
21
-166.5
0
LINE
8
BLACK
6
CONTINUOUS
10
108.474
20
-166.5
11
108.379
21
-166.595
0
LINE
8
BLACK
6
CONTINUOUS
10
108.379
20
-166.595
11
108.283
21
-166.5
0
LINE
8
BLACK
6
CONTINUOUS
10
108.283
20
-166.5
11
108.379
21
-166.404
0
LINE
8
BLACK
6
CONTINUOUS
10
108.379
20
-166.404
11
108.379
21
-166.595
0
LINE
8
BLACK
6
CONTINUOUS
10
110.379
20
-166.595
11
109.236
21
-166.595
0
LINE
8
BLACK
6
CONTINUOUS
10
109.807
20
-166.595
11
109.807
21
-164.595
0
LINE
8
BLACK
6
CONTINUOUS
10
109.807
20
-164.595
11
109.617
21
-164.88
0
LINE
8
BLACK
6
CONTINUOUS
10
109.617
20
-164.88
11
109.426
21
-165.071
0
LINE
8
BLACK
6
CONTINUOUS
10
109.426
20
-165.071
11
109.236
21
-165.166
0
LINE
8
BLACK
6
CONTINUOUS
10
111.14
20
-164.785
11
111.236
21
-164.69
0
LINE
8
BLACK
6
CONTINUOUS
10
111.236
20
-164.69
11
111.426
21
-164.595
0
LINE
8
BLACK
6
CONTINUOUS
10
111.426
20
-164.595
11
111.902
21
-164.595
0
LINE
8
BLACK
6
CONTINUOUS
10
111.902
20
-164.595
11
112.093
21
-164.69
0
LINE
8
BLACK
6
CONTINUOUS
10
112.093
20
-164.69
11
112.188
21
-164.785
0
LINE
8
BLACK
6
CONTINUOUS
10
112.188
20
-164.785
11
112.283
21
-164.976
0
LINE
8
BLACK
6
CONTINUOUS
10
112.283
20
-164.976
11
112.283
21
-165.166
0
LINE
8
BLACK
6
CONTINUOUS
10
112.283
20
-165.166
11
112.188
21
-165.452
0
LINE
8
BLACK
6
CONTINUOUS
10
112.188
20
-165.452
11
111.045
21
-166.595
0
LINE
8
BLACK
6
CONTINUOUS
10
111.045
20
-166.595
11
112.283
21
-166.595
0
LINE
8
BLACK
6
CONTINUOUS
10
113.998
20
-164.595
11
113.617
21
-164.595
0
LINE
8
BLACK
6
CONTINUOUS
10
113.617
20
-164.595
11
113.426
21
-164.69
0
LINE
8
BLACK
6
CONTINUOUS
10
113.426
20
-164.69
11
113.331
21
-164.785
0
LINE
8
BLACK
6
CONTINUOUS
10
113.331
20
-164.785
11
113.14
21
-165.071
0
LINE
8
BLACK
6
CONTINUOUS
10
113.14
20
-165.071
11
113.045
21
-165.452
0
LINE
8
BLACK
6
CONTINUOUS
10
113.045
20
-165.452
11
113.045
21
-166.214
0
LINE
8
BLACK
6
CONTINUOUS
10
113.045
20
-166.214
11
113.14
21
-166.404
0
LINE
8
BLACK
6
CONTINUOUS
10
113.14
20
-166.404
11
113.236
21
-166.5
0
LINE
8
BLACK
6
CONTINUOUS
10
113.236
20
-166.5
11
113.426
21
-166.595
0
LINE
8
BLACK
6
CONTINUOUS
10
113.426
20
-166.595
11
113.807
21
-166.595
0
LINE
8
BLACK
6
CONTINUOUS
10
113.807
20
-166.595
11
113.998
21
-166.5
0
LINE
8
BLACK
6
CONTINUOUS
10
113.998
20
-166.5
11
114.093
21
-166.404
0
LINE
8
BLACK
6
CONTINUOUS
10
114.093
20
-166.404
11
114.188
21
-166.214
0
LINE
8
BLACK
6
CONTINUOUS
10
114.188
20
-166.214
11
114.188
21
-165.738
0
LINE
8
BLACK
6
CONTINUOUS
10
114.188
20
-165.738
11
114.093
21
-165.547
0
LINE
8
BLACK
6
CONTINUOUS
10
114.093
20
-165.547
11
113.998
21
-165.452
0
LINE
8
BLACK
6
CONTINUOUS
10
113.998
20
-165.452
11
113.807
21
-165.357
0
LINE
8
BLACK
6
CONTINUOUS
10
113.807
20
-165.357
11
113.426
21
-165.357
0
LINE
8
BLACK
6
CONTINUOUS
10
113.426
20
-165.357
11
113.236
21
-165.452
0
LINE
8
BLACK
6
CONTINUOUS
10
113.236
20
-165.452
11
113.14
21
-165.547
0
LINE
8
BLACK
6
CONTINUOUS
10
113.14
20
-165.547
11
113.045
21
-165.738
0
LINE
8
BLACK
6
CONTINUOUS
10
115.426
20
-164.595
11
115.617
21
-164.595
0
LINE
8
BLACK
6
CONTINUOUS
10
115.617
20
-164.595
11
115.807
21
-164.69
0
LINE
8
BLACK
6
CONTINUOUS
10
115.807
20
-164.69
11
115.902
21
-164.785
0
LINE
8
BLACK
6
CONTINUOUS
10
115.902
20
-164.785
11
115.998
21
-164.976
0
LINE
8
BLACK
6
CONTINUOUS
10
115.998
20
-164.976
11
116.093
21
-165.357
0
LINE
8
BLACK
6
CONTINUOUS
10
116.093
20
-165.357
11
116.093
21
-165.833
0
LINE
8
BLACK
6
CONTINUOUS
10
116.093
20
-165.833
11
115.998
21
-166.214
0
LINE
8
BLACK
6
CONTINUOUS
10
115.998
20
-166.214
11
115.902
21
-166.404
0
LINE
8
BLACK
6
CONTINUOUS
10
115.902
20
-166.404
11
115.807
21
-166.5
0
LINE
8
BLACK
6
CONTINUOUS
10
115.807
20
-166.5
11
115.617
21
-166.595
0
LINE
8
BLACK
6
CONTINUOUS
10
115.617
20
-166.595
11
115.426
21
-166.595
0
LINE
8
BLACK
6
CONTINUOUS
10
115.426
20
-166.595
11
115.236
21
-166.5
0
LINE
8
BLACK
6
CONTINUOUS
10
115.236
20
-166.5
11
115.14
21
-166.404
0
LINE
8
BLACK
6
CONTINUOUS
10
115.14
20
-166.404
11
115.045
21
-166.214
0
LINE
8
BLACK
6
CONTINUOUS
10
115.045
20
-166.214
11
114.95
21
-165.833
0
LINE
8
BLACK
6
CONTINUOUS
10
114.95
20
-165.833
11
114.95
21
-165.357
0
LINE
8
BLACK
6
CONTINUOUS
10
114.95
20
-165.357
11
115.045
21
-164.976
0
LINE
8
BLACK
6
CONTINUOUS
10
115.045
20
-164.976
11
115.14
21
-164.785
0
LINE
8
BLACK
6
CONTINUOUS
10
115.14
20
-164.785
11
115.236
21
-164.69
0
LINE
8
BLACK
6
CONTINUOUS
10
115.236
20
-164.69
11
115.426
21
-164.595
0
LINE
8
BLACK
6
CONTINUOUS
10
116.855
20
-164.595
11
116.855
21
-164.976
0
LINE
8
BLACK
6
CONTINUOUS
10
117.617
20
-164.595
11
117.617
21
-164.976
0
LINE
8
BLACK
6
CONTINUOUS
10
120.569
20
-167.357
11
120.474
21
-167.261
0
LINE
8
BLACK
6
CONTINUOUS
10
120.474
20
-167.261
11
120.283
21
-166.976
0
LINE
8
BLACK
6
CONTINUOUS
10
120.283
20
-166.976
11
120.188
21
-166.785
0
LINE
8
BLACK
6
CONTINUOUS
10
120.188
20
-166.785
11
120.093
21
-166.5
0
LINE
8
BLACK
6
CONTINUOUS
10
120.093
20
-166.5
11
119.998
21
-166.023
0
LINE
8
BLACK
6
CONTINUOUS
10
119.998
20
-166.023
11
119.998
21
-165.642
0
LINE
8
BLACK
6
CONTINUOUS
10
119.998
20
-165.642
11
120.093
21
-165.166
0
LINE
8
BLACK
6
CONTINUOUS
10
120.093
20
-165.166
11
120.188
21
-164.88
0
LINE
8
BLACK
6
CONTINUOUS
10
120.188
20
-164.88
11
120.283
21
-164.69
0
LINE
8
BLACK
6
CONTINUOUS
10
120.283
20
-164.69
11
120.474
21
-164.404
0
LINE
8
BLACK
6
CONTINUOUS
10
120.474
20
-164.404
11
120.569
21
-164.309
0
LINE
8
BLACK
6
CONTINUOUS
10
122.188
20
-165.261
11
122.188
21
-166.595
0
LINE
8
BLACK
6
CONTINUOUS
10
121.712
20
-164.5
11
121.236
21
-165.928
0
LINE
8
BLACK
6
CONTINUOUS
10
121.236
20
-165.928
11
122.474
21
-165.928
0
LINE
8
BLACK
6
CONTINUOUS
10
124.76
20
-166.595
11
124.76
21
-164.595
0
LINE
8
BLACK
6
CONTINUOUS
10
125.617
20
-166.595
11
125.617
21
-165.547
0
LINE
8
BLACK
6
CONTINUOUS
10
125.617
20
-165.547
11
125.521
21
-165.357
0
LINE
8
BLACK
6
CONTINUOUS
10
125.521
20
-165.357
11
125.331
21
-165.261
0
LINE
8
BLACK
6
CONTINUOUS
10
125.331
20
-165.261
11
125.045
21
-165.261
0
LINE
8
BLACK
6
CONTINUOUS
10
125.045
20
-165.261
11
124.855
21
-165.357
0
LINE
8
BLACK
6
CONTINUOUS
10
124.855
20
-165.357
11
124.76
21
-165.452
0
LINE
8
BLACK
6
CONTINUOUS
10
126.855
20
-166.595
11
126.664
21
-166.5
0
LINE
8
BLACK
6
CONTINUOUS
10
126.664
20
-166.5
11
126.569
21
-166.404
0
LINE
8
BLACK
6
CONTINUOUS
10
126.569
20
-166.404
11
126.474
21
-166.214
0
LINE
8
BLACK
6
CONTINUOUS
10
126.474
20
-166.214
11
126.474
21
-165.642
0
LINE
8
BLACK
6
CONTINUOUS
10
126.474
20
-165.642
11
126.569
21
-165.452
0
LINE
8
BLACK
6
CONTINUOUS
10
126.569
20
-165.452
11
126.664
21
-165.357
0
LINE
8
BLACK
6
CONTINUOUS
10
126.664
20
-165.357
11
126.855
21
-165.261
0
LINE
8
BLACK
6
CONTINUOUS
10
126.855
20
-165.261
11
127.14
21
-165.261
0
LINE
8
BLACK
6
CONTINUOUS
10
127.14
20
-165.261
11
127.331
21
-165.357
0
LINE
8
BLACK
6
CONTINUOUS
10
127.331
20
-165.357
11
127.426
21
-165.452
0
LINE
8
BLACK
6
CONTINUOUS
10
127.426
20
-165.452
11
127.521
21
-165.642
0
LINE
8
BLACK
6
CONTINUOUS
10
127.521
20
-165.642
11
127.521
21
-166.214
0
LINE
8
BLACK
6
CONTINUOUS
10
127.521
20
-166.214
11
127.426
21
-166.404
0
LINE
8
BLACK
6
CONTINUOUS
10
127.426
20
-166.404
11
127.331
21
-166.5
0
LINE
8
BLACK
6
CONTINUOUS
10
127.331
20
-166.5
11
127.14
21
-166.595
0
LINE
8
BLACK
6
CONTINUOUS
10
127.14
20
-166.595
11
126.855
21
-166.595
0
LINE
8
BLACK
6
CONTINUOUS
10
128.664
20
-166.595
11
128.474
21
-166.5
0
LINE
8
BLACK
6
CONTINUOUS
10
128.474
20
-166.5
11
128.379
21
-166.309
0
LINE
8
BLACK
6
CONTINUOUS
10
128.379
20
-166.309
11
128.379
21
-164.595
0
LINE
8
BLACK
6
CONTINUOUS
10
130.188
20
-166.5
11
129.998
21
-166.595
0
LINE
8
BLACK
6
CONTINUOUS
10
129.998
20
-166.595
11
129.617
21
-166.595
0
LINE
8
BLACK
6
CONTINUOUS
10
129.617
20
-166.595
11
129.426
21
-166.5
0
LINE
8
BLACK
6
CONTINUOUS
10
129.426
20
-166.5
11
129.331
21
-166.309
0
LINE
8
BLACK
6
CONTINUOUS
10
129.331
20
-166.309
11
129.331
21
-165.547
0
LINE
8
BLACK
6
CONTINUOUS
10
129.331
20
-165.547
11
129.426
21
-165.357
0
LINE
8
BLACK
6
CONTINUOUS
10
129.426
20
-165.357
11
129.617
21
-165.261
0
LINE
8
BLACK
6
CONTINUOUS
10
129.617
20
-165.261
11
129.998
21
-165.261
0
LINE
8
BLACK
6
CONTINUOUS
10
129.998
20
-165.261
11
130.188
21
-165.357
0
LINE
8
BLACK
6
CONTINUOUS
10
130.188
20
-165.357
11
130.283
21
-165.547
0
LINE
8
BLACK
6
CONTINUOUS
10
130.283
20
-165.547
11
130.283
21
-165.738
0
LINE
8
BLACK
6
CONTINUOUS
10
130.283
20
-165.738
11
129.331
21
-165.928
0
LINE
8
BLACK
6
CONTINUOUS
10
131.045
20
-166.5
11
131.236
21
-166.595
0
LINE
8
BLACK
6
CONTINUOUS
10
131.236
20
-166.595
11
131.617
21
-166.595
0
LINE
8
BLACK
6
CONTINUOUS
10
131.617
20
-166.595
11
131.807
21
-166.5
0
LINE
8
BLACK
6
CONTINUOUS
10
131.807
20
-166.5
11
131.902
21
-166.309
0
LINE
8
BLACK
6
CONTINUOUS
10
131.902
20
-166.309
11
131.902
21
-166.214
0
LINE
8
BLACK
6
CONTINUOUS
10
131.902
20
-166.214
11
131.807
21
-166.023
0
LINE
8
BLACK
6
CONTINUOUS
10
131.807
20
-166.023
11
131.617
21
-165.928
0
LINE
8
BLACK
6
CONTINUOUS
10
131.617
20
-165.928
11
131.331
21
-165.928
0
LINE
8
BLACK
6
CONTINUOUS
10
131.331
20
-165.928
11
131.14
21
-165.833
0
LINE
8
BLACK
6
CONTINUOUS
10
131.14
20
-165.833
11
131.045
21
-165.642
0
LINE
8
BLACK
6
CONTINUOUS
10
131.045
20
-165.642
11
131.045
21
-165.547
0
LINE
8
BLACK
6
CONTINUOUS
10
131.045
20
-165.547
11
131.14
21
-165.357
0
LINE
8
BLACK
6
CONTINUOUS
10
131.14
20
-165.357
11
131.331
21
-165.261
0
LINE
8
BLACK
6
CONTINUOUS
10
131.331
20
-165.261
11
131.617
21
-165.261
0
LINE
8
BLACK
6
CONTINUOUS
10
131.617
20
-165.261
11
131.807
21
-165.357
0
LINE
8
BLACK
6
CONTINUOUS
10
132.569
20
-167.357
11
132.664
21
-167.261
0
LINE
8
BLACK
6
CONTINUOUS
10
132.664
20
-167.261
11
132.855
21
-166.976
0
LINE
8
BLACK
6
CONTINUOUS
10
132.855
20
-166.976
11
132.95
21
-166.785
0
LINE
8
BLACK
6
CONTINUOUS
10
132.95
20
-166.785
11
133.045
21
-166.5
0
LINE
8
BLACK
6
CONTINUOUS
10
133.045
20
-166.5
11
133.14
21
-166.023
0
LINE
8
BLACK
6
CONTINUOUS
10
133.14
20
-166.023
11
133.14
21
-165.642
0
LINE
8
BLACK
6
CONTINUOUS
10
133.14
20
-165.642
11
133.045
21
-165.166
0
LINE
8
BLACK
6
CONTINUOUS
10
133.045
20
-165.166
11
132.95
21
-164.88
0
LINE
8
BLACK
6
CONTINUOUS
10
132.95
20
-164.88
11
132.855
21
-164.69
0
LINE
8
BLACK
6
CONTINUOUS
10
132.855
20
-164.69
11
132.664
21
-164.404
0
LINE
8
BLACK
6
CONTINUOUS
10
132.664
20
-164.404
11
132.569
21
-164.309
  0
ENDSEC
  0
EOF
