%TF.GenerationSoftware,KiCad,Pcbnew,6.0.10-86aedd382b~118~ubuntu20.04.1*%
%TF.CreationDate,2023-01-16T10:09:38+01:00*%
%TF.ProjectId,Adaptateur-USB-Xbee-2,41646170-7461-4746-9575-722d5553422d,rev?*%
%TF.SameCoordinates,Original*%
%TF.FileFunction,Other,User*%
%FSLAX46Y46*%
G04 Gerber Fmt 4.6, Leading zero omitted, Abs format (unit mm)*
G04 Created by KiCad (PCBNEW 6.0.10-86aedd382b~118~ubuntu20.04.1) date 2023-01-16 10:09:38*
%MOMM*%
%LPD*%
G01*
G04 APERTURE LIST*
%ADD10C,0.050000*%
%ADD11C,0.120000*%
G04 APERTURE END LIST*
D10*
%TO.C,R4*%
X94765000Y-90430000D02*
X97005000Y-90430000D01*
X97005000Y-94990000D02*
X94765000Y-94990000D01*
X97005000Y-90430000D02*
X97005000Y-94990000D01*
X94765000Y-94990000D02*
X94765000Y-90430000D01*
D11*
%TO.C,U3B1*%
X130395000Y-117000000D02*
X123895000Y-124600000D01*
X102795000Y-100200000D02*
X102795000Y-124600000D01*
X130395000Y-107800000D02*
X130395000Y-117000000D01*
X102795000Y-124600000D02*
X123895000Y-124600000D01*
X102795000Y-100200000D02*
X123895000Y-100200000D01*
X130395000Y-107800000D02*
X123895000Y-100200000D01*
D10*
%TO.C,R6*%
X93085000Y-103990000D02*
X88525000Y-103990000D01*
X93085000Y-101750000D02*
X93085000Y-103990000D01*
X88525000Y-103990000D02*
X88525000Y-101750000D01*
X88525000Y-101750000D02*
X93085000Y-101750000D01*
%TO.C,SW2*%
X137300000Y-86300000D02*
X146700000Y-86300000D01*
X146700000Y-86300000D02*
X146700000Y-97700000D01*
X137300000Y-97700000D02*
X137300000Y-86300000D01*
X146700000Y-97700000D02*
X137300000Y-97700000D01*
%TO.C,C6*%
X90860000Y-119905000D02*
X94560000Y-119905000D01*
X94560000Y-127745000D02*
X90860000Y-127745000D01*
X94560000Y-119905000D02*
X94560000Y-127745000D01*
X90860000Y-127745000D02*
X90860000Y-119905000D01*
%TO.C,C1*%
X113545000Y-89140000D02*
X113545000Y-93740000D01*
X113545000Y-93740000D02*
X111245000Y-93740000D01*
X111245000Y-89140000D02*
X113545000Y-89140000D01*
X111245000Y-93740000D02*
X111245000Y-89140000D01*
%TO.C,D2*%
X88575000Y-135500000D02*
X88575000Y-130500000D01*
X80425000Y-135500000D02*
X88575000Y-135500000D01*
X80425000Y-130500000D02*
X80425000Y-135500000D01*
X88575000Y-130500000D02*
X80425000Y-130500000D01*
%TO.C,D1*%
X148725000Y-110225000D02*
X148725000Y-103775000D01*
X148725000Y-103775000D02*
X137275000Y-103775000D01*
X137275000Y-103775000D02*
X137275000Y-110225000D01*
X137275000Y-110225000D02*
X148725000Y-110225000D01*
%TO.C,C7*%
X141365000Y-100845000D02*
X136765000Y-100845000D01*
X136765000Y-98545000D02*
X141365000Y-98545000D01*
X136765000Y-100845000D02*
X136765000Y-98545000D01*
X141365000Y-98545000D02*
X141365000Y-100845000D01*
%TO.C,AE1*%
X120125000Y-136445000D02*
X129325000Y-136445000D01*
X120125000Y-139145000D02*
X120125000Y-136445000D01*
X129325000Y-139145000D02*
X120125000Y-139145000D01*
X129325000Y-136445000D02*
X129325000Y-139145000D01*
%TO.C,C3*%
X102630000Y-117990000D02*
X98030000Y-117990000D01*
X98030000Y-115690000D02*
X102630000Y-115690000D01*
X102630000Y-115690000D02*
X102630000Y-117990000D01*
X98030000Y-117990000D02*
X98030000Y-115690000D01*
%TO.C,L1*%
X121765000Y-125515000D02*
X121765000Y-127215000D01*
X118265000Y-125515000D02*
X121765000Y-125515000D01*
X121765000Y-127215000D02*
X118265000Y-127215000D01*
X118265000Y-127215000D02*
X118265000Y-125515000D01*
%TO.C,R1*%
X141345000Y-101115000D02*
X141345000Y-103355000D01*
X136785000Y-101115000D02*
X141345000Y-101115000D01*
X136785000Y-103355000D02*
X136785000Y-101115000D01*
X141345000Y-103355000D02*
X136785000Y-103355000D01*
%TO.C,U2*%
X92285000Y-139020000D02*
X99485000Y-139020000D01*
X92285000Y-130220000D02*
X92285000Y-139020000D01*
X99485000Y-130220000D02*
X92285000Y-130220000D01*
X99485000Y-139020000D02*
X99485000Y-130220000D01*
%TO.C,J2*%
X92607500Y-107035000D02*
X92607500Y-117585000D01*
X92607500Y-107035000D02*
X84427500Y-107035000D01*
X92607500Y-117585000D02*
X84427500Y-117585000D01*
X84427500Y-107035000D02*
X84427500Y-117585000D01*
%TO.C,SW1*%
X92912500Y-96775000D02*
X85662500Y-96775000D01*
X85662500Y-87225000D02*
X92912500Y-87225000D01*
X92912500Y-87225000D02*
X92912500Y-96775000D01*
X85662500Y-96775000D02*
X85662500Y-87225000D01*
%TO.C,C5*%
X90750000Y-127745000D02*
X87050000Y-127745000D01*
X87050000Y-127745000D02*
X87050000Y-119905000D01*
X90750000Y-119905000D02*
X90750000Y-127745000D01*
X87050000Y-119905000D02*
X90750000Y-119905000D01*
%TO.C,J1*%
X133840000Y-136400000D02*
X133840000Y-127600000D01*
X155000000Y-127600000D02*
X155000000Y-136400000D01*
X133840000Y-136400000D02*
X155000000Y-136400000D01*
X155000000Y-127600000D02*
X133840000Y-127600000D01*
%TO.C,FB1*%
X98050000Y-111450000D02*
X102610000Y-111450000D01*
X98050000Y-114610000D02*
X98050000Y-111450000D01*
X102610000Y-114610000D02*
X98050000Y-114610000D01*
X102610000Y-111450000D02*
X102610000Y-114610000D01*
%TO.C,U4*%
X131935000Y-89105000D02*
X131935000Y-92505000D01*
X136035000Y-89105000D02*
X131935000Y-89105000D01*
X136035000Y-92505000D02*
X136035000Y-89105000D01*
X131935000Y-92505000D02*
X136035000Y-92505000D01*
%TO.C,R5*%
X93085000Y-101450000D02*
X88525000Y-101450000D01*
X88525000Y-99210000D02*
X93085000Y-99210000D01*
X88525000Y-101450000D02*
X88525000Y-99210000D01*
X93085000Y-99210000D02*
X93085000Y-101450000D01*
%TO.C,R2*%
X86620000Y-136675000D02*
X91180000Y-136675000D01*
X86620000Y-138915000D02*
X86620000Y-136675000D01*
X91180000Y-138915000D02*
X86620000Y-138915000D01*
X91180000Y-136675000D02*
X91180000Y-138915000D01*
%TO.C,C2*%
X94735000Y-116600000D02*
X94735000Y-112000000D01*
X97035000Y-116600000D02*
X94735000Y-116600000D01*
X97035000Y-112000000D02*
X97035000Y-116600000D01*
X94735000Y-112000000D02*
X97035000Y-112000000D01*
%TO.C,U1*%
X123395000Y-94890000D02*
X114095000Y-94890000D01*
X114095000Y-87990000D02*
X114095000Y-94890000D01*
X123395000Y-87990000D02*
X114095000Y-87990000D01*
X123395000Y-87990000D02*
X123395000Y-94890000D01*
%TO.C,C4*%
X97075000Y-106935000D02*
X102315000Y-106935000D01*
X102315000Y-106935000D02*
X102315000Y-110235000D01*
X97075000Y-110235000D02*
X97075000Y-106935000D01*
X102315000Y-110235000D02*
X97075000Y-110235000D01*
D11*
%TO.C,U3A1*%
X126304000Y-119113600D02*
X126304000Y-105550000D01*
X107000000Y-119113600D02*
X126304000Y-119113600D01*
X126304000Y-105550000D02*
X107000000Y-105550000D01*
X107000000Y-105550000D02*
X107000000Y-119113600D01*
D10*
%TO.C,D3*%
X137275000Y-121225000D02*
X148725000Y-121225000D01*
X148725000Y-121225000D02*
X148725000Y-114775000D01*
X137275000Y-114775000D02*
X137275000Y-121225000D01*
X148725000Y-114775000D02*
X137275000Y-114775000D01*
%TO.C,R3*%
X141345000Y-111910000D02*
X141345000Y-114150000D01*
X136785000Y-114150000D02*
X136785000Y-111910000D01*
X141345000Y-114150000D02*
X136785000Y-114150000D01*
X136785000Y-111910000D02*
X141345000Y-111910000D01*
%TO.C,L2*%
X119595000Y-127790000D02*
X119595000Y-131290000D01*
X119595000Y-131290000D02*
X117895000Y-131290000D01*
X117895000Y-127790000D02*
X119595000Y-127790000D01*
X117895000Y-131290000D02*
X117895000Y-127790000D01*
%TO.C,C8*%
X120305000Y-127840000D02*
X122265000Y-127840000D01*
X122265000Y-131240000D02*
X120305000Y-131240000D01*
X122265000Y-127840000D02*
X122265000Y-131240000D01*
X120305000Y-131240000D02*
X120305000Y-127840000D01*
%TD*%
M02*
