M48
; DRILL file {KiCad 6.0.10-86aedd382b~118~ubuntu20.04.1} date mar. 17 janv. 2023 12:36:00
; FORMAT={-:-/ absolute / metric / decimal}
; #@! TF.CreationDate,2023-01-17T12:36:00+01:00
; #@! TF.GenerationSoftware,Kicad,Pcbnew,6.0.10-86aedd382b~118~ubuntu20.04.1
; #@! TF.FileFunction,MixedPlating,1,2
FMAT,2
METRIC
; #@! TA.AperFunction,Plated,PTH,ViaDrill
T1C0.400
; #@! TA.AperFunction,Plated,PTH,ViaDrill
T2C0.600
; #@! TA.AperFunction,Plated,PTH,ComponentDrill
T3C0.600
; #@! TA.AperFunction,Plated,PTH,ComponentDrill
T4C0.700
; #@! TA.AperFunction,Plated,PTH,ComponentDrill
T5C0.900
; #@! TA.AperFunction,Plated,PTH,ComponentDrill
T6C0.990
; #@! TA.AperFunction,Plated,PTH,ComponentDrill
T7C1.300
; #@! TA.AperFunction,Plated,PTH,ComponentDrill
T8C1.500
; #@! TA.AperFunction,Plated,PTH,ViaDrill
T9C3.200
; #@! TA.AperFunction,NonPlated,NPTH,ComponentDrill
T10C0.650
%
G90
G05
T1
X88.9Y-123.825
X89.535Y-105.41
X89.535Y-110.49
X89.535Y-114.3
X90.17Y-112.395
X90.805Y-100.33
X92.71Y-123.825
X93.98Y-95.21
X93.98Y-106.68
X93.98Y-111.125
X95.885Y-114.3
X97.79Y-120.65
X100.33Y-103.505
X102.87Y-97.155
X104.14Y-92.71
X104.14Y-120.015
X104.775Y-106.045
X104.775Y-110.49
X104.775Y-115.57
X105.041Y-119.114
X105.41Y-92.799
X108.585Y-117.475
X109.855Y-93.98
X111.242Y-107.432
X117.348Y-124.968
X117.348Y-126.492
X117.348Y-128.016
X117.348Y-129.54
X117.348Y-131.064
X117.475Y-90.805
X117.475Y-92.075
X117.475Y-97.954
X118.618Y-132.08
X118.872Y-124.968
X119.38Y-133.096
X120.65Y-86.995
X120.65Y-91.44
X120.65Y-114.935
X120.65Y-124.968
X121.92Y-133.096
X122.174Y-124.968
X122.428Y-127.508
X122.494Y-107.376
X122.555Y-117.475
X122.682Y-120.904
X122.682Y-121.92
X122.936Y-129.032
X123.19Y-130.556
X123.444Y-124.968
X124.206Y-127.254
X124.46Y-130.81
X124.46Y-133.096
X125.222Y-120.904
X125.984Y-122.174
X126.238Y-123.952
X126.238Y-130.81
X126.238Y-133.096
X128.27Y-130.81
X128.27Y-133.096
X130.302Y-130.81
X130.302Y-133.096
X132.08Y-130.81
X132.08Y-133.096
X133.858Y-130.81
X133.858Y-133.096
X134.62Y-93.15
X135.89Y-104.14
X136.525Y-97.155
T2
X86.8Y-107.985
X86.84Y-116.635
X87.237Y-107.985
X87.25Y-116.635
X87.63Y-107.985
X87.635Y-116.635
X90.87Y-107.985
X90.87Y-116.625
X91.44Y-107.985
X91.44Y-116.625
X91.96Y-107.985
X91.965Y-116.625
T4
X104.795Y-101.4
X104.795Y-123.4
X106.795Y-101.4
X106.795Y-123.4
X108.795Y-101.4
X108.795Y-123.4
X110.795Y-101.4
X110.795Y-123.4
X112.795Y-101.4
X112.795Y-123.4
X114.795Y-101.4
X114.795Y-123.4
X116.795Y-101.4
X116.795Y-123.4
X118.795Y-101.4
X118.795Y-123.4
X120.795Y-101.4
X120.795Y-123.4
X122.795Y-101.4
X122.795Y-123.4
T5
X87.325Y-131.75
X87.325Y-134.29
X138.525Y-105.735
X138.525Y-108.275
X138.525Y-116.735
X138.525Y-119.275
X140.0Y-90.0
X140.0Y-92.0
X140.0Y-94.0
T6
X88.462Y-89.775
X88.462Y-94.275
T7
X90.953Y-88.515
X90.953Y-95.525
T8
X135.46Y-129.46
X135.46Y-134.54
X138.0Y-132.0
X140.0Y-87.9
X140.0Y-96.1
X140.54Y-129.46
X140.54Y-134.54
T9
X99.75Y-98.3
X99.75Y-126.3
X127.75Y-98.3
X127.75Y-126.3
T10
X90.927Y-109.415
X90.927Y-115.195
T3
G00X87.638Y-107.985
M15
G01X86.837Y-107.985
M16
G05
G00X87.638Y-116.635
M15
G01X86.837Y-116.635
M16
G05
G00X91.968Y-107.985
M15
G01X90.867Y-107.985
M16
G05
G00X91.968Y-116.625
M15
G01X90.867Y-116.625
M16
G05
T0
M30
