  0
SECTION
  2
HEADER
  9
$ANGBASE
  50
0.0
  9
$ANGDIR
  70
1
  9
$MEASUREMENT
  70
0
  0
ENDSEC
  0
SECTION
  2
TABLES
  0
TABLE
  2
LTYPE
  70
4
  0
LTYPE
  5
40F
  2
CONTINUOUS
  70
0
  3
Solid line
  72
65
  73
0
  40
0.0
  0
LTYPE
  5
410
  2
DASHDOT
 70
0
  3
Dash Dot ____ _ ____ _
 72
65
 73
4
 40
2.0
 49
1.25
 49
-0.25
 49
0.25
 49
-0.25
  0
LTYPE
  5
411
  2
DASHED
 70
0
  3
Dashed __ __ __ __ __
 72
65
 73
2
 40
0.75
 49
0.5
 49
-0.25
  0
LTYPE
  5
43B
  2
DOTTED
 70
0
  3
Dotted .  .  .  .
 72
65
 73
2
 40
0.2
 49
0.0
 49
-0.2
  0
ENDTAB
  0
TABLE
  2
STYLE
  70
4
  0
STYLE
  2
KICAD
  70
0
  40
0
  41
1
  42
1
  50
0
  71
0
  3
isocp.shx
  0
STYLE
  2
KICADB
  70
0
  40
0
  41
1
  42
1
  50
0
  71
0
  3
isocp.shx
  0
STYLE
  2
KICADI
  70
0
  40
0
  41
1
  42
1
  50
15
  71
0
  3
isocp.shx
  0
STYLE
  2
KICADBI
  70
0
  40
0
  41
1
  42
1
  50
15
  71
0
  3
isocp.shx
  0
ENDTAB
  0
TABLE
  2
LAYER
  70
1
  0
LAYER
  2
BLACK
  70
0
  62
7
  6
CONTINUOUS
  0
ENDTAB
  0
ENDSEC
  0
SECTION
  2
ENTITIES
0
LINE
8
BLACK
6
CONTINUOUS
10
5.61024
20
-3.30709
11
4.3189
21
-3.30709
0
LINE
8
BLACK
6
CONTINUOUS
10
3.34646
20
-3.30709
11
3.34646
21
-5.53543
0
ARC
8
BLACK
10
4.18701
20
-3.4324
40
0.13197
50
-178
51
-2.00001
0
LINE
8
BLACK
6
CONTINUOUS
10
4.3189
20
-3.30709
11
4.3189
21
-3.43701
0
LINE
8
BLACK
6
CONTINUOUS
10
4.3189
20
-5.53543
11
5.61024
21
-5.53543
0
ARC
8
BLACK
10
4.18701
20
-5.40618
40
0.13197
50
2.00001
51
178
0
LINE
8
BLACK
6
CONTINUOUS
10
4.05512
20
-5.53543
11
4.05512
21
-5.40157
0
LINE
8
BLACK
6
CONTINUOUS
10
5.61024
20
-5.53543
11
5.61024
21
-3.30709
0
LINE
8
BLACK
6
CONTINUOUS
10
4.05512
20
-3.43701
11
4.05512
21
-3.30709
0
LINE
8
BLACK
6
CONTINUOUS
10
4.3189
20
-5.40157
11
4.3189
21
-5.53543
0
LINE
8
BLACK
6
CONTINUOUS
10
4.05512
20
-3.30709
11
3.34646
21
-3.30709
0
LINE
8
BLACK
6
CONTINUOUS
10
3.34646
20
-5.53543
11
4.05512
21
-5.53543
0
LINE
8
BLACK
6
CONTINUOUS
10
3.56703
20
-4.29488
11
3.59262
21
-4.32047
0
LINE
8
BLACK
6
CONTINUOUS
10
3.59262
20
-4.29488
11
3.56703
21
-4.32047
0
LINE
8
BLACK
6
CONTINUOUS
10
3.56703
20
-4.52244
11
3.59262
21
-4.54803
0
LINE
8
BLACK
6
CONTINUOUS
10
3.59262
20
-4.52244
11
3.56703
21
-4.54803
0
LINE
8
BLACK
6
CONTINUOUS
10
3.44198
20
-5.66357
11
3.44198
21
-5.58483
0
LINE
8
BLACK
6
CONTINUOUS
10
3.44198
20
-5.58483
11
3.46072
21
-5.58483
0
LINE
8
BLACK
6
CONTINUOUS
10
3.46072
20
-5.58483
11
3.47197
21
-5.58858
0
LINE
8
BLACK
6
CONTINUOUS
10
3.47197
20
-5.58858
11
3.47947
21
-5.59608
0
LINE
8
BLACK
6
CONTINUOUS
10
3.47947
20
-5.59608
11
3.48322
21
-5.60358
0
LINE
8
BLACK
6
CONTINUOUS
10
3.48322
20
-5.60358
11
3.48697
21
-5.61858
0
LINE
8
BLACK
6
CONTINUOUS
10
3.48697
20
-5.61858
11
3.48697
21
-5.62983
0
LINE
8
BLACK
6
CONTINUOUS
10
3.48697
20
-5.62983
11
3.48322
21
-5.64483
0
LINE
8
BLACK
6
CONTINUOUS
10
3.48322
20
-5.64483
11
3.47947
21
-5.65232
0
LINE
8
BLACK
6
CONTINUOUS
10
3.47947
20
-5.65232
11
3.47197
21
-5.65982
0
LINE
8
BLACK
6
CONTINUOUS
10
3.47197
20
-5.65982
11
3.46072
21
-5.66357
0
LINE
8
BLACK
6
CONTINUOUS
10
3.46072
20
-5.66357
11
3.44198
21
-5.66357
0
LINE
8
BLACK
6
CONTINUOUS
10
3.52072
20
-5.66357
11
3.52072
21
-5.61108
0
LINE
8
BLACK
6
CONTINUOUS
10
3.52072
20
-5.62608
11
3.52447
21
-5.61858
0
LINE
8
BLACK
6
CONTINUOUS
10
3.52447
20
-5.61858
11
3.52822
21
-5.61483
0
LINE
8
BLACK
6
CONTINUOUS
10
3.52822
20
-5.61483
11
3.53571
21
-5.61108
0
LINE
8
BLACK
6
CONTINUOUS
10
3.53571
20
-5.61108
11
3.54321
21
-5.61108
0
LINE
8
BLACK
6
CONTINUOUS
10
3.56946
20
-5.66357
11
3.56946
21
-5.61108
0
LINE
8
BLACK
6
CONTINUOUS
10
3.56946
20
-5.58483
11
3.56571
21
-5.58858
0
LINE
8
BLACK
6
CONTINUOUS
10
3.56571
20
-5.58858
11
3.56946
21
-5.59233
0
LINE
8
BLACK
6
CONTINUOUS
10
3.56946
20
-5.59233
11
3.57321
21
-5.58858
0
LINE
8
BLACK
6
CONTINUOUS
10
3.57321
20
-5.58858
11
3.56946
21
-5.58483
0
LINE
8
BLACK
6
CONTINUOUS
10
3.56946
20
-5.58483
11
3.56946
21
-5.59233
0
LINE
8
BLACK
6
CONTINUOUS
10
3.6182
20
-5.66357
11
3.6107
21
-5.65982
0
LINE
8
BLACK
6
CONTINUOUS
10
3.6107
20
-5.65982
11
3.60696
21
-5.65232
0
LINE
8
BLACK
6
CONTINUOUS
10
3.60696
20
-5.65232
11
3.60696
21
-5.58483
0
LINE
8
BLACK
6
CONTINUOUS
10
3.65945
20
-5.66357
11
3.65195
21
-5.65982
0
LINE
8
BLACK
6
CONTINUOUS
10
3.65195
20
-5.65982
11
3.6482
21
-5.65232
0
LINE
8
BLACK
6
CONTINUOUS
10
3.6482
20
-5.65232
11
3.6482
21
-5.58483
0
LINE
8
BLACK
6
CONTINUOUS
10
3.74944
20
-5.66357
11
3.74944
21
-5.58483
0
LINE
8
BLACK
6
CONTINUOUS
10
3.74944
20
-5.58483
11
3.77568
21
-5.64108
0
LINE
8
BLACK
6
CONTINUOUS
10
3.77568
20
-5.64108
11
3.80193
21
-5.58483
0
LINE
8
BLACK
6
CONTINUOUS
10
3.80193
20
-5.58483
11
3.80193
21
-5.66357
0
LINE
8
BLACK
6
CONTINUOUS
10
3.87317
20
-5.66357
11
3.87317
21
-5.62233
0
LINE
8
BLACK
6
CONTINUOUS
10
3.87317
20
-5.62233
11
3.86942
21
-5.61483
0
LINE
8
BLACK
6
CONTINUOUS
10
3.86942
20
-5.61483
11
3.86192
21
-5.61108
0
LINE
8
BLACK
6
CONTINUOUS
10
3.86192
20
-5.61108
11
3.84693
21
-5.61108
0
LINE
8
BLACK
6
CONTINUOUS
10
3.84693
20
-5.61108
11
3.83943
21
-5.61483
0
LINE
8
BLACK
6
CONTINUOUS
10
3.87317
20
-5.65982
11
3.86567
21
-5.66357
0
LINE
8
BLACK
6
CONTINUOUS
10
3.86567
20
-5.66357
11
3.84693
21
-5.66357
0
LINE
8
BLACK
6
CONTINUOUS
10
3.84693
20
-5.66357
11
3.83943
21
-5.65982
0
LINE
8
BLACK
6
CONTINUOUS
10
3.83943
20
-5.65982
11
3.83568
21
-5.65232
0
LINE
8
BLACK
6
CONTINUOUS
10
3.83568
20
-5.65232
11
3.83568
21
-5.64483
0
LINE
8
BLACK
6
CONTINUOUS
10
3.83568
20
-5.64483
11
3.83943
21
-5.63733
0
LINE
8
BLACK
6
CONTINUOUS
10
3.83943
20
-5.63733
11
3.84693
21
-5.63358
0
LINE
8
BLACK
6
CONTINUOUS
10
3.84693
20
-5.63358
11
3.86567
21
-5.63358
0
LINE
8
BLACK
6
CONTINUOUS
10
3.86567
20
-5.63358
11
3.87317
21
-5.62983
0
LINE
8
BLACK
6
CONTINUOUS
10
3.91067
20
-5.61108
11
3.91067
21
-5.68982
0
LINE
8
BLACK
6
CONTINUOUS
10
3.91067
20
-5.61483
11
3.91817
21
-5.61108
0
LINE
8
BLACK
6
CONTINUOUS
10
3.91817
20
-5.61108
11
3.93316
21
-5.61108
0
LINE
8
BLACK
6
CONTINUOUS
10
3.93316
20
-5.61108
11
3.94066
21
-5.61483
0
LINE
8
BLACK
6
CONTINUOUS
10
3.94066
20
-5.61483
11
3.94441
21
-5.61858
0
LINE
8
BLACK
6
CONTINUOUS
10
3.94441
20
-5.61858
11
3.94816
21
-5.62608
0
LINE
8
BLACK
6
CONTINUOUS
10
3.94816
20
-5.62608
11
3.94816
21
-5.64858
0
LINE
8
BLACK
6
CONTINUOUS
10
3.94816
20
-5.64858
11
3.94441
21
-5.65607
0
LINE
8
BLACK
6
CONTINUOUS
10
3.94441
20
-5.65607
11
3.94066
21
-5.65982
0
LINE
8
BLACK
6
CONTINUOUS
10
3.94066
20
-5.65982
11
3.93316
21
-5.66357
0
LINE
8
BLACK
6
CONTINUOUS
10
3.93316
20
-5.66357
11
3.91817
21
-5.66357
0
LINE
8
BLACK
6
CONTINUOUS
10
3.91817
20
-5.66357
11
3.91067
21
-5.65982
0
LINE
8
BLACK
6
CONTINUOUS
10
3.98191
20
-5.65607
11
3.98566
21
-5.65982
0
LINE
8
BLACK
6
CONTINUOUS
10
3.98566
20
-5.65982
11
3.98191
21
-5.66357
0
LINE
8
BLACK
6
CONTINUOUS
10
3.98191
20
-5.66357
11
3.97816
21
-5.65982
0
LINE
8
BLACK
6
CONTINUOUS
10
3.97816
20
-5.65982
11
3.98191
21
-5.65607
0
LINE
8
BLACK
6
CONTINUOUS
10
3.98191
20
-5.65607
11
3.98191
21
-5.66357
0
LINE
8
BLACK
6
CONTINUOUS
10
3.98191
20
-5.61483
11
3.98566
21
-5.61858
0
LINE
8
BLACK
6
CONTINUOUS
10
3.98566
20
-5.61858
11
3.98191
21
-5.62233
0
LINE
8
BLACK
6
CONTINUOUS
10
3.98191
20
-5.62233
11
3.97816
21
-5.61858
0
LINE
8
BLACK
6
CONTINUOUS
10
3.97816
20
-5.61858
11
3.98191
21
-5.61483
0
LINE
8
BLACK
6
CONTINUOUS
10
3.98191
20
-5.61483
11
3.98191
21
-5.62233
0
LINE
8
BLACK
6
CONTINUOUS
10
3.31496
20
-5.78051
11
3.34055
21
-5.8061
0
LINE
8
BLACK
6
CONTINUOUS
10
3.34055
20
-5.78051
11
3.31496
21
-5.8061
0
LINE
8
BLACK
6
CONTINUOUS
10
3.45697
20
-5.75019
11
3.46447
21
-5.75019
0
LINE
8
BLACK
6
CONTINUOUS
10
3.46447
20
-5.75019
11
3.47197
21
-5.75394
0
LINE
8
BLACK
6
CONTINUOUS
10
3.47197
20
-5.75394
11
3.47572
21
-5.75769
0
LINE
8
BLACK
6
CONTINUOUS
10
3.47572
20
-5.75769
11
3.47947
21
-5.76519
0
LINE
8
BLACK
6
CONTINUOUS
10
3.47947
20
-5.76519
11
3.48322
21
-5.78018
0
LINE
8
BLACK
6
CONTINUOUS
10
3.48322
20
-5.78018
11
3.48322
21
-5.79893
0
LINE
8
BLACK
6
CONTINUOUS
10
3.48322
20
-5.79893
11
3.47947
21
-5.81393
0
LINE
8
BLACK
6
CONTINUOUS
10
3.47947
20
-5.81393
11
3.47572
21
-5.82143
0
LINE
8
BLACK
6
CONTINUOUS
10
3.47572
20
-5.82143
11
3.47197
21
-5.82518
0
LINE
8
BLACK
6
CONTINUOUS
10
3.47197
20
-5.82518
11
3.46447
21
-5.82893
0
LINE
8
BLACK
6
CONTINUOUS
10
3.46447
20
-5.82893
11
3.45697
21
-5.82893
0
LINE
8
BLACK
6
CONTINUOUS
10
3.45697
20
-5.82893
11
3.44948
21
-5.82518
0
LINE
8
BLACK
6
CONTINUOUS
10
3.44948
20
-5.82518
11
3.44573
21
-5.82143
0
LINE
8
BLACK
6
CONTINUOUS
10
3.44573
20
-5.82143
11
3.44198
21
-5.81393
0
LINE
8
BLACK
6
CONTINUOUS
10
3.44198
20
-5.81393
11
3.43823
21
-5.79893
0
LINE
8
BLACK
6
CONTINUOUS
10
3.43823
20
-5.79893
11
3.43823
21
-5.78018
0
LINE
8
BLACK
6
CONTINUOUS
10
3.43823
20
-5.78018
11
3.44198
21
-5.76519
0
LINE
8
BLACK
6
CONTINUOUS
10
3.44198
20
-5.76519
11
3.44573
21
-5.75769
0
LINE
8
BLACK
6
CONTINUOUS
10
3.44573
20
-5.75769
11
3.44948
21
-5.75394
0
LINE
8
BLACK
6
CONTINUOUS
10
3.44948
20
-5.75394
11
3.45697
21
-5.75019
0
LINE
8
BLACK
6
CONTINUOUS
10
3.51697
20
-5.82143
11
3.52072
21
-5.82518
0
LINE
8
BLACK
6
CONTINUOUS
10
3.52072
20
-5.82518
11
3.51697
21
-5.82893
0
LINE
8
BLACK
6
CONTINUOUS
10
3.51697
20
-5.82893
11
3.51322
21
-5.82518
0
LINE
8
BLACK
6
CONTINUOUS
10
3.51322
20
-5.82518
11
3.51697
21
-5.82143
0
LINE
8
BLACK
6
CONTINUOUS
10
3.51697
20
-5.82143
11
3.51697
21
-5.82893
0
LINE
8
BLACK
6
CONTINUOUS
10
3.58821
20
-5.75019
11
3.57321
21
-5.75019
0
LINE
8
BLACK
6
CONTINUOUS
10
3.57321
20
-5.75019
11
3.56571
21
-5.75394
0
LINE
8
BLACK
6
CONTINUOUS
10
3.56571
20
-5.75394
11
3.56196
21
-5.75769
0
LINE
8
BLACK
6
CONTINUOUS
10
3.56196
20
-5.75769
11
3.55446
21
-5.76894
0
LINE
8
BLACK
6
CONTINUOUS
10
3.55446
20
-5.76894
11
3.55071
21
-5.78393
0
LINE
8
BLACK
6
CONTINUOUS
10
3.55071
20
-5.78393
11
3.55071
21
-5.81393
0
LINE
8
BLACK
6
CONTINUOUS
10
3.55071
20
-5.81393
11
3.55446
21
-5.82143
0
LINE
8
BLACK
6
CONTINUOUS
10
3.55446
20
-5.82143
11
3.55821
21
-5.82518
0
LINE
8
BLACK
6
CONTINUOUS
10
3.55821
20
-5.82518
11
3.56571
21
-5.82893
0
LINE
8
BLACK
6
CONTINUOUS
10
3.56571
20
-5.82893
11
3.58071
21
-5.82893
0
LINE
8
BLACK
6
CONTINUOUS
10
3.58071
20
-5.82893
11
3.58821
21
-5.82518
0
LINE
8
BLACK
6
CONTINUOUS
10
3.58821
20
-5.82518
11
3.59196
21
-5.82143
0
LINE
8
BLACK
6
CONTINUOUS
10
3.59196
20
-5.82143
11
3.59571
21
-5.81393
0
LINE
8
BLACK
6
CONTINUOUS
10
3.59571
20
-5.81393
11
3.59571
21
-5.79518
0
LINE
8
BLACK
6
CONTINUOUS
10
3.59571
20
-5.79518
11
3.59196
21
-5.78768
0
LINE
8
BLACK
6
CONTINUOUS
10
3.59196
20
-5.78768
11
3.58821
21
-5.78393
0
LINE
8
BLACK
6
CONTINUOUS
10
3.58821
20
-5.78393
11
3.58071
21
-5.78018
0
LINE
8
BLACK
6
CONTINUOUS
10
3.58071
20
-5.78018
11
3.56571
21
-5.78018
0
LINE
8
BLACK
6
CONTINUOUS
10
3.56571
20
-5.78018
11
3.55821
21
-5.78393
0
LINE
8
BLACK
6
CONTINUOUS
10
3.55821
20
-5.78393
11
3.55446
21
-5.78768
0
LINE
8
BLACK
6
CONTINUOUS
10
3.55446
20
-5.78768
11
3.55071
21
-5.79518
0
LINE
8
BLACK
6
CONTINUOUS
10
3.66695
20
-5.75019
11
3.62945
21
-5.75019
0
LINE
8
BLACK
6
CONTINUOUS
10
3.62945
20
-5.75019
11
3.6257
21
-5.78768
0
LINE
8
BLACK
6
CONTINUOUS
10
3.6257
20
-5.78768
11
3.62945
21
-5.78393
0
LINE
8
BLACK
6
CONTINUOUS
10
3.62945
20
-5.78393
11
3.63695
21
-5.78018
0
LINE
8
BLACK
6
CONTINUOUS
10
3.63695
20
-5.78018
11
3.6557
21
-5.78018
0
LINE
8
BLACK
6
CONTINUOUS
10
3.6557
20
-5.78018
11
3.6632
21
-5.78393
0
LINE
8
BLACK
6
CONTINUOUS
10
3.6632
20
-5.78393
11
3.66695
21
-5.78768
0
LINE
8
BLACK
6
CONTINUOUS
10
3.66695
20
-5.78768
11
3.6707
21
-5.79518
0
LINE
8
BLACK
6
CONTINUOUS
10
3.6707
20
-5.79518
11
3.6707
21
-5.81393
0
LINE
8
BLACK
6
CONTINUOUS
10
3.6707
20
-5.81393
11
3.66695
21
-5.82143
0
LINE
8
BLACK
6
CONTINUOUS
10
3.66695
20
-5.82143
11
3.6632
21
-5.82518
0
LINE
8
BLACK
6
CONTINUOUS
10
3.6632
20
-5.82518
11
3.6557
21
-5.82893
0
LINE
8
BLACK
6
CONTINUOUS
10
3.6557
20
-5.82893
11
3.63695
21
-5.82893
0
LINE
8
BLACK
6
CONTINUOUS
10
3.63695
20
-5.82893
11
3.62945
21
-5.82518
0
LINE
8
BLACK
6
CONTINUOUS
10
3.62945
20
-5.82518
11
3.6257
21
-5.82143
0
LINE
8
BLACK
6
CONTINUOUS
10
3.71944
20
-5.75019
11
3.72694
21
-5.75019
0
LINE
8
BLACK
6
CONTINUOUS
10
3.72694
20
-5.75019
11
3.73444
21
-5.75394
0
LINE
8
BLACK
6
CONTINUOUS
10
3.73444
20
-5.75394
11
3.73819
21
-5.75769
0
LINE
8
BLACK
6
CONTINUOUS
10
3.73819
20
-5.75769
11
3.74194
21
-5.76519
0
LINE
8
BLACK
6
CONTINUOUS
10
3.74194
20
-5.76519
11
3.74569
21
-5.78018
0
LINE
8
BLACK
6
CONTINUOUS
10
3.74569
20
-5.78018
11
3.74569
21
-5.79893
0
LINE
8
BLACK
6
CONTINUOUS
10
3.74569
20
-5.79893
11
3.74194
21
-5.81393
0
LINE
8
BLACK
6
CONTINUOUS
10
3.74194
20
-5.81393
11
3.73819
21
-5.82143
0
LINE
8
BLACK
6
CONTINUOUS
10
3.73819
20
-5.82143
11
3.73444
21
-5.82518
0
LINE
8
BLACK
6
CONTINUOUS
10
3.73444
20
-5.82518
11
3.72694
21
-5.82893
0
LINE
8
BLACK
6
CONTINUOUS
10
3.72694
20
-5.82893
11
3.71944
21
-5.82893
0
LINE
8
BLACK
6
CONTINUOUS
10
3.71944
20
-5.82893
11
3.71194
21
-5.82518
0
LINE
8
BLACK
6
CONTINUOUS
10
3.71194
20
-5.82518
11
3.70819
21
-5.82143
0
LINE
8
BLACK
6
CONTINUOUS
10
3.70819
20
-5.82143
11
3.70444
21
-5.81393
0
LINE
8
BLACK
6
CONTINUOUS
10
3.70444
20
-5.81393
11
3.70069
21
-5.79893
0
LINE
8
BLACK
6
CONTINUOUS
10
3.70069
20
-5.79893
11
3.70069
21
-5.78018
0
LINE
8
BLACK
6
CONTINUOUS
10
3.70069
20
-5.78018
11
3.70444
21
-5.76519
0
LINE
8
BLACK
6
CONTINUOUS
10
3.70444
20
-5.76519
11
3.70819
21
-5.75769
0
LINE
8
BLACK
6
CONTINUOUS
10
3.70819
20
-5.75769
11
3.71194
21
-5.75394
0
LINE
8
BLACK
6
CONTINUOUS
10
3.71194
20
-5.75394
11
3.71944
21
-5.75019
0
LINE
8
BLACK
6
CONTINUOUS
10
3.77943
20
-5.82893
11
3.77943
21
-5.77643
0
LINE
8
BLACK
6
CONTINUOUS
10
3.77943
20
-5.78393
11
3.78318
21
-5.78018
0
LINE
8
BLACK
6
CONTINUOUS
10
3.78318
20
-5.78018
11
3.79068
21
-5.77643
0
LINE
8
BLACK
6
CONTINUOUS
10
3.79068
20
-5.77643
11
3.80193
21
-5.77643
0
LINE
8
BLACK
6
CONTINUOUS
10
3.80193
20
-5.77643
11
3.80943
21
-5.78018
0
LINE
8
BLACK
6
CONTINUOUS
10
3.80943
20
-5.78018
11
3.81318
21
-5.78768
0
LINE
8
BLACK
6
CONTINUOUS
10
3.81318
20
-5.78768
11
3.81318
21
-5.82893
0
LINE
8
BLACK
6
CONTINUOUS
10
3.81318
20
-5.78768
11
3.81693
21
-5.78018
0
LINE
8
BLACK
6
CONTINUOUS
10
3.81693
20
-5.78018
11
3.82443
21
-5.77643
0
LINE
8
BLACK
6
CONTINUOUS
10
3.82443
20
-5.77643
11
3.83568
21
-5.77643
0
LINE
8
BLACK
6
CONTINUOUS
10
3.83568
20
-5.77643
11
3.84318
21
-5.78018
0
LINE
8
BLACK
6
CONTINUOUS
10
3.84318
20
-5.78018
11
3.84693
21
-5.78768
0
LINE
8
BLACK
6
CONTINUOUS
10
3.84693
20
-5.78768
11
3.84693
21
-5.82893
0
LINE
8
BLACK
6
CONTINUOUS
10
3.88442
20
-5.82893
11
3.88442
21
-5.77643
0
LINE
8
BLACK
6
CONTINUOUS
10
3.88442
20
-5.78393
11
3.88817
21
-5.78018
0
LINE
8
BLACK
6
CONTINUOUS
10
3.88817
20
-5.78018
11
3.89567
21
-5.77643
0
LINE
8
BLACK
6
CONTINUOUS
10
3.89567
20
-5.77643
11
3.90692
21
-5.77643
0
LINE
8
BLACK
6
CONTINUOUS
10
3.90692
20
-5.77643
11
3.91442
21
-5.78018
0
LINE
8
BLACK
6
CONTINUOUS
10
3.91442
20
-5.78018
11
3.91817
21
-5.78768
0
LINE
8
BLACK
6
CONTINUOUS
10
3.91817
20
-5.78768
11
3.91817
21
-5.82893
0
LINE
8
BLACK
6
CONTINUOUS
10
3.91817
20
-5.78768
11
3.92192
21
-5.78018
0
LINE
8
BLACK
6
CONTINUOUS
10
3.92192
20
-5.78018
11
3.92942
21
-5.77643
0
LINE
8
BLACK
6
CONTINUOUS
10
3.92942
20
-5.77643
11
3.94066
21
-5.77643
0
LINE
8
BLACK
6
CONTINUOUS
10
3.94066
20
-5.77643
11
3.94816
21
-5.78018
0
LINE
8
BLACK
6
CONTINUOUS
10
3.94816
20
-5.78018
11
3.95191
21
-5.78768
0
LINE
8
BLACK
6
CONTINUOUS
10
3.95191
20
-5.78768
11
3.95191
21
-5.82893
0
LINE
8
BLACK
6
CONTINUOUS
10
4.10564
20
-5.74644
11
4.03815
21
-5.84768
0
LINE
8
BLACK
6
CONTINUOUS
10
4.20688
20
-5.75019
11
4.21438
21
-5.75019
0
LINE
8
BLACK
6
CONTINUOUS
10
4.21438
20
-5.75019
11
4.22188
21
-5.75394
0
LINE
8
BLACK
6
CONTINUOUS
10
4.22188
20
-5.75394
11
4.22563
21
-5.75769
0
LINE
8
BLACK
6
CONTINUOUS
10
4.22563
20
-5.75769
11
4.22938
21
-5.76519
0
LINE
8
BLACK
6
CONTINUOUS
10
4.22938
20
-5.76519
11
4.23313
21
-5.78018
0
LINE
8
BLACK
6
CONTINUOUS
10
4.23313
20
-5.78018
11
4.23313
21
-5.79893
0
LINE
8
BLACK
6
CONTINUOUS
10
4.23313
20
-5.79893
11
4.22938
21
-5.81393
0
LINE
8
BLACK
6
CONTINUOUS
10
4.22938
20
-5.81393
11
4.22563
21
-5.82143
0
LINE
8
BLACK
6
CONTINUOUS
10
4.22563
20
-5.82143
11
4.22188
21
-5.82518
0
LINE
8
BLACK
6
CONTINUOUS
10
4.22188
20
-5.82518
11
4.21438
21
-5.82893
0
LINE
8
BLACK
6
CONTINUOUS
10
4.21438
20
-5.82893
11
4.20688
21
-5.82893
0
LINE
8
BLACK
6
CONTINUOUS
10
4.20688
20
-5.82893
11
4.19938
21
-5.82518
0
LINE
8
BLACK
6
CONTINUOUS
10
4.19938
20
-5.82518
11
4.19563
21
-5.82143
0
LINE
8
BLACK
6
CONTINUOUS
10
4.19563
20
-5.82143
11
4.19188
21
-5.81393
0
LINE
8
BLACK
6
CONTINUOUS
10
4.19188
20
-5.81393
11
4.18813
21
-5.79893
0
LINE
8
BLACK
6
CONTINUOUS
10
4.18813
20
-5.79893
11
4.18813
21
-5.78018
0
LINE
8
BLACK
6
CONTINUOUS
10
4.18813
20
-5.78018
11
4.19188
21
-5.76519
0
LINE
8
BLACK
6
CONTINUOUS
10
4.19188
20
-5.76519
11
4.19563
21
-5.75769
0
LINE
8
BLACK
6
CONTINUOUS
10
4.19563
20
-5.75769
11
4.19938
21
-5.75394
0
LINE
8
BLACK
6
CONTINUOUS
10
4.19938
20
-5.75394
11
4.20688
21
-5.75019
0
LINE
8
BLACK
6
CONTINUOUS
10
4.26687
20
-5.82143
11
4.27062
21
-5.82518
0
LINE
8
BLACK
6
CONTINUOUS
10
4.27062
20
-5.82518
11
4.26687
21
-5.82893
0
LINE
8
BLACK
6
CONTINUOUS
10
4.26687
20
-5.82893
11
4.26312
21
-5.82518
0
LINE
8
BLACK
6
CONTINUOUS
10
4.26312
20
-5.82518
11
4.26687
21
-5.82143
0
LINE
8
BLACK
6
CONTINUOUS
10
4.26687
20
-5.82143
11
4.26687
21
-5.82893
0
LINE
8
BLACK
6
CONTINUOUS
10
4.31937
20
-5.75019
11
4.32687
21
-5.75019
0
LINE
8
BLACK
6
CONTINUOUS
10
4.32687
20
-5.75019
11
4.33436
21
-5.75394
0
LINE
8
BLACK
6
CONTINUOUS
10
4.33436
20
-5.75394
11
4.33811
21
-5.75769
0
LINE
8
BLACK
6
CONTINUOUS
10
4.33811
20
-5.75769
11
4.34186
21
-5.76519
0
LINE
8
BLACK
6
CONTINUOUS
10
4.34186
20
-5.76519
11
4.34561
21
-5.78018
0
LINE
8
BLACK
6
CONTINUOUS
10
4.34561
20
-5.78018
11
4.34561
21
-5.79893
0
LINE
8
BLACK
6
CONTINUOUS
10
4.34561
20
-5.79893
11
4.34186
21
-5.81393
0
LINE
8
BLACK
6
CONTINUOUS
10
4.34186
20
-5.81393
11
4.33811
21
-5.82143
0
LINE
8
BLACK
6
CONTINUOUS
10
4.33811
20
-5.82143
11
4.33436
21
-5.82518
0
LINE
8
BLACK
6
CONTINUOUS
10
4.33436
20
-5.82518
11
4.32687
21
-5.82893
0
LINE
8
BLACK
6
CONTINUOUS
10
4.32687
20
-5.82893
11
4.31937
21
-5.82893
0
LINE
8
BLACK
6
CONTINUOUS
10
4.31937
20
-5.82893
11
4.31187
21
-5.82518
0
LINE
8
BLACK
6
CONTINUOUS
10
4.31187
20
-5.82518
11
4.30812
21
-5.82143
0
LINE
8
BLACK
6
CONTINUOUS
10
4.30812
20
-5.82143
11
4.30437
21
-5.81393
0
LINE
8
BLACK
6
CONTINUOUS
10
4.30437
20
-5.81393
11
4.30062
21
-5.79893
0
LINE
8
BLACK
6
CONTINUOUS
10
4.30062
20
-5.79893
11
4.30062
21
-5.78018
0
LINE
8
BLACK
6
CONTINUOUS
10
4.30062
20
-5.78018
11
4.30437
21
-5.76519
0
LINE
8
BLACK
6
CONTINUOUS
10
4.30437
20
-5.76519
11
4.30812
21
-5.75769
0
LINE
8
BLACK
6
CONTINUOUS
10
4.30812
20
-5.75769
11
4.31187
21
-5.75394
0
LINE
8
BLACK
6
CONTINUOUS
10
4.31187
20
-5.75394
11
4.31937
21
-5.75019
0
LINE
8
BLACK
6
CONTINUOUS
10
4.37561
20
-5.75769
11
4.37936
21
-5.75394
0
LINE
8
BLACK
6
CONTINUOUS
10
4.37936
20
-5.75394
11
4.38686
21
-5.75019
0
LINE
8
BLACK
6
CONTINUOUS
10
4.38686
20
-5.75019
11
4.40561
21
-5.75019
0
LINE
8
BLACK
6
CONTINUOUS
10
4.40561
20
-5.75019
11
4.4131
21
-5.75394
0
LINE
8
BLACK
6
CONTINUOUS
10
4.4131
20
-5.75394
11
4.41685
21
-5.75769
0
LINE
8
BLACK
6
CONTINUOUS
10
4.41685
20
-5.75769
11
4.4206
21
-5.76519
0
LINE
8
BLACK
6
CONTINUOUS
10
4.4206
20
-5.76519
11
4.4206
21
-5.77268
0
LINE
8
BLACK
6
CONTINUOUS
10
4.4206
20
-5.77268
11
4.41685
21
-5.78393
0
LINE
8
BLACK
6
CONTINUOUS
10
4.41685
20
-5.78393
11
4.37186
21
-5.82893
0
LINE
8
BLACK
6
CONTINUOUS
10
4.37186
20
-5.82893
11
4.4206
21
-5.82893
0
LINE
8
BLACK
6
CONTINUOUS
10
4.49184
20
-5.75019
11
4.45435
21
-5.75019
0
LINE
8
BLACK
6
CONTINUOUS
10
4.45435
20
-5.75019
11
4.4506
21
-5.78768
0
LINE
8
BLACK
6
CONTINUOUS
10
4.4506
20
-5.78768
11
4.45435
21
-5.78393
0
LINE
8
BLACK
6
CONTINUOUS
10
4.45435
20
-5.78393
11
4.46185
21
-5.78018
0
LINE
8
BLACK
6
CONTINUOUS
10
4.46185
20
-5.78018
11
4.4806
21
-5.78018
0
LINE
8
BLACK
6
CONTINUOUS
10
4.4806
20
-5.78018
11
4.4881
21
-5.78393
0
LINE
8
BLACK
6
CONTINUOUS
10
4.4881
20
-5.78393
11
4.49184
21
-5.78768
0
LINE
8
BLACK
6
CONTINUOUS
10
4.49184
20
-5.78768
11
4.49559
21
-5.79518
0
LINE
8
BLACK
6
CONTINUOUS
10
4.49559
20
-5.79518
11
4.49559
21
-5.81393
0
LINE
8
BLACK
6
CONTINUOUS
10
4.49559
20
-5.81393
11
4.49184
21
-5.82143
0
LINE
8
BLACK
6
CONTINUOUS
10
4.49184
20
-5.82143
11
4.4881
21
-5.82518
0
LINE
8
BLACK
6
CONTINUOUS
10
4.4881
20
-5.82518
11
4.4806
21
-5.82893
0
LINE
8
BLACK
6
CONTINUOUS
10
4.4806
20
-5.82893
11
4.46185
21
-5.82893
0
LINE
8
BLACK
6
CONTINUOUS
10
4.46185
20
-5.82893
11
4.45435
21
-5.82518
0
LINE
8
BLACK
6
CONTINUOUS
10
4.45435
20
-5.82518
11
4.4506
21
-5.82143
0
LINE
8
BLACK
6
CONTINUOUS
10
4.56309
20
-5.75019
11
4.54809
21
-5.75019
0
LINE
8
BLACK
6
CONTINUOUS
10
4.54809
20
-5.75019
11
4.54059
21
-5.75394
0
LINE
8
BLACK
6
CONTINUOUS
10
4.54059
20
-5.75394
11
4.53684
21
-5.75769
0
LINE
8
BLACK
6
CONTINUOUS
10
4.53684
20
-5.75769
11
4.52934
21
-5.76894
0
LINE
8
BLACK
6
CONTINUOUS
10
4.52934
20
-5.76894
11
4.52559
21
-5.78393
0
LINE
8
BLACK
6
CONTINUOUS
10
4.52559
20
-5.78393
11
4.52559
21
-5.81393
0
LINE
8
BLACK
6
CONTINUOUS
10
4.52559
20
-5.81393
11
4.52934
21
-5.82143
0
LINE
8
BLACK
6
CONTINUOUS
10
4.52934
20
-5.82143
11
4.53309
21
-5.82518
0
LINE
8
BLACK
6
CONTINUOUS
10
4.53309
20
-5.82518
11
4.54059
21
-5.82893
0
LINE
8
BLACK
6
CONTINUOUS
10
4.54059
20
-5.82893
11
4.55559
21
-5.82893
0
LINE
8
BLACK
6
CONTINUOUS
10
4.55559
20
-5.82893
11
4.56309
21
-5.82518
0
LINE
8
BLACK
6
CONTINUOUS
10
4.56309
20
-5.82518
11
4.56684
21
-5.82143
0
LINE
8
BLACK
6
CONTINUOUS
10
4.56684
20
-5.82143
11
4.57058
21
-5.81393
0
LINE
8
BLACK
6
CONTINUOUS
10
4.57058
20
-5.81393
11
4.57058
21
-5.79518
0
LINE
8
BLACK
6
CONTINUOUS
10
4.57058
20
-5.79518
11
4.56684
21
-5.78768
0
LINE
8
BLACK
6
CONTINUOUS
10
4.56684
20
-5.78768
11
4.56309
21
-5.78393
0
LINE
8
BLACK
6
CONTINUOUS
10
4.56309
20
-5.78393
11
4.55559
21
-5.78018
0
LINE
8
BLACK
6
CONTINUOUS
10
4.55559
20
-5.78018
11
4.54059
21
-5.78018
0
LINE
8
BLACK
6
CONTINUOUS
10
4.54059
20
-5.78018
11
4.53309
21
-5.78393
0
LINE
8
BLACK
6
CONTINUOUS
10
4.53309
20
-5.78393
11
4.52934
21
-5.78768
0
LINE
8
BLACK
6
CONTINUOUS
10
4.52934
20
-5.78768
11
4.52559
21
-5.79518
0
LINE
8
BLACK
6
CONTINUOUS
10
4.60058
20
-5.75019
11
4.60058
21
-5.76519
0
LINE
8
BLACK
6
CONTINUOUS
10
4.63058
20
-5.75019
11
4.63058
21
-5.76519
0
LINE
8
BLACK
6
CONTINUOUS
10
4.74681
20
-5.85892
11
4.74306
21
-5.85517
0
LINE
8
BLACK
6
CONTINUOUS
10
4.74306
20
-5.85517
11
4.73556
21
-5.84393
0
LINE
8
BLACK
6
CONTINUOUS
10
4.73556
20
-5.84393
11
4.73181
21
-5.83643
0
LINE
8
BLACK
6
CONTINUOUS
10
4.73181
20
-5.83643
11
4.72807
21
-5.82518
0
LINE
8
BLACK
6
CONTINUOUS
10
4.72807
20
-5.82518
11
4.72432
21
-5.80643
0
LINE
8
BLACK
6
CONTINUOUS
10
4.72432
20
-5.80643
11
4.72432
21
-5.79143
0
LINE
8
BLACK
6
CONTINUOUS
10
4.72432
20
-5.79143
11
4.72807
21
-5.77268
0
LINE
8
BLACK
6
CONTINUOUS
10
4.72807
20
-5.77268
11
4.73181
21
-5.76144
0
LINE
8
BLACK
6
CONTINUOUS
10
4.73181
20
-5.76144
11
4.73556
21
-5.75394
0
LINE
8
BLACK
6
CONTINUOUS
10
4.73556
20
-5.75394
11
4.74306
21
-5.74269
0
LINE
8
BLACK
6
CONTINUOUS
10
4.74306
20
-5.74269
11
4.74681
21
-5.73894
0
LINE
8
BLACK
6
CONTINUOUS
10
4.77306
20
-5.75769
11
4.77681
21
-5.75394
0
LINE
8
BLACK
6
CONTINUOUS
10
4.77681
20
-5.75394
11
4.78431
21
-5.75019
0
LINE
8
BLACK
6
CONTINUOUS
10
4.78431
20
-5.75019
11
4.80306
21
-5.75019
0
LINE
8
BLACK
6
CONTINUOUS
10
4.80306
20
-5.75019
11
4.81055
21
-5.75394
0
LINE
8
BLACK
6
CONTINUOUS
10
4.81055
20
-5.75394
11
4.8143
21
-5.75769
0
LINE
8
BLACK
6
CONTINUOUS
10
4.8143
20
-5.75769
11
4.81805
21
-5.76519
0
LINE
8
BLACK
6
CONTINUOUS
10
4.81805
20
-5.76519
11
4.81805
21
-5.77268
0
LINE
8
BLACK
6
CONTINUOUS
10
4.81805
20
-5.77268
11
4.8143
21
-5.78393
0
LINE
8
BLACK
6
CONTINUOUS
10
4.8143
20
-5.78393
11
4.76931
21
-5.82893
0
LINE
8
BLACK
6
CONTINUOUS
10
4.76931
20
-5.82893
11
4.81805
21
-5.82893
0
LINE
8
BLACK
6
CONTINUOUS
10
4.91179
20
-5.82893
11
4.91179
21
-5.75019
0
LINE
8
BLACK
6
CONTINUOUS
10
4.94554
20
-5.82893
11
4.94554
21
-5.78768
0
LINE
8
BLACK
6
CONTINUOUS
10
4.94554
20
-5.78768
11
4.94179
21
-5.78018
0
LINE
8
BLACK
6
CONTINUOUS
10
4.94179
20
-5.78018
11
4.93429
21
-5.77643
0
LINE
8
BLACK
6
CONTINUOUS
10
4.93429
20
-5.77643
11
4.92304
21
-5.77643
0
LINE
8
BLACK
6
CONTINUOUS
10
4.92304
20
-5.77643
11
4.91554
21
-5.78018
0
LINE
8
BLACK
6
CONTINUOUS
10
4.91554
20
-5.78018
11
4.91179
21
-5.78393
0
LINE
8
BLACK
6
CONTINUOUS
10
4.99428
20
-5.82893
11
4.98678
21
-5.82518
0
LINE
8
BLACK
6
CONTINUOUS
10
4.98678
20
-5.82518
11
4.98303
21
-5.82143
0
LINE
8
BLACK
6
CONTINUOUS
10
4.98303
20
-5.82143
11
4.97928
21
-5.81393
0
LINE
8
BLACK
6
CONTINUOUS
10
4.97928
20
-5.81393
11
4.97928
21
-5.79143
0
LINE
8
BLACK
6
CONTINUOUS
10
4.97928
20
-5.79143
11
4.98303
21
-5.78393
0
LINE
8
BLACK
6
CONTINUOUS
10
4.98303
20
-5.78393
11
4.98678
21
-5.78018
0
LINE
8
BLACK
6
CONTINUOUS
10
4.98678
20
-5.78018
11
4.99428
21
-5.77643
0
LINE
8
BLACK
6
CONTINUOUS
10
4.99428
20
-5.77643
11
5.00553
21
-5.77643
0
LINE
8
BLACK
6
CONTINUOUS
10
5.00553
20
-5.77643
11
5.01303
21
-5.78018
0
LINE
8
BLACK
6
CONTINUOUS
10
5.01303
20
-5.78018
11
5.01678
21
-5.78393
0
LINE
8
BLACK
6
CONTINUOUS
10
5.01678
20
-5.78393
11
5.02053
21
-5.79143
0
LINE
8
BLACK
6
CONTINUOUS
10
5.02053
20
-5.79143
11
5.02053
21
-5.81393
0
LINE
8
BLACK
6
CONTINUOUS
10
5.02053
20
-5.81393
11
5.01678
21
-5.82143
0
LINE
8
BLACK
6
CONTINUOUS
10
5.01678
20
-5.82143
11
5.01303
21
-5.82518
0
LINE
8
BLACK
6
CONTINUOUS
10
5.01303
20
-5.82518
11
5.00553
21
-5.82893
0
LINE
8
BLACK
6
CONTINUOUS
10
5.00553
20
-5.82893
11
4.99428
21
-5.82893
0
LINE
8
BLACK
6
CONTINUOUS
10
5.06552
20
-5.82893
11
5.05802
21
-5.82518
0
LINE
8
BLACK
6
CONTINUOUS
10
5.05802
20
-5.82518
11
5.05427
21
-5.81768
0
LINE
8
BLACK
6
CONTINUOUS
10
5.05427
20
-5.81768
11
5.05427
21
-5.75019
0
LINE
8
BLACK
6
CONTINUOUS
10
5.12552
20
-5.82518
11
5.11802
21
-5.82893
0
LINE
8
BLACK
6
CONTINUOUS
10
5.11802
20
-5.82893
11
5.10302
21
-5.82893
0
LINE
8
BLACK
6
CONTINUOUS
10
5.10302
20
-5.82893
11
5.09552
21
-5.82518
0
LINE
8
BLACK
6
CONTINUOUS
10
5.09552
20
-5.82518
11
5.09177
21
-5.81768
0
LINE
8
BLACK
6
CONTINUOUS
10
5.09177
20
-5.81768
11
5.09177
21
-5.78768
0
LINE
8
BLACK
6
CONTINUOUS
10
5.09177
20
-5.78768
11
5.09552
21
-5.78018
0
LINE
8
BLACK
6
CONTINUOUS
10
5.09552
20
-5.78018
11
5.10302
21
-5.77643
0
LINE
8
BLACK
6
CONTINUOUS
10
5.10302
20
-5.77643
11
5.11802
21
-5.77643
0
LINE
8
BLACK
6
CONTINUOUS
10
5.11802
20
-5.77643
11
5.12552
21
-5.78018
0
LINE
8
BLACK
6
CONTINUOUS
10
5.12552
20
-5.78018
11
5.12927
21
-5.78768
0
LINE
8
BLACK
6
CONTINUOUS
10
5.12927
20
-5.78768
11
5.12927
21
-5.79518
0
LINE
8
BLACK
6
CONTINUOUS
10
5.12927
20
-5.79518
11
5.09177
21
-5.80268
0
LINE
8
BLACK
6
CONTINUOUS
10
5.15926
20
-5.82518
11
5.16676
21
-5.82893
0
LINE
8
BLACK
6
CONTINUOUS
10
5.16676
20
-5.82893
11
5.18176
21
-5.82893
0
LINE
8
BLACK
6
CONTINUOUS
10
5.18176
20
-5.82893
11
5.18926
21
-5.82518
0
LINE
8
BLACK
6
CONTINUOUS
10
5.18926
20
-5.82518
11
5.19301
21
-5.81768
0
LINE
8
BLACK
6
CONTINUOUS
10
5.19301
20
-5.81768
11
5.19301
21
-5.81393
0
LINE
8
BLACK
6
CONTINUOUS
10
5.19301
20
-5.81393
11
5.18926
21
-5.80643
0
LINE
8
BLACK
6
CONTINUOUS
10
5.18926
20
-5.80643
11
5.18176
21
-5.80268
0
LINE
8
BLACK
6
CONTINUOUS
10
5.18176
20
-5.80268
11
5.17051
21
-5.80268
0
LINE
8
BLACK
6
CONTINUOUS
10
5.17051
20
-5.80268
11
5.16301
21
-5.79893
0
LINE
8
BLACK
6
CONTINUOUS
10
5.16301
20
-5.79893
11
5.15926
21
-5.79143
0
LINE
8
BLACK
6
CONTINUOUS
10
5.15926
20
-5.79143
11
5.15926
21
-5.78768
0
LINE
8
BLACK
6
CONTINUOUS
10
5.15926
20
-5.78768
11
5.16301
21
-5.78018
0
LINE
8
BLACK
6
CONTINUOUS
10
5.16301
20
-5.78018
11
5.17051
21
-5.77643
0
LINE
8
BLACK
6
CONTINUOUS
10
5.17051
20
-5.77643
11
5.18176
21
-5.77643
0
LINE
8
BLACK
6
CONTINUOUS
10
5.18176
20
-5.77643
11
5.18926
21
-5.78018
0
LINE
8
BLACK
6
CONTINUOUS
10
5.21925
20
-5.85892
11
5.223
21
-5.85517
0
LINE
8
BLACK
6
CONTINUOUS
10
5.223
20
-5.85517
11
5.2305
21
-5.84393
0
LINE
8
BLACK
6
CONTINUOUS
10
5.2305
20
-5.84393
11
5.23425
21
-5.83643
0
LINE
8
BLACK
6
CONTINUOUS
10
5.23425
20
-5.83643
11
5.238
21
-5.82518
0
LINE
8
BLACK
6
CONTINUOUS
10
5.238
20
-5.82518
11
5.24175
21
-5.80643
0
LINE
8
BLACK
6
CONTINUOUS
10
5.24175
20
-5.80643
11
5.24175
21
-5.79143
0
LINE
8
BLACK
6
CONTINUOUS
10
5.24175
20
-5.79143
11
5.238
21
-5.77268
0
LINE
8
BLACK
6
CONTINUOUS
10
5.238
20
-5.77268
11
5.23425
21
-5.76144
0
LINE
8
BLACK
6
CONTINUOUS
10
5.23425
20
-5.76144
11
5.2305
21
-5.75394
0
LINE
8
BLACK
6
CONTINUOUS
10
5.2305
20
-5.75394
11
5.223
21
-5.74269
0
LINE
8
BLACK
6
CONTINUOUS
10
5.223
20
-5.74269
11
5.21925
21
-5.73894
0
LINE
8
BLACK
6
CONTINUOUS
10
5.36174
20
-5.85892
11
5.35799
21
-5.85517
0
LINE
8
BLACK
6
CONTINUOUS
10
5.35799
20
-5.85517
11
5.35049
21
-5.84393
0
LINE
8
BLACK
6
CONTINUOUS
10
5.35049
20
-5.84393
11
5.34674
21
-5.83643
0
LINE
8
BLACK
6
CONTINUOUS
10
5.34674
20
-5.83643
11
5.34299
21
-5.82518
0
LINE
8
BLACK
6
CONTINUOUS
10
5.34299
20
-5.82518
11
5.33924
21
-5.80643
0
LINE
8
BLACK
6
CONTINUOUS
10
5.33924
20
-5.80643
11
5.33924
21
-5.79143
0
LINE
8
BLACK
6
CONTINUOUS
10
5.33924
20
-5.79143
11
5.34299
21
-5.77268
0
LINE
8
BLACK
6
CONTINUOUS
10
5.34299
20
-5.77268
11
5.34674
21
-5.76144
0
LINE
8
BLACK
6
CONTINUOUS
10
5.34674
20
-5.76144
11
5.35049
21
-5.75394
0
LINE
8
BLACK
6
CONTINUOUS
10
5.35049
20
-5.75394
11
5.35799
21
-5.74269
0
LINE
8
BLACK
6
CONTINUOUS
10
5.35799
20
-5.74269
11
5.36174
21
-5.73894
0
LINE
8
BLACK
6
CONTINUOUS
10
5.39173
20
-5.77643
11
5.39173
21
-5.82893
0
LINE
8
BLACK
6
CONTINUOUS
10
5.39173
20
-5.78393
11
5.39548
21
-5.78018
0
LINE
8
BLACK
6
CONTINUOUS
10
5.39548
20
-5.78018
11
5.40298
21
-5.77643
0
LINE
8
BLACK
6
CONTINUOUS
10
5.40298
20
-5.77643
11
5.41423
21
-5.77643
0
LINE
8
BLACK
6
CONTINUOUS
10
5.41423
20
-5.77643
11
5.42173
21
-5.78018
0
LINE
8
BLACK
6
CONTINUOUS
10
5.42173
20
-5.78018
11
5.42548
21
-5.78768
0
LINE
8
BLACK
6
CONTINUOUS
10
5.42548
20
-5.78768
11
5.42548
21
-5.82893
0
LINE
8
BLACK
6
CONTINUOUS
10
5.47422
20
-5.82893
11
5.46672
21
-5.82518
0
LINE
8
BLACK
6
CONTINUOUS
10
5.46672
20
-5.82518
11
5.46297
21
-5.82143
0
LINE
8
BLACK
6
CONTINUOUS
10
5.46297
20
-5.82143
11
5.45922
21
-5.81393
0
LINE
8
BLACK
6
CONTINUOUS
10
5.45922
20
-5.81393
11
5.45922
21
-5.79143
0
LINE
8
BLACK
6
CONTINUOUS
10
5.45922
20
-5.79143
11
5.46297
21
-5.78393
0
LINE
8
BLACK
6
CONTINUOUS
10
5.46297
20
-5.78393
11
5.46672
21
-5.78018
0
LINE
8
BLACK
6
CONTINUOUS
10
5.46672
20
-5.78018
11
5.47422
21
-5.77643
0
LINE
8
BLACK
6
CONTINUOUS
10
5.47422
20
-5.77643
11
5.48547
21
-5.77643
0
LINE
8
BLACK
6
CONTINUOUS
10
5.48547
20
-5.77643
11
5.49297
21
-5.78018
0
LINE
8
BLACK
6
CONTINUOUS
10
5.49297
20
-5.78018
11
5.49672
21
-5.78393
0
LINE
8
BLACK
6
CONTINUOUS
10
5.49672
20
-5.78393
11
5.50047
21
-5.79143
0
LINE
8
BLACK
6
CONTINUOUS
10
5.50047
20
-5.79143
11
5.50047
21
-5.81393
0
LINE
8
BLACK
6
CONTINUOUS
10
5.50047
20
-5.81393
11
5.49672
21
-5.82143
0
LINE
8
BLACK
6
CONTINUOUS
10
5.49672
20
-5.82143
11
5.49297
21
-5.82518
0
LINE
8
BLACK
6
CONTINUOUS
10
5.49297
20
-5.82518
11
5.48547
21
-5.82893
0
LINE
8
BLACK
6
CONTINUOUS
10
5.48547
20
-5.82893
11
5.47422
21
-5.82893
0
LINE
8
BLACK
6
CONTINUOUS
10
5.52297
20
-5.77643
11
5.55296
21
-5.77643
0
LINE
8
BLACK
6
CONTINUOUS
10
5.53421
20
-5.75019
11
5.53421
21
-5.81768
0
LINE
8
BLACK
6
CONTINUOUS
10
5.53421
20
-5.81768
11
5.53796
21
-5.82518
0
LINE
8
BLACK
6
CONTINUOUS
10
5.53796
20
-5.82518
11
5.54546
21
-5.82893
0
LINE
8
BLACK
6
CONTINUOUS
10
5.54546
20
-5.82893
11
5.55296
21
-5.82893
0
LINE
8
BLACK
6
CONTINUOUS
10
5.6392
20
-5.77643
11
5.6392
21
-5.85517
0
LINE
8
BLACK
6
CONTINUOUS
10
5.6392
20
-5.78018
11
5.6467
21
-5.77643
0
LINE
8
BLACK
6
CONTINUOUS
10
5.6467
20
-5.77643
11
5.6617
21
-5.77643
0
LINE
8
BLACK
6
CONTINUOUS
10
5.6617
20
-5.77643
11
5.6692
21
-5.78018
0
LINE
8
BLACK
6
CONTINUOUS
10
5.6692
20
-5.78018
11
5.67295
21
-5.78393
0
LINE
8
BLACK
6
CONTINUOUS
10
5.67295
20
-5.78393
11
5.6767
21
-5.79143
0
LINE
8
BLACK
6
CONTINUOUS
10
5.6767
20
-5.79143
11
5.6767
21
-5.81393
0
LINE
8
BLACK
6
CONTINUOUS
10
5.6767
20
-5.81393
11
5.67295
21
-5.82143
0
LINE
8
BLACK
6
CONTINUOUS
10
5.67295
20
-5.82143
11
5.6692
21
-5.82518
0
LINE
8
BLACK
6
CONTINUOUS
10
5.6692
20
-5.82518
11
5.6617
21
-5.82893
0
LINE
8
BLACK
6
CONTINUOUS
10
5.6617
20
-5.82893
11
5.6467
21
-5.82893
0
LINE
8
BLACK
6
CONTINUOUS
10
5.6467
20
-5.82893
11
5.6392
21
-5.82518
0
LINE
8
BLACK
6
CONTINUOUS
10
5.72169
20
-5.82893
11
5.71419
21
-5.82518
0
LINE
8
BLACK
6
CONTINUOUS
10
5.71419
20
-5.82518
11
5.71044
21
-5.81768
0
LINE
8
BLACK
6
CONTINUOUS
10
5.71044
20
-5.81768
11
5.71044
21
-5.75019
0
LINE
8
BLACK
6
CONTINUOUS
10
5.78543
20
-5.82893
11
5.78543
21
-5.78768
0
LINE
8
BLACK
6
CONTINUOUS
10
5.78543
20
-5.78768
11
5.78168
21
-5.78018
0
LINE
8
BLACK
6
CONTINUOUS
10
5.78168
20
-5.78018
11
5.77418
21
-5.77643
0
LINE
8
BLACK
6
CONTINUOUS
10
5.77418
20
-5.77643
11
5.75919
21
-5.77643
0
LINE
8
BLACK
6
CONTINUOUS
10
5.75919
20
-5.77643
11
5.75169
21
-5.78018
0
LINE
8
BLACK
6
CONTINUOUS
10
5.78543
20
-5.82518
11
5.77793
21
-5.82893
0
LINE
8
BLACK
6
CONTINUOUS
10
5.77793
20
-5.82893
11
5.75919
21
-5.82893
0
LINE
8
BLACK
6
CONTINUOUS
10
5.75919
20
-5.82893
11
5.75169
21
-5.82518
0
LINE
8
BLACK
6
CONTINUOUS
10
5.75169
20
-5.82518
11
5.74794
21
-5.81768
0
LINE
8
BLACK
6
CONTINUOUS
10
5.74794
20
-5.81768
11
5.74794
21
-5.81018
0
LINE
8
BLACK
6
CONTINUOUS
10
5.74794
20
-5.81018
11
5.75169
21
-5.80268
0
LINE
8
BLACK
6
CONTINUOUS
10
5.75169
20
-5.80268
11
5.75919
21
-5.79893
0
LINE
8
BLACK
6
CONTINUOUS
10
5.75919
20
-5.79893
11
5.77793
21
-5.79893
0
LINE
8
BLACK
6
CONTINUOUS
10
5.77793
20
-5.79893
11
5.78543
21
-5.79518
0
LINE
8
BLACK
6
CONTINUOUS
10
5.81168
20
-5.77643
11
5.84168
21
-5.77643
0
LINE
8
BLACK
6
CONTINUOUS
10
5.82293
20
-5.75019
11
5.82293
21
-5.81768
0
LINE
8
BLACK
6
CONTINUOUS
10
5.82293
20
-5.81768
11
5.82668
21
-5.82518
0
LINE
8
BLACK
6
CONTINUOUS
10
5.82668
20
-5.82518
11
5.83418
21
-5.82893
0
LINE
8
BLACK
6
CONTINUOUS
10
5.83418
20
-5.82893
11
5.84168
21
-5.82893
0
LINE
8
BLACK
6
CONTINUOUS
10
5.89792
20
-5.82518
11
5.89042
21
-5.82893
0
LINE
8
BLACK
6
CONTINUOUS
10
5.89042
20
-5.82893
11
5.87542
21
-5.82893
0
LINE
8
BLACK
6
CONTINUOUS
10
5.87542
20
-5.82893
11
5.86792
21
-5.82518
0
LINE
8
BLACK
6
CONTINUOUS
10
5.86792
20
-5.82518
11
5.86417
21
-5.81768
0
LINE
8
BLACK
6
CONTINUOUS
10
5.86417
20
-5.81768
11
5.86417
21
-5.78768
0
LINE
8
BLACK
6
CONTINUOUS
10
5.86417
20
-5.78768
11
5.86792
21
-5.78018
0
LINE
8
BLACK
6
CONTINUOUS
10
5.86792
20
-5.78018
11
5.87542
21
-5.77643
0
LINE
8
BLACK
6
CONTINUOUS
10
5.87542
20
-5.77643
11
5.89042
21
-5.77643
0
LINE
8
BLACK
6
CONTINUOUS
10
5.89042
20
-5.77643
11
5.89792
21
-5.78018
0
LINE
8
BLACK
6
CONTINUOUS
10
5.89792
20
-5.78018
11
5.90167
21
-5.78768
0
LINE
8
BLACK
6
CONTINUOUS
10
5.90167
20
-5.78768
11
5.90167
21
-5.79518
0
LINE
8
BLACK
6
CONTINUOUS
10
5.90167
20
-5.79518
11
5.86417
21
-5.80268
0
LINE
8
BLACK
6
CONTINUOUS
10
5.96916
20
-5.82893
11
5.96916
21
-5.75019
0
LINE
8
BLACK
6
CONTINUOUS
10
5.96916
20
-5.82518
11
5.96166
21
-5.82893
0
LINE
8
BLACK
6
CONTINUOUS
10
5.96166
20
-5.82893
11
5.94666
21
-5.82893
0
LINE
8
BLACK
6
CONTINUOUS
10
5.94666
20
-5.82893
11
5.93916
21
-5.82518
0
LINE
8
BLACK
6
CONTINUOUS
10
5.93916
20
-5.82518
11
5.93541
21
-5.82143
0
LINE
8
BLACK
6
CONTINUOUS
10
5.93541
20
-5.82143
11
5.93166
21
-5.81393
0
LINE
8
BLACK
6
CONTINUOUS
10
5.93166
20
-5.81393
11
5.93166
21
-5.79143
0
LINE
8
BLACK
6
CONTINUOUS
10
5.93166
20
-5.79143
11
5.93541
21
-5.78393
0
LINE
8
BLACK
6
CONTINUOUS
10
5.93541
20
-5.78393
11
5.93916
21
-5.78018
0
LINE
8
BLACK
6
CONTINUOUS
10
5.93916
20
-5.78018
11
5.94666
21
-5.77643
0
LINE
8
BLACK
6
CONTINUOUS
10
5.94666
20
-5.77643
11
5.96166
21
-5.77643
0
LINE
8
BLACK
6
CONTINUOUS
10
5.96166
20
-5.77643
11
5.96916
21
-5.78018
0
LINE
8
BLACK
6
CONTINUOUS
10
5.99916
20
-5.85892
11
6.00291
21
-5.85517
0
LINE
8
BLACK
6
CONTINUOUS
10
6.00291
20
-5.85517
11
6.0104
21
-5.84393
0
LINE
8
BLACK
6
CONTINUOUS
10
6.0104
20
-5.84393
11
6.01415
21
-5.83643
0
LINE
8
BLACK
6
CONTINUOUS
10
6.01415
20
-5.83643
11
6.0179
21
-5.82518
0
LINE
8
BLACK
6
CONTINUOUS
10
6.0179
20
-5.82518
11
6.02165
21
-5.80643
0
LINE
8
BLACK
6
CONTINUOUS
10
6.02165
20
-5.80643
11
6.02165
21
-5.79143
0
LINE
8
BLACK
6
CONTINUOUS
10
6.02165
20
-5.79143
11
6.0179
21
-5.77268
0
LINE
8
BLACK
6
CONTINUOUS
10
6.0179
20
-5.77268
11
6.01415
21
-5.76144
0
LINE
8
BLACK
6
CONTINUOUS
10
6.01415
20
-5.76144
11
6.0104
21
-5.75394
0
LINE
8
BLACK
6
CONTINUOUS
10
6.0104
20
-5.75394
11
6.00291
21
-5.74269
0
LINE
8
BLACK
6
CONTINUOUS
10
6.00291
20
-5.74269
11
5.99916
21
-5.73894
  0
ENDSEC
  0
EOF
