%TF.GenerationSoftware,KiCad,Pcbnew,6.0.9-8da3e8f707~117~ubuntu20.04.1*%
%TF.CreationDate,2022-12-12T12:45:44+01:00*%
%TF.ProjectId,Adaptateur-USB-Xbee-2,41646170-7461-4746-9575-722d5553422d,rev?*%
%TF.SameCoordinates,Original*%
%TF.FileFunction,Drillmap*%
%TF.FilePolarity,Positive*%
%FSLAX45Y45*%
G04 Gerber Fmt 4.5, Leading zero omitted, Abs format (unit mm)*
G04 Created by KiCad (PCBNEW 6.0.9-8da3e8f707~117~ubuntu20.04.1) date 2022-12-12 12:45:44*
%MOMM*%
%LPD*%
G01*
G04 APERTURE LIST*
%ADD10C,0.300000*%
%ADD11C,0.200000*%
%ADD12C,0.020000*%
%ADD13C,0.030000*%
%ADD14C,0.040000*%
%ADD15C,0.060000*%
%ADD16C,0.070000*%
%ADD17C,0.090000*%
%ADD18C,0.099000*%
%ADD19C,0.130000*%
%ADD20C,0.150000*%
%ADD21C,0.320000*%
G04 APERTURE END LIST*
D10*
X14250000Y-8400000D02*
X10970000Y-8400000D01*
X8500000Y-8400000D02*
X8500000Y-14060000D01*
X10300000Y-8730000D02*
G75*
G03*
X10970000Y-8730000I335000J11699D01*
G01*
X10970000Y-8400000D02*
X10970000Y-8730000D01*
X10970000Y-14060000D02*
X14250000Y-14060000D01*
X10970000Y-13720000D02*
G75*
G03*
X10300000Y-13720000I-335000J-11699D01*
G01*
X10300000Y-14060000D02*
X10300000Y-13720000D01*
X14250000Y-14060000D02*
X14250000Y-8400000D01*
X10300000Y-8730000D02*
X10300000Y-8400000D01*
X10970000Y-13720000D02*
X10970000Y-14060000D01*
X10300000Y-8400000D02*
X8500000Y-8400000D01*
X8500000Y-14060000D02*
X10300000Y-14060000D01*
D11*
D12*
X11699400Y-13096400D02*
X11719400Y-13116400D01*
X11719400Y-13096400D02*
X11699400Y-13116400D01*
X11724800Y-12486800D02*
X11744800Y-12506800D01*
X11744800Y-12486800D02*
X11724800Y-12506800D01*
X11724800Y-12639200D02*
X11744800Y-12659200D01*
X11744800Y-12639200D02*
X11724800Y-12659200D01*
X11724800Y-12791600D02*
X11744800Y-12811600D01*
X11744800Y-12791600D02*
X11724800Y-12811600D01*
X11724800Y-12944000D02*
X11744800Y-12964000D01*
X11744800Y-12944000D02*
X11724800Y-12964000D01*
X11851800Y-13198000D02*
X11871800Y-13218000D01*
X11871800Y-13198000D02*
X11851800Y-13218000D01*
X11877200Y-12486800D02*
X11897200Y-12506800D01*
X11897200Y-12486800D02*
X11877200Y-12506800D01*
X11928000Y-13299600D02*
X11948000Y-13319600D01*
X11948000Y-13299600D02*
X11928000Y-13319600D01*
X12055000Y-12486800D02*
X12075000Y-12506800D01*
X12075000Y-12486800D02*
X12055000Y-12506800D01*
X12182000Y-13299600D02*
X12202000Y-13319600D01*
X12202000Y-13299600D02*
X12182000Y-13319600D01*
X12207400Y-12486800D02*
X12227400Y-12506800D01*
X12227400Y-12486800D02*
X12207400Y-12506800D01*
X12232800Y-12740800D02*
X12252800Y-12760800D01*
X12252800Y-12740800D02*
X12232800Y-12760800D01*
X12258200Y-12080400D02*
X12278200Y-12100400D01*
X12278200Y-12080400D02*
X12258200Y-12100400D01*
X12258200Y-12182000D02*
X12278200Y-12202000D01*
X12278200Y-12182000D02*
X12258200Y-12202000D01*
X12283600Y-12893200D02*
X12303600Y-12913200D01*
X12303600Y-12893200D02*
X12283600Y-12913200D01*
X12309000Y-13045600D02*
X12329000Y-13065600D01*
X12329000Y-13045600D02*
X12309000Y-13065600D01*
X12334400Y-12486800D02*
X12354400Y-12506800D01*
X12354400Y-12486800D02*
X12334400Y-12506800D01*
X12410600Y-12715400D02*
X12430600Y-12735400D01*
X12430600Y-12715400D02*
X12410600Y-12735400D01*
X12436000Y-13071000D02*
X12456000Y-13091000D01*
X12456000Y-13071000D02*
X12436000Y-13091000D01*
X12436000Y-13299600D02*
X12456000Y-13319600D01*
X12456000Y-13299600D02*
X12436000Y-13319600D01*
X12512200Y-12080400D02*
X12532200Y-12100400D01*
X12532200Y-12080400D02*
X12512200Y-12100400D01*
X12588400Y-12207400D02*
X12608400Y-12227400D01*
X12608400Y-12207400D02*
X12588400Y-12227400D01*
X12613800Y-12385200D02*
X12633800Y-12405200D01*
X12633800Y-12385200D02*
X12613800Y-12405200D01*
X12613800Y-13071000D02*
X12633800Y-13091000D01*
X12633800Y-13071000D02*
X12613800Y-13091000D01*
X12613800Y-13299600D02*
X12633800Y-13319600D01*
X12633800Y-13299600D02*
X12613800Y-13319600D01*
X12817000Y-13071000D02*
X12837000Y-13091000D01*
X12837000Y-13071000D02*
X12817000Y-13091000D01*
X12817000Y-13299600D02*
X12837000Y-13319600D01*
X12837000Y-13299600D02*
X12817000Y-13319600D01*
X13020200Y-13071000D02*
X13040200Y-13091000D01*
X13040200Y-13071000D02*
X13020200Y-13091000D01*
X13020200Y-13299600D02*
X13040200Y-13319600D01*
X13040200Y-13299600D02*
X13020200Y-13319600D01*
X13198000Y-13071000D02*
X13218000Y-13091000D01*
X13218000Y-13071000D02*
X13198000Y-13091000D01*
X13198000Y-13299600D02*
X13218000Y-13319600D01*
X13218000Y-13299600D02*
X13198000Y-13319600D01*
X13375800Y-13071000D02*
X13395800Y-13091000D01*
X13395800Y-13071000D02*
X13375800Y-13091000D01*
X13375800Y-13299600D02*
X13395800Y-13319600D01*
X13395800Y-13299600D02*
X13375800Y-13319600D01*
D13*
X8968500Y-10541000D02*
G75*
G03*
X8968500Y-10541000I-15000J0D01*
G01*
X8968500Y-11049000D02*
G75*
G03*
X8968500Y-11049000I-15000J0D01*
G01*
X8968500Y-11430000D02*
G75*
G03*
X8968500Y-11430000I-15000J0D01*
G01*
X9032000Y-11239500D02*
G75*
G03*
X9032000Y-11239500I-15000J0D01*
G01*
X9095500Y-10033000D02*
G75*
G03*
X9095500Y-10033000I-15000J0D01*
G01*
X9286000Y-12382500D02*
G75*
G03*
X9286000Y-12382500I-15000J0D01*
G01*
X9413000Y-10668000D02*
G75*
G03*
X9413000Y-10668000I-15000J0D01*
G01*
X9413000Y-11112500D02*
G75*
G03*
X9413000Y-11112500I-15000J0D01*
G01*
X9794000Y-12065000D02*
G75*
G03*
X9794000Y-12065000I-15000J0D01*
G01*
X9921000Y-9521050D02*
G75*
G03*
X9921000Y-9521050I-15000J0D01*
G01*
X10429000Y-9271000D02*
G75*
G03*
X10429000Y-9271000I-15000J0D01*
G01*
X10429000Y-12061050D02*
G75*
G03*
X10429000Y-12061050I-15000J0D01*
G01*
X10492500Y-10604500D02*
G75*
G03*
X10492500Y-10604500I-15000J0D01*
G01*
X10492500Y-11049000D02*
G75*
G03*
X10492500Y-11049000I-15000J0D01*
G01*
X10492500Y-11557000D02*
G75*
G03*
X10492500Y-11557000I-15000J0D01*
G01*
X10519140Y-11911360D02*
G75*
G03*
X10519140Y-11911360I-15000J0D01*
G01*
X10556000Y-9279950D02*
G75*
G03*
X10556000Y-9279950I-15000J0D01*
G01*
X10873500Y-11747500D02*
G75*
G03*
X10873500Y-11747500I-15000J0D01*
G01*
X11000500Y-9398000D02*
G75*
G03*
X11000500Y-9398000I-15000J0D01*
G01*
X11139180Y-10743180D02*
G75*
G03*
X11139180Y-10743180I-15000J0D01*
G01*
X11762500Y-9080500D02*
G75*
G03*
X11762500Y-9080500I-15000J0D01*
G01*
X11762500Y-9207500D02*
G75*
G03*
X11762500Y-9207500I-15000J0D01*
G01*
X12080000Y-8699500D02*
G75*
G03*
X12080000Y-8699500I-15000J0D01*
G01*
X12080000Y-9144000D02*
G75*
G03*
X12080000Y-9144000I-15000J0D01*
G01*
X12080000Y-11493500D02*
G75*
G03*
X12080000Y-11493500I-15000J0D01*
G01*
X12264400Y-10737600D02*
G75*
G03*
X12264400Y-10737600I-15000J0D01*
G01*
X12270500Y-11747500D02*
G75*
G03*
X12270500Y-11747500I-15000J0D01*
G01*
X13604000Y-10414000D02*
G75*
G03*
X13604000Y-10414000I-15000J0D01*
G01*
X13667500Y-9715500D02*
G75*
G03*
X13667500Y-9715500I-15000J0D01*
G01*
D14*
X8890000Y-12362500D02*
X8890000Y-12402500D01*
X8870000Y-12382500D02*
X8910000Y-12382500D01*
X9588500Y-11410000D02*
X9588500Y-11450000D01*
X9568500Y-11430000D02*
X9608500Y-11430000D01*
X10033000Y-10330500D02*
X10033000Y-10370500D01*
X10013000Y-10350500D02*
X10053000Y-10350500D01*
X10287000Y-9695500D02*
X10287000Y-9735500D01*
X10267000Y-9715500D02*
X10307000Y-9715500D01*
X11747500Y-9775450D02*
X11747500Y-9815450D01*
X11727500Y-9795450D02*
X11767500Y-9795450D01*
X13462000Y-9295050D02*
X13462000Y-9335050D01*
X13442000Y-9315050D02*
X13482000Y-9315050D01*
D15*
X8744963Y-10819713D02*
X8744963Y-10777287D01*
X8702537Y-10777287D01*
X8702537Y-10819713D01*
X8744963Y-10819713D01*
D11*
X8763750Y-10768500D02*
X8683750Y-10768500D01*
X8763750Y-10828500D02*
X8683750Y-10828500D01*
X8683750Y-10768500D02*
G75*
G03*
X8683750Y-10828500I0J-30000D01*
G01*
X8763750Y-10828500D02*
G75*
G03*
X8763750Y-10768500I0J30000D01*
G01*
D15*
X8744963Y-11684713D02*
X8744963Y-11642287D01*
X8702537Y-11642287D01*
X8702537Y-11684713D01*
X8744963Y-11684713D01*
D11*
X8763750Y-11633500D02*
X8683750Y-11633500D01*
X8763750Y-11693500D02*
X8683750Y-11693500D01*
X8683750Y-11633500D02*
G75*
G03*
X8683750Y-11693500I0J-30000D01*
G01*
X8763750Y-11693500D02*
G75*
G03*
X8763750Y-11633500I0J30000D01*
G01*
D15*
X9162963Y-10819713D02*
X9162963Y-10777287D01*
X9120537Y-10777287D01*
X9120537Y-10819713D01*
X9162963Y-10819713D01*
D11*
X9196750Y-10768500D02*
X9086750Y-10768500D01*
X9196750Y-10828500D02*
X9086750Y-10828500D01*
X9086750Y-10768500D02*
G75*
G03*
X9086750Y-10828500I0J-30000D01*
G01*
X9196750Y-10828500D02*
G75*
G03*
X9196750Y-10768500I0J30000D01*
G01*
D15*
X9162963Y-11683713D02*
X9162963Y-11641287D01*
X9120537Y-11641287D01*
X9120537Y-11683713D01*
X9162963Y-11683713D01*
D11*
X9196750Y-11632500D02*
X9086750Y-11632500D01*
X9196750Y-11692500D02*
X9086750Y-11692500D01*
X9086750Y-11632500D02*
G75*
G03*
X9086750Y-11692500I0J-30000D01*
G01*
X9196750Y-11692500D02*
G75*
G03*
X9196750Y-11632500I0J30000D01*
G01*
D16*
X10479500Y-10175000D02*
X10514500Y-10140000D01*
X10479500Y-10105000D01*
X10444500Y-10140000D01*
X10479500Y-10175000D01*
X10479500Y-12375000D02*
X10514500Y-12340000D01*
X10479500Y-12305000D01*
X10444500Y-12340000D01*
X10479500Y-12375000D01*
X10679500Y-10175000D02*
X10714500Y-10140000D01*
X10679500Y-10105000D01*
X10644500Y-10140000D01*
X10679500Y-10175000D01*
X10679500Y-12375000D02*
X10714500Y-12340000D01*
X10679500Y-12305000D01*
X10644500Y-12340000D01*
X10679500Y-12375000D01*
X10879500Y-10175000D02*
X10914500Y-10140000D01*
X10879500Y-10105000D01*
X10844500Y-10140000D01*
X10879500Y-10175000D01*
X10879500Y-12375000D02*
X10914500Y-12340000D01*
X10879500Y-12305000D01*
X10844500Y-12340000D01*
X10879500Y-12375000D01*
X11079500Y-10175000D02*
X11114500Y-10140000D01*
X11079500Y-10105000D01*
X11044500Y-10140000D01*
X11079500Y-10175000D01*
X11079500Y-12375000D02*
X11114500Y-12340000D01*
X11079500Y-12305000D01*
X11044500Y-12340000D01*
X11079500Y-12375000D01*
X11279500Y-10175000D02*
X11314500Y-10140000D01*
X11279500Y-10105000D01*
X11244500Y-10140000D01*
X11279500Y-10175000D01*
X11279500Y-12375000D02*
X11314500Y-12340000D01*
X11279500Y-12305000D01*
X11244500Y-12340000D01*
X11279500Y-12375000D01*
X11479500Y-10175000D02*
X11514500Y-10140000D01*
X11479500Y-10105000D01*
X11444500Y-10140000D01*
X11479500Y-10175000D01*
X11479500Y-12375000D02*
X11514500Y-12340000D01*
X11479500Y-12305000D01*
X11444500Y-12340000D01*
X11479500Y-12375000D01*
X11679500Y-10175000D02*
X11714500Y-10140000D01*
X11679500Y-10105000D01*
X11644500Y-10140000D01*
X11679500Y-10175000D01*
X11679500Y-12375000D02*
X11714500Y-12340000D01*
X11679500Y-12305000D01*
X11644500Y-12340000D01*
X11679500Y-12375000D01*
X11879500Y-10175000D02*
X11914500Y-10140000D01*
X11879500Y-10105000D01*
X11844500Y-10140000D01*
X11879500Y-10175000D01*
X11879500Y-12375000D02*
X11914500Y-12340000D01*
X11879500Y-12305000D01*
X11844500Y-12340000D01*
X11879500Y-12375000D01*
X12079500Y-10175000D02*
X12114500Y-10140000D01*
X12079500Y-10105000D01*
X12044500Y-10140000D01*
X12079500Y-10175000D01*
X12079500Y-12375000D02*
X12114500Y-12340000D01*
X12079500Y-12305000D01*
X12044500Y-12340000D01*
X12079500Y-12375000D01*
X12279500Y-10175000D02*
X12314500Y-10140000D01*
X12279500Y-10105000D01*
X12244500Y-10140000D01*
X12279500Y-10175000D01*
X12279500Y-12375000D02*
X12314500Y-12340000D01*
X12279500Y-12305000D01*
X12244500Y-12340000D01*
X12279500Y-12375000D01*
D17*
X8687500Y-13130000D02*
X8777500Y-13220000D01*
X8777500Y-13130000D02*
X8687500Y-13220000D01*
X8777500Y-13175000D02*
G75*
G03*
X8777500Y-13175000I-45000J0D01*
G01*
X8687500Y-13384000D02*
X8777500Y-13474000D01*
X8777500Y-13384000D02*
X8687500Y-13474000D01*
X8777500Y-13429000D02*
G75*
G03*
X8777500Y-13429000I-45000J0D01*
G01*
X13807500Y-10528500D02*
X13897500Y-10618500D01*
X13897500Y-10528500D02*
X13807500Y-10618500D01*
X13897500Y-10573500D02*
G75*
G03*
X13897500Y-10573500I-45000J0D01*
G01*
X13807500Y-10782500D02*
X13897500Y-10872500D01*
X13897500Y-10782500D02*
X13807500Y-10872500D01*
X13897500Y-10827500D02*
G75*
G03*
X13897500Y-10827500I-45000J0D01*
G01*
X13807500Y-11628500D02*
X13897500Y-11718500D01*
X13897500Y-11628500D02*
X13807500Y-11718500D01*
X13897500Y-11673500D02*
G75*
G03*
X13897500Y-11673500I-45000J0D01*
G01*
X13807500Y-11882500D02*
X13897500Y-11972500D01*
X13897500Y-11882500D02*
X13807500Y-11972500D01*
X13897500Y-11927500D02*
G75*
G03*
X13897500Y-11927500I-45000J0D01*
G01*
X13955000Y-8955000D02*
X14045000Y-9045000D01*
X14045000Y-8955000D02*
X13955000Y-9045000D01*
X14045000Y-9000000D02*
G75*
G03*
X14045000Y-9000000I-45000J0D01*
G01*
X13955000Y-9155000D02*
X14045000Y-9245000D01*
X14045000Y-9155000D02*
X13955000Y-9245000D01*
X14045000Y-9200000D02*
G75*
G03*
X14045000Y-9200000I-45000J0D01*
G01*
X13955000Y-9355000D02*
X14045000Y-9445000D01*
X14045000Y-9355000D02*
X13955000Y-9445000D01*
X14045000Y-9400000D02*
G75*
G03*
X14045000Y-9400000I-45000J0D01*
G01*
D18*
X8796750Y-8928000D02*
X8895750Y-9027000D01*
X8895750Y-8928000D02*
X8796750Y-9027000D01*
X8846250Y-8928000D02*
X8846250Y-9027000D01*
X8796750Y-8977500D02*
X8895750Y-8977500D01*
X8796750Y-9378000D02*
X8895750Y-9477000D01*
X8895750Y-9378000D02*
X8796750Y-9477000D01*
X8846250Y-9378000D02*
X8846250Y-9477000D01*
X8796750Y-9427500D02*
X8895750Y-9427500D01*
D19*
X9030250Y-8786500D02*
X9160250Y-8916500D01*
X9160250Y-8786500D02*
X9030250Y-8916500D01*
X9141212Y-8897462D02*
X9141212Y-8805538D01*
X9049288Y-8805538D01*
X9049288Y-8897462D01*
X9141212Y-8897462D01*
X9030250Y-9487500D02*
X9160250Y-9617500D01*
X9160250Y-9487500D02*
X9030250Y-9617500D01*
X9141212Y-9598462D02*
X9141212Y-9506538D01*
X9049288Y-9506538D01*
X9049288Y-9598462D01*
X9141212Y-9598462D01*
D20*
X13471000Y-12871000D02*
X13621000Y-13021000D01*
X13621000Y-12871000D02*
X13471000Y-13021000D01*
X13546000Y-13021000D02*
X13621000Y-12946000D01*
X13546000Y-12871000D01*
X13471000Y-12946000D01*
X13546000Y-13021000D01*
X13471000Y-13379000D02*
X13621000Y-13529000D01*
X13621000Y-13379000D02*
X13471000Y-13529000D01*
X13546000Y-13529000D02*
X13621000Y-13454000D01*
X13546000Y-13379000D01*
X13471000Y-13454000D01*
X13546000Y-13529000D01*
X13725000Y-13125000D02*
X13875000Y-13275000D01*
X13875000Y-13125000D02*
X13725000Y-13275000D01*
X13800000Y-13275000D02*
X13875000Y-13200000D01*
X13800000Y-13125000D01*
X13725000Y-13200000D01*
X13800000Y-13275000D01*
X13925000Y-8715000D02*
X14075000Y-8865000D01*
X14075000Y-8715000D02*
X13925000Y-8865000D01*
X14000000Y-8865000D02*
X14075000Y-8790000D01*
X14000000Y-8715000D01*
X13925000Y-8790000D01*
X14000000Y-8865000D01*
X13925000Y-9535000D02*
X14075000Y-9685000D01*
X14075000Y-9535000D02*
X13925000Y-9685000D01*
X14000000Y-9685000D02*
X14075000Y-9610000D01*
X14000000Y-9535000D01*
X13925000Y-9610000D01*
X14000000Y-9685000D01*
X13979000Y-12871000D02*
X14129000Y-13021000D01*
X14129000Y-12871000D02*
X13979000Y-13021000D01*
X14054000Y-13021000D02*
X14129000Y-12946000D01*
X14054000Y-12871000D01*
X13979000Y-12946000D01*
X14054000Y-13021000D01*
X13979000Y-13379000D02*
X14129000Y-13529000D01*
X14129000Y-13379000D02*
X13979000Y-13529000D01*
X14054000Y-13529000D02*
X14129000Y-13454000D01*
X14054000Y-13379000D01*
X13979000Y-13454000D01*
X14054000Y-13529000D01*
D21*
X9975000Y-9670000D02*
X9975000Y-9990000D01*
X9815000Y-9830000D02*
X10135000Y-9830000D01*
X10135000Y-9830000D02*
G75*
G03*
X10135000Y-9830000I-160000J0D01*
G01*
X9975000Y-12470000D02*
X9975000Y-12790000D01*
X9815000Y-12630000D02*
X10135000Y-12630000D01*
X10135000Y-12630000D02*
G75*
G03*
X10135000Y-12630000I-160000J0D01*
G01*
X12775000Y-9670000D02*
X12775000Y-9990000D01*
X12615000Y-9830000D02*
X12935000Y-9830000D01*
X12935000Y-9830000D02*
G75*
G03*
X12935000Y-9830000I-160000J0D01*
G01*
X12775000Y-12470000D02*
X12775000Y-12790000D01*
X12615000Y-12630000D02*
X12935000Y-12630000D01*
X12935000Y-12630000D02*
G75*
G03*
X12935000Y-12630000I-160000J0D01*
G01*
D11*
X8742619Y-14385476D02*
X8742619Y-14185476D01*
X8790238Y-14185476D01*
X8818810Y-14195000D01*
X8837857Y-14214048D01*
X8847381Y-14233095D01*
X8856905Y-14271190D01*
X8856905Y-14299762D01*
X8847381Y-14337857D01*
X8837857Y-14356905D01*
X8818810Y-14375952D01*
X8790238Y-14385476D01*
X8742619Y-14385476D01*
X8942619Y-14385476D02*
X8942619Y-14252143D01*
X8942619Y-14290238D02*
X8952143Y-14271190D01*
X8961667Y-14261667D01*
X8980714Y-14252143D01*
X8999762Y-14252143D01*
X9066429Y-14385476D02*
X9066429Y-14252143D01*
X9066429Y-14185476D02*
X9056905Y-14195000D01*
X9066429Y-14204524D01*
X9075952Y-14195000D01*
X9066429Y-14185476D01*
X9066429Y-14204524D01*
X9190238Y-14385476D02*
X9171190Y-14375952D01*
X9161667Y-14356905D01*
X9161667Y-14185476D01*
X9295000Y-14385476D02*
X9275952Y-14375952D01*
X9266429Y-14356905D01*
X9266429Y-14185476D01*
X9523571Y-14385476D02*
X9523571Y-14185476D01*
X9590238Y-14328333D01*
X9656905Y-14185476D01*
X9656905Y-14385476D01*
X9837857Y-14385476D02*
X9837857Y-14280714D01*
X9828333Y-14261667D01*
X9809286Y-14252143D01*
X9771190Y-14252143D01*
X9752143Y-14261667D01*
X9837857Y-14375952D02*
X9818810Y-14385476D01*
X9771190Y-14385476D01*
X9752143Y-14375952D01*
X9742619Y-14356905D01*
X9742619Y-14337857D01*
X9752143Y-14318809D01*
X9771190Y-14309286D01*
X9818810Y-14309286D01*
X9837857Y-14299762D01*
X9933095Y-14252143D02*
X9933095Y-14452143D01*
X9933095Y-14261667D02*
X9952143Y-14252143D01*
X9990238Y-14252143D01*
X10009286Y-14261667D01*
X10018810Y-14271190D01*
X10028333Y-14290238D01*
X10028333Y-14347381D01*
X10018810Y-14366428D01*
X10009286Y-14375952D01*
X9990238Y-14385476D01*
X9952143Y-14385476D01*
X9933095Y-14375952D01*
X10114048Y-14366428D02*
X10123571Y-14375952D01*
X10114048Y-14385476D01*
X10104524Y-14375952D01*
X10114048Y-14366428D01*
X10114048Y-14385476D01*
X10114048Y-14261667D02*
X10123571Y-14271190D01*
X10114048Y-14280714D01*
X10104524Y-14271190D01*
X10114048Y-14261667D01*
X10114048Y-14280714D01*
D12*
X8465000Y-14705000D02*
X8485000Y-14725000D01*
X8485000Y-14705000D02*
X8465000Y-14725000D01*
D11*
X8780714Y-14605476D02*
X8799762Y-14605476D01*
X8818810Y-14615000D01*
X8828333Y-14624524D01*
X8837857Y-14643571D01*
X8847381Y-14681667D01*
X8847381Y-14729286D01*
X8837857Y-14767381D01*
X8828333Y-14786428D01*
X8818810Y-14795952D01*
X8799762Y-14805476D01*
X8780714Y-14805476D01*
X8761667Y-14795952D01*
X8752143Y-14786428D01*
X8742619Y-14767381D01*
X8733095Y-14729286D01*
X8733095Y-14681667D01*
X8742619Y-14643571D01*
X8752143Y-14624524D01*
X8761667Y-14615000D01*
X8780714Y-14605476D01*
X8933095Y-14786428D02*
X8942619Y-14795952D01*
X8933095Y-14805476D01*
X8923571Y-14795952D01*
X8933095Y-14786428D01*
X8933095Y-14805476D01*
X9018810Y-14624524D02*
X9028333Y-14615000D01*
X9047381Y-14605476D01*
X9095000Y-14605476D01*
X9114048Y-14615000D01*
X9123571Y-14624524D01*
X9133095Y-14643571D01*
X9133095Y-14662619D01*
X9123571Y-14691190D01*
X9009286Y-14805476D01*
X9133095Y-14805476D01*
X9256905Y-14605476D02*
X9275952Y-14605476D01*
X9295000Y-14615000D01*
X9304524Y-14624524D01*
X9314048Y-14643571D01*
X9323571Y-14681667D01*
X9323571Y-14729286D01*
X9314048Y-14767381D01*
X9304524Y-14786428D01*
X9295000Y-14795952D01*
X9275952Y-14805476D01*
X9256905Y-14805476D01*
X9237857Y-14795952D01*
X9228333Y-14786428D01*
X9218810Y-14767381D01*
X9209286Y-14729286D01*
X9209286Y-14681667D01*
X9218810Y-14643571D01*
X9228333Y-14624524D01*
X9237857Y-14615000D01*
X9256905Y-14605476D01*
X9447381Y-14605476D02*
X9466429Y-14605476D01*
X9485476Y-14615000D01*
X9495000Y-14624524D01*
X9504524Y-14643571D01*
X9514048Y-14681667D01*
X9514048Y-14729286D01*
X9504524Y-14767381D01*
X9495000Y-14786428D01*
X9485476Y-14795952D01*
X9466429Y-14805476D01*
X9447381Y-14805476D01*
X9428333Y-14795952D01*
X9418810Y-14786428D01*
X9409286Y-14767381D01*
X9399762Y-14729286D01*
X9399762Y-14681667D01*
X9409286Y-14643571D01*
X9418810Y-14624524D01*
X9428333Y-14615000D01*
X9447381Y-14605476D01*
X9599762Y-14805476D02*
X9599762Y-14672143D01*
X9599762Y-14691190D02*
X9609286Y-14681667D01*
X9628333Y-14672143D01*
X9656905Y-14672143D01*
X9675952Y-14681667D01*
X9685476Y-14700714D01*
X9685476Y-14805476D01*
X9685476Y-14700714D02*
X9695000Y-14681667D01*
X9714048Y-14672143D01*
X9742619Y-14672143D01*
X9761667Y-14681667D01*
X9771190Y-14700714D01*
X9771190Y-14805476D01*
X9866429Y-14805476D02*
X9866429Y-14672143D01*
X9866429Y-14691190D02*
X9875952Y-14681667D01*
X9895000Y-14672143D01*
X9923571Y-14672143D01*
X9942619Y-14681667D01*
X9952143Y-14700714D01*
X9952143Y-14805476D01*
X9952143Y-14700714D02*
X9961667Y-14681667D01*
X9980714Y-14672143D01*
X10009286Y-14672143D01*
X10028333Y-14681667D01*
X10037857Y-14700714D01*
X10037857Y-14805476D01*
X10428333Y-14595952D02*
X10256905Y-14853095D01*
X10685476Y-14605476D02*
X10704524Y-14605476D01*
X10723571Y-14615000D01*
X10733095Y-14624524D01*
X10742619Y-14643571D01*
X10752143Y-14681667D01*
X10752143Y-14729286D01*
X10742619Y-14767381D01*
X10733095Y-14786428D01*
X10723571Y-14795952D01*
X10704524Y-14805476D01*
X10685476Y-14805476D01*
X10666429Y-14795952D01*
X10656905Y-14786428D01*
X10647381Y-14767381D01*
X10637857Y-14729286D01*
X10637857Y-14681667D01*
X10647381Y-14643571D01*
X10656905Y-14624524D01*
X10666429Y-14615000D01*
X10685476Y-14605476D01*
X10837857Y-14786428D02*
X10847381Y-14795952D01*
X10837857Y-14805476D01*
X10828333Y-14795952D01*
X10837857Y-14786428D01*
X10837857Y-14805476D01*
X10971190Y-14605476D02*
X10990238Y-14605476D01*
X11009286Y-14615000D01*
X11018810Y-14624524D01*
X11028333Y-14643571D01*
X11037857Y-14681667D01*
X11037857Y-14729286D01*
X11028333Y-14767381D01*
X11018810Y-14786428D01*
X11009286Y-14795952D01*
X10990238Y-14805476D01*
X10971190Y-14805476D01*
X10952143Y-14795952D01*
X10942619Y-14786428D01*
X10933095Y-14767381D01*
X10923571Y-14729286D01*
X10923571Y-14681667D01*
X10933095Y-14643571D01*
X10942619Y-14624524D01*
X10952143Y-14615000D01*
X10971190Y-14605476D01*
X11161667Y-14605476D02*
X11180714Y-14605476D01*
X11199762Y-14615000D01*
X11209286Y-14624524D01*
X11218809Y-14643571D01*
X11228333Y-14681667D01*
X11228333Y-14729286D01*
X11218809Y-14767381D01*
X11209286Y-14786428D01*
X11199762Y-14795952D01*
X11180714Y-14805476D01*
X11161667Y-14805476D01*
X11142619Y-14795952D01*
X11133095Y-14786428D01*
X11123571Y-14767381D01*
X11114048Y-14729286D01*
X11114048Y-14681667D01*
X11123571Y-14643571D01*
X11133095Y-14624524D01*
X11142619Y-14615000D01*
X11161667Y-14605476D01*
X11295000Y-14605476D02*
X11428333Y-14605476D01*
X11342619Y-14805476D01*
X11514048Y-14805476D02*
X11552143Y-14805476D01*
X11571190Y-14795952D01*
X11580714Y-14786428D01*
X11599762Y-14757857D01*
X11609286Y-14719762D01*
X11609286Y-14643571D01*
X11599762Y-14624524D01*
X11590238Y-14615000D01*
X11571190Y-14605476D01*
X11533095Y-14605476D01*
X11514048Y-14615000D01*
X11504524Y-14624524D01*
X11495000Y-14643571D01*
X11495000Y-14691190D01*
X11504524Y-14710238D01*
X11514048Y-14719762D01*
X11533095Y-14729286D01*
X11571190Y-14729286D01*
X11590238Y-14719762D01*
X11599762Y-14710238D01*
X11609286Y-14691190D01*
X11685476Y-14605476D02*
X11685476Y-14643571D01*
X11761667Y-14605476D02*
X11761667Y-14643571D01*
X12056905Y-14881667D02*
X12047381Y-14872143D01*
X12028333Y-14843571D01*
X12018809Y-14824524D01*
X12009286Y-14795952D01*
X11999762Y-14748333D01*
X11999762Y-14710238D01*
X12009286Y-14662619D01*
X12018809Y-14634048D01*
X12028333Y-14615000D01*
X12047381Y-14586428D01*
X12056905Y-14576905D01*
X12114048Y-14605476D02*
X12237857Y-14605476D01*
X12171190Y-14681667D01*
X12199762Y-14681667D01*
X12218809Y-14691190D01*
X12228333Y-14700714D01*
X12237857Y-14719762D01*
X12237857Y-14767381D01*
X12228333Y-14786428D01*
X12218809Y-14795952D01*
X12199762Y-14805476D01*
X12142619Y-14805476D01*
X12123571Y-14795952D01*
X12114048Y-14786428D01*
X12304524Y-14605476D02*
X12428333Y-14605476D01*
X12361667Y-14681667D01*
X12390238Y-14681667D01*
X12409286Y-14691190D01*
X12418809Y-14700714D01*
X12428333Y-14719762D01*
X12428333Y-14767381D01*
X12418809Y-14786428D01*
X12409286Y-14795952D01*
X12390238Y-14805476D01*
X12333095Y-14805476D01*
X12314048Y-14795952D01*
X12304524Y-14786428D01*
X12666428Y-14805476D02*
X12666428Y-14605476D01*
X12752143Y-14805476D02*
X12752143Y-14700714D01*
X12742619Y-14681667D01*
X12723571Y-14672143D01*
X12695000Y-14672143D01*
X12675952Y-14681667D01*
X12666428Y-14691190D01*
X12875952Y-14805476D02*
X12856905Y-14795952D01*
X12847381Y-14786428D01*
X12837857Y-14767381D01*
X12837857Y-14710238D01*
X12847381Y-14691190D01*
X12856905Y-14681667D01*
X12875952Y-14672143D01*
X12904524Y-14672143D01*
X12923571Y-14681667D01*
X12933095Y-14691190D01*
X12942619Y-14710238D01*
X12942619Y-14767381D01*
X12933095Y-14786428D01*
X12923571Y-14795952D01*
X12904524Y-14805476D01*
X12875952Y-14805476D01*
X13056905Y-14805476D02*
X13037857Y-14795952D01*
X13028333Y-14776905D01*
X13028333Y-14605476D01*
X13209286Y-14795952D02*
X13190238Y-14805476D01*
X13152143Y-14805476D01*
X13133095Y-14795952D01*
X13123571Y-14776905D01*
X13123571Y-14700714D01*
X13133095Y-14681667D01*
X13152143Y-14672143D01*
X13190238Y-14672143D01*
X13209286Y-14681667D01*
X13218809Y-14700714D01*
X13218809Y-14719762D01*
X13123571Y-14738809D01*
X13295000Y-14795952D02*
X13314048Y-14805476D01*
X13352143Y-14805476D01*
X13371190Y-14795952D01*
X13380714Y-14776905D01*
X13380714Y-14767381D01*
X13371190Y-14748333D01*
X13352143Y-14738809D01*
X13323571Y-14738809D01*
X13304524Y-14729286D01*
X13295000Y-14710238D01*
X13295000Y-14700714D01*
X13304524Y-14681667D01*
X13323571Y-14672143D01*
X13352143Y-14672143D01*
X13371190Y-14681667D01*
X13447381Y-14881667D02*
X13456905Y-14872143D01*
X13475952Y-14843571D01*
X13485476Y-14824524D01*
X13495000Y-14795952D01*
X13504524Y-14748333D01*
X13504524Y-14710238D01*
X13495000Y-14662619D01*
X13485476Y-14634048D01*
X13475952Y-14615000D01*
X13456905Y-14586428D01*
X13447381Y-14576905D01*
D13*
X8485000Y-14979000D02*
G75*
G03*
X8485000Y-14979000I-15000J0D01*
G01*
D11*
X8780714Y-14869476D02*
X8799762Y-14869476D01*
X8818810Y-14879000D01*
X8828333Y-14888524D01*
X8837857Y-14907571D01*
X8847381Y-14945667D01*
X8847381Y-14993286D01*
X8837857Y-15031381D01*
X8828333Y-15050428D01*
X8818810Y-15059952D01*
X8799762Y-15069476D01*
X8780714Y-15069476D01*
X8761667Y-15059952D01*
X8752143Y-15050428D01*
X8742619Y-15031381D01*
X8733095Y-14993286D01*
X8733095Y-14945667D01*
X8742619Y-14907571D01*
X8752143Y-14888524D01*
X8761667Y-14879000D01*
X8780714Y-14869476D01*
X8933095Y-15050428D02*
X8942619Y-15059952D01*
X8933095Y-15069476D01*
X8923571Y-15059952D01*
X8933095Y-15050428D01*
X8933095Y-15069476D01*
X9009286Y-14869476D02*
X9133095Y-14869476D01*
X9066429Y-14945667D01*
X9095000Y-14945667D01*
X9114048Y-14955190D01*
X9123571Y-14964714D01*
X9133095Y-14983762D01*
X9133095Y-15031381D01*
X9123571Y-15050428D01*
X9114048Y-15059952D01*
X9095000Y-15069476D01*
X9037857Y-15069476D01*
X9018810Y-15059952D01*
X9009286Y-15050428D01*
X9256905Y-14869476D02*
X9275952Y-14869476D01*
X9295000Y-14879000D01*
X9304524Y-14888524D01*
X9314048Y-14907571D01*
X9323571Y-14945667D01*
X9323571Y-14993286D01*
X9314048Y-15031381D01*
X9304524Y-15050428D01*
X9295000Y-15059952D01*
X9275952Y-15069476D01*
X9256905Y-15069476D01*
X9237857Y-15059952D01*
X9228333Y-15050428D01*
X9218810Y-15031381D01*
X9209286Y-14993286D01*
X9209286Y-14945667D01*
X9218810Y-14907571D01*
X9228333Y-14888524D01*
X9237857Y-14879000D01*
X9256905Y-14869476D01*
X9447381Y-14869476D02*
X9466429Y-14869476D01*
X9485476Y-14879000D01*
X9495000Y-14888524D01*
X9504524Y-14907571D01*
X9514048Y-14945667D01*
X9514048Y-14993286D01*
X9504524Y-15031381D01*
X9495000Y-15050428D01*
X9485476Y-15059952D01*
X9466429Y-15069476D01*
X9447381Y-15069476D01*
X9428333Y-15059952D01*
X9418810Y-15050428D01*
X9409286Y-15031381D01*
X9399762Y-14993286D01*
X9399762Y-14945667D01*
X9409286Y-14907571D01*
X9418810Y-14888524D01*
X9428333Y-14879000D01*
X9447381Y-14869476D01*
X9599762Y-15069476D02*
X9599762Y-14936143D01*
X9599762Y-14955190D02*
X9609286Y-14945667D01*
X9628333Y-14936143D01*
X9656905Y-14936143D01*
X9675952Y-14945667D01*
X9685476Y-14964714D01*
X9685476Y-15069476D01*
X9685476Y-14964714D02*
X9695000Y-14945667D01*
X9714048Y-14936143D01*
X9742619Y-14936143D01*
X9761667Y-14945667D01*
X9771190Y-14964714D01*
X9771190Y-15069476D01*
X9866429Y-15069476D02*
X9866429Y-14936143D01*
X9866429Y-14955190D02*
X9875952Y-14945667D01*
X9895000Y-14936143D01*
X9923571Y-14936143D01*
X9942619Y-14945667D01*
X9952143Y-14964714D01*
X9952143Y-15069476D01*
X9952143Y-14964714D02*
X9961667Y-14945667D01*
X9980714Y-14936143D01*
X10009286Y-14936143D01*
X10028333Y-14945667D01*
X10037857Y-14964714D01*
X10037857Y-15069476D01*
X10428333Y-14859952D02*
X10256905Y-15117095D01*
X10685476Y-14869476D02*
X10704524Y-14869476D01*
X10723571Y-14879000D01*
X10733095Y-14888524D01*
X10742619Y-14907571D01*
X10752143Y-14945667D01*
X10752143Y-14993286D01*
X10742619Y-15031381D01*
X10733095Y-15050428D01*
X10723571Y-15059952D01*
X10704524Y-15069476D01*
X10685476Y-15069476D01*
X10666429Y-15059952D01*
X10656905Y-15050428D01*
X10647381Y-15031381D01*
X10637857Y-14993286D01*
X10637857Y-14945667D01*
X10647381Y-14907571D01*
X10656905Y-14888524D01*
X10666429Y-14879000D01*
X10685476Y-14869476D01*
X10837857Y-15050428D02*
X10847381Y-15059952D01*
X10837857Y-15069476D01*
X10828333Y-15059952D01*
X10837857Y-15050428D01*
X10837857Y-15069476D01*
X10971190Y-14869476D02*
X10990238Y-14869476D01*
X11009286Y-14879000D01*
X11018810Y-14888524D01*
X11028333Y-14907571D01*
X11037857Y-14945667D01*
X11037857Y-14993286D01*
X11028333Y-15031381D01*
X11018810Y-15050428D01*
X11009286Y-15059952D01*
X10990238Y-15069476D01*
X10971190Y-15069476D01*
X10952143Y-15059952D01*
X10942619Y-15050428D01*
X10933095Y-15031381D01*
X10923571Y-14993286D01*
X10923571Y-14945667D01*
X10933095Y-14907571D01*
X10942619Y-14888524D01*
X10952143Y-14879000D01*
X10971190Y-14869476D01*
X11228333Y-15069476D02*
X11114048Y-15069476D01*
X11171190Y-15069476D02*
X11171190Y-14869476D01*
X11152143Y-14898048D01*
X11133095Y-14917095D01*
X11114048Y-14926619D01*
X11418809Y-15069476D02*
X11304524Y-15069476D01*
X11361667Y-15069476D02*
X11361667Y-14869476D01*
X11342619Y-14898048D01*
X11323571Y-14917095D01*
X11304524Y-14926619D01*
X11533095Y-14955190D02*
X11514048Y-14945667D01*
X11504524Y-14936143D01*
X11495000Y-14917095D01*
X11495000Y-14907571D01*
X11504524Y-14888524D01*
X11514048Y-14879000D01*
X11533095Y-14869476D01*
X11571190Y-14869476D01*
X11590238Y-14879000D01*
X11599762Y-14888524D01*
X11609286Y-14907571D01*
X11609286Y-14917095D01*
X11599762Y-14936143D01*
X11590238Y-14945667D01*
X11571190Y-14955190D01*
X11533095Y-14955190D01*
X11514048Y-14964714D01*
X11504524Y-14974238D01*
X11495000Y-14993286D01*
X11495000Y-15031381D01*
X11504524Y-15050428D01*
X11514048Y-15059952D01*
X11533095Y-15069476D01*
X11571190Y-15069476D01*
X11590238Y-15059952D01*
X11599762Y-15050428D01*
X11609286Y-15031381D01*
X11609286Y-14993286D01*
X11599762Y-14974238D01*
X11590238Y-14964714D01*
X11571190Y-14955190D01*
X11685476Y-14869476D02*
X11685476Y-14907571D01*
X11761667Y-14869476D02*
X11761667Y-14907571D01*
X12056905Y-15145667D02*
X12047381Y-15136143D01*
X12028333Y-15107571D01*
X12018809Y-15088524D01*
X12009286Y-15059952D01*
X11999762Y-15012333D01*
X11999762Y-14974238D01*
X12009286Y-14926619D01*
X12018809Y-14898048D01*
X12028333Y-14879000D01*
X12047381Y-14850428D01*
X12056905Y-14840905D01*
X12123571Y-14888524D02*
X12133095Y-14879000D01*
X12152143Y-14869476D01*
X12199762Y-14869476D01*
X12218809Y-14879000D01*
X12228333Y-14888524D01*
X12237857Y-14907571D01*
X12237857Y-14926619D01*
X12228333Y-14955190D01*
X12114048Y-15069476D01*
X12237857Y-15069476D01*
X12333095Y-15069476D02*
X12371190Y-15069476D01*
X12390238Y-15059952D01*
X12399762Y-15050428D01*
X12418809Y-15021857D01*
X12428333Y-14983762D01*
X12428333Y-14907571D01*
X12418809Y-14888524D01*
X12409286Y-14879000D01*
X12390238Y-14869476D01*
X12352143Y-14869476D01*
X12333095Y-14879000D01*
X12323571Y-14888524D01*
X12314048Y-14907571D01*
X12314048Y-14955190D01*
X12323571Y-14974238D01*
X12333095Y-14983762D01*
X12352143Y-14993286D01*
X12390238Y-14993286D01*
X12409286Y-14983762D01*
X12418809Y-14974238D01*
X12428333Y-14955190D01*
X12666428Y-15069476D02*
X12666428Y-14869476D01*
X12752143Y-15069476D02*
X12752143Y-14964714D01*
X12742619Y-14945667D01*
X12723571Y-14936143D01*
X12695000Y-14936143D01*
X12675952Y-14945667D01*
X12666428Y-14955190D01*
X12875952Y-15069476D02*
X12856905Y-15059952D01*
X12847381Y-15050428D01*
X12837857Y-15031381D01*
X12837857Y-14974238D01*
X12847381Y-14955190D01*
X12856905Y-14945667D01*
X12875952Y-14936143D01*
X12904524Y-14936143D01*
X12923571Y-14945667D01*
X12933095Y-14955190D01*
X12942619Y-14974238D01*
X12942619Y-15031381D01*
X12933095Y-15050428D01*
X12923571Y-15059952D01*
X12904524Y-15069476D01*
X12875952Y-15069476D01*
X13056905Y-15069476D02*
X13037857Y-15059952D01*
X13028333Y-15040905D01*
X13028333Y-14869476D01*
X13209286Y-15059952D02*
X13190238Y-15069476D01*
X13152143Y-15069476D01*
X13133095Y-15059952D01*
X13123571Y-15040905D01*
X13123571Y-14964714D01*
X13133095Y-14945667D01*
X13152143Y-14936143D01*
X13190238Y-14936143D01*
X13209286Y-14945667D01*
X13218809Y-14964714D01*
X13218809Y-14983762D01*
X13123571Y-15002809D01*
X13295000Y-15059952D02*
X13314048Y-15069476D01*
X13352143Y-15069476D01*
X13371190Y-15059952D01*
X13380714Y-15040905D01*
X13380714Y-15031381D01*
X13371190Y-15012333D01*
X13352143Y-15002809D01*
X13323571Y-15002809D01*
X13304524Y-14993286D01*
X13295000Y-14974238D01*
X13295000Y-14964714D01*
X13304524Y-14945667D01*
X13323571Y-14936143D01*
X13352143Y-14936143D01*
X13371190Y-14945667D01*
X13447381Y-15145667D02*
X13456905Y-15136143D01*
X13475952Y-15107571D01*
X13485476Y-15088524D01*
X13495000Y-15059952D01*
X13504524Y-15012333D01*
X13504524Y-14974238D01*
X13495000Y-14926619D01*
X13485476Y-14898048D01*
X13475952Y-14879000D01*
X13456905Y-14850428D01*
X13447381Y-14840905D01*
D14*
X8465000Y-15223000D02*
X8465000Y-15263000D01*
X8445000Y-15243000D02*
X8485000Y-15243000D01*
D11*
X8780714Y-15133476D02*
X8799762Y-15133476D01*
X8818810Y-15143000D01*
X8828333Y-15152524D01*
X8837857Y-15171571D01*
X8847381Y-15209667D01*
X8847381Y-15257286D01*
X8837857Y-15295381D01*
X8828333Y-15314428D01*
X8818810Y-15323952D01*
X8799762Y-15333476D01*
X8780714Y-15333476D01*
X8761667Y-15323952D01*
X8752143Y-15314428D01*
X8742619Y-15295381D01*
X8733095Y-15257286D01*
X8733095Y-15209667D01*
X8742619Y-15171571D01*
X8752143Y-15152524D01*
X8761667Y-15143000D01*
X8780714Y-15133476D01*
X8933095Y-15314428D02*
X8942619Y-15323952D01*
X8933095Y-15333476D01*
X8923571Y-15323952D01*
X8933095Y-15314428D01*
X8933095Y-15333476D01*
X9114048Y-15200143D02*
X9114048Y-15333476D01*
X9066429Y-15123952D02*
X9018810Y-15266809D01*
X9142619Y-15266809D01*
X9256905Y-15133476D02*
X9275952Y-15133476D01*
X9295000Y-15143000D01*
X9304524Y-15152524D01*
X9314048Y-15171571D01*
X9323571Y-15209667D01*
X9323571Y-15257286D01*
X9314048Y-15295381D01*
X9304524Y-15314428D01*
X9295000Y-15323952D01*
X9275952Y-15333476D01*
X9256905Y-15333476D01*
X9237857Y-15323952D01*
X9228333Y-15314428D01*
X9218810Y-15295381D01*
X9209286Y-15257286D01*
X9209286Y-15209667D01*
X9218810Y-15171571D01*
X9228333Y-15152524D01*
X9237857Y-15143000D01*
X9256905Y-15133476D01*
X9447381Y-15133476D02*
X9466429Y-15133476D01*
X9485476Y-15143000D01*
X9495000Y-15152524D01*
X9504524Y-15171571D01*
X9514048Y-15209667D01*
X9514048Y-15257286D01*
X9504524Y-15295381D01*
X9495000Y-15314428D01*
X9485476Y-15323952D01*
X9466429Y-15333476D01*
X9447381Y-15333476D01*
X9428333Y-15323952D01*
X9418810Y-15314428D01*
X9409286Y-15295381D01*
X9399762Y-15257286D01*
X9399762Y-15209667D01*
X9409286Y-15171571D01*
X9418810Y-15152524D01*
X9428333Y-15143000D01*
X9447381Y-15133476D01*
X9599762Y-15333476D02*
X9599762Y-15200143D01*
X9599762Y-15219190D02*
X9609286Y-15209667D01*
X9628333Y-15200143D01*
X9656905Y-15200143D01*
X9675952Y-15209667D01*
X9685476Y-15228714D01*
X9685476Y-15333476D01*
X9685476Y-15228714D02*
X9695000Y-15209667D01*
X9714048Y-15200143D01*
X9742619Y-15200143D01*
X9761667Y-15209667D01*
X9771190Y-15228714D01*
X9771190Y-15333476D01*
X9866429Y-15333476D02*
X9866429Y-15200143D01*
X9866429Y-15219190D02*
X9875952Y-15209667D01*
X9895000Y-15200143D01*
X9923571Y-15200143D01*
X9942619Y-15209667D01*
X9952143Y-15228714D01*
X9952143Y-15333476D01*
X9952143Y-15228714D02*
X9961667Y-15209667D01*
X9980714Y-15200143D01*
X10009286Y-15200143D01*
X10028333Y-15209667D01*
X10037857Y-15228714D01*
X10037857Y-15333476D01*
X10428333Y-15123952D02*
X10256905Y-15381095D01*
X10685476Y-15133476D02*
X10704524Y-15133476D01*
X10723571Y-15143000D01*
X10733095Y-15152524D01*
X10742619Y-15171571D01*
X10752143Y-15209667D01*
X10752143Y-15257286D01*
X10742619Y-15295381D01*
X10733095Y-15314428D01*
X10723571Y-15323952D01*
X10704524Y-15333476D01*
X10685476Y-15333476D01*
X10666429Y-15323952D01*
X10656905Y-15314428D01*
X10647381Y-15295381D01*
X10637857Y-15257286D01*
X10637857Y-15209667D01*
X10647381Y-15171571D01*
X10656905Y-15152524D01*
X10666429Y-15143000D01*
X10685476Y-15133476D01*
X10837857Y-15314428D02*
X10847381Y-15323952D01*
X10837857Y-15333476D01*
X10828333Y-15323952D01*
X10837857Y-15314428D01*
X10837857Y-15333476D01*
X10971190Y-15133476D02*
X10990238Y-15133476D01*
X11009286Y-15143000D01*
X11018810Y-15152524D01*
X11028333Y-15171571D01*
X11037857Y-15209667D01*
X11037857Y-15257286D01*
X11028333Y-15295381D01*
X11018810Y-15314428D01*
X11009286Y-15323952D01*
X10990238Y-15333476D01*
X10971190Y-15333476D01*
X10952143Y-15323952D01*
X10942619Y-15314428D01*
X10933095Y-15295381D01*
X10923571Y-15257286D01*
X10923571Y-15209667D01*
X10933095Y-15171571D01*
X10942619Y-15152524D01*
X10952143Y-15143000D01*
X10971190Y-15133476D01*
X11228333Y-15333476D02*
X11114048Y-15333476D01*
X11171190Y-15333476D02*
X11171190Y-15133476D01*
X11152143Y-15162048D01*
X11133095Y-15181095D01*
X11114048Y-15190619D01*
X11409286Y-15133476D02*
X11314048Y-15133476D01*
X11304524Y-15228714D01*
X11314048Y-15219190D01*
X11333095Y-15209667D01*
X11380714Y-15209667D01*
X11399762Y-15219190D01*
X11409286Y-15228714D01*
X11418809Y-15247762D01*
X11418809Y-15295381D01*
X11409286Y-15314428D01*
X11399762Y-15323952D01*
X11380714Y-15333476D01*
X11333095Y-15333476D01*
X11314048Y-15323952D01*
X11304524Y-15314428D01*
X11485476Y-15133476D02*
X11618809Y-15133476D01*
X11533095Y-15333476D01*
X11685476Y-15133476D02*
X11685476Y-15171571D01*
X11761667Y-15133476D02*
X11761667Y-15171571D01*
X12056905Y-15409667D02*
X12047381Y-15400143D01*
X12028333Y-15371571D01*
X12018809Y-15352524D01*
X12009286Y-15323952D01*
X11999762Y-15276333D01*
X11999762Y-15238238D01*
X12009286Y-15190619D01*
X12018809Y-15162048D01*
X12028333Y-15143000D01*
X12047381Y-15114428D01*
X12056905Y-15104905D01*
X12218809Y-15133476D02*
X12180714Y-15133476D01*
X12161667Y-15143000D01*
X12152143Y-15152524D01*
X12133095Y-15181095D01*
X12123571Y-15219190D01*
X12123571Y-15295381D01*
X12133095Y-15314428D01*
X12142619Y-15323952D01*
X12161667Y-15333476D01*
X12199762Y-15333476D01*
X12218809Y-15323952D01*
X12228333Y-15314428D01*
X12237857Y-15295381D01*
X12237857Y-15247762D01*
X12228333Y-15228714D01*
X12218809Y-15219190D01*
X12199762Y-15209667D01*
X12161667Y-15209667D01*
X12142619Y-15219190D01*
X12133095Y-15228714D01*
X12123571Y-15247762D01*
X12475952Y-15333476D02*
X12475952Y-15133476D01*
X12561667Y-15333476D02*
X12561667Y-15228714D01*
X12552143Y-15209667D01*
X12533095Y-15200143D01*
X12504524Y-15200143D01*
X12485476Y-15209667D01*
X12475952Y-15219190D01*
X12685476Y-15333476D02*
X12666428Y-15323952D01*
X12656905Y-15314428D01*
X12647381Y-15295381D01*
X12647381Y-15238238D01*
X12656905Y-15219190D01*
X12666428Y-15209667D01*
X12685476Y-15200143D01*
X12714048Y-15200143D01*
X12733095Y-15209667D01*
X12742619Y-15219190D01*
X12752143Y-15238238D01*
X12752143Y-15295381D01*
X12742619Y-15314428D01*
X12733095Y-15323952D01*
X12714048Y-15333476D01*
X12685476Y-15333476D01*
X12866428Y-15333476D02*
X12847381Y-15323952D01*
X12837857Y-15304905D01*
X12837857Y-15133476D01*
X13018809Y-15323952D02*
X12999762Y-15333476D01*
X12961667Y-15333476D01*
X12942619Y-15323952D01*
X12933095Y-15304905D01*
X12933095Y-15228714D01*
X12942619Y-15209667D01*
X12961667Y-15200143D01*
X12999762Y-15200143D01*
X13018809Y-15209667D01*
X13028333Y-15228714D01*
X13028333Y-15247762D01*
X12933095Y-15266809D01*
X13104524Y-15323952D02*
X13123571Y-15333476D01*
X13161667Y-15333476D01*
X13180714Y-15323952D01*
X13190238Y-15304905D01*
X13190238Y-15295381D01*
X13180714Y-15276333D01*
X13161667Y-15266809D01*
X13133095Y-15266809D01*
X13114048Y-15257286D01*
X13104524Y-15238238D01*
X13104524Y-15228714D01*
X13114048Y-15209667D01*
X13133095Y-15200143D01*
X13161667Y-15200143D01*
X13180714Y-15209667D01*
X13256905Y-15409667D02*
X13266428Y-15400143D01*
X13285476Y-15371571D01*
X13295000Y-15352524D01*
X13304524Y-15323952D01*
X13314048Y-15276333D01*
X13314048Y-15238238D01*
X13304524Y-15190619D01*
X13295000Y-15162048D01*
X13285476Y-15143000D01*
X13266428Y-15114428D01*
X13256905Y-15104905D01*
D15*
X8476213Y-15528213D02*
X8476213Y-15485787D01*
X8433787Y-15485787D01*
X8433787Y-15528213D01*
X8476213Y-15528213D01*
D11*
X8780714Y-15397476D02*
X8799762Y-15397476D01*
X8818810Y-15407000D01*
X8828333Y-15416524D01*
X8837857Y-15435571D01*
X8847381Y-15473667D01*
X8847381Y-15521286D01*
X8837857Y-15559381D01*
X8828333Y-15578428D01*
X8818810Y-15587952D01*
X8799762Y-15597476D01*
X8780714Y-15597476D01*
X8761667Y-15587952D01*
X8752143Y-15578428D01*
X8742619Y-15559381D01*
X8733095Y-15521286D01*
X8733095Y-15473667D01*
X8742619Y-15435571D01*
X8752143Y-15416524D01*
X8761667Y-15407000D01*
X8780714Y-15397476D01*
X8933095Y-15578428D02*
X8942619Y-15587952D01*
X8933095Y-15597476D01*
X8923571Y-15587952D01*
X8933095Y-15578428D01*
X8933095Y-15597476D01*
X9114048Y-15397476D02*
X9075952Y-15397476D01*
X9056905Y-15407000D01*
X9047381Y-15416524D01*
X9028333Y-15445095D01*
X9018810Y-15483190D01*
X9018810Y-15559381D01*
X9028333Y-15578428D01*
X9037857Y-15587952D01*
X9056905Y-15597476D01*
X9095000Y-15597476D01*
X9114048Y-15587952D01*
X9123571Y-15578428D01*
X9133095Y-15559381D01*
X9133095Y-15511762D01*
X9123571Y-15492714D01*
X9114048Y-15483190D01*
X9095000Y-15473667D01*
X9056905Y-15473667D01*
X9037857Y-15483190D01*
X9028333Y-15492714D01*
X9018810Y-15511762D01*
X9256905Y-15397476D02*
X9275952Y-15397476D01*
X9295000Y-15407000D01*
X9304524Y-15416524D01*
X9314048Y-15435571D01*
X9323571Y-15473667D01*
X9323571Y-15521286D01*
X9314048Y-15559381D01*
X9304524Y-15578428D01*
X9295000Y-15587952D01*
X9275952Y-15597476D01*
X9256905Y-15597476D01*
X9237857Y-15587952D01*
X9228333Y-15578428D01*
X9218810Y-15559381D01*
X9209286Y-15521286D01*
X9209286Y-15473667D01*
X9218810Y-15435571D01*
X9228333Y-15416524D01*
X9237857Y-15407000D01*
X9256905Y-15397476D01*
X9447381Y-15397476D02*
X9466429Y-15397476D01*
X9485476Y-15407000D01*
X9495000Y-15416524D01*
X9504524Y-15435571D01*
X9514048Y-15473667D01*
X9514048Y-15521286D01*
X9504524Y-15559381D01*
X9495000Y-15578428D01*
X9485476Y-15587952D01*
X9466429Y-15597476D01*
X9447381Y-15597476D01*
X9428333Y-15587952D01*
X9418810Y-15578428D01*
X9409286Y-15559381D01*
X9399762Y-15521286D01*
X9399762Y-15473667D01*
X9409286Y-15435571D01*
X9418810Y-15416524D01*
X9428333Y-15407000D01*
X9447381Y-15397476D01*
X9599762Y-15597476D02*
X9599762Y-15464143D01*
X9599762Y-15483190D02*
X9609286Y-15473667D01*
X9628333Y-15464143D01*
X9656905Y-15464143D01*
X9675952Y-15473667D01*
X9685476Y-15492714D01*
X9685476Y-15597476D01*
X9685476Y-15492714D02*
X9695000Y-15473667D01*
X9714048Y-15464143D01*
X9742619Y-15464143D01*
X9761667Y-15473667D01*
X9771190Y-15492714D01*
X9771190Y-15597476D01*
X9866429Y-15597476D02*
X9866429Y-15464143D01*
X9866429Y-15483190D02*
X9875952Y-15473667D01*
X9895000Y-15464143D01*
X9923571Y-15464143D01*
X9942619Y-15473667D01*
X9952143Y-15492714D01*
X9952143Y-15597476D01*
X9952143Y-15492714D02*
X9961667Y-15473667D01*
X9980714Y-15464143D01*
X10009286Y-15464143D01*
X10028333Y-15473667D01*
X10037857Y-15492714D01*
X10037857Y-15597476D01*
X10428333Y-15387952D02*
X10256905Y-15645095D01*
X10685476Y-15397476D02*
X10704524Y-15397476D01*
X10723571Y-15407000D01*
X10733095Y-15416524D01*
X10742619Y-15435571D01*
X10752143Y-15473667D01*
X10752143Y-15521286D01*
X10742619Y-15559381D01*
X10733095Y-15578428D01*
X10723571Y-15587952D01*
X10704524Y-15597476D01*
X10685476Y-15597476D01*
X10666429Y-15587952D01*
X10656905Y-15578428D01*
X10647381Y-15559381D01*
X10637857Y-15521286D01*
X10637857Y-15473667D01*
X10647381Y-15435571D01*
X10656905Y-15416524D01*
X10666429Y-15407000D01*
X10685476Y-15397476D01*
X10837857Y-15578428D02*
X10847381Y-15587952D01*
X10837857Y-15597476D01*
X10828333Y-15587952D01*
X10837857Y-15578428D01*
X10837857Y-15597476D01*
X10971190Y-15397476D02*
X10990238Y-15397476D01*
X11009286Y-15407000D01*
X11018810Y-15416524D01*
X11028333Y-15435571D01*
X11037857Y-15473667D01*
X11037857Y-15521286D01*
X11028333Y-15559381D01*
X11018810Y-15578428D01*
X11009286Y-15587952D01*
X10990238Y-15597476D01*
X10971190Y-15597476D01*
X10952143Y-15587952D01*
X10942619Y-15578428D01*
X10933095Y-15559381D01*
X10923571Y-15521286D01*
X10923571Y-15473667D01*
X10933095Y-15435571D01*
X10942619Y-15416524D01*
X10952143Y-15407000D01*
X10971190Y-15397476D01*
X11114048Y-15416524D02*
X11123571Y-15407000D01*
X11142619Y-15397476D01*
X11190238Y-15397476D01*
X11209286Y-15407000D01*
X11218809Y-15416524D01*
X11228333Y-15435571D01*
X11228333Y-15454619D01*
X11218809Y-15483190D01*
X11104524Y-15597476D01*
X11228333Y-15597476D01*
X11295000Y-15397476D02*
X11418809Y-15397476D01*
X11352143Y-15473667D01*
X11380714Y-15473667D01*
X11399762Y-15483190D01*
X11409286Y-15492714D01*
X11418809Y-15511762D01*
X11418809Y-15559381D01*
X11409286Y-15578428D01*
X11399762Y-15587952D01*
X11380714Y-15597476D01*
X11323571Y-15597476D01*
X11304524Y-15587952D01*
X11295000Y-15578428D01*
X11590238Y-15397476D02*
X11552143Y-15397476D01*
X11533095Y-15407000D01*
X11523571Y-15416524D01*
X11504524Y-15445095D01*
X11495000Y-15483190D01*
X11495000Y-15559381D01*
X11504524Y-15578428D01*
X11514048Y-15587952D01*
X11533095Y-15597476D01*
X11571190Y-15597476D01*
X11590238Y-15587952D01*
X11599762Y-15578428D01*
X11609286Y-15559381D01*
X11609286Y-15511762D01*
X11599762Y-15492714D01*
X11590238Y-15483190D01*
X11571190Y-15473667D01*
X11533095Y-15473667D01*
X11514048Y-15483190D01*
X11504524Y-15492714D01*
X11495000Y-15511762D01*
X11685476Y-15397476D02*
X11685476Y-15435571D01*
X11761667Y-15397476D02*
X11761667Y-15435571D01*
X12056905Y-15673667D02*
X12047381Y-15664143D01*
X12028333Y-15635571D01*
X12018809Y-15616524D01*
X12009286Y-15587952D01*
X11999762Y-15540333D01*
X11999762Y-15502238D01*
X12009286Y-15454619D01*
X12018809Y-15426048D01*
X12028333Y-15407000D01*
X12047381Y-15378428D01*
X12056905Y-15368905D01*
X12171190Y-15397476D02*
X12190238Y-15397476D01*
X12209286Y-15407000D01*
X12218809Y-15416524D01*
X12228333Y-15435571D01*
X12237857Y-15473667D01*
X12237857Y-15521286D01*
X12228333Y-15559381D01*
X12218809Y-15578428D01*
X12209286Y-15587952D01*
X12190238Y-15597476D01*
X12171190Y-15597476D01*
X12152143Y-15587952D01*
X12142619Y-15578428D01*
X12133095Y-15559381D01*
X12123571Y-15521286D01*
X12123571Y-15473667D01*
X12133095Y-15435571D01*
X12142619Y-15416524D01*
X12152143Y-15407000D01*
X12171190Y-15397476D01*
X12475952Y-15597476D02*
X12475952Y-15397476D01*
X12561667Y-15597476D02*
X12561667Y-15492714D01*
X12552143Y-15473667D01*
X12533095Y-15464143D01*
X12504524Y-15464143D01*
X12485476Y-15473667D01*
X12475952Y-15483190D01*
X12685476Y-15597476D02*
X12666428Y-15587952D01*
X12656905Y-15578428D01*
X12647381Y-15559381D01*
X12647381Y-15502238D01*
X12656905Y-15483190D01*
X12666428Y-15473667D01*
X12685476Y-15464143D01*
X12714048Y-15464143D01*
X12733095Y-15473667D01*
X12742619Y-15483190D01*
X12752143Y-15502238D01*
X12752143Y-15559381D01*
X12742619Y-15578428D01*
X12733095Y-15587952D01*
X12714048Y-15597476D01*
X12685476Y-15597476D01*
X12866428Y-15597476D02*
X12847381Y-15587952D01*
X12837857Y-15568905D01*
X12837857Y-15397476D01*
X13018809Y-15587952D02*
X12999762Y-15597476D01*
X12961667Y-15597476D01*
X12942619Y-15587952D01*
X12933095Y-15568905D01*
X12933095Y-15492714D01*
X12942619Y-15473667D01*
X12961667Y-15464143D01*
X12999762Y-15464143D01*
X13018809Y-15473667D01*
X13028333Y-15492714D01*
X13028333Y-15511762D01*
X12933095Y-15530809D01*
X13104524Y-15587952D02*
X13123571Y-15597476D01*
X13161667Y-15597476D01*
X13180714Y-15587952D01*
X13190238Y-15568905D01*
X13190238Y-15559381D01*
X13180714Y-15540333D01*
X13161667Y-15530809D01*
X13133095Y-15530809D01*
X13114048Y-15521286D01*
X13104524Y-15502238D01*
X13104524Y-15492714D01*
X13114048Y-15473667D01*
X13133095Y-15464143D01*
X13161667Y-15464143D01*
X13180714Y-15473667D01*
X13428333Y-15521286D02*
X13580714Y-15521286D01*
X13504524Y-15597476D02*
X13504524Y-15445095D01*
X13914048Y-15464143D02*
X13914048Y-15597476D01*
X13866428Y-15387952D02*
X13818809Y-15530809D01*
X13942619Y-15530809D01*
X14161667Y-15587952D02*
X14180714Y-15597476D01*
X14218809Y-15597476D01*
X14237857Y-15587952D01*
X14247381Y-15568905D01*
X14247381Y-15559381D01*
X14237857Y-15540333D01*
X14218809Y-15530809D01*
X14190238Y-15530809D01*
X14171190Y-15521286D01*
X14161667Y-15502238D01*
X14161667Y-15492714D01*
X14171190Y-15473667D01*
X14190238Y-15464143D01*
X14218809Y-15464143D01*
X14237857Y-15473667D01*
X14361667Y-15597476D02*
X14342619Y-15587952D01*
X14333095Y-15568905D01*
X14333095Y-15397476D01*
X14466428Y-15597476D02*
X14447381Y-15587952D01*
X14437857Y-15578428D01*
X14428333Y-15559381D01*
X14428333Y-15502238D01*
X14437857Y-15483190D01*
X14447381Y-15473667D01*
X14466428Y-15464143D01*
X14495000Y-15464143D01*
X14514048Y-15473667D01*
X14523571Y-15483190D01*
X14533095Y-15502238D01*
X14533095Y-15559381D01*
X14523571Y-15578428D01*
X14514048Y-15587952D01*
X14495000Y-15597476D01*
X14466428Y-15597476D01*
X14590238Y-15464143D02*
X14666428Y-15464143D01*
X14618809Y-15397476D02*
X14618809Y-15568905D01*
X14628333Y-15587952D01*
X14647381Y-15597476D01*
X14666428Y-15597476D01*
X14723571Y-15587952D02*
X14742619Y-15597476D01*
X14780714Y-15597476D01*
X14799762Y-15587952D01*
X14809286Y-15568905D01*
X14809286Y-15559381D01*
X14799762Y-15540333D01*
X14780714Y-15530809D01*
X14752143Y-15530809D01*
X14733095Y-15521286D01*
X14723571Y-15502238D01*
X14723571Y-15492714D01*
X14733095Y-15473667D01*
X14752143Y-15464143D01*
X14780714Y-15464143D01*
X14799762Y-15473667D01*
X14875952Y-15673667D02*
X14885476Y-15664143D01*
X14904524Y-15635571D01*
X14914048Y-15616524D01*
X14923571Y-15587952D01*
X14933095Y-15540333D01*
X14933095Y-15502238D01*
X14923571Y-15454619D01*
X14914048Y-15426048D01*
X14904524Y-15407000D01*
X14885476Y-15378428D01*
X14875952Y-15368905D01*
D16*
X8450000Y-15806000D02*
X8485000Y-15771000D01*
X8450000Y-15736000D01*
X8415000Y-15771000D01*
X8450000Y-15806000D01*
D11*
X8780714Y-15661476D02*
X8799762Y-15661476D01*
X8818810Y-15671000D01*
X8828333Y-15680524D01*
X8837857Y-15699571D01*
X8847381Y-15737667D01*
X8847381Y-15785286D01*
X8837857Y-15823381D01*
X8828333Y-15842428D01*
X8818810Y-15851952D01*
X8799762Y-15861476D01*
X8780714Y-15861476D01*
X8761667Y-15851952D01*
X8752143Y-15842428D01*
X8742619Y-15823381D01*
X8733095Y-15785286D01*
X8733095Y-15737667D01*
X8742619Y-15699571D01*
X8752143Y-15680524D01*
X8761667Y-15671000D01*
X8780714Y-15661476D01*
X8933095Y-15842428D02*
X8942619Y-15851952D01*
X8933095Y-15861476D01*
X8923571Y-15851952D01*
X8933095Y-15842428D01*
X8933095Y-15861476D01*
X9009286Y-15661476D02*
X9142619Y-15661476D01*
X9056905Y-15861476D01*
X9256905Y-15661476D02*
X9275952Y-15661476D01*
X9295000Y-15671000D01*
X9304524Y-15680524D01*
X9314048Y-15699571D01*
X9323571Y-15737667D01*
X9323571Y-15785286D01*
X9314048Y-15823381D01*
X9304524Y-15842428D01*
X9295000Y-15851952D01*
X9275952Y-15861476D01*
X9256905Y-15861476D01*
X9237857Y-15851952D01*
X9228333Y-15842428D01*
X9218810Y-15823381D01*
X9209286Y-15785286D01*
X9209286Y-15737667D01*
X9218810Y-15699571D01*
X9228333Y-15680524D01*
X9237857Y-15671000D01*
X9256905Y-15661476D01*
X9447381Y-15661476D02*
X9466429Y-15661476D01*
X9485476Y-15671000D01*
X9495000Y-15680524D01*
X9504524Y-15699571D01*
X9514048Y-15737667D01*
X9514048Y-15785286D01*
X9504524Y-15823381D01*
X9495000Y-15842428D01*
X9485476Y-15851952D01*
X9466429Y-15861476D01*
X9447381Y-15861476D01*
X9428333Y-15851952D01*
X9418810Y-15842428D01*
X9409286Y-15823381D01*
X9399762Y-15785286D01*
X9399762Y-15737667D01*
X9409286Y-15699571D01*
X9418810Y-15680524D01*
X9428333Y-15671000D01*
X9447381Y-15661476D01*
X9599762Y-15861476D02*
X9599762Y-15728143D01*
X9599762Y-15747190D02*
X9609286Y-15737667D01*
X9628333Y-15728143D01*
X9656905Y-15728143D01*
X9675952Y-15737667D01*
X9685476Y-15756714D01*
X9685476Y-15861476D01*
X9685476Y-15756714D02*
X9695000Y-15737667D01*
X9714048Y-15728143D01*
X9742619Y-15728143D01*
X9761667Y-15737667D01*
X9771190Y-15756714D01*
X9771190Y-15861476D01*
X9866429Y-15861476D02*
X9866429Y-15728143D01*
X9866429Y-15747190D02*
X9875952Y-15737667D01*
X9895000Y-15728143D01*
X9923571Y-15728143D01*
X9942619Y-15737667D01*
X9952143Y-15756714D01*
X9952143Y-15861476D01*
X9952143Y-15756714D02*
X9961667Y-15737667D01*
X9980714Y-15728143D01*
X10009286Y-15728143D01*
X10028333Y-15737667D01*
X10037857Y-15756714D01*
X10037857Y-15861476D01*
X10428333Y-15651952D02*
X10256905Y-15909095D01*
X10685476Y-15661476D02*
X10704524Y-15661476D01*
X10723571Y-15671000D01*
X10733095Y-15680524D01*
X10742619Y-15699571D01*
X10752143Y-15737667D01*
X10752143Y-15785286D01*
X10742619Y-15823381D01*
X10733095Y-15842428D01*
X10723571Y-15851952D01*
X10704524Y-15861476D01*
X10685476Y-15861476D01*
X10666429Y-15851952D01*
X10656905Y-15842428D01*
X10647381Y-15823381D01*
X10637857Y-15785286D01*
X10637857Y-15737667D01*
X10647381Y-15699571D01*
X10656905Y-15680524D01*
X10666429Y-15671000D01*
X10685476Y-15661476D01*
X10837857Y-15842428D02*
X10847381Y-15851952D01*
X10837857Y-15861476D01*
X10828333Y-15851952D01*
X10837857Y-15842428D01*
X10837857Y-15861476D01*
X10971190Y-15661476D02*
X10990238Y-15661476D01*
X11009286Y-15671000D01*
X11018810Y-15680524D01*
X11028333Y-15699571D01*
X11037857Y-15737667D01*
X11037857Y-15785286D01*
X11028333Y-15823381D01*
X11018810Y-15842428D01*
X11009286Y-15851952D01*
X10990238Y-15861476D01*
X10971190Y-15861476D01*
X10952143Y-15851952D01*
X10942619Y-15842428D01*
X10933095Y-15823381D01*
X10923571Y-15785286D01*
X10923571Y-15737667D01*
X10933095Y-15699571D01*
X10942619Y-15680524D01*
X10952143Y-15671000D01*
X10971190Y-15661476D01*
X11114048Y-15680524D02*
X11123571Y-15671000D01*
X11142619Y-15661476D01*
X11190238Y-15661476D01*
X11209286Y-15671000D01*
X11218809Y-15680524D01*
X11228333Y-15699571D01*
X11228333Y-15718619D01*
X11218809Y-15747190D01*
X11104524Y-15861476D01*
X11228333Y-15861476D01*
X11295000Y-15661476D02*
X11428333Y-15661476D01*
X11342619Y-15861476D01*
X11590238Y-15661476D02*
X11552143Y-15661476D01*
X11533095Y-15671000D01*
X11523571Y-15680524D01*
X11504524Y-15709095D01*
X11495000Y-15747190D01*
X11495000Y-15823381D01*
X11504524Y-15842428D01*
X11514048Y-15851952D01*
X11533095Y-15861476D01*
X11571190Y-15861476D01*
X11590238Y-15851952D01*
X11599762Y-15842428D01*
X11609286Y-15823381D01*
X11609286Y-15775762D01*
X11599762Y-15756714D01*
X11590238Y-15747190D01*
X11571190Y-15737667D01*
X11533095Y-15737667D01*
X11514048Y-15747190D01*
X11504524Y-15756714D01*
X11495000Y-15775762D01*
X11685476Y-15661476D02*
X11685476Y-15699571D01*
X11761667Y-15661476D02*
X11761667Y-15699571D01*
X12056905Y-15937667D02*
X12047381Y-15928143D01*
X12028333Y-15899571D01*
X12018809Y-15880524D01*
X12009286Y-15851952D01*
X11999762Y-15804333D01*
X11999762Y-15766238D01*
X12009286Y-15718619D01*
X12018809Y-15690048D01*
X12028333Y-15671000D01*
X12047381Y-15642428D01*
X12056905Y-15632905D01*
X12123571Y-15680524D02*
X12133095Y-15671000D01*
X12152143Y-15661476D01*
X12199762Y-15661476D01*
X12218809Y-15671000D01*
X12228333Y-15680524D01*
X12237857Y-15699571D01*
X12237857Y-15718619D01*
X12228333Y-15747190D01*
X12114048Y-15861476D01*
X12237857Y-15861476D01*
X12361667Y-15661476D02*
X12380714Y-15661476D01*
X12399762Y-15671000D01*
X12409286Y-15680524D01*
X12418809Y-15699571D01*
X12428333Y-15737667D01*
X12428333Y-15785286D01*
X12418809Y-15823381D01*
X12409286Y-15842428D01*
X12399762Y-15851952D01*
X12380714Y-15861476D01*
X12361667Y-15861476D01*
X12342619Y-15851952D01*
X12333095Y-15842428D01*
X12323571Y-15823381D01*
X12314048Y-15785286D01*
X12314048Y-15737667D01*
X12323571Y-15699571D01*
X12333095Y-15680524D01*
X12342619Y-15671000D01*
X12361667Y-15661476D01*
X12666428Y-15861476D02*
X12666428Y-15661476D01*
X12752143Y-15861476D02*
X12752143Y-15756714D01*
X12742619Y-15737667D01*
X12723571Y-15728143D01*
X12695000Y-15728143D01*
X12675952Y-15737667D01*
X12666428Y-15747190D01*
X12875952Y-15861476D02*
X12856905Y-15851952D01*
X12847381Y-15842428D01*
X12837857Y-15823381D01*
X12837857Y-15766238D01*
X12847381Y-15747190D01*
X12856905Y-15737667D01*
X12875952Y-15728143D01*
X12904524Y-15728143D01*
X12923571Y-15737667D01*
X12933095Y-15747190D01*
X12942619Y-15766238D01*
X12942619Y-15823381D01*
X12933095Y-15842428D01*
X12923571Y-15851952D01*
X12904524Y-15861476D01*
X12875952Y-15861476D01*
X13056905Y-15861476D02*
X13037857Y-15851952D01*
X13028333Y-15832905D01*
X13028333Y-15661476D01*
X13209286Y-15851952D02*
X13190238Y-15861476D01*
X13152143Y-15861476D01*
X13133095Y-15851952D01*
X13123571Y-15832905D01*
X13123571Y-15756714D01*
X13133095Y-15737667D01*
X13152143Y-15728143D01*
X13190238Y-15728143D01*
X13209286Y-15737667D01*
X13218809Y-15756714D01*
X13218809Y-15775762D01*
X13123571Y-15794809D01*
X13295000Y-15851952D02*
X13314048Y-15861476D01*
X13352143Y-15861476D01*
X13371190Y-15851952D01*
X13380714Y-15832905D01*
X13380714Y-15823381D01*
X13371190Y-15804333D01*
X13352143Y-15794809D01*
X13323571Y-15794809D01*
X13304524Y-15785286D01*
X13295000Y-15766238D01*
X13295000Y-15756714D01*
X13304524Y-15737667D01*
X13323571Y-15728143D01*
X13352143Y-15728143D01*
X13371190Y-15737667D01*
X13447381Y-15937667D02*
X13456905Y-15928143D01*
X13475952Y-15899571D01*
X13485476Y-15880524D01*
X13495000Y-15851952D01*
X13504524Y-15804333D01*
X13504524Y-15766238D01*
X13495000Y-15718619D01*
X13485476Y-15690048D01*
X13475952Y-15671000D01*
X13456905Y-15642428D01*
X13447381Y-15632905D01*
D17*
X8395000Y-15990000D02*
X8485000Y-16080000D01*
X8485000Y-15990000D02*
X8395000Y-16080000D01*
X8485000Y-16035000D02*
G75*
G03*
X8485000Y-16035000I-45000J0D01*
G01*
D11*
X8780714Y-15925476D02*
X8799762Y-15925476D01*
X8818810Y-15935000D01*
X8828333Y-15944524D01*
X8837857Y-15963571D01*
X8847381Y-16001667D01*
X8847381Y-16049286D01*
X8837857Y-16087381D01*
X8828333Y-16106428D01*
X8818810Y-16115952D01*
X8799762Y-16125476D01*
X8780714Y-16125476D01*
X8761667Y-16115952D01*
X8752143Y-16106428D01*
X8742619Y-16087381D01*
X8733095Y-16049286D01*
X8733095Y-16001667D01*
X8742619Y-15963571D01*
X8752143Y-15944524D01*
X8761667Y-15935000D01*
X8780714Y-15925476D01*
X8933095Y-16106428D02*
X8942619Y-16115952D01*
X8933095Y-16125476D01*
X8923571Y-16115952D01*
X8933095Y-16106428D01*
X8933095Y-16125476D01*
X9037857Y-16125476D02*
X9075952Y-16125476D01*
X9095000Y-16115952D01*
X9104524Y-16106428D01*
X9123571Y-16077857D01*
X9133095Y-16039762D01*
X9133095Y-15963571D01*
X9123571Y-15944524D01*
X9114048Y-15935000D01*
X9095000Y-15925476D01*
X9056905Y-15925476D01*
X9037857Y-15935000D01*
X9028333Y-15944524D01*
X9018810Y-15963571D01*
X9018810Y-16011190D01*
X9028333Y-16030238D01*
X9037857Y-16039762D01*
X9056905Y-16049286D01*
X9095000Y-16049286D01*
X9114048Y-16039762D01*
X9123571Y-16030238D01*
X9133095Y-16011190D01*
X9256905Y-15925476D02*
X9275952Y-15925476D01*
X9295000Y-15935000D01*
X9304524Y-15944524D01*
X9314048Y-15963571D01*
X9323571Y-16001667D01*
X9323571Y-16049286D01*
X9314048Y-16087381D01*
X9304524Y-16106428D01*
X9295000Y-16115952D01*
X9275952Y-16125476D01*
X9256905Y-16125476D01*
X9237857Y-16115952D01*
X9228333Y-16106428D01*
X9218810Y-16087381D01*
X9209286Y-16049286D01*
X9209286Y-16001667D01*
X9218810Y-15963571D01*
X9228333Y-15944524D01*
X9237857Y-15935000D01*
X9256905Y-15925476D01*
X9447381Y-15925476D02*
X9466429Y-15925476D01*
X9485476Y-15935000D01*
X9495000Y-15944524D01*
X9504524Y-15963571D01*
X9514048Y-16001667D01*
X9514048Y-16049286D01*
X9504524Y-16087381D01*
X9495000Y-16106428D01*
X9485476Y-16115952D01*
X9466429Y-16125476D01*
X9447381Y-16125476D01*
X9428333Y-16115952D01*
X9418810Y-16106428D01*
X9409286Y-16087381D01*
X9399762Y-16049286D01*
X9399762Y-16001667D01*
X9409286Y-15963571D01*
X9418810Y-15944524D01*
X9428333Y-15935000D01*
X9447381Y-15925476D01*
X9599762Y-16125476D02*
X9599762Y-15992143D01*
X9599762Y-16011190D02*
X9609286Y-16001667D01*
X9628333Y-15992143D01*
X9656905Y-15992143D01*
X9675952Y-16001667D01*
X9685476Y-16020714D01*
X9685476Y-16125476D01*
X9685476Y-16020714D02*
X9695000Y-16001667D01*
X9714048Y-15992143D01*
X9742619Y-15992143D01*
X9761667Y-16001667D01*
X9771190Y-16020714D01*
X9771190Y-16125476D01*
X9866429Y-16125476D02*
X9866429Y-15992143D01*
X9866429Y-16011190D02*
X9875952Y-16001667D01*
X9895000Y-15992143D01*
X9923571Y-15992143D01*
X9942619Y-16001667D01*
X9952143Y-16020714D01*
X9952143Y-16125476D01*
X9952143Y-16020714D02*
X9961667Y-16001667D01*
X9980714Y-15992143D01*
X10009286Y-15992143D01*
X10028333Y-16001667D01*
X10037857Y-16020714D01*
X10037857Y-16125476D01*
X10428333Y-15915952D02*
X10256905Y-16173095D01*
X10685476Y-15925476D02*
X10704524Y-15925476D01*
X10723571Y-15935000D01*
X10733095Y-15944524D01*
X10742619Y-15963571D01*
X10752143Y-16001667D01*
X10752143Y-16049286D01*
X10742619Y-16087381D01*
X10733095Y-16106428D01*
X10723571Y-16115952D01*
X10704524Y-16125476D01*
X10685476Y-16125476D01*
X10666429Y-16115952D01*
X10656905Y-16106428D01*
X10647381Y-16087381D01*
X10637857Y-16049286D01*
X10637857Y-16001667D01*
X10647381Y-15963571D01*
X10656905Y-15944524D01*
X10666429Y-15935000D01*
X10685476Y-15925476D01*
X10837857Y-16106428D02*
X10847381Y-16115952D01*
X10837857Y-16125476D01*
X10828333Y-16115952D01*
X10837857Y-16106428D01*
X10837857Y-16125476D01*
X10971190Y-15925476D02*
X10990238Y-15925476D01*
X11009286Y-15935000D01*
X11018810Y-15944524D01*
X11028333Y-15963571D01*
X11037857Y-16001667D01*
X11037857Y-16049286D01*
X11028333Y-16087381D01*
X11018810Y-16106428D01*
X11009286Y-16115952D01*
X10990238Y-16125476D01*
X10971190Y-16125476D01*
X10952143Y-16115952D01*
X10942619Y-16106428D01*
X10933095Y-16087381D01*
X10923571Y-16049286D01*
X10923571Y-16001667D01*
X10933095Y-15963571D01*
X10942619Y-15944524D01*
X10952143Y-15935000D01*
X10971190Y-15925476D01*
X11104524Y-15925476D02*
X11228333Y-15925476D01*
X11161667Y-16001667D01*
X11190238Y-16001667D01*
X11209286Y-16011190D01*
X11218809Y-16020714D01*
X11228333Y-16039762D01*
X11228333Y-16087381D01*
X11218809Y-16106428D01*
X11209286Y-16115952D01*
X11190238Y-16125476D01*
X11133095Y-16125476D01*
X11114048Y-16115952D01*
X11104524Y-16106428D01*
X11409286Y-15925476D02*
X11314048Y-15925476D01*
X11304524Y-16020714D01*
X11314048Y-16011190D01*
X11333095Y-16001667D01*
X11380714Y-16001667D01*
X11399762Y-16011190D01*
X11409286Y-16020714D01*
X11418809Y-16039762D01*
X11418809Y-16087381D01*
X11409286Y-16106428D01*
X11399762Y-16115952D01*
X11380714Y-16125476D01*
X11333095Y-16125476D01*
X11314048Y-16115952D01*
X11304524Y-16106428D01*
X11590238Y-15992143D02*
X11590238Y-16125476D01*
X11542619Y-15915952D02*
X11495000Y-16058809D01*
X11618809Y-16058809D01*
X11685476Y-15925476D02*
X11685476Y-15963571D01*
X11761667Y-15925476D02*
X11761667Y-15963571D01*
X12056905Y-16201667D02*
X12047381Y-16192143D01*
X12028333Y-16163571D01*
X12018809Y-16144524D01*
X12009286Y-16115952D01*
X11999762Y-16068333D01*
X11999762Y-16030238D01*
X12009286Y-15982619D01*
X12018809Y-15954048D01*
X12028333Y-15935000D01*
X12047381Y-15906428D01*
X12056905Y-15896905D01*
X12142619Y-16125476D02*
X12180714Y-16125476D01*
X12199762Y-16115952D01*
X12209286Y-16106428D01*
X12228333Y-16077857D01*
X12237857Y-16039762D01*
X12237857Y-15963571D01*
X12228333Y-15944524D01*
X12218809Y-15935000D01*
X12199762Y-15925476D01*
X12161667Y-15925476D01*
X12142619Y-15935000D01*
X12133095Y-15944524D01*
X12123571Y-15963571D01*
X12123571Y-16011190D01*
X12133095Y-16030238D01*
X12142619Y-16039762D01*
X12161667Y-16049286D01*
X12199762Y-16049286D01*
X12218809Y-16039762D01*
X12228333Y-16030238D01*
X12237857Y-16011190D01*
X12475952Y-16125476D02*
X12475952Y-15925476D01*
X12561667Y-16125476D02*
X12561667Y-16020714D01*
X12552143Y-16001667D01*
X12533095Y-15992143D01*
X12504524Y-15992143D01*
X12485476Y-16001667D01*
X12475952Y-16011190D01*
X12685476Y-16125476D02*
X12666428Y-16115952D01*
X12656905Y-16106428D01*
X12647381Y-16087381D01*
X12647381Y-16030238D01*
X12656905Y-16011190D01*
X12666428Y-16001667D01*
X12685476Y-15992143D01*
X12714048Y-15992143D01*
X12733095Y-16001667D01*
X12742619Y-16011190D01*
X12752143Y-16030238D01*
X12752143Y-16087381D01*
X12742619Y-16106428D01*
X12733095Y-16115952D01*
X12714048Y-16125476D01*
X12685476Y-16125476D01*
X12866428Y-16125476D02*
X12847381Y-16115952D01*
X12837857Y-16096905D01*
X12837857Y-15925476D01*
X13018809Y-16115952D02*
X12999762Y-16125476D01*
X12961667Y-16125476D01*
X12942619Y-16115952D01*
X12933095Y-16096905D01*
X12933095Y-16020714D01*
X12942619Y-16001667D01*
X12961667Y-15992143D01*
X12999762Y-15992143D01*
X13018809Y-16001667D01*
X13028333Y-16020714D01*
X13028333Y-16039762D01*
X12933095Y-16058809D01*
X13104524Y-16115952D02*
X13123571Y-16125476D01*
X13161667Y-16125476D01*
X13180714Y-16115952D01*
X13190238Y-16096905D01*
X13190238Y-16087381D01*
X13180714Y-16068333D01*
X13161667Y-16058809D01*
X13133095Y-16058809D01*
X13114048Y-16049286D01*
X13104524Y-16030238D01*
X13104524Y-16020714D01*
X13114048Y-16001667D01*
X13133095Y-15992143D01*
X13161667Y-15992143D01*
X13180714Y-16001667D01*
X13256905Y-16201667D02*
X13266428Y-16192143D01*
X13285476Y-16163571D01*
X13295000Y-16144524D01*
X13304524Y-16115952D01*
X13314048Y-16068333D01*
X13314048Y-16030238D01*
X13304524Y-15982619D01*
X13295000Y-15954048D01*
X13285476Y-15935000D01*
X13266428Y-15906428D01*
X13256905Y-15896905D01*
D18*
X8386000Y-16249500D02*
X8485000Y-16348500D01*
X8485000Y-16249500D02*
X8386000Y-16348500D01*
X8435500Y-16249500D02*
X8435500Y-16348500D01*
X8386000Y-16299000D02*
X8485000Y-16299000D01*
D11*
X8780714Y-16189476D02*
X8799762Y-16189476D01*
X8818810Y-16199000D01*
X8828333Y-16208524D01*
X8837857Y-16227571D01*
X8847381Y-16265667D01*
X8847381Y-16313286D01*
X8837857Y-16351381D01*
X8828333Y-16370428D01*
X8818810Y-16379952D01*
X8799762Y-16389476D01*
X8780714Y-16389476D01*
X8761667Y-16379952D01*
X8752143Y-16370428D01*
X8742619Y-16351381D01*
X8733095Y-16313286D01*
X8733095Y-16265667D01*
X8742619Y-16227571D01*
X8752143Y-16208524D01*
X8761667Y-16199000D01*
X8780714Y-16189476D01*
X8933095Y-16370428D02*
X8942619Y-16379952D01*
X8933095Y-16389476D01*
X8923571Y-16379952D01*
X8933095Y-16370428D01*
X8933095Y-16389476D01*
X9037857Y-16389476D02*
X9075952Y-16389476D01*
X9095000Y-16379952D01*
X9104524Y-16370428D01*
X9123571Y-16341857D01*
X9133095Y-16303762D01*
X9133095Y-16227571D01*
X9123571Y-16208524D01*
X9114048Y-16199000D01*
X9095000Y-16189476D01*
X9056905Y-16189476D01*
X9037857Y-16199000D01*
X9028333Y-16208524D01*
X9018810Y-16227571D01*
X9018810Y-16275190D01*
X9028333Y-16294238D01*
X9037857Y-16303762D01*
X9056905Y-16313286D01*
X9095000Y-16313286D01*
X9114048Y-16303762D01*
X9123571Y-16294238D01*
X9133095Y-16275190D01*
X9228333Y-16389476D02*
X9266429Y-16389476D01*
X9285476Y-16379952D01*
X9295000Y-16370428D01*
X9314048Y-16341857D01*
X9323571Y-16303762D01*
X9323571Y-16227571D01*
X9314048Y-16208524D01*
X9304524Y-16199000D01*
X9285476Y-16189476D01*
X9247381Y-16189476D01*
X9228333Y-16199000D01*
X9218810Y-16208524D01*
X9209286Y-16227571D01*
X9209286Y-16275190D01*
X9218810Y-16294238D01*
X9228333Y-16303762D01*
X9247381Y-16313286D01*
X9285476Y-16313286D01*
X9304524Y-16303762D01*
X9314048Y-16294238D01*
X9323571Y-16275190D01*
X9447381Y-16189476D02*
X9466429Y-16189476D01*
X9485476Y-16199000D01*
X9495000Y-16208524D01*
X9504524Y-16227571D01*
X9514048Y-16265667D01*
X9514048Y-16313286D01*
X9504524Y-16351381D01*
X9495000Y-16370428D01*
X9485476Y-16379952D01*
X9466429Y-16389476D01*
X9447381Y-16389476D01*
X9428333Y-16379952D01*
X9418810Y-16370428D01*
X9409286Y-16351381D01*
X9399762Y-16313286D01*
X9399762Y-16265667D01*
X9409286Y-16227571D01*
X9418810Y-16208524D01*
X9428333Y-16199000D01*
X9447381Y-16189476D01*
X9599762Y-16389476D02*
X9599762Y-16256143D01*
X9599762Y-16275190D02*
X9609286Y-16265667D01*
X9628333Y-16256143D01*
X9656905Y-16256143D01*
X9675952Y-16265667D01*
X9685476Y-16284714D01*
X9685476Y-16389476D01*
X9685476Y-16284714D02*
X9695000Y-16265667D01*
X9714048Y-16256143D01*
X9742619Y-16256143D01*
X9761667Y-16265667D01*
X9771190Y-16284714D01*
X9771190Y-16389476D01*
X9866429Y-16389476D02*
X9866429Y-16256143D01*
X9866429Y-16275190D02*
X9875952Y-16265667D01*
X9895000Y-16256143D01*
X9923571Y-16256143D01*
X9942619Y-16265667D01*
X9952143Y-16284714D01*
X9952143Y-16389476D01*
X9952143Y-16284714D02*
X9961667Y-16265667D01*
X9980714Y-16256143D01*
X10009286Y-16256143D01*
X10028333Y-16265667D01*
X10037857Y-16284714D01*
X10037857Y-16389476D01*
X10428333Y-16179952D02*
X10256905Y-16437095D01*
X10685476Y-16189476D02*
X10704524Y-16189476D01*
X10723571Y-16199000D01*
X10733095Y-16208524D01*
X10742619Y-16227571D01*
X10752143Y-16265667D01*
X10752143Y-16313286D01*
X10742619Y-16351381D01*
X10733095Y-16370428D01*
X10723571Y-16379952D01*
X10704524Y-16389476D01*
X10685476Y-16389476D01*
X10666429Y-16379952D01*
X10656905Y-16370428D01*
X10647381Y-16351381D01*
X10637857Y-16313286D01*
X10637857Y-16265667D01*
X10647381Y-16227571D01*
X10656905Y-16208524D01*
X10666429Y-16199000D01*
X10685476Y-16189476D01*
X10837857Y-16370428D02*
X10847381Y-16379952D01*
X10837857Y-16389476D01*
X10828333Y-16379952D01*
X10837857Y-16370428D01*
X10837857Y-16389476D01*
X10971190Y-16189476D02*
X10990238Y-16189476D01*
X11009286Y-16199000D01*
X11018810Y-16208524D01*
X11028333Y-16227571D01*
X11037857Y-16265667D01*
X11037857Y-16313286D01*
X11028333Y-16351381D01*
X11018810Y-16370428D01*
X11009286Y-16379952D01*
X10990238Y-16389476D01*
X10971190Y-16389476D01*
X10952143Y-16379952D01*
X10942619Y-16370428D01*
X10933095Y-16351381D01*
X10923571Y-16313286D01*
X10923571Y-16265667D01*
X10933095Y-16227571D01*
X10942619Y-16208524D01*
X10952143Y-16199000D01*
X10971190Y-16189476D01*
X11104524Y-16189476D02*
X11228333Y-16189476D01*
X11161667Y-16265667D01*
X11190238Y-16265667D01*
X11209286Y-16275190D01*
X11218809Y-16284714D01*
X11228333Y-16303762D01*
X11228333Y-16351381D01*
X11218809Y-16370428D01*
X11209286Y-16379952D01*
X11190238Y-16389476D01*
X11133095Y-16389476D01*
X11114048Y-16379952D01*
X11104524Y-16370428D01*
X11323571Y-16389476D02*
X11361667Y-16389476D01*
X11380714Y-16379952D01*
X11390238Y-16370428D01*
X11409286Y-16341857D01*
X11418809Y-16303762D01*
X11418809Y-16227571D01*
X11409286Y-16208524D01*
X11399762Y-16199000D01*
X11380714Y-16189476D01*
X11342619Y-16189476D01*
X11323571Y-16199000D01*
X11314048Y-16208524D01*
X11304524Y-16227571D01*
X11304524Y-16275190D01*
X11314048Y-16294238D01*
X11323571Y-16303762D01*
X11342619Y-16313286D01*
X11380714Y-16313286D01*
X11399762Y-16303762D01*
X11409286Y-16294238D01*
X11418809Y-16275190D01*
X11542619Y-16189476D02*
X11561667Y-16189476D01*
X11580714Y-16199000D01*
X11590238Y-16208524D01*
X11599762Y-16227571D01*
X11609286Y-16265667D01*
X11609286Y-16313286D01*
X11599762Y-16351381D01*
X11590238Y-16370428D01*
X11580714Y-16379952D01*
X11561667Y-16389476D01*
X11542619Y-16389476D01*
X11523571Y-16379952D01*
X11514048Y-16370428D01*
X11504524Y-16351381D01*
X11495000Y-16313286D01*
X11495000Y-16265667D01*
X11504524Y-16227571D01*
X11514048Y-16208524D01*
X11523571Y-16199000D01*
X11542619Y-16189476D01*
X11685476Y-16189476D02*
X11685476Y-16227571D01*
X11761667Y-16189476D02*
X11761667Y-16227571D01*
X12056905Y-16465667D02*
X12047381Y-16456143D01*
X12028333Y-16427571D01*
X12018809Y-16408524D01*
X12009286Y-16379952D01*
X11999762Y-16332333D01*
X11999762Y-16294238D01*
X12009286Y-16246619D01*
X12018809Y-16218048D01*
X12028333Y-16199000D01*
X12047381Y-16170428D01*
X12056905Y-16160905D01*
X12123571Y-16208524D02*
X12133095Y-16199000D01*
X12152143Y-16189476D01*
X12199762Y-16189476D01*
X12218809Y-16199000D01*
X12228333Y-16208524D01*
X12237857Y-16227571D01*
X12237857Y-16246619D01*
X12228333Y-16275190D01*
X12114048Y-16389476D01*
X12237857Y-16389476D01*
X12475952Y-16389476D02*
X12475952Y-16189476D01*
X12561667Y-16389476D02*
X12561667Y-16284714D01*
X12552143Y-16265667D01*
X12533095Y-16256143D01*
X12504524Y-16256143D01*
X12485476Y-16265667D01*
X12475952Y-16275190D01*
X12685476Y-16389476D02*
X12666428Y-16379952D01*
X12656905Y-16370428D01*
X12647381Y-16351381D01*
X12647381Y-16294238D01*
X12656905Y-16275190D01*
X12666428Y-16265667D01*
X12685476Y-16256143D01*
X12714048Y-16256143D01*
X12733095Y-16265667D01*
X12742619Y-16275190D01*
X12752143Y-16294238D01*
X12752143Y-16351381D01*
X12742619Y-16370428D01*
X12733095Y-16379952D01*
X12714048Y-16389476D01*
X12685476Y-16389476D01*
X12866428Y-16389476D02*
X12847381Y-16379952D01*
X12837857Y-16360905D01*
X12837857Y-16189476D01*
X13018809Y-16379952D02*
X12999762Y-16389476D01*
X12961667Y-16389476D01*
X12942619Y-16379952D01*
X12933095Y-16360905D01*
X12933095Y-16284714D01*
X12942619Y-16265667D01*
X12961667Y-16256143D01*
X12999762Y-16256143D01*
X13018809Y-16265667D01*
X13028333Y-16284714D01*
X13028333Y-16303762D01*
X12933095Y-16322809D01*
X13104524Y-16379952D02*
X13123571Y-16389476D01*
X13161667Y-16389476D01*
X13180714Y-16379952D01*
X13190238Y-16360905D01*
X13190238Y-16351381D01*
X13180714Y-16332333D01*
X13161667Y-16322809D01*
X13133095Y-16322809D01*
X13114048Y-16313286D01*
X13104524Y-16294238D01*
X13104524Y-16284714D01*
X13114048Y-16265667D01*
X13133095Y-16256143D01*
X13161667Y-16256143D01*
X13180714Y-16265667D01*
X13256905Y-16465667D02*
X13266428Y-16456143D01*
X13285476Y-16427571D01*
X13295000Y-16408524D01*
X13304524Y-16379952D01*
X13314048Y-16332333D01*
X13314048Y-16294238D01*
X13304524Y-16246619D01*
X13295000Y-16218048D01*
X13285476Y-16199000D01*
X13266428Y-16170428D01*
X13256905Y-16160905D01*
D19*
X8355000Y-16498000D02*
X8485000Y-16628000D01*
X8485000Y-16498000D02*
X8355000Y-16628000D01*
X8465962Y-16608962D02*
X8465962Y-16517038D01*
X8374038Y-16517038D01*
X8374038Y-16608962D01*
X8465962Y-16608962D01*
D11*
X8847381Y-16653476D02*
X8733095Y-16653476D01*
X8790238Y-16653476D02*
X8790238Y-16453476D01*
X8771190Y-16482048D01*
X8752143Y-16501095D01*
X8733095Y-16510619D01*
X8933095Y-16634428D02*
X8942619Y-16643952D01*
X8933095Y-16653476D01*
X8923571Y-16643952D01*
X8933095Y-16634428D01*
X8933095Y-16653476D01*
X9009286Y-16453476D02*
X9133095Y-16453476D01*
X9066429Y-16529667D01*
X9095000Y-16529667D01*
X9114048Y-16539190D01*
X9123571Y-16548714D01*
X9133095Y-16567762D01*
X9133095Y-16615381D01*
X9123571Y-16634428D01*
X9114048Y-16643952D01*
X9095000Y-16653476D01*
X9037857Y-16653476D01*
X9018810Y-16643952D01*
X9009286Y-16634428D01*
X9256905Y-16453476D02*
X9275952Y-16453476D01*
X9295000Y-16463000D01*
X9304524Y-16472524D01*
X9314048Y-16491571D01*
X9323571Y-16529667D01*
X9323571Y-16577286D01*
X9314048Y-16615381D01*
X9304524Y-16634428D01*
X9295000Y-16643952D01*
X9275952Y-16653476D01*
X9256905Y-16653476D01*
X9237857Y-16643952D01*
X9228333Y-16634428D01*
X9218810Y-16615381D01*
X9209286Y-16577286D01*
X9209286Y-16529667D01*
X9218810Y-16491571D01*
X9228333Y-16472524D01*
X9237857Y-16463000D01*
X9256905Y-16453476D01*
X9447381Y-16453476D02*
X9466429Y-16453476D01*
X9485476Y-16463000D01*
X9495000Y-16472524D01*
X9504524Y-16491571D01*
X9514048Y-16529667D01*
X9514048Y-16577286D01*
X9504524Y-16615381D01*
X9495000Y-16634428D01*
X9485476Y-16643952D01*
X9466429Y-16653476D01*
X9447381Y-16653476D01*
X9428333Y-16643952D01*
X9418810Y-16634428D01*
X9409286Y-16615381D01*
X9399762Y-16577286D01*
X9399762Y-16529667D01*
X9409286Y-16491571D01*
X9418810Y-16472524D01*
X9428333Y-16463000D01*
X9447381Y-16453476D01*
X9599762Y-16653476D02*
X9599762Y-16520143D01*
X9599762Y-16539190D02*
X9609286Y-16529667D01*
X9628333Y-16520143D01*
X9656905Y-16520143D01*
X9675952Y-16529667D01*
X9685476Y-16548714D01*
X9685476Y-16653476D01*
X9685476Y-16548714D02*
X9695000Y-16529667D01*
X9714048Y-16520143D01*
X9742619Y-16520143D01*
X9761667Y-16529667D01*
X9771190Y-16548714D01*
X9771190Y-16653476D01*
X9866429Y-16653476D02*
X9866429Y-16520143D01*
X9866429Y-16539190D02*
X9875952Y-16529667D01*
X9895000Y-16520143D01*
X9923571Y-16520143D01*
X9942619Y-16529667D01*
X9952143Y-16548714D01*
X9952143Y-16653476D01*
X9952143Y-16548714D02*
X9961667Y-16529667D01*
X9980714Y-16520143D01*
X10009286Y-16520143D01*
X10028333Y-16529667D01*
X10037857Y-16548714D01*
X10037857Y-16653476D01*
X10428333Y-16443952D02*
X10256905Y-16701095D01*
X10685476Y-16453476D02*
X10704524Y-16453476D01*
X10723571Y-16463000D01*
X10733095Y-16472524D01*
X10742619Y-16491571D01*
X10752143Y-16529667D01*
X10752143Y-16577286D01*
X10742619Y-16615381D01*
X10733095Y-16634428D01*
X10723571Y-16643952D01*
X10704524Y-16653476D01*
X10685476Y-16653476D01*
X10666429Y-16643952D01*
X10656905Y-16634428D01*
X10647381Y-16615381D01*
X10637857Y-16577286D01*
X10637857Y-16529667D01*
X10647381Y-16491571D01*
X10656905Y-16472524D01*
X10666429Y-16463000D01*
X10685476Y-16453476D01*
X10837857Y-16634428D02*
X10847381Y-16643952D01*
X10837857Y-16653476D01*
X10828333Y-16643952D01*
X10837857Y-16634428D01*
X10837857Y-16653476D01*
X10971190Y-16453476D02*
X10990238Y-16453476D01*
X11009286Y-16463000D01*
X11018810Y-16472524D01*
X11028333Y-16491571D01*
X11037857Y-16529667D01*
X11037857Y-16577286D01*
X11028333Y-16615381D01*
X11018810Y-16634428D01*
X11009286Y-16643952D01*
X10990238Y-16653476D01*
X10971190Y-16653476D01*
X10952143Y-16643952D01*
X10942619Y-16634428D01*
X10933095Y-16615381D01*
X10923571Y-16577286D01*
X10923571Y-16529667D01*
X10933095Y-16491571D01*
X10942619Y-16472524D01*
X10952143Y-16463000D01*
X10971190Y-16453476D01*
X11218809Y-16453476D02*
X11123571Y-16453476D01*
X11114048Y-16548714D01*
X11123571Y-16539190D01*
X11142619Y-16529667D01*
X11190238Y-16529667D01*
X11209286Y-16539190D01*
X11218809Y-16548714D01*
X11228333Y-16567762D01*
X11228333Y-16615381D01*
X11218809Y-16634428D01*
X11209286Y-16643952D01*
X11190238Y-16653476D01*
X11142619Y-16653476D01*
X11123571Y-16643952D01*
X11114048Y-16634428D01*
X11418809Y-16653476D02*
X11304524Y-16653476D01*
X11361667Y-16653476D02*
X11361667Y-16453476D01*
X11342619Y-16482048D01*
X11323571Y-16501095D01*
X11304524Y-16510619D01*
X11495000Y-16472524D02*
X11504524Y-16463000D01*
X11523571Y-16453476D01*
X11571190Y-16453476D01*
X11590238Y-16463000D01*
X11599762Y-16472524D01*
X11609286Y-16491571D01*
X11609286Y-16510619D01*
X11599762Y-16539190D01*
X11485476Y-16653476D01*
X11609286Y-16653476D01*
X11685476Y-16453476D02*
X11685476Y-16491571D01*
X11761667Y-16453476D02*
X11761667Y-16491571D01*
X12056905Y-16729667D02*
X12047381Y-16720143D01*
X12028333Y-16691571D01*
X12018809Y-16672524D01*
X12009286Y-16643952D01*
X11999762Y-16596333D01*
X11999762Y-16558238D01*
X12009286Y-16510619D01*
X12018809Y-16482048D01*
X12028333Y-16463000D01*
X12047381Y-16434428D01*
X12056905Y-16424905D01*
X12123571Y-16472524D02*
X12133095Y-16463000D01*
X12152143Y-16453476D01*
X12199762Y-16453476D01*
X12218809Y-16463000D01*
X12228333Y-16472524D01*
X12237857Y-16491571D01*
X12237857Y-16510619D01*
X12228333Y-16539190D01*
X12114048Y-16653476D01*
X12237857Y-16653476D01*
X12475952Y-16653476D02*
X12475952Y-16453476D01*
X12561667Y-16653476D02*
X12561667Y-16548714D01*
X12552143Y-16529667D01*
X12533095Y-16520143D01*
X12504524Y-16520143D01*
X12485476Y-16529667D01*
X12475952Y-16539190D01*
X12685476Y-16653476D02*
X12666428Y-16643952D01*
X12656905Y-16634428D01*
X12647381Y-16615381D01*
X12647381Y-16558238D01*
X12656905Y-16539190D01*
X12666428Y-16529667D01*
X12685476Y-16520143D01*
X12714048Y-16520143D01*
X12733095Y-16529667D01*
X12742619Y-16539190D01*
X12752143Y-16558238D01*
X12752143Y-16615381D01*
X12742619Y-16634428D01*
X12733095Y-16643952D01*
X12714048Y-16653476D01*
X12685476Y-16653476D01*
X12866428Y-16653476D02*
X12847381Y-16643952D01*
X12837857Y-16624905D01*
X12837857Y-16453476D01*
X13018809Y-16643952D02*
X12999762Y-16653476D01*
X12961667Y-16653476D01*
X12942619Y-16643952D01*
X12933095Y-16624905D01*
X12933095Y-16548714D01*
X12942619Y-16529667D01*
X12961667Y-16520143D01*
X12999762Y-16520143D01*
X13018809Y-16529667D01*
X13028333Y-16548714D01*
X13028333Y-16567762D01*
X12933095Y-16586809D01*
X13104524Y-16643952D02*
X13123571Y-16653476D01*
X13161667Y-16653476D01*
X13180714Y-16643952D01*
X13190238Y-16624905D01*
X13190238Y-16615381D01*
X13180714Y-16596333D01*
X13161667Y-16586809D01*
X13133095Y-16586809D01*
X13114048Y-16577286D01*
X13104524Y-16558238D01*
X13104524Y-16548714D01*
X13114048Y-16529667D01*
X13133095Y-16520143D01*
X13161667Y-16520143D01*
X13180714Y-16529667D01*
X13256905Y-16729667D02*
X13266428Y-16720143D01*
X13285476Y-16691571D01*
X13295000Y-16672524D01*
X13304524Y-16643952D01*
X13314048Y-16596333D01*
X13314048Y-16558238D01*
X13304524Y-16510619D01*
X13295000Y-16482048D01*
X13285476Y-16463000D01*
X13266428Y-16434428D01*
X13256905Y-16424905D01*
D20*
X8335000Y-16752000D02*
X8485000Y-16902000D01*
X8485000Y-16752000D02*
X8335000Y-16902000D01*
X8410000Y-16902000D02*
X8485000Y-16827000D01*
X8410000Y-16752000D01*
X8335000Y-16827000D01*
X8410000Y-16902000D01*
D11*
X8847381Y-16917476D02*
X8733095Y-16917476D01*
X8790238Y-16917476D02*
X8790238Y-16717476D01*
X8771190Y-16746048D01*
X8752143Y-16765095D01*
X8733095Y-16774619D01*
X8933095Y-16898429D02*
X8942619Y-16907952D01*
X8933095Y-16917476D01*
X8923571Y-16907952D01*
X8933095Y-16898429D01*
X8933095Y-16917476D01*
X9123571Y-16717476D02*
X9028333Y-16717476D01*
X9018810Y-16812714D01*
X9028333Y-16803190D01*
X9047381Y-16793667D01*
X9095000Y-16793667D01*
X9114048Y-16803190D01*
X9123571Y-16812714D01*
X9133095Y-16831762D01*
X9133095Y-16879381D01*
X9123571Y-16898429D01*
X9114048Y-16907952D01*
X9095000Y-16917476D01*
X9047381Y-16917476D01*
X9028333Y-16907952D01*
X9018810Y-16898429D01*
X9256905Y-16717476D02*
X9275952Y-16717476D01*
X9295000Y-16727000D01*
X9304524Y-16736524D01*
X9314048Y-16755571D01*
X9323571Y-16793667D01*
X9323571Y-16841286D01*
X9314048Y-16879381D01*
X9304524Y-16898429D01*
X9295000Y-16907952D01*
X9275952Y-16917476D01*
X9256905Y-16917476D01*
X9237857Y-16907952D01*
X9228333Y-16898429D01*
X9218810Y-16879381D01*
X9209286Y-16841286D01*
X9209286Y-16793667D01*
X9218810Y-16755571D01*
X9228333Y-16736524D01*
X9237857Y-16727000D01*
X9256905Y-16717476D01*
X9447381Y-16717476D02*
X9466429Y-16717476D01*
X9485476Y-16727000D01*
X9495000Y-16736524D01*
X9504524Y-16755571D01*
X9514048Y-16793667D01*
X9514048Y-16841286D01*
X9504524Y-16879381D01*
X9495000Y-16898429D01*
X9485476Y-16907952D01*
X9466429Y-16917476D01*
X9447381Y-16917476D01*
X9428333Y-16907952D01*
X9418810Y-16898429D01*
X9409286Y-16879381D01*
X9399762Y-16841286D01*
X9399762Y-16793667D01*
X9409286Y-16755571D01*
X9418810Y-16736524D01*
X9428333Y-16727000D01*
X9447381Y-16717476D01*
X9599762Y-16917476D02*
X9599762Y-16784143D01*
X9599762Y-16803190D02*
X9609286Y-16793667D01*
X9628333Y-16784143D01*
X9656905Y-16784143D01*
X9675952Y-16793667D01*
X9685476Y-16812714D01*
X9685476Y-16917476D01*
X9685476Y-16812714D02*
X9695000Y-16793667D01*
X9714048Y-16784143D01*
X9742619Y-16784143D01*
X9761667Y-16793667D01*
X9771190Y-16812714D01*
X9771190Y-16917476D01*
X9866429Y-16917476D02*
X9866429Y-16784143D01*
X9866429Y-16803190D02*
X9875952Y-16793667D01*
X9895000Y-16784143D01*
X9923571Y-16784143D01*
X9942619Y-16793667D01*
X9952143Y-16812714D01*
X9952143Y-16917476D01*
X9952143Y-16812714D02*
X9961667Y-16793667D01*
X9980714Y-16784143D01*
X10009286Y-16784143D01*
X10028333Y-16793667D01*
X10037857Y-16812714D01*
X10037857Y-16917476D01*
X10428333Y-16707952D02*
X10256905Y-16965095D01*
X10685476Y-16717476D02*
X10704524Y-16717476D01*
X10723571Y-16727000D01*
X10733095Y-16736524D01*
X10742619Y-16755571D01*
X10752143Y-16793667D01*
X10752143Y-16841286D01*
X10742619Y-16879381D01*
X10733095Y-16898429D01*
X10723571Y-16907952D01*
X10704524Y-16917476D01*
X10685476Y-16917476D01*
X10666429Y-16907952D01*
X10656905Y-16898429D01*
X10647381Y-16879381D01*
X10637857Y-16841286D01*
X10637857Y-16793667D01*
X10647381Y-16755571D01*
X10656905Y-16736524D01*
X10666429Y-16727000D01*
X10685476Y-16717476D01*
X10837857Y-16898429D02*
X10847381Y-16907952D01*
X10837857Y-16917476D01*
X10828333Y-16907952D01*
X10837857Y-16898429D01*
X10837857Y-16917476D01*
X10971190Y-16717476D02*
X10990238Y-16717476D01*
X11009286Y-16727000D01*
X11018810Y-16736524D01*
X11028333Y-16755571D01*
X11037857Y-16793667D01*
X11037857Y-16841286D01*
X11028333Y-16879381D01*
X11018810Y-16898429D01*
X11009286Y-16907952D01*
X10990238Y-16917476D01*
X10971190Y-16917476D01*
X10952143Y-16907952D01*
X10942619Y-16898429D01*
X10933095Y-16879381D01*
X10923571Y-16841286D01*
X10923571Y-16793667D01*
X10933095Y-16755571D01*
X10942619Y-16736524D01*
X10952143Y-16727000D01*
X10971190Y-16717476D01*
X11218809Y-16717476D02*
X11123571Y-16717476D01*
X11114048Y-16812714D01*
X11123571Y-16803190D01*
X11142619Y-16793667D01*
X11190238Y-16793667D01*
X11209286Y-16803190D01*
X11218809Y-16812714D01*
X11228333Y-16831762D01*
X11228333Y-16879381D01*
X11218809Y-16898429D01*
X11209286Y-16907952D01*
X11190238Y-16917476D01*
X11142619Y-16917476D01*
X11123571Y-16907952D01*
X11114048Y-16898429D01*
X11323571Y-16917476D02*
X11361667Y-16917476D01*
X11380714Y-16907952D01*
X11390238Y-16898429D01*
X11409286Y-16869857D01*
X11418809Y-16831762D01*
X11418809Y-16755571D01*
X11409286Y-16736524D01*
X11399762Y-16727000D01*
X11380714Y-16717476D01*
X11342619Y-16717476D01*
X11323571Y-16727000D01*
X11314048Y-16736524D01*
X11304524Y-16755571D01*
X11304524Y-16803190D01*
X11314048Y-16822238D01*
X11323571Y-16831762D01*
X11342619Y-16841286D01*
X11380714Y-16841286D01*
X11399762Y-16831762D01*
X11409286Y-16822238D01*
X11418809Y-16803190D01*
X11609286Y-16917476D02*
X11495000Y-16917476D01*
X11552143Y-16917476D02*
X11552143Y-16717476D01*
X11533095Y-16746048D01*
X11514048Y-16765095D01*
X11495000Y-16774619D01*
X11685476Y-16717476D02*
X11685476Y-16755571D01*
X11761667Y-16717476D02*
X11761667Y-16755571D01*
X12056905Y-16993667D02*
X12047381Y-16984143D01*
X12028333Y-16955571D01*
X12018809Y-16936524D01*
X12009286Y-16907952D01*
X11999762Y-16860333D01*
X11999762Y-16822238D01*
X12009286Y-16774619D01*
X12018809Y-16746048D01*
X12028333Y-16727000D01*
X12047381Y-16698428D01*
X12056905Y-16688905D01*
X12114048Y-16717476D02*
X12247381Y-16717476D01*
X12161667Y-16917476D01*
X12475952Y-16917476D02*
X12475952Y-16717476D01*
X12561667Y-16917476D02*
X12561667Y-16812714D01*
X12552143Y-16793667D01*
X12533095Y-16784143D01*
X12504524Y-16784143D01*
X12485476Y-16793667D01*
X12475952Y-16803190D01*
X12685476Y-16917476D02*
X12666428Y-16907952D01*
X12656905Y-16898429D01*
X12647381Y-16879381D01*
X12647381Y-16822238D01*
X12656905Y-16803190D01*
X12666428Y-16793667D01*
X12685476Y-16784143D01*
X12714048Y-16784143D01*
X12733095Y-16793667D01*
X12742619Y-16803190D01*
X12752143Y-16822238D01*
X12752143Y-16879381D01*
X12742619Y-16898429D01*
X12733095Y-16907952D01*
X12714048Y-16917476D01*
X12685476Y-16917476D01*
X12866428Y-16917476D02*
X12847381Y-16907952D01*
X12837857Y-16888905D01*
X12837857Y-16717476D01*
X13018809Y-16907952D02*
X12999762Y-16917476D01*
X12961667Y-16917476D01*
X12942619Y-16907952D01*
X12933095Y-16888905D01*
X12933095Y-16812714D01*
X12942619Y-16793667D01*
X12961667Y-16784143D01*
X12999762Y-16784143D01*
X13018809Y-16793667D01*
X13028333Y-16812714D01*
X13028333Y-16831762D01*
X12933095Y-16850810D01*
X13104524Y-16907952D02*
X13123571Y-16917476D01*
X13161667Y-16917476D01*
X13180714Y-16907952D01*
X13190238Y-16888905D01*
X13190238Y-16879381D01*
X13180714Y-16860333D01*
X13161667Y-16850810D01*
X13133095Y-16850810D01*
X13114048Y-16841286D01*
X13104524Y-16822238D01*
X13104524Y-16812714D01*
X13114048Y-16793667D01*
X13133095Y-16784143D01*
X13161667Y-16784143D01*
X13180714Y-16793667D01*
X13256905Y-16993667D02*
X13266428Y-16984143D01*
X13285476Y-16955571D01*
X13295000Y-16936524D01*
X13304524Y-16907952D01*
X13314048Y-16860333D01*
X13314048Y-16822238D01*
X13304524Y-16774619D01*
X13295000Y-16746048D01*
X13285476Y-16727000D01*
X13266428Y-16698428D01*
X13256905Y-16688905D01*
X8385000Y-16997000D02*
X8385000Y-17197000D01*
X8285000Y-17097000D02*
X8485000Y-17097000D01*
X8485000Y-17097000D02*
G75*
G03*
X8485000Y-17097000I-100000J0D01*
G01*
X8723571Y-16987476D02*
X8847381Y-16987476D01*
X8780714Y-17063667D01*
X8809286Y-17063667D01*
X8828333Y-17073190D01*
X8837857Y-17082714D01*
X8847381Y-17101762D01*
X8847381Y-17149381D01*
X8837857Y-17168429D01*
X8828333Y-17177952D01*
X8809286Y-17187476D01*
X8752143Y-17187476D01*
X8733095Y-17177952D01*
X8723571Y-17168429D01*
X8933095Y-17168429D02*
X8942619Y-17177952D01*
X8933095Y-17187476D01*
X8923571Y-17177952D01*
X8933095Y-17168429D01*
X8933095Y-17187476D01*
X9018810Y-17006524D02*
X9028333Y-16997000D01*
X9047381Y-16987476D01*
X9095000Y-16987476D01*
X9114048Y-16997000D01*
X9123571Y-17006524D01*
X9133095Y-17025571D01*
X9133095Y-17044619D01*
X9123571Y-17073190D01*
X9009286Y-17187476D01*
X9133095Y-17187476D01*
X9256905Y-16987476D02*
X9275952Y-16987476D01*
X9295000Y-16997000D01*
X9304524Y-17006524D01*
X9314048Y-17025571D01*
X9323571Y-17063667D01*
X9323571Y-17111286D01*
X9314048Y-17149381D01*
X9304524Y-17168429D01*
X9295000Y-17177952D01*
X9275952Y-17187476D01*
X9256905Y-17187476D01*
X9237857Y-17177952D01*
X9228333Y-17168429D01*
X9218810Y-17149381D01*
X9209286Y-17111286D01*
X9209286Y-17063667D01*
X9218810Y-17025571D01*
X9228333Y-17006524D01*
X9237857Y-16997000D01*
X9256905Y-16987476D01*
X9447381Y-16987476D02*
X9466429Y-16987476D01*
X9485476Y-16997000D01*
X9495000Y-17006524D01*
X9504524Y-17025571D01*
X9514048Y-17063667D01*
X9514048Y-17111286D01*
X9504524Y-17149381D01*
X9495000Y-17168429D01*
X9485476Y-17177952D01*
X9466429Y-17187476D01*
X9447381Y-17187476D01*
X9428333Y-17177952D01*
X9418810Y-17168429D01*
X9409286Y-17149381D01*
X9399762Y-17111286D01*
X9399762Y-17063667D01*
X9409286Y-17025571D01*
X9418810Y-17006524D01*
X9428333Y-16997000D01*
X9447381Y-16987476D01*
X9599762Y-17187476D02*
X9599762Y-17054143D01*
X9599762Y-17073190D02*
X9609286Y-17063667D01*
X9628333Y-17054143D01*
X9656905Y-17054143D01*
X9675952Y-17063667D01*
X9685476Y-17082714D01*
X9685476Y-17187476D01*
X9685476Y-17082714D02*
X9695000Y-17063667D01*
X9714048Y-17054143D01*
X9742619Y-17054143D01*
X9761667Y-17063667D01*
X9771190Y-17082714D01*
X9771190Y-17187476D01*
X9866429Y-17187476D02*
X9866429Y-17054143D01*
X9866429Y-17073190D02*
X9875952Y-17063667D01*
X9895000Y-17054143D01*
X9923571Y-17054143D01*
X9942619Y-17063667D01*
X9952143Y-17082714D01*
X9952143Y-17187476D01*
X9952143Y-17082714D02*
X9961667Y-17063667D01*
X9980714Y-17054143D01*
X10009286Y-17054143D01*
X10028333Y-17063667D01*
X10037857Y-17082714D01*
X10037857Y-17187476D01*
X10428333Y-16977952D02*
X10256905Y-17235095D01*
X10685476Y-16987476D02*
X10704524Y-16987476D01*
X10723571Y-16997000D01*
X10733095Y-17006524D01*
X10742619Y-17025571D01*
X10752143Y-17063667D01*
X10752143Y-17111286D01*
X10742619Y-17149381D01*
X10733095Y-17168429D01*
X10723571Y-17177952D01*
X10704524Y-17187476D01*
X10685476Y-17187476D01*
X10666429Y-17177952D01*
X10656905Y-17168429D01*
X10647381Y-17149381D01*
X10637857Y-17111286D01*
X10637857Y-17063667D01*
X10647381Y-17025571D01*
X10656905Y-17006524D01*
X10666429Y-16997000D01*
X10685476Y-16987476D01*
X10837857Y-17168429D02*
X10847381Y-17177952D01*
X10837857Y-17187476D01*
X10828333Y-17177952D01*
X10837857Y-17168429D01*
X10837857Y-17187476D01*
X11037857Y-17187476D02*
X10923571Y-17187476D01*
X10980714Y-17187476D02*
X10980714Y-16987476D01*
X10961667Y-17016048D01*
X10942619Y-17035095D01*
X10923571Y-17044619D01*
X11114048Y-17006524D02*
X11123571Y-16997000D01*
X11142619Y-16987476D01*
X11190238Y-16987476D01*
X11209286Y-16997000D01*
X11218809Y-17006524D01*
X11228333Y-17025571D01*
X11228333Y-17044619D01*
X11218809Y-17073190D01*
X11104524Y-17187476D01*
X11228333Y-17187476D01*
X11399762Y-16987476D02*
X11361667Y-16987476D01*
X11342619Y-16997000D01*
X11333095Y-17006524D01*
X11314048Y-17035095D01*
X11304524Y-17073190D01*
X11304524Y-17149381D01*
X11314048Y-17168429D01*
X11323571Y-17177952D01*
X11342619Y-17187476D01*
X11380714Y-17187476D01*
X11399762Y-17177952D01*
X11409286Y-17168429D01*
X11418809Y-17149381D01*
X11418809Y-17101762D01*
X11409286Y-17082714D01*
X11399762Y-17073190D01*
X11380714Y-17063667D01*
X11342619Y-17063667D01*
X11323571Y-17073190D01*
X11314048Y-17082714D01*
X11304524Y-17101762D01*
X11542619Y-16987476D02*
X11561667Y-16987476D01*
X11580714Y-16997000D01*
X11590238Y-17006524D01*
X11599762Y-17025571D01*
X11609286Y-17063667D01*
X11609286Y-17111286D01*
X11599762Y-17149381D01*
X11590238Y-17168429D01*
X11580714Y-17177952D01*
X11561667Y-17187476D01*
X11542619Y-17187476D01*
X11523571Y-17177952D01*
X11514048Y-17168429D01*
X11504524Y-17149381D01*
X11495000Y-17111286D01*
X11495000Y-17063667D01*
X11504524Y-17025571D01*
X11514048Y-17006524D01*
X11523571Y-16997000D01*
X11542619Y-16987476D01*
X11685476Y-16987476D02*
X11685476Y-17025571D01*
X11761667Y-16987476D02*
X11761667Y-17025571D01*
X12056905Y-17263667D02*
X12047381Y-17254143D01*
X12028333Y-17225571D01*
X12018809Y-17206524D01*
X12009286Y-17177952D01*
X11999762Y-17130333D01*
X11999762Y-17092238D01*
X12009286Y-17044619D01*
X12018809Y-17016048D01*
X12028333Y-16997000D01*
X12047381Y-16968429D01*
X12056905Y-16958905D01*
X12218809Y-17054143D02*
X12218809Y-17187476D01*
X12171190Y-16977952D02*
X12123571Y-17120810D01*
X12247381Y-17120810D01*
X12475952Y-17187476D02*
X12475952Y-16987476D01*
X12561667Y-17187476D02*
X12561667Y-17082714D01*
X12552143Y-17063667D01*
X12533095Y-17054143D01*
X12504524Y-17054143D01*
X12485476Y-17063667D01*
X12475952Y-17073190D01*
X12685476Y-17187476D02*
X12666428Y-17177952D01*
X12656905Y-17168429D01*
X12647381Y-17149381D01*
X12647381Y-17092238D01*
X12656905Y-17073190D01*
X12666428Y-17063667D01*
X12685476Y-17054143D01*
X12714048Y-17054143D01*
X12733095Y-17063667D01*
X12742619Y-17073190D01*
X12752143Y-17092238D01*
X12752143Y-17149381D01*
X12742619Y-17168429D01*
X12733095Y-17177952D01*
X12714048Y-17187476D01*
X12685476Y-17187476D01*
X12866428Y-17187476D02*
X12847381Y-17177952D01*
X12837857Y-17158905D01*
X12837857Y-16987476D01*
X13018809Y-17177952D02*
X12999762Y-17187476D01*
X12961667Y-17187476D01*
X12942619Y-17177952D01*
X12933095Y-17158905D01*
X12933095Y-17082714D01*
X12942619Y-17063667D01*
X12961667Y-17054143D01*
X12999762Y-17054143D01*
X13018809Y-17063667D01*
X13028333Y-17082714D01*
X13028333Y-17101762D01*
X12933095Y-17120810D01*
X13104524Y-17177952D02*
X13123571Y-17187476D01*
X13161667Y-17187476D01*
X13180714Y-17177952D01*
X13190238Y-17158905D01*
X13190238Y-17149381D01*
X13180714Y-17130333D01*
X13161667Y-17120810D01*
X13133095Y-17120810D01*
X13114048Y-17111286D01*
X13104524Y-17092238D01*
X13104524Y-17082714D01*
X13114048Y-17063667D01*
X13133095Y-17054143D01*
X13161667Y-17054143D01*
X13180714Y-17063667D01*
X13256905Y-17263667D02*
X13266428Y-17254143D01*
X13285476Y-17225571D01*
X13295000Y-17206524D01*
X13304524Y-17177952D01*
X13314048Y-17130333D01*
X13314048Y-17092238D01*
X13304524Y-17044619D01*
X13295000Y-17016048D01*
X13285476Y-16997000D01*
X13266428Y-16968429D01*
X13256905Y-16958905D01*
M02*
