%TF.GenerationSoftware,KiCad,Pcbnew,6.0.9-8da3e8f707~117~ubuntu20.04.1*%
%TF.CreationDate,2022-12-12T12:45:44+01:00*%
%TF.ProjectId,Adaptateur-USB-Xbee-2,41646170-7461-4746-9575-722d5553422d,rev?*%
%TF.SameCoordinates,Original*%
%TF.FileFunction,Drillmap*%
%TF.FilePolarity,Positive*%
%FSLAX45Y45*%
G04 Gerber Fmt 4.5, Leading zero omitted, Abs format (unit mm)*
G04 Created by KiCad (PCBNEW 6.0.9-8da3e8f707~117~ubuntu20.04.1) date 2022-12-12 12:45:44*
%MOMM*%
%LPD*%
G01*
G04 APERTURE LIST*
%ADD10C,0.300000*%
%ADD11C,0.200000*%
%ADD12C,0.065000*%
G04 APERTURE END LIST*
D10*
X14250000Y-8400000D02*
X10970000Y-8400000D01*
X8500000Y-8400000D02*
X8500000Y-14060000D01*
X10300000Y-8730000D02*
G75*
G03*
X10970000Y-8730000I335000J11699D01*
G01*
X10970000Y-8400000D02*
X10970000Y-8730000D01*
X10970000Y-14060000D02*
X14250000Y-14060000D01*
X10970000Y-13720000D02*
G75*
G03*
X10300000Y-13720000I-335000J-11699D01*
G01*
X10300000Y-14060000D02*
X10300000Y-13720000D01*
X14250000Y-14060000D02*
X14250000Y-8400000D01*
X10300000Y-8730000D02*
X10300000Y-8400000D01*
X10970000Y-13720000D02*
X10970000Y-14060000D01*
X10300000Y-8400000D02*
X8500000Y-8400000D01*
X8500000Y-14060000D02*
X10300000Y-14060000D01*
D11*
D12*
X9060250Y-10909000D02*
X9125250Y-10974000D01*
X9125250Y-10909000D02*
X9060250Y-10974000D01*
X9060250Y-11487000D02*
X9125250Y-11552000D01*
X9125250Y-11487000D02*
X9060250Y-11552000D01*
D11*
X8742619Y-14385476D02*
X8742619Y-14185476D01*
X8790238Y-14185476D01*
X8818810Y-14195000D01*
X8837857Y-14214048D01*
X8847381Y-14233095D01*
X8856905Y-14271190D01*
X8856905Y-14299762D01*
X8847381Y-14337857D01*
X8837857Y-14356905D01*
X8818810Y-14375952D01*
X8790238Y-14385476D01*
X8742619Y-14385476D01*
X8942619Y-14385476D02*
X8942619Y-14252143D01*
X8942619Y-14290238D02*
X8952143Y-14271190D01*
X8961667Y-14261667D01*
X8980714Y-14252143D01*
X8999762Y-14252143D01*
X9066429Y-14385476D02*
X9066429Y-14252143D01*
X9066429Y-14185476D02*
X9056905Y-14195000D01*
X9066429Y-14204524D01*
X9075952Y-14195000D01*
X9066429Y-14185476D01*
X9066429Y-14204524D01*
X9190238Y-14385476D02*
X9171190Y-14375952D01*
X9161667Y-14356905D01*
X9161667Y-14185476D01*
X9295000Y-14385476D02*
X9275952Y-14375952D01*
X9266429Y-14356905D01*
X9266429Y-14185476D01*
X9523571Y-14385476D02*
X9523571Y-14185476D01*
X9590238Y-14328333D01*
X9656905Y-14185476D01*
X9656905Y-14385476D01*
X9837857Y-14385476D02*
X9837857Y-14280714D01*
X9828333Y-14261667D01*
X9809286Y-14252143D01*
X9771190Y-14252143D01*
X9752143Y-14261667D01*
X9837857Y-14375952D02*
X9818810Y-14385476D01*
X9771190Y-14385476D01*
X9752143Y-14375952D01*
X9742619Y-14356905D01*
X9742619Y-14337857D01*
X9752143Y-14318809D01*
X9771190Y-14309286D01*
X9818810Y-14309286D01*
X9837857Y-14299762D01*
X9933095Y-14252143D02*
X9933095Y-14452143D01*
X9933095Y-14261667D02*
X9952143Y-14252143D01*
X9990238Y-14252143D01*
X10009286Y-14261667D01*
X10018810Y-14271190D01*
X10028333Y-14290238D01*
X10028333Y-14347381D01*
X10018810Y-14366428D01*
X10009286Y-14375952D01*
X9990238Y-14385476D01*
X9952143Y-14385476D01*
X9933095Y-14375952D01*
X10114048Y-14366428D02*
X10123571Y-14375952D01*
X10114048Y-14385476D01*
X10104524Y-14375952D01*
X10114048Y-14366428D01*
X10114048Y-14385476D01*
X10114048Y-14261667D02*
X10123571Y-14271190D01*
X10114048Y-14280714D01*
X10104524Y-14271190D01*
X10114048Y-14261667D01*
X10114048Y-14280714D01*
D12*
X8420000Y-14682500D02*
X8485000Y-14747500D01*
X8485000Y-14682500D02*
X8420000Y-14747500D01*
D11*
X8780714Y-14605476D02*
X8799762Y-14605476D01*
X8818810Y-14615000D01*
X8828333Y-14624524D01*
X8837857Y-14643571D01*
X8847381Y-14681667D01*
X8847381Y-14729286D01*
X8837857Y-14767381D01*
X8828333Y-14786428D01*
X8818810Y-14795952D01*
X8799762Y-14805476D01*
X8780714Y-14805476D01*
X8761667Y-14795952D01*
X8752143Y-14786428D01*
X8742619Y-14767381D01*
X8733095Y-14729286D01*
X8733095Y-14681667D01*
X8742619Y-14643571D01*
X8752143Y-14624524D01*
X8761667Y-14615000D01*
X8780714Y-14605476D01*
X8933095Y-14786428D02*
X8942619Y-14795952D01*
X8933095Y-14805476D01*
X8923571Y-14795952D01*
X8933095Y-14786428D01*
X8933095Y-14805476D01*
X9114048Y-14605476D02*
X9075952Y-14605476D01*
X9056905Y-14615000D01*
X9047381Y-14624524D01*
X9028333Y-14653095D01*
X9018810Y-14691190D01*
X9018810Y-14767381D01*
X9028333Y-14786428D01*
X9037857Y-14795952D01*
X9056905Y-14805476D01*
X9095000Y-14805476D01*
X9114048Y-14795952D01*
X9123571Y-14786428D01*
X9133095Y-14767381D01*
X9133095Y-14719762D01*
X9123571Y-14700714D01*
X9114048Y-14691190D01*
X9095000Y-14681667D01*
X9056905Y-14681667D01*
X9037857Y-14691190D01*
X9028333Y-14700714D01*
X9018810Y-14719762D01*
X9314048Y-14605476D02*
X9218810Y-14605476D01*
X9209286Y-14700714D01*
X9218810Y-14691190D01*
X9237857Y-14681667D01*
X9285476Y-14681667D01*
X9304524Y-14691190D01*
X9314048Y-14700714D01*
X9323571Y-14719762D01*
X9323571Y-14767381D01*
X9314048Y-14786428D01*
X9304524Y-14795952D01*
X9285476Y-14805476D01*
X9237857Y-14805476D01*
X9218810Y-14795952D01*
X9209286Y-14786428D01*
X9447381Y-14605476D02*
X9466429Y-14605476D01*
X9485476Y-14615000D01*
X9495000Y-14624524D01*
X9504524Y-14643571D01*
X9514048Y-14681667D01*
X9514048Y-14729286D01*
X9504524Y-14767381D01*
X9495000Y-14786428D01*
X9485476Y-14795952D01*
X9466429Y-14805476D01*
X9447381Y-14805476D01*
X9428333Y-14795952D01*
X9418810Y-14786428D01*
X9409286Y-14767381D01*
X9399762Y-14729286D01*
X9399762Y-14681667D01*
X9409286Y-14643571D01*
X9418810Y-14624524D01*
X9428333Y-14615000D01*
X9447381Y-14605476D01*
X9599762Y-14805476D02*
X9599762Y-14672143D01*
X9599762Y-14691190D02*
X9609286Y-14681667D01*
X9628333Y-14672143D01*
X9656905Y-14672143D01*
X9675952Y-14681667D01*
X9685476Y-14700714D01*
X9685476Y-14805476D01*
X9685476Y-14700714D02*
X9695000Y-14681667D01*
X9714048Y-14672143D01*
X9742619Y-14672143D01*
X9761667Y-14681667D01*
X9771190Y-14700714D01*
X9771190Y-14805476D01*
X9866429Y-14805476D02*
X9866429Y-14672143D01*
X9866429Y-14691190D02*
X9875952Y-14681667D01*
X9895000Y-14672143D01*
X9923571Y-14672143D01*
X9942619Y-14681667D01*
X9952143Y-14700714D01*
X9952143Y-14805476D01*
X9952143Y-14700714D02*
X9961667Y-14681667D01*
X9980714Y-14672143D01*
X10009286Y-14672143D01*
X10028333Y-14681667D01*
X10037857Y-14700714D01*
X10037857Y-14805476D01*
X10428333Y-14595952D02*
X10256905Y-14853095D01*
X10685476Y-14605476D02*
X10704524Y-14605476D01*
X10723571Y-14615000D01*
X10733095Y-14624524D01*
X10742619Y-14643571D01*
X10752143Y-14681667D01*
X10752143Y-14729286D01*
X10742619Y-14767381D01*
X10733095Y-14786428D01*
X10723571Y-14795952D01*
X10704524Y-14805476D01*
X10685476Y-14805476D01*
X10666429Y-14795952D01*
X10656905Y-14786428D01*
X10647381Y-14767381D01*
X10637857Y-14729286D01*
X10637857Y-14681667D01*
X10647381Y-14643571D01*
X10656905Y-14624524D01*
X10666429Y-14615000D01*
X10685476Y-14605476D01*
X10837857Y-14786428D02*
X10847381Y-14795952D01*
X10837857Y-14805476D01*
X10828333Y-14795952D01*
X10837857Y-14786428D01*
X10837857Y-14805476D01*
X10971190Y-14605476D02*
X10990238Y-14605476D01*
X11009286Y-14615000D01*
X11018810Y-14624524D01*
X11028333Y-14643571D01*
X11037857Y-14681667D01*
X11037857Y-14729286D01*
X11028333Y-14767381D01*
X11018810Y-14786428D01*
X11009286Y-14795952D01*
X10990238Y-14805476D01*
X10971190Y-14805476D01*
X10952143Y-14795952D01*
X10942619Y-14786428D01*
X10933095Y-14767381D01*
X10923571Y-14729286D01*
X10923571Y-14681667D01*
X10933095Y-14643571D01*
X10942619Y-14624524D01*
X10952143Y-14615000D01*
X10971190Y-14605476D01*
X11114048Y-14624524D02*
X11123571Y-14615000D01*
X11142619Y-14605476D01*
X11190238Y-14605476D01*
X11209286Y-14615000D01*
X11218809Y-14624524D01*
X11228333Y-14643571D01*
X11228333Y-14662619D01*
X11218809Y-14691190D01*
X11104524Y-14805476D01*
X11228333Y-14805476D01*
X11409286Y-14605476D02*
X11314048Y-14605476D01*
X11304524Y-14700714D01*
X11314048Y-14691190D01*
X11333095Y-14681667D01*
X11380714Y-14681667D01*
X11399762Y-14691190D01*
X11409286Y-14700714D01*
X11418809Y-14719762D01*
X11418809Y-14767381D01*
X11409286Y-14786428D01*
X11399762Y-14795952D01*
X11380714Y-14805476D01*
X11333095Y-14805476D01*
X11314048Y-14795952D01*
X11304524Y-14786428D01*
X11590238Y-14605476D02*
X11552143Y-14605476D01*
X11533095Y-14615000D01*
X11523571Y-14624524D01*
X11504524Y-14653095D01*
X11495000Y-14691190D01*
X11495000Y-14767381D01*
X11504524Y-14786428D01*
X11514048Y-14795952D01*
X11533095Y-14805476D01*
X11571190Y-14805476D01*
X11590238Y-14795952D01*
X11599762Y-14786428D01*
X11609286Y-14767381D01*
X11609286Y-14719762D01*
X11599762Y-14700714D01*
X11590238Y-14691190D01*
X11571190Y-14681667D01*
X11533095Y-14681667D01*
X11514048Y-14691190D01*
X11504524Y-14700714D01*
X11495000Y-14719762D01*
X11685476Y-14605476D02*
X11685476Y-14643571D01*
X11761667Y-14605476D02*
X11761667Y-14643571D01*
X12056905Y-14881667D02*
X12047381Y-14872143D01*
X12028333Y-14843571D01*
X12018809Y-14824524D01*
X12009286Y-14795952D01*
X11999762Y-14748333D01*
X11999762Y-14710238D01*
X12009286Y-14662619D01*
X12018809Y-14634048D01*
X12028333Y-14615000D01*
X12047381Y-14586428D01*
X12056905Y-14576905D01*
X12123571Y-14624524D02*
X12133095Y-14615000D01*
X12152143Y-14605476D01*
X12199762Y-14605476D01*
X12218809Y-14615000D01*
X12228333Y-14624524D01*
X12237857Y-14643571D01*
X12237857Y-14662619D01*
X12228333Y-14691190D01*
X12114048Y-14805476D01*
X12237857Y-14805476D01*
X12475952Y-14805476D02*
X12475952Y-14605476D01*
X12561667Y-14805476D02*
X12561667Y-14700714D01*
X12552143Y-14681667D01*
X12533095Y-14672143D01*
X12504524Y-14672143D01*
X12485476Y-14681667D01*
X12475952Y-14691190D01*
X12685476Y-14805476D02*
X12666428Y-14795952D01*
X12656905Y-14786428D01*
X12647381Y-14767381D01*
X12647381Y-14710238D01*
X12656905Y-14691190D01*
X12666428Y-14681667D01*
X12685476Y-14672143D01*
X12714048Y-14672143D01*
X12733095Y-14681667D01*
X12742619Y-14691190D01*
X12752143Y-14710238D01*
X12752143Y-14767381D01*
X12742619Y-14786428D01*
X12733095Y-14795952D01*
X12714048Y-14805476D01*
X12685476Y-14805476D01*
X12866428Y-14805476D02*
X12847381Y-14795952D01*
X12837857Y-14776905D01*
X12837857Y-14605476D01*
X13018809Y-14795952D02*
X12999762Y-14805476D01*
X12961667Y-14805476D01*
X12942619Y-14795952D01*
X12933095Y-14776905D01*
X12933095Y-14700714D01*
X12942619Y-14681667D01*
X12961667Y-14672143D01*
X12999762Y-14672143D01*
X13018809Y-14681667D01*
X13028333Y-14700714D01*
X13028333Y-14719762D01*
X12933095Y-14738809D01*
X13104524Y-14795952D02*
X13123571Y-14805476D01*
X13161667Y-14805476D01*
X13180714Y-14795952D01*
X13190238Y-14776905D01*
X13190238Y-14767381D01*
X13180714Y-14748333D01*
X13161667Y-14738809D01*
X13133095Y-14738809D01*
X13114048Y-14729286D01*
X13104524Y-14710238D01*
X13104524Y-14700714D01*
X13114048Y-14681667D01*
X13133095Y-14672143D01*
X13161667Y-14672143D01*
X13180714Y-14681667D01*
X13256905Y-14881667D02*
X13266428Y-14872143D01*
X13285476Y-14843571D01*
X13295000Y-14824524D01*
X13304524Y-14795952D01*
X13314048Y-14748333D01*
X13314048Y-14710238D01*
X13304524Y-14662619D01*
X13295000Y-14634048D01*
X13285476Y-14615000D01*
X13266428Y-14586428D01*
X13256905Y-14576905D01*
X13618809Y-14881667D02*
X13609286Y-14872143D01*
X13590238Y-14843571D01*
X13580714Y-14824524D01*
X13571190Y-14795952D01*
X13561667Y-14748333D01*
X13561667Y-14710238D01*
X13571190Y-14662619D01*
X13580714Y-14634048D01*
X13590238Y-14615000D01*
X13609286Y-14586428D01*
X13618809Y-14576905D01*
X13695000Y-14672143D02*
X13695000Y-14805476D01*
X13695000Y-14691190D02*
X13704524Y-14681667D01*
X13723571Y-14672143D01*
X13752143Y-14672143D01*
X13771190Y-14681667D01*
X13780714Y-14700714D01*
X13780714Y-14805476D01*
X13904524Y-14805476D02*
X13885476Y-14795952D01*
X13875952Y-14786428D01*
X13866428Y-14767381D01*
X13866428Y-14710238D01*
X13875952Y-14691190D01*
X13885476Y-14681667D01*
X13904524Y-14672143D01*
X13933095Y-14672143D01*
X13952143Y-14681667D01*
X13961667Y-14691190D01*
X13971190Y-14710238D01*
X13971190Y-14767381D01*
X13961667Y-14786428D01*
X13952143Y-14795952D01*
X13933095Y-14805476D01*
X13904524Y-14805476D01*
X14028333Y-14672143D02*
X14104524Y-14672143D01*
X14056905Y-14605476D02*
X14056905Y-14776905D01*
X14066428Y-14795952D01*
X14085476Y-14805476D01*
X14104524Y-14805476D01*
X14323571Y-14672143D02*
X14323571Y-14872143D01*
X14323571Y-14681667D02*
X14342619Y-14672143D01*
X14380714Y-14672143D01*
X14399762Y-14681667D01*
X14409286Y-14691190D01*
X14418809Y-14710238D01*
X14418809Y-14767381D01*
X14409286Y-14786428D01*
X14399762Y-14795952D01*
X14380714Y-14805476D01*
X14342619Y-14805476D01*
X14323571Y-14795952D01*
X14533095Y-14805476D02*
X14514048Y-14795952D01*
X14504524Y-14776905D01*
X14504524Y-14605476D01*
X14695000Y-14805476D02*
X14695000Y-14700714D01*
X14685476Y-14681667D01*
X14666428Y-14672143D01*
X14628333Y-14672143D01*
X14609286Y-14681667D01*
X14695000Y-14795952D02*
X14675952Y-14805476D01*
X14628333Y-14805476D01*
X14609286Y-14795952D01*
X14599762Y-14776905D01*
X14599762Y-14757857D01*
X14609286Y-14738809D01*
X14628333Y-14729286D01*
X14675952Y-14729286D01*
X14695000Y-14719762D01*
X14761667Y-14672143D02*
X14837857Y-14672143D01*
X14790238Y-14605476D02*
X14790238Y-14776905D01*
X14799762Y-14795952D01*
X14818809Y-14805476D01*
X14837857Y-14805476D01*
X14980714Y-14795952D02*
X14961667Y-14805476D01*
X14923571Y-14805476D01*
X14904524Y-14795952D01*
X14895000Y-14776905D01*
X14895000Y-14700714D01*
X14904524Y-14681667D01*
X14923571Y-14672143D01*
X14961667Y-14672143D01*
X14980714Y-14681667D01*
X14990238Y-14700714D01*
X14990238Y-14719762D01*
X14895000Y-14738809D01*
X15161667Y-14805476D02*
X15161667Y-14605476D01*
X15161667Y-14795952D02*
X15142619Y-14805476D01*
X15104524Y-14805476D01*
X15085476Y-14795952D01*
X15075952Y-14786428D01*
X15066428Y-14767381D01*
X15066428Y-14710238D01*
X15075952Y-14691190D01*
X15085476Y-14681667D01*
X15104524Y-14672143D01*
X15142619Y-14672143D01*
X15161667Y-14681667D01*
X15237857Y-14881667D02*
X15247381Y-14872143D01*
X15266428Y-14843571D01*
X15275952Y-14824524D01*
X15285476Y-14795952D01*
X15295000Y-14748333D01*
X15295000Y-14710238D01*
X15285476Y-14662619D01*
X15275952Y-14634048D01*
X15266428Y-14615000D01*
X15247381Y-14586428D01*
X15237857Y-14576905D01*
M02*
