%TF.GenerationSoftware,KiCad,Pcbnew,6.0.10-86aedd382b~118~ubuntu20.04.1*%
%TF.CreationDate,2023-01-16T10:09:38+01:00*%
%TF.ProjectId,Adaptateur-USB-Xbee-2,41646170-7461-4746-9575-722d5553422d,rev?*%
%TF.SameCoordinates,Original*%
%TF.FileFunction,Paste,Top*%
%TF.FilePolarity,Positive*%
%FSLAX46Y46*%
G04 Gerber Fmt 4.6, Leading zero omitted, Abs format (unit mm)*
G04 Created by KiCad (PCBNEW 6.0.10-86aedd382b~118~ubuntu20.04.1) date 2023-01-16 10:09:38*
%MOMM*%
%LPD*%
G01*
G04 APERTURE LIST*
G04 Aperture macros list*
%AMRoundRect*
0 Rectangle with rounded corners*
0 $1 Rounding radius*
0 $2 $3 $4 $5 $6 $7 $8 $9 X,Y pos of 4 corners*
0 Add a 4 corners polygon primitive as box body*
4,1,4,$2,$3,$4,$5,$6,$7,$8,$9,$2,$3,0*
0 Add four circle primitives for the rounded corners*
1,1,$1+$1,$2,$3*
1,1,$1+$1,$4,$5*
1,1,$1+$1,$6,$7*
1,1,$1+$1,$8,$9*
0 Add four rect primitives between the rounded corners*
20,1,$1+$1,$2,$3,$4,$5,0*
20,1,$1+$1,$4,$5,$6,$7,0*
20,1,$1+$1,$6,$7,$8,$9,0*
20,1,$1+$1,$8,$9,$2,$3,0*%
G04 Aperture macros list end*
%ADD10RoundRect,0.250000X0.625000X-0.312500X0.625000X0.312500X-0.625000X0.312500X-0.625000X-0.312500X0*%
%ADD11RoundRect,0.250000X-0.312500X-0.625000X0.312500X-0.625000X0.312500X0.625000X-0.312500X0.625000X0*%
%ADD12RoundRect,0.250000X0.925000X-0.875000X0.925000X0.875000X-0.925000X0.875000X-0.925000X-0.875000X0*%
%ADD13RoundRect,0.250000X0.650000X-0.325000X0.650000X0.325000X-0.650000X0.325000X-0.650000X-0.325000X0*%
%ADD14RoundRect,0.250000X-0.325000X-0.650000X0.325000X-0.650000X0.325000X0.650000X-0.325000X0.650000X0*%
%ADD15RoundRect,0.208333X-0.291667X-0.541667X0.291667X-0.541667X0.291667X0.541667X-0.291667X0.541667X0*%
%ADD16RoundRect,0.250000X0.325000X0.650000X-0.325000X0.650000X-0.325000X-0.650000X0.325000X-0.650000X0*%
%ADD17RoundRect,0.218750X-0.218750X-0.381250X0.218750X-0.381250X0.218750X0.381250X-0.218750X0.381250X0*%
%ADD18R,1.500000X2.000000*%
%ADD19R,3.800000X2.000000*%
%ADD20R,1.150000X0.600000*%
%ADD21R,1.150000X0.300000*%
%ADD22RoundRect,0.250000X-0.312500X-1.075000X0.312500X-1.075000X0.312500X1.075000X-0.312500X1.075000X0*%
%ADD23RoundRect,0.150000X-0.512500X-0.150000X0.512500X-0.150000X0.512500X0.150000X-0.512500X0.150000X0*%
%ADD24RoundRect,0.250000X0.312500X0.625000X-0.312500X0.625000X-0.312500X-0.625000X0.312500X-0.625000X0*%
%ADD25RoundRect,0.250000X-0.650000X0.325000X-0.650000X-0.325000X0.650000X-0.325000X0.650000X0.325000X0*%
%ADD26R,0.400000X1.200000*%
%ADD27RoundRect,0.250001X0.499999X0.924999X-0.499999X0.924999X-0.499999X-0.924999X0.499999X-0.924999X0*%
%ADD28R,0.840000X1.380000*%
%ADD29R,1.380000X0.840000*%
%ADD30RoundRect,0.218750X-0.381250X0.218750X-0.381250X-0.218750X0.381250X-0.218750X0.381250X0.218750X0*%
%ADD31RoundRect,0.250000X-0.475000X0.250000X-0.475000X-0.250000X0.475000X-0.250000X0.475000X0.250000X0*%
G04 APERTURE END LIST*
D10*
%TO.C,R4*%
X95885000Y-94172500D03*
X95885000Y-91247500D03*
%TD*%
D11*
%TO.C,R6*%
X89342500Y-102870000D03*
X92267500Y-102870000D03*
%TD*%
D12*
%TO.C,C6*%
X92710000Y-126375000D03*
X92710000Y-121275000D03*
%TD*%
D13*
%TO.C,C1*%
X112395000Y-92915000D03*
X112395000Y-89965000D03*
%TD*%
D14*
%TO.C,C7*%
X137590000Y-99695000D03*
X140540000Y-99695000D03*
%TD*%
D15*
%TO.C,AE1*%
X120975000Y-137795000D03*
X128475000Y-137795000D03*
%TD*%
D16*
%TO.C,C3*%
X101805000Y-116840000D03*
X98855000Y-116840000D03*
%TD*%
D17*
%TO.C,L1*%
X118952500Y-126365000D03*
X121077500Y-126365000D03*
%TD*%
D11*
%TO.C,R1*%
X137602500Y-102235000D03*
X140527500Y-102235000D03*
%TD*%
D18*
%TO.C,U2*%
X98185000Y-131470000D03*
X95885000Y-131470000D03*
D19*
X95885000Y-137770000D03*
D18*
X93585000Y-131470000D03*
%TD*%
D20*
%TO.C,J2*%
X91987500Y-109105000D03*
X91987500Y-109905000D03*
D21*
X91987500Y-111055000D03*
X91987500Y-112055000D03*
X91987500Y-112555000D03*
X91987500Y-113555000D03*
D20*
X91987500Y-114705000D03*
X91987500Y-115505000D03*
X91987500Y-115505000D03*
X91987500Y-114705000D03*
D21*
X91987500Y-114055000D03*
X91987500Y-113055000D03*
X91987500Y-111555000D03*
X91987500Y-110555000D03*
D20*
X91987500Y-109905000D03*
X91987500Y-109105000D03*
%TD*%
D12*
%TO.C,C5*%
X88900000Y-126375000D03*
X88900000Y-121275000D03*
%TD*%
D22*
%TO.C,FB1*%
X98867500Y-113030000D03*
X101792500Y-113030000D03*
%TD*%
D23*
%TO.C,U4*%
X132847500Y-89855000D03*
X132847500Y-90805000D03*
X132847500Y-91755000D03*
X135122500Y-91755000D03*
X135122500Y-89855000D03*
%TD*%
D11*
%TO.C,R5*%
X89342500Y-100330000D03*
X92267500Y-100330000D03*
%TD*%
D24*
%TO.C,R2*%
X90362500Y-137795000D03*
X87437500Y-137795000D03*
%TD*%
D25*
%TO.C,C2*%
X95885000Y-112825000D03*
X95885000Y-115775000D03*
%TD*%
D26*
%TO.C,U1*%
X121602500Y-88840000D03*
X120967500Y-88840000D03*
X120332500Y-88840000D03*
X119697500Y-88840000D03*
X119062500Y-88840000D03*
X118427500Y-88840000D03*
X117792500Y-88840000D03*
X117157500Y-88840000D03*
X116522500Y-88840000D03*
X115887500Y-88840000D03*
X115887500Y-94040000D03*
X116522500Y-94040000D03*
X117157500Y-94040000D03*
X117792500Y-94040000D03*
X118427500Y-94040000D03*
X119062500Y-94040000D03*
X119697500Y-94040000D03*
X120332500Y-94040000D03*
X120967500Y-94040000D03*
X121602500Y-94040000D03*
%TD*%
D27*
%TO.C,C4*%
X101320000Y-108585000D03*
X98070000Y-108585000D03*
%TD*%
D28*
%TO.C,U3A1*%
X122494000Y-105550000D03*
X121249400Y-105550000D03*
X120004800Y-105550000D03*
X118760200Y-105550000D03*
X117490200Y-105550000D03*
X116245600Y-105550000D03*
X115001000Y-105550000D03*
X113756400Y-105550000D03*
X112486400Y-105550000D03*
X111241800Y-105550000D03*
X109997200Y-105550000D03*
X108752600Y-105550000D03*
D29*
X107000000Y-107937600D03*
X107000000Y-109182200D03*
X107000000Y-110426800D03*
X107000000Y-111696800D03*
X107000000Y-112941400D03*
X107000000Y-114186000D03*
X107000000Y-115456000D03*
X107000000Y-116700600D03*
D28*
X108727200Y-119113600D03*
X109971800Y-119113600D03*
X111216400Y-119113600D03*
X112461000Y-119113600D03*
X113731000Y-119113600D03*
X114975600Y-119113600D03*
X116220200Y-119113600D03*
X117464800Y-119113600D03*
X118734800Y-119113600D03*
X119979400Y-119113600D03*
X121224000Y-119113600D03*
X122494000Y-119113600D03*
X123738600Y-119113600D03*
X124983200Y-119113600D03*
%TD*%
D11*
%TO.C,R3*%
X137602500Y-113030000D03*
X140527500Y-113030000D03*
%TD*%
D30*
%TO.C,L2*%
X118745000Y-128477500D03*
X118745000Y-130602500D03*
%TD*%
D31*
%TO.C,C8*%
X121285000Y-128590000D03*
X121285000Y-130490000D03*
%TD*%
M02*
