%TF.GenerationSoftware,KiCad,Pcbnew,6.0.10-86aedd382b~118~ubuntu20.04.1*%
%TF.CreationDate,2023-01-16T10:10:01+01:00*%
%TF.ProjectId,Adaptateur-USB-Xbee-2,41646170-7461-4746-9575-722d5553422d,rev?*%
%TF.SameCoordinates,Original*%
%TF.FileFunction,Drillmap*%
%TF.FilePolarity,Positive*%
%FSLAX45Y45*%
G04 Gerber Fmt 4.5, Leading zero omitted, Abs format (unit mm)*
G04 Created by KiCad (PCBNEW 6.0.10-86aedd382b~118~ubuntu20.04.1) date 2023-01-16 10:10:01*
%MOMM*%
%LPD*%
G01*
G04 APERTURE LIST*
%ADD10C,0.300000*%
%ADD11C,0.200000*%
%ADD12C,0.040000*%
%ADD13C,0.060000*%
%ADD14C,0.070000*%
%ADD15C,0.090000*%
%ADD16C,0.099000*%
%ADD17C,0.130000*%
%ADD18C,0.150000*%
%ADD19C,0.320000*%
G04 APERTURE END LIST*
D10*
X14250000Y-8400000D02*
X10970000Y-8400000D01*
X8500000Y-8400000D02*
X8500000Y-14060000D01*
X10300000Y-8730000D02*
G75*
G03*
X10970000Y-8730000I335000J11699D01*
G01*
X10970000Y-8400000D02*
X10970000Y-8730000D01*
X10970000Y-14060000D02*
X14250000Y-14060000D01*
X10970000Y-13720000D02*
G75*
G03*
X10300000Y-13720000I-335000J-11699D01*
G01*
X10300000Y-14060000D02*
X10300000Y-13720000D01*
X14250000Y-14060000D02*
X14250000Y-8400000D01*
X10300000Y-8730000D02*
X10300000Y-8400000D01*
X10970000Y-13720000D02*
X10970000Y-14060000D01*
X10300000Y-8400000D02*
X8500000Y-8400000D01*
X8500000Y-14060000D02*
X10300000Y-14060000D01*
D11*
D12*
X8870000Y-12362500D02*
X8910000Y-12402500D01*
X8910000Y-12362500D02*
X8870000Y-12402500D01*
X8933500Y-10521000D02*
X8973500Y-10561000D01*
X8973500Y-10521000D02*
X8933500Y-10561000D01*
X8933500Y-11029000D02*
X8973500Y-11069000D01*
X8973500Y-11029000D02*
X8933500Y-11069000D01*
X8933500Y-11410000D02*
X8973500Y-11450000D01*
X8973500Y-11410000D02*
X8933500Y-11450000D01*
X8997000Y-11219500D02*
X9037000Y-11259500D01*
X9037000Y-11219500D02*
X8997000Y-11259500D01*
X9060500Y-10013000D02*
X9100500Y-10053000D01*
X9100500Y-10013000D02*
X9060500Y-10053000D01*
X9251000Y-12362500D02*
X9291000Y-12402500D01*
X9291000Y-12362500D02*
X9251000Y-12402500D01*
X9378000Y-9501050D02*
X9418000Y-9541050D01*
X9418000Y-9501050D02*
X9378000Y-9541050D01*
X9378000Y-10648000D02*
X9418000Y-10688000D01*
X9418000Y-10648000D02*
X9378000Y-10688000D01*
X9378000Y-11092500D02*
X9418000Y-11132500D01*
X9418000Y-11092500D02*
X9378000Y-11132500D01*
X9568500Y-11410000D02*
X9608500Y-11450000D01*
X9608500Y-11410000D02*
X9568500Y-11450000D01*
X9759000Y-12045000D02*
X9799000Y-12085000D01*
X9799000Y-12045000D02*
X9759000Y-12085000D01*
X10013000Y-10330500D02*
X10053000Y-10370500D01*
X10053000Y-10330500D02*
X10013000Y-10370500D01*
X10267000Y-9695500D02*
X10307000Y-9735500D01*
X10307000Y-9695500D02*
X10267000Y-9735500D01*
X10394000Y-9251000D02*
X10434000Y-9291000D01*
X10434000Y-9251000D02*
X10394000Y-9291000D01*
X10394000Y-11981500D02*
X10434000Y-12021500D01*
X10434000Y-11981500D02*
X10394000Y-12021500D01*
X10457500Y-10584500D02*
X10497500Y-10624500D01*
X10497500Y-10584500D02*
X10457500Y-10624500D01*
X10457500Y-11029000D02*
X10497500Y-11069000D01*
X10497500Y-11029000D02*
X10457500Y-11069000D01*
X10457500Y-11537000D02*
X10497500Y-11577000D01*
X10497500Y-11537000D02*
X10457500Y-11577000D01*
X10484140Y-11891360D02*
X10524140Y-11931360D01*
X10524140Y-11891360D02*
X10484140Y-11931360D01*
X10521000Y-9259950D02*
X10561000Y-9299950D01*
X10561000Y-9259950D02*
X10521000Y-9299950D01*
X10838500Y-11727500D02*
X10878500Y-11767500D01*
X10878500Y-11727500D02*
X10838500Y-11767500D01*
X10965500Y-9378000D02*
X11005500Y-9418000D01*
X11005500Y-9378000D02*
X10965500Y-9418000D01*
X11104180Y-10723180D02*
X11144180Y-10763180D01*
X11144180Y-10723180D02*
X11104180Y-10763180D01*
X11714800Y-12476800D02*
X11754800Y-12516800D01*
X11754800Y-12476800D02*
X11714800Y-12516800D01*
X11714800Y-12629200D02*
X11754800Y-12669200D01*
X11754800Y-12629200D02*
X11714800Y-12669200D01*
X11714800Y-12781600D02*
X11754800Y-12821600D01*
X11754800Y-12781600D02*
X11714800Y-12821600D01*
X11714800Y-12934000D02*
X11754800Y-12974000D01*
X11754800Y-12934000D02*
X11714800Y-12974000D01*
X11714800Y-13086400D02*
X11754800Y-13126400D01*
X11754800Y-13086400D02*
X11714800Y-13126400D01*
X11727500Y-9060500D02*
X11767500Y-9100500D01*
X11767500Y-9060500D02*
X11727500Y-9100500D01*
X11727500Y-9187500D02*
X11767500Y-9227500D01*
X11767500Y-9187500D02*
X11727500Y-9227500D01*
X11727500Y-9775450D02*
X11767500Y-9815450D01*
X11767500Y-9775450D02*
X11727500Y-9815450D01*
X11841800Y-13188000D02*
X11881800Y-13228000D01*
X11881800Y-13188000D02*
X11841800Y-13228000D01*
X11867200Y-12476800D02*
X11907200Y-12516800D01*
X11907200Y-12476800D02*
X11867200Y-12516800D01*
X11918000Y-13289600D02*
X11958000Y-13329600D01*
X11958000Y-13289600D02*
X11918000Y-13329600D01*
X12045000Y-8679500D02*
X12085000Y-8719500D01*
X12085000Y-8679500D02*
X12045000Y-8719500D01*
X12045000Y-9124000D02*
X12085000Y-9164000D01*
X12085000Y-9124000D02*
X12045000Y-9164000D01*
X12045000Y-11473500D02*
X12085000Y-11513500D01*
X12085000Y-11473500D02*
X12045000Y-11513500D01*
X12045000Y-12476800D02*
X12085000Y-12516800D01*
X12085000Y-12476800D02*
X12045000Y-12516800D01*
X12172000Y-13289600D02*
X12212000Y-13329600D01*
X12212000Y-13289600D02*
X12172000Y-13329600D01*
X12197400Y-12476800D02*
X12237400Y-12516800D01*
X12237400Y-12476800D02*
X12197400Y-12516800D01*
X12222800Y-12730800D02*
X12262800Y-12770800D01*
X12262800Y-12730800D02*
X12222800Y-12770800D01*
X12229400Y-10717600D02*
X12269400Y-10757600D01*
X12269400Y-10717600D02*
X12229400Y-10757600D01*
X12235500Y-11727500D02*
X12275500Y-11767500D01*
X12275500Y-11727500D02*
X12235500Y-11767500D01*
X12248200Y-12070400D02*
X12288200Y-12110400D01*
X12288200Y-12070400D02*
X12248200Y-12110400D01*
X12248200Y-12172000D02*
X12288200Y-12212000D01*
X12288200Y-12172000D02*
X12248200Y-12212000D01*
X12273600Y-12883200D02*
X12313600Y-12923200D01*
X12313600Y-12883200D02*
X12273600Y-12923200D01*
X12299000Y-13035600D02*
X12339000Y-13075600D01*
X12339000Y-13035600D02*
X12299000Y-13075600D01*
X12324400Y-12476800D02*
X12364400Y-12516800D01*
X12364400Y-12476800D02*
X12324400Y-12516800D01*
X12400600Y-12705400D02*
X12440600Y-12745400D01*
X12440600Y-12705400D02*
X12400600Y-12745400D01*
X12426000Y-13061000D02*
X12466000Y-13101000D01*
X12466000Y-13061000D02*
X12426000Y-13101000D01*
X12426000Y-13289600D02*
X12466000Y-13329600D01*
X12466000Y-13289600D02*
X12426000Y-13329600D01*
X12502200Y-12070400D02*
X12542200Y-12110400D01*
X12542200Y-12070400D02*
X12502200Y-12110400D01*
X12578400Y-12197400D02*
X12618400Y-12237400D01*
X12618400Y-12197400D02*
X12578400Y-12237400D01*
X12603800Y-12375200D02*
X12643800Y-12415200D01*
X12643800Y-12375200D02*
X12603800Y-12415200D01*
X12603800Y-13061000D02*
X12643800Y-13101000D01*
X12643800Y-13061000D02*
X12603800Y-13101000D01*
X12603800Y-13289600D02*
X12643800Y-13329600D01*
X12643800Y-13289600D02*
X12603800Y-13329600D01*
X12807000Y-13061000D02*
X12847000Y-13101000D01*
X12847000Y-13061000D02*
X12807000Y-13101000D01*
X12807000Y-13289600D02*
X12847000Y-13329600D01*
X12847000Y-13289600D02*
X12807000Y-13329600D01*
X13010200Y-13061000D02*
X13050200Y-13101000D01*
X13050200Y-13061000D02*
X13010200Y-13101000D01*
X13010200Y-13289600D02*
X13050200Y-13329600D01*
X13050200Y-13289600D02*
X13010200Y-13329600D01*
X13188000Y-13061000D02*
X13228000Y-13101000D01*
X13228000Y-13061000D02*
X13188000Y-13101000D01*
X13188000Y-13289600D02*
X13228000Y-13329600D01*
X13228000Y-13289600D02*
X13188000Y-13329600D01*
X13365800Y-13061000D02*
X13405800Y-13101000D01*
X13405800Y-13061000D02*
X13365800Y-13101000D01*
X13365800Y-13289600D02*
X13405800Y-13329600D01*
X13405800Y-13289600D02*
X13365800Y-13329600D01*
X13442000Y-9295050D02*
X13482000Y-9335050D01*
X13482000Y-9295050D02*
X13442000Y-9335050D01*
X13569000Y-10394000D02*
X13609000Y-10434000D01*
X13609000Y-10394000D02*
X13569000Y-10434000D01*
X13632500Y-9695500D02*
X13672500Y-9735500D01*
X13672500Y-9695500D02*
X13632500Y-9735500D01*
D13*
X8753750Y-10798500D02*
G75*
G03*
X8753750Y-10798500I-30000J0D01*
G01*
D11*
X8763750Y-10768500D02*
X8683750Y-10768500D01*
X8763750Y-10828500D02*
X8683750Y-10828500D01*
X8683750Y-10768500D02*
G75*
G03*
X8683750Y-10828500I0J-30000D01*
G01*
X8763750Y-10828500D02*
G75*
G03*
X8763750Y-10768500I0J30000D01*
G01*
D13*
X8753750Y-11663500D02*
G75*
G03*
X8753750Y-11663500I-30000J0D01*
G01*
D11*
X8763750Y-11633500D02*
X8683750Y-11633500D01*
X8763750Y-11693500D02*
X8683750Y-11693500D01*
X8683750Y-11633500D02*
G75*
G03*
X8683750Y-11693500I0J-30000D01*
G01*
X8763750Y-11693500D02*
G75*
G03*
X8763750Y-11633500I0J30000D01*
G01*
D13*
X9171750Y-10798500D02*
G75*
G03*
X9171750Y-10798500I-30000J0D01*
G01*
D11*
X9196750Y-10768500D02*
X9086750Y-10768500D01*
X9196750Y-10828500D02*
X9086750Y-10828500D01*
X9086750Y-10768500D02*
G75*
G03*
X9086750Y-10828500I0J-30000D01*
G01*
X9196750Y-10828500D02*
G75*
G03*
X9196750Y-10768500I0J30000D01*
G01*
D13*
X9171750Y-11662500D02*
G75*
G03*
X9171750Y-11662500I-30000J0D01*
G01*
D11*
X9196750Y-11632500D02*
X9086750Y-11632500D01*
X9196750Y-11692500D02*
X9086750Y-11692500D01*
X9086750Y-11632500D02*
G75*
G03*
X9086750Y-11692500I0J-30000D01*
G01*
X9196750Y-11692500D02*
G75*
G03*
X9196750Y-11632500I0J30000D01*
G01*
D14*
X10479500Y-10105000D02*
X10479500Y-10175000D01*
X10444500Y-10140000D02*
X10514500Y-10140000D01*
X10479500Y-12305000D02*
X10479500Y-12375000D01*
X10444500Y-12340000D02*
X10514500Y-12340000D01*
X10679500Y-10105000D02*
X10679500Y-10175000D01*
X10644500Y-10140000D02*
X10714500Y-10140000D01*
X10679500Y-12305000D02*
X10679500Y-12375000D01*
X10644500Y-12340000D02*
X10714500Y-12340000D01*
X10879500Y-10105000D02*
X10879500Y-10175000D01*
X10844500Y-10140000D02*
X10914500Y-10140000D01*
X10879500Y-12305000D02*
X10879500Y-12375000D01*
X10844500Y-12340000D02*
X10914500Y-12340000D01*
X11079500Y-10105000D02*
X11079500Y-10175000D01*
X11044500Y-10140000D02*
X11114500Y-10140000D01*
X11079500Y-12305000D02*
X11079500Y-12375000D01*
X11044500Y-12340000D02*
X11114500Y-12340000D01*
X11279500Y-10105000D02*
X11279500Y-10175000D01*
X11244500Y-10140000D02*
X11314500Y-10140000D01*
X11279500Y-12305000D02*
X11279500Y-12375000D01*
X11244500Y-12340000D02*
X11314500Y-12340000D01*
X11479500Y-10105000D02*
X11479500Y-10175000D01*
X11444500Y-10140000D02*
X11514500Y-10140000D01*
X11479500Y-12305000D02*
X11479500Y-12375000D01*
X11444500Y-12340000D02*
X11514500Y-12340000D01*
X11679500Y-10105000D02*
X11679500Y-10175000D01*
X11644500Y-10140000D02*
X11714500Y-10140000D01*
X11679500Y-12305000D02*
X11679500Y-12375000D01*
X11644500Y-12340000D02*
X11714500Y-12340000D01*
X11879500Y-10105000D02*
X11879500Y-10175000D01*
X11844500Y-10140000D02*
X11914500Y-10140000D01*
X11879500Y-12305000D02*
X11879500Y-12375000D01*
X11844500Y-12340000D02*
X11914500Y-12340000D01*
X12079500Y-10105000D02*
X12079500Y-10175000D01*
X12044500Y-10140000D02*
X12114500Y-10140000D01*
X12079500Y-12305000D02*
X12079500Y-12375000D01*
X12044500Y-12340000D02*
X12114500Y-12340000D01*
X12279500Y-10105000D02*
X12279500Y-10175000D01*
X12244500Y-10140000D02*
X12314500Y-10140000D01*
X12279500Y-12305000D02*
X12279500Y-12375000D01*
X12244500Y-12340000D02*
X12314500Y-12340000D01*
D15*
X8764320Y-13206820D02*
X8764320Y-13143180D01*
X8700680Y-13143180D01*
X8700680Y-13206820D01*
X8764320Y-13206820D01*
X8764320Y-13460820D02*
X8764320Y-13397180D01*
X8700680Y-13397180D01*
X8700680Y-13460820D01*
X8764320Y-13460820D01*
X13884320Y-10605320D02*
X13884320Y-10541680D01*
X13820680Y-10541680D01*
X13820680Y-10605320D01*
X13884320Y-10605320D01*
X13884320Y-10859320D02*
X13884320Y-10795680D01*
X13820680Y-10795680D01*
X13820680Y-10859320D01*
X13884320Y-10859320D01*
X13884320Y-11705320D02*
X13884320Y-11641680D01*
X13820680Y-11641680D01*
X13820680Y-11705320D01*
X13884320Y-11705320D01*
X13884320Y-11959320D02*
X13884320Y-11895680D01*
X13820680Y-11895680D01*
X13820680Y-11959320D01*
X13884320Y-11959320D01*
X14031820Y-9031820D02*
X14031820Y-8968180D01*
X13968180Y-8968180D01*
X13968180Y-9031820D01*
X14031820Y-9031820D01*
X14031820Y-9231820D02*
X14031820Y-9168180D01*
X13968180Y-9168180D01*
X13968180Y-9231820D01*
X14031820Y-9231820D01*
X14031820Y-9431820D02*
X14031820Y-9368180D01*
X13968180Y-9368180D01*
X13968180Y-9431820D01*
X14031820Y-9431820D01*
D16*
X8846250Y-9027000D02*
X8895750Y-8977500D01*
X8846250Y-8928000D01*
X8796750Y-8977500D01*
X8846250Y-9027000D01*
X8846250Y-9477000D02*
X8895750Y-9427500D01*
X8846250Y-9378000D01*
X8796750Y-9427500D01*
X8846250Y-9477000D01*
D17*
X9030250Y-8786500D02*
X9160250Y-8916500D01*
X9160250Y-8786500D02*
X9030250Y-8916500D01*
X9160250Y-8851500D02*
G75*
G03*
X9160250Y-8851500I-65000J0D01*
G01*
X9030250Y-9487500D02*
X9160250Y-9617500D01*
X9160250Y-9487500D02*
X9030250Y-9617500D01*
X9160250Y-9552500D02*
G75*
G03*
X9160250Y-9552500I-65000J0D01*
G01*
D18*
X13471000Y-12871000D02*
X13621000Y-13021000D01*
X13621000Y-12871000D02*
X13471000Y-13021000D01*
X13546000Y-12871000D02*
X13546000Y-13021000D01*
X13471000Y-12946000D02*
X13621000Y-12946000D01*
X13471000Y-13379000D02*
X13621000Y-13529000D01*
X13621000Y-13379000D02*
X13471000Y-13529000D01*
X13546000Y-13379000D02*
X13546000Y-13529000D01*
X13471000Y-13454000D02*
X13621000Y-13454000D01*
X13725000Y-13125000D02*
X13875000Y-13275000D01*
X13875000Y-13125000D02*
X13725000Y-13275000D01*
X13800000Y-13125000D02*
X13800000Y-13275000D01*
X13725000Y-13200000D02*
X13875000Y-13200000D01*
X13925000Y-8715000D02*
X14075000Y-8865000D01*
X14075000Y-8715000D02*
X13925000Y-8865000D01*
X14000000Y-8715000D02*
X14000000Y-8865000D01*
X13925000Y-8790000D02*
X14075000Y-8790000D01*
X13925000Y-9535000D02*
X14075000Y-9685000D01*
X14075000Y-9535000D02*
X13925000Y-9685000D01*
X14000000Y-9535000D02*
X14000000Y-9685000D01*
X13925000Y-9610000D02*
X14075000Y-9610000D01*
X13979000Y-12871000D02*
X14129000Y-13021000D01*
X14129000Y-12871000D02*
X13979000Y-13021000D01*
X14054000Y-12871000D02*
X14054000Y-13021000D01*
X13979000Y-12946000D02*
X14129000Y-12946000D01*
X13979000Y-13379000D02*
X14129000Y-13529000D01*
X14129000Y-13379000D02*
X13979000Y-13529000D01*
X14054000Y-13379000D02*
X14054000Y-13529000D01*
X13979000Y-13454000D02*
X14129000Y-13454000D01*
D19*
X9815000Y-9670000D02*
X10135000Y-9990000D01*
X10135000Y-9670000D02*
X9815000Y-9990000D01*
X10088138Y-9943138D02*
X10088138Y-9716862D01*
X9861862Y-9716862D01*
X9861862Y-9943138D01*
X10088138Y-9943138D01*
X9815000Y-12470000D02*
X10135000Y-12790000D01*
X10135000Y-12470000D02*
X9815000Y-12790000D01*
X10088138Y-12743138D02*
X10088138Y-12516862D01*
X9861862Y-12516862D01*
X9861862Y-12743138D01*
X10088138Y-12743138D01*
X12615000Y-9670000D02*
X12935000Y-9990000D01*
X12935000Y-9670000D02*
X12615000Y-9990000D01*
X12888138Y-9943138D02*
X12888138Y-9716862D01*
X12661862Y-9716862D01*
X12661862Y-9943138D01*
X12888138Y-9943138D01*
X12615000Y-12470000D02*
X12935000Y-12790000D01*
X12935000Y-12470000D02*
X12615000Y-12790000D01*
X12888138Y-12743138D02*
X12888138Y-12516862D01*
X12661862Y-12516862D01*
X12661862Y-12743138D01*
X12888138Y-12743138D01*
D11*
X8742619Y-14385476D02*
X8742619Y-14185476D01*
X8790238Y-14185476D01*
X8818810Y-14195000D01*
X8837857Y-14214048D01*
X8847381Y-14233095D01*
X8856905Y-14271190D01*
X8856905Y-14299762D01*
X8847381Y-14337857D01*
X8837857Y-14356905D01*
X8818810Y-14375952D01*
X8790238Y-14385476D01*
X8742619Y-14385476D01*
X8942619Y-14385476D02*
X8942619Y-14252143D01*
X8942619Y-14290238D02*
X8952143Y-14271190D01*
X8961667Y-14261667D01*
X8980714Y-14252143D01*
X8999762Y-14252143D01*
X9066429Y-14385476D02*
X9066429Y-14252143D01*
X9066429Y-14185476D02*
X9056905Y-14195000D01*
X9066429Y-14204524D01*
X9075952Y-14195000D01*
X9066429Y-14185476D01*
X9066429Y-14204524D01*
X9190238Y-14385476D02*
X9171190Y-14375952D01*
X9161667Y-14356905D01*
X9161667Y-14185476D01*
X9295000Y-14385476D02*
X9275952Y-14375952D01*
X9266429Y-14356905D01*
X9266429Y-14185476D01*
X9523571Y-14385476D02*
X9523571Y-14185476D01*
X9590238Y-14328333D01*
X9656905Y-14185476D01*
X9656905Y-14385476D01*
X9837857Y-14385476D02*
X9837857Y-14280714D01*
X9828333Y-14261667D01*
X9809286Y-14252143D01*
X9771190Y-14252143D01*
X9752143Y-14261667D01*
X9837857Y-14375952D02*
X9818810Y-14385476D01*
X9771190Y-14385476D01*
X9752143Y-14375952D01*
X9742619Y-14356905D01*
X9742619Y-14337857D01*
X9752143Y-14318809D01*
X9771190Y-14309286D01*
X9818810Y-14309286D01*
X9837857Y-14299762D01*
X9933095Y-14252143D02*
X9933095Y-14452143D01*
X9933095Y-14261667D02*
X9952143Y-14252143D01*
X9990238Y-14252143D01*
X10009286Y-14261667D01*
X10018810Y-14271190D01*
X10028333Y-14290238D01*
X10028333Y-14347381D01*
X10018810Y-14366428D01*
X10009286Y-14375952D01*
X9990238Y-14385476D01*
X9952143Y-14385476D01*
X9933095Y-14375952D01*
X10114048Y-14366428D02*
X10123571Y-14375952D01*
X10114048Y-14385476D01*
X10104524Y-14375952D01*
X10114048Y-14366428D01*
X10114048Y-14385476D01*
X10114048Y-14261667D02*
X10123571Y-14271190D01*
X10114048Y-14280714D01*
X10104524Y-14271190D01*
X10114048Y-14261667D01*
X10114048Y-14280714D01*
D12*
X8445000Y-14695000D02*
X8485000Y-14735000D01*
X8485000Y-14695000D02*
X8445000Y-14735000D01*
D11*
X8780714Y-14605476D02*
X8799762Y-14605476D01*
X8818810Y-14615000D01*
X8828333Y-14624524D01*
X8837857Y-14643571D01*
X8847381Y-14681667D01*
X8847381Y-14729286D01*
X8837857Y-14767381D01*
X8828333Y-14786428D01*
X8818810Y-14795952D01*
X8799762Y-14805476D01*
X8780714Y-14805476D01*
X8761667Y-14795952D01*
X8752143Y-14786428D01*
X8742619Y-14767381D01*
X8733095Y-14729286D01*
X8733095Y-14681667D01*
X8742619Y-14643571D01*
X8752143Y-14624524D01*
X8761667Y-14615000D01*
X8780714Y-14605476D01*
X8933095Y-14786428D02*
X8942619Y-14795952D01*
X8933095Y-14805476D01*
X8923571Y-14795952D01*
X8933095Y-14786428D01*
X8933095Y-14805476D01*
X9114048Y-14672143D02*
X9114048Y-14805476D01*
X9066429Y-14595952D02*
X9018810Y-14738809D01*
X9142619Y-14738809D01*
X9256905Y-14605476D02*
X9275952Y-14605476D01*
X9295000Y-14615000D01*
X9304524Y-14624524D01*
X9314048Y-14643571D01*
X9323571Y-14681667D01*
X9323571Y-14729286D01*
X9314048Y-14767381D01*
X9304524Y-14786428D01*
X9295000Y-14795952D01*
X9275952Y-14805476D01*
X9256905Y-14805476D01*
X9237857Y-14795952D01*
X9228333Y-14786428D01*
X9218810Y-14767381D01*
X9209286Y-14729286D01*
X9209286Y-14681667D01*
X9218810Y-14643571D01*
X9228333Y-14624524D01*
X9237857Y-14615000D01*
X9256905Y-14605476D01*
X9447381Y-14605476D02*
X9466429Y-14605476D01*
X9485476Y-14615000D01*
X9495000Y-14624524D01*
X9504524Y-14643571D01*
X9514048Y-14681667D01*
X9514048Y-14729286D01*
X9504524Y-14767381D01*
X9495000Y-14786428D01*
X9485476Y-14795952D01*
X9466429Y-14805476D01*
X9447381Y-14805476D01*
X9428333Y-14795952D01*
X9418810Y-14786428D01*
X9409286Y-14767381D01*
X9399762Y-14729286D01*
X9399762Y-14681667D01*
X9409286Y-14643571D01*
X9418810Y-14624524D01*
X9428333Y-14615000D01*
X9447381Y-14605476D01*
X9599762Y-14805476D02*
X9599762Y-14672143D01*
X9599762Y-14691190D02*
X9609286Y-14681667D01*
X9628333Y-14672143D01*
X9656905Y-14672143D01*
X9675952Y-14681667D01*
X9685476Y-14700714D01*
X9685476Y-14805476D01*
X9685476Y-14700714D02*
X9695000Y-14681667D01*
X9714048Y-14672143D01*
X9742619Y-14672143D01*
X9761667Y-14681667D01*
X9771190Y-14700714D01*
X9771190Y-14805476D01*
X9866429Y-14805476D02*
X9866429Y-14672143D01*
X9866429Y-14691190D02*
X9875952Y-14681667D01*
X9895000Y-14672143D01*
X9923571Y-14672143D01*
X9942619Y-14681667D01*
X9952143Y-14700714D01*
X9952143Y-14805476D01*
X9952143Y-14700714D02*
X9961667Y-14681667D01*
X9980714Y-14672143D01*
X10009286Y-14672143D01*
X10028333Y-14681667D01*
X10037857Y-14700714D01*
X10037857Y-14805476D01*
X10428333Y-14595952D02*
X10256905Y-14853095D01*
X10685476Y-14605476D02*
X10704524Y-14605476D01*
X10723571Y-14615000D01*
X10733095Y-14624524D01*
X10742619Y-14643571D01*
X10752143Y-14681667D01*
X10752143Y-14729286D01*
X10742619Y-14767381D01*
X10733095Y-14786428D01*
X10723571Y-14795952D01*
X10704524Y-14805476D01*
X10685476Y-14805476D01*
X10666429Y-14795952D01*
X10656905Y-14786428D01*
X10647381Y-14767381D01*
X10637857Y-14729286D01*
X10637857Y-14681667D01*
X10647381Y-14643571D01*
X10656905Y-14624524D01*
X10666429Y-14615000D01*
X10685476Y-14605476D01*
X10837857Y-14786428D02*
X10847381Y-14795952D01*
X10837857Y-14805476D01*
X10828333Y-14795952D01*
X10837857Y-14786428D01*
X10837857Y-14805476D01*
X10971190Y-14605476D02*
X10990238Y-14605476D01*
X11009286Y-14615000D01*
X11018810Y-14624524D01*
X11028333Y-14643571D01*
X11037857Y-14681667D01*
X11037857Y-14729286D01*
X11028333Y-14767381D01*
X11018810Y-14786428D01*
X11009286Y-14795952D01*
X10990238Y-14805476D01*
X10971190Y-14805476D01*
X10952143Y-14795952D01*
X10942619Y-14786428D01*
X10933095Y-14767381D01*
X10923571Y-14729286D01*
X10923571Y-14681667D01*
X10933095Y-14643571D01*
X10942619Y-14624524D01*
X10952143Y-14615000D01*
X10971190Y-14605476D01*
X11228333Y-14805476D02*
X11114048Y-14805476D01*
X11171190Y-14805476D02*
X11171190Y-14605476D01*
X11152143Y-14634048D01*
X11133095Y-14653095D01*
X11114048Y-14662619D01*
X11409286Y-14605476D02*
X11314048Y-14605476D01*
X11304524Y-14700714D01*
X11314048Y-14691190D01*
X11333095Y-14681667D01*
X11380714Y-14681667D01*
X11399762Y-14691190D01*
X11409286Y-14700714D01*
X11418809Y-14719762D01*
X11418809Y-14767381D01*
X11409286Y-14786428D01*
X11399762Y-14795952D01*
X11380714Y-14805476D01*
X11333095Y-14805476D01*
X11314048Y-14795952D01*
X11304524Y-14786428D01*
X11485476Y-14605476D02*
X11618809Y-14605476D01*
X11533095Y-14805476D01*
X11685476Y-14605476D02*
X11685476Y-14643571D01*
X11761667Y-14605476D02*
X11761667Y-14643571D01*
X12056905Y-14881667D02*
X12047381Y-14872143D01*
X12028333Y-14843571D01*
X12018809Y-14824524D01*
X12009286Y-14795952D01*
X11999762Y-14748333D01*
X11999762Y-14710238D01*
X12009286Y-14662619D01*
X12018809Y-14634048D01*
X12028333Y-14615000D01*
X12047381Y-14586428D01*
X12056905Y-14576905D01*
X12218809Y-14605476D02*
X12180714Y-14605476D01*
X12161667Y-14615000D01*
X12152143Y-14624524D01*
X12133095Y-14653095D01*
X12123571Y-14691190D01*
X12123571Y-14767381D01*
X12133095Y-14786428D01*
X12142619Y-14795952D01*
X12161667Y-14805476D01*
X12199762Y-14805476D01*
X12218809Y-14795952D01*
X12228333Y-14786428D01*
X12237857Y-14767381D01*
X12237857Y-14719762D01*
X12228333Y-14700714D01*
X12218809Y-14691190D01*
X12199762Y-14681667D01*
X12161667Y-14681667D01*
X12142619Y-14691190D01*
X12133095Y-14700714D01*
X12123571Y-14719762D01*
X12352143Y-14691190D02*
X12333095Y-14681667D01*
X12323571Y-14672143D01*
X12314048Y-14653095D01*
X12314048Y-14643571D01*
X12323571Y-14624524D01*
X12333095Y-14615000D01*
X12352143Y-14605476D01*
X12390238Y-14605476D01*
X12409286Y-14615000D01*
X12418809Y-14624524D01*
X12428333Y-14643571D01*
X12428333Y-14653095D01*
X12418809Y-14672143D01*
X12409286Y-14681667D01*
X12390238Y-14691190D01*
X12352143Y-14691190D01*
X12333095Y-14700714D01*
X12323571Y-14710238D01*
X12314048Y-14729286D01*
X12314048Y-14767381D01*
X12323571Y-14786428D01*
X12333095Y-14795952D01*
X12352143Y-14805476D01*
X12390238Y-14805476D01*
X12409286Y-14795952D01*
X12418809Y-14786428D01*
X12428333Y-14767381D01*
X12428333Y-14729286D01*
X12418809Y-14710238D01*
X12409286Y-14700714D01*
X12390238Y-14691190D01*
X12666428Y-14805476D02*
X12666428Y-14605476D01*
X12752143Y-14805476D02*
X12752143Y-14700714D01*
X12742619Y-14681667D01*
X12723571Y-14672143D01*
X12695000Y-14672143D01*
X12675952Y-14681667D01*
X12666428Y-14691190D01*
X12875952Y-14805476D02*
X12856905Y-14795952D01*
X12847381Y-14786428D01*
X12837857Y-14767381D01*
X12837857Y-14710238D01*
X12847381Y-14691190D01*
X12856905Y-14681667D01*
X12875952Y-14672143D01*
X12904524Y-14672143D01*
X12923571Y-14681667D01*
X12933095Y-14691190D01*
X12942619Y-14710238D01*
X12942619Y-14767381D01*
X12933095Y-14786428D01*
X12923571Y-14795952D01*
X12904524Y-14805476D01*
X12875952Y-14805476D01*
X13056905Y-14805476D02*
X13037857Y-14795952D01*
X13028333Y-14776905D01*
X13028333Y-14605476D01*
X13209286Y-14795952D02*
X13190238Y-14805476D01*
X13152143Y-14805476D01*
X13133095Y-14795952D01*
X13123571Y-14776905D01*
X13123571Y-14700714D01*
X13133095Y-14681667D01*
X13152143Y-14672143D01*
X13190238Y-14672143D01*
X13209286Y-14681667D01*
X13218809Y-14700714D01*
X13218809Y-14719762D01*
X13123571Y-14738809D01*
X13295000Y-14795952D02*
X13314048Y-14805476D01*
X13352143Y-14805476D01*
X13371190Y-14795952D01*
X13380714Y-14776905D01*
X13380714Y-14767381D01*
X13371190Y-14748333D01*
X13352143Y-14738809D01*
X13323571Y-14738809D01*
X13304524Y-14729286D01*
X13295000Y-14710238D01*
X13295000Y-14700714D01*
X13304524Y-14681667D01*
X13323571Y-14672143D01*
X13352143Y-14672143D01*
X13371190Y-14681667D01*
X13447381Y-14881667D02*
X13456905Y-14872143D01*
X13475952Y-14843571D01*
X13485476Y-14824524D01*
X13495000Y-14795952D01*
X13504524Y-14748333D01*
X13504524Y-14710238D01*
X13495000Y-14662619D01*
X13485476Y-14634048D01*
X13475952Y-14615000D01*
X13456905Y-14586428D01*
X13447381Y-14576905D01*
D13*
X8485000Y-14979000D02*
G75*
G03*
X8485000Y-14979000I-30000J0D01*
G01*
D11*
X8780714Y-14869476D02*
X8799762Y-14869476D01*
X8818810Y-14879000D01*
X8828333Y-14888524D01*
X8837857Y-14907571D01*
X8847381Y-14945667D01*
X8847381Y-14993286D01*
X8837857Y-15031381D01*
X8828333Y-15050428D01*
X8818810Y-15059952D01*
X8799762Y-15069476D01*
X8780714Y-15069476D01*
X8761667Y-15059952D01*
X8752143Y-15050428D01*
X8742619Y-15031381D01*
X8733095Y-14993286D01*
X8733095Y-14945667D01*
X8742619Y-14907571D01*
X8752143Y-14888524D01*
X8761667Y-14879000D01*
X8780714Y-14869476D01*
X8933095Y-15050428D02*
X8942619Y-15059952D01*
X8933095Y-15069476D01*
X8923571Y-15059952D01*
X8933095Y-15050428D01*
X8933095Y-15069476D01*
X9114048Y-14869476D02*
X9075952Y-14869476D01*
X9056905Y-14879000D01*
X9047381Y-14888524D01*
X9028333Y-14917095D01*
X9018810Y-14955190D01*
X9018810Y-15031381D01*
X9028333Y-15050428D01*
X9037857Y-15059952D01*
X9056905Y-15069476D01*
X9095000Y-15069476D01*
X9114048Y-15059952D01*
X9123571Y-15050428D01*
X9133095Y-15031381D01*
X9133095Y-14983762D01*
X9123571Y-14964714D01*
X9114048Y-14955190D01*
X9095000Y-14945667D01*
X9056905Y-14945667D01*
X9037857Y-14955190D01*
X9028333Y-14964714D01*
X9018810Y-14983762D01*
X9256905Y-14869476D02*
X9275952Y-14869476D01*
X9295000Y-14879000D01*
X9304524Y-14888524D01*
X9314048Y-14907571D01*
X9323571Y-14945667D01*
X9323571Y-14993286D01*
X9314048Y-15031381D01*
X9304524Y-15050428D01*
X9295000Y-15059952D01*
X9275952Y-15069476D01*
X9256905Y-15069476D01*
X9237857Y-15059952D01*
X9228333Y-15050428D01*
X9218810Y-15031381D01*
X9209286Y-14993286D01*
X9209286Y-14945667D01*
X9218810Y-14907571D01*
X9228333Y-14888524D01*
X9237857Y-14879000D01*
X9256905Y-14869476D01*
X9447381Y-14869476D02*
X9466429Y-14869476D01*
X9485476Y-14879000D01*
X9495000Y-14888524D01*
X9504524Y-14907571D01*
X9514048Y-14945667D01*
X9514048Y-14993286D01*
X9504524Y-15031381D01*
X9495000Y-15050428D01*
X9485476Y-15059952D01*
X9466429Y-15069476D01*
X9447381Y-15069476D01*
X9428333Y-15059952D01*
X9418810Y-15050428D01*
X9409286Y-15031381D01*
X9399762Y-14993286D01*
X9399762Y-14945667D01*
X9409286Y-14907571D01*
X9418810Y-14888524D01*
X9428333Y-14879000D01*
X9447381Y-14869476D01*
X9599762Y-15069476D02*
X9599762Y-14936143D01*
X9599762Y-14955190D02*
X9609286Y-14945667D01*
X9628333Y-14936143D01*
X9656905Y-14936143D01*
X9675952Y-14945667D01*
X9685476Y-14964714D01*
X9685476Y-15069476D01*
X9685476Y-14964714D02*
X9695000Y-14945667D01*
X9714048Y-14936143D01*
X9742619Y-14936143D01*
X9761667Y-14945667D01*
X9771190Y-14964714D01*
X9771190Y-15069476D01*
X9866429Y-15069476D02*
X9866429Y-14936143D01*
X9866429Y-14955190D02*
X9875952Y-14945667D01*
X9895000Y-14936143D01*
X9923571Y-14936143D01*
X9942619Y-14945667D01*
X9952143Y-14964714D01*
X9952143Y-15069476D01*
X9952143Y-14964714D02*
X9961667Y-14945667D01*
X9980714Y-14936143D01*
X10009286Y-14936143D01*
X10028333Y-14945667D01*
X10037857Y-14964714D01*
X10037857Y-15069476D01*
X10428333Y-14859952D02*
X10256905Y-15117095D01*
X10685476Y-14869476D02*
X10704524Y-14869476D01*
X10723571Y-14879000D01*
X10733095Y-14888524D01*
X10742619Y-14907571D01*
X10752143Y-14945667D01*
X10752143Y-14993286D01*
X10742619Y-15031381D01*
X10733095Y-15050428D01*
X10723571Y-15059952D01*
X10704524Y-15069476D01*
X10685476Y-15069476D01*
X10666429Y-15059952D01*
X10656905Y-15050428D01*
X10647381Y-15031381D01*
X10637857Y-14993286D01*
X10637857Y-14945667D01*
X10647381Y-14907571D01*
X10656905Y-14888524D01*
X10666429Y-14879000D01*
X10685476Y-14869476D01*
X10837857Y-15050428D02*
X10847381Y-15059952D01*
X10837857Y-15069476D01*
X10828333Y-15059952D01*
X10837857Y-15050428D01*
X10837857Y-15069476D01*
X10971190Y-14869476D02*
X10990238Y-14869476D01*
X11009286Y-14879000D01*
X11018810Y-14888524D01*
X11028333Y-14907571D01*
X11037857Y-14945667D01*
X11037857Y-14993286D01*
X11028333Y-15031381D01*
X11018810Y-15050428D01*
X11009286Y-15059952D01*
X10990238Y-15069476D01*
X10971190Y-15069476D01*
X10952143Y-15059952D01*
X10942619Y-15050428D01*
X10933095Y-15031381D01*
X10923571Y-14993286D01*
X10923571Y-14945667D01*
X10933095Y-14907571D01*
X10942619Y-14888524D01*
X10952143Y-14879000D01*
X10971190Y-14869476D01*
X11114048Y-14888524D02*
X11123571Y-14879000D01*
X11142619Y-14869476D01*
X11190238Y-14869476D01*
X11209286Y-14879000D01*
X11218809Y-14888524D01*
X11228333Y-14907571D01*
X11228333Y-14926619D01*
X11218809Y-14955190D01*
X11104524Y-15069476D01*
X11228333Y-15069476D01*
X11295000Y-14869476D02*
X11418809Y-14869476D01*
X11352143Y-14945667D01*
X11380714Y-14945667D01*
X11399762Y-14955190D01*
X11409286Y-14964714D01*
X11418809Y-14983762D01*
X11418809Y-15031381D01*
X11409286Y-15050428D01*
X11399762Y-15059952D01*
X11380714Y-15069476D01*
X11323571Y-15069476D01*
X11304524Y-15059952D01*
X11295000Y-15050428D01*
X11590238Y-14869476D02*
X11552143Y-14869476D01*
X11533095Y-14879000D01*
X11523571Y-14888524D01*
X11504524Y-14917095D01*
X11495000Y-14955190D01*
X11495000Y-15031381D01*
X11504524Y-15050428D01*
X11514048Y-15059952D01*
X11533095Y-15069476D01*
X11571190Y-15069476D01*
X11590238Y-15059952D01*
X11599762Y-15050428D01*
X11609286Y-15031381D01*
X11609286Y-14983762D01*
X11599762Y-14964714D01*
X11590238Y-14955190D01*
X11571190Y-14945667D01*
X11533095Y-14945667D01*
X11514048Y-14955190D01*
X11504524Y-14964714D01*
X11495000Y-14983762D01*
X11685476Y-14869476D02*
X11685476Y-14907571D01*
X11761667Y-14869476D02*
X11761667Y-14907571D01*
X12056905Y-15145667D02*
X12047381Y-15136143D01*
X12028333Y-15107571D01*
X12018809Y-15088524D01*
X12009286Y-15059952D01*
X11999762Y-15012333D01*
X11999762Y-14974238D01*
X12009286Y-14926619D01*
X12018809Y-14898048D01*
X12028333Y-14879000D01*
X12047381Y-14850428D01*
X12056905Y-14840905D01*
X12171190Y-14869476D02*
X12190238Y-14869476D01*
X12209286Y-14879000D01*
X12218809Y-14888524D01*
X12228333Y-14907571D01*
X12237857Y-14945667D01*
X12237857Y-14993286D01*
X12228333Y-15031381D01*
X12218809Y-15050428D01*
X12209286Y-15059952D01*
X12190238Y-15069476D01*
X12171190Y-15069476D01*
X12152143Y-15059952D01*
X12142619Y-15050428D01*
X12133095Y-15031381D01*
X12123571Y-14993286D01*
X12123571Y-14945667D01*
X12133095Y-14907571D01*
X12142619Y-14888524D01*
X12152143Y-14879000D01*
X12171190Y-14869476D01*
X12475952Y-15069476D02*
X12475952Y-14869476D01*
X12561667Y-15069476D02*
X12561667Y-14964714D01*
X12552143Y-14945667D01*
X12533095Y-14936143D01*
X12504524Y-14936143D01*
X12485476Y-14945667D01*
X12475952Y-14955190D01*
X12685476Y-15069476D02*
X12666428Y-15059952D01*
X12656905Y-15050428D01*
X12647381Y-15031381D01*
X12647381Y-14974238D01*
X12656905Y-14955190D01*
X12666428Y-14945667D01*
X12685476Y-14936143D01*
X12714048Y-14936143D01*
X12733095Y-14945667D01*
X12742619Y-14955190D01*
X12752143Y-14974238D01*
X12752143Y-15031381D01*
X12742619Y-15050428D01*
X12733095Y-15059952D01*
X12714048Y-15069476D01*
X12685476Y-15069476D01*
X12866428Y-15069476D02*
X12847381Y-15059952D01*
X12837857Y-15040905D01*
X12837857Y-14869476D01*
X13018809Y-15059952D02*
X12999762Y-15069476D01*
X12961667Y-15069476D01*
X12942619Y-15059952D01*
X12933095Y-15040905D01*
X12933095Y-14964714D01*
X12942619Y-14945667D01*
X12961667Y-14936143D01*
X12999762Y-14936143D01*
X13018809Y-14945667D01*
X13028333Y-14964714D01*
X13028333Y-14983762D01*
X12933095Y-15002809D01*
X13104524Y-15059952D02*
X13123571Y-15069476D01*
X13161667Y-15069476D01*
X13180714Y-15059952D01*
X13190238Y-15040905D01*
X13190238Y-15031381D01*
X13180714Y-15012333D01*
X13161667Y-15002809D01*
X13133095Y-15002809D01*
X13114048Y-14993286D01*
X13104524Y-14974238D01*
X13104524Y-14964714D01*
X13114048Y-14945667D01*
X13133095Y-14936143D01*
X13161667Y-14936143D01*
X13180714Y-14945667D01*
X13428333Y-14993286D02*
X13580714Y-14993286D01*
X13504524Y-15069476D02*
X13504524Y-14917095D01*
X13914048Y-14936143D02*
X13914048Y-15069476D01*
X13866428Y-14859952D02*
X13818809Y-15002809D01*
X13942619Y-15002809D01*
X14161667Y-15059952D02*
X14180714Y-15069476D01*
X14218809Y-15069476D01*
X14237857Y-15059952D01*
X14247381Y-15040905D01*
X14247381Y-15031381D01*
X14237857Y-15012333D01*
X14218809Y-15002809D01*
X14190238Y-15002809D01*
X14171190Y-14993286D01*
X14161667Y-14974238D01*
X14161667Y-14964714D01*
X14171190Y-14945667D01*
X14190238Y-14936143D01*
X14218809Y-14936143D01*
X14237857Y-14945667D01*
X14361667Y-15069476D02*
X14342619Y-15059952D01*
X14333095Y-15040905D01*
X14333095Y-14869476D01*
X14466428Y-15069476D02*
X14447381Y-15059952D01*
X14437857Y-15050428D01*
X14428333Y-15031381D01*
X14428333Y-14974238D01*
X14437857Y-14955190D01*
X14447381Y-14945667D01*
X14466428Y-14936143D01*
X14495000Y-14936143D01*
X14514048Y-14945667D01*
X14523571Y-14955190D01*
X14533095Y-14974238D01*
X14533095Y-15031381D01*
X14523571Y-15050428D01*
X14514048Y-15059952D01*
X14495000Y-15069476D01*
X14466428Y-15069476D01*
X14590238Y-14936143D02*
X14666428Y-14936143D01*
X14618809Y-14869476D02*
X14618809Y-15040905D01*
X14628333Y-15059952D01*
X14647381Y-15069476D01*
X14666428Y-15069476D01*
X14723571Y-15059952D02*
X14742619Y-15069476D01*
X14780714Y-15069476D01*
X14799762Y-15059952D01*
X14809286Y-15040905D01*
X14809286Y-15031381D01*
X14799762Y-15012333D01*
X14780714Y-15002809D01*
X14752143Y-15002809D01*
X14733095Y-14993286D01*
X14723571Y-14974238D01*
X14723571Y-14964714D01*
X14733095Y-14945667D01*
X14752143Y-14936143D01*
X14780714Y-14936143D01*
X14799762Y-14945667D01*
X14875952Y-15145667D02*
X14885476Y-15136143D01*
X14904524Y-15107571D01*
X14914048Y-15088524D01*
X14923571Y-15059952D01*
X14933095Y-15012333D01*
X14933095Y-14974238D01*
X14923571Y-14926619D01*
X14914048Y-14898048D01*
X14904524Y-14879000D01*
X14885476Y-14850428D01*
X14875952Y-14840905D01*
D14*
X8450000Y-15208000D02*
X8450000Y-15278000D01*
X8415000Y-15243000D02*
X8485000Y-15243000D01*
D11*
X8780714Y-15133476D02*
X8799762Y-15133476D01*
X8818810Y-15143000D01*
X8828333Y-15152524D01*
X8837857Y-15171571D01*
X8847381Y-15209667D01*
X8847381Y-15257286D01*
X8837857Y-15295381D01*
X8828333Y-15314428D01*
X8818810Y-15323952D01*
X8799762Y-15333476D01*
X8780714Y-15333476D01*
X8761667Y-15323952D01*
X8752143Y-15314428D01*
X8742619Y-15295381D01*
X8733095Y-15257286D01*
X8733095Y-15209667D01*
X8742619Y-15171571D01*
X8752143Y-15152524D01*
X8761667Y-15143000D01*
X8780714Y-15133476D01*
X8933095Y-15314428D02*
X8942619Y-15323952D01*
X8933095Y-15333476D01*
X8923571Y-15323952D01*
X8933095Y-15314428D01*
X8933095Y-15333476D01*
X9009286Y-15133476D02*
X9142619Y-15133476D01*
X9056905Y-15333476D01*
X9256905Y-15133476D02*
X9275952Y-15133476D01*
X9295000Y-15143000D01*
X9304524Y-15152524D01*
X9314048Y-15171571D01*
X9323571Y-15209667D01*
X9323571Y-15257286D01*
X9314048Y-15295381D01*
X9304524Y-15314428D01*
X9295000Y-15323952D01*
X9275952Y-15333476D01*
X9256905Y-15333476D01*
X9237857Y-15323952D01*
X9228333Y-15314428D01*
X9218810Y-15295381D01*
X9209286Y-15257286D01*
X9209286Y-15209667D01*
X9218810Y-15171571D01*
X9228333Y-15152524D01*
X9237857Y-15143000D01*
X9256905Y-15133476D01*
X9447381Y-15133476D02*
X9466429Y-15133476D01*
X9485476Y-15143000D01*
X9495000Y-15152524D01*
X9504524Y-15171571D01*
X9514048Y-15209667D01*
X9514048Y-15257286D01*
X9504524Y-15295381D01*
X9495000Y-15314428D01*
X9485476Y-15323952D01*
X9466429Y-15333476D01*
X9447381Y-15333476D01*
X9428333Y-15323952D01*
X9418810Y-15314428D01*
X9409286Y-15295381D01*
X9399762Y-15257286D01*
X9399762Y-15209667D01*
X9409286Y-15171571D01*
X9418810Y-15152524D01*
X9428333Y-15143000D01*
X9447381Y-15133476D01*
X9599762Y-15333476D02*
X9599762Y-15200143D01*
X9599762Y-15219190D02*
X9609286Y-15209667D01*
X9628333Y-15200143D01*
X9656905Y-15200143D01*
X9675952Y-15209667D01*
X9685476Y-15228714D01*
X9685476Y-15333476D01*
X9685476Y-15228714D02*
X9695000Y-15209667D01*
X9714048Y-15200143D01*
X9742619Y-15200143D01*
X9761667Y-15209667D01*
X9771190Y-15228714D01*
X9771190Y-15333476D01*
X9866429Y-15333476D02*
X9866429Y-15200143D01*
X9866429Y-15219190D02*
X9875952Y-15209667D01*
X9895000Y-15200143D01*
X9923571Y-15200143D01*
X9942619Y-15209667D01*
X9952143Y-15228714D01*
X9952143Y-15333476D01*
X9952143Y-15228714D02*
X9961667Y-15209667D01*
X9980714Y-15200143D01*
X10009286Y-15200143D01*
X10028333Y-15209667D01*
X10037857Y-15228714D01*
X10037857Y-15333476D01*
X10428333Y-15123952D02*
X10256905Y-15381095D01*
X10685476Y-15133476D02*
X10704524Y-15133476D01*
X10723571Y-15143000D01*
X10733095Y-15152524D01*
X10742619Y-15171571D01*
X10752143Y-15209667D01*
X10752143Y-15257286D01*
X10742619Y-15295381D01*
X10733095Y-15314428D01*
X10723571Y-15323952D01*
X10704524Y-15333476D01*
X10685476Y-15333476D01*
X10666429Y-15323952D01*
X10656905Y-15314428D01*
X10647381Y-15295381D01*
X10637857Y-15257286D01*
X10637857Y-15209667D01*
X10647381Y-15171571D01*
X10656905Y-15152524D01*
X10666429Y-15143000D01*
X10685476Y-15133476D01*
X10837857Y-15314428D02*
X10847381Y-15323952D01*
X10837857Y-15333476D01*
X10828333Y-15323952D01*
X10837857Y-15314428D01*
X10837857Y-15333476D01*
X10971190Y-15133476D02*
X10990238Y-15133476D01*
X11009286Y-15143000D01*
X11018810Y-15152524D01*
X11028333Y-15171571D01*
X11037857Y-15209667D01*
X11037857Y-15257286D01*
X11028333Y-15295381D01*
X11018810Y-15314428D01*
X11009286Y-15323952D01*
X10990238Y-15333476D01*
X10971190Y-15333476D01*
X10952143Y-15323952D01*
X10942619Y-15314428D01*
X10933095Y-15295381D01*
X10923571Y-15257286D01*
X10923571Y-15209667D01*
X10933095Y-15171571D01*
X10942619Y-15152524D01*
X10952143Y-15143000D01*
X10971190Y-15133476D01*
X11114048Y-15152524D02*
X11123571Y-15143000D01*
X11142619Y-15133476D01*
X11190238Y-15133476D01*
X11209286Y-15143000D01*
X11218809Y-15152524D01*
X11228333Y-15171571D01*
X11228333Y-15190619D01*
X11218809Y-15219190D01*
X11104524Y-15333476D01*
X11228333Y-15333476D01*
X11295000Y-15133476D02*
X11428333Y-15133476D01*
X11342619Y-15333476D01*
X11590238Y-15133476D02*
X11552143Y-15133476D01*
X11533095Y-15143000D01*
X11523571Y-15152524D01*
X11504524Y-15181095D01*
X11495000Y-15219190D01*
X11495000Y-15295381D01*
X11504524Y-15314428D01*
X11514048Y-15323952D01*
X11533095Y-15333476D01*
X11571190Y-15333476D01*
X11590238Y-15323952D01*
X11599762Y-15314428D01*
X11609286Y-15295381D01*
X11609286Y-15247762D01*
X11599762Y-15228714D01*
X11590238Y-15219190D01*
X11571190Y-15209667D01*
X11533095Y-15209667D01*
X11514048Y-15219190D01*
X11504524Y-15228714D01*
X11495000Y-15247762D01*
X11685476Y-15133476D02*
X11685476Y-15171571D01*
X11761667Y-15133476D02*
X11761667Y-15171571D01*
X12056905Y-15409667D02*
X12047381Y-15400143D01*
X12028333Y-15371571D01*
X12018809Y-15352524D01*
X12009286Y-15323952D01*
X11999762Y-15276333D01*
X11999762Y-15238238D01*
X12009286Y-15190619D01*
X12018809Y-15162048D01*
X12028333Y-15143000D01*
X12047381Y-15114428D01*
X12056905Y-15104905D01*
X12123571Y-15152524D02*
X12133095Y-15143000D01*
X12152143Y-15133476D01*
X12199762Y-15133476D01*
X12218809Y-15143000D01*
X12228333Y-15152524D01*
X12237857Y-15171571D01*
X12237857Y-15190619D01*
X12228333Y-15219190D01*
X12114048Y-15333476D01*
X12237857Y-15333476D01*
X12361667Y-15133476D02*
X12380714Y-15133476D01*
X12399762Y-15143000D01*
X12409286Y-15152524D01*
X12418809Y-15171571D01*
X12428333Y-15209667D01*
X12428333Y-15257286D01*
X12418809Y-15295381D01*
X12409286Y-15314428D01*
X12399762Y-15323952D01*
X12380714Y-15333476D01*
X12361667Y-15333476D01*
X12342619Y-15323952D01*
X12333095Y-15314428D01*
X12323571Y-15295381D01*
X12314048Y-15257286D01*
X12314048Y-15209667D01*
X12323571Y-15171571D01*
X12333095Y-15152524D01*
X12342619Y-15143000D01*
X12361667Y-15133476D01*
X12666428Y-15333476D02*
X12666428Y-15133476D01*
X12752143Y-15333476D02*
X12752143Y-15228714D01*
X12742619Y-15209667D01*
X12723571Y-15200143D01*
X12695000Y-15200143D01*
X12675952Y-15209667D01*
X12666428Y-15219190D01*
X12875952Y-15333476D02*
X12856905Y-15323952D01*
X12847381Y-15314428D01*
X12837857Y-15295381D01*
X12837857Y-15238238D01*
X12847381Y-15219190D01*
X12856905Y-15209667D01*
X12875952Y-15200143D01*
X12904524Y-15200143D01*
X12923571Y-15209667D01*
X12933095Y-15219190D01*
X12942619Y-15238238D01*
X12942619Y-15295381D01*
X12933095Y-15314428D01*
X12923571Y-15323952D01*
X12904524Y-15333476D01*
X12875952Y-15333476D01*
X13056905Y-15333476D02*
X13037857Y-15323952D01*
X13028333Y-15304905D01*
X13028333Y-15133476D01*
X13209286Y-15323952D02*
X13190238Y-15333476D01*
X13152143Y-15333476D01*
X13133095Y-15323952D01*
X13123571Y-15304905D01*
X13123571Y-15228714D01*
X13133095Y-15209667D01*
X13152143Y-15200143D01*
X13190238Y-15200143D01*
X13209286Y-15209667D01*
X13218809Y-15228714D01*
X13218809Y-15247762D01*
X13123571Y-15266809D01*
X13295000Y-15323952D02*
X13314048Y-15333476D01*
X13352143Y-15333476D01*
X13371190Y-15323952D01*
X13380714Y-15304905D01*
X13380714Y-15295381D01*
X13371190Y-15276333D01*
X13352143Y-15266809D01*
X13323571Y-15266809D01*
X13304524Y-15257286D01*
X13295000Y-15238238D01*
X13295000Y-15228714D01*
X13304524Y-15209667D01*
X13323571Y-15200143D01*
X13352143Y-15200143D01*
X13371190Y-15209667D01*
X13447381Y-15409667D02*
X13456905Y-15400143D01*
X13475952Y-15371571D01*
X13485476Y-15352524D01*
X13495000Y-15323952D01*
X13504524Y-15276333D01*
X13504524Y-15238238D01*
X13495000Y-15190619D01*
X13485476Y-15162048D01*
X13475952Y-15143000D01*
X13456905Y-15114428D01*
X13447381Y-15104905D01*
D15*
X8471820Y-15538820D02*
X8471820Y-15475180D01*
X8408180Y-15475180D01*
X8408180Y-15538820D01*
X8471820Y-15538820D01*
D11*
X8780714Y-15397476D02*
X8799762Y-15397476D01*
X8818810Y-15407000D01*
X8828333Y-15416524D01*
X8837857Y-15435571D01*
X8847381Y-15473667D01*
X8847381Y-15521286D01*
X8837857Y-15559381D01*
X8828333Y-15578428D01*
X8818810Y-15587952D01*
X8799762Y-15597476D01*
X8780714Y-15597476D01*
X8761667Y-15587952D01*
X8752143Y-15578428D01*
X8742619Y-15559381D01*
X8733095Y-15521286D01*
X8733095Y-15473667D01*
X8742619Y-15435571D01*
X8752143Y-15416524D01*
X8761667Y-15407000D01*
X8780714Y-15397476D01*
X8933095Y-15578428D02*
X8942619Y-15587952D01*
X8933095Y-15597476D01*
X8923571Y-15587952D01*
X8933095Y-15578428D01*
X8933095Y-15597476D01*
X9037857Y-15597476D02*
X9075952Y-15597476D01*
X9095000Y-15587952D01*
X9104524Y-15578428D01*
X9123571Y-15549857D01*
X9133095Y-15511762D01*
X9133095Y-15435571D01*
X9123571Y-15416524D01*
X9114048Y-15407000D01*
X9095000Y-15397476D01*
X9056905Y-15397476D01*
X9037857Y-15407000D01*
X9028333Y-15416524D01*
X9018810Y-15435571D01*
X9018810Y-15483190D01*
X9028333Y-15502238D01*
X9037857Y-15511762D01*
X9056905Y-15521286D01*
X9095000Y-15521286D01*
X9114048Y-15511762D01*
X9123571Y-15502238D01*
X9133095Y-15483190D01*
X9256905Y-15397476D02*
X9275952Y-15397476D01*
X9295000Y-15407000D01*
X9304524Y-15416524D01*
X9314048Y-15435571D01*
X9323571Y-15473667D01*
X9323571Y-15521286D01*
X9314048Y-15559381D01*
X9304524Y-15578428D01*
X9295000Y-15587952D01*
X9275952Y-15597476D01*
X9256905Y-15597476D01*
X9237857Y-15587952D01*
X9228333Y-15578428D01*
X9218810Y-15559381D01*
X9209286Y-15521286D01*
X9209286Y-15473667D01*
X9218810Y-15435571D01*
X9228333Y-15416524D01*
X9237857Y-15407000D01*
X9256905Y-15397476D01*
X9447381Y-15397476D02*
X9466429Y-15397476D01*
X9485476Y-15407000D01*
X9495000Y-15416524D01*
X9504524Y-15435571D01*
X9514048Y-15473667D01*
X9514048Y-15521286D01*
X9504524Y-15559381D01*
X9495000Y-15578428D01*
X9485476Y-15587952D01*
X9466429Y-15597476D01*
X9447381Y-15597476D01*
X9428333Y-15587952D01*
X9418810Y-15578428D01*
X9409286Y-15559381D01*
X9399762Y-15521286D01*
X9399762Y-15473667D01*
X9409286Y-15435571D01*
X9418810Y-15416524D01*
X9428333Y-15407000D01*
X9447381Y-15397476D01*
X9599762Y-15597476D02*
X9599762Y-15464143D01*
X9599762Y-15483190D02*
X9609286Y-15473667D01*
X9628333Y-15464143D01*
X9656905Y-15464143D01*
X9675952Y-15473667D01*
X9685476Y-15492714D01*
X9685476Y-15597476D01*
X9685476Y-15492714D02*
X9695000Y-15473667D01*
X9714048Y-15464143D01*
X9742619Y-15464143D01*
X9761667Y-15473667D01*
X9771190Y-15492714D01*
X9771190Y-15597476D01*
X9866429Y-15597476D02*
X9866429Y-15464143D01*
X9866429Y-15483190D02*
X9875952Y-15473667D01*
X9895000Y-15464143D01*
X9923571Y-15464143D01*
X9942619Y-15473667D01*
X9952143Y-15492714D01*
X9952143Y-15597476D01*
X9952143Y-15492714D02*
X9961667Y-15473667D01*
X9980714Y-15464143D01*
X10009286Y-15464143D01*
X10028333Y-15473667D01*
X10037857Y-15492714D01*
X10037857Y-15597476D01*
X10428333Y-15387952D02*
X10256905Y-15645095D01*
X10685476Y-15397476D02*
X10704524Y-15397476D01*
X10723571Y-15407000D01*
X10733095Y-15416524D01*
X10742619Y-15435571D01*
X10752143Y-15473667D01*
X10752143Y-15521286D01*
X10742619Y-15559381D01*
X10733095Y-15578428D01*
X10723571Y-15587952D01*
X10704524Y-15597476D01*
X10685476Y-15597476D01*
X10666429Y-15587952D01*
X10656905Y-15578428D01*
X10647381Y-15559381D01*
X10637857Y-15521286D01*
X10637857Y-15473667D01*
X10647381Y-15435571D01*
X10656905Y-15416524D01*
X10666429Y-15407000D01*
X10685476Y-15397476D01*
X10837857Y-15578428D02*
X10847381Y-15587952D01*
X10837857Y-15597476D01*
X10828333Y-15587952D01*
X10837857Y-15578428D01*
X10837857Y-15597476D01*
X10971190Y-15397476D02*
X10990238Y-15397476D01*
X11009286Y-15407000D01*
X11018810Y-15416524D01*
X11028333Y-15435571D01*
X11037857Y-15473667D01*
X11037857Y-15521286D01*
X11028333Y-15559381D01*
X11018810Y-15578428D01*
X11009286Y-15587952D01*
X10990238Y-15597476D01*
X10971190Y-15597476D01*
X10952143Y-15587952D01*
X10942619Y-15578428D01*
X10933095Y-15559381D01*
X10923571Y-15521286D01*
X10923571Y-15473667D01*
X10933095Y-15435571D01*
X10942619Y-15416524D01*
X10952143Y-15407000D01*
X10971190Y-15397476D01*
X11104524Y-15397476D02*
X11228333Y-15397476D01*
X11161667Y-15473667D01*
X11190238Y-15473667D01*
X11209286Y-15483190D01*
X11218809Y-15492714D01*
X11228333Y-15511762D01*
X11228333Y-15559381D01*
X11218809Y-15578428D01*
X11209286Y-15587952D01*
X11190238Y-15597476D01*
X11133095Y-15597476D01*
X11114048Y-15587952D01*
X11104524Y-15578428D01*
X11409286Y-15397476D02*
X11314048Y-15397476D01*
X11304524Y-15492714D01*
X11314048Y-15483190D01*
X11333095Y-15473667D01*
X11380714Y-15473667D01*
X11399762Y-15483190D01*
X11409286Y-15492714D01*
X11418809Y-15511762D01*
X11418809Y-15559381D01*
X11409286Y-15578428D01*
X11399762Y-15587952D01*
X11380714Y-15597476D01*
X11333095Y-15597476D01*
X11314048Y-15587952D01*
X11304524Y-15578428D01*
X11590238Y-15464143D02*
X11590238Y-15597476D01*
X11542619Y-15387952D02*
X11495000Y-15530809D01*
X11618809Y-15530809D01*
X11685476Y-15397476D02*
X11685476Y-15435571D01*
X11761667Y-15397476D02*
X11761667Y-15435571D01*
X12056905Y-15673667D02*
X12047381Y-15664143D01*
X12028333Y-15635571D01*
X12018809Y-15616524D01*
X12009286Y-15587952D01*
X11999762Y-15540333D01*
X11999762Y-15502238D01*
X12009286Y-15454619D01*
X12018809Y-15426048D01*
X12028333Y-15407000D01*
X12047381Y-15378428D01*
X12056905Y-15368905D01*
X12142619Y-15597476D02*
X12180714Y-15597476D01*
X12199762Y-15587952D01*
X12209286Y-15578428D01*
X12228333Y-15549857D01*
X12237857Y-15511762D01*
X12237857Y-15435571D01*
X12228333Y-15416524D01*
X12218809Y-15407000D01*
X12199762Y-15397476D01*
X12161667Y-15397476D01*
X12142619Y-15407000D01*
X12133095Y-15416524D01*
X12123571Y-15435571D01*
X12123571Y-15483190D01*
X12133095Y-15502238D01*
X12142619Y-15511762D01*
X12161667Y-15521286D01*
X12199762Y-15521286D01*
X12218809Y-15511762D01*
X12228333Y-15502238D01*
X12237857Y-15483190D01*
X12475952Y-15597476D02*
X12475952Y-15397476D01*
X12561667Y-15597476D02*
X12561667Y-15492714D01*
X12552143Y-15473667D01*
X12533095Y-15464143D01*
X12504524Y-15464143D01*
X12485476Y-15473667D01*
X12475952Y-15483190D01*
X12685476Y-15597476D02*
X12666428Y-15587952D01*
X12656905Y-15578428D01*
X12647381Y-15559381D01*
X12647381Y-15502238D01*
X12656905Y-15483190D01*
X12666428Y-15473667D01*
X12685476Y-15464143D01*
X12714048Y-15464143D01*
X12733095Y-15473667D01*
X12742619Y-15483190D01*
X12752143Y-15502238D01*
X12752143Y-15559381D01*
X12742619Y-15578428D01*
X12733095Y-15587952D01*
X12714048Y-15597476D01*
X12685476Y-15597476D01*
X12866428Y-15597476D02*
X12847381Y-15587952D01*
X12837857Y-15568905D01*
X12837857Y-15397476D01*
X13018809Y-15587952D02*
X12999762Y-15597476D01*
X12961667Y-15597476D01*
X12942619Y-15587952D01*
X12933095Y-15568905D01*
X12933095Y-15492714D01*
X12942619Y-15473667D01*
X12961667Y-15464143D01*
X12999762Y-15464143D01*
X13018809Y-15473667D01*
X13028333Y-15492714D01*
X13028333Y-15511762D01*
X12933095Y-15530809D01*
X13104524Y-15587952D02*
X13123571Y-15597476D01*
X13161667Y-15597476D01*
X13180714Y-15587952D01*
X13190238Y-15568905D01*
X13190238Y-15559381D01*
X13180714Y-15540333D01*
X13161667Y-15530809D01*
X13133095Y-15530809D01*
X13114048Y-15521286D01*
X13104524Y-15502238D01*
X13104524Y-15492714D01*
X13114048Y-15473667D01*
X13133095Y-15464143D01*
X13161667Y-15464143D01*
X13180714Y-15473667D01*
X13256905Y-15673667D02*
X13266428Y-15664143D01*
X13285476Y-15635571D01*
X13295000Y-15616524D01*
X13304524Y-15587952D01*
X13314048Y-15540333D01*
X13314048Y-15502238D01*
X13304524Y-15454619D01*
X13295000Y-15426048D01*
X13285476Y-15407000D01*
X13266428Y-15378428D01*
X13256905Y-15368905D01*
D16*
X8435500Y-15820500D02*
X8485000Y-15771000D01*
X8435500Y-15721500D01*
X8386000Y-15771000D01*
X8435500Y-15820500D01*
D11*
X8780714Y-15661476D02*
X8799762Y-15661476D01*
X8818810Y-15671000D01*
X8828333Y-15680524D01*
X8837857Y-15699571D01*
X8847381Y-15737667D01*
X8847381Y-15785286D01*
X8837857Y-15823381D01*
X8828333Y-15842428D01*
X8818810Y-15851952D01*
X8799762Y-15861476D01*
X8780714Y-15861476D01*
X8761667Y-15851952D01*
X8752143Y-15842428D01*
X8742619Y-15823381D01*
X8733095Y-15785286D01*
X8733095Y-15737667D01*
X8742619Y-15699571D01*
X8752143Y-15680524D01*
X8761667Y-15671000D01*
X8780714Y-15661476D01*
X8933095Y-15842428D02*
X8942619Y-15851952D01*
X8933095Y-15861476D01*
X8923571Y-15851952D01*
X8933095Y-15842428D01*
X8933095Y-15861476D01*
X9037857Y-15861476D02*
X9075952Y-15861476D01*
X9095000Y-15851952D01*
X9104524Y-15842428D01*
X9123571Y-15813857D01*
X9133095Y-15775762D01*
X9133095Y-15699571D01*
X9123571Y-15680524D01*
X9114048Y-15671000D01*
X9095000Y-15661476D01*
X9056905Y-15661476D01*
X9037857Y-15671000D01*
X9028333Y-15680524D01*
X9018810Y-15699571D01*
X9018810Y-15747190D01*
X9028333Y-15766238D01*
X9037857Y-15775762D01*
X9056905Y-15785286D01*
X9095000Y-15785286D01*
X9114048Y-15775762D01*
X9123571Y-15766238D01*
X9133095Y-15747190D01*
X9228333Y-15861476D02*
X9266429Y-15861476D01*
X9285476Y-15851952D01*
X9295000Y-15842428D01*
X9314048Y-15813857D01*
X9323571Y-15775762D01*
X9323571Y-15699571D01*
X9314048Y-15680524D01*
X9304524Y-15671000D01*
X9285476Y-15661476D01*
X9247381Y-15661476D01*
X9228333Y-15671000D01*
X9218810Y-15680524D01*
X9209286Y-15699571D01*
X9209286Y-15747190D01*
X9218810Y-15766238D01*
X9228333Y-15775762D01*
X9247381Y-15785286D01*
X9285476Y-15785286D01*
X9304524Y-15775762D01*
X9314048Y-15766238D01*
X9323571Y-15747190D01*
X9447381Y-15661476D02*
X9466429Y-15661476D01*
X9485476Y-15671000D01*
X9495000Y-15680524D01*
X9504524Y-15699571D01*
X9514048Y-15737667D01*
X9514048Y-15785286D01*
X9504524Y-15823381D01*
X9495000Y-15842428D01*
X9485476Y-15851952D01*
X9466429Y-15861476D01*
X9447381Y-15861476D01*
X9428333Y-15851952D01*
X9418810Y-15842428D01*
X9409286Y-15823381D01*
X9399762Y-15785286D01*
X9399762Y-15737667D01*
X9409286Y-15699571D01*
X9418810Y-15680524D01*
X9428333Y-15671000D01*
X9447381Y-15661476D01*
X9599762Y-15861476D02*
X9599762Y-15728143D01*
X9599762Y-15747190D02*
X9609286Y-15737667D01*
X9628333Y-15728143D01*
X9656905Y-15728143D01*
X9675952Y-15737667D01*
X9685476Y-15756714D01*
X9685476Y-15861476D01*
X9685476Y-15756714D02*
X9695000Y-15737667D01*
X9714048Y-15728143D01*
X9742619Y-15728143D01*
X9761667Y-15737667D01*
X9771190Y-15756714D01*
X9771190Y-15861476D01*
X9866429Y-15861476D02*
X9866429Y-15728143D01*
X9866429Y-15747190D02*
X9875952Y-15737667D01*
X9895000Y-15728143D01*
X9923571Y-15728143D01*
X9942619Y-15737667D01*
X9952143Y-15756714D01*
X9952143Y-15861476D01*
X9952143Y-15756714D02*
X9961667Y-15737667D01*
X9980714Y-15728143D01*
X10009286Y-15728143D01*
X10028333Y-15737667D01*
X10037857Y-15756714D01*
X10037857Y-15861476D01*
X10428333Y-15651952D02*
X10256905Y-15909095D01*
X10685476Y-15661476D02*
X10704524Y-15661476D01*
X10723571Y-15671000D01*
X10733095Y-15680524D01*
X10742619Y-15699571D01*
X10752143Y-15737667D01*
X10752143Y-15785286D01*
X10742619Y-15823381D01*
X10733095Y-15842428D01*
X10723571Y-15851952D01*
X10704524Y-15861476D01*
X10685476Y-15861476D01*
X10666429Y-15851952D01*
X10656905Y-15842428D01*
X10647381Y-15823381D01*
X10637857Y-15785286D01*
X10637857Y-15737667D01*
X10647381Y-15699571D01*
X10656905Y-15680524D01*
X10666429Y-15671000D01*
X10685476Y-15661476D01*
X10837857Y-15842428D02*
X10847381Y-15851952D01*
X10837857Y-15861476D01*
X10828333Y-15851952D01*
X10837857Y-15842428D01*
X10837857Y-15861476D01*
X10971190Y-15661476D02*
X10990238Y-15661476D01*
X11009286Y-15671000D01*
X11018810Y-15680524D01*
X11028333Y-15699571D01*
X11037857Y-15737667D01*
X11037857Y-15785286D01*
X11028333Y-15823381D01*
X11018810Y-15842428D01*
X11009286Y-15851952D01*
X10990238Y-15861476D01*
X10971190Y-15861476D01*
X10952143Y-15851952D01*
X10942619Y-15842428D01*
X10933095Y-15823381D01*
X10923571Y-15785286D01*
X10923571Y-15737667D01*
X10933095Y-15699571D01*
X10942619Y-15680524D01*
X10952143Y-15671000D01*
X10971190Y-15661476D01*
X11104524Y-15661476D02*
X11228333Y-15661476D01*
X11161667Y-15737667D01*
X11190238Y-15737667D01*
X11209286Y-15747190D01*
X11218809Y-15756714D01*
X11228333Y-15775762D01*
X11228333Y-15823381D01*
X11218809Y-15842428D01*
X11209286Y-15851952D01*
X11190238Y-15861476D01*
X11133095Y-15861476D01*
X11114048Y-15851952D01*
X11104524Y-15842428D01*
X11323571Y-15861476D02*
X11361667Y-15861476D01*
X11380714Y-15851952D01*
X11390238Y-15842428D01*
X11409286Y-15813857D01*
X11418809Y-15775762D01*
X11418809Y-15699571D01*
X11409286Y-15680524D01*
X11399762Y-15671000D01*
X11380714Y-15661476D01*
X11342619Y-15661476D01*
X11323571Y-15671000D01*
X11314048Y-15680524D01*
X11304524Y-15699571D01*
X11304524Y-15747190D01*
X11314048Y-15766238D01*
X11323571Y-15775762D01*
X11342619Y-15785286D01*
X11380714Y-15785286D01*
X11399762Y-15775762D01*
X11409286Y-15766238D01*
X11418809Y-15747190D01*
X11542619Y-15661476D02*
X11561667Y-15661476D01*
X11580714Y-15671000D01*
X11590238Y-15680524D01*
X11599762Y-15699571D01*
X11609286Y-15737667D01*
X11609286Y-15785286D01*
X11599762Y-15823381D01*
X11590238Y-15842428D01*
X11580714Y-15851952D01*
X11561667Y-15861476D01*
X11542619Y-15861476D01*
X11523571Y-15851952D01*
X11514048Y-15842428D01*
X11504524Y-15823381D01*
X11495000Y-15785286D01*
X11495000Y-15737667D01*
X11504524Y-15699571D01*
X11514048Y-15680524D01*
X11523571Y-15671000D01*
X11542619Y-15661476D01*
X11685476Y-15661476D02*
X11685476Y-15699571D01*
X11761667Y-15661476D02*
X11761667Y-15699571D01*
X12056905Y-15937667D02*
X12047381Y-15928143D01*
X12028333Y-15899571D01*
X12018809Y-15880524D01*
X12009286Y-15851952D01*
X11999762Y-15804333D01*
X11999762Y-15766238D01*
X12009286Y-15718619D01*
X12018809Y-15690048D01*
X12028333Y-15671000D01*
X12047381Y-15642428D01*
X12056905Y-15632905D01*
X12123571Y-15680524D02*
X12133095Y-15671000D01*
X12152143Y-15661476D01*
X12199762Y-15661476D01*
X12218809Y-15671000D01*
X12228333Y-15680524D01*
X12237857Y-15699571D01*
X12237857Y-15718619D01*
X12228333Y-15747190D01*
X12114048Y-15861476D01*
X12237857Y-15861476D01*
X12475952Y-15861476D02*
X12475952Y-15661476D01*
X12561667Y-15861476D02*
X12561667Y-15756714D01*
X12552143Y-15737667D01*
X12533095Y-15728143D01*
X12504524Y-15728143D01*
X12485476Y-15737667D01*
X12475952Y-15747190D01*
X12685476Y-15861476D02*
X12666428Y-15851952D01*
X12656905Y-15842428D01*
X12647381Y-15823381D01*
X12647381Y-15766238D01*
X12656905Y-15747190D01*
X12666428Y-15737667D01*
X12685476Y-15728143D01*
X12714048Y-15728143D01*
X12733095Y-15737667D01*
X12742619Y-15747190D01*
X12752143Y-15766238D01*
X12752143Y-15823381D01*
X12742619Y-15842428D01*
X12733095Y-15851952D01*
X12714048Y-15861476D01*
X12685476Y-15861476D01*
X12866428Y-15861476D02*
X12847381Y-15851952D01*
X12837857Y-15832905D01*
X12837857Y-15661476D01*
X13018809Y-15851952D02*
X12999762Y-15861476D01*
X12961667Y-15861476D01*
X12942619Y-15851952D01*
X12933095Y-15832905D01*
X12933095Y-15756714D01*
X12942619Y-15737667D01*
X12961667Y-15728143D01*
X12999762Y-15728143D01*
X13018809Y-15737667D01*
X13028333Y-15756714D01*
X13028333Y-15775762D01*
X12933095Y-15794809D01*
X13104524Y-15851952D02*
X13123571Y-15861476D01*
X13161667Y-15861476D01*
X13180714Y-15851952D01*
X13190238Y-15832905D01*
X13190238Y-15823381D01*
X13180714Y-15804333D01*
X13161667Y-15794809D01*
X13133095Y-15794809D01*
X13114048Y-15785286D01*
X13104524Y-15766238D01*
X13104524Y-15756714D01*
X13114048Y-15737667D01*
X13133095Y-15728143D01*
X13161667Y-15728143D01*
X13180714Y-15737667D01*
X13256905Y-15937667D02*
X13266428Y-15928143D01*
X13285476Y-15899571D01*
X13295000Y-15880524D01*
X13304524Y-15851952D01*
X13314048Y-15804333D01*
X13314048Y-15766238D01*
X13304524Y-15718619D01*
X13295000Y-15690048D01*
X13285476Y-15671000D01*
X13266428Y-15642428D01*
X13256905Y-15632905D01*
D17*
X8355000Y-15970000D02*
X8485000Y-16100000D01*
X8485000Y-15970000D02*
X8355000Y-16100000D01*
X8485000Y-16035000D02*
G75*
G03*
X8485000Y-16035000I-65000J0D01*
G01*
D11*
X8847381Y-16125476D02*
X8733095Y-16125476D01*
X8790238Y-16125476D02*
X8790238Y-15925476D01*
X8771190Y-15954048D01*
X8752143Y-15973095D01*
X8733095Y-15982619D01*
X8933095Y-16106428D02*
X8942619Y-16115952D01*
X8933095Y-16125476D01*
X8923571Y-16115952D01*
X8933095Y-16106428D01*
X8933095Y-16125476D01*
X9009286Y-15925476D02*
X9133095Y-15925476D01*
X9066429Y-16001667D01*
X9095000Y-16001667D01*
X9114048Y-16011190D01*
X9123571Y-16020714D01*
X9133095Y-16039762D01*
X9133095Y-16087381D01*
X9123571Y-16106428D01*
X9114048Y-16115952D01*
X9095000Y-16125476D01*
X9037857Y-16125476D01*
X9018810Y-16115952D01*
X9009286Y-16106428D01*
X9256905Y-15925476D02*
X9275952Y-15925476D01*
X9295000Y-15935000D01*
X9304524Y-15944524D01*
X9314048Y-15963571D01*
X9323571Y-16001667D01*
X9323571Y-16049286D01*
X9314048Y-16087381D01*
X9304524Y-16106428D01*
X9295000Y-16115952D01*
X9275952Y-16125476D01*
X9256905Y-16125476D01*
X9237857Y-16115952D01*
X9228333Y-16106428D01*
X9218810Y-16087381D01*
X9209286Y-16049286D01*
X9209286Y-16001667D01*
X9218810Y-15963571D01*
X9228333Y-15944524D01*
X9237857Y-15935000D01*
X9256905Y-15925476D01*
X9447381Y-15925476D02*
X9466429Y-15925476D01*
X9485476Y-15935000D01*
X9495000Y-15944524D01*
X9504524Y-15963571D01*
X9514048Y-16001667D01*
X9514048Y-16049286D01*
X9504524Y-16087381D01*
X9495000Y-16106428D01*
X9485476Y-16115952D01*
X9466429Y-16125476D01*
X9447381Y-16125476D01*
X9428333Y-16115952D01*
X9418810Y-16106428D01*
X9409286Y-16087381D01*
X9399762Y-16049286D01*
X9399762Y-16001667D01*
X9409286Y-15963571D01*
X9418810Y-15944524D01*
X9428333Y-15935000D01*
X9447381Y-15925476D01*
X9599762Y-16125476D02*
X9599762Y-15992143D01*
X9599762Y-16011190D02*
X9609286Y-16001667D01*
X9628333Y-15992143D01*
X9656905Y-15992143D01*
X9675952Y-16001667D01*
X9685476Y-16020714D01*
X9685476Y-16125476D01*
X9685476Y-16020714D02*
X9695000Y-16001667D01*
X9714048Y-15992143D01*
X9742619Y-15992143D01*
X9761667Y-16001667D01*
X9771190Y-16020714D01*
X9771190Y-16125476D01*
X9866429Y-16125476D02*
X9866429Y-15992143D01*
X9866429Y-16011190D02*
X9875952Y-16001667D01*
X9895000Y-15992143D01*
X9923571Y-15992143D01*
X9942619Y-16001667D01*
X9952143Y-16020714D01*
X9952143Y-16125476D01*
X9952143Y-16020714D02*
X9961667Y-16001667D01*
X9980714Y-15992143D01*
X10009286Y-15992143D01*
X10028333Y-16001667D01*
X10037857Y-16020714D01*
X10037857Y-16125476D01*
X10428333Y-15915952D02*
X10256905Y-16173095D01*
X10685476Y-15925476D02*
X10704524Y-15925476D01*
X10723571Y-15935000D01*
X10733095Y-15944524D01*
X10742619Y-15963571D01*
X10752143Y-16001667D01*
X10752143Y-16049286D01*
X10742619Y-16087381D01*
X10733095Y-16106428D01*
X10723571Y-16115952D01*
X10704524Y-16125476D01*
X10685476Y-16125476D01*
X10666429Y-16115952D01*
X10656905Y-16106428D01*
X10647381Y-16087381D01*
X10637857Y-16049286D01*
X10637857Y-16001667D01*
X10647381Y-15963571D01*
X10656905Y-15944524D01*
X10666429Y-15935000D01*
X10685476Y-15925476D01*
X10837857Y-16106428D02*
X10847381Y-16115952D01*
X10837857Y-16125476D01*
X10828333Y-16115952D01*
X10837857Y-16106428D01*
X10837857Y-16125476D01*
X10971190Y-15925476D02*
X10990238Y-15925476D01*
X11009286Y-15935000D01*
X11018810Y-15944524D01*
X11028333Y-15963571D01*
X11037857Y-16001667D01*
X11037857Y-16049286D01*
X11028333Y-16087381D01*
X11018810Y-16106428D01*
X11009286Y-16115952D01*
X10990238Y-16125476D01*
X10971190Y-16125476D01*
X10952143Y-16115952D01*
X10942619Y-16106428D01*
X10933095Y-16087381D01*
X10923571Y-16049286D01*
X10923571Y-16001667D01*
X10933095Y-15963571D01*
X10942619Y-15944524D01*
X10952143Y-15935000D01*
X10971190Y-15925476D01*
X11218809Y-15925476D02*
X11123571Y-15925476D01*
X11114048Y-16020714D01*
X11123571Y-16011190D01*
X11142619Y-16001667D01*
X11190238Y-16001667D01*
X11209286Y-16011190D01*
X11218809Y-16020714D01*
X11228333Y-16039762D01*
X11228333Y-16087381D01*
X11218809Y-16106428D01*
X11209286Y-16115952D01*
X11190238Y-16125476D01*
X11142619Y-16125476D01*
X11123571Y-16115952D01*
X11114048Y-16106428D01*
X11418809Y-16125476D02*
X11304524Y-16125476D01*
X11361667Y-16125476D02*
X11361667Y-15925476D01*
X11342619Y-15954048D01*
X11323571Y-15973095D01*
X11304524Y-15982619D01*
X11495000Y-15944524D02*
X11504524Y-15935000D01*
X11523571Y-15925476D01*
X11571190Y-15925476D01*
X11590238Y-15935000D01*
X11599762Y-15944524D01*
X11609286Y-15963571D01*
X11609286Y-15982619D01*
X11599762Y-16011190D01*
X11485476Y-16125476D01*
X11609286Y-16125476D01*
X11685476Y-15925476D02*
X11685476Y-15963571D01*
X11761667Y-15925476D02*
X11761667Y-15963571D01*
X12056905Y-16201667D02*
X12047381Y-16192143D01*
X12028333Y-16163571D01*
X12018809Y-16144524D01*
X12009286Y-16115952D01*
X11999762Y-16068333D01*
X11999762Y-16030238D01*
X12009286Y-15982619D01*
X12018809Y-15954048D01*
X12028333Y-15935000D01*
X12047381Y-15906428D01*
X12056905Y-15896905D01*
X12123571Y-15944524D02*
X12133095Y-15935000D01*
X12152143Y-15925476D01*
X12199762Y-15925476D01*
X12218809Y-15935000D01*
X12228333Y-15944524D01*
X12237857Y-15963571D01*
X12237857Y-15982619D01*
X12228333Y-16011190D01*
X12114048Y-16125476D01*
X12237857Y-16125476D01*
X12475952Y-16125476D02*
X12475952Y-15925476D01*
X12561667Y-16125476D02*
X12561667Y-16020714D01*
X12552143Y-16001667D01*
X12533095Y-15992143D01*
X12504524Y-15992143D01*
X12485476Y-16001667D01*
X12475952Y-16011190D01*
X12685476Y-16125476D02*
X12666428Y-16115952D01*
X12656905Y-16106428D01*
X12647381Y-16087381D01*
X12647381Y-16030238D01*
X12656905Y-16011190D01*
X12666428Y-16001667D01*
X12685476Y-15992143D01*
X12714048Y-15992143D01*
X12733095Y-16001667D01*
X12742619Y-16011190D01*
X12752143Y-16030238D01*
X12752143Y-16087381D01*
X12742619Y-16106428D01*
X12733095Y-16115952D01*
X12714048Y-16125476D01*
X12685476Y-16125476D01*
X12866428Y-16125476D02*
X12847381Y-16115952D01*
X12837857Y-16096905D01*
X12837857Y-15925476D01*
X13018809Y-16115952D02*
X12999762Y-16125476D01*
X12961667Y-16125476D01*
X12942619Y-16115952D01*
X12933095Y-16096905D01*
X12933095Y-16020714D01*
X12942619Y-16001667D01*
X12961667Y-15992143D01*
X12999762Y-15992143D01*
X13018809Y-16001667D01*
X13028333Y-16020714D01*
X13028333Y-16039762D01*
X12933095Y-16058809D01*
X13104524Y-16115952D02*
X13123571Y-16125476D01*
X13161667Y-16125476D01*
X13180714Y-16115952D01*
X13190238Y-16096905D01*
X13190238Y-16087381D01*
X13180714Y-16068333D01*
X13161667Y-16058809D01*
X13133095Y-16058809D01*
X13114048Y-16049286D01*
X13104524Y-16030238D01*
X13104524Y-16020714D01*
X13114048Y-16001667D01*
X13133095Y-15992143D01*
X13161667Y-15992143D01*
X13180714Y-16001667D01*
X13256905Y-16201667D02*
X13266428Y-16192143D01*
X13285476Y-16163571D01*
X13295000Y-16144524D01*
X13304524Y-16115952D01*
X13314048Y-16068333D01*
X13314048Y-16030238D01*
X13304524Y-15982619D01*
X13295000Y-15954048D01*
X13285476Y-15935000D01*
X13266428Y-15906428D01*
X13256905Y-15896905D01*
D18*
X8335000Y-16224000D02*
X8485000Y-16374000D01*
X8485000Y-16224000D02*
X8335000Y-16374000D01*
X8410000Y-16224000D02*
X8410000Y-16374000D01*
X8335000Y-16299000D02*
X8485000Y-16299000D01*
D11*
X8847381Y-16389476D02*
X8733095Y-16389476D01*
X8790238Y-16389476D02*
X8790238Y-16189476D01*
X8771190Y-16218048D01*
X8752143Y-16237095D01*
X8733095Y-16246619D01*
X8933095Y-16370428D02*
X8942619Y-16379952D01*
X8933095Y-16389476D01*
X8923571Y-16379952D01*
X8933095Y-16370428D01*
X8933095Y-16389476D01*
X9123571Y-16189476D02*
X9028333Y-16189476D01*
X9018810Y-16284714D01*
X9028333Y-16275190D01*
X9047381Y-16265667D01*
X9095000Y-16265667D01*
X9114048Y-16275190D01*
X9123571Y-16284714D01*
X9133095Y-16303762D01*
X9133095Y-16351381D01*
X9123571Y-16370428D01*
X9114048Y-16379952D01*
X9095000Y-16389476D01*
X9047381Y-16389476D01*
X9028333Y-16379952D01*
X9018810Y-16370428D01*
X9256905Y-16189476D02*
X9275952Y-16189476D01*
X9295000Y-16199000D01*
X9304524Y-16208524D01*
X9314048Y-16227571D01*
X9323571Y-16265667D01*
X9323571Y-16313286D01*
X9314048Y-16351381D01*
X9304524Y-16370428D01*
X9295000Y-16379952D01*
X9275952Y-16389476D01*
X9256905Y-16389476D01*
X9237857Y-16379952D01*
X9228333Y-16370428D01*
X9218810Y-16351381D01*
X9209286Y-16313286D01*
X9209286Y-16265667D01*
X9218810Y-16227571D01*
X9228333Y-16208524D01*
X9237857Y-16199000D01*
X9256905Y-16189476D01*
X9447381Y-16189476D02*
X9466429Y-16189476D01*
X9485476Y-16199000D01*
X9495000Y-16208524D01*
X9504524Y-16227571D01*
X9514048Y-16265667D01*
X9514048Y-16313286D01*
X9504524Y-16351381D01*
X9495000Y-16370428D01*
X9485476Y-16379952D01*
X9466429Y-16389476D01*
X9447381Y-16389476D01*
X9428333Y-16379952D01*
X9418810Y-16370428D01*
X9409286Y-16351381D01*
X9399762Y-16313286D01*
X9399762Y-16265667D01*
X9409286Y-16227571D01*
X9418810Y-16208524D01*
X9428333Y-16199000D01*
X9447381Y-16189476D01*
X9599762Y-16389476D02*
X9599762Y-16256143D01*
X9599762Y-16275190D02*
X9609286Y-16265667D01*
X9628333Y-16256143D01*
X9656905Y-16256143D01*
X9675952Y-16265667D01*
X9685476Y-16284714D01*
X9685476Y-16389476D01*
X9685476Y-16284714D02*
X9695000Y-16265667D01*
X9714048Y-16256143D01*
X9742619Y-16256143D01*
X9761667Y-16265667D01*
X9771190Y-16284714D01*
X9771190Y-16389476D01*
X9866429Y-16389476D02*
X9866429Y-16256143D01*
X9866429Y-16275190D02*
X9875952Y-16265667D01*
X9895000Y-16256143D01*
X9923571Y-16256143D01*
X9942619Y-16265667D01*
X9952143Y-16284714D01*
X9952143Y-16389476D01*
X9952143Y-16284714D02*
X9961667Y-16265667D01*
X9980714Y-16256143D01*
X10009286Y-16256143D01*
X10028333Y-16265667D01*
X10037857Y-16284714D01*
X10037857Y-16389476D01*
X10428333Y-16179952D02*
X10256905Y-16437095D01*
X10685476Y-16189476D02*
X10704524Y-16189476D01*
X10723571Y-16199000D01*
X10733095Y-16208524D01*
X10742619Y-16227571D01*
X10752143Y-16265667D01*
X10752143Y-16313286D01*
X10742619Y-16351381D01*
X10733095Y-16370428D01*
X10723571Y-16379952D01*
X10704524Y-16389476D01*
X10685476Y-16389476D01*
X10666429Y-16379952D01*
X10656905Y-16370428D01*
X10647381Y-16351381D01*
X10637857Y-16313286D01*
X10637857Y-16265667D01*
X10647381Y-16227571D01*
X10656905Y-16208524D01*
X10666429Y-16199000D01*
X10685476Y-16189476D01*
X10837857Y-16370428D02*
X10847381Y-16379952D01*
X10837857Y-16389476D01*
X10828333Y-16379952D01*
X10837857Y-16370428D01*
X10837857Y-16389476D01*
X10971190Y-16189476D02*
X10990238Y-16189476D01*
X11009286Y-16199000D01*
X11018810Y-16208524D01*
X11028333Y-16227571D01*
X11037857Y-16265667D01*
X11037857Y-16313286D01*
X11028333Y-16351381D01*
X11018810Y-16370428D01*
X11009286Y-16379952D01*
X10990238Y-16389476D01*
X10971190Y-16389476D01*
X10952143Y-16379952D01*
X10942619Y-16370428D01*
X10933095Y-16351381D01*
X10923571Y-16313286D01*
X10923571Y-16265667D01*
X10933095Y-16227571D01*
X10942619Y-16208524D01*
X10952143Y-16199000D01*
X10971190Y-16189476D01*
X11218809Y-16189476D02*
X11123571Y-16189476D01*
X11114048Y-16284714D01*
X11123571Y-16275190D01*
X11142619Y-16265667D01*
X11190238Y-16265667D01*
X11209286Y-16275190D01*
X11218809Y-16284714D01*
X11228333Y-16303762D01*
X11228333Y-16351381D01*
X11218809Y-16370428D01*
X11209286Y-16379952D01*
X11190238Y-16389476D01*
X11142619Y-16389476D01*
X11123571Y-16379952D01*
X11114048Y-16370428D01*
X11323571Y-16389476D02*
X11361667Y-16389476D01*
X11380714Y-16379952D01*
X11390238Y-16370428D01*
X11409286Y-16341857D01*
X11418809Y-16303762D01*
X11418809Y-16227571D01*
X11409286Y-16208524D01*
X11399762Y-16199000D01*
X11380714Y-16189476D01*
X11342619Y-16189476D01*
X11323571Y-16199000D01*
X11314048Y-16208524D01*
X11304524Y-16227571D01*
X11304524Y-16275190D01*
X11314048Y-16294238D01*
X11323571Y-16303762D01*
X11342619Y-16313286D01*
X11380714Y-16313286D01*
X11399762Y-16303762D01*
X11409286Y-16294238D01*
X11418809Y-16275190D01*
X11609286Y-16389476D02*
X11495000Y-16389476D01*
X11552143Y-16389476D02*
X11552143Y-16189476D01*
X11533095Y-16218048D01*
X11514048Y-16237095D01*
X11495000Y-16246619D01*
X11685476Y-16189476D02*
X11685476Y-16227571D01*
X11761667Y-16189476D02*
X11761667Y-16227571D01*
X12056905Y-16465667D02*
X12047381Y-16456143D01*
X12028333Y-16427571D01*
X12018809Y-16408524D01*
X12009286Y-16379952D01*
X11999762Y-16332333D01*
X11999762Y-16294238D01*
X12009286Y-16246619D01*
X12018809Y-16218048D01*
X12028333Y-16199000D01*
X12047381Y-16170428D01*
X12056905Y-16160905D01*
X12114048Y-16189476D02*
X12247381Y-16189476D01*
X12161667Y-16389476D01*
X12475952Y-16389476D02*
X12475952Y-16189476D01*
X12561667Y-16389476D02*
X12561667Y-16284714D01*
X12552143Y-16265667D01*
X12533095Y-16256143D01*
X12504524Y-16256143D01*
X12485476Y-16265667D01*
X12475952Y-16275190D01*
X12685476Y-16389476D02*
X12666428Y-16379952D01*
X12656905Y-16370428D01*
X12647381Y-16351381D01*
X12647381Y-16294238D01*
X12656905Y-16275190D01*
X12666428Y-16265667D01*
X12685476Y-16256143D01*
X12714048Y-16256143D01*
X12733095Y-16265667D01*
X12742619Y-16275190D01*
X12752143Y-16294238D01*
X12752143Y-16351381D01*
X12742619Y-16370428D01*
X12733095Y-16379952D01*
X12714048Y-16389476D01*
X12685476Y-16389476D01*
X12866428Y-16389476D02*
X12847381Y-16379952D01*
X12837857Y-16360905D01*
X12837857Y-16189476D01*
X13018809Y-16379952D02*
X12999762Y-16389476D01*
X12961667Y-16389476D01*
X12942619Y-16379952D01*
X12933095Y-16360905D01*
X12933095Y-16284714D01*
X12942619Y-16265667D01*
X12961667Y-16256143D01*
X12999762Y-16256143D01*
X13018809Y-16265667D01*
X13028333Y-16284714D01*
X13028333Y-16303762D01*
X12933095Y-16322809D01*
X13104524Y-16379952D02*
X13123571Y-16389476D01*
X13161667Y-16389476D01*
X13180714Y-16379952D01*
X13190238Y-16360905D01*
X13190238Y-16351381D01*
X13180714Y-16332333D01*
X13161667Y-16322809D01*
X13133095Y-16322809D01*
X13114048Y-16313286D01*
X13104524Y-16294238D01*
X13104524Y-16284714D01*
X13114048Y-16265667D01*
X13133095Y-16256143D01*
X13161667Y-16256143D01*
X13180714Y-16265667D01*
X13256905Y-16465667D02*
X13266428Y-16456143D01*
X13285476Y-16427571D01*
X13295000Y-16408524D01*
X13304524Y-16379952D01*
X13314048Y-16332333D01*
X13314048Y-16294238D01*
X13304524Y-16246619D01*
X13295000Y-16218048D01*
X13285476Y-16199000D01*
X13266428Y-16170428D01*
X13256905Y-16160905D01*
X8285000Y-16469000D02*
X8485000Y-16669000D01*
X8485000Y-16469000D02*
X8285000Y-16669000D01*
X8455711Y-16639711D02*
X8455711Y-16498289D01*
X8314289Y-16498289D01*
X8314289Y-16639711D01*
X8455711Y-16639711D01*
X8723571Y-16459476D02*
X8847381Y-16459476D01*
X8780714Y-16535667D01*
X8809286Y-16535667D01*
X8828333Y-16545190D01*
X8837857Y-16554714D01*
X8847381Y-16573762D01*
X8847381Y-16621381D01*
X8837857Y-16640428D01*
X8828333Y-16649952D01*
X8809286Y-16659476D01*
X8752143Y-16659476D01*
X8733095Y-16649952D01*
X8723571Y-16640428D01*
X8933095Y-16640428D02*
X8942619Y-16649952D01*
X8933095Y-16659476D01*
X8923571Y-16649952D01*
X8933095Y-16640428D01*
X8933095Y-16659476D01*
X9018810Y-16478524D02*
X9028333Y-16469000D01*
X9047381Y-16459476D01*
X9095000Y-16459476D01*
X9114048Y-16469000D01*
X9123571Y-16478524D01*
X9133095Y-16497571D01*
X9133095Y-16516619D01*
X9123571Y-16545190D01*
X9009286Y-16659476D01*
X9133095Y-16659476D01*
X9256905Y-16459476D02*
X9275952Y-16459476D01*
X9295000Y-16469000D01*
X9304524Y-16478524D01*
X9314048Y-16497571D01*
X9323571Y-16535667D01*
X9323571Y-16583286D01*
X9314048Y-16621381D01*
X9304524Y-16640428D01*
X9295000Y-16649952D01*
X9275952Y-16659476D01*
X9256905Y-16659476D01*
X9237857Y-16649952D01*
X9228333Y-16640428D01*
X9218810Y-16621381D01*
X9209286Y-16583286D01*
X9209286Y-16535667D01*
X9218810Y-16497571D01*
X9228333Y-16478524D01*
X9237857Y-16469000D01*
X9256905Y-16459476D01*
X9447381Y-16459476D02*
X9466429Y-16459476D01*
X9485476Y-16469000D01*
X9495000Y-16478524D01*
X9504524Y-16497571D01*
X9514048Y-16535667D01*
X9514048Y-16583286D01*
X9504524Y-16621381D01*
X9495000Y-16640428D01*
X9485476Y-16649952D01*
X9466429Y-16659476D01*
X9447381Y-16659476D01*
X9428333Y-16649952D01*
X9418810Y-16640428D01*
X9409286Y-16621381D01*
X9399762Y-16583286D01*
X9399762Y-16535667D01*
X9409286Y-16497571D01*
X9418810Y-16478524D01*
X9428333Y-16469000D01*
X9447381Y-16459476D01*
X9599762Y-16659476D02*
X9599762Y-16526143D01*
X9599762Y-16545190D02*
X9609286Y-16535667D01*
X9628333Y-16526143D01*
X9656905Y-16526143D01*
X9675952Y-16535667D01*
X9685476Y-16554714D01*
X9685476Y-16659476D01*
X9685476Y-16554714D02*
X9695000Y-16535667D01*
X9714048Y-16526143D01*
X9742619Y-16526143D01*
X9761667Y-16535667D01*
X9771190Y-16554714D01*
X9771190Y-16659476D01*
X9866429Y-16659476D02*
X9866429Y-16526143D01*
X9866429Y-16545190D02*
X9875952Y-16535667D01*
X9895000Y-16526143D01*
X9923571Y-16526143D01*
X9942619Y-16535667D01*
X9952143Y-16554714D01*
X9952143Y-16659476D01*
X9952143Y-16554714D02*
X9961667Y-16535667D01*
X9980714Y-16526143D01*
X10009286Y-16526143D01*
X10028333Y-16535667D01*
X10037857Y-16554714D01*
X10037857Y-16659476D01*
X10428333Y-16449952D02*
X10256905Y-16707095D01*
X10685476Y-16459476D02*
X10704524Y-16459476D01*
X10723571Y-16469000D01*
X10733095Y-16478524D01*
X10742619Y-16497571D01*
X10752143Y-16535667D01*
X10752143Y-16583286D01*
X10742619Y-16621381D01*
X10733095Y-16640428D01*
X10723571Y-16649952D01*
X10704524Y-16659476D01*
X10685476Y-16659476D01*
X10666429Y-16649952D01*
X10656905Y-16640428D01*
X10647381Y-16621381D01*
X10637857Y-16583286D01*
X10637857Y-16535667D01*
X10647381Y-16497571D01*
X10656905Y-16478524D01*
X10666429Y-16469000D01*
X10685476Y-16459476D01*
X10837857Y-16640428D02*
X10847381Y-16649952D01*
X10837857Y-16659476D01*
X10828333Y-16649952D01*
X10837857Y-16640428D01*
X10837857Y-16659476D01*
X11037857Y-16659476D02*
X10923571Y-16659476D01*
X10980714Y-16659476D02*
X10980714Y-16459476D01*
X10961667Y-16488048D01*
X10942619Y-16507095D01*
X10923571Y-16516619D01*
X11114048Y-16478524D02*
X11123571Y-16469000D01*
X11142619Y-16459476D01*
X11190238Y-16459476D01*
X11209286Y-16469000D01*
X11218809Y-16478524D01*
X11228333Y-16497571D01*
X11228333Y-16516619D01*
X11218809Y-16545190D01*
X11104524Y-16659476D01*
X11228333Y-16659476D01*
X11399762Y-16459476D02*
X11361667Y-16459476D01*
X11342619Y-16469000D01*
X11333095Y-16478524D01*
X11314048Y-16507095D01*
X11304524Y-16545190D01*
X11304524Y-16621381D01*
X11314048Y-16640428D01*
X11323571Y-16649952D01*
X11342619Y-16659476D01*
X11380714Y-16659476D01*
X11399762Y-16649952D01*
X11409286Y-16640428D01*
X11418809Y-16621381D01*
X11418809Y-16573762D01*
X11409286Y-16554714D01*
X11399762Y-16545190D01*
X11380714Y-16535667D01*
X11342619Y-16535667D01*
X11323571Y-16545190D01*
X11314048Y-16554714D01*
X11304524Y-16573762D01*
X11542619Y-16459476D02*
X11561667Y-16459476D01*
X11580714Y-16469000D01*
X11590238Y-16478524D01*
X11599762Y-16497571D01*
X11609286Y-16535667D01*
X11609286Y-16583286D01*
X11599762Y-16621381D01*
X11590238Y-16640428D01*
X11580714Y-16649952D01*
X11561667Y-16659476D01*
X11542619Y-16659476D01*
X11523571Y-16649952D01*
X11514048Y-16640428D01*
X11504524Y-16621381D01*
X11495000Y-16583286D01*
X11495000Y-16535667D01*
X11504524Y-16497571D01*
X11514048Y-16478524D01*
X11523571Y-16469000D01*
X11542619Y-16459476D01*
X11685476Y-16459476D02*
X11685476Y-16497571D01*
X11761667Y-16459476D02*
X11761667Y-16497571D01*
X12056905Y-16735667D02*
X12047381Y-16726143D01*
X12028333Y-16697571D01*
X12018809Y-16678524D01*
X12009286Y-16649952D01*
X11999762Y-16602333D01*
X11999762Y-16564238D01*
X12009286Y-16516619D01*
X12018809Y-16488048D01*
X12028333Y-16469000D01*
X12047381Y-16440428D01*
X12056905Y-16430905D01*
X12218809Y-16526143D02*
X12218809Y-16659476D01*
X12171190Y-16449952D02*
X12123571Y-16592809D01*
X12247381Y-16592809D01*
X12475952Y-16659476D02*
X12475952Y-16459476D01*
X12561667Y-16659476D02*
X12561667Y-16554714D01*
X12552143Y-16535667D01*
X12533095Y-16526143D01*
X12504524Y-16526143D01*
X12485476Y-16535667D01*
X12475952Y-16545190D01*
X12685476Y-16659476D02*
X12666428Y-16649952D01*
X12656905Y-16640428D01*
X12647381Y-16621381D01*
X12647381Y-16564238D01*
X12656905Y-16545190D01*
X12666428Y-16535667D01*
X12685476Y-16526143D01*
X12714048Y-16526143D01*
X12733095Y-16535667D01*
X12742619Y-16545190D01*
X12752143Y-16564238D01*
X12752143Y-16621381D01*
X12742619Y-16640428D01*
X12733095Y-16649952D01*
X12714048Y-16659476D01*
X12685476Y-16659476D01*
X12866428Y-16659476D02*
X12847381Y-16649952D01*
X12837857Y-16630905D01*
X12837857Y-16459476D01*
X13018809Y-16649952D02*
X12999762Y-16659476D01*
X12961667Y-16659476D01*
X12942619Y-16649952D01*
X12933095Y-16630905D01*
X12933095Y-16554714D01*
X12942619Y-16535667D01*
X12961667Y-16526143D01*
X12999762Y-16526143D01*
X13018809Y-16535667D01*
X13028333Y-16554714D01*
X13028333Y-16573762D01*
X12933095Y-16592809D01*
X13104524Y-16649952D02*
X13123571Y-16659476D01*
X13161667Y-16659476D01*
X13180714Y-16649952D01*
X13190238Y-16630905D01*
X13190238Y-16621381D01*
X13180714Y-16602333D01*
X13161667Y-16592809D01*
X13133095Y-16592809D01*
X13114048Y-16583286D01*
X13104524Y-16564238D01*
X13104524Y-16554714D01*
X13114048Y-16535667D01*
X13133095Y-16526143D01*
X13161667Y-16526143D01*
X13180714Y-16535667D01*
X13256905Y-16735667D02*
X13266428Y-16726143D01*
X13285476Y-16697571D01*
X13295000Y-16678524D01*
X13304524Y-16649952D01*
X13314048Y-16602333D01*
X13314048Y-16564238D01*
X13304524Y-16516619D01*
X13295000Y-16488048D01*
X13285476Y-16469000D01*
X13266428Y-16440428D01*
X13256905Y-16430905D01*
M02*
